<svg width="283" height="193" fill="none" xmlns="http://www.w3.org/2000/svg"><path d="M36.626 68.592c4.626-6.85 10.965-12.416 19.018-16.698 8.225-4.282 17.563-6.423 28.015-6.423 12.165 0 23.131 2.998 32.898 8.992 9.937 5.994 17.733 14.557 23.388 25.69 5.825 10.961 8.738 23.72 8.738 38.278s-2.913 27.488-8.738 38.792c-5.655 11.132-13.451 19.781-23.388 25.947-9.767 6.166-20.733 9.248-32.898 9.248-10.623 0-19.962-2.055-28.015-6.165-7.881-4.282-14.22-9.763-19.018-16.442v20.295H.644V0h35.982v68.592zm75.304 49.839c0-8.563-1.799-15.928-5.397-22.093C103.106 90 98.48 85.205 92.654 81.95c-5.654-3.254-11.822-4.88-18.505-4.88-6.51 0-12.679 1.712-18.505 5.137-5.654 3.254-10.28 8.05-13.878 14.386-3.427 6.337-5.14 13.787-5.14 22.351 0 8.563 1.713 16.013 5.14 22.35 3.598 6.337 8.224 11.218 13.878 14.643 5.826 3.255 11.994 4.882 18.505 4.882 6.683 0 12.851-1.713 18.505-5.138 5.826-3.426 10.452-8.307 13.879-14.644 3.598-6.337 5.397-13.872 5.397-22.607zM226.971 192.418c-11.651 0-22.103-2.055-31.355-6.165-9.253-4.282-16.62-10.019-22.103-17.213-5.312-7.193-8.225-15.157-8.739-23.891h36.239c.685 5.48 3.341 10.019 7.967 13.615 4.798 3.597 10.709 5.395 17.734 5.395 6.854 0 12.165-1.37 15.935-4.11 3.941-2.74 5.911-6.251 5.911-10.533 0-4.624-2.399-8.05-7.196-10.276-4.626-2.398-12.08-4.967-22.36-7.707-10.623-2.569-19.362-5.224-26.215-7.964-6.683-2.74-12.509-6.936-17.477-12.588-4.798-5.652-7.197-13.273-7.197-22.864 0-7.879 2.228-15.072 6.683-21.58 4.626-6.508 11.137-11.646 19.533-15.414 8.567-3.768 18.59-5.652 30.07-5.652 16.963 0 30.499 4.282 40.608 12.845 10.109 8.392 15.678 19.782 16.706 34.168h-34.44c-.514-5.652-2.913-10.105-7.196-13.359-4.112-3.425-9.681-5.138-16.706-5.138-6.511 0-11.566 1.2-15.164 3.597-3.427 2.398-5.14 5.737-5.14 10.019 0 4.796 2.399 8.478 7.196 11.047 4.798 2.397 12.251 4.881 22.36 7.45 10.281 2.569 18.762 5.223 25.445 7.964 6.682 2.74 12.422 7.022 17.22 12.845 4.969 5.652 7.539 13.187 7.71 22.607 0 8.221-2.313 15.585-6.939 22.093-4.455 6.509-10.966 11.647-19.533 15.414-8.396 3.597-18.248 5.395-29.557 5.395z" fill="#FAF6F0"/></svg>