<svg width="64" height="64" fill="none" xmlns="http://www.w3.org/2000/svg"><circle opacity=".2" cx="32" cy="32" r="30.25" stroke="#fff" stroke-width="1.5"/><path fill-rule="evenodd" clip-rule="evenodd" d="M24.468 22.259l-7.176 16.657c-.577 1.212-.946 2.532-1.737 3.666l-.236.156c-.736-.102-1.681.31-2.157-.388-.788-.826-1.604-1.782-2.338-2.662-.027-.078-.052-.259.028-.259l2.945.621 1.813-3.59 3.154-5.655 4.023-6.686c.524-.697.92-1.447 1.497-2.119h.236l-.052.259z" fill="#CF4037"/><path fill-rule="evenodd" clip-rule="evenodd" d="M11.029 37.526l.855-5.31h-1.713l-.856 5.31H5.71L7.82 24.44h3.602l-.754 4.685h1.714l.756-4.685h3.602l-2.11 13.085H11.03zm25.213-9.25c-.435-.487-.813-.763-1.555-.763-1.873 0-2.659 2.031-2.89 3.47-.246 1.528-.1 3.47 1.701 3.47.814 0 1.376-.312 2.043-.833l-.801 3.661c-.774.313-1.453.47-2.25.47-2.95 0-5.101-2.205-4.38-6.682.946-5.865 5.202-6.855 6.95-6.855.637 0 1.242.086 1.786.313l-.604 3.749zm9.43 0c-.435-.487-.813-.763-1.555-.763-1.873 0-2.659 2.031-2.89 3.47-.246 1.528-.1 3.47 1.701 3.47.814 0 1.376-.312 2.043-.833l-.801 3.661c-.774.313-1.453.47-2.25.47-2.95 0-5.1-2.205-4.38-6.682.946-5.865 5.202-6.855 6.95-6.855.637 0 1.242.086 1.786.313l-.604 3.749zm.647 9.25l2.11-13.085h3.285c3.144 0 5.4 1.007 4.848 4.443-.547 3.402-2.835 4.443-5.947 4.355l-.692 4.287H46.32zm5.525-10.274l-.27.017-.484 3.02c.98.052 1.686-.486 1.84-1.456.135-.836-.203-1.581-1.086-1.581zm-26.308-2.803h-1.164l-1.674 3.846-.167 4.68h-1.87l-1.26 2.891H22.5l.03 1.657h3.74l-.733-13.074zm-2.707 16.246c.003-.12-.024-.481-.45-.481-.48 0-.716.457-.793.897-.08.44-.008.897.472.897.346 0 .523-.24.64-.545h1.005c-.117.66-.789 1.36-1.764 1.36-1.077 0-1.555-.745-1.38-1.712.183-1.031.967-1.713 1.994-1.713.913.005 1.331.476 1.274 1.295h-.998v.002zm2.498-1.217h2.753l-.149.838h-1.729l-.072.409h1.57l-.142.777h-1.57l-.072.408h1.781l-.149.838H24.74l.587-3.27zm4.12 0h1.952c.582 0 1.03.316.918.934-.06.34-.284.696-.647.819.261.105.378.408.343.813-.015.162-.08.55-.012.702h-1.025a2.134 2.134 0 01.007-.504c.028-.31.058-.635-.348-.635h-.545l-.204 1.141h-1.024l.584-3.27zm.768 1.428h.537c.192 0 .458-.032.51-.325.037-.206-.057-.326-.45-.326h-.48l-.117.65zm4.07-.59h-.933l.149-.838h2.89l-.149.838h-.933l-.435 2.432h-1.025l.435-2.431zm3.323-.838h1.025l-.585 3.27h-1.025l.585-3.27zm2.39 0h2.572l-.15.838h-1.546l-.072.409h1.328l-.14.777h-1.328l-.224 1.246h-1.025l.585-3.27zm3.776 0H44.8l-.585 3.27H43.19l.584-3.27zm2.39 0h2.754l-.149.838H47.04l-.072.409h1.57l-.14.777h-1.57l-.071.408h1.78l-.149.838h-2.805l.582-3.27zm4.12 0h1.684c1.11 0 1.356.807 1.209 1.63-.18 1.002-.834 1.64-1.995 1.64h-1.483l.585-3.27zm.59 2.432h.4c.64 0 .823-.508.878-.816.037-.206.075-.78-.667-.78h-.325l-.287 1.596zm7.034-17.464h1.276v.235h-.5v1.315h-.276V24.68h-.5v-.235zm1.455 0h.388l.436 1.212h.005l.425-1.212H61v1.55h-.264V24.8h-.005l-.437 1.195h-.227L59.63 24.8h-.005v1.195h-.263v-1.55h.002z" fill="#fff"/></svg>