<svg width="64" height="64" fill="none" xmlns="http://www.w3.org/2000/svg"><g clip-path="url(#clip0)"><path d="M52.033 31.692c-.088 10.77-8.835 19.473-19.604 19.385C21.659 51.033 12.956 42.242 13 31.43c.044-10.77 8.835-19.473 19.605-19.429 10.813.088 19.472 8.88 19.428 19.692zM7.385 31.956l.527 1.055 1.187.22-.88.835.177 1.187-1.011-.572-1.1.572.22-1.231-.879-.835 1.187-.176.572-1.055z" fill="#009540"/><path d="M1.66 31.637h.659c.088-16.175 13.23-29.274 29.406-29.274h.176c16.176.132 29.23 13.274 29.23 29.45v.176c-.087 16.176-13.23 29.275-29.406 29.275h-.22C15.33 61.132 2.276 48.033 2.276 31.9v-.22l-.616-.044H1v.22c0 16.88 13.67 30.55 30.55 30.681h.22c16.922 0 30.637-13.67 30.725-30.593v-.176c0-16.879-13.67-30.637-30.55-30.769h-.176C14.802 1.044 1.044 14.714 1 31.637h.66z" fill="#009540"/><path d="M10.022 26.637l.044.835c-.044.352-.176.616-.351.88l-.616.615c-.22.132-.483.264-.835.308h-.88a2.294 2.294 0 01-.922-.308l-.704-.527-.44-.792a1.929 1.929 0 01-.043-1.01l.22-.704.395-.527.528-.352.747-.132-.132.616-.483.087-.396.22-.264.396-.132.44.044.747.352.527.572.396.703.22h.703l.616-.22.527-.396.264-.66v-.659l-.22-.527-.44-.352-.571-.176-.22 1.451-.527-.088.351-2.022 2.418.396-.044.395-.615.044.351.88zM8.396 23.56L8 23.078l-.132-.66.132-.703.396-.615.527-.352.66-.088.659.176.615.352.396.483.132.616-.132.703-.396.616-.527.351-.66.088-.659-.176-.615-.307zm1.406-.043l.44-.044.351-.22.264-.352.088-.395-.088-.396-.307-.352-.44-.263-.528-.132-.44.088-.35.22-.22.351-.044.396.087.395.308.352.484.264.395.088zM10.154 19.517l-.308-.572-.088-.615.264-.66.527-.527.572-.22.615.044.66.264.527.44.352.57.044.616-.264.66-.483.527-.616.22-.66-.044-.659-.264-.483-.44zm1.363.175h.44l.395-.175.307-.308.088-.396v-.44l-.22-.395-.439-.352-.483-.22-.484-.043-.352.175-.307.308-.132.396v.395l.22.396.44.352.527.307zM16.044 15.56l-.308-.307v.615l-.352.572-.57.395-.616.088-.616-.176-.571-.395-.44-.484-.175-.615.043-.616.308-.571.22-.176.264-.176.307-.088h.352l-1.275-1.143.352-.44 3.428 3.166-.351.351zm-2.198.66l.44.132.44-.044.395-.264.22-.396v-.44l-.176-.439-.264-.308-.396-.307-.44-.132-.439.044-.44.264-.22.44v.439l.177.395.307.352.396.264zM17.319 8.572l3.208 2.68-.659-4.087.747-.44 2.286 4.044-.527.308-1.89-3.385.615 4.088-.44.264-3.165-2.637 1.846 3.34-.483.308-2.286-4.044.747-.44zM26.594 9.714l-.352-.044-.22-.351-.395.527-.572.308-.44.088-.395-.044-.308-.22-.22-.396-.044-.483.176-.352.264-.264.396-.22.395-.175.352-.176.22-.176v-.264l-.176-.263-.22-.088h-.264l-.263.044-.528.307-.088.572-.527.176-.044-.528.22-.44.351-.307.484-.22.44-.088h.439l.352.22.22.44.483 1.67.132.264.175.044.132-.044.132.395-.307.088zm-1.231-1.406l-.308.131-.352.176-.307.176-.176.264v.351l.132.22.176.088.22.044.22-.044.439-.22.264-.263.087-.308-.044-.264-.131-.527-.22.176zM27.78 6.022l.088.527c.22-.44.528-.659 1.011-.747l.572.044.395.22.264.352.088.527.264 2.198h-.572L29.627 6.9l-.22-.483-.528-.132-.44.132-.263.263-.176.352v.44l.22 1.89-.527.044-.44-3.385h.527zM33.802 9.187l.044-.528-.483.44-.66.088-.571-.132-.308-.264-.176-.395-.043-.528.131-2.198.572.044L32.176 8l.132.484.483.22.44-.045.352-.22.175-.307.088-.44.132-1.89.528.044-.176 3.385-.528-.044zM35.473 6.462l.132-.44.571.044.044-.44.395-.571.704-.088.176.044.175.088-.087.483-.176-.044-.132-.087-.352.044-.132.263-.088.44.616.132-.044.44-.66-.089-.57 2.857-.528-.131.527-2.814-.571-.131zM39.824 10.681l-.263-.22v-.439l-.616.22-.66-.088-.395-.176-.264-.264-.131-.351.044-.44.22-.44.351-.175.396-.044.44.044.439.088.395.088.264-.044.176-.22v-.308l-.088-.22-.22-.132-.264-.131-.615-.044-.395.395-.528-.176.308-.44.395-.219.484-.044.527.088.44.176.351.264.176.351-.044.484-.527 1.626-.088.264.088.176.176.044-.176.395-.396-.088zm-.175-1.846l-.396-.044-.352-.088h-.351l-.264.088-.176.308v.22l.088.176.176.131.22.132.483.088.352-.088.263-.176.132-.22.176-.527h-.352zM43.956 9.538l-.395-.44-.484-.087-.44.088-.351.264-.264.395-.176.396-.044.44.088.395.352.308.703.087.528-.395.527.264c-.264.351-.571.571-.879.615a1.311 1.311 0 01-1.055-.176l-.527-.395-.264-.572v-.615l.264-.66.395-.571.528-.396.615-.131.703.22.484.351.264.396.132.483-.132.528-.528-.264v-.528h-.044zM47.209 10.989l-.308.395-.528-.395-1.186 1.714-.088.132v.132l.088.088.132.176.22.088-.308.44-.352-.265-.264-.22-.132-.263v-.264l.176-.307 1.275-1.759-.484-.351.308-.396.484.352.571-.836.484.352-.616.791.528.396zM47.472 15.78l.396-.395v-.044l-.66.044-.527-.352-.351-.396-.088-.44.132-.439.307-.395 1.539-1.583.351.396-1.538 1.626-.22.484.22.483.352.264.395.044.396-.132.307-.22 1.363-1.406.352.351-2.33 2.462-.396-.352zM51.516 15.209l-.571.44v.043c.308-.088.571-.088.791 0l.616.44-.44.395-.44-.395-.44-.132-.483.132-.483.264-1.187.967-.352-.44 2.638-2.11.351.396zM53.055 17.407l-2.857 1.846-.264-.484 2.813-1.846.308.484zm.22-.792l.527-.351.308.483-.572.396-.263-.528zM54.066 19.077l-.484.22h.044c.44 0 .791.264 1.011.703l.176.528-.088.44-.22.35-.44.264-1.977.968-.264-.484 2.022-1.01.396-.397-.044-.527-.308-.352-.352-.175-.395-.044-.396.131-1.714.836-.264-.484 3.033-1.494.264.527zM52.22 26.33c-.352-.176-.572-.528-.703-1.011l-.088-.484.044-.44.175-.395.396-.264.176.572-.22.132-.088.263v.264l.044.264.22.395.308.22.44.088.527-.088.22-.088-.572-.264-.308-.57-.044-.66.264-.572.44-.395.615-.264.615-.088.616.088.527.352.352.659.044.571-.264.528.44-.132.132.527-2.945.836c-.616.132-1.011.088-1.363-.044zm1.275-1.143l.351.22.484.087.44-.087.439-.176.308-.264.175-.352v-.44l-.22-.439-.351-.22-.44-.043-.44.088-.439.175-.351.264-.176.352v.483l.22.352zM58.374 31.472c0 .484-.088.836-.352 1.055-.22.264-.571.396-1.01.396-.44 0-.792-.088-1.012-.352-.264-.263-.352-.571-.352-1.055l-.044-1.406h-1.89v-.616l4.66-.044v2.022zm-2.242-.175c0 .351.044.615.22.79l.66.22.614-.263c.176-.176.264-.44.264-.791v-1.231l-1.758.044v1.23zM56.791 34.857l-.703-.088.527.572.088.747-.615-.088v-.571l-.176-.396-.395-.264-.572-.176-1.494-.22.088-.527 3.34.484-.088.527zM52.352 38.637l.22-.307h.395l-.22-.616.088-.66.132-.439.308-.307.351-.132.44.044.44.22.22.351.043.396v.44l-.044.439-.044.351.044.264.22.176.308.044.22-.132.131-.22.088-.22.044-.615-.395-.395.131-.528.484.264.22.395.088.528-.088.527-.176.44-.264.352-.351.175-.484-.044-1.626-.483-.264-.044-.132.088v.22l-.396-.132-.131-.44zm1.846-.263l.044-.352.044-.352v-.351l-.132-.264-.264-.176-.264-.044-.175.088-.132.176-.088.264-.088.44.088.395.175.264.22.131.528.176.044-.395zM53.627 42.77l.395-.396.132-.528-.132-.44-.307-.307-.44-.264-.44-.132-.395-.044-.396.176-.308.352-.087.66.395.527-.22.483a1.486 1.486 0 01-.659-.835c-.088-.352-.044-.703.176-1.099l.395-.571.572-.308.615-.044.66.22.615.395.352.528.132.66-.176.703-.308.44-.396.307-.483.132-.528-.088.264-.528h.572zM52.264 45.978l-.396-.264.352-.527L50.506 44l-.132-.044h-.132l-.088.044-.132.176-.132.22-.44-.264.264-.396.22-.264.22-.131h.264l.351.175 1.759 1.231.351-.527.396.307-.308.44.791.571-.307.484-.836-.572-.351.528zM51.253 47.253l-2.638-2.11.352-.44 2.637 2.11-.351.44zm.835-.044l.527.395-.351.44-.528-.44.352-.395zM48.527 49.363l.528-.264.264-.44.043-.44-.175-.395-.308-.395-.352-.264-.395-.132h-.44l-.395.264-.308.571.22.66-.396.395c-.22-.351-.352-.66-.352-1.01.044-.352.176-.616.528-.968l.571-.352.572-.131.571.175.572.44.44.572.175.615-.044.615-.396.616-.44.307-.483.176-.483-.044-.484-.264.44-.395.527.088zM43.429 50.022c.088-.308.307-.527.615-.791l.66-.264h.615l.571.264.528.527.307.616.044.659-.22.571-.439.484-.703.308-.66-.132-.571-.396-.396-.483 2.066-1.45-.263-.309-.352-.175-.396-.044-.44.22-.395.439.044.571-.44.352c-.22-.352-.263-.66-.175-.967zm1.362 1.714l.352.132h.352l.351-.132.264-.264.088-.351v-.352l-.132-.351-1.626 1.099.351.22zM38.901 56.132l.88-.044.615-.352.351-.571.088-.66-.132-.703-.307-.703-.484-.527-.571-.264-.748.088-.483.263-.308.396-.132.483.044.528-.571.22c-.176-.572-.088-1.1.132-1.495.22-.44.615-.703 1.187-.879l.967-.132.79.264.616.615.44.836c.088.351.132.659.175.967l-.131.879-.528.703-.791.484-.703.131-.66-.087-.571-.352-.44-.572.572-.175.703.659zM33.275 53.319c.263-.22.527-.352.923-.396l.703.044.571.308.352.527.176.703-.044.704-.264.615-.44.396-.615.22-.791-.088-.527-.396-.352-.615-.132-.616 2.505-.307-.131-.44-.22-.308-.352-.22-.483-.043-.528.22-.264.527-.527.088c.132-.396.22-.703.44-.923zm.395 2.153l.264.264.308.132.395.044.352-.132.264-.22.175-.307.044-.396-1.934.22.132.395zM31.385 56.527v-.747l-.528.616-.747.175V56l.615-.132.352-.22.22-.44.088-.57.043-1.495h.528l-.044 3.384h-.527zM27.868 56.264l.044-.528.703.088.22-2.066v-.132l-.044-.131-.132-.044-.22-.044-.263-.044.088-.484.395.044.352.088.264.132.132.22v.395l-.264 2.11.571.088-.044.484-.571-.044-.132 1.01-.571-.087.131-1.011-.659-.044zM26.681 56.66l-.088.659-.571-.132.132-.66.527.132zm-.395-.704l.659-3.297.527.132-.659 3.34-.527-.175zM25.539 55.297l-.132.44-.572-.133-.132.484-.395.527h-.747l-.176-.088-.132-.087.132-.44.132.088.131.044H24l.22-.264.088-.44-.616-.175.132-.484.66.176.79-2.725.528.132-.79 2.769.527.176zM22.637 55.472l-.22.66-.527-.22.264-.66.483.22zm-.351-.747l1.23-3.165.528.22-1.187 3.121-.571-.176zM19.473 52.703l.395.44.484.132.44-.088.351-.308.264-.396.132-.44.044-.395-.132-.395-.352-.308-.66-.132-.527.396-.483-.264c.264-.352.527-.572.835-.66a2 2 0 011.099.177l.527.395.308.528V52l-.22.66-.395.57-.572.396-.615.088-.703-.176-.44-.307-.308-.396-.088-.44.088-.527.528.264v.571zM17.319 47.736l.176.308-.088.396h.659l.572.307.307.308.176.352.044.351-.176.396-.396.308-.395.088-.352-.088-.351-.176-.44-.176-.308-.176-.263-.088-.22.132-.132.264.044.22.132.22.22.175.571.264.483-.22.484.352-.44.352-.44.044-.527-.132-.44-.264-.35-.308-.264-.352-.045-.351.176-.484 1.055-1.406.176-.22-.088-.176-.176-.044.264-.352.352.176zm-.44 1.847l.352.175.308.176.351.132h.308l.264-.22.088-.22v-.22l-.132-.22-.176-.175-.396-.264h-.351l-.308.088-.22.132-.351.44.263.176zM13.099 48.44l.351-.352.44.483 1.494-1.494.132-.132v-.088l-.044-.132-.175-.176-.176-.131.351-.352.308.264.22.307.132.264-.088.22-.22.308-1.538 1.538.395.396-.351.351-.396-.395-.703.659-.44-.352.747-.703-.44-.483zM11.912 48l-.528.44-.351-.44.527-.44.352.44zm.132-.791l2.593-2.198.352.44-2.594 2.11-.351-.352zM12 45.626l-.66.044-.57-.22-.484-.527-.308-.703.044-.616.308-.571.527-.44.66-.263.615-.044.571.22.484.527.264.703v.616l-.308.571-.528.483-.615.22zm.703-1.143l.22-.44.044-.395-.176-.395-.264-.264-.395-.176h-.44l-.527.264-.396.352-.22.44-.043.395.175.395.264.308.396.176.483-.088.484-.22.395-.352zM8.527 41.67l.484-.22c-.44-.044-.791-.307-.967-.79l-.132-.528.132-.44.264-.307.44-.264 2.065-.835.22.527-2.11.88-.44.307.044.527.264.352.352.22.352.044.44-.088 1.757-.747.176.571-3.077 1.275-.264-.484z" fill="#009540"/><path d="M23.945 31.857c-.79 1.011-1.846 1.363-2.813 1.363-3.165 0-5.01-2.374-5.01-5.319 0-3.033 1.845-5.406 5.01-5.406 2.11 0 4.044 1.318 4.308 3.604h-2.154c-.264-1.143-1.099-1.714-2.154-1.714-2.022 0-2.813 1.714-2.813 3.516 0 1.715.791 3.429 2.813 3.429 1.45 0 2.33-.747 2.418-2.198h-2.242v-1.67h4.308V33h-1.451l-.22-1.143zM27.461 22.758h3.165L33 29.791h.044l2.286-7.033h3.164V33h-2.11v-7.297h-.043L33.835 33h-1.714l-2.55-7.209h-.044v7.21h-2.066V22.757zM40.473 22.758h4.615c2.55 0 3.56 1.627 3.56 3.253 0 1.67-1.01 3.297-3.56 3.297h-2.374V33h-2.241V22.758zm2.241 4.791h1.715c1.055 0 1.978-.263 1.978-1.538s-.923-1.538-1.978-1.538h-1.715v3.076zM24.604 42.099l-.571.615-.924-.835a3.338 3.338 0 01-1.538.396c-1.978 0-3.12-1.583-3.12-3.429 0-1.846 1.142-3.384 3.12-3.384 1.934 0 3.121 1.538 3.121 3.384 0 .923-.264 1.89-.923 2.506l.835.747zm-2.945-1.494l.571-.616.792.703c.395-.483.571-1.142.571-1.846 0-1.23-.571-2.461-1.978-2.461s-2.022 1.23-2.022 2.461c0 1.275.615 2.506 2.022 2.506l.703-.176-.659-.572zM29.747 42.143h-1.055v-.66c-.264.484-.835.748-1.363.748-1.186 0-1.758-.616-1.758-1.846v-2.99h1.055v2.902c0 .835.352 1.143.88 1.143.878 0 1.142-.572 1.142-1.275v-2.77h1.055v4.748h.044zM34.802 41.088l.22.352.264-.044v.747l-.66.088c-.44 0-.703-.132-.79-.572-.396.44-1.056.572-1.627.572-.835 0-1.627-.44-1.627-1.363 0-1.187.968-1.363 1.847-1.45.747-.176 1.406-.088 1.406-.704 0-.527-.571-.615-.967-.615-.571 0-1.01.264-1.055.747h-1.01c.043-1.23 1.098-1.582 2.153-1.582.923 0 1.89.351 1.89 1.362v2.462h-.044zm-1.055-1.319c-.307.176-.79.176-1.274.264-.44.088-.88.22-.88.791 0 .44.616.616.967.616.44 0 1.143-.22 1.143-.924v-.747h.044zM37 35.593h-1.055V42.1H37v-6.505zM38.143 36.56h1.099v-.967h-1.1v.967zm0 5.583h1.099v-4.747h-1.1v4.747zM39.813 37.396h.835v-1.407h1.011v1.407h.923v.747h-.923v2.505c0 .44 0 .66.484.66l.395-.044v.835l-.66.044c-1.098 0-1.274-.44-1.274-1.23v-2.814h-.835v-.703h.044zM42.846 37.395h1.187l1.23 3.517 1.187-3.517h1.099l-1.846 4.967c-.352.88-.616 1.583-1.67 1.583l-.748-.044v-.88l.528.089c.44 0 .615-.264.703-.66l.132-.351-1.802-4.703z" fill="#fff"/></g><defs><clipPath id="clip0"><path fill="#fff" d="M0 0h64v64H0z"/></clipPath></defs></svg>