<svg xmlns="http://www.w3.org/2000/svg" width="616" height="401"><style>.shp0{fill:#202124}.shp2{opacity:.102;fill:none;stroke:#202124}</style><path id="Layer" fill-rule="evenodd" class="shp0" d="M1.82 297.94v-3.44c0-2.39 1.42-3.46 3.22-3.46 1.8 0 3.24 1.07 3.24 3.44v2.22H12v1.24H1.82zm5.37-3.42c0-1.64-.93-2.27-2.15-2.27-1.22 0-2.13.63-2.13 2.29v2.16h4.28v-2.18zm1.03-4.87c-2.38 0-3.96-1.39-3.96-3.46 0-2.07 1.58-3.46 3.96-3.46 2.37 0 3.94 1.39 3.94 3.46 0 2.07-1.57 3.46-3.94 3.46zm0-5.75c-1.53 0-2.9.72-2.9 2.29s1.37 2.29 2.9 2.29c1.53 0 2.89-.72 2.89-2.29s-1.36-2.29-2.89-2.29zm-1.85-7.32c-.52.21-1.09.63-1.09 1.65 0 .94.48 1.63 1.13 1.63.59 0 .89-.4 1.12-1.31l.27-1.13c.34-1.36 1.01-2.03 2.07-2.03 1.32 0 2.29 1.21 2.29 2.98 0 1.56-.69 2.63-1.99 2.91l-.28-1.12c.82-.21 1.24-.81 1.24-1.77 0-1.09-.54-1.79-1.2-1.79-.53 0-.89.37-1.07 1.14l-.3 1.27c-.33 1.4-1.03 2.03-2.09 2.03-1.29 0-2.21-1.2-2.21-2.81 0-1.51.73-2.33 1.81-2.7l.3 1.05zm-1.01-6.28v1.63h4.45c1 0 1.16-.49 1.16-1.01 0-.26-.04-.42-.06-.52l1.05-.24c.06.16.14.44.14.88 0 .99-.64 2.07-1.97 2.07H5.36v1.15h-1v-1.15H2.53v-1.18h1.83v-1.63h1zm-3.54-5.86V261c0-2.39 1.32-3.46 3.12-3.46 1.35 0 2.41.61 2.85 1.9l4.21-2.3v1.43l-3.98 2.15v2.49H12v1.23H1.82zm5.09-3.42c0-1.63-.75-2.27-1.97-2.27s-2.03.64-2.03 2.29v2.17h4v-2.19zm1.33-4.94c-2.35 0-3.98-1.37-3.98-3.44 0-1.59.98-3.28 3.82-3.28h.5v5.55c1.64-.06 2.53-1.01 2.53-2.39 0-.91-.4-1.61-1.2-1.9l.32-1.14c1.15.36 1.93 1.49 1.93 3.04 0 2.21-1.57 3.56-3.92 3.56zm-.67-5.52c-1.3 0-2.25.81-2.25 2.08 0 1.35 1.06 2.19 2.25 2.27v-4.35zM12 246.4v1.18H1.82v-1.18H12zm0-5.36L1.82 237.3v-1.28L12 232.29v1.29l-2.88 1.02v4.12l2.88 1.02v1.3zm-3.98-6.05l-4.59 1.63v.08l4.59 1.63v-3.34zm3.98-5.31v1.18H1.82v-1.18H12zm-7.64-2.14v-1.14h1.22v-.14c-.4-.26-1.32-.71-1.32-2.2 0-1.93 1.54-3.27 3.94-3.27 2.43 0 3.96 1.34 3.96 3.25 0 1.47-.92 1.96-1.33 2.22v.1h4.03v1.18H4.36zm6.75-3.35c0-1.47-1.3-2.22-2.93-2.22-1.61 0-2.86.73-2.86 2.22 0 1.44 1.15 2.19 2.86 2.19 1.73 0 2.93-.77 2.93-2.19zm.89-6.36V219H1.82v-1.17h3.74v-.1c-.79-.36-1.3-1.04-1.3-2.25 0-1.56.92-2.6 2.89-2.6H12v1.17H7.23c-1.22 0-1.91.67-1.91 1.77 0 1.16.75 2.01 2.09 2.01H12zm-2.17-6.74c-1.75 0-2.06-1.55-2.24-2.96-.18-1.39-.13-1.97-.7-1.97h-.04c-.98 0-1.55.53-1.55 1.61 0 1.12.59 1.73 1.15 1.99l-.4 1.11c-1.39-.59-1.79-1.91-1.79-3.06 0-.97.28-2.82 2.71-2.82H12v1.17h-1.03v.06c.49.24 1.21.93 1.21 2.27 0 1.45-.86 2.6-2.35 2.6zm-.59-4.93H8.16c.24.2.38 1.53.44 2.03.12.91.4 1.73 1.29 1.73.82 0 1.24-.68 1.24-1.61 0-1.4-.94-2.15-1.89-2.15zm-7.42-7.41v-3.44c0-2.39 1.42-3.46 3.22-3.46 1.8 0 3.24 1.07 3.24 3.44v2.22H12v1.24H1.82zm5.37-3.42c0-1.64-.93-2.27-2.15-2.27-1.22 0-2.13.63-2.13 2.29v2.16h4.28v-2.18zm1.03-4.87c-2.38 0-3.96-1.39-3.96-3.46 0-2.07 1.58-3.46 3.96-3.46 2.37 0 3.94 1.39 3.94 3.46 0 2.07-1.57 3.46-3.94 3.46zm0-5.75c-1.53 0-2.9.72-2.9 2.29s1.37 2.29 2.9 2.29c1.53 0 2.89-.72 2.89-2.29s-1.36-2.29-2.89-2.29zm-3.86-2.11v-1.23l5.85-1.65v-.08l-5.85-1.63v-1.25l5.83-1.61v-.08l-5.83-1.65v-1.24l7.64 2.33v1.15l-5.87 1.68v.11l5.87 1.68v1.15l-7.64 2.32zm3.88-11.35c-2.35 0-3.98-1.37-3.98-3.44 0-1.59.98-3.28 3.82-3.28h.5v5.54c1.64-.05 2.53-1 2.53-2.38 0-.92-.4-1.61-1.2-1.91l.32-1.13c1.15.36 1.93 1.49 1.93 3.04 0 2.21-1.57 3.56-3.92 3.56zm-.67-5.53c-1.3 0-2.25.82-2.25 2.09 0 1.34 1.06 2.18 2.25 2.26v-4.35zm-3.21-2.98v-1.13h1.16v-.08c-.76-.28-1.28-1.07-1.28-1.99 0-.17.01-.48.02-.61h1.2c-.02.08-.08.4-.08.71 0 1.12.75 1.93 1.79 1.93H12v1.17H4.36zM5 146.48c-1.41.3-2.17 1.51-2.17 2.86 0 1.85 1.43 3.3 4.08 3.3 2.64 0 4.08-1.45 4.08-3.3 0-1.35-.76-2.56-2.17-2.86v-1.23c2.09.37 3.32 2.04 3.32 4.09 0 2.61-2.01 4.5-5.23 4.5-3.22 0-5.23-1.89-5.23-4.5 0-2.05 1.23-3.72 3.32-4.09v1.23zm7-4.24v1.17H1.82v-1.17h3.74v-.1c-.79-.36-1.3-1.04-1.3-2.25 0-1.56.92-2.6 2.89-2.6H12v1.17H7.23c-1.22 0-1.91.67-1.91 1.77 0 1.16.75 2.01 2.09 2.01H12zm-2.17-6.74c-1.75 0-2.06-1.55-2.24-2.96-.18-1.4-.13-1.97-.7-1.97h-.04c-.98 0-1.55.53-1.55 1.61 0 1.12.59 1.73 1.15 1.99l-.4 1.11c-1.39-.6-1.79-1.91-1.79-3.06 0-.98.28-2.83 2.71-2.83H12v1.18h-1.03v.06c.49.24 1.21.93 1.21 2.26 0 1.46-.86 2.61-2.35 2.61zm-.59-4.93H8.16c.24.2.38 1.53.44 2.03.12.91.4 1.73 1.29 1.73.82 0 1.24-.68 1.24-1.61 0-1.4-.94-2.15-1.89-2.15zm2.76-4.49v1.17H4.36v-1.13h1.2v-.1c-.78-.36-1.3-1.08-1.3-2.23 0-1.54.94-2.58 2.89-2.58H12v1.17H7.23c-1.2 0-1.91.66-1.91 1.75 0 1.12.75 1.95 2.09 1.95H12zm1.49-6.98l-.65-.93c.42-.32 1.15-.8 1.15-2.19 0-1.23-.58-2.13-1.85-2.13h-1.55v.1c.42.26 1.29.74 1.29 2.23 0 1.85-1.35 3.24-3.74 3.24-2.34 0-3.88-1.33-3.88-3.26 0-1.49.92-1.97 1.32-2.23v-.12H4.36v-1.13h7.86c1.97 0 2.8 1.47 2.8 3.3 0 1.71-.73 2.65-1.53 3.12zm-5.37-5.27c-1.65 0-2.8.76-2.8 2.19 0 1.49 1.25 2.23 2.8 2.23 1.59 0 2.71-.76 2.71-2.23 0-1.41-1.02-2.19-2.71-2.19zm.12-2.94c-2.35 0-3.98-1.37-3.98-3.44 0-1.59.98-3.28 3.82-3.28h.5v5.54c1.64-.05 2.53-1 2.53-2.38 0-.92-.4-1.61-1.2-1.91l.32-1.13c1.15.36 1.93 1.49 1.93 3.04 0 2.21-1.57 3.56-3.92 3.56zm-.67-5.53c-1.3 0-2.25.82-2.25 2.09 0 1.34 1.06 2.18 2.25 2.26v-4.35zm-6.23-9.22v-1.03c1.31.95 4 1.7 6.36 1.7 2.37 0 5.06-.75 6.37-1.7v1.03c-1.77 1.21-3.86 1.89-6.37 1.89-2.5 0-4.59-.68-6.36-1.89zm8.21-7.94c-1.11 0-2.04-.71-2.04-1.99 0-1.29.93-1.96 2.04-1.96h.54c1.11 0 2.05.69 2.05 1.96 0 1.3-.94 1.99-2.05 1.99h-.54zm-5.82 5.07c-1.12 0-2.05-.71-2.05-1.99 0-1.29.93-1.96 2.05-1.96h.53c1.12 0 2.05.69 2.05 1.96 0 1.3-.93 1.99-2.05 1.99h-.53zM1.82 85.9v-1.14l10.18 7v1.14l-10.18-7zm8.27 1.29c.62 0 1.19-.26 1.19-.98 0-.69-.57-.95-1.19-.95h-.54c-.61 0-1.19.24-1.19.95 0 .7.58.98 1.19.98h.54zm-5.83 5.07c.62 0 1.2-.26 1.2-.98 0-.69-.58-.95-1.2-.95h-.53c-.62 0-1.2.24-1.2.95 0 .7.58.98 1.2.98h.53zm9.01-10.88v1.04c-1.31-.96-3.99-1.71-6.36-1.71s-5.05.75-6.36 1.71v-1.04c1.77-1.21 3.85-1.89 6.36-1.89 2.5 0 4.59.68 6.36 1.89z"/><path id="Layer" d="M55 351.5V1h-6m6 350.5v8m0-8h560v6m-560-6h-9m3-50.5h6m-6-50h6m-6-50h6m-6-50h6m-6-50h6m-6-50h6m420 306.5v-6m70 6v-6m-140 6v-6m-70 6v-6m-70 6v-6m-70 6v-6m-70 6v-6" fill="none" stroke="#202124"/><path id="Layer" class="shp2" d="M615 2H56m0 300h559M56 252h559M56 202h559M56 152h559M56 102h559M56 52h559M615 1v351m-140 0V1m70 351V1M405 352V1m-70 351V1m-70 351V1m-70 351V1m-70 351V1"/><path id="Layer" fill-rule="evenodd" class="shp0" d="M263.9 387.82h7.63v1.09h-3.2V398h-1.23v-9.09h-3.2v-1.09zm8.58 2.54h1.14v1.16h.08c.28-.76 1.07-1.28 1.99-1.28.17 0 .48.01.61.02v1.2c-.08-.02-.4-.08-.71-.08-1.12 0-1.93.75-1.93 1.79V398h-1.18v-7.64zm4.85 5.47c0-1.75 1.55-2.06 2.97-2.25 1.39-.17 1.97-.12 1.97-.69v-.04c0-.98-.53-1.55-1.61-1.55-1.12 0-1.73.59-1.99 1.15l-1.12-.4c.6-1.39 1.91-1.79 3.07-1.79.97 0 2.82.28 2.82 2.71V398h-1.17v-1.03h-.06c-.24.49-.94 1.21-2.27 1.21-1.45 0-2.61-.86-2.61-2.35zm4.94-.59v-1.08c-.2.24-1.53.38-2.03.44-.92.12-1.73.4-1.73 1.29 0 .82.67 1.24 1.61 1.24 1.39 0 2.15-.94 2.15-1.89zm3.31-4.88h1.17V398h-1.17v-7.64zm-.24-2.06c0-.44.38-.8.84-.8.46 0 .83.36.83.8 0 .43-.37.79-.83.79-.46 0-.84-.36-.84-.79zm6.89 3.06h-1.64v4.45c0 1 .5 1.16 1.02 1.16.26 0 .42-.04.52-.06l.23 1.05c-.16.06-.43.14-.87.14-.99 0-2.07-.64-2.07-1.97v-4.77h-1.15v-1h1.15v-1.83h1.17v1.83h1.64v1zm4.98 6.64l3.74-10.18h1.27l3.74 10.18h-1.29l-1.03-2.88h-4.11L298.5 398h-1.29zm6.05-3.98l-1.63-4.59h-.08l-1.63 4.59h3.34zm5.3 3.98h-1.17v-7.64h1.13v1.2h.1c.36-.78 1.07-1.3 2.23-1.3 1.54 0 2.58.94 2.58 2.89V398h-1.17v-4.77c0-1.2-.66-1.91-1.75-1.91-1.12 0-1.95.75-1.95 2.09V398zm9.72-4.51l1.83-3.13h1.35l-2.46 3.82 2.46 3.82h-1.35l-1.83-2.96-1.83 2.96h-1.35l2.43-3.82-2.43-3.82h1.35l1.83 3.13zm4.86-3.13h1.17V398h-1.17v-7.64zm-.24-2.06c0-.44.38-.8.84-.8.45 0 .83.36.83.8 0 .43-.38.79-.83.79-.46 0-.84-.36-.84-.79zm3.2 5.94c0-2.35 1.38-3.98 3.44-3.98 1.59 0 3.28.98 3.28 3.82v.5h-5.54c.06 1.63 1.01 2.53 2.38 2.53.92 0 1.61-.4 1.91-1.2l1.13.32c-.35 1.15-1.49 1.93-3.04 1.93-2.21 0-3.56-1.57-3.56-3.92zm5.53-.68c0-1.29-.81-2.24-2.09-2.24-1.34 0-2.18 1.06-2.26 2.24h4.35zm6.3-2.2h-1.63v4.45c0 1 .5 1.16 1.01 1.16.26 0 .42-.04.52-.06l.24 1.05c-.16.06-.44.14-.88.14-.99 0-2.06-.64-2.06-1.97v-4.77h-1.16v-1h1.16v-1.83h1.17v1.83h1.63v1zm1.67 9.36l.29-1.03c.86.22 1.39.11 1.81-1.05l.22-.6-2.82-7.68h1.27l2.11 6.09h.08l2.11-6.09 1.28.02-3.25 8.73c-.45 1.19-1.19 1.75-2.25 1.75-.4 0-.74-.08-.85-.14zm14.15-13.38h1.03c-.96 1.31-1.71 4-1.71 6.36 0 2.37.75 5.06 1.71 6.37h-1.03c-1.22-1.77-1.89-3.86-1.89-6.37 0-2.5.67-4.59 1.89-6.36zm6.2 1.43c-1.35 0-2.25.72-2.25 1.69 0 1.1 1.22 1.49 1.97 1.69l1.04.28c1.05.28 2.86.9 2.86 2.81 0 1.65-1.33 2.94-3.68 2.94-2.19 0-3.54-1.13-3.66-2.8h1.28c.1 1.15 1.17 1.68 2.38 1.68 1.41 0 2.49-.73 2.49-1.84 0-1.02-.96-1.4-2.03-1.69l-1.25-.36c-1.59-.46-2.59-1.28-2.59-2.65 0-1.71 1.53-2.84 3.48-2.84 1.97 0 3.39 1.15 3.44 2.68h-1.19c-.12-1-1.05-1.59-2.29-1.59zm5.09-.95h7.64v1.09h-3.2V398h-1.24v-9.09h-3.2v-1.09zm7.48 10.18l3.73-10.18h1.28l3.74 10.18h-1.3l-1.02-2.88h-4.12l-1.02 2.88h-1.29zm6.04-3.98l-1.63-4.59h-.08l-1.63 4.59h3.34zm5.52 3.98h-1.23v-10.18h1.23V398zm6.69-4.54h-4.45v-1.1h4.45v1.1zm.63-5.64h7.64v1.09h-3.21V398h-1.23v-9.09h-3.2v-1.09zm10 11.45h-1.04c.96-1.31 1.71-3.99 1.71-6.36s-.75-5.05-1.71-6.36h1.04c1.21 1.76 1.89 3.85 1.89 6.36 0 2.51-.68 4.59-1.89 6.36zM118.9 369.23l2.88-3.15c1.01-1.1 1.49-1.7 1.49-2.51 0-.92-.73-1.5-1.67-1.5-1.01 0-1.66.66-1.66 1.66h-1c0-1.54 1.16-2.58 2.69-2.58s2.63 1.08 2.63 2.42c0 .97-.45 1.72-1.95 3.33l-1.96 2.09v.07h4.06v.94h-5.51v-.77zm7.29-1.41h1.02c.08.79.79 1.36 1.69 1.36 1.07 0 1.85-.82 1.85-1.94 0-1.14-.81-1.99-1.92-2-.54 0-1.16.19-1.52.45l-.99-.12.53-4.3h4.53v.94h-3.64l-.31 2.57h.05c.36-.28.93-.49 1.52-.49 1.6 0 2.78 1.24 2.78 2.93 0 1.67-1.22 2.9-2.88 2.9-1.5 0-2.65-.97-2.71-2.3zm61.26 0h1.08c.06.84.86 1.36 1.87 1.36 1.12 0 1.93-.62 1.93-1.55 0-.96-.74-1.64-2.07-1.64h-.69v-.93h.69c1.04 0 1.76-.6 1.76-1.52 0-.88-.62-1.47-1.58-1.47-.91 0-1.74.51-1.78 1.38h-1.02c.05-1.37 1.3-2.3 2.81-2.3 1.62 0 2.59 1.1 2.59 2.34 0 .98-.55 1.71-1.43 1.98v.06c1.1.19 1.76.99 1.76 2.1 0 1.43-1.26 2.49-2.95 2.49-1.69 0-2.9-.93-2.97-2.3zm7.47-2.18c0-2.83 1.13-4.49 3.04-4.49 1.91 0 3.03 1.66 3.03 4.49 0 2.85-1.11 4.48-3.03 4.48-1.93 0-3.04-1.63-3.04-4.48zm5.05 0c0-2.27-.75-3.57-2.01-3.57-1.26 0-2.01 1.3-2.01 3.57 0 2.27.74 3.54 2.01 3.54 1.27 0 2.01-1.27 2.01-3.54zm56.62 2.18h1.08c.06.84.86 1.36 1.87 1.36 1.12 0 1.93-.62 1.93-1.55 0-.96-.74-1.64-2.06-1.64h-.7v-.93h.7c1.03 0 1.75-.6 1.75-1.52 0-.88-.62-1.47-1.58-1.47-.91 0-1.74.51-1.78 1.38h-1.02c.05-1.37 1.3-2.3 2.81-2.3 1.62 0 2.59 1.1 2.59 2.34 0 .98-.55 1.71-1.43 1.98v.06c1.1.19 1.76.99 1.76 2.1 0 1.43-1.26 2.49-2.95 2.49-1.69 0-2.9-.93-2.97-2.3zm7.68 0h1.02c.08.79.79 1.36 1.69 1.36 1.07 0 1.86-.82 1.86-1.94 0-1.14-.82-1.99-1.93-2-.54 0-1.16.19-1.52.45l-.99-.12.53-4.3h4.54v.94h-3.65l-.31 2.57h.05c.36-.28.93-.49 1.52-.49 1.6 0 2.78 1.24 2.78 2.93 0 1.67-1.22 2.9-2.88 2.9-1.5 0-2.65-.97-2.71-2.3zm64.45-.48l3.84-6.07h1.28v6h1.19v.94h-1.19V370h-1.01v-1.79h-4.11v-.87zm4.11-4.72h-.07l-2.9 4.58v.07h2.97v-4.65zm3.61 3.02c0-2.83 1.12-4.49 3.03-4.49 1.91 0 3.04 1.66 3.04 4.49 0 2.85-1.11 4.48-3.04 4.48-1.92 0-3.03-1.63-3.03-4.48zm5.04 0c0-2.27-.75-3.57-2.01-3.57-1.26 0-2.01 1.3-2.01 3.57 0 2.27.74 3.54 2.01 3.54 1.27 0 2.01-1.27 2.01-3.54zm56.44 1.7l3.84-6.07h1.28v6h1.19v.94h-1.19V370h-1.01v-1.79h-4.11v-.87zm4.11-4.72h-.07l-2.9 4.58v.07h2.97v-4.65zm3.81 5.2h1.03c.08.79.79 1.36 1.68 1.36 1.08 0 1.86-.82 1.86-1.94 0-1.14-.81-1.99-1.93-2-.53 0-1.15.19-1.51.45l-.99-.12.53-4.3h4.53v.94h-3.65l-.3 2.57h.05c.36-.28.93-.49 1.51-.49 1.61 0 2.78 1.24 2.78 2.93 0 1.67-1.22 2.9-2.88 2.9-1.5 0-2.64-.97-2.71-2.3zm61.3 0h1.03c.08.79.79 1.36 1.68 1.36 1.08 0 1.86-.82 1.86-1.94 0-1.14-.81-1.99-1.92-2-.54 0-1.16.19-1.52.45l-.99-.12.53-4.3h4.53v.94h-3.65l-.3 2.57h.05c.36-.28.93-.49 1.52-.49 1.6 0 2.77 1.24 2.77 2.93 0 1.67-1.22 2.9-2.88 2.9-1.5 0-2.64-.97-2.71-2.3zm7.1-2.18c0-2.83 1.12-4.49 3.03-4.49 1.91 0 3.04 1.66 3.04 4.49 0 2.85-1.11 4.48-3.04 4.48-1.92 0-3.03-1.63-3.03-4.48zm5.05 0c0-2.27-.75-3.57-2.02-3.57-1.26 0-2.01 1.3-2.01 3.57 0 2.27.74 3.54 2.01 3.54 1.27 0 2.02-1.27 2.02-3.54zm60.03 2.18h1.02c.08.79.79 1.36 1.69 1.36 1.07 0 1.86-.82 1.86-1.94 0-1.14-.82-1.99-1.93-2-.54 0-1.15.19-1.52.45l-.98-.12.52-4.3h4.54v.94h-3.65l-.31 2.57h.05c.36-.28.93-.49 1.52-.49 1.6 0 2.78 1.24 2.78 2.93 0 1.67-1.22 2.9-2.88 2.9-1.5 0-2.65-.97-2.71-2.3zm7.3 0h1.02c.08.79.79 1.36 1.69 1.36 1.07 0 1.86-.82 1.86-1.94 0-1.14-.82-1.99-1.93-2-.53 0-1.15.19-1.51.45l-.99-.12.52-4.3h4.54v.94h-3.65l-.31 2.57h.05c.36-.28.93-.49 1.52-.49 1.6 0 2.78 1.24 2.78 2.93 0 1.67-1.22 2.9-2.88 2.9-1.5 0-2.65-.97-2.71-2.3zM36.09 52h-1.05v-7.62h-.06l-2.13 1.42v-1.08l2.19-1.45h1.05V52zm2.53-2.18h1.02c.08.79.8 1.36 1.69 1.36 1.07 0 1.86-.82 1.86-1.94 0-1.14-.82-1.99-1.93-2-.54 0-1.15.19-1.52.45l-.98-.12.52-4.3h4.54v.94h-3.65l-.31 2.57h.06c.35-.28.92-.49 1.51-.49 1.6 0 2.78 1.24 2.78 2.93 0 1.67-1.22 2.9-2.88 2.9-1.5 0-2.65-.97-2.71-2.3zM35.89 102h-1.05v-7.62h-.05l-2.14 1.42v-1.08l2.19-1.45h1.05V102zm2.33-4.36c0-2.83 1.12-4.49 3.03-4.49 1.91 0 3.03 1.66 3.03 4.49 0 2.85-1.1 4.48-3.03 4.48-1.93 0-3.03-1.63-3.03-4.48zm5.04 0c0-2.27-.75-3.57-2.01-3.57-1.26 0-2.01 1.3-2.01 3.57 0 2.27.74 3.54 2.01 3.54 1.27 0 2.01-1.27 2.01-3.54zm-4.64 52.18h1.02c.08.79.8 1.36 1.69 1.36 1.07 0 1.86-.82 1.86-1.94 0-1.14-.82-1.99-1.93-2-.54 0-1.15.19-1.52.45l-.98-.12.52-4.3h4.54v.94h-3.65l-.31 2.57h.06c.35-.28.92-.49 1.51-.49 1.6 0 2.78 1.24 2.78 2.93 0 1.67-1.22 2.9-2.88 2.9-1.5 0-2.65-.97-2.71-2.3zm-.4 47.82c0-2.83 1.12-4.49 3.03-4.49 1.91 0 3.03 1.66 3.03 4.49 0 2.85-1.1 4.48-3.03 4.48-1.93 0-3.03-1.63-3.03-4.48zm5.04 0c0-2.27-.75-3.57-2.01-3.57-1.26 0-2.01 1.3-2.01 3.57 0 2.27.74 3.54 2.01 3.54 1.27 0 2.01-1.27 2.01-3.54zm-6.41 50.47h-3.82v-.94h3.82v.94zm1.77 1.71h1.02c.08.79.8 1.36 1.69 1.36 1.07 0 1.86-.82 1.86-1.94 0-1.14-.82-1.99-1.93-2-.54 0-1.15.19-1.52.45l-.98-.12.52-4.3h4.54v.94h-3.65l-.31 2.57h.06c.35-.28.92-.49 1.51-.49 1.6 0 2.78 1.24 2.78 2.93 0 1.67-1.22 2.9-2.88 2.9-1.5 0-2.65-.97-2.71-2.3zm-7.55 48.29h-3.82v-.94h3.82v.94zm4.82 3.89h-1.05v-7.62h-.05l-2.14 1.42v-1.08l2.19-1.45h1.05V302zm2.33-4.36c0-2.83 1.12-4.49 3.03-4.49 1.91 0 3.03 1.66 3.03 4.49 0 2.85-1.1 4.48-3.03 4.48-1.93 0-3.03-1.63-3.03-4.48zm5.04 0c0-2.27-.75-3.57-2.01-3.57-1.26 0-2.01 1.3-2.01 3.57 0 2.27.74 3.54 2.01 3.54 1.27 0 2.01-1.27 2.01-3.54z"/><path id="Layer" class="shp0" d="M182 276c-2.76 0-5-2.24-5-5s2.24-5 5-5 5 2.24 5 5-2.24 5-5 5zM164 222c-2.76 0-5-2.24-5-5s2.24-5 5-5 5 2.24 5 5-2.24 5-5 5zM221 217c-2.76 0-5-2.24-5-5s2.24-5 5-5 5 2.24 5 5-2.24 5-5 5zM221 227c-2.76 0-5-2.24-5-5s2.24-5 5-5 5 2.24 5 5-2.24 5-5 5zM249 240c-2.76 0-5-2.24-5-5s2.24-5 5-5 5 2.24 5 5-2.24 5-5 5zM263 177c-2.76 0-5-2.24-5-5s2.24-5 5-5 5 2.24 5 5-2.24 5-5 5zM234 175c-2.76 0-5-2.24-5-5s2.24-5 5-5 5 2.24 5 5-2.24 5-5 5zM234 144c-2.76 0-5-2.24-5-5s2.24-5 5-5 5 2.24 5 5-2.24 5-5 5zM279 103c-2.76 0-5-2.23-5-5s2.24-5 5-5 5 2.23 5 5-2.24 5-5 5zM357 67c-2.76 0-5-2.23-5-5s2.24-5 5-5 5 2.23 5 5-2.24 5-5 5zM312 157c-2.76 0-5-2.24-5-5s2.24-5 5-5 5 2.24 5 5-2.24 5-5 5zM347 173c-2.76 0-5-2.24-5-5s2.24-5 5-5 5 2.24 5 5-2.24 5-5 5zM382 164c-2.76 0-5-2.24-5-5s2.24-5 5-5 5 2.24 5 5-2.24 5-5 5zM349 215c-2.76 0-5-2.24-5-5s2.24-5 5-5 5 2.24 5 5-2.24 5-5 5zM421 134c-2.76 0-5-2.24-5-5s2.24-5 5-5 5 2.24 5 5-2.24 5-5 5zM464 191c-2.76 0-5-2.24-5-5s2.24-5 5-5 5 2.24 5 5-2.24 5-5 5zM519 116c-2.76 0-5-2.24-5-5s2.24-5 5-5 5 2.24 5 5-2.24 5-5 5z"/></svg>