<svg xmlns="http://www.w3.org/2000/svg" width="603" height="383"><style>.shp0{fill:#202124}.shp1{fill:none;stroke:#202124}.shp3,.shp4{opacity:.6;fill:#b49ad6}.shp4{fill:#baddee}</style><path id="Layer" fill-rule="evenodd" class="shp0" d="M1.82 220.72v-3.56c0-2.13 1.21-3.12 2.7-3.12 1.32 0 1.89.77 2.13 1.65h.1c.06-.94.93-2.05 2.55-2.05 1.53 0 2.7.99 2.7 3.4v3.68H1.82zm9.09-3.68c0-1.61-.72-2.23-1.61-2.23-1.04 0-1.93.84-1.93 2.17v2.51h3.54v-2.45zm-4.62.16c0-1.11-.69-1.99-1.77-1.99-.89 0-1.61.6-1.61 1.95v2.33h3.38v-2.29zm5.71-4.71l-10.18-3.74v-1.27L12 203.74v1.29l-2.88 1.03v4.11L12 211.2v1.29zm-3.98-6.05l-4.59 1.63v.08l4.59 1.63v-3.34zm-6.2-4.29v-3.44c0-2.39 1.42-3.46 3.22-3.46 1.8 0 3.24 1.07 3.24 3.44v2.23H12v1.23H1.82zm5.37-3.42c0-1.63-.93-2.26-2.15-2.26-1.22 0-2.13.63-2.13 2.28v2.17h4.28v-2.19zm-5.85-11.55v-1.03c1.31.95 4 1.71 6.36 1.71 2.37 0 5.06-.76 6.37-1.71v1.03c-1.77 1.22-3.86 1.89-6.37 1.89-2.5 0-4.59-.67-6.36-1.89zm3.02-2.76v-1.18h4.52c1.24 0 2.09-.83 2.09-2.11 0-1.27-.86-2.1-2.09-2.1H4.36v-1.18H12v1.18h-1.13v.06c.8.41 1.23 1.19 1.23 2.04 0 .86-.43 1.64-1.23 2.05v.06h3.99v1.18H4.36zm0-8.71v-1.14h1.2v-.1c-.82-.31-1.3-1.05-1.3-2.04 0-1.01.48-1.67 1.3-2.05v-.08c-.79-.39-1.3-1.2-1.3-2.29 0-1.36.83-2.32 2.63-2.32H12v1.17H6.89c-1.13 0-1.57.71-1.57 1.55 0 1.07.72 1.69 1.71 1.69H12v1.19H6.77c-.87 0-1.45.62-1.45 1.51 0 .92.79 1.73 1.91 1.73H12v1.18H4.36zm3.86-11.81c-2.38 0-3.96-1.4-3.96-3.46 0-2.07 1.58-3.46 3.96-3.46 2.37 0 3.94 1.39 3.94 3.46 0 2.06-1.57 3.46-3.94 3.46zm0-5.75c-1.53 0-2.9.72-2.9 2.29s1.37 2.28 2.9 2.28c1.53 0 2.89-.71 2.89-2.28 0-1.57-1.36-2.29-2.89-2.29zm3.78-4.14v1.18H1.82v-1.18H12zm1.53-2.47v1.08l-12.19-3.28v-1.08l12.19 3.28zm-11.71-4.83v-1.23h9.09v-4.73H12v5.96H1.82zm11.45-8.33v1.04c-1.31-.96-3.99-1.71-6.36-1.71s-5.05.75-6.36 1.71v-1.04c1.77-1.21 3.85-1.89 6.36-1.89 2.5 0 4.59.68 6.36 1.89z"/><path id="Layer" class="shp1" d="M83 358.5V8h-6m6 350.5v8m0-8h520m-520 0h-9m3-50.5h6m-6-50h6m-6-50h6m-6-50h6m-6-50h6m-6-50h6"/><path id="Layer" d="M603 9H84m0 300h519M84 259h519M84 209h519M84 159h519M84 109h519M84 59h519" opacity=".102" fill="none" stroke="#202124"/><path id="Layer" fill-rule="evenodd" class="shp0" d="M177.46 369.82h3.56c2.13 0 3.12 1.21 3.12 2.7 0 1.31-.77 1.89-1.65 2.13v.1c.94.06 2.05.94 2.05 2.55 0 1.53-.99 2.7-3.4 2.7h-3.68v-10.18zm3.68 9.09c1.61 0 2.23-.72 2.23-1.61 0-1.04-.84-1.93-2.17-1.93h-2.51v3.54h2.45zm-.16-4.62c1.11 0 1.99-.69 1.99-1.77 0-.89-.6-1.61-1.95-1.61h-2.33v3.38h2.29zm6.6 5.71h-1.17v-10.18h1.17V380zm6.96-7.64h1.18V380h-1.18v-1.29h-.08c-.36.77-1.11 1.39-2.26 1.39-1.44 0-2.47-.93-2.47-2.88v-4.86h1.17v4.78c0 1.11.7 1.83 1.67 1.83.88 0 1.97-.66 1.97-2.09v-4.52zm2.97 3.88c0-2.35 1.37-3.98 3.44-3.98 1.59 0 3.28.98 3.28 3.82v.5h-5.54c.05 1.63 1 2.53 2.38 2.53.92 0 1.61-.4 1.91-1.2l1.13.32c-.36 1.15-1.49 1.93-3.04 1.93-2.21 0-3.56-1.57-3.56-3.92zm5.52-.68c0-1.29-.81-2.24-2.08-2.24-1.35 0-2.19 1.06-2.26 2.24h4.34zm3.14-5.74h1.18v3.76h.09c.26-.4.72-1.32 2.21-1.32 1.93 0 3.26 1.54 3.26 3.94 0 2.43-1.33 3.96-3.24 3.96-1.47 0-1.97-.92-2.23-1.33h-.13V380h-1.14v-10.18zm3.34 9.29c1.48 0 2.23-1.3 2.23-2.93 0-1.61-.74-2.86-2.23-2.86-1.43 0-2.18 1.15-2.18 2.86 0 1.73.77 2.93 2.18 2.93zm4.84-2.87c0-2.35 1.37-3.98 3.44-3.98 1.59 0 3.28.98 3.28 3.82v.5h-5.54c.05 1.63 1 2.53 2.38 2.53.92 0 1.61-.4 1.91-1.2l1.13.32c-.36 1.15-1.49 1.93-3.04 1.93-2.21 0-3.56-1.57-3.56-3.92zm5.53-.68c0-1.29-.82-2.24-2.09-2.24-1.34 0-2.18 1.06-2.26 2.24h4.35zm2.98-3.2h1.13v1.16h.08c.28-.76 1.07-1.28 1.99-1.28.17 0 .48.01.62.02v1.2a3.66 3.66 0 00-.72-.08c-1.11 0-1.93.75-1.93 1.79V380h-1.17v-7.64zm5.21 0h1.13v1.16h.08c.28-.76 1.07-1.28 1.99-1.28.17 0 .48.01.61.02v1.2c-.07-.02-.4-.08-.71-.08-1.11 0-1.93.75-1.93 1.79V380h-1.17v-7.64zm5.34 10.36l.3-1.03c.85.22 1.38.11 1.81-1.05l.22-.6-2.83-7.68h1.27l2.11 6.09h.08l2.11-6.09 1.28.02-3.25 8.73c-.44 1.19-1.19 1.75-2.25 1.75-.39 0-.73-.08-.85-.14zm11.48-6.48c0-2.35 1.38-3.98 3.44-3.98 1.6 0 3.29.98 3.29 3.82v.5h-5.55c.06 1.63 1.01 2.53 2.38 2.53.92 0 1.61-.4 1.91-1.2l1.14.32c-.36 1.15-1.5 1.93-3.05 1.93-2.2 0-3.56-1.57-3.56-3.92zm5.53-.68c0-1.29-.81-2.24-2.09-2.24-1.34 0-2.18 1.06-2.26 2.24h4.35zm5.48-.07l1.83-3.13h1.35l-2.46 3.82 2.46 3.82h-1.35l-1.83-2.96-1.83 2.96h-1.35l2.42-3.82-2.42-3.82h1.35l1.83 3.13zm8.18-2.13h-1.63v4.45c0 1 .49 1.16 1.01 1.16.26 0 .42-.04.52-.06l.24 1.05c-.16.06-.44.14-.88.14-.99 0-2.07-.64-2.07-1.97v-4.77h-1.15v-1h1.15v-1.83h1.18v1.83h1.63v1zm1.76-1h1.14v1.16h.08c.27-.76 1.07-1.28 1.98-1.28.18 0 .48.01.62.02v1.2c-.08-.02-.4-.08-.72-.08-1.11 0-1.93.75-1.93 1.79V380h-1.17v-7.64zm4.85 5.47c0-1.75 1.55-2.06 2.97-2.25 1.39-.17 1.96-.12 1.96-.69v-.04c0-.98-.53-1.55-1.61-1.55-1.12 0-1.73.59-1.99 1.15l-1.11-.4c.6-1.39 1.91-1.79 3.06-1.79.98 0 2.83.28 2.83 2.71V380h-1.18v-1.03h-.06c-.23.49-.93 1.21-2.26 1.21-1.45 0-2.61-.86-2.61-2.35zm4.93-.59v-1.08c-.19.24-1.53.38-2.02.44-.92.12-1.73.4-1.73 1.29 0 .82.67 1.24 1.61 1.24 1.39 0 2.14-.94 2.14-1.89zm2.96-1.02c0-2.33 1.37-3.96 3.44-3.96 1.61 0 2.83.96 3.02 2.39h-1.17c-.18-.7-.8-1.33-1.83-1.33-1.37 0-2.29 1.13-2.29 2.86 0 1.77.9 2.93 2.29 2.93.92 0 1.61-.5 1.83-1.34h1.17c-.19 1.36-1.31 2.39-3 2.39-2.15 0-3.46-1.65-3.46-3.94zm11.5-2.86h-1.63v4.45c0 1 .5 1.16 1.01 1.16.26 0 .42-.04.52-.06l.24 1.05c-.16.06-.44.14-.87.14-1 0-2.07-.64-2.07-1.97v-4.77h-1.16v-1h1.16v-1.83h1.17v1.83h1.63v1zM428.68 369.82h3.44c2.39 0 3.46 1.42 3.46 3.22 0 1.8-1.07 3.24-3.44 3.24h-2.23V380h-1.23v-10.18zm3.42 5.37c1.63 0 2.26-.93 2.26-2.15 0-1.22-.63-2.13-2.28-2.13h-2.17v4.28h2.19zm6.48 4.81h-1.18v-10.18h1.18V380zm1.79-2.17c0-1.75 1.54-2.06 2.96-2.25 1.39-.17 1.97-.12 1.97-.69v-.04c0-.98-.53-1.55-1.61-1.55-1.12 0-1.73.59-1.99 1.15l-1.11-.4c.59-1.39 1.91-1.79 3.06-1.79.97 0 2.82.28 2.82 2.71V380h-1.17v-1.03h-.06c-.24.49-.93 1.21-2.27 1.21-1.45 0-2.6-.86-2.6-2.35zm4.93-.59v-1.08c-.2.24-1.53.38-2.03.44-.91.12-1.73.4-1.73 1.29 0 .82.68 1.24 1.61 1.24 1.39 0 2.15-.94 2.15-1.89zm2.96-1.02c0-2.33 1.37-3.96 3.44-3.96 1.61 0 2.82.96 3.02 2.39h-1.17c-.18-.7-.8-1.33-1.83-1.33-1.38 0-2.29 1.13-2.29 2.86 0 1.77.89 2.93 2.29 2.93.91 0 1.61-.5 1.83-1.34h1.17c-.2 1.36-1.31 2.39-3 2.39-2.15 0-3.46-1.65-3.46-3.94zm7.82.02c0-2.35 1.37-3.98 3.44-3.98 1.59 0 3.28.98 3.28 3.82v.5h-5.55c.06 1.63 1.01 2.53 2.39 2.53.92 0 1.61-.4 1.91-1.2l1.13.32c-.36 1.15-1.49 1.93-3.04 1.93-2.21 0-3.56-1.57-3.56-3.92zm5.53-.68c0-1.29-.82-2.24-2.09-2.24-1.35 0-2.19 1.06-2.27 2.24h4.36zm3.13-5.74h1.18v3.76h.09c.26-.4.72-1.32 2.21-1.32 1.93 0 3.26 1.54 3.26 3.94 0 2.43-1.33 3.96-3.24 3.96-1.47 0-1.97-.92-2.23-1.33h-.13V380h-1.14v-10.18zm3.34 9.29c1.47 0 2.23-1.3 2.23-2.93 0-1.61-.74-2.86-2.23-2.86-1.43 0-2.19 1.15-2.19 2.86 0 1.73.78 2.93 2.19 2.93zm4.84-2.89c0-2.39 1.39-3.96 3.46-3.96 2.07 0 3.46 1.57 3.46 3.96 0 2.37-1.39 3.94-3.46 3.94-2.07 0-3.46-1.57-3.46-3.94zm5.75 0c0-1.53-.72-2.9-2.29-2.9s-2.29 1.37-2.29 2.9c0 1.53.72 2.89 2.29 2.89s2.29-1.36 2.29-2.89zM40.57 6.82h1.07c.07.84.87 1.36 1.88 1.36 1.12 0 1.93-.62 1.93-1.55 0-.96-.74-1.64-2.07-1.64h-.7v-.93h.7c1.04 0 1.76-.6 1.76-1.52 0-.88-.62-1.47-1.59-1.47-.9 0-1.73.52-1.77 1.38h-1.02c.05-1.37 1.3-2.3 2.81-2.3 1.62 0 2.59 1.1 2.59 2.34 0 .98-.55 1.71-1.43 1.98v.06c1.1.19 1.75.99 1.75 2.1 0 1.43-1.25 2.49-2.94 2.49-1.7 0-2.91-.93-2.97-2.3zm11.05 0h1.02c.08.79.8 1.36 1.69 1.36 1.07 0 1.86-.82 1.86-1.94 0-1.14-.82-1.99-1.93-2-.54 0-1.15.19-1.52.45l-.98-.12.52-4.3h4.54v.94h-3.65l-.31 2.57h.06c.35-.28.92-.49 1.51-.49 1.6 0 2.78 1.24 2.78 2.93 0 1.67-1.22 2.9-2.88 2.9-1.5 0-2.65-.97-2.71-2.3zm7.1-2.18c0-2.83 1.12-4.49 3.03-4.49 1.91 0 3.03 1.66 3.03 4.49 0 2.85-1.1 4.48-3.03 4.48-1.93 0-3.03-1.63-3.03-4.48zm5.04 0c0-2.27-.75-3.57-2.01-3.57-1.26 0-2.01 1.3-2.01 3.57 0 2.27.74 3.54 2.01 3.54 1.27 0 2.01-1.27 2.01-3.54zm2.46 0c0-2.83 1.12-4.49 3.03-4.49 1.91 0 3.03 1.66 3.03 4.49 0 2.85-1.1 4.48-3.03 4.48-1.93 0-3.03-1.63-3.03-4.48zm5.04 0c0-2.27-.75-3.57-2.01-3.57-1.26 0-2.01 1.3-2.01 3.57 0 2.27.74 3.54 2.01 3.54 1.27 0 2.01-1.27 2.01-3.54zM40.37 56.82h1.07c.07.84.87 1.36 1.88 1.36 1.12 0 1.93-.62 1.93-1.55 0-.96-.74-1.64-2.07-1.64h-.7v-.93h.7c1.04 0 1.76-.6 1.76-1.52 0-.88-.62-1.47-1.59-1.47-.9 0-1.73.52-1.77 1.38h-1.02c.05-1.37 1.3-2.3 2.81-2.3 1.62 0 2.59 1.1 2.59 2.34 0 .98-.55 1.71-1.43 1.98v.06c1.1.19 1.76.99 1.76 2.1 0 1.43-1.26 2.49-2.95 2.49-1.7 0-2.91-.93-2.97-2.3zm10.85-2.18c0-2.83 1.12-4.49 3.03-4.49 1.91 0 3.03 1.66 3.03 4.49 0 2.85-1.1 4.48-3.03 4.48-1.93 0-3.03-1.63-3.03-4.48zm5.04 0c0-2.27-.75-3.57-2.01-3.57-1.26 0-2.01 1.3-2.01 3.57 0 2.27.74 3.54 2.01 3.54 1.27 0 2.01-1.27 2.01-3.54zm2.46 0c0-2.83 1.12-4.49 3.03-4.49 1.91 0 3.03 1.66 3.03 4.49 0 2.85-1.1 4.48-3.03 4.48-1.93 0-3.03-1.63-3.03-4.48zm5.04 0c0-2.27-.75-3.57-2.01-3.57-1.26 0-2.01 1.3-2.01 3.57 0 2.27.74 3.54 2.01 3.54 1.27 0 2.01-1.27 2.01-3.54zm2.46 0c0-2.83 1.12-4.49 3.03-4.49 1.91 0 3.03 1.66 3.03 4.49 0 2.85-1.1 4.48-3.03 4.48-1.93 0-3.03-1.63-3.03-4.48zm5.04 0c0-2.27-.75-3.57-2.01-3.57-1.26 0-2.01 1.3-2.01 3.57 0 2.27.74 3.54 2.01 3.54 1.27 0 2.01-1.27 2.01-3.54zm-30.3 53.59l2.88-3.15c1.01-1.1 1.49-1.7 1.49-2.51 0-.92-.73-1.5-1.67-1.5-1.01 0-1.66.66-1.66 1.66h-1c0-1.54 1.16-2.58 2.69-2.58s2.62 1.08 2.62 2.42c0 .97-.44 1.72-1.94 3.33l-1.96 2.09v.07h4.06v.94h-5.51v-.77zm10.66-1.41h1.02c.08.79.8 1.36 1.69 1.36 1.07 0 1.86-.82 1.86-1.94 0-1.14-.82-1.99-1.93-2-.54 0-1.15.19-1.52.45l-.98-.12.52-4.3h4.54v.94h-3.65l-.31 2.57h.06c.35-.28.92-.49 1.51-.49 1.6 0 2.78 1.24 2.78 2.93 0 1.67-1.22 2.9-2.88 2.9-1.5 0-2.65-.97-2.71-2.3zm7.1-2.18c0-2.83 1.12-4.49 3.03-4.49 1.91 0 3.03 1.66 3.03 4.49 0 2.85-1.1 4.48-3.03 4.48-1.93 0-3.03-1.63-3.03-4.48zm5.04 0c0-2.27-.75-3.57-2.01-3.57-1.26 0-2.01 1.3-2.01 3.57 0 2.27.74 3.54 2.01 3.54 1.27 0 2.01-1.27 2.01-3.54zm2.46 0c0-2.83 1.12-4.49 3.03-4.49 1.91 0 3.03 1.66 3.03 4.49 0 2.85-1.1 4.48-3.03 4.48-1.93 0-3.03-1.63-3.03-4.48zm5.04 0c0-2.27-.75-3.57-2.01-3.57-1.26 0-2.01 1.3-2.01 3.57 0 2.27.74 3.54 2.01 3.54 1.27 0 2.01-1.27 2.01-3.54zm-30.5 53.59l2.88-3.15c1.01-1.1 1.49-1.7 1.49-2.51 0-.92-.73-1.5-1.67-1.5-1.01 0-1.66.66-1.66 1.66h-1c0-1.54 1.16-2.58 2.69-2.58s2.63 1.08 2.63 2.42c0 .97-.45 1.72-1.95 3.33l-1.96 2.09v.07h4.06v.94h-5.51v-.77zm10.46-3.59c0-2.83 1.12-4.49 3.03-4.49 1.91 0 3.03 1.66 3.03 4.49 0 2.85-1.1 4.48-3.03 4.48-1.93 0-3.03-1.63-3.03-4.48zm5.04 0c0-2.27-.75-3.57-2.01-3.57-1.26 0-2.01 1.3-2.01 3.57 0 2.27.74 3.54 2.01 3.54 1.27 0 2.01-1.27 2.01-3.54zm2.46 0c0-2.83 1.12-4.49 3.03-4.49 1.91 0 3.03 1.66 3.03 4.49 0 2.85-1.1 4.48-3.03 4.48-1.93 0-3.03-1.63-3.03-4.48zm5.04 0c0-2.27-.75-3.57-2.01-3.57-1.26 0-2.01 1.3-2.01 3.57 0 2.27.74 3.54 2.01 3.54 1.27 0 2.01-1.27 2.01-3.54zm2.46 0c0-2.83 1.12-4.49 3.03-4.49 1.91 0 3.03 1.66 3.03 4.49 0 2.85-1.1 4.48-3.03 4.48-1.93 0-3.03-1.63-3.03-4.48zm5.04 0c0-2.27-.75-3.57-2.01-3.57-1.26 0-2.01 1.3-2.01 3.57 0 2.27.74 3.54 2.01 3.54 1.27 0 2.01-1.27 2.01-3.54zM45.72 209h-1.06v-7.62h-.05l-2.13 1.41v-1.07l2.18-1.45h1.06V209zm5.9-2.18h1.02c.08.79.8 1.36 1.69 1.36 1.07 0 1.86-.82 1.86-1.94 0-1.14-.82-1.99-1.93-2-.54 0-1.15.19-1.52.45l-.98-.12.52-4.3h4.54v.94h-3.65l-.31 2.57h.06c.35-.28.92-.49 1.51-.49 1.6 0 2.78 1.24 2.78 2.93 0 1.67-1.22 2.9-2.88 2.9-1.5 0-2.65-.97-2.71-2.3zm7.1-2.18c0-2.83 1.12-4.49 3.03-4.49 1.91 0 3.03 1.66 3.03 4.49 0 2.85-1.1 4.48-3.03 4.48-1.93 0-3.03-1.63-3.03-4.48zm5.04 0c0-2.27-.75-3.57-2.01-3.57-1.26 0-2.01 1.3-2.01 3.57 0 2.27.74 3.54 2.01 3.54 1.27 0 2.01-1.27 2.01-3.54zm2.46 0c0-2.83 1.12-4.49 3.03-4.49 1.91 0 3.03 1.66 3.03 4.49 0 2.85-1.1 4.48-3.03 4.48-1.93 0-3.03-1.63-3.03-4.48zm5.04 0c0-2.27-.75-3.57-2.01-3.57-1.26 0-2.01 1.3-2.01 3.57 0 2.27.74 3.54 2.01 3.54 1.27 0 2.01-1.27 2.01-3.54zM45.52 259h-1.06v-7.62h-.05l-2.13 1.42v-1.08l2.18-1.45h1.06V259zm5.7-4.36c0-2.83 1.12-4.49 3.03-4.49 1.91 0 3.03 1.66 3.03 4.49 0 2.85-1.1 4.48-3.03 4.48-1.93 0-3.03-1.63-3.03-4.48zm5.04 0c0-2.27-.75-3.57-2.01-3.57-1.26 0-2.01 1.3-2.01 3.57 0 2.27.74 3.54 2.01 3.54 1.27 0 2.01-1.27 2.01-3.54zm2.46 0c0-2.83 1.12-4.49 3.03-4.49 1.91 0 3.03 1.66 3.03 4.49 0 2.85-1.1 4.48-3.03 4.48-1.93 0-3.03-1.63-3.03-4.48zm5.04 0c0-2.27-.75-3.57-2.01-3.57-1.26 0-2.01 1.3-2.01 3.57 0 2.27.74 3.54 2.01 3.54 1.27 0 2.01-1.27 2.01-3.54zm2.46 0c0-2.83 1.12-4.49 3.03-4.49 1.91 0 3.03 1.66 3.03 4.49 0 2.85-1.1 4.48-3.03 4.48-1.93 0-3.03-1.63-3.03-4.48zm5.04 0c0-2.27-.75-3.57-2.01-3.57-1.26 0-2.01 1.3-2.01 3.57 0 2.27.74 3.54 2.01 3.54 1.27 0 2.01-1.27 2.01-3.54zm-19.64 52.18h1.02c.08.79.8 1.36 1.69 1.36 1.07 0 1.86-.82 1.86-1.94 0-1.14-.82-1.99-1.93-2-.54 0-1.15.19-1.52.45l-.98-.12.52-4.3h4.54v.94h-3.65l-.31 2.57h.06c.35-.28.92-.49 1.51-.49 1.6 0 2.78 1.24 2.78 2.93 0 1.67-1.22 2.9-2.88 2.9-1.5 0-2.65-.97-2.71-2.3zm7.1-2.18c0-2.83 1.12-4.49 3.03-4.49 1.91 0 3.03 1.66 3.03 4.49 0 2.85-1.1 4.48-3.03 4.48-1.93 0-3.03-1.63-3.03-4.48zm5.04 0c0-2.27-.75-3.57-2.01-3.57-1.26 0-2.01 1.3-2.01 3.57 0 2.27.74 3.54 2.01 3.54 1.27 0 2.01-1.27 2.01-3.54zm2.46 0c0-2.83 1.12-4.49 3.03-4.49 1.91 0 3.03 1.66 3.03 4.49 0 2.85-1.1 4.48-3.03 4.48-1.93 0-3.03-1.63-3.03-4.48zm5.04 0c0-2.27-.75-3.57-2.01-3.57-1.26 0-2.01 1.3-2.01 3.57 0 2.27.74 3.54 2.01 3.54 1.27 0 2.01-1.27 2.01-3.54zm-5.04 50c0-2.83 1.12-4.49 3.03-4.49 1.91 0 3.03 1.66 3.03 4.49 0 2.85-1.1 4.48-3.03 4.48-1.93 0-3.03-1.63-3.03-4.48zm5.04 0c0-2.27-.75-3.57-2.01-3.57-1.26 0-2.01 1.3-2.01 3.57 0 2.27.74 3.54 2.01 3.54 1.27 0 2.01-1.27 2.01-3.54z"/><path id="Layer" class="shp3" d="M162 127h70v231h-70V127zM382 123h70v235h-70V123z"/><path id="Layer" class="shp4" d="M236 97h70v261h-70V97zM456 112h70v246h-70V112z"/><path id="Layer" class="shp1" d="M488 94h3m3 0h-3m0 0v18.5M268 76h3m3 0h-3m0 0v21.5M414 109h3m3 0h-3m0 0v14.5M194 112h3m3 0h-3m0 0v15.5M162 72h144"/><path id="Layer" class="shp0" d="M230.02 68.55h.96l-.08-2.19 1.85 1.17.47-.83-1.94-1.02 1.94-1.01-.47-.84-1.85 1.18.08-2.19h-.96l.08 2.19-1.85-1.18-.47.84 1.94 1.01-1.94 1.02.47.83 1.85-1.17-.08 2.19zm7 0h.96l-.08-2.19 1.85 1.17.47-.83-1.94-1.02 1.94-1.01-.47-.84-1.85 1.18.08-2.19h-.96l.08 2.19-1.85-1.18-.47.84 1.94 1.01-1.94 1.02.47.83 1.85-1.17-.08 2.19z"/><path id="Layer" fill-rule="evenodd" d="M417.47 40h-1.24V29.82h1.24V40zm3.48 0h-1.17v-7.64h1.13v1.2h.1c.36-.78 1.08-1.3 2.23-1.3 1.55 0 2.58.94 2.58 2.89V40h-1.17v-4.77c0-1.2-.66-1.91-1.75-1.91-1.12 0-1.95.75-1.95 2.09V40zm6.66-3.78c0-2.33 1.37-3.96 3.44-3.96 1.61 0 2.83.96 3.02 2.39h-1.17c-.18-.7-.79-1.33-1.83-1.33-1.37 0-2.29 1.13-2.29 2.86 0 1.77.9 2.93 2.29 2.93.92 0 1.61-.5 1.83-1.34h1.17c-.19 1.36-1.31 2.39-3 2.39-2.15 0-3.46-1.65-3.46-3.94zm9.35 3.78h-1.17V29.82h1.17V40zm6.96-7.64h1.18V40h-1.18v-1.29h-.08c-.35.77-1.11 1.39-2.26 1.39-1.44 0-2.47-.94-2.47-2.88v-4.86h1.17v4.78c0 1.11.7 1.83 1.67 1.83.88 0 1.97-.66 1.97-2.09v-4.52zm7.68 2.01c-.2-.52-.63-1.09-1.65-1.09-.93 0-1.63.48-1.63 1.13 0 .59.41.89 1.31 1.12l1.14.27c1.36.34 2.02 1.01 2.02 2.07 0 1.32-1.2 2.29-2.98 2.29-1.56 0-2.63-.69-2.9-1.99l1.11-.28c.21.82.81 1.24 1.77 1.24 1.09 0 1.79-.54 1.79-1.2 0-.53-.36-.89-1.13-1.07l-1.27-.3c-1.41-.33-2.03-1.03-2.03-2.09 0-1.29 1.19-2.21 2.8-2.21 1.51 0 2.34.73 2.7 1.81l-1.05.3zm2.96-2.01h1.17V40h-1.17v-7.64zm-.24-2.06c0-.44.38-.8.84-.8.45 0 .83.36.83.8 0 .43-.38.79-.83.79-.46 0-.84-.36-.84-.79zm3.2 5.92c0-2.38 1.4-3.96 3.47-3.96 2.06 0 3.45 1.58 3.45 3.96 0 2.37-1.39 3.94-3.45 3.94-2.07 0-3.47-1.57-3.47-3.94zm5.75 0c0-1.53-.71-2.9-2.28-2.9-1.58 0-2.29 1.37-2.29 2.9 0 1.53.71 2.89 2.29 2.89 1.57 0 2.28-1.36 2.28-2.89zm4.14 3.78h-1.17v-7.64h1.13v1.2h.1c.36-.78 1.07-1.3 2.23-1.3 1.54 0 2.58.94 2.58 2.89V40h-1.17v-4.77c0-1.2-.66-1.91-1.75-1.91-1.12 0-1.95.75-1.95 2.09V40zm65.82-3.1l4.47-7.08h1.5v7h1.39v1.09h-1.39V40h-1.18v-2.09h-4.79V36.9zm4.79-5.51h-.08l-3.38 5.35v.08h3.46v-5.43zm7.79.97h1.23l1.66 5.85h.07l1.63-5.85h1.26l1.61 5.83h.08l1.65-5.83h1.23L553.9 40h-1.15l-1.67-5.87h-.12L549.29 40h-1.15l-2.33-7.64zm11.35 3.88c0-2.35 1.38-3.98 3.45-3.98 1.59 0 3.28.98 3.28 3.82v.5h-5.55c.06 1.64 1.01 2.53 2.39 2.53.91 0 1.61-.4 1.9-1.2l1.14.32c-.36 1.15-1.49 1.93-3.04 1.93-2.21 0-3.57-1.57-3.57-3.92zm5.53-.67c0-1.3-.81-2.25-2.08-2.25-1.35 0-2.19 1.06-2.27 2.25h4.35zm2.62.67c0-2.35 1.38-3.98 3.44-3.98 1.6 0 3.28.98 3.28 3.82v.5h-5.54c.06 1.64 1.01 2.53 2.38 2.53.92 0 1.61-.4 1.91-1.2l1.14.32c-.36 1.15-1.5 1.93-3.05 1.93-2.2 0-3.56-1.57-3.56-3.92zm5.53-.67c0-1.3-.81-2.25-2.09-2.25-1.34 0-2.18 1.06-2.26 2.25h4.35zm2.98-5.75h1.17v5.94h.14l3.34-3.4h1.45l-3.22 3.27 3.46 4.37h-1.49l-2.86-3.62-.82.76V40h-1.17V29.82zm11.97 4.55c-.2-.52-.63-1.09-1.65-1.09-.93 0-1.63.48-1.63 1.13 0 .59.41.89 1.31 1.12l1.14.27c1.36.34 2.02 1.01 2.02 2.07 0 1.32-1.21 2.29-2.98 2.29-1.56 0-2.63-.69-2.9-1.99l1.11-.28c.21.82.81 1.24 1.77 1.24 1.09 0 1.79-.54 1.79-1.2 0-.53-.36-.89-1.13-1.07l-1.28-.3c-1.4-.33-2.02-1.03-2.02-2.09 0-1.29 1.19-2.21 2.8-2.21 1.51 0 2.34.73 2.7 1.81l-1.05.3z" fill="#000"/><path id="Layer" d="M394 31h8v8h-8v-8z" fill="#7180ce"/><path id="Layer" d="M515 31h8v8h-8v-8z" fill="#69c9f3"/></svg>