<svg width="588" height="388" fill="none" xmlns="http://www.w3.org/2000/svg"><path d="M.818 233.962v1.233H11v-1.233H.818zM11 231.649v-1.174H6.227c-1.118 0-1.909-.815-1.909-1.73 0-.89.582-1.511 1.452-1.511H11v-1.193H6.028c-.984 0-1.71-.617-1.71-1.691 0-.835.443-1.551 1.571-1.551H11v-1.173H5.89c-1.796 0-2.626.965-2.626 2.327 0 1.094.502 1.894 1.293 2.287v.079c-.816.378-1.293 1.044-1.293 2.049 0 .994.477 1.73 1.293 2.048v.099H3.364v1.134H11zm0-12.168v-1.173H6.227c-1.118 0-1.909-.816-1.909-1.731 0-.889.582-1.511 1.452-1.511H11v-1.193H6.028c-.984 0-1.71-.617-1.71-1.69 0-.836.443-1.552 1.571-1.552H11v-1.173H5.89c-1.796 0-2.626.965-2.626 2.327 0 1.094.502 1.894 1.293 2.287v.079c-.816.378-1.293 1.044-1.293 2.049 0 .994.477 1.73 1.293 2.048v.099H3.364v1.134H11zM7.878 202.5c1.432 0 2.088 1.094 2.088 1.969 0 .975-.716 1.671-1.83 1.671H3.364v1.173h4.852c1.949 0 2.883-1.034 2.883-2.466 0-1.153-.616-1.909-1.392-2.267v-.08H11v-1.173H3.364v1.173h4.514zm-1.472-4.495c-1.332 0-2.088-.825-2.088-1.949 0-1.089.711-1.75 1.91-1.75H11v-1.173H6.148c-1.95 0-2.884 1.039-2.884 2.585 0 1.153.517 1.869 1.293 2.227v.1H3.364v1.133H11v-1.173H6.406zm4.753-10.218c0-1.551-.776-2.685-1.929-3.043l-.318 1.134c.795.298 1.193.989 1.193 1.909 0 1.377-.89 2.327-2.525 2.381v-5.543h-.498c-2.843 0-3.818 1.69-3.818 3.281 0 2.068 1.63 3.441 3.977 3.441s3.918-1.353 3.918-3.56zm-4.594 2.381c-1.188-.079-2.247-.919-2.247-2.262 0-1.272.955-2.088 2.247-2.088v4.35zM11 178.903v-1.174H6.168c-1.034 0-1.79-.815-1.79-1.929 0-.313.06-.636.08-.715H3.263c-.01.134-.02.442-.02.616 0 .915.517 1.71 1.273 1.989v.079H3.364v1.134H11zm.16-8.179c0-1.551-.777-2.684-1.93-3.042l-.318 1.133c.795.299 1.193.99 1.193 1.909 0 1.378-.89 2.327-2.525 2.382v-5.544h-.498c-2.843 0-3.818 1.691-3.818 3.282 0 2.068 1.63 3.44 3.977 3.44s3.918-1.352 3.918-3.56zm-4.595 2.382c-1.188-.08-2.247-.92-2.247-2.262 0-1.273.955-2.088 2.247-2.088v4.35zm-1.491-12.737c-1.084.368-1.81 1.193-1.81 2.704 0 1.611.915 2.804 2.208 2.804 1.054 0 1.76-.626 2.088-2.028l.298-1.273c.179-.771.547-1.134 1.074-1.134.656 0 1.193.696 1.193 1.79 0 .96-.413 1.561-1.233 1.77l.278 1.114c1.298-.274 1.99-1.343 1.99-2.904 0-1.774-.97-2.983-2.288-2.983-1.064 0-1.735.667-2.068 2.029l-.278 1.133c-.224.905-.527 1.313-1.114 1.313-.656 0-1.134-.696-1.134-1.631 0-1.024.567-1.447 1.094-1.65l-.298-1.054zm8.79-1.906v-1.173H9.827v-.099c.417-.259 1.332-.756 1.332-2.228 0-1.909-1.531-3.241-3.957-3.241-2.407 0-3.938 1.332-3.938 3.261 0 1.492.915 1.949 1.313 2.208v.139H3.364v1.133h10.5zm-6.682-1.153c-1.71 0-2.864-.756-2.864-2.188 0-1.491 1.253-2.227 2.864-2.227 1.63 0 2.923.756 2.923 2.227 0 1.412-1.193 2.188-2.923 2.188zm3.977-10.48c0-2.068-1.57-3.461-3.937-3.461-2.387 0-3.958 1.393-3.958 3.461 0 2.068 1.571 3.46 3.958 3.46 2.366 0 3.937-1.392 3.937-3.46zm-1.054 0c0 1.571-1.352 2.287-2.883 2.287-1.532 0-2.904-.716-2.904-2.287s1.372-2.287 2.904-2.287c1.53 0 2.883.716 2.883 2.287zm-3.699-6.425c-1.332 0-2.088-.825-2.088-1.949 0-1.088.711-1.75 1.91-1.75H11v-1.173H6.148c-1.95 0-2.884 1.039-2.884 2.585 0 1.154.517 1.87 1.293 2.228v.099H3.364v1.133H11v-1.173H6.406zM5.074 127.98c-1.084.368-1.81 1.193-1.81 2.704 0 1.611.915 2.804 2.208 2.804 1.054 0 1.76-.626 2.088-2.028l.298-1.273c.179-.77.547-1.133 1.074-1.133.656 0 1.193.696 1.193 1.79 0 .959-.413 1.561-1.233 1.769l.278 1.114c1.298-.273 1.99-1.342 1.99-2.903 0-1.775-.97-2.983-2.288-2.983-1.064 0-1.735.666-2.068 2.028l-.278 1.134c-.224.904-.527 1.312-1.114 1.312-.656 0-1.134-.696-1.134-1.631 0-1.024.567-1.446 1.094-1.65l-.298-1.054zm6.085-5.107c0-1.551-.776-2.685-1.929-3.043l-.318 1.134c.795.298 1.193.989 1.193 1.909 0 1.377-.89 2.327-2.525 2.381v-5.543h-.498c-2.843 0-3.818 1.69-3.818 3.281 0 2.068 1.63 3.441 3.977 3.441s3.918-1.353 3.918-3.56zm-4.594 2.381c-1.188-.079-2.247-.919-2.247-2.262 0-1.273.955-2.088 2.247-2.088v4.35z" fill="#202124"/><path d="M27 351.5V1h-6m6 350.5v8m0-8h560v6m-560-6h-9m3-50.5h6m-6-50h6m-6-50h6m-6-50h6m-6-50h6m-6-50h6m420 306.5v-6m70 6v-6m-140 6v-6m-70 6v-6m-70 6v-6m-70 6v-6m-70 6v-6" stroke="#202124"/><path opacity=".1" d="M587 2H28m0 300h559M28 252h559M28 202h559M28 152h559M28 102h559M28 52h559M587 1v351m-140 0V1m70 351V1M377 352V1m-70 351V1m-70 351V1m-70 351V1M97 352V1" stroke="#202124"/><path d="M291.866 377.912h3.201V387h1.233v-9.088h3.202v-1.094h-7.636v1.094zm9.38 9.088h1.173v-7.636h-1.173V387zm.596-8.909c.458 0 .836-.358.836-.796 0-.437-.378-.795-.836-.795-.457 0-.835.358-.835.795 0 .438.378.796.835.796zm2.726 8.909h1.173v-4.773c0-1.118.816-1.909 1.73-1.909.89 0 1.512.582 1.512 1.452V387h1.193v-4.972c0-.984.616-1.71 1.69-1.71.836 0 1.551.443 1.551 1.571V387h1.174v-5.111c0-1.795-.965-2.625-2.327-2.625-1.094 0-1.894.502-2.287 1.293h-.079c-.378-.816-1.044-1.293-2.049-1.293-.994 0-1.73.477-2.048 1.293h-.099v-1.193h-1.134V387zm15.37.159c1.551 0 2.684-.775 3.042-1.929l-1.133-.318c-.299.795-.99 1.193-1.909 1.193-1.377 0-2.327-.89-2.382-2.525h5.544v-.498c0-2.843-1.691-3.818-3.282-3.818-2.068 0-3.44 1.631-3.44 3.977 0 2.347 1.352 3.918 3.56 3.918zm-2.382-4.594c.08-1.188.92-2.247 2.262-2.247 1.273 0 2.088.955 2.088 2.247h-4.35z" fill="#202124"/><path d="M28 302h87s6.43.497 10.5 0c24.228-2.958 13.105-50.8 37.5-50 23.822.781 11.359 46.967 35 50 4.067.522 10.5 0 10.5 0h122s5.184.162 8.5 0c57.871-2.827 13.581-131.562 71.5-130 57.093 1.54 10.015 126.156 67 130 4.481.302 11.5 0 11.5 0h98.5" stroke="#202124" stroke-width="1.5"/><path d="M28 300h86s6.43.497 10.5 0c24.228-2.958 13.105-51.8 37.5-51 23.822.781 12.359 47.967 36 51 4.067.522 10.5 0 10.5 0h122s5.184.162 8.5 0c57.871-2.827 8-190 73.5-190s12.015 186.156 69 190c4.481.302 11.5 0 11.5 0h94.5" stroke="red" stroke-width="1.5"/><path d="M73.804 122c-.378-2.088-2.048-3.321-4.097-3.321-2.605 0-4.494 2.009-4.494 5.23 0 3.222 1.89 5.23 4.495 5.23 2.048 0 3.718-1.233 4.096-3.321h-1.233c-.298 1.412-1.511 2.168-2.864 2.168-1.849 0-3.3-1.432-3.3-4.077s1.451-4.077 3.3-4.077c1.353 0 2.566.756 2.864 2.168h1.233zm4.08 7.179c1.333 0 2.029-.716 2.267-1.213h.06V129h1.174v-5.031c0-2.426-1.85-2.705-2.824-2.705-1.154 0-2.466.398-3.063 1.79l1.114.398c.258-.557.87-1.154 1.988-1.154 1.08 0 1.611.572 1.611 1.551v.04c0 .567-.576.517-1.968.696-1.417.184-2.964.497-2.964 2.247 0 1.492 1.154 2.347 2.606 2.347zm.18-1.054c-.935 0-1.611-.418-1.611-1.233 0-.895.815-1.173 1.73-1.293.497-.059 1.83-.198 2.028-.437v1.074c0 .954-.755 1.889-2.147 1.889zm6.635-3.719c0-1.332.826-2.088 1.95-2.088 1.088 0 1.75.711 1.75 1.909V129h1.172v-4.852c0-1.949-1.039-2.884-2.585-2.884-1.153 0-1.87.517-2.227 1.293h-.1v-1.193h-1.133V129h1.173v-4.594zm9.9 4.753c1.472 0 1.969-.915 2.227-1.332h.14V129h1.133v-10.182h-1.173v3.759h-.1c-.258-.398-.716-1.313-2.207-1.313-1.93 0-3.261 1.531-3.261 3.938 0 2.426 1.332 3.957 3.241 3.957zm.16-1.054c-1.472 0-2.228-1.293-2.228-2.923 0-1.611.736-2.864 2.227-2.864 1.432 0 2.188 1.154 2.188 2.864 0 1.73-.776 2.923-2.188 2.923zm5.652.895h1.173v-7.636h-1.173V129zm.596-8.909c.458 0 .836-.358.836-.796 0-.437-.378-.795-.836-.795-.457 0-.835.358-.835.795 0 .438.378.796.835.796zm5.61 9.068c1.471 0 1.968-.915 2.227-1.332h.139V129h1.134v-10.182h-1.174v3.759h-.099c-.259-.398-.716-1.313-2.208-1.313-1.929 0-3.261 1.531-3.261 3.938 0 2.426 1.332 3.957 3.242 3.957zm.159-1.054c-1.472 0-2.228-1.293-2.228-2.923 0-1.611.736-2.864 2.228-2.864 1.431 0 2.187 1.154 2.187 2.864 0 1.73-.775 2.923-2.187 2.923zm7.9 1.074c1.332 0 2.028-.716 2.267-1.213h.059V129h1.174v-5.031c0-2.426-1.85-2.705-2.824-2.705-1.154 0-2.466.398-3.063 1.79l1.114.398c.258-.557.87-1.154 1.988-1.154 1.079 0 1.611.572 1.611 1.551v.04c0 .567-.576.517-1.969.696-1.416.184-2.963.497-2.963 2.247 0 1.492 1.154 2.347 2.606 2.347zm.178-1.054c-.934 0-1.61-.418-1.61-1.233 0-.895.815-1.173 1.73-1.293.497-.059 1.829-.198 2.028-.437v1.074c0 .954-.755 1.889-2.148 1.889zm11.648 1.054c1.332 0 2.028-.716 2.267-1.213h.059V129h1.174v-5.031c0-2.426-1.85-2.705-2.824-2.705-1.154 0-2.466.398-3.063 1.79l1.114.398c.258-.557.87-1.154 1.989-1.154 1.078 0 1.61.572 1.61 1.551v.04c0 .567-.576.517-1.968.696-1.417.184-2.963.497-2.963 2.247 0 1.492 1.153 2.347 2.605 2.347zm.179-1.054c-.935 0-1.611-.418-1.611-1.233 0-.895.815-1.173 1.73-1.293.497-.059 1.83-.198 2.028-.437v1.074c0 .954-.755 1.889-2.147 1.889zm5.462.875h1.173v-7.636h-1.173V129zm.597-8.909c.457 0 .835-.358.835-.796 0-.437-.378-.795-.835-.795-.458 0-.835.358-.835.795 0 .438.377.796.835.796zm2.885 8.909h1.133v-1.173h.139c.259.417.756 1.332 2.228 1.332 1.909 0 3.241-1.531 3.241-3.957 0-2.407-1.332-3.938-3.261-3.938-1.492 0-1.949.915-2.208 1.313h-.099v-3.759h-1.173V129zm1.153-3.818c0-1.71.756-2.864 2.187-2.864 1.492 0 2.228 1.253 2.228 2.864 0 1.63-.756 2.923-2.228 2.923-1.411 0-2.187-1.193-2.187-2.923zm7.383 3.818h1.173v-7.636h-1.173V129zm.596-8.909c.458 0 .836-.358.836-.796 0-.437-.378-.795-.836-.795-.457 0-.835.358-.835.795 0 .438.378.796.835.796zm5.828 9.068c1.691 0 2.804-1.034 3.003-2.386h-1.173c-.219.835-.915 1.332-1.83 1.332-1.392 0-2.287-1.153-2.287-2.923 0-1.73.915-2.864 2.287-2.864 1.034 0 1.651.637 1.83 1.333h1.173c-.199-1.432-1.412-2.387-3.023-2.387-2.068 0-3.44 1.631-3.44 3.958 0 2.287 1.313 3.937 3.46 3.937zm6.966.02c1.332 0 2.028-.716 2.267-1.213h.059V129h1.174v-5.031c0-2.426-1.85-2.705-2.824-2.705-1.154 0-2.466.398-3.063 1.79l1.114.398c.258-.557.87-1.154 1.988-1.154 1.079 0 1.611.572 1.611 1.551v.04c0 .567-.576.517-1.969.696-1.416.184-2.963.497-2.963 2.247 0 1.492 1.154 2.347 2.606 2.347zm.178-1.054c-.934 0-1.61-.418-1.61-1.233 0-.895.815-1.173 1.73-1.293.497-.059 1.829-.198 2.028-.437v1.074c0 .954-.755 1.889-2.148 1.889zm6.636-3.719c0-1.332.826-2.088 1.949-2.088 1.089 0 1.75.711 1.75 1.909V129h1.173v-4.852c0-1.949-1.039-2.884-2.585-2.884-1.153 0-1.869.517-2.227 1.293h-.099v-1.193h-1.134V129h1.173v-4.594zm12.426-1.332c-.368-1.084-1.194-1.81-2.705-1.81-1.611 0-2.804.915-2.804 2.208 0 1.054.626 1.76 2.028 2.088l1.273.298c.771.179 1.134.547 1.134 1.074 0 .656-.696 1.193-1.79 1.193-.96 0-1.561-.413-1.77-1.233l-1.114.278c.274 1.298 1.343 1.989 2.904 1.989 1.775 0 2.983-.969 2.983-2.287 0-1.064-.666-1.735-2.029-2.068l-1.133-.278c-.905-.224-1.313-.527-1.313-1.114 0-.656.696-1.134 1.631-1.134 1.024 0 1.447.567 1.651 1.094l1.054-.298zm-81.007 11.605c-1.75 0-3.023 1.173-3.023 2.744v10.441h1.174v-3.679l.08-.04c.556.775 1.312.994 2.047.994 1.81 0 3.123-1.332 3.123-3.062 0-1.019-.453-2.088-1.472-2.62a2.645 2.645 0 001.034-2.093c0-1.333-1.074-2.685-2.963-2.685zm-.577 4.435v1.014h.975c1.114 0 1.83.954 1.83 1.949 0 1.054-.796 1.968-2.089 1.968-1.233 0-1.988-.835-1.988-1.809v-4.813c0-.974.835-1.65 1.85-1.65 1.013 0 1.809.676 1.809 1.591 0 .855-.676 1.67-1.83 1.67h-.557v.08zm10.228.974h-4.454v1.094h4.454v-1.094zm5.147 7.935c1.83 0 3.301-.835 3.301-2.804v-7.855h-1.133v1.213h-.12c-.258-.398-.735-1.313-2.227-1.313-1.929 0-3.261 1.531-3.261 3.878 0 2.386 1.392 3.739 3.241 3.739 1.492 0 1.969-.875 2.227-1.293h.1v1.551c0 1.273-.895 1.85-2.128 1.85-1.387 0-1.874-.731-2.187-1.154l-.935.656c.477.801 1.417 1.532 3.122 1.532zm-.04-4.196c-1.471 0-2.227-1.114-2.227-2.705 0-1.551.736-2.804 2.227-2.804 1.432 0 2.188 1.154 2.188 2.804 0 1.69-.776 2.705-2.188 2.705zm6.662-9.009h-1.173V145h1.173v-10.182zm6.962 7.06c0 1.432-1.094 2.088-1.969 2.088-.975 0-1.671-.716-1.671-1.83v-4.772h-1.173v4.852c0 1.949 1.034 2.883 2.466 2.883 1.153 0 1.909-.616 2.267-1.392h.08V145h1.173v-7.636h-1.173v4.514zm6.424 3.281c1.691 0 2.804-1.034 3.003-2.386h-1.173c-.219.835-.915 1.332-1.83 1.332-1.392 0-2.287-1.153-2.287-2.923 0-1.73.915-2.864 2.287-2.864 1.034 0 1.651.637 1.83 1.333h1.173c-.199-1.432-1.412-2.387-3.023-2.387-2.068 0-3.44 1.631-3.44 3.958 0 2.287 1.312 3.937 3.46 3.937zm6.965.02c1.333 0 2.029-.716 2.267-1.213h.06V145h1.173v-5.031c0-2.426-1.849-2.705-2.823-2.705-1.154 0-2.466.398-3.063 1.79l1.114.398c.258-.557.87-1.154 1.988-1.154 1.079 0 1.611.572 1.611 1.551v.04c0 .567-.577.517-1.969.696-1.417.184-2.963.497-2.963 2.247 0 1.492 1.154 2.347 2.605 2.347zm.179-1.054c-.934 0-1.61-.418-1.61-1.233 0-.895.815-1.173 1.73-1.293.497-.059 1.829-.198 2.028-.437v1.074c0 .954-.756 1.889-2.148 1.889zm6.636-3.719c0-1.332.825-2.088 1.949-2.088 1.089 0 1.75.711 1.75 1.909V145h1.173v-4.852c0-1.949-1.039-2.884-2.585-2.884-1.153 0-1.869.517-2.227 1.293h-.1v-1.193h-1.133V145h1.173v-4.594zM201.415 273h1.233v-3.719h2.227c2.371 0 3.44-1.442 3.44-3.241 0-1.8-1.069-3.222-3.46-3.222h-3.44V273zm1.233-4.812v-4.276h2.167c1.656 0 2.287.905 2.287 2.128s-.631 2.148-2.267 2.148h-2.187zm7.494 4.812h1.174v-4.832c0-1.034.815-1.79 1.928-1.79.314 0 .637.06.716.079v-1.193c-.134-.01-.442-.02-.616-.02-.915 0-1.71.517-1.989 1.273h-.079v-1.153h-1.134V273zm5.209 0h1.174v-7.636h-1.174V273zm.597-8.909c.457 0 .835-.358.835-.796 0-.437-.378-.795-.835-.795-.458 0-.835.358-.835.795 0 .438.377.796.835.796zm2.725 8.909h1.174v-4.773c0-1.118.815-1.909 1.73-1.909.89 0 1.511.582 1.511 1.452V273h1.193v-4.972c0-.984.617-1.71 1.691-1.71.835 0 1.551.443 1.551 1.571V273h1.173v-5.111c0-1.795-.964-2.625-2.327-2.625-1.093 0-1.894.502-2.286 1.293h-.08c-.378-.816-1.044-1.293-2.048-1.293-.995 0-1.73.477-2.049 1.293h-.099v-1.193h-1.134V273zm14.416.179c1.332 0 2.028-.716 2.267-1.213h.059V273h1.174v-5.031c0-2.426-1.85-2.705-2.824-2.705-1.154 0-2.466.398-3.063 1.79l1.114.398c.258-.557.87-1.154 1.989-1.154 1.078 0 1.61.572 1.61 1.551v.04c0 .567-.576.517-1.968.696-1.417.184-2.964.497-2.964 2.247 0 1.492 1.154 2.347 2.606 2.347zm.179-1.054c-.935 0-1.611-.418-1.611-1.233 0-.895.815-1.173 1.73-1.293.497-.059 1.829-.198 2.028-.437v1.074c0 .954-.755 1.889-2.147 1.889zm5.462.875h1.173v-4.832c0-1.034.816-1.79 1.929-1.79.314 0 .637.06.716.079v-1.193c-.134-.01-.442-.02-.616-.02-.915 0-1.71.517-1.989 1.273h-.079v-1.153h-1.134V273zm6.197 2.864c1.059 0 1.805-.562 2.247-1.75l3.252-8.73-1.283-.02-2.108 6.085h-.079l-2.108-6.085h-1.273l2.824 7.676-.219.596c-.428 1.164-.955 1.273-1.81 1.054l-.298 1.034c.119.06.457.14.855.14zM255.916 273h1.173v-4.832c0-1.034.815-1.79 1.929-1.79.313 0 .636.06.716.079v-1.193c-.134-.01-.443-.02-.617-.02-.914 0-1.71.517-1.988 1.273h-.08v-1.153h-1.133V273zm8.178.159c1.551 0 2.685-.775 3.043-1.929l-1.134-.318c-.298.795-.989 1.193-1.909 1.193-1.377 0-2.327-.89-2.381-2.525h5.543v-.498c0-2.843-1.69-3.818-3.281-3.818-2.069 0-3.441 1.631-3.441 3.977 0 2.347 1.353 3.918 3.56 3.918zm-2.381-4.594c.079-1.188.919-2.247 2.262-2.247 1.272 0 2.088.955 2.088 2.247h-4.35zm12.737-1.491c-.368-1.084-1.193-1.81-2.705-1.81-1.611 0-2.804.915-2.804 2.208 0 1.054.627 1.76 2.029 2.088l1.272.298c.771.179 1.134.547 1.134 1.074 0 .656-.696 1.193-1.79 1.193-.959 0-1.561-.413-1.77-1.233l-1.113.278c.273 1.298 1.342 1.989 2.903 1.989 1.775 0 2.983-.969 2.983-2.287 0-1.064-.666-1.735-2.028-2.068l-1.134-.278c-.905-.224-1.312-.527-1.312-1.114 0-.656.696-1.134 1.63-1.134 1.024 0 1.447.567 1.651 1.094l1.054-.298zm1.905 8.79h1.173v-4.037h.1c.258.417.756 1.332 2.227 1.332 1.909 0 3.242-1.531 3.242-3.957 0-2.407-1.333-3.938-3.262-3.938-1.491 0-1.949.915-2.207 1.313h-.139v-1.213h-1.134v10.5zm1.154-6.682c0-1.71.755-2.864 2.187-2.864 1.492 0 2.227 1.253 2.227 2.864 0 1.63-.755 2.923-2.227 2.923-1.412 0-2.187-1.193-2.187-2.923zm10.48 3.977c2.068 0 3.46-1.571 3.46-3.937 0-2.387-1.392-3.958-3.46-3.958-2.069 0-3.461 1.571-3.461 3.958 0 2.366 1.392 3.937 3.461 3.937zm0-1.054c-1.571 0-2.287-1.352-2.287-2.883 0-1.532.716-2.904 2.287-2.904s2.287 1.372 2.287 2.904c0 1.531-.716 2.883-2.287 2.883zm6.424-3.699c0-1.332.825-2.088 1.949-2.088 1.089 0 1.75.711 1.75 1.909V273h1.173v-4.852c0-1.949-1.039-2.884-2.585-2.884-1.153 0-1.869.517-2.227 1.293h-.1v-1.193h-1.133V273h1.173v-4.594zm12.425-1.332c-.367-1.084-1.193-1.81-2.704-1.81-1.611 0-2.804.915-2.804 2.208 0 1.054.626 1.76 2.028 2.088l1.273.298c.771.179 1.134.547 1.134 1.074 0 .656-.696 1.193-1.79 1.193-.96 0-1.561-.413-1.77-1.233l-1.114.278c.274 1.298 1.343 1.989 2.904 1.989 1.775 0 2.983-.969 2.983-2.287 0-1.064-.667-1.735-2.029-2.068l-1.133-.278c-.905-.224-1.313-.527-1.313-1.114 0-.656.696-1.134 1.631-1.134 1.024 0 1.447.567 1.65 1.094l1.054-.298zm5.107 6.085c1.552 0 2.685-.775 3.043-1.929l-1.133-.318c-.299.795-.99 1.193-1.91 1.193-1.377 0-2.326-.89-2.381-2.525h5.543v-.498c0-2.843-1.69-3.818-3.281-3.818-2.068 0-3.44 1.631-3.44 3.977 0 2.347 1.352 3.918 3.559 3.918zm-2.381-4.594c.08-1.188.92-2.247 2.262-2.247 1.273 0 2.088.955 2.088 2.247h-4.35zM466.867 127.912h3.201V137h1.233v-9.088h3.202v-1.094h-7.636v1.094zm8.587 9.088h1.173v-4.832c0-1.034.815-1.79 1.929-1.79.313 0 .636.06.716.079v-1.193c-.134-.01-.443-.02-.617-.02-.914 0-1.71.517-1.988 1.273h-.08v-1.153h-1.133V137zm7.456.179c1.332 0 2.028-.716 2.267-1.213h.06V137h1.173v-5.031c0-2.426-1.85-2.705-2.824-2.705-1.153 0-2.466.398-3.062 1.79l1.113.398c.259-.557.87-1.154 1.989-1.154 1.079 0 1.611.572 1.611 1.551v.04c0 .567-.577.517-1.969.696-1.417.184-2.963.497-2.963 2.247 0 1.492 1.153 2.347 2.605 2.347zm.179-1.054c-.935 0-1.611-.418-1.611-1.233 0-.895.815-1.173 1.73-1.293.497-.059 1.83-.198 2.029-.437v1.074c0 .954-.756 1.889-2.148 1.889zm5.462.875h1.174v-7.636h-1.174V137zm.597-8.909c.457 0 .835-.358.835-.796 0-.437-.378-.795-.835-.795-.457 0-.835.358-.835.795 0 .438.378.796.835.796zm3.899 4.315c0-1.332.825-2.088 1.949-2.088 1.089 0 1.75.711 1.75 1.909V137h1.173v-4.852c0-1.949-1.039-2.884-2.585-2.884-1.154 0-1.869.517-2.227 1.293h-.1v-1.193h-1.133V137h1.173v-4.594zm10.218 4.753c1.551 0 2.684-.775 3.042-1.929l-1.133-.318c-.298.795-.989 1.193-1.909 1.193-1.377 0-2.327-.89-2.382-2.525h5.544v-.498c0-2.843-1.691-3.818-3.281-3.818-2.069 0-3.441 1.631-3.441 3.977 0 2.347 1.352 3.918 3.56 3.918zm-2.382-4.594c.08-1.188.92-2.247 2.263-2.247 1.272 0 2.088.955 2.088 2.247h-4.351zm10.212 4.594c1.472 0 1.969-.915 2.227-1.332h.14V137h1.133v-10.182h-1.173v3.759h-.1c-.258-.398-.716-1.313-2.207-1.313-1.929 0-3.261 1.531-3.261 3.938 0 2.426 1.332 3.957 3.241 3.957zm.159-1.054c-1.471 0-2.227-1.293-2.227-2.923 0-1.611.736-2.864 2.227-2.864 1.432 0 2.188 1.154 2.188 2.864 0 1.73-.776 2.923-2.188 2.923zm5.653.895h1.173v-4.832c0-1.034.816-1.79 1.929-1.79.313 0 .637.06.716.079v-1.193c-.134-.01-.442-.02-.616-.02-.915 0-1.711.517-1.989 1.273h-.08v-1.153h-1.133V137zm8.178.159c1.551 0 2.685-.775 3.043-1.929l-1.134-.318c-.298.795-.989 1.193-1.909 1.193-1.377 0-2.327-.89-2.381-2.525h5.543v-.498c0-2.843-1.69-3.818-3.281-3.818-2.068 0-3.441 1.631-3.441 3.977 0 2.347 1.353 3.918 3.56 3.918zm-2.381-4.594c.079-1.188.919-2.247 2.262-2.247 1.273 0 2.088.955 2.088 2.247h-4.35zm12.737-1.491c-.368-1.084-1.193-1.81-2.705-1.81-1.61 0-2.804.915-2.804 2.208 0 1.054.627 1.76 2.029 2.088l1.273.298c.77.179 1.133.547 1.133 1.074 0 .656-.696 1.193-1.79 1.193-.959 0-1.561-.413-1.77-1.233l-1.113.278c.273 1.298 1.342 1.989 2.903 1.989 1.775 0 2.983-.969 2.983-2.287 0-1.064-.666-1.735-2.028-2.068l-1.134-.278c-.905-.224-1.312-.527-1.312-1.114 0-.656.696-1.134 1.63-1.134 1.025 0 1.447.567 1.651 1.094l1.054-.298zm1.905 8.79h1.174v-4.037h.099c.259.417.756 1.332 2.227 1.332 1.909 0 3.242-1.531 3.242-3.957 0-2.407-1.333-3.938-3.262-3.938-1.491 0-1.948.915-2.207 1.313h-.139v-1.213h-1.134v10.5zm1.154-6.682c0-1.71.755-2.864 2.187-2.864 1.492 0 2.228 1.253 2.228 2.864 0 1.63-.756 2.923-2.228 2.923-1.412 0-2.187-1.193-2.187-2.923zm10.48 3.977c2.068 0 3.46-1.571 3.46-3.937 0-2.387-1.392-3.958-3.46-3.958s-3.46 1.571-3.46 3.958c0 2.366 1.392 3.937 3.46 3.937zm0-1.054c-1.571 0-2.287-1.352-2.287-2.883 0-1.532.716-2.904 2.287-2.904s2.287 1.372 2.287 2.904c0 1.531-.716 2.883-2.287 2.883zm6.424-3.699c0-1.332.826-2.088 1.949-2.088 1.089 0 1.75.711 1.75 1.909V137h1.174v-4.852c0-1.949-1.04-2.884-2.586-2.884-1.153 0-1.869.517-2.227 1.293h-.099v-1.193h-1.134V137h1.173v-4.594zm12.426-1.332c-.368-1.084-1.194-1.81-2.705-1.81-1.611 0-2.804.915-2.804 2.208 0 1.054.627 1.76 2.029 2.088l1.272.298c.771.179 1.134.547 1.134 1.074 0 .656-.696 1.193-1.79 1.193-.96 0-1.561-.413-1.77-1.233l-1.114.278c.274 1.298 1.343 1.989 2.904 1.989 1.775 0 2.983-.969 2.983-2.287 0-1.064-.666-1.735-2.029-2.068l-1.133-.278c-.905-.224-1.313-.527-1.313-1.114 0-.656.696-1.134 1.631-1.134 1.024 0 1.447.567 1.651 1.094l1.054-.298zm5.107 6.085c1.551 0 2.684-.775 3.042-1.929l-1.133-.318c-.299.795-.99 1.193-1.909 1.193-1.377 0-2.327-.89-2.382-2.525h5.544v-.498c0-2.843-1.691-3.818-3.282-3.818-2.068 0-3.44 1.631-3.44 3.977 0 2.347 1.352 3.918 3.56 3.918zm-2.382-4.594c.08-1.188.92-2.247 2.262-2.247 1.273 0 2.088.955 2.088 2.247h-4.35zM260.116 77.364h1.193c-.055-1.537-1.472-2.685-3.441-2.685-1.948 0-3.48 1.133-3.48 2.844 0 1.372.995 2.187 2.586 2.645l1.252.358c1.074.298 2.029.676 2.029 1.69 0 1.114-1.074 1.85-2.486 1.85-1.213 0-2.287-.538-2.386-1.691h-1.273c.119 1.67 1.471 2.804 3.659 2.804 2.347 0 3.679-1.293 3.679-2.943 0-1.91-1.81-2.526-2.864-2.804l-1.034-.279c-.755-.199-1.969-.596-1.969-1.69 0-.974.895-1.69 2.248-1.69 1.233 0 2.167.586 2.287 1.59zm6.402 7.795c1.551 0 2.684-.776 3.042-1.929l-1.133-.318c-.298.795-.989 1.193-1.909 1.193-1.377 0-2.327-.89-2.382-2.526h5.544v-.497c0-2.843-1.691-3.818-3.282-3.818-2.068 0-3.44 1.63-3.44 3.978 0 2.346 1.352 3.917 3.56 3.917zm-2.382-4.594c.08-1.188.92-2.247 2.262-2.247 1.273 0 2.089.955 2.089 2.247h-4.351zm10.431 4.594c1.69 0 2.804-1.034 3.003-2.386h-1.174c-.218.835-.914 1.332-1.829 1.332-1.392 0-2.287-1.153-2.287-2.923 0-1.73.915-2.864 2.287-2.864 1.034 0 1.65.636 1.829 1.333h1.174c-.199-1.432-1.412-2.387-3.023-2.387-2.068 0-3.44 1.63-3.44 3.958 0 2.287 1.312 3.937 3.46 3.937zm7.82 0c2.068 0 3.46-1.57 3.46-3.937 0-2.387-1.392-3.958-3.46-3.958s-3.46 1.571-3.46 3.958c0 2.366 1.392 3.937 3.46 3.937zm0-1.054c-1.571 0-2.287-1.352-2.287-2.883 0-1.532.716-2.904 2.287-2.904s2.287 1.372 2.287 2.904c0 1.53-.716 2.883-2.287 2.883zm6.425-3.699c0-1.332.825-2.088 1.948-2.088 1.089 0 1.75.711 1.75 1.91V85h1.174v-4.852c0-1.95-1.039-2.884-2.585-2.884-1.154 0-1.87.517-2.228 1.293h-.099v-1.193h-1.134V85h1.174v-4.594zm9.899 4.753c1.472 0 1.969-.915 2.228-1.332h.139V85h1.133V74.818h-1.173v3.759h-.099c-.259-.398-.716-1.313-2.208-1.313-1.929 0-3.261 1.532-3.261 3.938 0 2.426 1.332 3.957 3.241 3.957zm.159-1.054c-1.471 0-2.227-1.293-2.227-2.923 0-1.611.736-2.864 2.227-2.864 1.432 0 2.188 1.154 2.188 2.864 0 1.73-.776 2.923-2.188 2.923zm7.9 1.074c1.333 0 2.029-.716 2.267-1.213h.06V85h1.173v-5.031c0-2.426-1.849-2.705-2.824-2.705-1.153 0-2.466.398-3.062 1.79l1.114.398c.258-.557.87-1.154 1.988-1.154 1.079 0 1.611.572 1.611 1.551v.04c0 .567-.577.517-1.969.696-1.417.184-2.963.497-2.963 2.247 0 1.492 1.154 2.347 2.605 2.347zm.179-1.054c-.934 0-1.611-.418-1.611-1.233 0-.895.816-1.173 1.731-1.293.497-.06 1.829-.198 2.028-.437v1.074c0 .954-.756 1.889-2.148 1.889zm5.463.875h1.173v-4.832c0-1.035.815-1.79 1.929-1.79.313 0 .636.06.716.08v-1.194c-.134-.01-.443-.02-.617-.02-.914 0-1.71.517-1.988 1.273h-.08v-1.153h-1.133V85zm6.197 2.864c1.059 0 1.805-.562 2.247-1.75l3.251-8.73-1.282-.02-2.108 6.085h-.08l-2.108-6.085h-1.272l2.823 7.676-.218.596c-.428 1.164-.955 1.273-1.81 1.054l-.298 1.034c.119.06.457.14.855.14zM329.597 85h1.174v-7.636h-1.174V85zm.597-8.91c.457 0 .835-.357.835-.794 0-.438-.378-.796-.835-.796-.457 0-.835.358-.835.796 0 .437.378.795.835.795zm3.899 4.316c0-1.332.825-2.088 1.949-2.088 1.089 0 1.75.711 1.75 1.91V85h1.173v-4.852c0-1.95-1.039-2.884-2.585-2.884-1.154 0-1.87.517-2.227 1.293h-.1v-1.193h-1.133V85h1.173v-4.594zm10.417-3.042h-1.711v-.776c0-.756.319-1.153 1.094-1.153.338 0 .537.08.656.119l.338-1.014c-.179-.08-.537-.2-1.113-.2-1.094 0-2.148.657-2.148 1.97v1.054h-1.233v.994h1.233V85h1.173v-6.642h1.711v-.994zm4.531 7.795c1.551 0 2.685-.776 3.043-1.929l-1.134-.318c-.298.795-.989 1.193-1.909 1.193-1.377 0-2.327-.89-2.381-2.526h5.543v-.497c0-2.843-1.69-3.818-3.281-3.818-2.068 0-3.44 1.63-3.44 3.978 0 2.346 1.352 3.917 3.559 3.917zm-2.381-4.594c.079-1.188.92-2.247 2.262-2.247 1.273 0 2.088.955 2.088 2.247h-4.35zm10.43 4.594c1.691 0 2.804-1.034 3.003-2.386h-1.173c-.219.835-.915 1.332-1.83 1.332-1.392 0-2.287-1.153-2.287-2.923 0-1.73.915-2.864 2.287-2.864 1.034 0 1.651.636 1.83 1.333h1.173c-.199-1.432-1.412-2.387-3.023-2.387-2.068 0-3.44 1.63-3.44 3.958 0 2.287 1.312 3.937 3.46 3.937zm8.039-7.795h-1.63v-1.83h-1.174v1.83h-1.153v.994h1.153v4.773c0 1.332 1.074 1.968 2.068 1.968.438 0 .716-.08.875-.139l-.238-1.054c-.1.02-.259.06-.517.06-.517 0-1.014-.16-1.014-1.153v-4.455h1.63v-.994zM366.894 85h1.173v-7.636h-1.173V85zm.597-8.91c.457 0 .835-.357.835-.794 0-.438-.378-.796-.835-.796-.458 0-.835.358-.835.796 0 .437.377.795.835.795zm5.828 9.07c2.068 0 3.46-1.572 3.46-3.938 0-2.387-1.392-3.958-3.46-3.958s-3.461 1.571-3.461 3.958c0 2.366 1.393 3.937 3.461 3.937zm0-1.055c-1.571 0-2.287-1.352-2.287-2.883 0-1.532.716-2.904 2.287-2.904s2.287 1.372 2.287 2.904c0 1.53-.716 2.883-2.287 2.883zm6.424-3.699c0-1.332.826-2.088 1.949-2.088 1.089 0 1.75.711 1.75 1.91V85h1.173v-4.852c0-1.95-1.039-2.884-2.585-2.884-1.153 0-1.869.517-2.227 1.293h-.1v-1.193h-1.133V85h1.173v-4.594z" fill="#202124"/><path d="M328.5 298.5l2.887-5h-5.774l2.887 5zm-.5-203V294h1V95.5h-1zM117 299l2.887-5h-5.774l2.887 5zm-.5-137v132.5h1V162h-1z" fill="#000"/><path d="M442 135.5h19.5L431 180M178.5 267h15" stroke="#000" stroke-dasharray="2 2"/></svg>