<svg width="28" height="30" fill="none" xmlns="http://www.w3.org/2000/svg"><path d="M5.711 30a5.673 5.673 0 01-4.213-1.867 5.745 5.745 0 01-1.492-4.14 5.736 5.736 0 011.849-3.991L17.08 5.954a3.472 3.472 0 012.527-.925c.938.041 1.803.449 2.436 1.147.634.698.96 1.602.918 2.547a3.53 3.53 0 01-1.138 2.457L8.218 23.733l-1.186-1.307L20.637 9.873c.347-.32.549-.755.57-1.228a1.768 1.768 0 00-1.678-1.847 1.735 1.735 0 00-1.263.462L3.04 21.308a3.972 3.972 0 00-1.28 2.763 3.978 3.978 0 001.032 2.866 3.913 3.913 0 002.74 1.29 3.907 3.907 0 002.844-1.04L24.25 12.54a6.179 6.179 0 001.991-4.298 6.188 6.188 0 00-1.606-4.458 6.087 6.087 0 00-4.264-2.008 6.078 6.078 0 00-4.422 1.62L1.696 16.547.51 15.242l14.253-13.15A7.816 7.816 0 0120.45.007a7.826 7.826 0 015.481 2.581c2.943 3.242 2.72 8.292-.494 11.259L9.563 28.493A5.662 5.662 0 015.71 30z" fill="#F90"/></svg>