<svg width="344" height="184" fill="none" xmlns="http://www.w3.org/2000/svg"><path d="M135.716 56.261c-8.519-15.612-23.958-23.12-44.22-23.12-10.623 0-20.046 2.397-28.27 7.192C55 45.13 48.575 51.98 43.948 60.885c-4.626 8.906-6.94 19.182-6.94 30.828 0 11.989 2.314 22.436 6.94 31.342 4.798 8.906 11.395 15.757 19.79 20.552 8.396 4.796 18.163 7.193 29.3 7.193 26.997 0 45.641-15.706 49.763-41.36H82.244V81.951h97.151c2.015 38.411-10.77 73.38-46.005 91.714-12.337 6.336-26.216 9.505-41.636 9.505-17.306 0-32.984-3.854-47.034-11.561-13.878-7.878-24.844-18.753-32.897-32.626C3.94 125.11 0 109.354 0 91.713c0-17.64 3.94-33.397 11.823-47.27C19.876 30.4 30.842 19.525 44.72 11.818 58.77 3.94 74.362 0 91.497 0c20.218 0 37.781 4.967 52.687 14.9 14.907 9.762 25.188 23.55 30.842 41.361h-39.31zM269.241 183.941c-13.707 0-26.044-2.998-37.01-8.992-10.966-6.166-19.618-14.814-25.958-25.947-6.168-11.132-9.252-23.977-9.252-38.535 0-14.558 3.169-27.403 9.509-38.535 6.511-11.132 15.335-19.696 26.472-25.69 11.138-6.166 23.56-9.248 37.267-9.248 13.708 0 26.13 3.082 37.267 9.248 11.137 5.994 19.876 14.558 26.216 25.69 6.511 11.132 9.766 23.977 9.766 38.535 0 14.558-3.341 27.403-10.024 38.535-6.511 11.133-15.42 19.781-26.729 25.947-11.137 5.994-23.645 8.992-37.524 8.992zm0-31.342c6.511 0 12.594-1.542 18.248-4.624 5.826-3.255 10.452-8.05 13.879-14.387 3.427-6.337 5.14-14.044 5.14-23.121 0-13.53-3.598-23.892-10.794-31.085-7.025-7.364-15.678-11.047-25.959-11.047-10.28 0-18.933 3.683-25.958 11.047-6.854 7.193-10.281 17.555-10.281 31.085 0 13.53 3.342 23.977 10.024 31.342 6.854 7.193 15.421 10.79 25.701 10.79z" fill="#FAF6F0"/></svg>