<svg width="1280" height="193" fill="none" xmlns="http://www.w3.org/2000/svg"><path d="M135.716 64.739c-8.519-15.612-23.958-23.121-44.22-23.121-10.623 0-20.046 2.398-28.27 7.193C55 53.606 48.575 60.457 43.948 69.363c-4.626 8.906-6.94 19.182-6.94 30.828 0 11.989 2.314 22.436 6.94 31.342 4.798 8.906 11.395 15.756 19.79 20.552 8.396 4.795 18.163 7.193 29.3 7.193 26.997 0 45.641-15.706 49.763-41.361H82.244V90.429h97.151c2.015 38.411-10.77 73.38-46.005 91.713-12.337 6.337-26.216 9.506-41.636 9.506-17.306 0-32.984-3.854-47.034-11.561-13.878-7.878-24.844-18.754-32.897-32.626C3.94 133.588 0 117.832 0 100.191c0-17.64 3.94-33.397 11.823-47.27 8.053-14.043 19.019-24.919 32.897-32.626C58.77 12.417 74.362 8.478 91.497 8.478c20.218 0 37.781 4.966 52.687 14.9 14.907 9.762 25.188 23.55 30.842 41.36h-39.31z" fill="#FAF6F0"/><path d="M135.716 64.739c-8.519-15.612-23.958-23.121-44.22-23.121-10.623 0-20.046 2.398-28.27 7.193C55 53.606 48.575 60.457 43.948 69.363c-4.626 8.906-6.94 19.182-6.94 30.828 0 11.989 2.314 22.436 6.94 31.342 4.798 8.906 11.395 15.756 19.79 20.552 8.396 4.795 18.163 7.193 29.3 7.193 26.997 0 45.641-15.706 49.763-41.361H82.244V90.429h97.151c2.015 38.411-10.77 73.38-46.005 91.713-12.337 6.337-26.216 9.506-41.636 9.506-17.306 0-32.984-3.854-47.034-11.561-13.878-7.878-24.844-18.754-32.897-32.626C3.94 133.588 0 117.832 0 100.191c0-17.64 3.94-33.397 11.823-47.27 8.053-14.043 19.019-24.919 32.897-32.626C58.77 12.417 74.362 8.478 91.497 8.478c20.218 0 37.781 4.966 52.687 14.9 14.907 9.762 25.188 23.55 30.842 41.36h-39.31z" fill="#F3EFE8"/><path d="M269.241 192.418c-13.707 0-26.044-2.997-37.01-8.991-10.966-6.166-19.618-14.815-25.958-25.947-6.168-11.132-9.252-23.977-9.252-38.535 0-14.558 3.169-27.403 9.509-38.535 6.511-11.133 15.335-19.696 26.472-25.69 11.138-6.166 23.56-9.249 37.267-9.249 13.708 0 26.13 3.083 37.267 9.249 11.137 5.994 19.876 14.557 26.216 25.69 6.511 11.132 9.766 23.977 9.766 38.535 0 14.558-3.341 27.403-10.024 38.535-6.511 11.132-15.42 19.781-26.729 25.947-11.137 5.994-23.645 8.991-37.524 8.991zm0-31.342c6.511 0 12.594-1.541 18.248-4.624 5.826-3.254 10.452-8.049 13.879-14.386 3.427-6.337 5.14-14.044 5.14-23.121 0-13.53-3.598-23.892-10.794-31.085-7.025-7.365-15.678-11.047-25.959-11.047-10.28 0-18.933 3.682-25.958 11.047-6.854 7.193-10.281 17.555-10.281 31.085 0 13.53 3.342 23.977 10.024 31.342 6.854 7.193 15.421 10.789 25.701 10.789z" fill="#FAF6F0"/><path d="M269.241 192.418c-13.707 0-26.044-2.997-37.01-8.991-10.966-6.166-19.618-14.815-25.958-25.947-6.168-11.132-9.252-23.977-9.252-38.535 0-14.558 3.169-27.403 9.509-38.535 6.511-11.133 15.335-19.696 26.472-25.69 11.138-6.166 23.56-9.249 37.267-9.249 13.708 0 26.13 3.083 37.267 9.249 11.137 5.994 19.876 14.557 26.216 25.69 6.511 11.132 9.766 23.977 9.766 38.535 0 14.558-3.341 27.403-10.024 38.535-6.511 11.132-15.42 19.781-26.729 25.947-11.137 5.994-23.645 8.991-37.524 8.991zm0-31.342c6.511 0 12.594-1.541 18.248-4.624 5.826-3.254 10.452-8.049 13.879-14.386 3.427-6.337 5.14-14.044 5.14-23.121 0-13.53-3.598-23.892-10.794-31.085-7.025-7.365-15.678-11.047-25.959-11.047-10.28 0-18.933 3.682-25.958 11.047-6.854 7.193-10.281 17.555-10.281 31.085 0 13.53 3.342 23.977 10.024 31.342 6.854 7.193 15.421 10.789 25.701 10.789z" fill="#F3EFE8"/><path d="M433.137 192.418c-13.707 0-26.044-2.997-37.01-8.991-10.966-6.166-19.618-14.815-25.958-25.947-6.168-11.132-9.252-23.977-9.252-38.535 0-14.558 3.169-27.403 9.509-38.535 6.511-11.133 15.335-19.696 26.472-25.69 11.138-6.166 23.56-9.249 37.267-9.249 13.708 0 26.13 3.083 37.267 9.249 11.137 5.994 19.876 14.557 26.216 25.69 6.511 11.132 9.766 23.977 9.766 38.535 0 14.558-3.341 27.403-10.024 38.535-6.511 11.132-15.42 19.781-26.729 25.947-11.137 5.994-23.645 8.991-37.524 8.991zm0-31.342c6.511 0 12.594-1.541 18.248-4.624 5.826-3.254 10.452-8.049 13.879-14.386 3.427-6.337 5.14-14.044 5.14-23.121 0-13.53-3.598-23.892-10.794-31.085-7.025-7.365-15.678-11.047-25.959-11.047-10.28 0-18.933 3.682-25.958 11.047-6.854 7.193-10.281 17.555-10.281 31.085 0 13.53 3.342 23.977 10.024 31.342 6.854 7.193 15.421 10.789 25.701 10.789z" fill="#FAF6F0"/><path d="M433.137 192.418c-13.707 0-26.044-2.997-37.01-8.991-10.966-6.166-19.618-14.815-25.958-25.947-6.168-11.132-9.252-23.977-9.252-38.535 0-14.558 3.169-27.403 9.509-38.535 6.511-11.133 15.335-19.696 26.472-25.69 11.138-6.166 23.56-9.249 37.267-9.249 13.708 0 26.13 3.083 37.267 9.249 11.137 5.994 19.876 14.557 26.216 25.69 6.511 11.132 9.766 23.977 9.766 38.535 0 14.558-3.341 27.403-10.024 38.535-6.511 11.132-15.42 19.781-26.729 25.947-11.137 5.994-23.645 8.991-37.524 8.991zm0-31.342c6.511 0 12.594-1.541 18.248-4.624 5.826-3.254 10.452-8.049 13.879-14.386 3.427-6.337 5.14-14.044 5.14-23.121 0-13.53-3.598-23.892-10.794-31.085-7.025-7.365-15.678-11.047-25.959-11.047-10.28 0-18.933 3.682-25.958 11.047-6.854 7.193-10.281 17.555-10.281 31.085 0 13.53 3.342 23.977 10.024 31.342 6.854 7.193 15.421 10.789 25.701 10.789z" fill="#F3EFE8"/><path d="M524.556 118.431c0-14.386 2.827-27.146 8.481-38.278 5.826-11.133 13.707-19.696 23.645-25.69 9.938-5.995 20.99-8.992 33.155-8.992 9.252 0 18.077 2.056 26.472 6.166 8.396 3.94 15.078 9.248 20.047 15.928V0h36.496v190.106h-36.496V169.04c-4.455 7.022-10.709 12.674-18.762 16.956-8.053 4.281-17.391 6.422-28.014 6.422-11.994 0-22.96-3.082-32.898-9.248-9.938-6.166-17.819-14.815-23.645-25.947-5.654-11.304-8.481-24.234-8.481-38.792zm112.057.514c0-8.735-1.713-16.185-5.14-22.35-3.427-6.337-8.053-11.133-13.879-14.387-5.825-3.425-12.079-5.138-18.762-5.138-6.682 0-12.85 1.627-18.505 4.881-5.654 3.254-10.28 8.05-13.878 14.387-3.427 6.165-5.141 13.53-5.141 22.093s1.714 16.099 5.141 22.607c3.598 6.337 8.224 11.218 13.878 14.644 5.826 3.425 11.994 5.138 18.505 5.138 6.683 0 12.937-1.627 18.762-4.882 5.826-3.425 10.452-8.22 13.879-14.386 3.427-6.337 5.14-13.873 5.14-22.607z" fill="#FAF6F0"/><path d="M524.556 118.431c0-14.386 2.827-27.146 8.481-38.278 5.826-11.133 13.707-19.696 23.645-25.69 9.938-5.995 20.99-8.992 33.155-8.992 9.252 0 18.077 2.056 26.472 6.166 8.396 3.94 15.078 9.248 20.047 15.928V0h36.496v190.106h-36.496V169.04c-4.455 7.022-10.709 12.674-18.762 16.956-8.053 4.281-17.391 6.422-28.014 6.422-11.994 0-22.96-3.082-32.898-9.248-9.938-6.166-17.819-14.815-23.645-25.947-5.654-11.304-8.481-24.234-8.481-38.792zm112.057.514c0-8.735-1.713-16.185-5.14-22.35-3.427-6.337-8.053-11.133-13.879-14.387-5.825-3.425-12.079-5.138-18.762-5.138-6.682 0-12.85 1.627-18.505 4.881-5.654 3.254-10.28 8.05-13.878 14.387-3.427 6.165-5.141 13.53-5.141 22.093s1.714 16.099 5.141 22.607c3.598 6.337 8.224 11.218 13.878 14.644 5.826 3.425 11.994 5.138 18.505 5.138 6.683 0 12.937-1.627 18.762-4.882 5.826-3.425 10.452-8.22 13.879-14.386 3.427-6.337 5.14-13.873 5.14-22.607z" fill="#F3EFE8"/><path d="M741.69 157.994h65.539v32.112H705.708V0h35.982v157.994z" fill="#FAF6F0"/><path d="M741.69 157.994h65.539v32.112H705.708V0h35.982v157.994z" fill="#F3EFE8"/><path d="M816.491 118.431c0-14.386 2.827-27.146 8.481-38.278 5.826-11.133 13.622-19.696 23.388-25.69 9.938-5.995 20.99-8.992 33.155-8.992 10.623 0 19.876 2.141 27.757 6.423 8.053 4.282 14.479 9.676 19.276 16.185V47.784h36.239v142.322h-36.239v-20.809c-4.626 6.68-11.051 12.246-19.276 16.699-8.053 4.281-17.391 6.422-28.014 6.422-11.994 0-22.96-3.082-32.898-9.248-9.766-6.166-17.562-14.815-23.388-25.947-5.654-11.304-8.481-24.234-8.481-38.792zm112.057.514c0-8.735-1.713-16.185-5.14-22.35-3.427-6.337-8.053-11.133-13.879-14.387-5.825-3.425-12.079-5.138-18.762-5.138-6.682 0-12.85 1.627-18.505 4.881-5.654 3.254-10.28 8.05-13.878 14.387-3.427 6.165-5.141 13.53-5.141 22.093s1.714 16.099 5.141 22.607c3.598 6.337 8.224 11.218 13.878 14.644 5.826 3.425 11.994 5.138 18.505 5.138 6.683 0 12.937-1.627 18.762-4.882 5.826-3.425 10.452-8.22 13.879-14.386 3.427-6.337 5.14-13.873 5.14-22.607z" fill="#FAF6F0"/><path d="M816.491 118.431c0-14.386 2.827-27.146 8.481-38.278 5.826-11.133 13.622-19.696 23.388-25.69 9.938-5.995 20.99-8.992 33.155-8.992 10.623 0 19.876 2.141 27.757 6.423 8.053 4.282 14.479 9.676 19.276 16.185V47.784h36.239v142.322h-36.239v-20.809c-4.626 6.68-11.051 12.246-19.276 16.699-8.053 4.281-17.391 6.422-28.014 6.422-11.994 0-22.96-3.082-32.898-9.248-9.766-6.166-17.562-14.815-23.388-25.947-5.654-11.304-8.481-24.234-8.481-38.792zm112.057.514c0-8.735-1.713-16.185-5.14-22.35-3.427-6.337-8.053-11.133-13.879-14.387-5.825-3.425-12.079-5.138-18.762-5.138-6.682 0-12.85 1.627-18.505 4.881-5.654 3.254-10.28 8.05-13.878 14.387-3.427 6.165-5.141 13.53-5.141 22.093s1.714 16.099 5.141 22.607c3.598 6.337 8.224 11.218 13.878 14.644 5.826 3.425 11.994 5.138 18.505 5.138 6.683 0 12.937-1.627 18.762-4.882 5.826-3.425 10.452-8.22 13.879-14.386 3.427-6.337 5.14-13.873 5.14-22.607z" fill="#F3EFE8"/><path d="M1033.63 68.592c4.62-6.85 10.96-12.416 19.01-16.698 8.23-4.282 17.57-6.423 28.02-6.423 12.16 0 23.13 2.998 32.9 8.992 9.93 5.994 17.73 14.557 23.38 25.69 5.83 10.961 8.74 23.72 8.74 38.278s-2.91 27.488-8.74 38.792c-5.65 11.132-13.45 19.781-23.38 25.947-9.77 6.166-20.74 9.248-32.9 9.248-10.62 0-19.96-2.055-28.02-6.165-7.88-4.282-14.22-9.763-19.01-16.442v20.295h-35.987V0h35.987v68.592zm75.3 49.839c0-8.563-1.8-15.928-5.4-22.093-3.42-6.337-8.05-11.133-13.88-14.387-5.65-3.254-11.82-4.88-18.5-4.88-6.51 0-12.68 1.712-18.51 5.137-5.65 3.254-10.28 8.05-13.87 14.386-3.43 6.337-5.14 13.787-5.14 22.351 0 8.563 1.71 16.013 5.14 22.35 3.59 6.337 8.22 11.218 13.87 14.643 5.83 3.255 12 4.882 18.51 4.882 6.68 0 12.85-1.713 18.5-5.138 5.83-3.426 10.46-8.307 13.88-14.644 3.6-6.337 5.4-13.872 5.4-22.607z" fill="#FAF6F0"/><path d="M1033.63 68.592c4.62-6.85 10.96-12.416 19.01-16.698 8.23-4.282 17.57-6.423 28.02-6.423 12.16 0 23.13 2.998 32.9 8.992 9.93 5.994 17.73 14.557 23.38 25.69 5.83 10.961 8.74 23.72 8.74 38.278s-2.91 27.488-8.74 38.792c-5.65 11.132-13.45 19.781-23.38 25.947-9.77 6.166-20.74 9.248-32.9 9.248-10.62 0-19.96-2.055-28.02-6.165-7.88-4.282-14.22-9.763-19.01-16.442v20.295h-35.987V0h35.987v68.592zm75.3 49.839c0-8.563-1.8-15.928-5.4-22.093-3.42-6.337-8.05-11.133-13.88-14.387-5.65-3.254-11.82-4.88-18.5-4.88-6.51 0-12.68 1.712-18.51 5.137-5.65 3.254-10.28 8.05-13.87 14.386-3.43 6.337-5.14 13.787-5.14 22.351 0 8.563 1.71 16.013 5.14 22.35 3.59 6.337 8.22 11.218 13.87 14.643 5.83 3.255 12 4.882 18.51 4.882 6.68 0 12.85-1.713 18.5-5.138 5.83-3.426 10.46-8.307 13.88-14.644 3.6-6.337 5.4-13.872 5.4-22.607z" fill="#F3EFE8"/><path d="M1223.97 192.418c-11.65 0-22.1-2.055-31.35-6.165-9.26-4.282-16.62-10.019-22.11-17.213-5.31-7.193-8.22-15.157-8.74-23.891h36.24c.69 5.48 3.34 10.019 7.97 13.615 4.8 3.597 10.71 5.395 17.73 5.395 6.86 0 12.17-1.37 15.94-4.11 3.94-2.74 5.91-6.251 5.91-10.533 0-4.624-2.4-8.05-7.2-10.276-4.62-2.398-12.08-4.967-22.36-7.707-10.62-2.569-19.36-5.224-26.21-7.964-6.68-2.74-12.51-6.936-17.48-12.588-4.8-5.652-7.19-13.273-7.19-22.864 0-7.879 2.22-15.072 6.68-21.58 4.62-6.508 11.13-11.646 19.53-15.414 8.57-3.768 18.59-5.652 30.07-5.652 16.96 0 30.5 4.282 40.61 12.845 10.11 8.392 15.68 19.782 16.7 34.168h-34.43c-.52-5.652-2.92-10.105-7.2-13.359-4.11-3.425-9.68-5.138-16.71-5.138-6.51 0-11.56 1.2-15.16 3.597-3.43 2.398-5.14 5.737-5.14 10.019 0 4.796 2.4 8.478 7.2 11.047 4.79 2.397 12.25 4.881 22.36 7.45 10.28 2.569 18.76 5.223 25.44 7.964 6.68 2.74 12.42 7.022 17.22 12.845 4.97 5.652 7.54 13.187 7.71 22.607 0 8.221-2.31 15.585-6.94 22.093-4.45 6.509-10.97 11.647-19.53 15.414-8.4 3.597-18.25 5.395-29.56 5.395z" fill="#FAF6F0"/><path d="M1223.97 192.418c-11.65 0-22.1-2.055-31.35-6.165-9.26-4.282-16.62-10.019-22.11-17.213-5.31-7.193-8.22-15.157-8.74-23.891h36.24c.69 5.48 3.34 10.019 7.97 13.615 4.8 3.597 10.71 5.395 17.73 5.395 6.86 0 12.17-1.37 15.94-4.11 3.94-2.74 5.91-6.251 5.91-10.533 0-4.624-2.4-8.05-7.2-10.276-4.62-2.398-12.08-4.967-22.36-7.707-10.62-2.569-19.36-5.224-26.21-7.964-6.68-2.74-12.51-6.936-17.48-12.588-4.8-5.652-7.19-13.273-7.19-22.864 0-7.879 2.22-15.072 6.68-21.58 4.62-6.508 11.13-11.646 19.53-15.414 8.57-3.768 18.59-5.652 30.07-5.652 16.96 0 30.5 4.282 40.61 12.845 10.11 8.392 15.68 19.782 16.7 34.168h-34.43c-.52-5.652-2.92-10.105-7.2-13.359-4.11-3.425-9.68-5.138-16.71-5.138-6.51 0-11.56 1.2-15.16 3.597-3.43 2.398-5.14 5.737-5.14 10.019 0 4.796 2.4 8.478 7.2 11.047 4.79 2.397 12.25 4.881 22.36 7.45 10.28 2.569 18.76 5.223 25.44 7.964 6.68 2.74 12.42 7.022 17.22 12.845 4.97 5.652 7.54 13.187 7.71 22.607 0 8.221-2.31 15.585-6.94 22.093-4.45 6.509-10.97 11.647-19.53 15.414-8.4 3.597-18.25 5.395-29.56 5.395z" fill="#F3EFE8"/></svg>