<svg width="205" height="196" fill="none" xmlns="http://www.w3.org/2000/svg"><path d="M104.726 53.164l-38.42 22.411v43.367l38.42 23.285 38.42-23.285V75.575l-38.42-22.411zM171.168 128.3l-5.212 10.572m-1.973-12.383l-4.108 7.879m-2.577-9.988l-3.005 5.185m-3.679-7.295l-1.603 2.992M44.37 139.669l-6.53-9.813m11.7 4.507l-4.753-7.507m9.932 2.783l-2.978-5.201m8.157.477l-1.784-2.888M163.534 56.03l6.181 10.037m-11.536-4.915l4.487 7.669m-9.829-3.13l2.794 5.302m-8.135-.763l1.681 2.948" stroke="#000" stroke-width="1.5"/><path d="M43.895 57.238l-4.948 8.15L66 77l1-2-23.105-17.762zM100.926 171.173l9.534-.05L106 142h-2l-3.074 29.173zM102.611 9.403c0 1.523-.265 2.86-.796 4.013-.523 1.152-1.273 2.039-2.251 2.66-.978.622-2.107.933-3.388.933-1.933 0-3.495-.69-4.684-2.07-1.19-1.387-1.785-3.255-1.785-5.605V7.63c0-1.508.265-2.842.795-4.002C91.04 2.46 91.8 1.565 92.776.944 93.754.314 94.88 0 96.153 0c1.273 0 2.395.307 3.365.92.978.615 1.732 1.483 2.263 2.605.53 1.121.807 2.421.83 3.9v1.978zm-1.399-1.797c0-1.993-.451-3.555-1.353-4.684-.902-1.13-2.137-1.694-3.706-1.694-1.539 0-2.767.568-3.684 1.705-.91 1.13-1.364 2.71-1.364 4.741v1.729c0 1.963.455 3.52 1.364 4.672.91 1.145 2.145 1.717 3.707 1.717 1.584 0 2.82-.565 3.706-1.694.887-1.137 1.33-2.717 1.33-4.741v-1.75zM118.403 16.781h-1.41V8.845h-9.459v7.936h-1.399V.227h1.399v7.436h9.459V.227h1.41v16.554zM102.611 187.529c0 1.524-.265 2.862-.796 4.014-.523 1.152-1.273 2.039-2.251 2.66-.978.622-2.107.933-3.388.933-1.933 0-3.495-.69-4.684-2.07-1.19-1.387-1.785-3.255-1.785-5.605v-1.705c0-1.509.265-2.843.795-4.002.538-1.167 1.297-2.062 2.274-2.683.978-.629 2.104-.944 3.377-.944 1.273 0 2.395.307 3.365.921.978.614 1.732 1.482 2.263 2.603.53 1.122.807 2.422.83 3.9v1.978zm-1.399-1.796c0-1.993-.451-3.555-1.353-4.684-.902-1.129-2.137-1.694-3.706-1.694-1.539 0-2.767.568-3.684 1.705-.91 1.13-1.364 2.71-1.364 4.741v1.728c0 1.964.455 3.521 1.364 4.673.91 1.145 2.145 1.717 3.707 1.717 1.584 0 2.82-.565 3.706-1.694.887-1.137 1.33-2.717 1.33-4.741v-1.751zM118.403 194.908h-1.41v-7.936h-9.459v7.936h-1.399v-16.554h1.399v7.436h9.459v-7.436h1.41v16.554zM188.614 143.289c0 1.523-.265 2.861-.796 4.013-.523 1.152-1.273 2.039-2.251 2.661-.978.621-2.107.932-3.388.932-1.933 0-3.494-.69-4.684-2.069-1.19-1.387-1.785-3.256-1.785-5.605v-1.706c0-1.508.265-2.842.796-4.002.538-1.167 1.296-2.062 2.274-2.683.977-.629 2.103-.944 3.376-.944 1.274 0 2.395.307 3.366.921.977.614 1.732 1.482 2.262 2.604.531 1.122.807 2.421.83 3.899v1.979zm-1.398-1.797c0-1.993-.451-3.554-1.353-4.684-.902-1.129-2.138-1.694-3.707-1.694-1.538 0-2.766.569-3.683 1.706-.91 1.129-1.365 2.709-1.365 4.741v1.728c0 1.963.455 3.52 1.365 4.673.909 1.144 2.145 1.716 3.706 1.716 1.584 0 2.82-.564 3.706-1.694.887-1.137 1.331-2.717 1.331-4.741v-1.751zM204.406 150.667h-1.41v-7.935h-9.459v7.935h-1.398v-16.553h1.398v7.435h9.459v-7.435h1.41v16.553zM14.014 150.667h-1.41v-7.935h-9.46v7.935H1.747v-16.553h1.399v7.435h9.46v-7.435h1.409v16.553zM30.465 143.289c0 1.523-.265 2.861-.795 4.013-.523 1.152-1.274 2.039-2.252 2.661-.977.621-2.107.932-3.388.932-1.932 0-3.494-.69-4.684-2.069-1.19-1.387-1.785-3.256-1.785-5.605v-1.706c0-1.508.265-2.842.796-4.002.538-1.167 1.296-2.062 2.274-2.683.978-.629 2.103-.944 3.377-.944 1.273 0 2.395.307 3.365.921.978.614 1.732 1.482 2.262 2.604.531 1.122.808 2.421.83 3.899v1.979zm-1.398-1.797c0-1.993-.45-3.554-1.353-4.684-.902-1.129-2.137-1.694-3.706-1.694-1.539 0-2.767.569-3.684 1.706-.91 1.129-1.364 2.709-1.364 4.741v1.728c0 1.963.454 3.52 1.364 4.673.91 1.144 2.145 1.716 3.706 1.716 1.584 0 2.82-.564 3.707-1.694.887-1.137 1.33-2.717 1.33-4.741v-1.751zM186.868 54.225c0 1.524-.266 2.862-.796 4.014-.523 1.152-1.273 2.039-2.251 2.66-.978.622-2.107.932-3.388.932-1.933 0-3.495-.69-4.685-2.069-1.19-1.387-1.785-3.255-1.785-5.605v-1.705c0-1.509.266-2.843.796-4.002.538-1.168 1.296-2.062 2.274-2.684.978-.629 2.104-.943 3.377-.943 1.273 0 2.395.307 3.365.92.978.615 1.732 1.482 2.263 2.604.53 1.122.807 2.422.83 3.9v1.978zm-1.399-1.796c0-1.994-.451-3.555-1.353-4.684-.902-1.13-2.137-1.694-3.706-1.694-1.539 0-2.767.568-3.684 1.705-.909 1.13-1.364 2.71-1.364 4.741v1.728c0 1.963.455 3.521 1.364 4.673.91 1.145 2.145 1.717 3.707 1.717 1.584 0 2.819-.565 3.706-1.694.887-1.137 1.33-2.718 1.33-4.741v-1.751zM202.66 61.604h-1.41v-7.936h-9.459v7.936h-1.399V45.05h1.399v7.436h9.459V45.05h1.41v16.554zM12.268 61.604h-1.41v-7.936h-9.46v7.936H0V45.05h1.398v7.436h9.46V45.05h1.41v16.554zM28.72 54.225c0 1.524-.266 2.862-.797 4.014-.523 1.152-1.273 2.039-2.25 2.66-.979.622-2.108.932-3.389.932-1.933 0-3.494-.69-4.684-2.069-1.19-1.387-1.785-3.255-1.785-5.605v-1.705c0-1.509.265-2.843.796-4.002.538-1.168 1.296-2.062 2.274-2.684.977-.629 2.103-.943 3.376-.943 1.274 0 2.396.307 3.366.92.977.615 1.732 1.482 2.262 2.604s.807 2.422.83 3.9v1.978zm-1.4-1.796c0-1.994-.45-3.555-1.352-4.684-.902-1.13-2.138-1.694-3.707-1.694-1.538 0-2.766.568-3.683 1.705-.91 1.13-1.365 2.71-1.365 4.741v1.728c0 1.963.455 3.521 1.365 4.673.91 1.145 2.145 1.717 3.706 1.717 1.584 0 2.82-.565 3.707-1.694.886-1.137 1.33-2.718 1.33-4.741v-1.751z" fill="#000"/><path d="M98 26.5h13m-12 10h11m-10 10h9" stroke="#000" stroke-width="1.5"/></svg>