<svg width="228" height="127" fill="none" xmlns="http://www.w3.org/2000/svg"><path d="M4.538 109.307h9.013v7.485h1.957v-15.056h-1.957v6.582H4.538v-6.582H2.581v15.056h1.957v-7.485zm28.26-7.571v11.507h-.086l-11.938-11.765h-.107v15.314h.99v-11.507h.085l11.938 11.766h.108v-15.315h-.99zM54.505 39.358v11.508h-.086L42.48 39.1h-.107v15.315h.989V42.907h.086l11.938 11.766h.107V39.358h-.99zM118.538 109.307h9.013v7.485h1.957v-15.056h-1.957v6.582h-9.013v-6.582h-1.957v15.056h1.957v-7.485zm37.931-7.571v11.507h-.086l-11.938-11.765h-.107v15.314h.989v-11.507h.086l11.938 11.766h.107v-15.315h-.989zM136.171 116.191c.226 0 .484-.021.774-.064.302-.054.581-.156.839-.307.269-.161.49-.387.662-.677.182-.291.274-.672.274-1.146 0-.29-.043-.564-.129-.822a1.864 1.864 0 00-.371-.71 1.611 1.611 0 00-.629-.5 2.037 2.037 0 00-.92-.194 2.51 2.51 0 00-.645.081 1.282 1.282 0 00-.549.306c-.161.14-.295.339-.403.597a3.614 3.614 0 00-.226.984h-1.436c.011-.29.07-.591.178-.903.118-.323.306-.613.565-.871.258-.269.596-.484 1.016-.646.419-.172.946-.258 1.581-.258.581 0 1.081.086 1.5.258.43.162.78.382 1.049.662.279.269.484.586.613.952.129.365.193.747.193 1.145 0 .559-.15 1.016-.451 1.371-.302.344-.759.646-1.372.904l-.177.064v.113l.177.032c.355.054.673.172.952.355.28.172.516.387.71.646.204.247.36.527.468.838.107.302.161.603.161.904 0 .43-.086.849-.258 1.258a3.102 3.102 0 01-.742 1.097 3.8 3.8 0 01-1.258.758c-.495.194-1.076.291-1.743.291a3.938 3.938 0 01-1.339-.194 3.773 3.773 0 01-1.113-.581 3.303 3.303 0 01-.758-.887 2.148 2.148 0 01-.274-1.049h1.613c.011.259.065.511.161.759.108.247.248.462.42.645.183.183.398.333.645.452.247.107.527.161.839.161.645 0 1.167-.215 1.565-.645.408-.43.613-1.097.613-2.001 0-.193-.022-.43-.065-.709a1.88 1.88 0 00-.339-.807c-.172-.269-.446-.495-.822-.678-.377-.182-.893-.274-1.549-.274v-.71zM174.226 12.472c0 .803.151 1.663.452 2.58a7.863 7.863 0 001.463 2.517c.659.775 1.498 1.42 2.516 1.936 1.018.502 2.237.753 3.657.753.961 0 1.828-.115 2.603-.344a8.365 8.365 0 002.107-.968 7.702 7.702 0 001.635-1.377 8.018 8.018 0 001.119-1.656 8.038 8.038 0 00.666-1.764 6.467 6.467 0 00.237-1.677c0-.803-.165-1.656-.495-2.56a7.735 7.735 0 00-1.527-2.538c-.688-.774-1.563-1.412-2.624-1.914-1.047-.517-2.287-.775-3.721-.775-1.42 0-2.639.251-3.657.753-1.018.502-1.857 1.14-2.516 1.914a7.569 7.569 0 00-1.463 2.517c-.301.918-.452 1.785-.452 2.603zm2.108 0c0-1.004.151-1.922.452-2.754.315-.846.738-1.57 1.269-2.172a5.741 5.741 0 011.914-1.398 5.542 5.542 0 012.388-.516c.846 0 1.642.172 2.387.516.76.33 1.42.796 1.979 1.398a6.546 6.546 0 011.355 2.172c.33.832.495 1.75.495 2.754s-.165 1.928-.495 2.774a6.596 6.596 0 01-1.355 2.151 6.111 6.111 0 01-1.979 1.42 5.832 5.832 0 01-2.387.495c-.86 0-1.656-.165-2.388-.495a6.012 6.012 0 01-1.914-1.42 6.923 6.923 0 01-1.269-2.15c-.301-.847-.452-1.771-.452-2.775zM209.717 74.85c0 .802.151 1.663.452 2.58a7.86 7.86 0 001.462 2.517c.66.774 1.499 1.42 2.517 1.936 1.018.502 2.237.753 3.657.753.96 0 1.828-.115 2.602-.345a8.356 8.356 0 002.108-.968 7.705 7.705 0 001.635-1.376 7.976 7.976 0 001.118-1.656 7.993 7.993 0 00.667-1.764 6.468 6.468 0 00.237-1.678c0-.803-.165-1.656-.495-2.56a7.752 7.752 0 00-1.527-2.538c-.688-.774-1.563-1.412-2.624-1.914-1.047-.516-2.287-.774-3.721-.774-1.42 0-2.639.25-3.657.753-1.018.501-1.857 1.14-2.517 1.914a7.566 7.566 0 00-1.462 2.516c-.301.918-.452 1.786-.452 2.603zm2.108 0c0-1.005.151-1.922.452-2.754.315-.846.738-1.57 1.269-2.172a5.74 5.74 0 011.914-1.399 5.534 5.534 0 012.388-.516c.846 0 1.642.172 2.387.516.76.33 1.42.796 1.979 1.398a6.562 6.562 0 011.355 2.173c.33.832.495 1.75.495 2.753 0 1.004-.165 1.929-.495 2.775a6.612 6.612 0 01-1.355 2.15 6.109 6.109 0 01-1.979 1.42 5.832 5.832 0 01-2.387.495 5.739 5.739 0 01-2.388-.495 6.009 6.009 0 01-1.914-1.42 6.922 6.922 0 01-1.269-2.15c-.301-.846-.452-1.771-.452-2.775z" fill="#202124"/><path d="M188.208 25.274v24.198l20.433 12.905" stroke="#202124" stroke-width="1.613" stroke-dasharray="5.38 5.38"/><path d="M22.047 95.717L14.52 71.519l21.51-15.057m23.66 0L79.585 71.52m0 0l-11.83 38.717H40.868m38.717-38.717l35.491-20.434 35.49 20.434m0 0l31.189-17.745m-31.189 17.745l-4.302 24.198h8.066l-3.764-24.198zm31.189-17.745V24.736m0 29.038l25.273 14.518M71.519 74.207l-8.604 27.963m-23.66-39.793l-17.208 11.83M172.075 95.913v8.212m-4.106-4.106h8.213m2.346 0a6.453 6.453 0 11-12.906 0 6.453 6.453 0 0112.906 0zM200.233 40.868h8.213m2.346 0a6.453 6.453 0 11-12.905 0 6.453 6.453 0 0112.905 0z" stroke="#202124" stroke-width="1.613"/></svg>