<svg width="193" height="155" fill="none" xmlns="http://www.w3.org/2000/svg"><g clip-path="url(#clip0)"><path d="M28.38 62.29c1.188 2.744 1.351 7.185 2.613 9.9 0 .506-.523.019-.814-.3.432.6.722 1.873.824 2.534.423 2.75-1.091 5.154-2.623 7.33a40.56 40.56 0 00-2.343 3.747c-.365.657-.097 1.962-.097 2.72 0 .498.9 1.191 1.263 1.458.86.633 1.578 1.48 2.332 2.235 1.773 1.773 2.235 4.065 2.526 6.51.549 4.608-.557 8.993-3.012 12.869-.912 1.44-1.865 2.169-3.26 3.066-1.222.785-2.983 2.217-4.47 2.332-1.633.125-3.099.307-4.782.205-2.387-.145-4.303-.857-6.608-1.566-.867-.267-2.16-1.287-2.623-2.04-.449-.73-.81-1.522-1.295-2.235-.436-.638-.961-1.704-1.739-1.943-1.91-.588-1.76-.969-.874-2.375.611-.971-.349-3.019-.929-3.844-1.181-1.682-.27-2.99.249-4.653.418-1.337-.037-2.89.4-4.2.568-1.705 1.317-3.394 2.374-4.858.673-.93.788-1.326.389-2.224-.406-.912-.982-1.723-1.425-2.634-.608-1.25-.975-2.617-1.598-3.886-.955-1.947-2.57-4.58-2.57-6.78 0-2.325-.34-4.35.875-6.51.847-1.505 1.676-2.962 2.71-4.372 1.84-2.51 3.997-6.365 7.406-6.91 2.357-.377 4.803-.194 7.19-.194 1.583 0 2.88.448 4.275 1.166 1.468.754 2.745 1.893 3.293 3.41.433 1.2 1.835.87 2.343 2.043zM111.654 50.627c-.356 3.733.245 3.06-2.767 5.248-.339.679-.16 1.487-.523 2.233-.503 1.035-1.225 1.788-2.256 2.303-1.385.693-2.574 1.56-3.966 2.21-4.21 1.964-9.115.522-13.513.522-1.463 0-2.732-.211-4.157-.594-.507-.137-2.15-.854-2.624-.475-.193.154-.355.818-.487 1.069-.572 1.087-1.42 2.4-1.745 3.538-.609 2.13-2.097 4-3.693 5.486-2.18 2.03-4.971 2.97-7.695 4.014-1.026.393-.532.917.154 1.603 1.097 1.097 1.897 2.552 2.898 3.753 1.207 1.448 2.339 2.848 3.3 4.476 1.307 2.21 2.031 4.815 2.031 7.363 0 1.525.234.83 1.497.76.957-.053 5.02.65 5.118.308.449-1.572-.203-3.453.273-5.058 1.083-3.655 1.3-7.88 3.277-11.27.487-.835 1.396-1.648 2.138-2.255.925-.758 1.903-1.697 2.968-2.245 2.892-1.487 5.898-2.11 9.12-2.34 1.439-.102 2.915-.011 4.358-.011.7 0 2.574-.107 3.088.32.347.29.896.177 1.294.535.381.343.851.684 1.282.962.968.622 1.78 1.344 2.447 2.292.836 1.189 1.421 2.39 2.042 3.705.443.937 1.069 2.349 1.069 3.396 0 2.47.214 5.016.214 7.528 0 2.13.182 4.903-.535 6.911-.776 2.174-1.517 4.878-3.099 6.626-1.769 1.956-3.643 3.707-5.878 5.119-1.8 1.137-3.783 1.102-5.712 1.674-1.213.359-2.695.041-3.942.309-1.176.252-.97 1.776-1.188 2.731-.455 1.991-.453 4.091-.82 6.103-.662 3.643-1.817 6.851-4.796 9.168-1.043.81-1.915 1.652-3.183 2.042-.951.293-1.97.244-2.897.535-.875.273-2.313.32-3.218.32-1.19 0-2.33.214-3.515.214-.962 0-1.939.052-2.898-.012-.604-.04-1.795.014-2.351-.249-.626-.297-.427-1.209-.427-1.77 0-2.393-2.683-2.458-4.394-2.458-1.273 0-2.019.209-2.019-1.235v-2.446c0-1.97-.273-3.728-1.164-5.51-.165-.331 0-.707-.332-.902-.447-.263-.811-.764-1.176-1.128-.627-.628-.764-1.559-1.068-2.352-.228-.59.155-1.717-.535-.855-.496.62-1.499.535-2.185.535-1.834 0-3.584-.797-5.462-.855-1.374-.043-2.304-.764-3.42-1.449-2.038-1.25-4.792-2.556-6.127-4.655-.682-1.072-1.164-2.375-1.734-3.515-.549-1.097-1.358-2.09-1.9-3.206-.697-1.435-.974-2.638-.974-4.227 0-1.005-.405-1.92-.107-2.933.238-.808-.036-1.67.214-2.47.228-.73 1.135-2.748.974-3.313-.24-.837 1.23-3.778 1.698-4.537.877-1.425 1.806-2.846 2.707-4.239 1.402-2.166 3.168-3.604 4.916-5.462.578-.614-.51-.686-.95-1.08-1.022-.92-1.288-2.917-1.71-4.18-.619-1.858-1.179-3.548-1.531-5.487-.37-2.033-1.17-4.531-.226-6.531.41-.868.855-2.065.855-3.04 0-.49-.651-2.056-.309-2.399.657-.656 2.034-.367 2.447-1.294.319-.718.715-1.375 1.056-2.114.282-.61 1.014-1.434 1.413-1.947.458-.588.506-1.437.998-1.983 1.092-1.214 2.754-1.258 3.847-2.351.416-.416.73-1.231 1.235-1.497.848-.446 1.647-.895 2.565-1.223 2.827-1.01 5.34-1.175 8.324-1.175 1.86 0 4.416.342 5.997 1.33.658.411.65 1.758.475 2.35-.152.515-.493 1.889.048.808 1.1-2.2 2.795-3.448 4.868-4.75 1.039-.651 1.856-1.498 2.945-2.042.79-.395 1.207-1.18 1.876-1.662.766-.552 1.643-1.903 2.613-2.02 1.302-.155 2.456-.427 3.764-.427 4.814 0 9.808.239 14.096 2.577 1.134.62 1.616 1.749 2.541 2.541.743.638 1.43 1.562 2.137 2.268 1.577 1.577 2.043 4.738 2.043 6.84 0 2.17.193 4.446-.012 6.603z" fill="#ABB0DB"/><path d="M68.923 36.436c1.742.051 2.764.701 3.992 1.929 1.052 0 .639 2.1.482 2.651-.523 1.828-.242 4.01-.242 5.907 0 3.435 1.173 6.596 3.617 9.04 1.412 1.412 2.57 3.052 3.977 4.46 1.108 1.108 1.808 1.547 1.808 3.133 0 1.964-.658 3.85-2.062 5.184-1.156 1.098-4.18.44-5.572.187-1.577-.287-3.532-.38-4.406-1.982-.816-1.496-2.298-2.866-3.294-4.272-2.287-3.228-6.026-6.493-6.12-10.755-.047-2.078 0-4.162 0-6.24 0-1.869.535-3.643 1.084-5.398.403-1.291 1.305-3.827 2.893-4.072 1.32-.203 2.59.191 3.843.228zM69.03 106.373c3.409-3.408 4.469-8.305 7.26-12.08.926-.618 1.208-1.206 2.41-1.206 1.407 0 2.973 1.604 3.603 2.76.907 1.663 1.42 3.76 2.531 5.276 1.134 1.547 2.526 2.698 4.098 3.777 3.038 2.085 6.643 4.329 6.643 8.303 0 3.203-2.155 6.436-5.786 5.866-3.078-.482-6.315-.21-9.375.295-3.035.501-5.989 1.688-9.08 1.688-2.428 0-4.77-.895-6.87-2.076-1.423-.8-1.17-1.49-1.728-2.746-.85-1.911.969-4.491 2.41-5.544 1.541-1.126 2.542-2.97 3.885-4.313zM16.21 88.748c2.465 0 4.756-.458 7.178-.943 1.331 0 3.052.996 3.964 1.907 2.212 2.213 4.6 4.174 4.232 7.608-.229 2.137-.32 3.693-2.678 3.468-1.123-.107-2.255-.483-3.348-.763-1.148-.294-2.336-.45-3.47-.79-.607-.183-1.003-.63-1.593-.844-1.09-.397-2.476-.349-3.616-.12-3.848.77-8.89.291-12.321-1.58-1.97-1.075-2.472-3.665-1.179-5.545 1.668-2.426 4.702-3.157 7.46-2.867 1.777.188 3.575.47 5.37.47z" fill="#616693"/><path d="M147.875 6.92c1.693-1.693 1.654-3.97 3.028-5.829 1.563 0 2.429.522 2.79 2.147.191.857.324 3.376-.083 4.107-.722 1.3 2.068 3.275 2.852 3.827 1.621 1.14 3.379 2.403 4.668 3.92 1.475 1.738 2.281 3.986 2.281 6.276 0 1.078.052 2.169 0 3.246-.04.846-.373 1.687-.373 2.541 0 5.016-.701 10.832-3.817 14.987-2.147 2.863-4.118 6.048-6.7 8.588-1.049 1.032-2.298 1.773-3.391 2.738-.734.647-1.534 1.15-2.23 1.846-.49.49-1 1.19-1.598 1.556-3.792 2.317 6.161-2.838 11.403-6.146-.004-.338-.014-.675-.014-1.01 0-.686.133-1.281.186-.27l.059 1.134c.627-.4 1.179-.77 1.621-1.093 2.004-1.462 4.22-2.757 6.327-4.045 2.113-1.291 4.29-2.226 6.275-3.744 1.018-.778 1.825-1.813 2.935-2.479 1.197-.718 2.416-1.314 3.682-1.898 1.148-.53 2.414-.998 3.454-1.732.811-.573 1.174-.531 2.053-.238 1.53.51 2.727 1.31 3.921 2.188.7.515 1.064.39.581.529-1.016.29-2.248.372-3.34.653-3.76.969-7.3 2.334-10.89 3.817-2.549 1.053-4.582 3.039-6.825 4.564-.687.467-1.36.992-1.97 1.555-.538.496-1.292.626-1.815 1.266-.682.832-1.764 1.433-2.79 1.763-.87.28-1.876.47-2.79.55-.072.006-.467.072-.467-.094 0-.044.076-.143.118-.17a73.534 73.534 0 01-.08-1.392l-.231.146c.005.321.004.642-.014.96-.024.398-1.437.946-1.764 1.213-.688.564-1.649 1.155-2.51 1.4-.62.178-.981.783-1.514 1.08-1.405.78-2.629 1.935-3.962 2.841-1.083.737-1.315.991-1.265 2.385.058 1.638 5.175.937 6.119.644 1.111-.345 2.493-.725 3.672-.789 1.085-.058 2.088-.56 3.194-.56 2.152 0 3.917.82 5.788 1.867 2.453 1.374 5.116 2.07 7.643 3.267 4.251 2.014 7.482 5.402 11.274 8.11 2.295 1.64 3.461 4.687 4.647 7.105 1.199 2.446 3.242 4.423 4.439 6.929.318.666-.012.539-.57.539-.594 0-1.293.166-1.899.228-1.649.17-3.296.392-4.947.53-3.149.261-6.348 1.734-9.303 2.79-1.406.501-2.907.587-4.335 1.14-1.483.574-3.186 1.395-4.813 1.473-1.205.057-2.544-.11-3.754-.197-.925-.066-1.756-.485-2.635-.55-2.045-.151-3.859-1.864-5.684-2.655-2.567-1.113-5.13-2.108-7.529-3.547-1.737-1.042-3.014-2.441-4.097-4.066-.482-.723-.929-1.646-1.359-2.427-.393-.715-.99-1.38-1.265-2.136-.652-1.793-.279-3.747.653-5.425.643-1.157 1.834-1.918 2.427-2.987.798-1.435 1.214-2.936 1.214-4.574 0-1.398.962-3.816-.789-4.335-2.053-.608-4.475.699-6.347 1.431-2.397.938-5.166 2.032-7.136 3.692-.817.69-1.479 1.826-2.81 1.826-2.139 0-4.341.523-6.503.56-1.979.033-3.945.28-5.902.56-.466.067-1.791.437-1.4.176 1.43-.953 2.82-2.216 4.563-2.603 1.352-.3 2.677-.776 4.045-.975 1.497-.217 2.925-.474 4.357-.985 1.223-.437 2.264-1.353 3.464-1.867 1.144-.49 2.314-1.038 3.215-1.919.121-.118 1.333-1.26 1.058-1.338-.38-.108-.71-.075-1.089-.28-.826-.445-1.8-.822-2.5-1.452-.924-.832-1.47-2.454-1.535-3.692a10.475 10.475 0 00-.363-2.157c-.212-.744-.713-1.535-.757-2.324l-.014-.254c-.18-3.236-.359-6.462-.359-9.723 0-2.368-.162-4.795.197-7.125.647-4.209 4.257-7.2 6.441-10.631 2.446-3.846 5.196-7.237 8.484-10.351 1.631-1.546 3.396-3.023 4.999-4.626z" fill="#9CC69B"/><path d="M125.979 70.344c-1.47 2-2.691 4.24-3.991 6.351-.714 1.16-1.051 2.392-1.548 3.647-.359.905-.756 1.695-.803 2.688-.067 1.397-.706 2.754-.877 4.122-.091.73-.491 1.412-.59 2.155-.145 1.083-.156 2.131-.156 3.228 0 .645.112 1.213.312 1.724l1.163 1.161c-.14 0-.358-.057-.584-.112.6.833 1.455 1.526 2.403 2.226 1.723 1.272 3.279 2.47 5.433 2.901 3.381.676 6.627 1.982 10.023 2.622 1.946.368 3.952.473 5.769 1.18 1.821.71 3.455 1.53 5.121 2.467.59.332 1.336.828 1.705 1.401.457.711 1.393 1.173 1.991 1.77.709.709 1.589 1.322 2.393 1.918 1.452 1.076 2.606 3.194 2.925 4.95.329 1.808 2.921 2.452 3.663 4.122.343.77.224 1.755.345 2.581.192 1.323.496 2.681.557 4.015.064 1.409.281 2.851.41 4.261.204 2.25.079 4.518.36 6.769.147 1.175.429 2.265.713 3.401.369 1.475 1.353 2.756 1.983 4.114.555 1.195.878 2.662 1.483 3.786.297.551.656 1.575.656 2.204 0 .349.098 1.213.328 1.508.107.138-.844-.111-.918-.115-1.05-.055-2.053.148-3.089.148-.601 0-1.268-.08-1.852.073-1.742.459-3.456.369-5.27.369-1.693 0-3.407-.085-5.08-.328-1.02-.148-2.342-.013-3.295-.442-.99-.446-1.791-1.253-2.802-1.664-1.1-.446-2.18-.942-3.311-1.319-1.404-.468-2.746-1.063-4.13-1.59-1.38-.524-2.915-1.268-4.359-1.557a22.242 22.242 0 01-3.098-.844c-.748-.267-1.173-.727-1.836-1.106-.447-.256-1.173-1.176-1.475-1.614-.862-1.255-1.678-2.546-2.515-3.827-.71-1.085-1.695-1.931-2.287-3.114-.492-.984-.405-2.36-.623-3.426-.186-.911-.114-1.848-.114-2.778 0-1.419-.148-2.848-.148-4.277 0-1.893-.295-3.736-.295-5.63 0-1.932.549-3.804.59-5.753.051-2.387.338-4.758-.074-7.145-.344-1.997-.009-4.204-.967-6.04-.734-1.408-1.725-3.211-1.909-4.777-.034-.288-.448-1.21-.262-1.443.128-.16.503-.082.858.003a4.748 4.748 0 01-.579-1.05l-.312-.311V83.03l7.965-14.102v1.416z" fill="#9CC69B"/><path d="M152.025 0c-.16-.012-.407.273-.531.483-1.135 1.931-2.307 3.8-3.948 5.373-1.209 1.163-2.357 2.401-3.689 3.429-.469.359-.79.903-1.21 1.337-.271.284-.604.495-.9.755-.839.742-1.58 1.535-2.11 2.562-.519 1.003-1.247 1.894-1.876 2.835-.716 1.077-1.345 2.228-2.122 3.243-.901 1.189-1.937 2.278-2.925 3.405-1.406 1.596-2.64 3.292-3.183 5.397-.049.198-.111.408-.222.57-.852 1.163-.889 2.586-1.296 3.886-.666 2.13-.592 4.333-.629 6.524-.025 1.176-.259 2.352-.37 3.516-.05.507-.074 1.027-.013 1.522.124 1.065.272 2.142.506 3.194.198.928.568 1.832.79 2.76.284 1.189.568 2.377.728 3.578.173 1.288.58 2.488 1.271 3.553a3.955 3.955 0 002.653 1.758 8.082 8.082 0 011.789.57c-.999.358-2.011.692-3.011 1.064-1.382.52-2.751 1.052-4.133 1.572-.432.16-.889.297-1.333.433-2.566.805-5.158 1.46-7.835 1.733-1.9.198-3.751.062-5.577-.557a24.502 24.502 0 01-6.491-3.293c-.222-.16-.432-.359-.703-.594.605-.582 1.16-1.126 1.727-1.671 1.333-1.275 2.234-2.835 2.777-4.568.802-2.562 1.567-5.15 1.69-7.86.099-2.142.074-4.259-.308-6.376-.21-1.188-.494-2.377-1.185-3.317-.814-1.114-1.777-2.204-2.887-2.996-2.32-1.659-4.862-2.971-7.576-3.85-1.284-.42-2.629-.78-3.961-.83-1.777-.074-3.566-.11-5.368.174-2.245.359-4.158 1.238-5.947 2.575-.494.371-1.074.631-1.616.94-1.148.644-2.27 1.288-3.172 2.303-.345.384-.839.631-1.221.99-.778.706-1.53 1.436-2.32 2.191-.666-.977-1.468-1.782-2.566-2.178-2.394-.867-4.813-1.647-7.404-.88-1.431.422-2.912.756-4.294 1.313-1.888.755-3.615 1.82-5.194 3.132-.185.16-.543.111-.827.136-.148.013-.333-.111-.457-.05-.814.372-1.69.533-2.32 1.337-.419.533-.555 1.028-.727 1.622-.26.904-.778 1.733-1.11 2.625-.272.718-.852.965-1.482 1.237-.37.161-.666.52-1.036.706-.642.322-1.333.545-1.987.866-.234.124-.444.372-.58.607-.16.273-.222.607-.357.904-.26.582 0 1.04.629 1.114.37.05.752.111 1.16.173-.025.112-.025.21-.062.273-1.098 1.547-1.493 3.367-1.777 5.162-.395 2.475-.79 4.988-.296 7.514.32 1.659.568 3.354 1.518 4.79.469.706 1.06 1.337 1.678 1.931.543.52 1.184.929 1.838 1.424-.11.062-.259.173-.42.26-.58.334-1.147.68-1.739.99-.259.136-.555.198-.839.322a6.718 6.718 0 01-2.69.52c-1.172-.012-2.369.037-3.517-.186-1.48-.297-2.9-.879-4.367-1.25-1.012-.26-2.061-.396-3.098-.544-.493-.075-1.011-.05-1.517-.038-.568.013-1.012-.26-1.247-.73a12.128 12.128 0 01-.752-1.919c-.296-1.015-.47-2.055-.765-3.07-.383-1.287-.753-2.587-1.284-3.813-.345-.804-.962-1.497-1.48-2.215-.975-1.35-2.098-2.55-3.541-3.38-.593-.334-1.247-.544-1.888-.792-.864-.322-1.728-.644-2.591-.928-.395-.137-.914-.05-1.222-.273-1.32-.99-2.665-.644-4.01-.173-1.05.371-2.122.73-3.085 1.275-1.246.693-2.43 1.535-3.59 2.364-1.086.768-2.135 1.61-3.184 2.439-1.074.842-1.604 2.092-2.283 3.218C.477 65.82.366 67.763.107 69.695c-.21 1.51-.074 2.984.087 4.444.172 1.572.493 3.132.851 4.667.16.681.506 1.337.888 1.931a48.861 48.861 0 002.283 3.219c.9 1.163 1.876 2.278 2.826 3.429-1.518.99-2.357 2.587-3.122 4.184-.481 1.015-.654 2.179-.913 3.28-.136.57-.16 1.164-.235 1.746-.037.334-.148.557-.542.619-.852.124-1.074.879-1.407 1.523-.037.061-.05.21 0 .235.69.544.136 1.139.074 1.708-.136 1.114-.062 1.287.9 1.807.383.211.704 1.35.507 1.771-.16.346-.297.705-.47 1.052-.727 1.411-.098 2.537.766 3.614.308.384.617.372.987.062.247-.198.518-.383.814-.458.481-.136.74.124.876.594.47 1.635 1.086 3.219 2.283 4.457.679.706 1.518 1.3 2.381 1.795 1.086.619 2.16 1.349 3.468 1.411 1.258.062 2.517.025 3.775.037 1.197.013 2.295-.309 3.406-.743 1.777-.68 3.467-1.547 4.886-2.81a74.632 74.632 0 004.146-4.023c.444-.47.691-1.151.938-1.77.481-1.139 1.16-2.29 1.27-3.478.149-1.573 1.074-2.971.815-4.593-.21-1.362-.382-2.736-.555-4.11-.062-.52-.136-1.052-.136-1.572 0-1.139.037-2.278.074-3.429.013-.409.26-.644.654-.78 1.962-.706 3.912-1.448 5.886-2.117.543-.185 1.135-.198 1.838-.31-.172.57-.271 1.028-.444 1.45-.05.123-.32.185-.506.234-.185.062-.432.038-.567.149-.272.21-.519.458-.111.842.172.16.32.544.246.742-.234.669-.123 1.275.124 1.894.333.842.135 1.709.123 2.563-.012.904-.197 1.807-.284 2.699-.024.235 0 .52.124.705.481.792 1.024 1.56 1.53 2.34.148.235.271.495.382.755.605 1.324 1.432 2.525 2.036 3.862.42.916 1.345 1.696 2.209 2.278 1.913 1.3 3.887 2.525 5.935 3.602 2.098 1.114 4.368 1.832 6.786 1.832 1.345 0 2.703-.062 4.11-.086.012.619.024 1.324.024 2.017-.012 1.61.74 2.971 1.468 4.321.395.73.926 1.398 1.284 2.141.308.644.555 1.35.641 2.055.062.483-.086 1.052-.308 1.498a1.278 1.278 0 00.11 1.386c.26.335.815.471 1.26.644.061.025.308-.235.357-.408.099-.335.111-.694.173-1.04h.197c.05.297.111.594.148.903.111.756.334.917 1.05 1.127.444.124.814.458 1.233.693.247.136.506.31.777.384.42.111.864.136 1.37.21-.173.372-.296.644-.432.916-.283.57-.21.892.284 1.238.852.607.987.582 1.543-.297.394-.619.838-.742 1.789-.284 1.468.718 3.023 1.076 4.614 1.262 1.21.149 2.456-.025 3.69.013 2.097.061 3.874-.941 5.725-1.659.543-.211 1-.681 1.48-1.065 1.173-.928 2.358-1.832 3.493-2.81.345-.297.543-.755.802-1.139.69-1.064 1.48-2.092 2.048-3.218.765-1.498 1.629-2.984 1.802-4.704.185-1.709.32-3.417.308-5.125 0-.681-.469-1.374-.753-2.129.543.012 1.061.012 1.567.024 2.332.025 4.64-.123 6.836-1.027 1.777-.73 3.603-1.411 5.096-2.649.987-.817 2.098-1.51 2.801-2.674.457-.755 1.16-1.349 1.641-2.092.346-.532.506-1.176.728-1.783.173-.458.309-.928.518-1.535.383.57.704 1.028 1.012 1.51 1.049 1.647 1.654 3.467 1.962 5.361.333 1.993.592 4.035.568 6.041-.025 1.77-.457 3.552-.765 5.31-.445 2.513-1.456 4.977-.901 7.589.284 1.312.765 2.574 1.172 3.849.136.446.272.892.432 1.325a189.21 189.21 0 001.37 3.714c.518 1.374 1.048 2.735 1.579 4.11.691 1.794 1.32 3.627 2.122 5.372.408.904 1.098 1.684 1.715 2.488.469.607.914 1.275 1.518 1.721 1.715 1.25 3.69 1.968 5.787 2.203 1.999.211 3.973.496 5.923.978 2.196.545 4.207 1.461 6.206 2.513 1.247.656 2.703.916 4.06 1.387 1.69.569 3.43.619 5.182.569.975-.025 1.95-.21 2.937-.26.395-.025.802.186 1.209.198.432.025.876-.037 1.32-.086.951-.124 1.901-.384 2.851-.384.752 0 1.517.285 2.258.495.567.161.95-.124 1.283-.458.111-.111.074-.458 0-.656-.592-1.498-1.481-2.835-2.418-4.135-.58-.804-.852-1.745-1.037-2.711-.173-.928-.222-1.894-.432-2.81-.234-1.027-.592-2.03-1.012-3.008-.74-1.708-1.283-3.454-1.468-5.31-.123-1.226-.444-2.439-.629-3.665-.185-1.176-.321-2.364-.506-3.54-.37-2.488-.802-4.964-1.629-7.353-.617-1.795-1.592-3.404-2.455-5.088-.802-1.572-1.851-2.959-2.949-4.296-1.407-1.695-3.11-3.045-4.961-4.283-2.196-1.473-4.738-2.253-6.934-3.664-1.345-.866-2.813-1.201-4.356-1.436-1.197-.185-2.369-.557-3.553-.842-2.443-.569-4.874-1.15-7.404-1.25-1.061-.037-2.196-.445-3.146-.965-1.296-.718-2.517-1.647-3.64-2.612-1.061-.916-1.296-2.241-1.246-3.627.074-2.093.086-4.185-.297-6.264-.123-.632.124-1.238.371-1.882.629-1.659 1.949-2.81 2.764-4.308 1.912-3.528 3.812-7.068 5.799-10.547.95-1.659 2.097-3.243 3.702-4.332 1.061-.718 2.307-1.201 3.479-1.746a28.17 28.17 0 016.071-2.005c.753-.161 1.493-.384 2.048.47.013-.086.025-.16.037-.247.358.037.741 0 1.074.111 1.234.446 1.69 1.213 1.308 2.463-.383 1.214-.913 2.39-1.469 3.529-.95 1.955-2.06 3.837-2.924 5.818-.58 1.312-.679 2.772-.321 4.209.136.569.161 1.2.395 1.72.42.941.975 1.82 1.431 2.736 1.098 2.24 3.097 3.565 4.985 5.001.407.31.815.607 1.234.891 1.098.718 2.184 1.473 3.319 2.13.765.445 1.592.841 2.431 1.101.666.21 1.333.483 2.048.57.802.111 1.58.346 2.357.557.765.21 1.506.495 2.271.693.999.26 2.011.619 3.035.669 1.592.074 3.22.21 4.763-.57 1.382-.693 2.85-1.2 4.269-1.807 1.53-.656 3.035-1.374 4.59-1.993.889-.347 1.814-.594 2.739-.817.42-.1.63-.273.605-.681.062.136.123.26.123.26 2.493-.235 4.936-.421 7.367-.73.74-.1 1.443.049 2.159.012.765-.025 1.53.012 2.295 0 .161 0 .444-.112.444-.198.013-.285.037-.644-.111-.867-1.073-1.61-2.233-3.156-3.282-4.778-.666-1.028-1.221-2.13-1.801-3.219-.543-.99-1.407-1.646-2.246-2.364-.95-.817-1.888-1.659-2.739-2.587-.605-.656-1.037-1.449-1.555-2.179-.925-1.3-2.098-2.352-3.369-3.305-.629-.47-1.209-1.052-1.9-1.387a8.126 8.126 0 01-2.591-1.93c-.506-.558-1.333-.818-2.024-1.164-.148-.075-.394.061-.629.099.074-.112.136-.21.259-.384-1.184-.47-2.332-.978-3.516-1.386-1.247-.434-2.505-.842-3.801-1.102-1.308-.26-2.653-.396-3.985-.458a25.445 25.445 0 00-3.887.05c-1.024.098-2.011.47-3.023.655-1.271.236-2.579.334-3.837.632-1.333.322-2.357-.124-3.32-.966-.37-.322-.826-.57-1.369-.928 1.049-.632 1.949-1.25 2.912-1.746 1.567-.817 3.171-1.572 4.775-2.327a59.878 59.878 0 012.579-1.127c1.925-.78 3.825-1.646 5.503-2.896 1.012-.768 1.962-1.622 2.961-2.414.827-.656 1.678-1.263 2.517-1.894.802-.607 1.555-1.312 2.431-1.82 1.444-.83 2.986-1.473 4.43-2.302 1.95-1.102 4.059-1.77 6.12-2.588a103.643 103.643 0 006.466-2.847c1.024-.483 2.048-.532 3.121-.359.297.05.593.087.926.136.185-.557-.123-.903-.469-1.114a49.07 49.07 0 00-2.85-1.572c-1.123-.582-2.357-.384-3.542-.458-.271-.012-.58.334-.839.557-.839.78-1.579 1.72-2.529 2.352-1.061.718-2.283 1.238-3.467 1.758-2.135.94-4.307 1.77-6.429 2.724-.827.37-1.579.928-2.332 1.435-2.406 1.622-4.775 3.293-7.206 4.878-2.702 1.77-5.466 3.466-8.205 5.174-.457.285-.951.495-1.481.681.53-.607 1.049-1.238 1.616-1.807 1.284-1.3 2.616-2.55 3.899-3.838 1.481-1.485 2.69-3.194 3.838-4.951.913-1.4 1.962-2.711 2.875-4.11.962-1.486 1.48-3.12 1.369-4.927-.037-.594 0-1.188.037-1.77.124-1.98.26-3.962.383-5.942.086-1.288.173-2.575.234-3.863.087-1.522-.271-2.92-1.024-4.27-.629-1.14-1.456-2.092-2.319-3.046-.778-.866-1.432-1.881-2.073-2.859-1.123-1.708-2.184-3.466-3.283-5.187-.357-.557-.814-1.064-1.159-1.634-.889-1.473-.975-3.169-1.271-4.803-.037-.173-.05-.384-.148-.52-.21-.087-.408-.371-.605-.384zM120.499 78.72c.21-.582.432-1.164.74-1.696.531-.904 1.135-1.77 1.678-2.674.753-1.25 1.481-2.526 2.221-3.788.099-.161.235-.31.346-.458-.395 1.423-4.282 8.059-4.985 8.616zm3.405 22.022c-1.197.359-1.16.421-2.085-1.003.666.322 1.333.644 2.085 1.003zm-.53 1.052c1.888-.631 3.825-.186 5.75-.235-1.925.136-3.825.483-5.75.235zm9.242.371c-2.826.223-5.639.743-8.477.718 0-.111 0-.222-.013-.346 2.814-.248 5.627-.681 8.49-.372zm4.133.57c-.765.26-1.517.384-2.282.483-2.789.346-5.59.668-8.379 1.052-.629.087-.9-.136-1.172-.743.815-.111 1.555-.26 2.32-.322 2.221-.21 4.442-.383 6.663-.582.395-.037.79-.259 1.172-.235.568.05 1.123.235 1.678.347zm-12.474 1.683c-.173.223-.284.372-.42.558-.123-.322-.247-.619-.37-.917.049-.049.111-.086.16-.136.21.174.42.335.63.495zm32.13 42.46c1.789.496 3.616.743 5.466.768-.839-.272-1.69-.458-2.529-.644-1.16-.26-2.32-.483-3.27-1.287-.271-.223-.654-.421-.987-.421-.728-.012-.925-.52-1.283-1.065 2.147.372 4.121 1.127 6.379 1.176-.173-.161-.21-.21-.259-.222-1.567-.421-3.134-.805-4.689-1.275-.716-.223-1.444-.52-2.024-.966-.505-.396-.814-1.052-1.283-1.696 1.95.569 3.702 1.089 5.466 1.609l.074-.223c-.222-.099-.431-.222-.666-.284-2.085-.52-4.059-1.312-5.799-2.587-.481-.347-.815-.916-1.209-1.375l.148-.185c2.788 1.027 5.577 2.055 8.378 3.095.024-.062.049-.112.074-.174-.148-.086-.296-.185-.457-.247-.888-.335-1.814-.595-2.69-.991a213.903 213.903 0 01-6.12-2.896 2.424 2.424 0 01-.9-.793c-1-1.522-1.962-3.082-2.925-4.642-.062-.111-.049-.272-.074-.483.876.322 1.629.657 2.419.867 1.332.347 2.677.631 4.034.916.765.161 1.555.26 2.333.347.16.012.333-.124.505-.186-1.789-.409-3.479-.792-5.17-1.176-1.641-.371-3.146-1.027-4.577-1.894-.284-.173-.642-.223-.938-.384-.185-.099-.321-.272-.481-.421.049-.074.086-.161.135-.235 2.888 1.102 5.886 1.56 8.946 1.684a11.234 11.234 0 00-1.9-.372c-.568-.074-1.172-.012-1.715-.173-1.407-.421-2.789-.916-4.183-1.399-.654-.223-1.32-.421-1.925-.743-.432-.235-1.32-2.228-1.394-2.822 3.923 1.498 7.86 2.909 12.092 3.194-.864-.334-1.752-.545-2.653-.743a48.36 48.36 0 01-9.23-3.058c-.814-.359-1.295-1.002-1.764-1.745 2.283.446 4.491.693 6.725.532-.259-.099-.543-.086-.802-.111-2.012-.149-3.973-.582-5.874-1.226-.469-.161-.987-.272-1.147-.99 1.382.211 2.677.458 3.998.582 1.308.124 2.591.557 3.936.359-.198-.136-.407-.173-.605-.198-.703-.087-1.431-.112-2.11-.26-1.727-.396-3.418-.904-5.145-1.25-.728-.149-1.111-.483-1.37-1.375 3.245.199 6.404.545 9.563.644-1.53-.21-3.06-.322-4.578-.557-1.814-.285-3.615-.668-5.417-1.027-.185-.037-.345-.198-.518-.31.21-.136.432-.396.642-.396 2.048.012 4.096.062 6.145.087.654.012 1.32-.037 1.974-.062a1.04 1.04 0 00-.605-.198c-.95-.013-1.912.037-2.85-.025-1.925-.149-3.838-.347-5.762-.545-.223-.024-.432-.235-.642-.359.025-.074.049-.161.074-.235 1.616-.21 3.245-.074 4.886-.111a1.4 1.4 0 00-.691-.26c-1.493-.112-2.986-.198-4.466-.322-.26-.025-.506-.223-.766-.347.025-.049.062-.111.087-.161.999-.086 1.999-.21 2.998-.247.987-.037 1.962.012 2.949.012.469 0 .938-.062 1.395-.074 1.53-.05 3.047-.087 4.577-.136-.691-.112-1.369-.124-2.06-.124-1.74.012-3.48.062-5.232.049-1.456-.012-2.924-.111-4.38-.148-.95-.025-1.259-.223-1.481-1.188 2.776-.124 5.528-.236 8.279-.359 0-.05 0-.099-.012-.149-.74 0-1.481.037-2.221.012-2.048-.062-4.096-.148-6.145-.21-.863-.025-1.135-.223-1.369-1.25l9.562-1.783a2.981 2.981 0 00-1.234-.074c-2.763.445-5.54.903-8.304 1.361-.53.087-.9-.061-1.135-.631 2.172-1.077 4.615-.953 6.836-1.733-.851.037-1.691.136-2.53.285-1.419.235-2.85.445-4.257.755-.888.198-.925.26-1.48-.644 2.813-.953 5.799-.854 8.625-1.572a4.75 4.75 0 00-1.111.025c-2.381.272-4.763.52-7.144.817-1.123.136-1.222.124-1.604-.805.247-.074.493-.185.74-.235 1.493-.26 2.999-.508 4.492-.743 1.382-.223 2.764-.433 4.146-.631.937-.136 1.887-.223 2.838-.359.197-.025.37-.198.542-.297-.987.111-1.974.223-2.949.346-2.011.26-4.01.545-6.021.78-1.209.149-2.431.174-3.628.359-.937.149-1.443-.074-1.777-1.114 1.679-.334 3.332-.73 4.998-.978 1.925-.284 3.862-.445 5.787-.656 1.369-.148 2.492.632 3.726 1.015.296.087.198.273-.111.273.518.111 1.074.148 1.542.359 1.864.841 3.677 1.795 5.553 2.612 1.826.804 3.307 2.092 4.775 3.379.58.508 1 1.226 1.592 1.956-1.542-.05-2.887-.087-4.22-.136-.012.062-.012.124-.025.198 1.481.223 2.949.433 4.43.668.222.037.494.198.617.384a85.53 85.53 0 011.789 2.872c.259.433.506.879.728 1.337.605 1.213.333 1.634-1.024 1.609-.123 0-.247-.012-.37 0l-1.826.037c0 .05-.013.112-.013.161.148.037.296.087.445.087.419.025.851-.05 1.246.062.715.198 1.394.52 2.073-.099.061-.05.209 0 .148 0 .259.643.493 1.188.74 1.795.099-.174.161-.26.136-.211.099.52.21 1.114.308 1.709.247 1.436.469 2.872.728 4.307.148.818.37 1.635.482 2.452.185 1.473.246 2.97.493 4.431a49.642 49.642 0 001.098 5.001c.284 1.015.938 1.931 1.21 2.947.382 1.423.555 2.896.839 4.481-1.432-.136-2.703-.26-3.961-.384-.013.074-.013.161-.025.235l1.259.26c.728.161 1.443.334 2.184.471.617.111 1.258.94 1.197 1.733-3.024-.322-5.874-.904-8.49-2.39zm-31.415-41.519c.124.037.259.372.247.557-.074 1.114-.123 2.241-.296 3.343-.272 1.683-.333 3.404-.839 5.05-.383 1.275-.605 2.6-.901 3.9-.025 0-.062 0-.086-.013-.013-.161-.062-.322-.037-.482.357-2.377.703-4.742 1.11-7.118.259-1.548.148-3.058-.062-4.593-.024-.186.013-.495.124-.557.21-.099.518-.149.74-.087zm34.537 44.156c-.296-.111-.531-.396-.79-.606l.111-.186c1.025.198 2.049.408 3.073.594.715.124 1.431.235 2.159.334.383.05.777.05 1.16.075.012-.062.037-.112.049-.174.432.533.864 1.065 1.284 1.597-.05.05-.099.112-.148.161-.099.013-.198.037-.297.025-2.295-.235-4.466-.978-6.601-1.82zm4.269 2.996c-.617-.396-1.271-.73-1.912-1.065-.21-.111-.518-.408-.617.112-.025-.161-.087-.322-.037-.471.025-.074.234-.161.345-.136.679.124 1.345.285 2.012.421.962.211 1.912.47 2.887.594.555.075.629.285.568.743-1.123.136-2.209.47-3.246-.198zm-35.178-10.299c-.074-.458-.247-.916-.222-1.362.123-1.956.296-3.899.444-5.843.037-.483.049-.966.074-1.436-.049-.012-.099-.012-.16-.025a588.98 588.98 0 00-.691 4.717c-.087-1.003-.173-2.006-.05-2.984.235-1.857.531-3.713.926-5.533.407-1.906.925-3.8 1.443-5.682.358-1.312.852-2.587 1.21-3.899.308-1.127.505-2.291.752-3.442.025-.111.099-.21.148-.322-.172 1.746-.333 3.466-.703 5.15-.37 1.659-.962 3.256-1.444 4.877-.16.533-.271 1.065-.382 1.61-.025.086.074.21.123.309.099-.049.247-.074.284-.148.148-.26.308-.533.383-.817.567-2.018 1.135-4.036 1.665-6.066.519-1.993.839-4.023.753-6.103 0-.161.099-.322.148-.483.16.087.309.173.481.26-.617.706-.567.867.222 1.139.222.074.42.21.63.322.012.074.012.136.024.21-.172.062-.37.075-.493.186-.124.099-.296.384-.247.433.716.842.777 1.894 1.049 2.897.641 2.364.864 4.803 1.086 7.229.16 1.733.234 3.479.357 5.224.062.867.173 1.733.223 2.6.037.582 0 1.163.012 1.745 0 .025.123.05.259.099-.074-6.647-.185-13.22-1.987-19.645 1.358 2.265 1.888 4.803 2.419 7.316.53 2.538.876 5.112 1.308 7.675.049-4.073-.716-8.034-1.802-12.095 1.024 1.201 1.543 2.501 2.049 3.776.666 1.708.851 3.54 1.184 5.335.358 1.932.629 3.875.95 5.819.025.136.062.26.099.383.049-.012.111-.012.16-.024-.308-3.813-.888-7.589-1.616-11.364a.708.708 0 01.222.26c.79 1.324 1.579 2.649 2.394 3.961.518.842 1.147 1.622 1.616 2.488.728 1.362 1.37 2.773 2.011 4.184.408.904.815 1.82 1.123 2.761.568 1.708 1.111 3.441 1.21 5.261.049.928.061 1.857.098 2.773.025.705.062 1.423.087 2.129.061.012.123.025.197.049.086-.297.247-.606.259-.903.037-.656.025-1.3 0-1.956-.086-2.216-.617-4.358-1.209-6.474-.222-.805-.481-1.61-.728-2.414.074-.037.148-.075.222-.124.259.384.568.743.753 1.164.271.606.444 1.262.678 1.894.099.272.358.519.395.792.062.458-.024.953.025 1.411.247 2.03.506 4.06.79 6.078.172 1.25.407 2.476.592 3.726.062.396.197.607.629.384-.604-2.142-.814-4.32-1.024-6.511-.21-2.179-.568-4.345-.864-6.524.247.52.506 1.077.63 1.646.345 1.622.666 3.256.962 4.89.308 1.733.592 3.478.876 5.224.086.557.099 1.139.198 1.696.037.198.197.371.308.544.074-.21.222-.42.197-.618a74.547 74.547 0 00-.468-3.355c-.334-1.981-.691-3.949-1.025-5.93-.086-.495-.123-.99-.185-1.485.062-.025.111-.037.173-.062.185.26.444.495.531.792.357 1.263.752 2.538.987 3.825.345 1.907.58 3.838.851 5.757.111.841.198.878.913.383-.58-.941-1.715-7.353-1.431-8.306.086.186.123.334.21.458.937 1.461 2.196 2.637 3.467 3.813a36.567 36.567 0 003.023 2.513c.592.445 1.296.742 1.937 1.114-.099.445.284.47.531.606.469.26.95.52 1.419.78-.025.074-.037.149-.062.235-.839.124-1.666.31-2.505.359-.777.038-1.579-.173-2.356-.111-2.283.186-4.566.396-6.812-.297-1.197-.371-2.406-.73-3.566-1.201-1.567-.644-2.949-1.721-4.639-2.104-.494-.112-.987-.26-1.481-.372-1.863-.383-3.714-.879-5.589-1.089-2.073-.235-4.023-.73-5.812-1.795-.679-.408-1.234-.941-1.382-1.77-.21-.842-.308-1.721-.444-2.587zm-1.382-.384c-.309-1.387-.802-2.724-.728-4.184.049-1.052-.074-2.117 0-3.169.296-3.714 1.32-7.304 2.135-10.919.53-2.314 1.048-4.642 1.419-6.994.222-1.436.123-2.909.222-4.37.037-.507-.062-.779-.482-1.151-.444-.396-.974-.978-.752-1.77.135.173.234.384.234.582-.012.334.124.557.444.52.593-.062.778.185.728.755-.037.359.025.693.543.433.074-.037.296.025.309.087.234.767 1.172 1.176.901 2.265-.457 1.82-.617 3.701-1.062 5.534-.394 1.634-1.061 3.206-1.48 4.84-.642 2.525-1.259 5.05-1.728 7.613-.333 1.795-.469 3.639-.567 5.459-.074 1.547.037 3.107.074 4.828-.124-.223-.185-.285-.21-.359zm-1.209-1.263c-.284-1.126-.605-2.24-.852-3.367-.641-3.058-.321-6.078.444-9.061.309-1.213.741-2.39 1.086-3.603.506-1.819 1.074-3.614 1.419-5.459.333-1.77.432-3.602.605-5.397.099-1.003.111-2.005.16-3.008.05-.013.099-.025.148-.05.185.26.482.495.519.78.123.953.197 1.931.197 2.885.012 2.475-.679 4.84-1.147 7.241-.395 2.018-.938 4.011-1.382 6.016-.26 1.164-.457 2.328-.667 3.504-.197 1.176-.469 2.339-.543 3.515-.074 1.449.013 2.909.062 4.37.025.619.136 1.238.197 1.857a.791.791 0 00-.098.037c-.05-.087-.124-.173-.148-.26zm-2.419-12.379a32.6 32.6 0 01.247-3.466c.21-1.721.494-3.441.753-5.162l-.198-.037c-.345 1.956-.703 3.912-1.049 5.868-.061-.013-.111-.013-.172-.025-.013-.372-.05-.731-.013-1.09.087-1.077.272-2.141.309-3.218.074-1.832.543-3.602.876-5.385.345-1.857.728-3.714 1.061-5.571.16-.878.272-1.77.395-2.649.086 0 .173.013.259.013.012.817.049 1.621.012 2.438a23.664 23.664 0 01-.876 5.41c-.024.099.074.223.111.334h.198c1.098-2.476 1.123-5.137 1.357-7.836.148.149.235.347.346.533.419.705 1.073 1.287 1.048 2.203-.024.842.099 1.671-.037 2.525-.135.855-.16 1.733-.172 2.6-.037 2.575-.753 5.013-1.419 7.465a322.693 322.693 0 00-1.777 6.845 13.094 13.094 0 00-.284 4.853c.111.928.16 1.869.234 2.797-.024 0-.049.013-.074.013-.197-.533-.382-1.065-.58-1.597-.074-.211-.259-.483-.185-.619.358-.619.013-1.176-.086-1.758-.074-.446-.197-.879-.21-1.324-.024-1.399-.086-2.786-.074-4.16zm-.975-4.84c-.061-.012-.135-.012-.197-.025l.296-2.909c.05 0 .099.013.148.013-.086.977-.16 1.943-.247 2.921zm.025 3.602c-.074 0-.16.013-.234.013-.013-.842-.037-1.672-.05-2.513.074 0 .148 0 .222-.013.013.842.037 1.684.062 2.513zm-1.209.434c-.457-2.179-.457-4.383-.296-6.586.148 2.191.296 4.382.456 6.573-.061 0-.111.013-.16.013zm-.901-8.988c-.025 2.352-.062 4.556-.086 6.772-.864-2.216-.741-4.432.086-6.772zm2.53-13.035c.197.31.345.644.419.978.37 1.597.21 3.206.037 4.803-.21 1.882-.543 3.751-.827 5.62l-.666 4.469c-.062-.012-.123-.012-.173-.025-.086-5.31 1.037-10.534 1.21-15.845zm-.963 3.293c-.098-2.142.185-4.407-.728-6.635.889.483 1.308 4.976.728 6.635zm-2.208-7.601c.123.05.308.075.333.161.382 1.102.974 2.142 1.048 3.343.013.222.05.445.062.668.013.198.013.384.013.458a332.809 332.809 0 00-1.456-4.63zm-1.629-3.057c.53.346.962.755 1.382 1.176.247.247.802.433.21.903-.062.05.024.26.037.397v.532c-.556-.99-1.086-2.006-1.629-3.008zm-2.123.68c-.074-.049-.148-.099-.222-.136.297-.445.58-.89.876-1.324.062.037.124.074.173.111-.271.446-.555.904-.827 1.35zm-6.786 2.835c-.506.198-.975.483-1.493.619-.543.136-1.111.112-1.666.211-1.369.235-2.751.235-4.121.111-1.16-.099-2.332-.247-3.467-.507-1-.223-1.975-.57-2.776-1.288-.383-.334-.877-1.3-.68-1.758.174-.408.408-.792.642-1.213 1.025.718 2.098.941 3.16-.16-.297-1.028-1.074-1.585-2.11-1.882.012-.05.012-.112.024-.161.37-.087.74-.174 1.123-.273-.099-.47-.309-.705-.802-.618-.494.086-.889-.087-1.246-.483-.26-.285-.642-.47-.988-.706a.564.564 0 01.173-.186c.592-.383.605-.544.05-.94-.321-.223-.494-.533-.334-.892.136-.31.358-.631.63-.841.543-.446.703-.793.32-1.127-.468-.396-.839-1.052-1.628-.854-.16.037-.358-.05-.654-.087.136-.346.185-.718.395-.953.357-.433.16-.619-.198-.867-.481-.346-.938-.742-1.419-1.138 1.32-.483 2.999.111 3.653 1.2.32.52.74.978 1.135 1.436.061.075.234.075.432.137-.05-.186-.05-.285-.1-.372-.468-.83-.172-1.572.334-2.203 1.27-1.61 2.665-3.107 4.269-4.407 1.37-1.114 2.826-2.043 4.405-2.76a33.02 33.02 0 013.85-1.486c1.111-.347 2.27-.495 3.443.186-.198.086-.321.173-.445.185-1.912.186-3.726.792-5.515 1.46-.21.075-.346.347-.518.533.222-.05.444-.074.654-.148 1.949-.768 3.961-1.226 6.058-1.263.37 0 .753.05.815.582-.691.074-1.407.025-2.036.223-2.024.656-4.023 1.398-6.034 2.116a4.851 4.851 0 00-.889.421c-.271.161-.505.384-.765.582 3.27-1.485 6.552-2.797 10.291-2.637l.284.681c-4.294-.396-7.823 1.473-11.352 3.343 3.739-1.523 7.366-3.479 11.697-2.612.025.061.074.247.136.433-.753.05-1.444.05-2.122.16-.679.112-1.333.347-1.999.545-.642.186-1.296.36-1.913.595-.629.247-1.246.57-1.863.854a74.23 74.23 0 00-1.715.83c.037.061.062.123.099.172 1.505-.606 3.01-1.225 4.528-1.807a11.372 11.372 0 014.405-.73c.876.025 1.037.235 1 1.027-1.234-.272-6.836 1.461-7.182 2.266 2.431-.954 4.85-1.795 7.465-1.672.173.718.111.78-.604.805a6.046 6.046 0 00-1.419.21 59.27 59.27 0 00-3.196.99c-.543.187-1.061.459-1.604.694 1.419-.285 2.776-.656 4.146-1.04.938-.272 1.875-.396 2.826-.148.148.037.271.235.37.322-1.826.78-3.554 1.51-5.281 2.253.024.061.037.136.061.198.247-.05.494-.062.716-.149.827-.322 1.641-.706 2.48-1.003.568-.198 1.172-.284 1.765-.396.333-.062.468.161.493.47.037.607.062 1.214.099 1.82-.889.47-1.789.954-2.678 1.424-.135.074-.296.111-.444.173.025.087.062.186.086.273 1.025-.36 2.049-.73 3.147-1.115.049.434.074.73.099.88-.408.235-.741.383-1 .606-.296.248-.493.631-.802.867-.493.37-1.049.68-1.555 1.027-.123.087-.197.235-.296.359.05.05.087.111.136.16l3.443-1.967c-.321.804-.605 1.56-.914 2.302-.049.111-.135.21-.209.297-1.308 1.46-2.875 2.55-4.64 3.38-.703.322-1.419.619-2.122.928 2.998-.495 5.392-2.117 7.662-4.035-.345.854-.691 1.695-1.221 2.413-1.814 2.414-4.195 4.061-6.984 5.125zm-4.368-24.98c-1.234.47-2.406 1.15-3.554 1.832-1.493.879-2.8 2.005-3.936 3.33-.308.359-.654.693-.987 1.04-.037-.025-.074-.063-.11-.087.073-.161.123-.335.221-.483.95-1.498 2.085-2.847 3.467-3.961 1.555-1.263 3.369-2.03 5.257-2.637 1.431-.458 2.862-.966 4.405-.656.938.185 1.937.223 2.653 1.077a7.231 7.231 0 01-1.641-.149c-1.999-.408-3.924-.012-5.775.694zm-7.6 1.435c.16-.012.357.025.468-.049a35.458 35.458 0 002.036-1.56c.962-.78 2.073-1.3 3.233-1.634 1.061-.31 2.196-.384 3.294-.544.568-.087 1.148-.124 1.715-.174.025.05.037.112.062.161-6.379 1.164-11.228 4.32-13.56 10.535-.84-.26-1.58-.495-2.308-.706-.42-.124-.555-.322-.259-.693.284-.347.543-.706.852-1.04.838-.916 1.678-1.832 2.517-2.736-.296-.223-.802-.099-1.296.483-.864 1.028-1.79 2.005-2.53 3.12-.431.643-.925 1.015-1.64 1.15-.334.063-.68.038-1.025.063-.752.05-1.073-.198-1.073-.954 0-1.262.382-2.401 1.184-3.391.309-.372.617-.755.95-1.102.914-.94 1.95-1.72 3.172-2.216 1.295-.532 2.64-.978 3.911-1.56a16.087 16.087 0 014.997-1.386c.778-.087 1.543-.334 2.32-.409.703-.062 1.419.013 2.122.025v.173c-1.172.26-2.369.458-3.516.78-2.123.57-3.912 1.733-5.466 3.268-.111.075-.111.248-.16.397zm17.545-9.222c-.037-.099-.074-.186-.111-.285.765-.272 1.53-.544 2.308-.817.024.075.061.161.086.236-.765.297-1.53.581-2.283.866zm3.936-.743c.852-.247 1.703-.495 2.555-.755.012.05.024.1.049.136-.827.273-1.666.557-2.493.83-.049-.062-.074-.136-.111-.21zm-6.872 1.894c-.691.582-1.469 1.053-2.073 1.709-1 1.089-1.629.978-2.592.396a8.226 8.226 0 00-4.91-1.14c-2.197.187-4.406.52-6.54 1.053-1.468.371-2.95 1.003-4.208 1.832-2.196 1.449-4.244 3.157-5.688 5.435-.864 1.374-1.987 2.624-2.258 4.32-.518-.074-1.024-.136-1.518-.223-1.764-.31-3.516-.619-5.28-.916-.457-.074-.963-.173-1.383-.05-.493.15-.728-.049-1-.334-.95-.99-1.875-2.005-2.837-2.995-1.074-1.102-2.172-2.167-3.258-3.256.037-.074.074-.161.111-.235.148-.037.296-.087.445-.1 2.233-.284 4.281-1.04 6.07-2.4.852-.645 1.617-1.4 2.468-2.056 1.48-1.163 2.727-2.525 3.702-4.16.53-.903.592-.866 1.592-.432.086.037.185.061.283.086 1.012.297 2.024.594 3.036.88 2.554.73 5.083 1.534 7.773 1.77 1.728.148 3.43.457 5.17.396 1.802-.075 3.616.11 5.405-.038 2.48-.198 4.948-.594 7.416-.928.616-.087 1.233-.235 1.85-.347-.555.669-1.147 1.213-1.776 1.733zM94.575 68.42c-1.654-.136-3.332-.223-4.911-.755.024-.074.037-.136.061-.21l4.85.965zm-46.63 13.654c-1.591 1.226-3.035 2.6-4.17 4.42-.469-.694-.148-1.25.062-1.721.703-1.547 2.035-2.563 3.282-3.602.814-.681 1.64-1.387 2.727-1.671 1.221-.322 2.418-.842 3.652-1.04 1.518-.248 3.073-.273 4.602-.384.37-.025.753-.037 1.123-.062.013-.074.025-.149.05-.223-.358-.099-.728-.285-1.086-.272-1.11.025-2.221.099-3.332.173-1.715.124-3.368.483-4.96 1.176-.395.173-.814.272-1.222.409l-.074-.186c.47-.26.926-.557 1.42-.792.937-.434 1.863-.941 2.837-1.213 1.099-.297 2.246-.409 3.381-.52a21.007 21.007 0 017.552.643c.654.174 1.295.397 1.937.594-.802.199-1.616-.024-2.37.31.149.074.285.1.42.124 1.333.235 2.727.148 3.998.718.679.31 1.333.68 1.987 1.064 1.407.842 2.8 1.684 4.183 2.563.222.136.333.458.493.693-.049.05-.086.1-.135.149-1.555-.458-3.073-.384-4.578.173.345.05.69.037 1.012-.025 1.258-.26 2.455.1 3.677.26.358.05.456.297.308.582-.568 1.077-1.123 2.154-1.752 3.194-.37.606-.851 1.139-1.283 1.708.05.037.098.087.16.124 1.283-1.028 2.11-2.439 3.122-3.95.271 1.028.654 1.895.678 2.774a9.482 9.482 0 01-1.32 5.199c-.851 1.436-1.95 2.736-2.9 4.122-1.209 1.746-2.874 2.909-4.75 3.801-.74.346-1.493.68-2.233 1.027.012.062.012.124.024.198.235 0 .482.074.68-.012.974-.409 1.936-.83 2.886-1.3 1.63-.792 2.986-1.956 4.085-3.392.172-.223.345-.446.543-.668.185-.21.382-.409.567-.62-1.875 3.603-4.85 5.992-8.588 7.688.247.099.346.186.407.161 3.233-1.312 6.01-3.243 8.033-6.177-.69 3.602-2.665 6.251-5.824 8.046.062.074.111.149.173.211.592-.322 1.184-.632 1.875-1.015-.061.198-.074.321-.123.371-.79.668-1.58 1.324-2.382 1.968-.333.26-.703.471-1.024.755-1.27 1.152-2.764 1.671-4.466 1.597-.506-.025-1.012-.086-1.518-.124v-.136c.284-.148.568-.309.851-.458-.012-.049-.037-.099-.049-.161-.26.013-.506.013-.765.05-.827.099-1.654.346-2.468.297-1.542-.087-3.035-.433-4.516-.953-1.493-.533-2.813-1.251-3.825-2.476-.148-.186-.222-.433-.333-.656.234-.05.456-.124.69-.124.507 0 .704-.21.556-.706-.062-.222-.222-.433-.345-.631-.223-.334-.445-.668-.716-1.064 1.172.631 2.283 1.163 3.307 1.807 1.135.705 2.406.668 3.64.804 1.184.137 2.394.409 3.529-.247a.754.754 0 00-.395-.136l-4.109-.297c-1.678-.124-3.11-.879-4.504-1.733-.469-.285-1.06-.582-.888-1.337 2.505 1.745 9.538 3.045 11.068 1.931-1.086-.05-2.048-.05-2.998-.136-1.111-.099-2.221-.186-3.307-.434-1-.222-1.974-.619-2.937-.99-.679-.26-1.37-.569-1.703-1.424 1.11-.631 1.913.496 2.925.434.074-.198.172-.421.234-.644.383-1.523-.753-2.414-1.518-3.404-.58-.743-.703-.706-.012-1.374a1.76 1.76 0 01.679-.384c.506-.149.604-.458.48-.94-.11-.447-.27-.942-.197-1.375.124-.792-.098-1.325-.74-1.782-.345-.26-.777-.545-.716-1.115.124-1.225-.259-1.572-1.456-1.324-.16.037-.32.062-.468.099-.445.087-1 .396-1.012-.47 0-.075-.16-.137-.198-.223-.086-.198-.234-.409-.222-.607.074-.619.309-1.225-.222-1.77.605-.186.592-.174 1.728.371.185.087.518.161.654.05.555-.433 1.048-.929 1.567-1.4-.025-.061-.05-.123-.062-.185-.185.062-.407.075-.568.186-1.221.767-1.715.78-2.603.025.703-.632 1.394-1.263 2.097-1.894l-.123-.161c-.234.111-.481.21-.691.359-.753.532-1.468 1.126-2.258 1.621-.358.223-.827.273-1.246.397-.05-.087-.111-.174-.16-.26l2.603-2.947c-.05-.024-.087-.062-.123-.099zm-.098 17.393c-.136.42-.42.433-.79.198.432-.966.864-1.931 1.296-2.884.086.024.16.05.246.086-.246.854-.493 1.733-.752 2.6zm1.406-2.884c.494.321.408 1.089-.283 1.881.086-.619.185-1.238.283-1.881zm-1.912.903c.185-1.225.358-2.45.543-3.676.432 1.324.037 2.525-.543 3.676zm1.789-6.04c.84.222.925 1.794.123 2.995-.049-1.09-.086-2.043-.123-2.996zm.173-.83c-.284-.136-.518-.396-.765-.607.024-.05.037-.099.062-.148.394-.05.79-.112 1.184-.161.173.904.469 1.634 1.172 2.166.21.161.481.372.506.582.099.743.173 1.498.086 2.24-.037.285-.505.52-.765.793-.123.136-.21.31-.345.42-.148.124-.333.199-.506.285-.099-.185-.308-.396-.271-.544.148-.52.32-1.04.604-1.486.235-.371.395-.668.185-1.114-.123-.26-.148-.594-.148-.891 0-.78-.284-1.189-1-1.535zm-1.271 15.115c.037.012 0 .21 0 .334-.506-.223-.913-.409-1.32-.594.024-.05.037-.112.061-.161.42.136.84.272 1.259.421zm2.258 2.5l-.111.149c-.506-.372-1.024-.743-1.53-1.114.024-.038.062-.075.086-.124.518.371 1.037.73 1.555 1.089zm24.505-7.477c.123-.359.272-.656.518-.78 1.086-.57 2.246-.854 3.48-.965 1.814-.161 3.554.136 5.269.619.284.074.518.297.777.458-.037.074-.062.148-.099.223-3.331-.62-6.663-1.176-9.945.445zm.494-1.498c-.074-1.237.555-2.265 1.604-2.624.444-.148.9-.26 1.357-.322 1.777-.26 3.418.273 5.047.867.11.037.197.111.296.173l-.148.186c-1.592-.149-3.184-.644-4.911-.037.21.086.284.123.358.136.074.012.16.012.246.025 1.444.173 2.888.334 4.32.557.258.037.493.297.74.445-.037.075-.062.136-.1.21-.53-.074-1.06-.123-1.591-.235-2.283-.495-4.528-.383-6.737.421-.148.062-.308.136-.481.198zm4.664-3.515c-1.259-.075-2.53.21-3.8.334.48-1.09 6.342-.743 7.514.42-1.21-.247-2.456-.68-3.714-.754zm-3.579-.57c.284-.978 1.9-1.634 3.098-1.349-1.086.47-2.036.879-3.097 1.35zm2.604-.606c1.345-.285 2.665-.149 3.96.235.149.05.235.297.371.495l-4.38-.656c.012-.012.024-.062.05-.074zm-2.209-1.028c.037-1.337.136-2.45.1-3.565-.05-1.51.16-3.045-.272-4.543-.272-.916-.074-1.102.876-1.139 1.604-.062 3.134.384 4.676.73.198.05.395.124.58.087.543-.087.666.112.53.62a18.248 18.248 0 00-.616 5.037c.012.904.148 1.795.234 2.76-2.023-.309-4.035-.791-6.108.013zm-31.625-12.18c.025-.186.013-.26.05-.285.827-.867 1.604-1.77 2.492-2.575 1.37-1.25 2.986-2.13 4.627-2.971 2.357-1.201 4.837-1.659 7.429-1.362 1.27.149 2.554.47 3.763.879a24.185 24.185 0 013.9 1.671c.937.508 1.727 1.275 2.689 2.006-1.666-.607-3.146-1.238-4.676-1.684-1.962-.557-3.949-1.09-6.01-1.126-1.27-.025-2.566-.087-3.825.024-1.591.149-3.146.483-4.602 1.275-1.506.83-3.196 1.325-4.319 2.773-.382.508-.95.88-1.517 1.374zm54.761-9.334c-.271.099-.481.173-.691.247a276.45 276.45 0 00-4.072 1.585c-.358.136-.678.359-1.036.507-2.172.929-4.245 2.018-5.861 3.813-.148.16-.37.26-.679.47 2.06-3.416 9.156-7.204 12.339-6.623zm13.61-1.684c-1.098.891-2.196 1.77-3.295 2.662.136-.52 2.184-2.043 3.295-2.662zm-6.885 2.253c-5.343-.186-10.106 1.77-14.807 3.974a2.151 2.151 0 01-.136-.223c.148-.062.296-.112.444-.186.753-.396 1.506-.755 2.234-1.188 1.629-.953 3.405-1.535 5.182-2.08 1.394-.42 2.863-.619 4.306-.83.963-.148 1.901.124 2.777.533zm3.566 3.701c0 .037-.013.062-.013.1-1.196.457-2.455.804-3.59 1.398-1.555.805-3.06 1.758-4.529 2.711a12.439 12.439 0 00-2.11 1.758c-1.16 1.188-2.258 2.439-3.393 3.652-.11.124-.37.223-.506.173-.555-.198-.728-.83-.345-1.275 1.036-1.164 2.048-2.364 3.146-3.466 2.838-2.884 6.194-4.766 10.303-5.113.346-.037.704.037 1.037.062zm-21.63 18.061c-.494.198-.914.47-1.346.73-.147.087-.308.186-.48.224-.26.049-.544.012-.79.074-.457.111-.815-.174-.667-.62.124-.358.346-.68.543-1.014.296-.52.111-1.102-.432-1.35-.185-.086-.395-.123-.555-.235-.333-.223-.333-.668 0-.767.913-.26 1.493-.99 2.246-1.498.716-.47 1.357-1.325 2.406-.768.148.075.271.21.432.273.148.05.37.123.469.05.444-.323.863-.694 1.308-1.016.148-.111.357-.16.543-.248.024.038.037.087.061.124-.53.57-1.061 1.127-1.591 1.696-.16.087-1.247.632-1.247.817.013.124.185.31.309.334.123.025.296-.11.42-.21.703-.57 1.418-1.126 2.097-1.733.407-.371.715-.384 1.061.111-1.308 1.115-2.616 2.241-3.924 3.355.037.062.074.111.124.173 1.357-.99 2.714-1.98 4.072-2.983.049.05.086.112.135.161-.16.198-.284.446-.469.607-1.295 1.064-2.616 2.104-3.923 3.156-.173.136-.334.31-.506.458l.148.186c1.616-.631 2.751-2.043 4.318-2.773-.123.409-.234.805-.469 1.114-.814 1.102-1.937 1.77-3.195 2.24-.556.211-1.11.422-1.654.67-.148.073-.222.284-.333.433.185-.013.395.024.568-.038.431-.148.851-.346 1.283-.507.222-.087.493-.1.69-.223.926-.57 1.84-1.164 2.765-1.733.074-.05.16-.074.407-.186-1.16 1.597-2.776 2.24-4.27 3.07 1.679-.099 2.913-1.139 4.245-1.993.222.532-.098 1.25-1.073 1.746-1.962 1.002-3.64 1.46-5.318-.161.148-.929 1.37-.867 1.591-1.746zm12.659 10.027c.802.075 1.617.149 2.419.161.654.013 1.308-.074 1.962-.111.024.086.037.173.061.247-.506.149-.999.384-1.517.421-1.925.136-3.862.099-5.726-.421a20.813 20.813 0 01-3.615-1.374c-.79-.396-1.505-1.015-2.16-1.634-.567-.532-.456-1.634.1-1.943.061.334.086.681.172 1.002.173.607.79 1.028 1.407.904.432-.086.728-.012 1 .334a.898.898 0 00.394.285c1.85.656 3.467 1.956 5.503 2.129zm1.678-1.299l3.961-.112c-1.32.57-2.64.421-3.961.297v-.185zm-12.425-5.187a550.799 550.799 0 013.233-1.498c-.235 1.077-2.443 2.141-3.233 1.498zm5.947-.557l-1.085-.817c-.013-.285.9-.372.135-.941.087-.025.185-.037.272-.062.086.099.16.21.259.297.173.136.345.347.543.371.666.1 1.11.458 1.431 1.028-.568.507-1.012.532-1.555.124zm-1.727.371c-.123.384-.308.73-.32 1.09-.013.42.147.841.184 1.262.013.186-.012.446-.123.582-.136.161-.383.309-.58.322-.099 0-.309-.285-.32-.471-.075-.581.011-1.188-.433-1.67-.037-.038.111-.323.235-.385.42-.26.888-.482 1.357-.73zm-3.825 3.045c-.124-.024-.21-.272-.296-.433-.136-.235-.222-.508-.383-.718-.21-.26-.493-.47-.74-.706.025-.061.062-.111.086-.173.704.186 1.407.36 2.197.57-.111.42-.185.854-.358 1.25-.05.124-.346.235-.506.21zm-3.48-1.262c-.456.012-.58-.483-.641-.892-.037-.185-.136-.346-.148-.532-.013-.408 0-.83.012-1.238.099-.037.185-.086.284-.124.678.533 1.37 1.077 2.06 1.622-.197.285-.283.52-.456.631-.346.236-.728.533-1.11.533zM90.91 88.35c-.062-.075-.123-.137-.185-.211.333-.272.654-.545.987-.817l.148.186c-.308.284-.63.557-.95.842zm-3.418.643c-.037-.05-.086-.099-.123-.16.407-.347.814-.682 1.234-1.028.049.062.11.124.16.185-.432.335-.852.669-1.271 1.003zm-1.407 1.164c-.382-.842-.728-1.61-1.085-2.39 1.073-.668 1.887-1.485 2.418-2.574.062-.124.271-.174.407-.26l.111.148c-.234.297-.481.582-.703.88-.666.903-.63 1.175.358 1.831-.309.21-.568.409-.84.595-.049-.248.062-.397.038-.533-.025-.16-.16-.297-.26-.445-.123.099-.283.173-.37.297-.123.16-.21.346-.283.532-.173.371.123 1.077.493 1.114.198.025.407-.087.617-.136.025.037.037.062.062.099-.321.285-.63.557-.963.842zm4.183-4.964c.53.285.987.705 1.678.346-.826.842-1.554 1.672-1.937 2.749-.05.136-.345.185-.666.334.21-1.275.345-2.365-.963-2.897.42-.57 1.296-.842 1.888-.532zm9.131 20.413c1.037.049 2.221.136 3.406.136.752 0 1.554.037 2.27-.186a61.12 61.12 0 005.405-1.956c1.406-.581 2.739-1.337 4.022-1.98-2.826 4.258-10.118 6.288-15.103 3.986zm-2.32 1.956c-1.085-.273-2.147-.731-3.158-1.226-1.605-.78-3.073-1.77-4.085-3.293-.69-1.039-.974-2.166-.617-3.392l.223-.074c.172.372.37.743.518 1.127.185.47.518.668 1 .78.345.074.715.26.962.495.58.532 1.049 1.188 1.628 1.708.975.867 2.197 1.263 3.369 1.783 1.641.718 3.369 1.101 5.096 1.498 1.419.334 2.863.272 4.306.012.506-.087 1-.186 1.493-.285l.037.149c-.444.173-.888.359-1.345.52-.937.309-1.863.693-2.838.903-2.27.483-4.442-.185-6.589-.705zm-5.873-.916c-1.826-1.015-3.48-2.229-4.467-4.098-.79-1.51-1.505-3.082-2.036-4.691-.469-1.387-.703-2.872-.925-4.32-.21-1.288-.284-2.588-.37-3.888-.013-.26.16-.532.247-.804.061-.174.135-.335.16-.508.086-.619.136-1.263.247-1.882.333-1.757.777-3.478 1.974-4.864a51.815 51.815 0 012.875-3.07c.617-.607 1.333-1.115 1.999-1.66.05.05.086.1.136.15-.087.11-.148.235-.247.334-.679.68-1.37 1.324-2.024 2.017-.962 1.015-1.53 2.266-1.567 3.615a4.341 4.341 0 01-.506 1.956c-.48.965-1.123 1.733-2.122 2.166-.382.161-.457.458-.272.854.297.62.519 1.263.84 1.87.333.63.049.854-.506.928-.568.062-.605.433-.58.879.061.78.432 1.275 1.345 1.325-.235.445-.395.78-.593 1.114-.37.656-.283 1.287.297 1.733.271.21.58.346.715.433.124.953.148 1.832.37 2.649.26.953 1 1.436 2.012 1.461.11 1.931.974 3.478 2.43 4.63 1.074.854 2.246 1.621 3.492 2.178 1.247.545 2.505 1.139 3.924 1.3 1.296.149 2.554.508 3.838.768-.988.099-2 .235-2.986.111-2.727-.371-5.27-1.349-7.7-2.686zm-28.145 7.638c-.062.68.382.482.654.458.086 1.188.172 2.339.246 3.515-.801-.965-1.196-2.674-.9-3.973zm1.752-1.238c.148-.409.37-.793.555-1.176.062.024.111.049.173.074-.222 1.51-.53 3.008-.63 4.518-.061.892.173 1.808.334 2.699.037.173.37.285.567.433 0-.21.062-.458-.024-.631-.407-.867-.481-1.783-.346-2.686.185-1.313.47-2.612.778-3.887.11-.446.468-.842.703-1.263.062.037.123.074.173.111-.148.632-.321 1.263-.432 1.907-.111.619-.222 1.25-.247 1.881-.025.632.136 1.275.062 1.894-.099.842-.111 1.288.246 1.894.062-.235.136-.396.149-.569.037-1.139.024-2.278.098-3.417.111-1.609.321-3.206 1.641-4.357.05-.037.074-.099.087-.161.222-.916 1.024-1.3 1.64-1.857-.555.99-1.22 1.919-1.665 2.934-.518 1.188-.864 2.476-1.259 3.714a2.39 2.39 0 00-.11.841c0 .112.184.223.283.335.074-.099.198-.199.222-.31.222-.842.42-1.696.654-2.538.333-1.163.913-2.191 1.58-3.193.876-1.337 1.801-2.65 3.11-3.578 1.702-1.213 3.38-2.463 5.367-3.219.185-.074.296-.321.431-.495-.234-.012-.48-.086-.703-.037-1.555.396-2.727 1.51-4.084 2.278-.84.47-1.617 1.077-2.37 1.597.864-2.451 2.938-3.578 5.146-4.593-1.147-.148-1.986.582-2.998.879.197-.47.333-1.04.69-1.3a7.865 7.865 0 012.16-1.077c1.863-.557 3.788-.52 5.676-.198.84.149 1.752.235 2.48.892-1.999.148-3.936.383-5.824.891 1.11 0 2.209-.05 3.295-.173 1.11-.124 2.196-.124 3.38.284-2.788.842-5.466 1.597-7.637 3.343 1.665-.669 3.344-1.412 5.071-2.031.728-.26 1.555-.668 2.357.013-.852.47-1.69.928-2.505 1.411-1.098.656-2.184 1.337-3.27 2.018-.062.037-.037.235-.062.384 2-1.362 4.023-2.427 6.256-3.021-.69.941-1.875 1.3-2.504 2.29 1.135-.483 2.072-1.337 3.516-1.535-1.406 1.312-2.677 2.501-3.96 3.689.049.062.098.112.147.173 1.69-1.151 3.085-2.735 4.936-3.664.062.062.111.124.173.186a740.786 740.786 0 00-3.06 3.243c.049.05.086.099.135.136a746.528 746.528 0 013.603-2.847l.222.223c-.703.941-1.406 1.894-2.196 2.946.234-.049.358-.024.407-.086.654-.632 1.308-1.263 1.962-1.907.691-.681.864-.681 1.592.013-.703.99-1.42 1.993-2.122 2.983l.148.111c.58-.631 1.135-1.287 1.764-1.869.333-.309.79-.693 1.172-.681.815.025 1.025.656.63 1.597-.333.792-.704 1.56-1.061 2.34-.062.148-.087.309-.124.458.062.025.111.037.173.062.69-1.263 1.37-2.538 2.073-3.813.222.062.444.136.79.235-.05.755.012 1.56-.198 2.29-.21.743-.716 1.387-1.073 2.092-.247.471-.482.954-.716 1.436.062.038.123.062.185.099.728-.73 1.259-1.609 1.666-2.55.42-.953.703-1.968 1.036-2.958.358.124.864.916.728 1.473a42.053 42.053 0 01-.925 3.231c-.235.718-.555 1.399-.852 2.104.05.025.1.037.148.062.766-1.646 1.543-3.293 2.308-4.939l.148-.037c.086.681.247 1.374.234 2.042-.074 2.959-.567 5.806-2.381 8.257-1.024 1.374-2.147 2.662-3.307 3.937-1.604 1.77-3.38 3.218-5.59 4.233.161.124.37.248.507.186.505-.223 1.036-.458 1.48-.792.79-.582 1.752-.842 2.43-1.622 1.37-1.547 2.876-2.971 4.233-4.531 1.58-1.807 2.493-3.961 2.888-6.338.086-.532.345-1.052.394-1.584.124-1.634.148-3.281-.604-4.816.05-.024.11-.062.16-.086.124.173.26.346.346.532.69 1.386.765 2.847.493 4.345-.074.396-.037.817-.11 1.213-.186 1.077-.248 2.216-.643 3.206-.505 1.275-1.295 2.427-1.949 3.64-1 1.844-2.295 3.441-3.973 4.691-1.69 1.263-3.406 2.451-5.491 3.07-1.801.533-3.59.694-5.43.557-.53-.037-1.048-.148-1.566-.222 1.086-.161 2.16-.112 3.22-.236 1.098-.136 2.172-.433 3.245-.68.111-.025.173-.211.26-.322-.149-.05-.309-.149-.445-.124-.284.049-.543.173-.814.247-2.209.545-4.454.508-6.7.31-.16-.012-.309-.099-.555-.198.715-.223 1.308-.409 1.9-.582-.025-.087-.037-.173-.062-.26-1.061.112-2.122.458-3.196-.037 1-.421 2.012-.842 3.011-1.25-.025-.062-.05-.136-.074-.198-.814.222-1.629.433-2.43.68-.864.26-1.691.038-2.518-.284l-.111.297c.37.272.728.557 1.135.866-.678-.148-1.85.582-2.27 1.325-.087.148-.358.186-.543.272-.074-.198-.247-.421-.21-.594.05-.26.26-.495.383-.755.197-.396.172-.792-.235-1.003-.826-.445-1.666-.842-2.505-1.25-.308-.149-.629-.347-.95-.359-.48-.012-.555-.235-.617-.631-.086-.533-.185-1.09-.407-1.572-.222-.459-.506-.434-.74.012-.284.532-.506 1.077-.753 1.622-.395-.186-.469-.52-.21-1.003.173-.322.42-.656.42-.99 0-1.337-.42-2.588-1.037-3.764-.222-.433-.53-.804-.777-1.225-.074-.112-.074-.285-.062-.421.013-.211.1-.421.074-.619-.148-1.758-.234-3.516.383-5.236zm-21.063-8.591c.235.247.47.507.691.767.543.607.778.656 1.382.359.309.347.53.669.84.904.826.619 1.677 1.201 2.529 1.795.382.26.752.569 1.184.718 1.136.408 2.209.99 3.43 1.139 1.062.136 2.135.321 3.196.396 1.37.099 2.752.185 4.134.161.925-.013 1.888-.087 2.74-.397 1.9-.705 3.392-2.079 4.96-3.317 1.258-1.003 2.196-2.278 3.023-3.627.752-1.238 1.48-2.501 2.27-3.862-.26 2.005-1.259 3.528-2.234 5.063-.234.371-.58.668-.814 1.039-.382.607-.63 1.325-1.098 1.857-1.456 1.634-3.035 3.12-5.195 3.85-1.69.582-3.405.966-5.157 1.114-1.099.087-2.258.075-3.332-.161-1.518-.321-3.072-.705-4.467-1.374-1.814-.879-3.516-2.017-5.182-3.156-1.037-.718-1.95-1.647-2.875-2.513-.21-.198-.284-.545-.432-.83.234-.024.345.013.407.075zm.087-1.164c0-.173-.013-.359-.037-.532-.013-.099-.062-.198-.062-.211.271-.161.543-.223.63-.384.209-.359.332-.779.505-1.163.37-.78.765-.904 1.53-.471.987.57 2.16.025 2.628-.742.432-.73.79-1.498 1.197-2.24.05-.088.124-.162.173-.211 1.333.978 1.999 2.352 1.592 3.354-.47-.148-.963-.272-1.42-.458-.703-.284-1.048-.247-1.591.409-.469.569-1.197 1.089-.74 2.018.012.012.024.037.037.049.333.669.678 1.337 1.073 2.105a94.02 94.02 0 00-2.06.049c-.556.025-1.123-.012-1.654.112-.382.086-.654.099-.913-.186-.284-.31-.617-.594-.864-.929-.098-.123-.024-.383-.024-.569zm-2.012-2.228c.185.235.284.47.457.544.53.26.296.533.025.966-.247-.532-.654-.904-.482-1.51zm.802-5.521c.136.037.272.062.432.086.037.297.087.545.099.78.074.966.962 1.449 1.27 2.34.359 1.052.58.978-.036 1.931-.074.124-.16.235-.222.359-.185.371-.37.347-.716.111-.63-.433-1.283-.804-2.11-.792-.234 0-.543-.235-.703-.445-.333-.446-.605-.941-.852-1.449-.123-.247-.246-.57-.222-.83.198-1.67 1.42-2.5 3.06-2.091zm-1.653-1.51c-.012.16.037.383-.05.482-.172.198-.431.322-.653.47-.062-.036-.124-.086-.185-.123.11-.273.172-.57.333-.792.074-.1.37-.025.555-.038zm1.999-.421c.456-1.14 1.27-2.105 1.431-3.392.136-1.114 1.42-1.66 2.468-1.201a.68.68 0 01.346.396c.123.508.283 1.028.283 1.547 0 .805-.086 1.61-.185 2.414-.172 1.275.087 2.612-.444 3.838-.333.755-.358 1.683-1.283 2.141-.309-.42-.753-.742-.642-1.386.025-.149-.136-.409-.284-.495-.74-.421-.987-1.015-.839-1.845.074-.396-.098-.693-.493-.854-.704-.272-.654-.445-.358-1.163zm-1.802-5.026c.383-.669.765-1.3 1.469-1.733.382-.236.506-.297.666.173.062.186.309.334.494.433.049.025.259-.223.345-.371.346-.57 1.542-1.09 2.135-.916.518.148.53.52.481.965-.037.384-.173.545-.58.496-.173-.025-.37.123-.543.222-1.382.755-2.443 1.733-2.394 3.491a.396.396 0 01-.037.174c-.32.63-.654 1.262-.95 1.906-.172.384-.407.408-.715.186-.445-.31-.852-.681-1.333-.929-.802-.408-.876-1.09-.79-1.857.05-.433.124-.866.198-1.374.58-.062 1.197-.235 1.554-.866zM27.55 87.99c-.876-.298-1.666-.817-2.591-1.3.136-.161.271-.335.42-.483.703-.706 1.492-1.337 2.097-2.117 1.271-1.61 2.579-3.181 3.332-5.137.42-1.102.876-2.179 1.048-3.367.05-.372.235-.743.395-1.09.05-.111.26-.222.37-.21.84.173 1.69-.05 2.53-.025 1.357.025 2.591.47 3.825.842 1.296.384 2.591.693 3.924.854.752.087 1.505.223 2.295.334-.025.075-.05.198-.111.285-.728 1.052-1.518 2.067-2.184 3.157-.543.891-.975 1.869-1.407 2.835-.247.556-.345 1.163-.555 1.733-.062.173-.234.334-.395.42-.716.36-1.431.73-2.172 1.028-1.122.458-2.233.978-3.405 1.263-1.802.458-3.64.767-5.479 1.076-.629.075-1.345.1-1.937-.099zm-6.96-2.44c1.21-.247 2.469-.445 3.542-1.2.346-.235.778-.347 1.086-.619 1.185-1.04 2.332-2.13 3.517-3.218-.21.458-.358.89-.593 1.287-.394.668-.728 1.424-1.283 1.919a19.13 19.13 0 01-3.208 2.327c-.777.446-1.715.693-2.603.842-.975.16-1.975.136-2.962.16-1.962.05-3.899-.061-5.713-.903-.728-.334-1.554-.582-2.171-1.077-.84-.668-1.703-1.3-2.382-2.216a12.907 12.907 0 01-1.53-2.723c-.197-.47-.197-1.015-.296-1.523.469.483.79 1.015 1.172 1.51.63.793 1.172 1.721 1.962 2.303 1.913 1.411 4.01 2.525 6.404 2.909.358.062.74.074 1.086.186 1.332.433 2.677.31 3.973.037zM6.82 109.543c1.148.879 2.222 1.87 3.419 2.674 2.036 1.362 4.281 2.228 6.737 2.427.53.049 1.06-.013 1.591-.038 1.136-.062 2.258-.111 3.394-.198.234-.012.48-.111.703-.185.222-.075.432-.161.642-.248.024.062.037.111.061.173-1.221.706-2.48 1.325-3.85 1.758-1.344.421-2.714.433-4.084.359-1.147-.062-2.344-.124-3.393-.545-1.974-.755-3.776-1.893-4.886-3.812-.432-.743-.778-1.548-1.16-2.315.05-.05.099-.112.148-.161.234.025.518-.012.679.111zm-2.887-7.477c-.172.458-.358.929-.53 1.387-.42-.718-.296-1.052.53-1.387zm5.392-13.456c-.086.223-.21.397-.37.545-.469.421-.975.817-1.431 1.25-.136.124-.16.372-.247.557-.012 0-.025.013-.037.013a18.77 18.77 0 01-.16.495c1.32-.916 2.258-2.117 3.825-2.538-2.234 2.167-4.368 4.234-6.515 6.314.05.074.099.148.148.235.197-.1.42-.174.567-.322.519-.483.975-1.04 1.506-1.498 1.407-1.225 2.8-2.463 4.27-3.602.48-.372 1.184-.483 1.776-.706.037.074.074.136.099.21-2.604 1.523-4.677 3.603-6.528 5.955.198-.013.383-.074.494-.186 1.11-1.139 2.122-2.377 3.43-3.317 1.024-.743 1.925-1.696 3.307-1.832.222-.025.42-.297.74-.558.074.013.309.062.556.112l.074.223c-1.814.767-3.505 1.708-4.874 3.144.432-.21.826-.47 1.221-.743a12.616 12.616 0 013.912-1.844c.617-.174 1.209-.396 1.826-.557 1.172-.285 2.369-.532 3.554-.805.345-.074.69-.148 1.024-.235-.074.21-.21.26-.296.347-.111.11-.198.247-.297.37.149 0 .309.05.432 0 1.074-.358 2.123-.791 3.196-1.1 1.123-.323 1-.484 1.85 0-4.478 1.163-8.784 2.475-12.622 4.938a.702.702 0 00.481-.05c1.543-.829 3.147-1.51 4.788-2.14 2.505-.966 5.084-1.598 7.7-2.13.246-.05.505.013.764.013 0 .061 0 .11.013.173-.654.247-1.308.507-1.974.742-2.308.855-4.603 1.697-6.91 2.563-.124.05-.21.21-.309.322.037.062.087.124.124.173.456-.21.9-.445 1.37-.631 1.097-.409 2.183-.83 3.306-1.176 1.592-.483 3.208-.904 4.812-1.337.148-.037.334.062.506.099 0 .074-.012.136-.012.21-.704.285-1.431.545-2.122.854-1.95.867-3.887 1.746-5.812 2.662-.53.248-1 .644-1.493.966.11.024.234.086.308.061.926-.408 1.839-.866 2.777-1.25 1.986-.83 3.96-1.696 5.996-2.389 1.518-.532 1.703-.359 2.357 1.139.05.111.099.223.123.347.42 1.436.691 2.86.63 4.394-.099 2.39-.84 4.432-2.53 6.128-.123.123-.148.322-.222.495.062.025.111.049.173.074 1.419-.941 2.233-2.327 2.789-3.961.21 1.857-.37 3.478-1.148 5.013-.79 1.56-2.37 2.365-3.702 3.405l.124.16c.271-.16.555-.321.826-.482.025.049.05.111.087.161-1.851 1.597-3.9 2.834-6.305 3.478.222.05.444.074.654.05 2.245-.236 4.06-1.399 5.799-2.724.518-.396 1.061-.742 1.604-1.114.037.074.086.136.123.211-2.8 3.812-6.256 6.375-11.315 6.276-1.924-.037-6.687-1.436-7.316-2.55 1.246.445 2.418.953 3.54.866-1.134-.421-2.368-.941-3.652-1.324-1.776-.533-2.949-1.771-4.034-3.169-.074-.099-.297-.174-.395-.124-.63.309-.852 0-.938-.57-.012-.099-.111-.173-.16-.247-.198.21-.334.47-.531.545-.592.235-1.21.396-1.913.618-.037-.074-.172-.297-.283-.532-.346-.767.172-1.547 1-1.461.887.099 1.69-.074 2.48-.445.616-.285.74-.78.197-1.164-.272-.186-.667-.247-1.012-.26-.321-.012-.642.124-1.11.235.147-.371.21-.643.357-.841.457-.595 1.074-1.127.346-1.931-.074-.087-.025-.285-.062-.421-.123-.458-.358-.855-.851-.941-.482-.087-.74.235-.926.644-.037.086-.148.148-.185.247-.197.446-.494.582-.913.297-.296-.198-.37-.978-.05-1.188.655-.446.519-.978.297-1.548-.148-.383-.124-.606.358-.767 1.196-.396 1.283-.582 1.308-1.844.037-1.969.48-3.826 1.48-5.534.16-.272.407-.507.605-.767-.481 1.485-.481 1.485-.272 1.708 1.012-1.436 2.147-2.637 3.825-3.182zM4.34 78.471c.062-.21.47-.31.728-.458.112.223.235.433.309.668.308.99.494 2.018.913 2.947a6.807 6.807 0 001.493 2.055c.975.916 1.999 1.881 3.171 2.488 1.345.693 2.74 1.312 4.344 1.448 2.344.198 4.639.272 6.934-.31l1.148-.296c.037.061.074.123.11.198-.27.173-.53.396-.826.52-1.148.445-2.283.928-3.455 1.25-1 .272-2.024.594-3.11.384-1.628-.322-3.282-.557-4.91-.892-1.555-.31-2.999-.94-4.146-2.067-.778-.768-1.493-1.61-2.073-2.525-.481-.768-1.382-1.4-1.246-2.451.123-1.016.357-1.993.616-2.959zm-1.43-.111c.073-.124.246-.186.382-.285.086.136.259.297.234.408-.16.743-.37 1.474-.604 2.377-.358-.532-.605-.891-.728-1.077.271-.557.468-1.002.715-1.423zm-.58-1.387c.234.409-.013 1.2-.531 1.77-.296-.594-.148-1.138.53-1.77zm-.285-1.832c.334.718-.345 1.04-.555 1.535-.456-.842-.382-1.027.555-1.535zm.062-2.24c.062.037.124.086.173.123-.358.594-.716 1.201-1.123 1.882a27.85 27.85 0 01-.284-.483c.457-.57.852-1.052 1.234-1.523zm-.851-2.142c.012.668.024 1.337.05 2.005-.087 0-.186.013-.272.013l-.074-2.018h.296zm2.208-3.033c.1.384-.11.594-.431.743-.482.235-.95.483-1.395.705.148-.804.74-1.473 1.826-1.448zm.79-.025c-.062-.346-.358-.693-.63-.953-.246-.21-.604-.285-1.011-.47.494-.755.913-1.461 1.394-2.117.321-.446.74-.805 1.074-1.25.32-.421.53-.941.876-1.337.407-.458.74-.421.962.148.26.669.753.805 1.345.817.321.013.654.013.975-.025.543-.074.728.137.716.681-.013.694-.099 1.436.135 2.043.272.718.864 1.312 1.358 2.018-.16.074-.444.21-.728.346-.506.235-1 .52-1.11 1.114-.038.198.06.508.221.644.617.57 1.284 1.102 1.987 1.684-.247.235-.407.42-.592.557-.383.272-.815.482-1.148.792-.222.21-.382.557-.444.866-.05.248.086.545.123.817.124.99-.555 1.548-1.443 1.102-.519-.26-.963-.705-1.395-1.114-.382-.346-.728-.26-.974.074-.223.297-.432.681-.47 1.04-.061.557-.172 1.052-.444 1.548-.345.643-.678.928-1.184.817-.42-.087-.851-.694-.876-1.226-.012-.247.025-.52-.074-.718-.543-1.2.062-2.278.271-3.49.284.16.457.296.654.383.284.136.593.359.889.359 1.122.012 3.121-1.052 3.368-2.377.284-1.51.63-3.008.913-4.518.16-.842-.333-1.399-1.16-1.61-1.085-.284-1.924-.21-2.282 1.028 0 .012-.025.037-.037.05-.47.346-.235.829-.198 1.25.013.136.37.235.568.346.062-.136.197-.297.16-.383-.345-.73.222-1.14.58-1.61.099-.136.407-.173.592-.123.1.024.186.322.173.482-.061.892-.382 1.684-1.012 2.328-.382.383-.752.903-1.233 1.052-.63.198-.95.594-1.308 1.077-.482.656-1.025 1.275-1.58 1.956-.567-1.449-.296-2.092.963-2.563.185-.074.357-.185.555-.272.555-.26.567-.805.481-1.263zm3.332 1.969C7.4 70.906 6.3 71.216 5.536 71.847c-.037-.037-.074-.074-.098-.111.715-.693 1.431-1.374 2.147-2.067zm-2.567.705l-.185-.186c.654-.618 1.296-1.237 1.95-1.856.049.037.086.086.135.123-.444.83-1.147 1.4-1.9 1.92zm7.478-7.452c-.568.136-1.148.186-1.728.272 3.677-1.844 7.502-2.203 11.266-.57 2.714 1.177 4.873 3.22 6.428 5.782-.086.087-.172.173-.259.247-.333-.358-.63-.767-1.024-1.04-.95-.656-1.9-1.324-2.924-1.844-1.715-.879-3.455-1.72-5.244-2.426-2.098-.83-4.294-.966-6.515-.421zm-3.357-5.125c-.53 1.176-1.036 2.315-1.567 3.478-.061-.099-.098-.185-.16-.26-.37-.47-1.135-.792-1.407-.544-.469.433-.913.916-1.32 1.411-.494.607-.925 1.263-1.37 1.906-.357.508-.666 1.053-1.085 1.51-.383.434-.593.83-.235 1.35-.259.136-.493.248-.716.359a2.14 2.14 0 00-.222-.136c.235-.656.432-1.337.728-1.968.272-.595.642-1.127.95-1.709.494-.916 1.11-1.72 1.938-2.352a151.989 151.989 0 013.64-2.661c.246-.174.555-.26.826-.384zm1-.136c.074.05.136.087.21.136L9.2 59.543c-.05-.037-.111-.061-.16-.099.37-.594.74-1.188 1.098-1.782zm5.38-2.154c-2.419.916-3.986 2.785-5.763 4.481.013-.124.013-.21.037-.272.963-1.87 2.37-3.305 4.282-4.184.395-.198.864-.409 1.444-.025zm14.09 13.654c-1.764-3.49-4.404-6.053-8.02-7.378-3.652-1.337-7.354-1.102-10.771.508-.519-.223-.901-.397-1.407-.607.407-.495.74-.99 1.16-1.386a23.894 23.894 0 012.171-1.857c1.518-1.151 3.16-2.092 5.047-2.476.691-.149 1.357-.111 2.011.198.358.173.753.31 1.148.396 1.246.26 2.393.842 3.27 1.684 1.258 1.2 2.295 2.636 3.418 3.986.073.086.11.223.148.334.469 1.597.937 3.194 1.394 4.79.173.595.284 1.201.432 1.808zm.766 3.776c.308.247.518.928.407 1.312a17.7 17.7 0 01-1.246 3.293c-.445.89-1.05 1.72-1.69 2.488-.827.99-1.568 2.117-2.814 2.649-.654.285-1.333.495-2.085.755.234.124.456.235.69.347-4.75 2.847-11.351.619-14.177-1.956 1.197.396 2.64 1.027 4.146 1.312 1.493.285 2.986.891 4.59.483-.148-.174-.32-.285-.506-.297-.493-.05-1.012 0-1.493-.112-1.431-.346-2.862-.705-4.269-1.139-1.888-.581-3.554-1.498-4.59-3.28-.321-.545-.691-1.052-1.037-1.585a.388.388 0 01-.049-.235c.136-.73.284-1.46.444-2.327.272.21.494.297.555.445.297.669.926.756 1.506.904.703.173 1.764-.73 1.666-1.399-.223-1.708-.21-1.696 1.345-2.525.308-.16.592-.532.69-.867.05-.173-.345-.482-.567-.705-.444-.446-.913-.867-1.345-1.312-.333-.347-.086-.644.21-.793.358-.185.765-.26 1.147-.396.506-.173.74-.582.506-.978a1.686 1.686 0 00-.654-.594c-.604-.322-1.073-.718-1.135-1.448.876-.458 2.678-.644 3.838-.409 1.492.285 2.973.656 4.454.978.123.025.271-.062.407-.086-.086-.124-.16-.322-.271-.347-1.555-.409-3.097-.867-4.665-1.151-.913-.174-1.863-.075-2.8-.087.85-.247 1.715-.483 2.59-.594 1.765-.21 3.468.198 5.072.83 1.592.63 3.097 1.485 4.627 2.252.457.223.913.458 1.32.755 1.11.805 2.234 1.61 3.283 2.501.653.557 1.172 1.287 1.74 1.944.061.074.049.198.073.309-.049.037-.098.087-.135.124-2.123-1.894-4.047-4.073-6.836-5.001-.025.05-.062.099-.087.148.605.421 1.185.929 1.839 1.263 2.147 1.077 3.504 3.058 5.306 4.53zm24.95-1.14c2.615-.272 5.194-.21 7.575 1.065 1.271.681 2.505 1.424 3.74 2.167.505.31.962.693 1.43 1.04a1.606 1.606 0 01-.123.185c-.358-.198-.703-.42-1.061-.606-1.678-.842-3.43-1.449-5.244-1.907-1.604-.396-3.245-.445-4.837-.223-1.32.174-2.653.496-3.912 1.065-2.258 1.015-4.33 2.315-6.157 3.986-.666.607-1.209 1.362-1.863 1.968-1.024.941-1.345 2.253-1.875 3.454-.519 1.188-.802 2.488-1.802 3.454.062-.421.136-.805.173-1.189.296-3.008 1.554-5.62 3.282-8.034.333-.458.617-.965 1.012-1.374 1.443-1.485 2.813-3.057 4.763-3.911a18.072 18.072 0 012.85-.99c.654-.15 1.37-.075 2.048-.15zM49.92 57.86c.098 2.439.604 4.766 1.234 7.08.654 2.415 2.381 4.11 3.837 6.14-.654.075-1.184.137-1.85.211.505-.68.246-1.114-.149-1.522-.345-.347-.79-.644-1.012-1.053a29.751 29.751 0 01-1.567-3.292c-.765-1.882-.938-3.863-.74-5.88.05-.57.16-1.127.247-1.684zm1.197 10.41c-3.209-3.503-3.554-10.905-.84-14.099-1.53 4.865-1.986 9.569.84 14.1zm-.074 2.452c-.691-1.151-1.42-2.179-1.938-3.293-.543-1.139-.937-2.365-1.073-3.64.062-.012.123-.037.185-.049.074.16.136.31.21.47.32.805.592 1.66.987 2.427.506.978 1.147 1.869 1.678 2.835.432.78 1.049 1.349 1.79 1.856a31.175 31.175 0 01-2.16-.272c-.025 0-.025-.062-.037-.087.136-.111.284-.198.358-.247zm-4.085-4.506l1.925 3.416c-.987-.928-1.752-1.993-2.073-3.33.05-.024.099-.062.148-.086zm8.23-18.792c-.431-.024-.839-.136-1.258-.198-.555-.074-1.135-.21-1.654-.111-.518.099-.999.458-1.517.718-.099-.124-.21-.26-.358-.433 1.801-.953 3.936-.966 4.787.024zm.062-6.573c-.247.347-.469.656-.69.953-.334.446-.087.743.258 1.015.334.26.63.347.913-.086.173-.26.42-.483.63-.718.049.024.086.062.135.086-.074.112-.222.248-.197.335.247.841-.456.817-.864.817-.864.012-1.715-.1-2.48.52-.11-1.597.95-2.984 2.295-2.922zm1.222-.668c.308.223.543.408.802.544.21.124.58.137.654.298.222.495.308 1.04.481 1.547.494 1.51.37 2.958-.407 4.357-.074.124-.025.31-.037.47a.893.893 0 00.469-.321c.74-.929.937-2.03.863-3.17-.037-.581.235-.866.654-1.04a6.75 6.75 0 011.617-.482c.938-.148 1.888-.31 2.838-.31 1.258-.012 2.517.038 3.763.211 1.16.161 2.295.495 3.418.817.74.21 1.456.557 2.172.842-.148.396-.296.631-.321.879-.099.78-.173.792-.9.57-1.346-.41-2.703-.744-4.06-1.09-.136-.037-.309.05-.47.087.556.235 1.074.334 1.568.52 1.123.42 2.22.878 3.331 1.349.481.21.53.606.321 1.09-.716-.31-1.382-.657-2.097-.88-.716-.223-1.469-.334-2.197-.495-.025.074-.05.161-.074.235.198.087.383.21.592.273 1.382.383 2.678.928 3.788 1.856.1.087.1.285.148.458-1.443-.47-2.788-.903-4.133-1.349-.025.075-.062.161-.086.235 1.32.669 2.875.916 3.812 2.229L68.428 48.5c-.024.087-.061.161-.086.248.136.074.284.148.432.21 1.283.508 2.579.966 3.825 1.548.802.371 1.505.94 1.616 1.98a433.34 433.34 0 01-4.133-2.042c-.05.074-.1.136-.148.21.098.112.172.26.296.322 1.653.842 3.294 1.709 4.59 3.083.32.346.567.767.839 1.15-.05.038-.099.087-.148.125-.654-.458-1.283-.978-1.974-1.35-.691-.371-1.469-.594-2.21-.879a3.257 3.257 0 01-.11.21c2.9 1.338 5.404 3.133 7.058 6.079-.79-.421-1.48-.817-2.184-1.164-.704-.359-1.42-.668-2.123-1.002-.024.062-.061.123-.086.185.037.05.062.1.099.124 2.307 1.362 4.64 2.699 6.91 4.122.493.31.814.916 1.122 1.436.087.149-.11.47-.172.718-.21.867-.605 1.065-1.444.743a30.184 30.184 0 00-1.37-.483c-.11-.037-.259.037-.394.05v.148c.839.409 1.69.83 2.578 1.263-.21.198-.431.297-.468.446-.16.581-.593.569-1.025.507-.53-.074-1.06-.21-1.591-.322l-2.234-.445v.086c1.395.495 2.801.978 4.27 1.486-.667.953-1.32 1.782-2.246 2.401-.494.322-1 .384-1.505.21-1.247-.445-2.456-.965-3.69-1.435-.469-.186-.95-.347-1.419-.52-.037.087-.061.16-.099.247 1.839.83 3.678 1.672 5.578 2.538-.481.409-.889.867-1.382 1.164-.666.408-1.382.631-2.172.198-.938-.52-1.9-.99-2.862-1.473-.568-.285-1.136-.533-1.703-.805l-.074.149c1.74 1.015 3.467 2.042 5.38 3.169-.58.136-1.086.445-1.432.322-1.345-.47-2.616-1.102-3.739-2.018.025.198-.037.507.074.57.568.383 1.173.68 1.753 1.051.394.26.752.57 1.197.904-.47.21-.827.656-1.173-.025-.024-.062-.222-.037-.333-.05-.234-.024-.493.013-.69-.086-.766-.371-1.506-.792-2.259-1.188-.58-.31-1.172-.632-1.752-.941.284.285.543.594.864.83.863.63 1.752 1.225 2.628 1.844.037.025.037.099.05.148-1.124.483-2.074.136-2.95-.544-.975-.768-1.937-1.56-2.9-2.352-.727-.607-1.456-1.213-2.171-1.82.296.371.58.743.888 1.09.494.532 1.012 1.027 1.53 1.534-2.196-1.077-3.936-2.698-5.466-4.568.284 1.114 1.197 1.758 1.839 2.6.16.21.259.483.382.718-.086.062-.173.124-.259.173-1.888-1.077-3.32-2.636-4.454-4.53.493 1.609 1.665 2.785 2.677 4.246-.543-.013-.913-.025-1.295-.037.024-.05.061-.087.086-.137-.432-.507-.864-1.015-1.296-1.51-.074.05-.135.1-.21.149.297.445.593.903.901 1.398-.567.223-.974.149-1.295-.198a12.482 12.482 0 01-.963-1.176c-.543-.73-1.135-1.436-1.579-2.24-1.259-2.303-1.839-4.816-2.085-7.403-.148-1.56-.148-3.12.358-4.642.21-.619.345-1.275.542-2.043-.555.075-.987.087-1.381.199-.766.222-1.173.841-1.506 1.497-.604 1.213-.925 2.5-1.086 3.863-.21 1.782-.345 3.565-.037 5.347.099.557.247 1.114.395 1.66.148.52.333 1.027.506 1.546-.062.013-.123.013-.185.025-2.43-4.728-2.16-9.42.247-14.038.283-.012.555.025.79-.061.098-.038.172-.335.148-.496-.038-.26-.235-.495-.235-.742 0-.966-.173-1.263-1.074-1.585-.456-.16-.925-.285-1.43-.446.123-.37.147-.829.394-1.015.333-.26.987-.557 1.21-.408.653.47 1.418.433 2.097.693.148.062.32.198.382.347.284.606.568.705 1.074.383.086-.061.271-.049.382 0 .222.1.408.285.63.347.21.05.48.05.654-.037.11-.062.197-.42.123-.52-.21-.297-.481-.594-.79-.767-.395-.236-.863-.372-1.345-.57.111-.16.16-.272.247-.346.79-.681 2.16-.756 3.307-.013.605.396.777.087 1-.346.061-.124.086-.285.185-.384.333-.347.185-.62-.149-.78-.542-.26-1.11-.47-1.678-.656-.308-.112-.654-.136-.987-.21.506-1.09 1.098-1.338 2.123-.83.444.223.69.087 1.036-.161.876-.631.938-1.646 1.21-2.538.11-.359-.075-.817-.655-.83-.234 0-.468-.061-.79-.11.087-.459.161-.793.223-1.04zm-3.48 9.309c-.05.086-.099.173-.136.26-.345-.186-.703-.372-1.048-.57.037-.062.061-.123.098-.185.346.173.716.334 1.086.495zm8.465-8.579c1.234-.247 2.48-.347 3.726-.532.173-.025.333-.149.506-.223-.025-.05-.037-.111-.062-.161-1.073-.235-2.097.272-3.146.248.247-.112.506-.137.74-.223.309-.112.592-.26.889-.396v.012c.296 0 .604.05.888-.012.888-.198 1.752-.421 2.678-.297.85.111 1.74.074 2.578.247 1.308.285 2.592.681 3.875 1.065.333.099.605.322.37.854-1.814-1.312-3.96-1.114-5.997-1.387 1.913.632 4.01.743 5.713 2.006-.16.384-.296.718-.42 1.027-1.554-.408-3.06-.841-4.577-1.163a16.66 16.66 0 00-3.134-.372c-1.185-.037-2.394 0-3.566.149-.975.124-1.925.47-2.888.693-.21.05-.592.087-.604.037-.087-.297-.185-.668.247-.817.69-.272 1.419-.606 2.184-.755zm-2.826-1.275c1.37-.57 2.69-1.127 4.01-1.683.037.074.087.136.124.21-1.506.743-3.023 1.473-4.59 2.24-.223-.148-.506-.358-.889-.618.407-.198.716-.36 1.037-.508.11.136.222.26.308.359zm3.9-2.612c.036.074.073.136.11.21-.493.273-1 .545-1.493.818-.037-.075-.074-.137-.11-.21.493-.273.986-.546 1.492-.818zm9.957 2.265a11.077 11.077 0 01-.802-.123c-.901-.149-1.802-.384-2.703-.409-1.456-.05-2.912-.074-4.343.347-.32.099-.506.185-.543.507-.123-.111-.259-.334-.345-.322-.506.1-1.012.26-1.518.397-.802.235-1.604.47-2.492.718 2.492-2.798 10.784-3.504 12.746-1.115zm-4.874-2.438c2.147-.1 4.22.223 6.083 1.386.568.36 1.049.854 1.542 1.312.087.075.025.297.037.446-.16-.012-.358.012-.48-.062-.556-.346-1.087-.718-1.63-1.077-1.11-.755-2.393-1.126-3.677-1.3-1.505-.198-3.035-.185-4.466-.26.777-.148 1.678-.408 2.59-.445zm7.897 1.72c-3.048-2.315-6.441-2.871-10.13-2.092 0-.05 0-.099.012-.148.061-.05.11-.136.173-.149 1.135-.198 2.27-.557 3.405-.544 1.69.012 3.307.544 4.862 1.2.765.322 1.295.941 1.678 1.733zm7.008-2.178c-.234.408-.444.792-.567 1.015-.654 0-1.098-.025-1.543 0-.469.025-.937.099-1.419.148.309-.953 2.345-1.213 3.53-1.163zm1.086-.941c-1.024.198-2.048.408-3.06.606l-.037-.198c.925-.817 2.036-.458 3.097-.408zm1.42-2.154c.419.16.789.47 1.184.718.308.198.58.396.296.817-.284.433-.592.31-.938.087a28.414 28.414 0 00-1.555-.916c-.185-.1-.407-.137-.79-.26.68-.446 1.222-.669 1.802-.446zm1.517 0c-.778.272-.975-.409-1.42-.68.371-.236 1.124.135 1.42.68zm9.106-3.17c-.222.286-.407.57-.642.818-.604.644-.703 1.399-.333 2.216.062.136 0 .47-.11.52-.346.185-.531.05-.593-.384-.148-.966-.802-1.35-1.555-.891.21.16.395.297.568.445.16.136.432.285.444.446.05.644.481.953.987.99.704.05 1.493.124 2.036-.544.53.359.716.928.518 1.683-.333 1.325-.456 1.424-1.801 1.585-.16-.248-.296-.557-.518-.73-.765-.595-1.506-1.226-2.357-1.672-.716-.371-1.357.347-2.06.483-.334.062-.63.272-.95.42.024.075.036.137.06.211.963-.396 1.938-.804 3.06-.26-1.32.421-2.652.644-3.763 1.436 1.148-.272 2.296-.532 3.443-.804.012.074.037.16.05.235-.038.037-.075.099-.124.124-1.32.383-2.628.755-3.948 1.126-.198.05-.543.1-.543.173-.05.595-.494.421-.815.434-1.172.05-2.344.074-3.516.099-.346.012-.617-.186-.482-.508.173-.408.432-.804.74-1.114.334-.347.84-.545.519-1.238.346.05.605.074.851.136.198.05.383.137.568.223.617.273 1.185.087 1.542-.458.136-.21.383-.371.654-.631.037-.235 0-.669.173-1.003.296-.582.9-.668 1.505-.706.58-.037 1.16-.136 1.74-.198 0-.062 0-.136.013-.198-.087-.074-.16-.21-.247-.223-1.259-.086-2.579-.37-3.492.867-.444-.508-.802-.928-1.172-1.35 1.801-1.633 7.674-2.426 9.55-1.757zM83.778 44.69c-.148.57-.765 1.015-1.271.928-.913-.16-1.505-.68-1.37-1.386.124-.62.395-1.226.691-1.783.173-.322.198-.532-.098-.718a13.512 13.512 0 00-1.099-.594c-.37-.186-.728-.409-.444-.879.309-.508.691-.978 1.074-1.448.05-.062.296-.075.37-.013.728.532 1.431 1.09 2.147 1.659.358.285.654.706 1.049.867 1.493.594 2.936.111 4.355-.384.1-.037.136-.273.247-.532-1.85.581-3.529 1.027-5.145-.013.012-.062.024-.136.037-.198.666.05 1.32.149 1.986.149.852 0 1.69-.1 2.542-.124.938-.037 1.777-.83 2.776-.396.062.025.161-.013.235-.05.839-.495 1.715-.928 2.48-1.51.728-.545.814-.594 1.357.173.111.149.235.285.346.434.728.953.099 2.587-1.086 2.611-.63.013-1.357-.26-1.888-.63-.962-.657-2.48-.286-2.8.853-.087.322.098.718.147 1.077.025.161.05.322.087.496-.062.012-.124.024-.185.024l-.186-.371c-.32-.607-.937-.693-1.381-.161-.198.235-.408.458-.556.73-.345.669-.9.978-1.616 1.028-.247.012-.506-.075-.753-.112.062-.26.136-.52.198-.78.086-.396.222-.804.222-1.2 0-.21-.26-.409-.407-.607-.148.111-.284.248-.445.347a.963.963 0 01-.333.111c-.53.111-.851.446-.975.978-.11.433-.185.928-.308 1.424zm1.666.123c-.037-.012-.025-.012 0 0zm-1.05-.433c.112-.445.198-.891.359-1.312.05-.124.308-.148.469-.223.012.161.074.347.024.47-.185.397-.432.768-.641 1.152a1.505 1.505 0 00-.21-.087zm8.601-6.56c-.925 1.2-5.084 2.475-6.132 1.906 1.999-.62 4.06-1.263 6.132-1.907zm-8.92 1.163c1.282-.136 2.566-.186 3.837-.409 1.246-.222 2.455-.63 3.676-.953-2.344 1.288-4.849 1.783-7.514 1.362zm12.782-8.802c-.629.978-1.197 1.833-1.776 2.736-.247-.705.777-2.277 1.776-2.736zm1.555.285c-.9.953-1.79 1.882-2.74 2.872.42-1.473 1.95-3.07 2.74-2.872zm1.789.545c-.851.879-1.653 1.72-2.468 2.55-.259.272-.493.173-.752-.013-.284-.21-.284-.457-.062-.668.691-.656 1.394-1.3 2.122-1.906.37-.297.802-.26 1.16.037zm1.814.68c-1.456 1.028-2.887 2.043-4.257 3.009.05-.1.123-.334.272-.52.727-.916 1.48-1.783 2.492-2.402.518-.322.987-.433 1.493-.086zm1.407.88c-1.395.693-2.715 1.361-4.035 2.03-.05-.075-.099-.136-.136-.21.222-.199.42-.434.666-.583.778-.47 1.604-.878 2.382-1.361.37-.235.678-.235 1.123.124zm3.763 25.315c.37-.99.753-1.845.999-2.736.371-1.325.889-2.65.716-4.073-.086-.718-.308-1.423-.456-2.141-.321-1.56-.494-3.157-1.296-4.593-.716-1.287-1.357-2.6-2.394-3.701-1.258-1.35-2.702-2.303-4.479-2.798-.37-.099-.703-.322-1.049-.495.025-.062.05-.136.074-.198.716.111 1.444.16 2.147.334 1.321.31 2.592.718 3.64 1.708 1.123 1.053 1.888 2.315 2.394 3.714.296.83.358 1.745.531 2.624.024.124.135.236.247.409.074-.161.123-.21.123-.26.123-1.51-.333-2.897-.889-4.27-.16-.41-.53-.731-.728-1.127-.567-1.127-1.53-1.857-2.529-2.5-1.394-.904-3.048-1.028-4.664-1.19-.395-.036-.79-.061-1.172-.098-.025-.062-.037-.124-.062-.186.432-.384.814-.854 1.296-1.126 1.27-.718 2.566-1.4 3.899-1.981.641-.285 1.345-.235 2.023.148 1.296.756 2.357 1.783 3.369 2.86.407.433.864.904 1.086 1.436.937 2.216 1.234 4.58 1.221 6.97-.012 1.312-.061 2.648-.308 3.936-.321 1.708-.864 3.38-1.296 5.063-.395 1.634-1.246 2.983-2.443 4.27zm-6.466-19.25c1.901.632 3.307 1.931 4.405 3.504 1.247 1.782 2.123 3.775 2.468 5.979.259 1.584.555 3.181.296 4.778-.209 1.238-.604 2.451-.962 3.664-.111.371-.358.706-.543 1.052-.062-.297 0-.532.037-.767.136-.867.16-1.758.407-2.587.457-1.535.333-3.083.013-4.58-.519-2.476-1.481-4.791-3.147-6.747-.814-.966-1.616-1.956-2.492-2.872-.654-.68-1.42-1.263-2.135-1.882.025-.037.037-.074.062-.111.53.186 1.061.384 1.591.57zm-.777 23.15c-1.53.395-3.085.717-4.64 1.051-.296.062-.616.112-.913.087-.777-.074-1.567-.31-2.332-.248-1.394.112-2.566-.334-3.701-1.04-.568-.346-1.11-.78-1.715-1.014-.679-.26-1.062-.78-1.42-1.3a29.315 29.315 0 01-1.727-2.86c-.32-.606-.518-1.287-.74-1.943-.062-.174-.013-.372-.074-.545-.037-.1-.198-.198-.309-.21-.061-.013-.222.16-.21.235.05.495.05 1.027.235 1.473.358.879.839 1.696 1.259 2.55.518 1.052 1.184 2.03 2.097 2.723.938.718 2.011 1.263 3.073 1.808 1.147.594 2.393.755 3.677.841 1.43.1 2.825.161 4.22-.247.666-.198 1.37-.26 2.06-.396a.482.482 0 01-.333.31c-.173.049-.382.024-.53.098-1.765.842-3.69.867-5.566.978-1.172.074-2.344-.099-3.528-.124a.28.28 0 00-.136.037c-.395-.123-.74-.222-.814-.247-1.592-.656-3.233-1.226-4.8-1.919a12.27 12.27 0 01-4.85-3.875c-.925-1.225-1.702-2.574-2.467-3.911-.63-1.114-1.11-2.278-1.395-3.565-.308-1.436-.296-2.86-.32-4.308-.038-1.758.629-3.256 1.406-4.741.037-.075.111-.174.16-.174.766.037.618-.507.618-.953.012-.631.382-1.04 1.011-1.164.173-.037.346-.123.481-.235.95-.73 2-1.102 3.369-.965-.42.544-.802.978-1.123 1.46-.716 1.065-.777 1.585.457 2.142.172.074.358.148.666.285-1.641 1.2-3.097 2.413-4.208 3.973a.797.797 0 01.1.112c1.258-1.077 2.516-2.154 3.7-3.182.05.768-.086 1.51.174 2.08.32.693.357 1.225.135 1.944-.395 1.275-.715 2.587-.888 3.911-.148 1.127-.234 2.328-.05 3.442.21 1.262.79 2.463 1.123 3.726.42 1.522 1.345 2.71 2.32 3.874.605.706.876.73 1.407.285-.074-.074-.124-.16-.21-.21-1.061-.57-1.715-1.535-2.221-2.563-.518-1.027-.876-2.129-1.27-3.206-.58-1.597-1.037-3.23-.655-4.952.272-1.25.642-2.475.987-3.713.087-.297.235-.57.346-.855.123.013.234.013.358.025.049.384.148.768.148 1.151-.013 1.04-.074 2.068-.1 3.108 0 .099.161.21.26.322.086-.112.234-.223.247-.335.099-1.052.16-2.104.271-3.144.025-.26.148-.57.333-.743.667-.68 1.37-1.312 2.135-2.03 1.21.594 2.295.26 2.998-.879.247-.408.617-.742.988-1.176.123.248.16.322.197.384.197.285.395.767.617.792.271.025.605-.334.864-.57.345-.309 0-.556-.148-.78-.346-.507-.223-.94.172-1.311.543-.52 1.074-.52 1.604-.198.531.322 1.099.656 1.69.767.494.1 1.124.013 1.556-.235.876-.508 1.098-1.77.555-2.624-.272-.421-.518-.842-.864-1.4.333-.012.543-.049.74-.012.95.186 1.74.607 2.518 1.226 1.776 1.411 3.393 2.983 4.688 4.815 1.321 1.857 2.32 3.912 2.69 6.19.173 1.077.321 2.203.185 3.28-.209 1.733-.641 3.43-1.011 5.138-.099.445-.247 1.163-.506 1.238-.58.16-.827.618-1.222.928-1.16.891-2.579.965-3.899 1.312zm9.242 2.958c1.172.619 2.505.94 3.763 1.398.235.087.457.199.753.322-.148.1-.197.149-.247.161-1.394.26-2.776.582-4.183.768-1.962.272-3.948.57-5.922.619-2.123.062-4.257-.075-6.38-.248a42.22 42.22 0 01-4.948-.73c-2.171-.446-4.442-.594-6.465-1.585-.876-.433-2.073-.42-2.493-1.597-.802-.334-.123-.718-.098-1.101 1.567.57 3.084 1.139 4.614 1.67.087.026.47.063.926.1.061.074.135.136.21.148.37.087.765.137 1.147.161 3.171.174 6.28 0 9.267-1.238 1.345-.557 2.813-.866 4.084-1.547.925-.495 1.518-.285 2.246.21 1.221.855 2.406 1.795 3.726 2.489zm8.008 1.163c.716-.062 1.419-.111 2.135-.173.012.05.012.111.024.16l-2.11.298a2.354 2.354 0 01-.049-.285zm9.575.694l.111.148c-.407.545-.851 1.077-1.221 1.659-1.074 1.72-2.123 3.466-3.184 5.2a203.06 203.06 0 00-2.48 4.134c-.58 1.002-1.074 2.042-1.666 3.032-.271.459-.691.842-1.049 1.25-.061-.036-.123-.061-.197-.098-.136-.433-.272-.88-.407-1.312-.494-1.709-1.666-3.008-2.777-4.296-.728-.83-1.678-1.473-2.566-2.154-.432-.322-.444-.619-.062-.94.667-.558 1.296-1.19 2.036-1.622a45.752 45.752 0 014.442-2.303c.963-.42 2.036-.582 3.048-.904 1.777-.557 3.554-1.138 5.33-1.708.21-.025.432-.037.642-.087zm-1.086-.78l2.517-.892.111.297c-.839.285-1.69.57-2.529.855a2.301 2.301 0 01-.099-.26zm8.613-3.788c.024.074.049.16.074.235-3.332 1.077-6.651 2.154-9.982 3.23-.025-.073-.05-.16-.074-.234 3.257-1.325 6.601-2.352 9.982-3.231zm46.925 11.388c-1.727.149-3.443.335-5.17.421-1.604.075-3.208.037-4.8.062-1.024.012-2.061.173-2.998-.408-.074-.05-.21-.025-.296 0-1.037.359-1.679-.47-2.518-.694l.037-.185c.42-.025.852-.05 1.271-.062 0-.1 0-.186-.012-.285-.592-.087-1.185-.272-1.764-.248-1.321.075-2.493-.334-3.628-.94-.321-.174-.666-.31-1-.458l.037-.112 12.488-2.042a2.291 2.291 0 01-.025-.297c-.444.012-.901-.037-1.345.024-1 .161-1.974.421-2.974.558-1.246.173-2.529.123-3.751.408-1.604.371-3.183.73-4.824.57-.334-.038-.654-.15-.988-.223.013-.075.013-.161.025-.236 2.801-.322 5.614-.643 8.415-.977-.925-.347-1.863-.31-2.801-.211-1.826.198-3.652.42-5.49.52-.975.05-1.962-.136-2.937-.223-.148-.012-.284-.099-.457-.16 2.999-.397 5.935-.793 8.872-1.19l-.037-.321c-.851.074-1.715.148-2.566.223-1.938.148-3.887.322-5.825.433-.481.025-.962-.16-1.456-.248.013-.061.025-.136.038-.198.172-.012.357-.012.53-.037 1.431-.124 2.887-.185 4.306-.396 2.555-.359 5.084-.83 7.638-1.188 1.061-.149 2.147-.136 3.319-.198-.024-.112 0-.322-.098-.446-.087-.111-.296-.16-.444-.149-.593.038-1.173.112-1.728.161.16-.21.309-.371.407-.544.013-.025-.21-.248-.321-.248-.678.013-1.369.037-2.048.112-2.949.284-5.898.594-8.847.89v-.011c-.79.049-1.567.123-2.357.148-1.332.025-2.677.05-4.01.012-.407-.012-.802-.21-1.345-.371.247-.16.284-.21.346-.223 1.999-.223 3.998-.445 6.009-.644a465.13 465.13 0 015.848-.52c1.419-.11 2.838-.185 4.257-.284.161-.013.309-.062.469-.087.296-.05.654-.223.889-.124 1.579.644 3.134 1.35 4.689 2.055.185.087.308.273.468.409-.814.544-1.826.31-2.652.94.197.075.271.137.345.137.666-.087 1.32-.21 1.987-.272.407-.038.9-.124 1.234.037.802.408 1.542.953 2.344 1.473-.136.16-.259.284-.444.483.222.086.456.26.543.198.123-.087.16-.335.271-.632.913 1.201 2.419 1.647 3.196 3.045-.259.087-.457.174-.666.21-2.332.385-4.665.78-6.997 1.115-.876.124-1.776.111-2.665.173-.099.013-.197.149-.296.236.111.05.234.16.346.148 1.357-.074 2.714-.099 4.071-.248 2.221-.247 4.43-.594 6.651-.866.222-.025.543.074.679.223.321.359.555.792.826 1.2.21.322.149.545-.271.582zm-22.593-8.083c.42-.062.852-.087 1.271-.136l4.368-.446c.457-.05.913-.062 1.382-.087.013.062.013.124.025.174-.321.099-.629.222-.95.284-1.53.26-3.06.595-4.603.73-2.393.224-4.812.323-7.218.446-.247.013-.506-.185-.765-.284.012-.062.025-.124.049-.186 1.777-.148 3.566-.297 5.38-.446-.025-.21-.037-.359-.062-.495.223.495.654.508 1.123.446zm10.945 9.247c.086-.025.173-.074.259-.074 1.974-.05 3.936-.062 5.91-.149 1.74-.062 3.48-.136 5.208-.322 1.135-.124 1.665.075 2.233 1.25-4.603.545-9.131.694-13.61-.705zm18.077 10.052c0 .198 0 .346.012.644-1.493-.62-2.9-1.214-4.294-1.796.025-.074.037-.148.062-.222l3.812-.149c0-.099.013-.198.013-.297-.247-.05-.506-.148-.753-.16-1.629-.1-3.27-.125-4.898-.298-.568-.062-1.099-.483-1.654-.755.025-.062.037-.136.062-.198 1.592-.074 3.196.26 4.787-.087-.617-.186-1.221-.247-1.838-.31-1.234-.11-2.468-.222-3.702-.321l-.987-.074c-.012.061-.025.111-.037.173-.407-.285-.802-.557-1.209-.842.012-.074.037-.136.049-.21 1.777.037 3.554.024 5.318-.297a1.28 1.28 0 00-.715-.248c-.839-.025-1.666-.074-2.505-.025-1.123.075-2.209-.52-3.344-.148-.074.024-.198-.062-.272-.124-.296-.26-.592-.545-.987-.916.605.025 1.098-.025 1.555.062 1.641.297 3.27.148 4.899-.1.148-.024.271-.222.505-.42-.308-.05-.431-.074-.542-.074-.099 0-.198.012-.297.024-2.048.223-4.096.112-6.107-.272-.95-.186-1.839-.668-2.752-1.015a1.901 1.901 0 01-.234-.1c1.579-.036 3.01.087 4.442.063 2.369-.037 4.738-.149 7.095-.285.802-.05 1.591.347 1.924 1.139-.271.111-.542.285-.826.31-.716.049-1.444.036-2.172.049-.407 0-.494.235-.469.57 1.172-.087 2.295-.211 3.43-.236.482-.012 1.123.025 1.419.322.704.706 1.308 1.535 1.851 2.39.728 1.15 1.358 2.351 2.024 3.54.086.16.136.334.222.544-1.024.075-1.95.112-2.887.149zm4.146 1.919c-1.247-.409-2.567-.62-3.752-1.263l.037-.248c1 .1 1.999.186 3.098.297.209.322.444.706.678 1.077a.467.467 0 00-.061.136zm-46-23.41c.789.335.802.372.802.93-.013.977.024 1.955-.013 2.933a216.554 216.554 0 01-.197 4.023c-.049.891-.123 1.783-.185 2.674.062.013.111.013.173.025.308-1.572.432-3.157.506-4.766.074-1.61.185-3.206.283-4.902.185.111.26.148.321.198.802.582.728 1.535.839 2.34.173 1.225.148 2.475.099 3.713-.062 1.449-.247 2.897-.37 4.345-.013.087.037.186.061.273h.223c.185-1.672.444-3.33.518-5.001.086-1.672-.013-3.355-.037-5.064.962.421 1.086.47 1.172 1.337.136 1.387.234 2.786.259 4.172.025 1.176-.074 2.352-.111 3.54 0 .1.086.186.136.285.062 0 .123-.012.185-.012.308-2.674.173-5.373.321-8.096.259.248.518.495.58.792.271 1.288.493 2.588.703 3.9.086.544.099 1.101.136 1.658.074 0 .135-.012.209-.012.63-1.783-.148-3.553-.209-5.422.876.235 1.493.767 1.863 1.523 1.073 2.19 1.518 4.58 2.135 6.92.16.63.308 1.262.468 1.894.062-.013.124-.025.185-.05-.456-2.921-1.147-5.806-1.937-8.69.889.334 1.629.755 1.9 1.72.062.211.186.41.26.62.32.94.654 1.869.937 2.822.235.78.408 1.572.605 2.364.074-.024.16-.037.234-.061-.456-2.03-.913-4.048-1.394-6.19 1.382.557 1.678 1.77 2.11 2.86.444 1.089.79 2.215 1.172 3.33.05-.013.099-.013.148-.025-.382-1.647-.752-3.293-1.147-5.026 1.443.483 2.616 1.126 3.282 2.488a60.582 60.582 0 001.604 3.082c.234.409.568.768.851 1.152l.149-.112c-.778-1.584-1.555-3.156-2.382-4.865 1.246.112 1.987.768 2.505 1.585.716 1.114 1.394 2.277 1.888 3.503.839 2.105 1.517 4.283 2.27 6.425.062.186.161.371.247.557.049-.025.111-.05.16-.074a64.654 64.654 0 00-3.886-10.882c.468.21.95.434 1.172.817.666 1.164 1.258 2.377 1.838 3.59.309.656.556 1.35.852 2.105.197-.891-.987-4.036-1.506-4.37-.024-.408-.049-.718-.074-1.226.568.421 1.209.669 1.456 1.127.667 1.25 1.209 2.587 1.728 3.912.345.866.567 1.77.839 2.649a.929.929 0 00.173-.05c-.284-1.98-1.074-3.837-1.456-5.843.555.322 1.147.632 1.456 1.115.616.965 1.11 2.005 1.604 3.045.37.78.666 1.597.999 2.401l.148-.037c-.284-1.597-1.147-3.02-1.456-4.667 4.936 3.578 10.192 6.363 15.93 8.257-.95.136-1.851.173-2.764.235-1.074.075-2.135.21-3.208.248-1.074.037-2.049.619-3.134.532-.136-.012-.284.1-.432.149-.765.21-1.543.359-2.283.631-1.283.47-2.554.978-3.825 1.51-1.111.458-2.233.867-3.282 1.449-1.345.742-2.777 1.213-4.233 1.572-.913.223-1.924.297-2.838.148-1.764-.272-3.541-.532-5.256-1.151-1.703-.619-3.492-.99-5.219-1.535-.728-.235-1.432-.582-2.098-.953-.654-.371-1.172-.83-.925-1.77.234-.904.308-1.857.407-2.798.21-1.795.395-3.59.58-5.385.061-.544-.099-.903-.518-1.064-.482 3.268-.506 6.585-1.197 9.878-.346-.16-.568-.235-.753-.359-.913-.631-1.802-1.3-2.715-1.931-.123-.087-.32-.074-.444-.1-.148-.21-.259-.457-.444-.63-.42-.409-.888-.78-1.308-1.189-1.764-1.708-2.974-3.75-3.517-6.165-.333-1.498-.419-3.02.223-4.444.641-1.448 1.394-2.847 2.122-4.258.666-1.287 1.394-2.55 2.011-3.862.284-.718.457-1.535.716-2.315zm5.935-1.237c1.11-.235 2.196-.557 3.319-.78 2.492-.483 4.985-.26 7.465.124.987.148 1.925.532 2.887.817a2.486 2.486 0 00-.024.31c-.728.061-1.456.11-2.184.185-1.999.198-3.998.446-5.997.619-2.406.21-4.812.644-7.255.408-.334-.037-.679.186-1.185.322-.333-.297-.814-.718-1.32-1.176.555-.136 1.012-.272 1.481-.359.937-.173 1.887-.272 2.813-.47zm-4.134-7.254c-.863.619-1.604 1.399-2.69 1.708-.826.235-1.591.706-2.418.99-.889.31-1.814.533-2.727.793-.099.024-.21.012-.383.024.445-.656.84-1.225 1.234-1.82.445-.655.889-1.311 1.308-1.992.58-.929 1.148-1.87 1.74-2.786.062-.099.284-.185.395-.148 1.246.42 2.406-.1 3.578-.372.58-.136 1.135-.346 1.703-.52-.716.038-1.382.26-2.073.347-.876.1-1.764.112-2.653.112-.123 0-.382-.372-.358-.397.247-.321.494-.755.839-.879 1.247-.457 2.542-.816 3.813-1.188.629-.186 1.259-.334 1.888-.507-.419-.075-.814-.038-1.209.037-1.185.26-2.369.532-3.554.792-.21.05-.419.062-.666.087.382-1.275 1.11-1.956 2.295-2.191.592-.124 1.16-.347 1.727-.545.506-.173.506-.446.198-.755-.963.42-1.888.817-2.813 1.213l-.112-.186.112-.26c.616-1.374 1.332-2.71 1.826-4.122.518-1.485 1.419-2.612 2.579-3.602.567-.495 1.061-1.077 1.579-1.622-.037-.037-.074-.087-.111-.124l-2.9 2.39c-.012-.409.062-.78.185-1.127.284-.78.445-1.684.938-2.315 1.012-1.287 2.221-2.414 3.332-3.627.296-.334.543-.705.814-1.064-.074.012-.148.012-.185.049-.839.792-1.678 1.597-2.517 2.39-.469.445-.95.878-1.419 1.311l-.148-.111c.185-.854.444-1.696.53-2.563.136-1.547.987-2.76 1.802-3.948.765-1.115 1.74-2.093 2.653-3.108.641-.705 1.283-1.423 1.986-2.055 1.148-1.04 2.357-2.017 3.529-3.032.087-.075.087-.273.124-.409-.136.037-.321.025-.395.1-1.518 1.745-3.554 2.92-4.961 4.802-.95 1.275-2.11 2.402-3.171 3.59-.321.372-.617.755-.925 1.139a1.175 1.175 0 01-.037-.706c.16-.742.506-1.386.913-2.03 1.147-1.844 2.443-3.565 4.047-5.05.136-.124.21-.31.309-.483-1.111 1.176-2.234 2.34-3.332 3.54-.493.545-.913 1.152-1.37 1.733-.061-.024-.111-.062-.172-.086.012-.892 0-1.82.506-2.612.506-.78 1.11-1.498 1.678-2.241.259-.347.53-.68.789-1.015-.086 0-.197-.025-.246.025-.556.594-1.099 1.188-1.654 1.795-.21.235-.432.47-.641.718l-.26-.186c.679-1.61 1.876-2.946 2.505-4.605a613.518 613.518 0 00-2.431 3.194c-.049 0-.098-.013-.148-.025-.037-.94-.086-1.894-.123-2.835.111.087.21.174.321.26.21-.26.469-.507.629-.805.568-1.052 1.111-2.116 1.654-3.18.037-.087.037-.187.061-.273-.037-.013-.061-.037-.098-.05-.79 1.176-1.58 2.352-2.444 3.627-.172-4.308-.37-8.516.519-12.676.703 1.052 1.406 2.092 2.085 3.132 1.11 1.696 2.184 3.404 3.319 5.088.617.928 1.296 1.82 1.962 2.698.383.496.876.916 1.222 1.436 1.122 1.709 1.641 3.628 1.604 5.67-.025 1.647-.087 3.293-.136 4.927-.037 1.213-.062 2.439-.136 3.652a61.07 61.07 0 01-.271 3.008c-.087.755-.161 1.535-.358 2.265-.111.421-.543.743-.728 1.151-.407.929-1.185 1.461-1.937 2.055-.272.21-.432.557-.654.83 0 0 0 .012.012.012.42-.21.839-.42 1.259-.619.037.05.061.1.098.136-.197.372-.345.78-.592 1.102-1.024 1.374-2.048 2.76-3.146 4.085-.926 1.114-1.95 2.154-2.962 3.206-.481.495-1.073.88-1.53 1.4-1.357 1.571-2.739 3.044-4.405 4.233zm14.412-7.44c.05.062.087.136.136.198-.617.409-1.234.805-1.839 1.213a1.654 1.654 0 00-.123-.185c.605-.409 1.209-.817 1.826-1.226zm25.505-10.287c-.457-.334-.753-.631-1.111-.805-.394-.185-.839-.247-1.258-.371.024-.074.037-.136.061-.21.741-.087 2.049.606 2.308 1.386zm-43.261 21.985c-.049-.062-.098-.124-.148-.198.173-.173.333-.371.519-.507.16-.112.382-.149.555-.248 2.48-1.399 4.985-2.736 7.428-4.209 1.875-1.139 3.751-2.24 5.713-3.218 1.666-.842 3.344-1.684 4.738-2.971.308-.285.605-.595.95-.83.309-.21.703-.31 1-.532.925-.706 1.764-1.523 2.726-2.154.963-.631 2.049-1.065 3.073-1.61 1.505-.804 2.974-1.658 4.504-2.426 2.504-1.262 5.034-2.463 7.551-3.7.642-.323 2.011-.013 2.468.606-.987.482-1.913.978-2.887 1.398-1.913.805-3.838 1.573-5.75 2.352-.975.397-1.962.768-2.925 1.201-.74.334-1.431.768-2.159 1.114-.888.434-1.876.718-2.69 1.263-1.641 1.077-3.208 2.253-4.775 3.441-1.851 1.387-3.443 3.145-5.528 4.197-2.283 1.163-4.639 2.179-6.935 3.293-2.122 1.04-4.219 2.129-6.329 3.194-.371.16-.728.358-1.099.544zm-14.634-6.177c.95 1.188 1.802 2.352 2.764 3.404.963 1.052 2.036 2.006 3.171 3.107-2.221 0-3.652-1.052-4.651-2.735-.457-.78-.728-1.684-1.037-2.538-.136-.371-.16-.78-.247-1.238zm-.826-5.286c1.357 3.912 3.442 7.366 6.33 10.349-1.086-.879-2.209-1.733-3.073-2.798-.851-1.052-1.567-2.265-2.135-3.503-.579-1.275-.9-2.661-1.332-3.986.074-.037.148-.05.21-.062zm-.469-11.66c.148.284.222.395.284.52.555 1.336 1.073 2.673 1.665 3.985.395.879.913 1.708 1.37 2.55.271.508.518 1.04.839 1.523.444.668.962 1.287 1.419 1.943.271.384.444.867.79 1.164.937.805 1.382 1.919 1.85 2.97.63 1.412 1.395 2.786 1.518 4.408.074.866.247 1.696-.024 2.587-.321-.495-.58-1.015-.852-1.523-.074-.136-.234-.235-.358-.346-.123.124-.296.247-.345.396-.037.148.024.347.099.495.32.594.653 1.176.987 1.77-.05.062-.087.136-.136.198-.321-.148-.691-.235-.95-.445-1.765-1.4-3.208-3.095-4.418-4.989-1.382-2.191-2.295-4.605-3.269-6.994-.383-.941-.778-1.931-.593-2.959.272-1.522.309-3.02.037-4.543-.123-.656-.074-1.337-.086-2.018.025-.16.099-.346.173-.693zM152 1.188c.025.495.05.83.037 1.163-.012.322-.086.644-.086.966 0 .916.086 1.832.037 2.736-.086 1.795-.284 3.59-.333 5.385-.05 1.67 0 3.342.012 5.013.012 1.523-.086 3.058.086 4.568.186 1.659-.086 3.268-.185 4.902-.049.842-.32 1.671-.456 2.513-.21 1.3-.346 2.624-.592 3.924-.346 1.82-.704 3.64-1.197 5.41-.358 1.25-.531 2.624-1.592 3.553.382.507.074 1.609-.506 1.918-.568-4.927-2.332-11.884-3.294-12.812 1.653 4.716 2.936 9.482 2.603 14.558-.086-.532-.185-1.052-.271-1.585-.087-.012-.173-.012-.247-.025-.222 1.672-.037 3.454-1.074 4.791-.172-1.473-.283-3.033-.543-4.58-.444-2.65-.937-4.098-1.419-4.42.112.446.235.855.321 1.263.333 1.709.741 3.404.95 5.125.124 1.015-.172 2.092-.074 3.107.099 1.053-.617 1.61-.95 2.365-.715-2.612-1.419-5.2-2.122-7.774l-.222.037c.025.185.012.384.074.557.173.532.419 1.052.555 1.597.21.817.346 1.659.543 2.488.321 1.374.506 2.76.234 4.172-.135.693-.431 1.3-1.036 1.795-.049-.124-.074-.149-.074-.186 0-.087.012-.161.025-.248.246-1.522.123-3.033-.519-4.407-.74-1.572-1.616-3.082-2.529-4.567-.987-1.61-2.073-3.145-3.147-4.704-.135-.198-.431-.273-.641-.409.025.235-.013.52.099.706.431.718.9 1.398 1.357 2.092 1.505 2.265 3.233 4.382 4.244 6.957.519 1.3.63 2.6.593 4.06-.111-.124-.161-.16-.185-.21-.531-1.337-1.037-2.699-1.592-4.024-.21-.52-.346-1.188-1.148-1.15 1.025 2.166 2.098 4.295 2.431 6.709.148 1.089-.358 2.277-1.345 2.847.037-.508.161-.99.087-1.46-.272-1.845-.778-3.616-1.604-5.312-.84-1.72-1.925-3.243-3.048-4.778-.555-.767-1.135-1.535-1.629-2.352-.555-.916-1.086-1.857-1.53-2.847-.79-1.758-1.493-3.553-2.221-5.323-.074-.186-.062-.42-.086-.57.678 1.115 1.357 2.266 2.085 3.38a58.565 58.565 0 002.357 3.367c.715.94 1.53 1.795 2.245 2.724.469.606.852 1.274 1.247 1.918.234.384.419.792.654 1.164.061.099.271.124.407.173.012-.148.074-.297.037-.42a3.187 3.187 0 00-.333-.719 391.833 391.833 0 00-3.221-4.592c-1.234-1.721-2.505-3.417-3.714-5.15-.345-.495-.555-1.102-.79-1.671-.296-.718-.592-1.436-.839-2.166-.061-.174.05-.397.087-.681.469.891.863 1.646 1.283 2.389.407.743.839 1.473 1.259 2.203.148.26.333.421.567.1-.419-.731-.876-1.437-1.234-2.18-.407-.866-.728-1.782-1.073-2.673-.037-.087-.062-.248-.013-.297.383-.396.148-.73-.049-1.102-.062-.1-.049-.26-.025-.384.161-.545.297-1.102.531-1.622.703-1.535 1.481-3.02 2.64-4.27.198-.223.223-.607.432-.83.408-.445.889-.829 1.308-1.262 1.271-1.325 2.419-2.724 3.319-4.345.827-1.486 1.617-3.058 2.727-4.32 1.716-1.944 3.714-3.628 5.541-5.46 1.332-1.337 2.751-2.587 3.812-4.184.58-.817 1.234-1.634 1.962-2.624z" fill="#202124"/></g><defs><clipPath id="clip0"><path fill="#fff" d="M0 0h193v154.196H0z"/></clipPath></defs></svg>