<svg width="251" height="119" fill="none" xmlns="http://www.w3.org/2000/svg"><path d="M59.517 43.35v11.507h-.086L47.493 43.09h-.107v15.315h.99V46.898h.085L60.4 58.664h.108V43.349h-.99zM49.343 69.92h9.013v7.486h1.957V62.349h-1.957v6.582h-9.013v-6.582h-1.957v15.057h1.957V69.92zM144.594 102.765h9.013v7.485h1.957V95.193h-1.957v6.582h-9.013v-6.582h-1.957v15.057h1.957v-7.485zm28.26-7.572v11.508h-.086L160.83 94.935h-.108v15.315h.99V98.743h.086l11.938 11.765h.107V95.193h-.989zM185.692 114.056h-7.42l3.048-3.404c.269-.323.554-.672.855-1.049.312-.376.597-.774.855-1.194.259-.419.474-.855.646-1.306a3.87 3.87 0 00.258-1.388c0-.742-.199-1.333-.597-1.774-.387-.441-.887-.662-1.5-.662-.366 0-.672.07-.92.21-.236.14-.435.328-.597.565a2.5 2.5 0 00-.338.806c-.076.302-.13.619-.162.952h-1.613c0-.452.091-.876.274-1.274.183-.398.436-.742.758-1.033.334-.29.721-.516 1.162-.677a3.915 3.915 0 011.436-.258c.58 0 1.102.086 1.565.258a3.25 3.25 0 011.161.677c.312.291.549.629.71 1.017.172.376.258.774.258 1.193 0 .527-.054.979-.161 1.355a3.787 3.787 0 01-.484 1.097c-.215.345-.5.71-.855 1.097-.344.388-.764.85-1.259 1.388l-2.097 2.242h5.017v1.162zM179.917 12.472c0 .803.151 1.663.452 2.58a7.844 7.844 0 001.463 2.517c.659.775 1.498 1.42 2.516 1.936 1.018.502 2.237.753 3.657.753.961 0 1.828-.115 2.602-.344a8.356 8.356 0 002.108-.968 7.702 7.702 0 001.635-1.377 8.018 8.018 0 001.119-1.656 8.038 8.038 0 00.666-1.764 6.467 6.467 0 00.237-1.677c0-.803-.165-1.656-.495-2.56a7.752 7.752 0 00-1.527-2.538c-.688-.774-1.563-1.412-2.624-1.914-1.047-.517-2.287-.775-3.721-.775-1.42 0-2.639.251-3.657.753-1.018.502-1.857 1.14-2.516 1.914a7.552 7.552 0 00-1.463 2.517c-.301.918-.452 1.785-.452 2.603zm2.108 0c0-1.004.151-1.922.452-2.754.315-.846.738-1.57 1.269-2.172a5.741 5.741 0 011.914-1.398 5.538 5.538 0 012.388-.516c.846 0 1.642.172 2.387.516.76.33 1.42.796 1.979 1.398a6.546 6.546 0 011.355 2.172c.33.832.495 1.75.495 2.754s-.165 1.928-.495 2.774a6.596 6.596 0 01-1.355 2.151 6.111 6.111 0 01-1.979 1.42 5.832 5.832 0 01-2.387.495 5.742 5.742 0 01-2.388-.495 6.012 6.012 0 01-1.914-1.42 6.923 6.923 0 01-1.269-2.15c-.301-.847-.452-1.771-.452-2.775zM70.204 12.472c0 .803.15 1.663.452 2.58a7.858 7.858 0 001.463 2.517c.66.775 1.498 1.42 2.516 1.936 1.018.502 2.237.753 3.657.753.96 0 1.828-.115 2.603-.344a8.371 8.371 0 002.108-.968 7.7 7.7 0 001.634-1.377 8.012 8.012 0 001.119-1.656 8.057 8.057 0 00.666-1.764 6.479 6.479 0 00.237-1.677c0-.803-.165-1.656-.495-2.56a7.744 7.744 0 00-1.527-2.538c-.688-.774-1.563-1.412-2.624-1.914-1.047-.517-2.287-.775-3.721-.775-1.42 0-2.639.251-3.657.753-1.018.502-1.857 1.14-2.516 1.914a7.564 7.564 0 00-1.463 2.517c-.301.918-.452 1.785-.452 2.603zm2.108 0c0-1.004.15-1.922.452-2.754.316-.846.739-1.57 1.27-2.172a5.738 5.738 0 011.913-1.398 5.536 5.536 0 012.388-.516c.846 0 1.642.172 2.388.516.76.33 1.42.796 1.978 1.398a6.57 6.57 0 011.356 2.172c.33.832.494 1.75.494 2.754s-.165 1.928-.495 2.774a6.62 6.62 0 01-1.355 2.151 6.114 6.114 0 01-1.978 1.42 5.836 5.836 0 01-2.388.495 5.74 5.74 0 01-2.388-.495 6.008 6.008 0 01-1.914-1.42 6.94 6.94 0 01-1.269-2.15c-.301-.847-.452-1.771-.452-2.775zM215.075 63.472c0 .803.151 1.663.452 2.58a7.863 7.863 0 001.463 2.517c.659.775 1.498 1.42 2.516 1.936 1.019.502 2.237.753 3.657.753.961 0 1.828-.115 2.603-.344a8.388 8.388 0 002.108-.968 7.695 7.695 0 001.634-1.377 8.018 8.018 0 001.119-1.656 8.093 8.093 0 00.667-1.764 6.507 6.507 0 00.236-1.677c0-.803-.165-1.657-.495-2.56a7.717 7.717 0 00-1.527-2.538c-.688-.774-1.563-1.413-2.624-1.914-1.047-.517-2.287-.775-3.721-.775-1.42 0-2.638.251-3.657.753-1.018.502-1.857 1.14-2.516 1.914a7.568 7.568 0 00-1.463 2.517c-.301.918-.452 1.785-.452 2.603zm2.108 0c0-1.004.151-1.922.452-2.754.316-.846.739-1.57 1.269-2.172a5.742 5.742 0 011.914-1.398 5.542 5.542 0 012.388-.516c.846 0 1.642.172 2.388.516.76.33 1.419.796 1.978 1.398a6.566 6.566 0 011.356 2.172c.329.832.494 1.75.494 2.754 0 1.003-.165 1.928-.494 2.774a6.615 6.615 0 01-1.356 2.151 6.107 6.107 0 01-1.978 1.42 5.84 5.84 0 01-2.388.495c-.86 0-1.656-.165-2.388-.495a6.012 6.012 0 01-1.914-1.42 6.962 6.962 0 01-1.269-2.15c-.301-.847-.452-1.772-.452-2.775zm19.966.043h9.013V71h1.957V55.943h-1.957v6.582h-9.013v-6.582h-1.957V71h1.957v-7.485z" fill="#202124"/><path d="M162.744 64.773l-29.058-16.73-29.058 16.73L80.751 49.56m81.993 15.215l-3.522 19.812h6.604l-3.082-19.813zm0 0l22.425-15.215m23.805 12.573l-17.611-12.573m0 0l-3.276-1.802-2.918 1.802m6.194 0v-23.09m-6.194 23.09v-23.09M1 64.773l25.382-16.73L43.656 58.74m37.095-9.181l-2.378-1.516L62.407 58.74m18.344-9.181v-23.09m-5.653 23.768V26.47" stroke="#202124" stroke-width="1.613"/></svg>