<svg width="32" height="32" fill="none" xmlns="http://www.w3.org/2000/svg"><path d="M20.094 5.683c-.607.643-1.051 1.429-1.617 2.106-.422.505-.761 1.063-.845 1.723-.161 1.267.405 2.505.706 3.71.242.966.577 1.903.792 2.87.136.609.313 1.245.545 1.826.211.528.44 1.012.67 1.527.246.555.615 1.096.937 1.611.173.276.256.598.416.878.057.1.097.153.107.165a1.624 1.624 0 00-.153-.152c-.227-.204-.688-.36-.974-.495-1.548-.726-2.952-1.733-4.505-2.455-1.434-.668-3.033-.72-4.587-.72-.905 0-1.919.077-2.802.264-.979.208-1.937.29-2.891.63-.294.106-.717.351-.558.713.158.362.566.33.911.367 1.357.145 2.826.847 4.007 1.505.671.374 1.311.787 1.937 1.244.621.454 1.267.816 1.878 1.28.382.292.694.628 1 1 .387.472.97.9 1.435 1.3.807.697 1.803 1.013 2.68 1.598 1.001.668 2.18 1.197 3.38 1.327.872.094 1.546-.008 2.399-.178.154-.031.479-.149.627-.116.231.052.347.543.505.71.475.501 1.103.71 1.723.963.542.222.906.12 1.422-.165.636-.35 1.326-.826 1.815-1.366.48-.53.613-1.823-.161-2.165-.223-.098-.43-.237-.654-.33-.069-.028-.303-.05-.343-.119-.201-.352-.351-.702-.356-1.115-.007-.516-.06-1.02-.06-1.538 0-.48.099-.952.056-1.44-.078-.899-.447-1.745-.739-2.59a7.648 7.648 0 00-.92-1.871c-.62-.903-1.49-1.663-2.067-2.594-.166-.27-.363-.603-.607-.805-.452-.375-.736-.981-1.099-1.44-.345-.435-.524-1.044-.809-1.524-.213-.36-.498-.744-.676-1.119-.19-.4-.553-.76-.832-1.099-.174-.213-.272-.432-.422-.653-.199-.293-.461-.544-.617-.865-.201-.412-.153-.93-.294-1.363-.098-.301-.119-.628-.244-.92-.046-.106-.087-.373-.175-.417l.06.297z" fill="#9CC69B"/><path d="M15.203 5.947c.841.655 1.87 1.186 2.515 2.053l.297.535c0 .337-.269.627-.353.924-.103.358-.063.842-.063 1.21 0 1.313.6 2.479.977 3.717.468 1.537.401 3.146.818 4.69.092.337.296.575.489.858.061.09.626.786.6.812-.048.048-.709-.358-.775-.386-.597-.259-1.172-.556-1.766-.822-1.246-.56-2.565-1.142-3.967-1.142-1.515 0-2.993-.297-4.511-.297-.312 0-.513.023-.776-.132-.224-.132-.425-.29-.653-.416-.49-.272-.881-.827-1.34-1.162-.631-.46-1.17-1.082-1.584-1.749-.336-.539-.616-1.149-.875-1.732-.308-.693-.645-1.382-.924-2.09-.522-1.324-.861-2.703-1.426-4.006-.349-.805-.731-1.613-.934-2.469-.18-.762-.072-1.466.06-2.23.055-.324.316-.95.666-1.05.369-.106.7-.132 1.083-.132 1.09 0 2.17.415 3.254.415.73 0 1.498.506 2.135.802.59.274 1.17.558 1.789.773.685.237 1.327.65 1.944 1.026.595.362 1.245.62 1.842.977.516.31 1.002.653 1.478 1.023z" fill="#FAD67C"/><g clip-path="url(#clip0)" fill="#414550"><path d="M15.104 22.17a.626.626 0 01.884.884.625.625 0 11-.884-.883zM16.99 23.808a.625.625 0 01.882-.057c2.795 2.454 5.499 2.837 6.965 2.42a.625.625 0 01.342 1.202c-.448.128-.945.19-1.471.19a7.975 7.975 0 01-2.234-.34c-1.517-.446-3.048-1.322-4.426-2.533a.625.625 0 01-.057-.882z"/><path d="M.807 7.081C-.285 4.07-.27 1.973.853.851 1.96-.257 4.027-.28 6.993.78c2.28.815 5.055 2.28 7.612 4.02a32.288 32.288 0 013.552 2.794 10.718 10.718 0 012.04-2.89.625.625 0 01.957.796c-.233.34-.27 1.284.391 2.83.544 1.27 1.76 3.408 4.462 6.37 2.671 2.93 4.735 6.945 3.87 10.757l1.574 1.574c.73.73.73 1.92 0 2.651l-1.767 1.767a1.874 1.874 0 01-2.652 0l-1.569-1.57c-3.66.826-7.651-1.06-10.426-3.636-3.056-2.837-5.264-4.12-6.578-4.697-1.598-.7-2.572-.67-2.92-.43a.625.625 0 01-.796-.957c.789-.789 1.796-1.435 2.948-1.9a32.2 32.2 0 01-2.76-3.464C3.154 12.218 1.65 9.407.808 7.081zm27.109 23.485c.244.244.64.244.884 0l1.767-1.767a.625.625 0 000-.884l-1.133-1.134a5.45 5.45 0 01-1.015 1.512c-.291.33-.929.822-1.63 1.145l1.127 1.128zM7.269 19.835a8.974 8.974 0 011.692.566c2.011.883 4.406 2.586 6.926 4.926 4.31 4.002 9.386 4.346 11.587 2.146.5-.5.884-1.19 1.11-1.993.822-2.918-.486-6.633-3.5-9.937-2.233-2.447-3.854-4.771-4.688-6.721a8.606 8.606 0 01-.545-1.7 9.89 9.89 0 00-1.345 3.273c-.323 1.513-.091 3.463.654 5.49.803 2.185 2.139 4.335 3.862 6.216a.625.625 0 01-.882.883c-4.014-3.677-8.93-5.119-13.152-3.857a9.03 9.03 0 00-1.72.708zm1.73-2.008c3.518-.924 7.314-.16 10.54 1.692-1.947-3.236-2.827-6.707-2.256-9.385.095-.442.217-.88.364-1.308a30.713 30.713 0 00-3.744-2.993c-2.474-1.683-5.146-3.096-7.33-3.877-2.403-.859-4.12-.938-4.837-.221-.728.728-.641 2.475.245 4.92.808 2.23 2.259 4.938 3.98 7.43a30.515 30.515 0 003.038 3.742z"/><path d="M14.21 10.708l.883-.884a.625.625 0 01.884.884l-.884.883a.625.625 0 01-.884-.883zM9.792 15.126l.883-.884a.625.625 0 01.884.884l-.883.883a.625.625 0 01-.884-.883zM10.234 11.15l.883-.884a.625.625 0 01.884.884l-.883.883a.625.625 0 11-.884-.883zM13.767 14.684l.884-.883a.625.625 0 01.884.883l-.884.884a.625.625 0 01-.884-.884zM6.7 7.614l.883-.883a.625.625 0 01.884.883l-.884.884a.625.625 0 01-.883-.884zM4.048 4.963l.884-.883a.625.625 0 01.884.884l-.884.883a.625.625 0 01-.884-.884zM10.676 7.173l.884-.884a.625.625 0 01.883.884l-.883.883a.625.625 0 01-.884-.883zM6.256 11.59l.884-.883a.625.625 0 01.884.884l-.884.884a.625.625 0 01-.884-.884z"/></g><defs><clipPath id="clip0"><path fill="#fff" transform="matrix(-1 0 0 1 32 0)" d="M0 0h32v32H0z"/></clipPath></defs></svg>