<svg width="35" height="34" fill="none" xmlns="http://www.w3.org/2000/svg"><path d="M20.846 10.482c.19-2.003-.417-4.252.052-6.223.136-.57.066-1.193.066-1.778 0-.821-.244-.638-1.02-.656-1.64-.038-3.282 0-4.947 0H13.16c-.642 0-1.183-.22-1.377.481-.448 1.627-.262 3.426-.262 5.1 0 .833-.104 3.084.816 3.367.931.287 2.088.102 3.06.102h2.281c.642 0 1.34.083 1.975-.007.286-.041.95-.213 1.183-.313l-.003-.073h.014zM23.968 13.122c-1.557 0-3.125-.048-4.673-.048-1.018 0-2.043-.103-3.052-.002-1.093.109-.963 2.187-.893 2.936.08.87.097 1.75.155 2.621.044.662.26 1.35.26 2.007 0 .285-.06.704.059.972.078.177.327.15.492.166.919.09 1.865.14 2.787.163.589.015 1.178-.003 1.767.003.432.004.836.059 1.27.01.596-.066 1.173-.273 1.77-.295.438-.016.342-.813.342-1.077 0-1.376-.045-2.76.003-4.135.035-1.024-.003-2.056-.003-3.084l-.284-.237zM12.447 13.027c-1.727-.116-3.452-.18-5.18-.071-.492.031-.975.071-1.468.071-.374 0-.746.047-1.122.047-.128 0-.408-.05-.516.058-.096.096-.097.401-.103.52-.021.45-.05.896-.05 1.348 0 1.076-.017 2.168.116 3.237.057.453.023.92.027 1.375.002.394.047.785.047 1.18 0 .341.017.698.058 1.037.015.124-.026.597.126.575.733-.11 1.445-.274 2.186-.34.631-.056 1.267-.046 1.9-.1.548-.048 1.106-.024 1.656-.024h2.205c.154 0 .43.06.508-.095.167-.333.168-.78.19-1.143.04-.68.036-1.348 0-2.028-.049-.925-.01-1.852-.01-2.774 0-.503-.048-.998-.048-1.5 0-.307-.031-.599-.048-.899-.007-.128-.074-.464-.19-.521l-.284.047zM9.422 24.543c-1.815-.042-3.602.118-5.414.189-.45.018-.925-.046-1.372.029-.392.065-.813-.024-1.212-.024-.18 0-.364-.01-.545 0-.15.009-.018 1.816-.01 1.965.04.777.058 1.55.058 2.328 0 .729.237 1.446.237 2.178 0 .457-.083.9-.095 1.352-.003.11-.14.429 0 .51.196.116.468.144.687.174.497.069 1 .122 1.502.122 1.317 0 2.632-.048 3.948-.048.494 0 .999-.034 1.49-.084.136-.014.353-.012.48-.069.323-.143.208-.913.226-1.2.048-.732-.084-1.477-.084-2.208 0-1.025-.047-2.054-.047-3.081 0-.516-.052-1.062.037-1.57.032-.189.074-.375.114-.563zM13.111 24.595c2.673-.197 5.355-.142 8.033-.142.139 0 .398-.05.517.026.132.084.117.608.126.738.04.56.163 1.108.187 1.672.016.384-.044.78-.082 1.162-.035.362.018.728-.02 1.09-.046.418-.072.829-.096 1.248-.033.585-.084 1.163-.084 1.75 0 .164.094.706-.01.837-.063.078-.1.315-.208.34-.404.09-.927-.005-1.33-.021-.938-.04-1.874-.074-2.811-.119-.743-.035-1.49-.122-2.23-.142-.466-.013-.934 0-1.4 0-.155 0-.158-.521-.163-.622-.02-.465-.07-.927-.095-1.39-.034-.664.045-1.328.045-1.992v-3.013c0-.25.015-.508-.002-.758-.009-.117-.008-.527-.093-.57l-.284-.094zM24.869 24.5c2.431-.442 4.894-.9 7.374-.9.251 0 .485.07.722.152l.014.005c.13.045.29.1.339.232.15.402.308.802.387 1.227.115.619.08 1.266.077 1.892-.007 1.495-.426 2.869-.748 4.314a4.637 4.637 0 00-.106.97v.5c0 .086.011.127-.074.165-.397.181-1.06.139-1.48.156-1.752.072-3.515-.084-5.262-.084h-.922c-.065 0-.213.033-.224-.056-.044-.352-.003-.733-.003-1.088 0-.9-.007-1.815-.084-2.712-.07-.818-.033-1.645-.116-2.46-.07-.692-.132-1.379-.132-2.076l.238-.237z" fill="#E5EFF8"/><mask id="a" fill="#fff"><rect x="11.379" y="1" width="10.241" height="10.241" rx="1"/></mask><rect x="11.379" y="1" width="10.241" height="10.241" rx="1" stroke="#414550" stroke-width="2.6" mask="url(#a)"/><mask id="b" fill="#fff"><rect x="3.414" y="12.379" width="10.241" height="10.241" rx="1"/></mask><rect x="3.414" y="12.379" width="10.241" height="10.241" rx="1" stroke="#414550" stroke-width="2.6" mask="url(#b)"/><mask id="c" fill="#fff"><rect x="14.793" y="12.379" width="10.241" height="10.241" rx="1"/></mask><rect x="14.793" y="12.379" width="10.241" height="10.241" rx="1" stroke="#414550" stroke-width="2.6" mask="url(#c)"/><mask id="d" fill="#fff"><rect y="23.759" width="10.241" height="10.241" rx="1"/></mask><rect y="23.759" width="10.241" height="10.241" rx="1" stroke="#414550" stroke-width="2.6" mask="url(#d)"/><mask id="e" fill="#fff"><rect x="12.517" y="23.759" width="10.241" height="10.241" rx="1"/></mask><rect x="12.517" y="23.759" width="10.241" height="10.241" rx="1" stroke="#414550" stroke-width="2.6" mask="url(#e)"/><mask id="f" fill="#fff"><rect x="23.896" y="23.759" width="10.241" height="10.241" rx="1"/></mask><rect x="23.896" y="23.759" width="10.241" height="10.241" rx="1" stroke="#414550" stroke-width="2.6" mask="url(#f)"/></svg>