<svg width="34" height="35" fill="none" xmlns="http://www.w3.org/2000/svg"><path d="M16.505 7.16c.308 2.038 1.982 3.428 3.527 4.706.431-.45.984-.82 1.51-1.083.831-.415 1.705-.659 2.654-.538 1.386.176 2.893-.134 4.249.26.945.274 1.98.779 2.749 1.408.597.488 1.347.963 1.725 1.644.249.447.217 1.206.217 1.696 0 .833-.079 1.654-.087 2.49-.008.89-.086 1.774-.086 2.668 0 .319.069.734-.02 1.043-.162.569-.107 1.224-.22 1.816-.105.546-.108 1.085-.236 1.625-.25 1.051-.621 2.363-1.216 3.283-1.31 2.024-2.836 3.532-4.97 4.628-.717.369-1.483.593-2.201.952a4.933 4.933 0 01-2.183.52c-.529 0-1.13.075-1.653-.02-.413-.075-.92-.074-1.312-.197-.72-.225-1.515-.242-2.216-.562-1.076-.493-2.228-1.093-3-2.029-.331-.403-1.018-1.011-1.018-1.562v-1.59c0-.607.178-1.042-.48-1.13-1.156-.154-2.465-.622-3.5-1.168-.543-.287-1.016-.677-1.595-.909a4.194 4.194 0 01-1.279-.802c-1.042-.996-1.647-2.266-2.278-3.528-.3-.598-.76-1.057-1.125-1.606-.53-.796-.912-1.716-1.293-2.59-.518-1.189-.822-2.278-.822-3.562 0-1.215.033-2.526.24-3.72.218-1.25.642-2.596 1.11-3.788.262-.662.605-1.363.967-1.98.281-.479.594-.719.97-1.096.683-.682 1.725-1.297 2.712-1.297 1.447 0 2.956.002 4.383.24 2.06.343 4.395.476 5.23 2.74.342.93.4 2.057.547 3.037z" fill="#E3D2B7"/><path d="M.226 7.285c.437-2.424 1.596-4.2 3.648-5.588A10.015 10.015 0 018.277.072c1.615-.194 3.226.006 4.657.578 2.617 1.045 4.462 3.259 5.197 6.234.427 1.727 1.16 3.013 1.982 4.134 1.297-1.135 2.98-1.807 4.814-1.911a9.066 9.066 0 015.566 1.52c1.858 1.258 2.908 2.866 3.303 5.061.354 1.966.183 4.213-.033 7.058-.032.429-.066.87-.098 1.318-.202 3.157-1.977 6.048-4.997 8.142-2.536 1.758-5.747 2.791-8.648 2.791-.096 0-.193 0-.288-.003-2.092-.05-3.944-.83-5.356-2.254-1.163-1.172-1.96-2.73-2.274-4.425a17.927 17.927 0 01-6.195-2.704c-3.344-2.319-5.31-5.518-5.533-9.01l-.11-1.472c-.24-3.164-.43-5.664-.038-7.844zm19.537 26.342c1.958.047 4.095-.44 6.037-1.341-.618-.462-1.407-1.173-1.653-1.928a.688.688 0 01.418-.866.66.66 0 01.84.431c.16.489 1.083 1.244 1.745 1.649.265-.16.525-.326.777-.5 2.671-1.852 4.238-4.373 4.413-7.103.033-.456.066-.899.1-1.33.133-1.766.25-3.302.228-4.649-.164.02-.34.03-.523.03-.86 0-1.87-.22-2.466-.669a.697.697 0 01-.143-.955.652.652 0 01.928-.148c.433.326 1.52.476 2.122.377-.23-2.052-.976-3.606-2.823-4.855-2.439-1.65-6.299-1.929-8.815.311.155.19.311.376.467.561.542.647 1.054 1.258 1.519 1.937 1.272 1.859 1.733 4.246 1.351 6.56l.005.004c.394.36 1.661.542 2.425.53h.007c.363 0 .66.302.664.677a.675.675 0 01-.657.69h-.03c-.238 0-1.724-.02-2.748-.518-.142.443-.315.88-.522 1.303-1.48 3.02-4.252 4.8-7.608 4.88a14.785 14.785 0 01-2.302-.134c.668 2.581 2.745 4.972 6.244 5.056zM1.698 16.504v.005c.196 3.061 1.955 5.89 4.951 7.968a16.211 16.211 0 002.95 1.611c.329-.89 1.16-1.85 1.794-2.177a.655.655 0 01.891.306.693.693 0 01-.297.917c-.357.184-.948.903-1.142 1.42 1.647.544 3.35.822 4.945.784 2.85-.068 5.202-1.573 6.453-4.128 1.26-2.575 1.105-5.653-.395-7.843-.427-.625-.919-1.21-1.438-1.832-1.333-1.59-2.844-3.393-3.566-6.314-.52-2.103-1.552-3.441-2.64-4.293-.472.699-1.461 1.423-2.244 1.61a.669.669 0 01-.796-.512.684.684 0 01.498-.82c.466-.112 1.133-.623 1.413-1a7.331 7.331 0 00-.621-.282 8.032 8.032 0 00-2.975-.554c-1.708 0-3.447.503-4.876 1.47C2.148 4.5 1.42 6.631 1.337 9.594l.027.018c.634.477 2.281.658 2.962.424a.66.66 0 01.84.432.688.688 0 01-.42.865c-.325.111-.757.166-1.228.166-.714 0-1.518-.127-2.174-.378.037 1.178.135 2.472.244 3.902.036.48.074.973.11 1.48z" fill="#414550"/><path d="M15.531 12.104a.677.677 0 01.623.723.672.672 0 01-.703.642c-.716-.045-2.261.568-2.754 1.199a.656.656 0 01-.933.104.697.697 0 01-.102-.961c.781-1 2.782-1.775 3.869-1.707zM17.748 19.372a.697.697 0 01.143-.956c.789-.593 2.38-.744 3.17-.472.348.12.536.506.42.864a.66.66 0 01-.84.433c-.432-.149-1.562-.025-1.965.278a.648.648 0 01-.928-.147zM8.715 7.547c.367 0 .664.306.664.683a.674.674 0 01-.664.684.674.674 0 01-.664-.684c0-.377.297-.683.664-.683zM6.726 16.433c.367 0 .665.306.665.683a.674.674 0 01-.665.684.674.674 0 01-.664-.684c0-.377.298-.683.664-.683zM12.565 18.347c.367 0 .665.306.665.683a.674.674 0 01-.665.684.674.674 0 01-.664-.684c0-.377.297-.683.664-.683zM27.706 25.045c.367 0 .664.306.664.684a.674.674 0 01-.664.684.674.674 0 01-.664-.684c0-.377.297-.684.664-.684zM25.843 13.698a.674.674 0 01-.663-.683c0-.378.297-.684.663-.684h.001c.367 0 .664.306.664.684a.674.674 0 01-.665.683zM19.074 29.83c.367 0 .664.306.664.684a.674.674 0 01-.664.683.674.674 0 01-.664-.683c0-.378.297-.684.664-.684zM18.011 22.037c.367 0 .664.306.664.684a.674.674 0 01-.664.683.674.674 0 01-.664-.683c0-.378.297-.684.664-.684z" fill="#414550"/></svg>