<svg width="260" height="193" fill="none" xmlns="http://www.w3.org/2000/svg"><path d="M35.982 157.994h65.538v32.112H0V0h35.982v157.994zM110.782 118.431c0-14.386 2.827-27.146 8.482-38.278 5.825-11.133 13.621-19.696 23.388-25.69 9.938-5.995 20.989-8.992 33.154-8.992 10.624 0 19.876 2.141 27.758 6.423 8.053 4.282 14.478 9.676 19.276 16.185V47.784h36.239v142.322H222.84v-20.809c-4.626 6.68-11.052 12.246-19.276 16.699-8.053 4.281-17.391 6.422-28.015 6.422-11.994 0-22.959-3.082-32.897-9.248-9.767-6.166-17.563-14.815-23.388-25.947-5.655-11.304-8.482-24.234-8.482-38.792zm112.058.514c0-8.735-1.714-16.185-5.14-22.35-3.427-6.337-8.054-11.133-13.879-14.387-5.826-3.425-12.08-5.138-18.762-5.138s-12.851 1.627-18.505 4.881c-5.654 3.254-10.281 8.05-13.879 14.387-3.427 6.165-5.14 13.53-5.14 22.093s1.713 16.099 5.14 22.607c3.598 6.337 8.225 11.218 13.879 14.644 5.826 3.425 11.994 5.138 18.505 5.138 6.682 0 12.936-1.627 18.762-4.882 5.825-3.425 10.452-8.22 13.879-14.386 3.426-6.337 5.14-13.873 5.14-22.607z" fill="#FAF6F0"/></svg>