<svg height="512" width="512" xmlns="http://www.w3.org/2000/svg"><path d="M512 200.946v-93.591c0-9.122-7.395-16.516-16.516-16.516H16.516l-8.849 16.516v93.591l17.104 22.022h462.456z" fill="#f2f2f6"/><path d="M0 107.355v93.591l16.516 14.683V90.839C7.395 90.839 0 98.233 0 107.355z" fill="#e1e1e6"/><path d="M7.817 311.054v86.43c0 9.122 7.395 16.516 16.516 16.516h471.151L512 404.645v-93.591l-24.77-22.022H24.774z" fill="#e5646e"/><path d="M16.516 355.097v-58.724L0 311.054v93.591c0 9.122 7.395 16.516 16.516 16.516h478.968c9.121 0 16.516-7.394 16.516-16.516H66.065c-27.365 0-49.549-22.183-49.549-49.548z" fill="#db4655"/><path d="M8.667 297l7.849 14.053H512V200.946H16.516l-7.849 17.387z" fill="#5055a0"/><path d="M0 200.946h16.516v110.107H0z" fill="#3f3f8f"/></svg>