<svg width="180" height="31" fill="none" xmlns="http://www.w3.org/2000/svg"><path d="M9.775 21.77a2.666 2.666 0 012.666-2.665h13.107a2.666 2.666 0 012.666 2.666v5.776a2.666 2.666 0 01-2.666 2.666H12.441a2.666 2.666 0 01-2.666-2.666V21.77z" fill="#7055DC"/><path d="M9.997 2.666A2.666 2.666 0 0112.662 0h9.553a2.666 2.666 0 012.666 2.666v9.552a2.666 2.666 0 01-2.666 2.666h-9.553a2.666 2.666 0 01-2.665-2.666V2.666z" fill="#58CAA8"/><path d="M0 11.33a2.666 2.666 0 012.666-2.666H17.55a2.666 2.666 0 012.666 2.666v12.218a2.666 2.666 0 01-2.666 2.666H2.666A2.666 2.666 0 010 23.548V11.33z" fill="#EC348C"/><path d="M24.88 19.105a2.666 2.666 0 012.665-2.666h2a2.666 2.666 0 012.666 2.666v2.221a2.666 2.666 0 01-2.666 2.666h-2a2.666 2.666 0 01-2.666-2.666v-2.221z" fill="#F90"/><path d="M56.332 11.177c-.914-1.677-2.572-2.483-4.746-2.483-1.14 0-2.152.258-3.035.772-.883.515-1.573 1.251-2.07 2.208-.496.956-.744 2.06-.744 3.31 0 1.288.248 2.41.745 3.366.515.956 1.223 1.692 2.124 2.207.901.515 1.95.772 3.145.772 2.898 0 4.9-1.686 5.342-4.441h-6.5v-2.952H61.02c.216 4.125-1.156 7.88-4.939 9.849-1.324.68-2.814 1.02-4.469 1.02-1.858 0-3.54-.413-5.048-1.24a9.36 9.36 0 01-3.532-3.505c-.846-1.49-1.269-3.181-1.269-5.076 0-1.894.423-3.586 1.27-5.076.864-1.508 2.04-2.676 3.53-3.504 1.509-.846 3.182-1.269 5.022-1.269 2.17 0 4.055.534 5.655 1.6 1.6 1.049 2.704 2.53 3.31 4.442h-4.219zM70.665 24.888c-1.471 0-2.796-.322-3.973-.965a7.243 7.243 0 01-2.786-2.787c-.662-1.195-.993-2.575-.993-4.138 0-1.563.34-2.943 1.02-4.138a7.188 7.188 0 012.842-2.759c1.195-.662 2.529-.993 4-.993 1.472 0 2.805.33 4 .993a7.002 7.002 0 012.815 2.759c.698 1.195 1.048 2.575 1.048 4.138 0 1.563-.359 2.943-1.076 4.138a7.331 7.331 0 01-2.87 2.787c-1.195.643-2.537.965-4.027.965zm0-3.366c.699 0 1.352-.165 1.959-.496.625-.35 1.122-.864 1.49-1.545.367-.68.551-1.508.551-2.483 0-1.453-.386-2.566-1.158-3.338-.755-.791-1.683-1.186-2.787-1.186-1.103 0-2.032.395-2.786 1.186-.736.772-1.104 1.885-1.104 3.338s.359 2.575 1.076 3.366c.736.772 1.655 1.159 2.759 1.159zM88.258 24.888c-1.471 0-2.796-.322-3.973-.965a7.244 7.244 0 01-2.786-2.787c-.662-1.195-.993-2.575-.993-4.138 0-1.563.34-2.943 1.02-4.138a7.188 7.188 0 012.842-2.759c1.195-.662 2.529-.993 4-.993 1.472 0 2.805.33 4 .993a7.002 7.002 0 012.815 2.759c.698 1.195 1.048 2.575 1.048 4.138 0 1.563-.359 2.943-1.076 4.138a7.33 7.33 0 01-2.87 2.787c-1.195.643-2.537.965-4.027.965zm0-3.366c.699 0 1.352-.165 1.959-.496.625-.35 1.121-.864 1.49-1.545.367-.68.551-1.508.551-2.483 0-1.453-.386-2.566-1.159-3.338-.754-.791-1.682-1.186-2.786-1.186-1.103 0-2.032.395-2.786 1.186-.736.772-1.104 1.885-1.104 3.338s.359 2.575 1.076 3.366c.736.772 1.655 1.159 2.759 1.159zM98.07 16.943c0-1.545.304-2.915.911-4.11.626-1.196 1.472-2.116 2.538-2.76 1.067-.643 2.253-.965 3.559-.965.993 0 1.941.22 2.842.662.901.423 1.618.993 2.152 1.71V4.225h3.917V24.64h-3.917v-2.262c-.478.754-1.15 1.36-2.014 1.82-.865.46-1.867.69-3.007.69a6.565 6.565 0 01-3.532-.993c-1.066-.662-1.912-1.59-2.538-2.786-.607-1.214-.91-2.603-.91-4.166zm12.029.055c0-.938-.184-1.738-.551-2.4-.368-.68-.865-1.196-1.49-1.545a3.908 3.908 0 00-2.014-.552c-.717 0-1.38.175-1.986.524-.607.35-1.104.865-1.49 1.545-.368.662-.552 1.453-.552 2.373 0 .92.184 1.729.552 2.428.386.68.883 1.204 1.49 1.572a3.855 3.855 0 001.986.552c.717 0 1.388-.175 2.014-.524a4.017 4.017 0 001.49-1.545c.367-.68.551-1.49.551-2.428zM121.378 21.192h7.035v3.448h-10.897V4.225h3.862v16.967zM129.408 16.943c0-1.545.303-2.915.91-4.11.625-1.196 1.462-2.116 2.511-2.76 1.066-.643 2.253-.965 3.558-.965 1.141 0 2.134.23 2.98.69.864.46 1.554 1.039 2.069 1.738v-2.18h3.89V24.64h-3.89v-2.235c-.496.718-1.186 1.315-2.069 1.794-.864.46-1.867.69-3.007.69a6.56 6.56 0 01-3.531-.994c-1.049-.662-1.886-1.59-2.511-2.786-.607-1.214-.91-2.603-.91-4.166zm12.028.055c0-.938-.184-1.738-.552-2.4-.367-.68-.864-1.196-1.489-1.545a3.908 3.908 0 00-2.014-.552c-.718 0-1.38.175-1.987.524-.607.35-1.103.865-1.489 1.545-.368.662-.552 1.453-.552 2.373 0 .92.184 1.729.552 2.428.386.68.882 1.204 1.489 1.572a3.86 3.86 0 001.987.552c.717 0 1.388-.175 2.014-.524a4.008 4.008 0 001.489-1.545c.368-.68.552-1.49.552-2.428zM152.715 11.59c.497-.735 1.177-1.333 2.042-1.792.883-.46 1.885-.69 3.007-.69 1.306 0 2.483.322 3.531.965 1.067.644 1.904 1.564 2.511 2.76.625 1.176.938 2.547.938 4.11 0 1.563-.313 2.952-.938 4.166-.607 1.195-1.444 2.124-2.511 2.786-1.048.662-2.225.993-3.531.993-1.14 0-2.143-.22-3.007-.662-.846-.46-1.527-1.048-2.042-1.765v2.179h-3.862V4.225h3.862v7.366zm8.084 5.353c0-.92-.193-1.71-.58-2.373-.368-.68-.864-1.195-1.489-1.545a3.915 3.915 0 00-1.987-.524c-.699 0-1.361.184-1.986.552-.607.35-1.104.864-1.49 1.545-.368.68-.552 1.48-.552 2.4 0 .92.184 1.72.552 2.4.386.68.883 1.205 1.49 1.573a4.01 4.01 0 001.986.524c.717 0 1.38-.184 1.987-.552.625-.368 1.121-.892 1.489-1.572.387-.68.58-1.49.58-2.428zM173.147 24.888c-1.25 0-2.372-.22-3.365-.662-.994-.46-1.784-1.076-2.373-1.848a4.703 4.703 0 01-.938-2.566h3.89c.073.589.359 1.076.855 1.462.515.386 1.15.58 1.904.58.735 0 1.306-.148 1.71-.442.423-.294.635-.671.635-1.13 0-.497-.258-.865-.773-1.105-.496-.257-1.296-.533-2.4-.827-1.14-.276-2.078-.561-2.814-.855a5 5 0 01-1.876-1.352c-.515-.607-.772-1.426-.772-2.456 0-.845.239-1.618.717-2.317.497-.699 1.195-1.25 2.097-1.655.919-.405 1.995-.607 3.227-.607 1.821 0 3.274.46 4.359 1.38 1.086.9 1.683 2.124 1.794 3.668h-3.697c-.055-.606-.313-1.085-.773-1.434-.441-.368-1.039-.552-1.793-.552-.699 0-1.241.129-1.628.386-.367.258-.551.617-.551 1.076 0 .515.257.91.772 1.187.515.257 1.315.524 2.4.8 1.104.276 2.014.56 2.732.855a4.663 4.663 0 011.848 1.38c.533.606.809 1.416.828 2.427a4 4 0 01-.745 2.373c-.479.699-1.177 1.25-2.097 1.655-.901.386-1.959.58-3.173.58z" fill="#202124"/></svg>