<svg width="312" height="193" fill="none" xmlns="http://www.w3.org/2000/svg"><path d="M72.22 192.418c-13.707 0-26.043-2.997-37.01-8.991-10.965-6.166-19.618-14.815-25.958-25.947C3.084 146.348 0 133.503 0 118.945c0-14.558 3.17-27.403 9.51-38.535 6.51-11.133 15.335-19.696 26.472-25.69 11.137-6.166 23.56-9.249 37.267-9.249 13.707 0 26.13 3.083 37.267 9.249 11.137 5.994 19.875 14.557 26.215 25.69 6.511 11.132 9.766 23.977 9.766 38.535 0 14.558-3.341 27.403-10.023 38.535-6.511 11.132-15.421 19.781-26.729 25.947-11.138 5.994-23.646 8.991-37.524 8.991zm0-31.342c6.512 0 12.594-1.541 18.249-4.624 5.825-3.254 10.451-8.049 13.878-14.386 3.427-6.337 5.141-14.044 5.141-23.121 0-13.53-3.599-23.892-10.795-31.085-7.025-7.365-15.678-11.047-25.958-11.047-10.28 0-18.934 3.682-25.959 11.047-6.853 7.193-10.28 17.555-10.28 31.085 0 13.53 3.341 23.977 10.023 31.342 6.854 7.193 15.421 10.789 25.702 10.789zM163.639 118.431c0-14.386 2.827-27.146 8.481-38.278 5.826-11.133 13.708-19.696 23.646-25.69 9.938-5.995 20.989-8.992 33.154-8.992 9.253 0 18.077 2.056 26.473 6.166 8.395 3.94 15.078 9.248 20.047 15.928V0h36.496v190.106H275.44V169.04c-4.455 7.022-10.709 12.674-18.762 16.956-8.053 4.281-17.391 6.422-28.015 6.422-11.994 0-22.959-3.082-32.897-9.248-9.938-6.166-17.82-14.815-23.646-25.947-5.654-11.304-8.481-24.234-8.481-38.792zm112.058.514c0-8.735-1.714-16.185-5.141-22.35-3.426-6.337-8.053-11.133-13.878-14.387-5.826-3.425-12.08-5.138-18.762-5.138-6.683 0-12.851 1.627-18.505 4.881-5.654 3.254-10.281 8.05-13.879 14.387-3.427 6.165-5.14 13.53-5.14 22.093s1.713 16.099 5.14 22.607c3.598 6.337 8.225 11.218 13.879 14.644 5.825 3.425 11.994 5.138 18.505 5.138 6.682 0 12.936-1.627 18.762-4.882 5.825-3.425 10.452-8.22 13.878-14.386 3.427-6.337 5.141-13.873 5.141-22.607z" fill="#FAF6F0"/></svg>