<svg width="49" height="51" fill="none" xmlns="http://www.w3.org/2000/svg"><g opacity=".7"><path d="M29.16 11.427c-.5.588-1.388 1.34-1.949 1.867.766.128 1.52.327 2.288.45 1.015.16 2.07.261 3.1.285.49.012.983.053 1.47.108.138.016.241.11.347.194.482.38.768.952 1.16 1.412.397.464.79.91 1.257 1.307.437.372.86.751 1.317 1.1.51.392 1.016.766 1.466 1.228.688.706 1.23 1.535 1.916 2.243.7.72 1.504 1.352 2.243 2.032.502.462 1.01.918 1.523 1.368-.26.373-1.041.943-1.342 1.285-.656.747-1.282 1.546-2.024 2.212-.233.21-.424.414-.616.662-.105.134-.217-.066-.28-.147-.139-.178-.317-.283-.472-.438-1.065-1.064-2.094-2.164-3.157-3.23-.555-.558-1.104-1.08-1.736-1.549-.436-.323-.86-.66-1.257-1.031-.483-.454-1.007-1.05-1.264-1.673-.007-.016-.02-.11-.02-.061 0 .309-.037.615-.037.923 0 .954-.208 1.906-.265 2.86-.077 1.253-.07 2.513-.094 3.77-.018.868-.06 1.763-.007 2.63.015.236.111.498.166.727.136.573.317 1.145.502 1.704.201.607.341 1.231.556 1.834l.012.034c.225.633.453 1.273.784 1.859.5.886.973 1.813 1.401 2.735.488 1.049 1.042 2.064 1.502 3.127.482 1.116.834 2.27 1.145 3.445.25.943.628 1.992.605 2.986-.002.09-.246.017-.286.012-.586-.06-1.197.013-1.78.047-1.235.073-2.46.224-3.696.292-.566.032-1.148.084-1.715.056-.043-.002-.148-.001-.182-.043-.048-.059-.054-.236-.082-.31-.138-.382-.204-.81-.31-1.204-.122-.453-.29-.876-.45-1.317-.264-.734-.45-1.49-.747-2.214-.596-1.454-1.03-2.954-1.567-4.428-.433-1.188-.914-2.361-1.39-3.533-.655-1.611-1.471-3.152-2.126-4.763a4.02 4.02 0 01-.192-.635c-.02-.087-.017-.027-.043.018-.237.412-.434.846-.621 1.283-.29.676-.465 1.378-.772 2.046-.64 1.39-1.261 2.79-1.744 4.24-.308.923-.477 1.877-.75 2.81-.302 1.035-.726 2.049-1.13 3.048-.437 1.085-.763 2.208-1.168 3.304-.13.352-.313.68-.557.964-.157.183-.38.246-.541.413-.103.107-.175.385-.303.45-.147.073-.391.058-.547.057-.306-.003-.605 0-.909 0-.808 0-1.629-.04-2.432-.119a23.932 23.932 0 01-1.96-.265c-.046-.01-.569-.027-.583-.078-.071-.248.215-.65.32-.862.231-.461.548-.867.777-1.336.09-.187.102-.41.15-.612.065-.268.142-.535.193-.805.148-.782.38-1.545.614-2.304.093-.302.127-.622.215-.927.249-.869.431-1.696.743-2.545.095-.142.133-.33.184-.496.087-.282.196-.546.276-.832.19-.674.153-1.44-.094-2.1-.168-.446.129-1 .338-1.391l.011-.022c.314-.586.682-1.145.99-1.736a38.616 38.616 0 001.506-3.251c.17-.414.208-.958.208-1.462 0-1.672.007-3.344 0-5.016-.004-1.084-.09-2.165-.11-3.248-.003-.17-.026-.178-.151-.09-.235.167-.471.33-.707.495-.396.276-.817.502-1.182.823-.639.56-1.195 1.202-1.847 1.754-.503.426-1.034.845-1.509 1.303-.36.348-.623.792-.938 1.18-.472.584-.97 1.151-1.568 1.61-.274.21-.569.396-.856.588-.11.074-.227.169-.355.213-.185.063-.152-.078-.19-.213-.012-.04-.121-.095-.153-.116a2.785 2.785 0 01-.478-.405 2.7 2.7 0 00-1.554-.819c-.183-.03-.455.018-.623-.059-.168-.076-.248-.337-.315-.486-.199-.446-.294-.746-.294-1.22v-.393c0-.17.318-.404.42-.525.151-.178.254-.37.395-.558.351-.469.773-.844 1.154-1.287.291-.338.609-.65.898-.99.407-.477.88-.87 1.304-1.324.494-.527 1.057-1.028 1.67-1.413.377-.237.766-.456 1.152-.678.125-.072.246-.114.25-.27.004-.221.01-.258.13-.445.32-.498.99-.864 1.483-1.156.625-.37 1.286-.636 1.891-1.05.587-.4 1.194-.792 1.834-1.102.593-.289 1.221-.524 1.87-.63.45-.072.844-.28 1.304-.322.492-.045.99-.017 1.48-.086.226-.032.137-.112.058-.265a5.111 5.111 0 00-.415-.699c-.255-.35-.63-.598-.935-.903-.535-.535-1.002-1.2-1.373-1.856-.209-.37-.396-.774-.451-1.201-.056-.44-.054-.882-.094-1.322-.062-.68-.076-1.467.139-2.12.224-.682.517-1.223 1.109-1.65.537-.387 1.03-.759 1.683-.919.674-.165 1.394-.147 2.083-.147.445 0 .888-.008 1.332.029.378.031.76.052 1.131.138.404.095.777.296 1.152.466.408.186.822.323 1.164.621.317.276.649.53.96.813.414.376.673.832 1.005 1.274.233.31.418.628.457 1.022.08.78.111 1.604-.085 2.369-.07.272-.217.522-.31.788-.1.284-.22.56-.385.809-.123.188-.21.398-.343.58-.108.148-.257.26-.376.4z" fill="#F4E7D4"/><path d="M28.257 23.29c-.907 1.113-2.32 1.879-3.482 2.708-.145-.29-.377-.492-.632-.68-.466-.343-.918-.73-1.361-1.104-.272-.228-.49-.505-.75-.745-.215-.199-.47-.344-.677-.552-.33-.33-.626-.812-.835-1.226-.373-.738-.46-1.807.478-2.081.25-.073.652.017.906.04.486.044.972.1 1.45.191.312.06.697.06.935.297.084.084.129.35.264.274.161-.091.331-.163.493-.25.463-.25.862-.613 1.357-.804.765-.297 2.029-.098 2.594.554.666.769.38 1.631-.02 2.434-.17.34-.48.65-.72.944z" fill="#E99AA4"/><path fill-rule="evenodd" clip-rule="evenodd" d="M18.398 12.875c-1.939 0-3.76.755-5.131 2.126l-9.725 9.725a.584.584 0 000 .825l4.171 4.172a.584.584 0 00.826 0l8.18-8.18v9.337l-6.642 19.094a.584.584 0 00.552.776h7.508c.249 0 .47-.158.551-.392l6.156-17.695 6.93 17.715 8.536.117a.584.584 0 00.061-.542l-7.468-19.085v-9.325l8.18 8.18a.584.584 0 00.826 0l4.171-4.172a.584.584 0 000-.825L36.355 15a7.205 7.205 0 00-5.132-2.126h-2.676l.498-.438a6.404 6.404 0 002.19-4.818 6.431 6.431 0 00-6.424-6.423 6.431 6.431 0 00-6.424 6.423c0 1.918.85 3.639 2.19 4.818l.497.438h-2.676zm14.334 6.845a.585.585 0 00-.997.413v10.845c0 .072.014.145.04.213l7.197 18.39h-6.254l-7.363-18.815a.585.585 0 00-.544-.372h-.013a.585.585 0 00-.538.392l-6.538 18.796H11.45l6.404-18.412a.582.582 0 00.033-.192V20.133a.584.584 0 00-.997-.413l-8.764 8.764-3.345-3.346 9.312-9.311a6.05 6.05 0 014.305-1.784h12.825a6.05 6.05 0 014.306 1.784l9.312 9.311-3.345 3.346-8.764-8.764zM24.811 2.364a5.261 5.261 0 015.256 5.255 5.261 5.261 0 01-5.256 5.256 5.261 5.261 0 01-5.256-5.256 5.261 5.261 0 015.256-5.255z" fill="#353535"/><path fill-rule="evenodd" clip-rule="evenodd" d="M28.791 19.438c-1.009-.957-2.657-.958-3.666 0l-.314.297-.314-.297c-1.007-.957-2.657-.958-3.665 0A2.435 2.435 0 0020.83 23l3.578 3.395a.582.582 0 00.804 0l3.577-3.395a2.435 2.435 0 00.001-3.563zm-4.382 1.526h.804l.715-.68c.57-.54 1.49-.538 2.06.001.261.248.41.58.41.934 0 .355-.149.687-.411.935l-3.176 3.014-3.177-3.014a1.284 1.284 0 01-.41-.935c0-.354.149-.686.41-.934.287-.272.66-.405 1.03-.405s.743.134 1.03.405l.715.679z" fill="#353535"/><path d="M7.893 9.037c.287-.286.584-.568.887-.842l.774.875c-.283.256-.56.519-.827.785l-.834-.818zM11.5 6.076l.64.977c-.314.21-.626.43-.931.658l-.708-.928c.328-.245.662-.482.999-.707zM14.494 4.368l.493 1.06c-.343.163-.683.337-1.016.517l-.568-1.02c.358-.195.723-.38 1.091-.557zM5.634 11.64c.243-.326.498-.648.758-.96l.89.756a22.6 22.6 0 00-.706.894l-.942-.69zM3.771 14.54c.195-.357.4-.711.613-1.06l.99.621c-.198.324-.39.655-.571.987L3.77 14.54zM2.345 17.679c.14-.378.292-.759.454-1.137l1.068.471c-.15.352-.292.706-.422 1.058l-1.1-.392zM1.672 19.8l1.125.312a22.91 22.91 0 00-.264 1.109l-1.146-.231c.086-.4.18-.799.285-1.19zM1.028 23.186l1.16.147c-.044.375-.079.755-.104 1.135L.92 24.404c.026-.408.063-.816.11-1.218zM2.045 26.609c.01.381.03.763.06 1.14L.94 27.85a24.833 24.833 0 01-.064-1.222l1.168-.02zM1.455 31.261c-.09-.399-.17-.802-.24-1.202l1.154-.185c.064.372.138.747.222 1.118l-1.136.27zM3.16 33.056c.118.36.246.72.382 1.075l-1.085.43c-.147-.38-.284-.767-.41-1.153l1.113-.352zM3.926 37.682a24.44 24.44 0 01-.573-1.082l1.051-.51c.17.342.349.68.533 1.01l-1.011.582zM5.104 39.569l.967-.654c.217.313.442.62.673.92l-.918.723c-.247-.321-.49-.653-.722-.99zM7.264 42.256l.864-.786c.256.275.523.549.797.816l-.806.845c-.295-.287-.581-.58-.855-.875zM42.345 42.27c-.278.299-.564.592-.856.875l-.805-.847c.272-.264.54-.537.798-.815l.863.787zM43.539 38.93l.967.655c-.23.333-.473.664-.723.988l-.917-.723c.233-.302.458-.61.673-.92zM44.675 37.116c.186-.332.365-.669.534-1.007l1.05.51c-.18.362-.372.724-.572 1.08l-1.012-.583zM46.454 33.08l1.113.351c-.127.389-.265.775-.41 1.153l-1.085-.433c.135-.351.263-.71.382-1.072zM47.025 31.017c.083-.37.158-.743.223-1.117l1.153.188c-.07.4-.15.802-.24 1.199l-1.136-.27zM47.515 27.776c.03-.378.05-.758.061-1.137l1.168.02c-.011.407-.033.816-.065 1.221l-1.164-.104zM48.597 23.216c.046.402.082.81.108 1.22l-1.167.061c-.024-.38-.057-.76-.1-1.136l1.159-.145zM48.24 21.02l-1.144.228a22.642 22.642 0 00-.264-1.108l1.126-.312c.104.393.199.792.283 1.192zM47.287 17.707l-1.1.392a22.13 22.13 0 00-.422-1.058l1.07-.472c.16.375.311.756.452 1.138zM45.254 13.506c.212.347.416.702.611 1.06l-1.032.548a22.549 22.549 0 00-.57-.988l.99-.62zM43.248 10.703c.26.313.514.635.758.962l-.943.689a22.957 22.957 0 00-.706-.896l.891-.755zM40.09 9.09l.773-.876c.3.271.597.554.887.844l-.834.817c-.27-.27-.547-.533-.827-.786zM37.507 7.069l.64-.977c.34.229.675.466.999.709l-.71.927a23 23 0 00-.93-.66zM34.661 5.44l.494-1.059a23.8 23.8 0 011.09.558l-.569 1.02a22.617 22.617 0 00-1.015-.52zM39.827 50.75a.585.585 0 00.483-.255l-8.535-.117a.585.585 0 00.544.372h7.508z" fill="#353535"/><path d="M29.16 11.427c-.5.588-1.388 1.34-1.949 1.867.766.128 1.52.327 2.288.45 1.015.16 2.07.261 3.1.285.49.012.983.053 1.47.108.138.016.241.11.347.194.482.38.768.952 1.16 1.412.397.464.79.91 1.257 1.307.437.372.86.751 1.317 1.1.51.392 1.016.766 1.466 1.228.688.706 1.23 1.535 1.916 2.243.7.72 1.504 1.352 2.243 2.032.502.462 1.01.918 1.523 1.368-.26.373-1.041.943-1.342 1.285-.656.747-1.282 1.546-2.024 2.212-.233.21-.424.414-.616.662-.105.134-.217-.066-.28-.147-.139-.178-.317-.283-.472-.438-1.065-1.064-2.094-2.164-3.157-3.23-.555-.558-1.104-1.08-1.736-1.549-.436-.323-.86-.66-1.257-1.031-.483-.454-1.007-1.05-1.264-1.673-.007-.016-.02-.11-.02-.061 0 .309-.037.615-.037.923 0 .954-.208 1.906-.265 2.86-.077 1.253-.07 2.513-.094 3.77-.018.868-.06 1.763-.007 2.63.015.236.111.498.166.727.136.573.317 1.145.502 1.704.201.607.341 1.231.556 1.834l.012.034c.225.633.453 1.273.784 1.859.5.886.973 1.813 1.401 2.735.488 1.049 1.042 2.064 1.502 3.127.482 1.116.834 2.27 1.145 3.445.25.943.628 1.992.605 2.986-.002.09-.246.017-.286.012-.586-.06-1.197.013-1.78.047-1.235.073-2.46.224-3.696.292-.566.032-1.148.084-1.715.056-.043-.002-.148-.001-.182-.043-.048-.059-.054-.236-.082-.31-.138-.382-.204-.81-.31-1.204-.122-.453-.29-.876-.45-1.317-.264-.734-.45-1.49-.747-2.214-.596-1.454-1.03-2.954-1.567-4.428-.433-1.188-.914-2.361-1.39-3.533-.655-1.611-1.471-3.152-2.126-4.763a4.02 4.02 0 01-.192-.635c-.02-.087-.017-.027-.043.018-.237.412-.434.846-.621 1.283-.29.676-.465 1.378-.772 2.046-.64 1.39-1.261 2.79-1.744 4.24-.308.923-.477 1.877-.75 2.81-.302 1.035-.726 2.049-1.13 3.048-.437 1.085-.763 2.208-1.168 3.304-.13.352-.313.68-.557.964-.157.183-.38.246-.541.413-.103.107-.175.385-.303.45-.147.073-.391.058-.547.057-.306-.003-.605 0-.909 0-.808 0-1.629-.04-2.432-.119a23.932 23.932 0 01-1.96-.265c-.046-.01-.569-.027-.583-.078-.071-.248.215-.65.32-.862.231-.461.548-.867.777-1.336.09-.187.102-.41.15-.612.065-.268.142-.535.193-.805.148-.782.38-1.545.614-2.304.093-.302.127-.622.215-.927.249-.869.431-1.696.743-2.545.095-.142.133-.33.184-.496.087-.282.196-.546.276-.832.19-.674.153-1.44-.094-2.1-.168-.446.129-1 .338-1.391l.011-.022c.314-.586.682-1.145.99-1.736a38.616 38.616 0 001.506-3.251c.17-.414.208-.958.208-1.462 0-1.672.007-3.344 0-5.016-.004-1.084-.09-2.165-.11-3.248-.003-.17-.026-.178-.151-.09-.235.167-.471.33-.707.495-.396.276-.817.502-1.182.823-.639.56-1.195 1.202-1.847 1.754-.503.426-1.034.845-1.509 1.303-.36.348-.623.792-.938 1.18-.472.584-.97 1.151-1.568 1.61-.274.21-.569.396-.856.588-.11.074-.227.169-.355.213-.185.063-.152-.078-.19-.213-.012-.04-.121-.095-.153-.116a2.785 2.785 0 01-.478-.405 2.7 2.7 0 00-1.554-.819c-.183-.03-.455.018-.623-.059-.168-.076-.248-.337-.315-.486-.199-.446-.294-.746-.294-1.22v-.393c0-.17.318-.404.42-.525.151-.178.254-.37.395-.558.351-.469.773-.844 1.154-1.287.291-.338.609-.65.898-.99.407-.477.88-.87 1.304-1.324.494-.527 1.057-1.028 1.67-1.413.377-.237.766-.456 1.152-.678.125-.072.246-.114.25-.27.004-.221.01-.258.13-.445.32-.498.99-.864 1.483-1.156.625-.37 1.286-.636 1.891-1.05.587-.4 1.194-.792 1.834-1.102.593-.289 1.221-.524 1.87-.63.45-.072.844-.28 1.304-.322.492-.045.99-.017 1.48-.086.226-.032.137-.112.058-.265a5.111 5.111 0 00-.415-.699c-.255-.35-.63-.598-.935-.903-.535-.535-1.002-1.2-1.373-1.856-.209-.37-.396-.774-.451-1.201-.056-.44-.054-.882-.094-1.322-.062-.68-.076-1.467.139-2.12.224-.682.517-1.223 1.109-1.65.537-.387 1.03-.759 1.683-.919.674-.165 1.394-.147 2.083-.147.445 0 .888-.008 1.332.029.378.031.76.052 1.131.138.404.095.777.296 1.152.466.408.186.822.323 1.164.621.317.276.649.53.96.813.414.376.673.832 1.005 1.274.233.31.418.628.457 1.022.08.78.111 1.604-.085 2.369-.07.272-.217.522-.31.788-.1.284-.22.56-.385.809-.123.188-.21.398-.343.58-.108.148-.257.26-.376.4z" fill="#F4E7D4"/><path d="M28.257 23.29c-.907 1.113-2.32 1.879-3.482 2.708-.145-.29-.377-.492-.632-.68-.466-.343-.918-.73-1.361-1.104-.272-.228-.49-.505-.75-.745-.215-.199-.47-.344-.677-.552-.33-.33-.626-.812-.835-1.226-.373-.738-.46-1.807.478-2.081.25-.073.652.017.906.04.486.044.972.1 1.45.191.312.06.697.06.935.297.084.084.129.35.264.274.161-.091.331-.163.493-.25.463-.25.862-.613 1.357-.804.765-.297 2.029-.098 2.594.554.666.769.38 1.631-.02 2.434-.17.34-.48.65-.72.944z" fill="#E99AA4"/></g><path fill-rule="evenodd" clip-rule="evenodd" d="M18.398 12.875c-1.939 0-3.76.755-5.131 2.126l-9.725 9.725a.584.584 0 000 .825l4.171 4.172a.584.584 0 00.826 0l8.18-8.18v9.337l-6.642 19.094a.584.584 0 00.552.776h7.508c.249 0 .47-.158.551-.392l6.156-17.695 6.93 17.715 8.536.117a.584.584 0 00.061-.542l-7.468-19.085v-9.325l8.18 8.18a.584.584 0 00.826 0l4.171-4.172a.584.584 0 000-.825L36.355 15a7.205 7.205 0 00-5.132-2.126h-2.676l.498-.438a6.404 6.404 0 002.19-4.818 6.431 6.431 0 00-6.424-6.423 6.431 6.431 0 00-6.424 6.423c0 1.918.85 3.639 2.19 4.818l.497.438h-2.676zm14.334 6.845a.585.585 0 00-.997.413v10.845c0 .072.014.145.04.213l7.197 18.39h-6.254l-7.363-18.815a.585.585 0 00-.544-.372h-.013a.585.585 0 00-.538.392l-6.538 18.796H11.45l6.404-18.412a.582.582 0 00.033-.192V20.133a.584.584 0 00-.997-.413l-8.764 8.764-3.345-3.346 9.312-9.311a6.05 6.05 0 014.305-1.784h12.825a6.05 6.05 0 014.306 1.784l9.312 9.311-3.345 3.346-8.764-8.764zM24.811 2.364a5.261 5.261 0 015.256 5.255 5.261 5.261 0 01-5.256 5.256 5.261 5.261 0 01-5.256-5.256 5.261 5.261 0 015.256-5.255z" fill="#353535"/><path fill-rule="evenodd" clip-rule="evenodd" d="M28.791 19.438c-1.009-.957-2.657-.958-3.666 0l-.314.297-.314-.297c-1.007-.957-2.657-.958-3.665 0A2.435 2.435 0 0020.83 23l3.578 3.395a.582.582 0 00.804 0l3.577-3.395a2.435 2.435 0 00.001-3.563zm-4.382 1.526h.804l.715-.68c.57-.54 1.49-.538 2.06.001.261.248.41.58.41.934 0 .355-.149.687-.411.935l-3.176 3.014-3.177-3.014a1.284 1.284 0 01-.41-.935c0-.354.149-.686.41-.934.287-.272.66-.405 1.03-.405s.743.134 1.03.405l.715.679z" fill="#353535"/><path d="M7.893 9.037c.287-.286.584-.568.887-.842l.774.875c-.283.256-.56.519-.827.785l-.834-.818zM11.5 6.076l.64.977c-.314.21-.626.43-.931.658l-.708-.928c.328-.245.662-.482.999-.707zM14.494 4.368l.493 1.06c-.343.163-.683.337-1.016.517l-.568-1.02c.358-.195.723-.38 1.091-.557zM5.634 11.64c.243-.326.498-.648.758-.96l.89.756a22.6 22.6 0 00-.706.894l-.942-.69zM3.771 14.54c.195-.357.4-.711.613-1.06l.99.621c-.198.324-.39.655-.571.987L3.77 14.54zM2.345 17.679c.14-.378.292-.759.454-1.137l1.068.471c-.15.352-.292.706-.422 1.058l-1.1-.392zM1.672 19.8l1.125.312a22.91 22.91 0 00-.264 1.109l-1.146-.231c.086-.4.18-.799.285-1.19zM1.028 23.186l1.16.147c-.044.375-.079.755-.104 1.135L.92 24.404c.026-.408.063-.816.11-1.218zM2.045 26.609c.01.381.03.763.06 1.14L.94 27.85a24.833 24.833 0 01-.064-1.222l1.168-.02zM1.455 31.261c-.09-.399-.17-.802-.24-1.202l1.154-.185c.064.372.138.747.222 1.118l-1.136.27zM3.16 33.056c.118.36.246.72.382 1.075l-1.085.43c-.147-.38-.284-.767-.41-1.153l1.113-.352zM3.926 37.682a24.44 24.44 0 01-.573-1.082l1.051-.51c.17.342.349.68.533 1.01l-1.011.582zM5.104 39.569l.967-.654c.217.313.442.62.673.92l-.918.723c-.247-.321-.49-.653-.722-.99zM7.264 42.256l.864-.786c.256.275.523.549.797.816l-.806.845c-.295-.287-.581-.58-.855-.875zM42.345 42.27c-.278.299-.564.592-.856.875l-.805-.847c.272-.264.54-.537.798-.815l.863.787zM43.539 38.93l.967.655c-.23.333-.473.664-.723.988l-.917-.723c.233-.302.458-.61.673-.92zM44.675 37.116c.186-.332.365-.669.534-1.007l1.05.51c-.18.362-.372.724-.572 1.08l-1.012-.583zM46.454 33.08l1.113.351c-.127.389-.265.775-.41 1.153l-1.085-.433c.135-.351.263-.71.382-1.072zM47.025 31.017c.083-.37.158-.743.223-1.117l1.153.188c-.07.4-.15.802-.24 1.199l-1.136-.27zM47.515 27.776c.03-.378.05-.758.061-1.137l1.168.02c-.011.407-.033.816-.065 1.221l-1.164-.104zM48.597 23.216c.046.402.082.81.108 1.22l-1.167.061c-.024-.38-.057-.76-.1-1.136l1.159-.145zM48.24 21.02l-1.144.228a22.642 22.642 0 00-.264-1.108l1.126-.312c.104.393.199.792.283 1.192zM47.287 17.707l-1.1.392a22.13 22.13 0 00-.422-1.058l1.07-.472c.16.375.311.756.452 1.138zM45.254 13.506c.212.347.416.702.611 1.06l-1.032.548a22.549 22.549 0 00-.57-.988l.99-.62zM43.248 10.703c.26.313.514.635.758.962l-.943.689a22.957 22.957 0 00-.706-.896l.891-.755zM40.09 9.09l.773-.876c.3.271.597.554.887.844l-.834.817c-.27-.27-.547-.533-.827-.786zM37.507 7.069l.64-.977c.34.229.675.466.999.709l-.71.927a23 23 0 00-.93-.66zM34.661 5.44l.494-1.059a23.8 23.8 0 011.09.558l-.569 1.02a22.617 22.617 0 00-1.015-.52zM39.827 50.75a.585.585 0 00.483-.255l-8.535-.117a.585.585 0 00.544.372h7.508z" fill="#353535"/></svg>