<svg width="46" height="51" fill="none" xmlns="http://www.w3.org/2000/svg"><g opacity=".7"><path d="M4.17 33.486c.698-1.268 2.336-2.066 3.678-2.364 1.017 0 1.659.624 2.638.884.544.144.814.429 1.015.99.364 1.016.65 2.064.944 3.093.279.978-.497 2.539-1.159 3.2-.852.853-2.458 1.352-3.63.992-.49-.151-1.096-.146-1.611-.263-.511-.116-.89-.385-1.314-.645-.357-.218-.848-.944-1.075-1.29-.287-.439-.322-.808-.322-1.313 0-1.31.197-2.122.836-3.284z" fill="#FFE4B0"/><path d="M6.13 45.038c.657-1.446.58-2.998.941-4.523-.173-.055-1.224-.789-1.32-.626-.198.337-.461.64-.657.986-.53.937-.846 1.969-1.264 2.956-.23.545-.554 1.06-.764 1.611-.256.674-.375 1.32-.486 2.035-.023.14-.276 1.246-.114 1.156.245-.136.437-.338.663-.502.246-.18.888-.935 1.043-.395.092.322.24.642.34.966.044.14.24.933.282.509.042-.42.167-.86.287-1.267.295-.995.619-1.96 1.05-2.906zM9.235 43.13c-.226-.903-.34-1.818-.515-2.73.5 0 1.66-.246 2.016-.593.124-.121.164-1.078.284-.807.085.191.77.807.973.693.179.538.264 1.068.395 1.618.217.916.211 1.859.426 2.78.14.597.189 1.215.38 1.8.217.667.5 1.282.836 1.895.042.076.383.544.307.62-.008.007-.463-.18-.506-.19-.48-.124-.947-.448-1.282-.815-.053-.057-.348-.525-.449-.423-.106.105-.237.31-.31.442-.135.25-.313.476-.426.739-.094.219-.203.517-.344.708-.043.058-.201-.48-.224-.531-.182-.4-.235-.853-.424-1.245-.226-.472-.358-1.028-.479-1.538l-.007-.032c-.19-.802-.45-1.59-.65-2.39z" fill="#FBC0C0"/><path d="M34.42 6.175c0-1.674.034-3.333-.057-5.007.32.638 1.108 1.57 1.611 2.066 1.427 1.404 3.137 2.467 4.622 3.803.676.609 1.264 1.287 1.863 1.965.087.098 1.302 1.32 1.087 1.32-.553 0-1.114.028-1.665-.012-1.222-.09-2.45.015-3.67-.089-.892-.075-1.843-.081-2.692-.398-.48-.18-.762-.87-.868-1.349a4.267 4.267 0 01-.117-.91c0-.468-.114-.921-.114-1.39z" fill="#F4E7D4"/><path d="M12.378.883c7.027 0 14.05-.113 21.076-.113.12.06.014.696.06.837.12.373.167.756.167 1.147 0 .535.263 1.026.423 1.528.227.711.203 1.486.203 2.224 0 .694.15 1.35.344 2.016.135.466.38 1.2.827 1.459.575.334 1.224.319 1.864.398 1.183.146 2.35.18 3.541.17.362-.002.718-.013 1.068-.113.055-.016.19-.004.234-.035.175-.125.263-.43.426-.594.423-.423.989-.576 1.545-.755.023-.007.328-.128.328-.104v.426c0 .611.008 1.194.07 1.795.128 1.24.493 2.458.559 3.708.068 1.286.147 2.548-.003 3.835-.187 1.606-.557 3.174-.768 4.776-.172 1.315-.118 2.602-.205 3.914-.078 1.164-.392 2.29-.392 3.459 0 .371.07.618.169.961l.005.018c.03.105.15.593.041.701-.095.095.107-.06.183-.031.053.02.057-.158.057-.158s.015 1.399 0 2.098c-.023 1.048-.315 2.073-.398 3.117-.06.743-.198 1.466-.224 2.215-.022.613.053 1.222.053 1.835 0 .947-.06 1.889-.126 2.833-.034.485-.041.993-.19 1.46-.138.436-.688.821-1.083.998-.413.185-.827.202-1.27.202-1.434 0-2.863.163-4.293.297-1.759.165-3.485.101-5.253.101-1.909 0-3.811.085-5.72.013-2.209-.084-4.42.044-6.628.044-1.54 0-3.08.17-4.615.17-.836 0-1.669-.056-2.505-.056-.289 0-.586.017-.88.006a1.518 1.518 0 01-.118.082c-.06.037-.133-.018-.203-.106a2.6 2.6 0 01-.17-.026c-.44-.085-1-.228-1.364-.5-.34-.252-.896-.446-1.09-.856-.151-.319-.313-.559-.42-.913-.07-.226-.131-.456-.206-.679-.264-.793-.224-1.788-.154-2.606.042-.504-.122-1.34.59-1.34.294 0 .708-.088.875.228.137.26.205.636.24.923.141 1.128.473 2.305.891 3.36.14.356.358.72.43 1.097.055.293.07.582.142.872.017.067.121.297.236.44.106.013.214.02.322.024.257-.194.463-.458.753-.606.254-.13.567.416.796.511.316.131.58.025.846-.17.092-.068.334-.58.206-.515-.066.033.001-.148-.007-.221-.006-.064-.052-.105-.053-.161-.008-.273-.048-.539-.057-.809-.028-.811-.116-1.565-.06-2.379.077-1.124-.693-2.26-1.115-3.238-.305-.703-.247-1.282-.247-2.046 0-.965.165-2.022-.044-2.963-.122-.549.124-1.302-.155-1.798-.106-.188-.229-.286-.414-.401-.665-.413-1.337-.906-2.072-1.178-.611-.227-1.104-.246-1.724-.193-.136.012-.21-.651-.253-.77-.119-.324-.284-.678-.284-1.024v-2c0-.868-.104-1.709-.158-2.574-.085-1.341-.04-2.689-.114-4.03-.11-2.022.066-4.077.183-6.094.049-.842.032-1.687.032-2.53 0-.826.074-1.652.057-2.477-.025-1.14.17-2.364.17-3.538 0-.937-.015-1.941.228-2.856.2-.756.254-1.63.884-2.195.4-.357.836-.43 1.327-.502.844-.123 1.731-.045 2.584-.045z" fill="#F8F3ED"/><path d="M14.577 7.843c0-.703.296-1.554.377-2.253-.447-.074.794-.044.893-.044.362 0 .905-.11 1.232.044.57.27.543.745.625 1.32.04.282.08.565.11.847.019.162.162.138.307.165.29.053.598.024.89.066.242.034.511.003.753.003.277 0 .314.062.328.341.038.76.074 1.535-.012 2.3-.016.138-.021.543-.244.543-.177 0-.344-.085-.515-.028-.522.174-1.446-.295-1.446.543 0 .325-.057.66-.057.995 0 .183-.022.578-.184.695-.119.087-.528 0-.663.016-.26.029-.494.054-.764.054-.36 0-1.522.153-1.712-.228-.087-.172-.089-.445-.089-.632 0-.367-.128-.799-.202-1.156-.066-.318-.196-.286-.534-.313-.441-.033-1.495.233-1.696-.331-.204-.571-.127-1.049-.127-1.643 0-.286-.026-.985.37-.985h.458c.409 0 1.902.18 1.902-.32z" fill="#E99AA3"/><path fill-rule="evenodd" clip-rule="evenodd" d="M37.783 10.987a3.774 3.774 0 01-3.77-3.77V1.363H10.515A2.65 2.65 0 007.868 4.01v27.027H6.746V4.01a3.774 3.774 0 013.77-3.77h24.059a.561.561 0 01.396.165l9.624 9.623a.561.561 0 01.165.397v33.683a3.774 3.774 0 01-3.77 3.77H10.515a3.774 3.774 0 01-3.77-3.77V40.34h1.123v3.77a2.65 2.65 0 002.647 2.646H40.99a2.65 2.65 0 002.647-2.646V10.987h-5.854zm0-1.123a2.65 2.65 0 01-2.647-2.646V2.157l7.707 7.707h-5.06z" fill="#414550"/><path fill-rule="evenodd" clip-rule="evenodd" d="M14.128 14.03a.561.561 0 01-.165-.397V11.79H12.12a.562.562 0 01-.561-.562V8.02a.561.561 0 01.561-.562h1.845V5.614a.561.561 0 01.56-.562h3.209a.561.561 0 01.561.562v1.844h1.845a.561.561 0 01.561.562v3.207a.562.562 0 01-.561.562h-1.845v1.844a.561.561 0 01-.561.562h-3.208a.561.561 0 01-.397-.165zm.397-5.449a.561.561 0 00.561-.561V6.175h2.086V8.02a.561.561 0 00.56.561h1.845v2.085h-1.844a.562.562 0 00-.561.561v1.845h-2.086v-1.845a.561.561 0 00-.561-.56H12.68V8.58h1.845z" fill="#414550"/><path d="M23.752 18.842a.562.562 0 01.397-.958h15.237a.561.561 0 010 1.123H24.15a.561.561 0 01-.397-.165zM14.128 18.048a.561.561 0 01.397-.164h6.416a.561.561 0 010 1.123h-6.416a.561.561 0 01-.397-.959zM28.159 22.215h-16.04a.561.561 0 110-1.123h16.04a.561.561 0 110 1.123zM31.366 21.092h8.02a.561.561 0 110 1.123h-8.02a.561.561 0 010-1.123zM24.95 24.3h14.436a.561.561 0 110 1.123H24.951a.561.561 0 010-1.123zM34.575 27.508h4.811a.561.561 0 010 1.123h-4.812a.561.561 0 110-1.123zM31.764 28.466a.561.561 0 01-.398.165H12.12a.561.561 0 110-1.123h19.247a.561.561 0 01.398.958zM21.743 25.423h-9.624a.561.561 0 010-1.123h9.624a.561.561 0 110 1.123zM18.922 31.838h-5.774a.447.447 0 01-.332-.155.61.61 0 01-.15-.406c0-.157.057-.302.15-.406a.447.447 0 01.332-.155h5.774c.119 0 .239.052.332.155.093.104.15.25.15.406a.61.61 0 01-.15.406.447.447 0 01-.332.155zM21.346 30.88a.561.561 0 01.397-.164h8.02a.561.561 0 110 1.122h-8.02a.561.561 0 01-.397-.958zM32.97 30.716h6.416a.561.561 0 010 1.122H32.97a.561.561 0 110-1.122zM15.473 33.924h11.55c.086 0 .183.042.265.144a.674.674 0 01.135.417.674.674 0 01-.135.417c-.082.102-.18.144-.266.144H15.474c-.087 0-.185-.042-.266-.144a.674.674 0 01-.136-.417c0-.164.053-.314.136-.417.081-.102.179-.144.265-.144zM31.7 37.24a.56.56 0 01.169.202l.647 1.293h1.926l4.693-2.346a.562.562 0 01.503 1.004l-4.813 2.406a.56.56 0 01-.25.06h-2.406a.562.562 0 01-.502-.311l-.454-.907-1.053 1.053a.561.561 0 01-.794-.794l1.604-1.604a.56.56 0 01.73-.055z" fill="#414550"/><path fill-rule="evenodd" clip-rule="evenodd" d="M3.043 35.688a4.972 4.972 0 118.639 3.359l3.295 10.173-2.411-1.206-1.805 2.093-2.368-9.46a5.045 5.045 0 01-.74 0L5.457 50.828l-1.603-2.672L.75 50.641l4.183-11.052a4.964 4.964 0 01-1.89-3.901zm2.861 4.503l-2.653 7.01.905-.724.803 1.338 1.59-7.374a4.943 4.943 0 01-.645-.25zm3.594.244l1.826 7.3.962-1.116.797.399-2.326-7.181a4.95 4.95 0 01-1.259.598zm-1.483-8.597a3.85 3.85 0 100 7.7 3.85 3.85 0 000-7.7z" fill="#414550"/><path d="M4.17 33.486c.698-1.268 2.336-2.066 3.678-2.364 1.017 0 1.659.624 2.638.884.544.144.814.429 1.015.99.364 1.016.65 2.064.944 3.093.279.978-.497 2.539-1.159 3.2-.852.853-2.458 1.352-3.63.992-.49-.151-1.096-.146-1.611-.263-.511-.116-.89-.385-1.314-.645-.357-.218-.848-.944-1.075-1.29-.287-.439-.322-.808-.322-1.313 0-1.31.197-2.122.836-3.284z" fill="#FFE4B0"/><path d="M6.13 45.038c.657-1.446.58-2.998.941-4.523-.173-.055-1.224-.789-1.32-.626-.198.337-.461.64-.657.986-.53.937-.846 1.969-1.264 2.956-.23.545-.554 1.06-.764 1.611-.256.674-.375 1.32-.486 2.035-.023.14-.276 1.246-.114 1.156.245-.136.437-.338.663-.502.246-.18.888-.935 1.043-.395.092.322.24.642.34.966.044.14.24.933.282.509.042-.42.167-.86.287-1.267.295-.995.619-1.96 1.05-2.906zM9.235 43.13c-.226-.903-.34-1.818-.515-2.73.5 0 1.66-.246 2.016-.593.124-.121.164-1.078.284-.807.085.191.77.807.973.693.179.538.264 1.068.395 1.618.217.916.211 1.859.426 2.78.14.597.189 1.215.38 1.8.217.667.5 1.282.836 1.895.042.076.383.544.307.62-.008.007-.463-.18-.506-.19-.48-.124-.947-.448-1.282-.815-.053-.057-.348-.525-.449-.423-.106.105-.237.31-.31.442-.135.25-.313.476-.426.739-.094.219-.203.517-.344.708-.043.058-.201-.48-.224-.531-.182-.4-.235-.853-.424-1.245-.226-.472-.358-1.028-.479-1.538l-.007-.032c-.19-.802-.45-1.59-.65-2.39z" fill="#FBC0C0"/><path d="M34.42 6.175c0-1.674.034-3.333-.057-5.007.32.638 1.108 1.57 1.611 2.066 1.427 1.404 3.137 2.467 4.622 3.803.676.609 1.264 1.287 1.863 1.965.087.098 1.302 1.32 1.087 1.32-.553 0-1.114.028-1.665-.012-1.222-.09-2.45.015-3.67-.089-.892-.075-1.843-.081-2.692-.398-.48-.18-.762-.87-.868-1.349a4.267 4.267 0 01-.117-.91c0-.468-.114-.921-.114-1.39z" fill="#F4E7D4"/><path d="M12.378.883c7.027 0 14.05-.113 21.076-.113.12.06.014.696.06.837.12.373.167.756.167 1.147 0 .535.263 1.026.423 1.528.227.711.203 1.486.203 2.224 0 .694.15 1.35.344 2.016.135.466.38 1.2.827 1.459.575.334 1.224.319 1.864.398 1.183.146 2.35.18 3.541.17.362-.002.718-.013 1.068-.113.055-.016.19-.004.234-.035.175-.125.263-.43.426-.594.423-.423.989-.576 1.545-.755.023-.007.328-.128.328-.104v.426c0 .611.008 1.194.07 1.795.128 1.24.493 2.458.559 3.708.068 1.286.147 2.548-.003 3.835-.187 1.606-.557 3.174-.768 4.776-.172 1.315-.118 2.602-.205 3.914-.078 1.164-.392 2.29-.392 3.459 0 .371.07.618.169.961l.005.018c.03.105.15.593.041.701-.095.095.107-.06.183-.031.053.02.057-.158.057-.158s.015 1.399 0 2.098c-.023 1.048-.315 2.073-.398 3.117-.06.743-.198 1.466-.224 2.215-.022.613.053 1.222.053 1.835 0 .947-.06 1.889-.126 2.833-.034.485-.041.993-.19 1.46-.138.436-.688.821-1.083.998-.413.185-.827.202-1.27.202-1.434 0-2.863.163-4.293.297-1.759.165-3.485.101-5.253.101-1.909 0-3.811.085-5.72.013-2.209-.084-4.42.044-6.628.044-1.54 0-3.08.17-4.615.17-.836 0-1.669-.056-2.505-.056-.289 0-.586.017-.88.006a1.518 1.518 0 01-.118.082c-.06.037-.133-.018-.203-.106a2.6 2.6 0 01-.17-.026c-.44-.085-1-.228-1.364-.5-.34-.252-.896-.446-1.09-.856-.151-.319-.313-.559-.42-.913-.07-.226-.131-.456-.206-.679-.264-.793-.224-1.788-.154-2.606.042-.504-.122-1.34.59-1.34.294 0 .708-.088.875.228.137.26.205.636.24.923.141 1.128.473 2.305.891 3.36.14.356.358.72.43 1.097.055.293.07.582.142.872.017.067.121.297.236.44.106.013.214.02.322.024.257-.194.463-.458.753-.606.254-.13.567.416.796.511.316.131.58.025.846-.17.092-.068.334-.58.206-.515-.066.033.001-.148-.007-.221-.006-.064-.052-.105-.053-.161-.008-.273-.048-.539-.057-.809-.028-.811-.116-1.565-.06-2.379.077-1.124-.693-2.26-1.115-3.238-.305-.703-.247-1.282-.247-2.046 0-.965.165-2.022-.044-2.963-.122-.549.124-1.302-.155-1.798-.106-.188-.229-.286-.414-.401-.665-.413-1.337-.906-2.072-1.178-.611-.227-1.104-.246-1.724-.193-.136.012-.21-.651-.253-.77-.119-.324-.284-.678-.284-1.024v-2c0-.868-.104-1.709-.158-2.574-.085-1.341-.04-2.689-.114-4.03-.11-2.022.066-4.077.183-6.094.049-.842.032-1.687.032-2.53 0-.826.074-1.652.057-2.477-.025-1.14.17-2.364.17-3.538 0-.937-.015-1.941.228-2.856.2-.756.254-1.63.884-2.195.4-.357.836-.43 1.327-.502.844-.123 1.731-.045 2.584-.045z" fill="#F8F3ED"/><path d="M14.577 7.843c0-.703.296-1.554.377-2.253-.447-.074.794-.044.893-.044.362 0 .905-.11 1.232.044.57.27.543.745.625 1.32.04.282.08.565.11.847.019.162.162.138.307.165.29.053.598.024.89.066.242.034.511.003.753.003.277 0 .314.062.328.341.038.76.074 1.535-.012 2.3-.016.138-.021.543-.244.543-.177 0-.344-.085-.515-.028-.522.174-1.446-.295-1.446.543 0 .325-.057.66-.057.995 0 .183-.022.578-.184.695-.119.087-.528 0-.663.016-.26.029-.494.054-.764.054-.36 0-1.522.153-1.712-.228-.087-.172-.089-.445-.089-.632 0-.367-.128-.799-.202-1.156-.066-.318-.196-.286-.534-.313-.441-.033-1.495.233-1.696-.331-.204-.571-.127-1.049-.127-1.643 0-.286-.026-.985.37-.985h.458c.409 0 1.902.18 1.902-.32z" fill="#E99AA3"/></g><path fill-rule="evenodd" clip-rule="evenodd" d="M37.783 10.987a3.774 3.774 0 01-3.77-3.77V1.363H10.515A2.65 2.65 0 007.868 4.01v27.027H6.746V4.01a3.774 3.774 0 013.77-3.77h24.059a.561.561 0 01.396.165l9.624 9.623a.561.561 0 01.165.397v33.683a3.774 3.774 0 01-3.77 3.77H10.515a3.774 3.774 0 01-3.77-3.77V40.34h1.123v3.77a2.65 2.65 0 002.647 2.646H40.99a2.65 2.65 0 002.647-2.646V10.987h-5.854zm0-1.123a2.65 2.65 0 01-2.647-2.646V2.157l7.707 7.707h-5.06z" fill="#414550"/><path fill-rule="evenodd" clip-rule="evenodd" d="M14.128 14.03a.561.561 0 01-.165-.397V11.79H12.12a.562.562 0 01-.561-.562V8.02a.561.561 0 01.561-.562h1.845V5.614a.561.561 0 01.56-.562h3.209a.561.561 0 01.561.562v1.844h1.845a.561.561 0 01.561.562v3.207a.562.562 0 01-.561.562h-1.845v1.844a.561.561 0 01-.561.562h-3.208a.561.561 0 01-.397-.165zm.397-5.449a.561.561 0 00.561-.561V6.175h2.086V8.02a.561.561 0 00.56.561h1.845v2.085h-1.844a.562.562 0 00-.561.561v1.845h-2.086v-1.845a.561.561 0 00-.561-.56H12.68V8.58h1.845z" fill="#414550"/><path d="M23.752 18.842a.562.562 0 01.397-.958h15.237a.561.561 0 010 1.123H24.15a.561.561 0 01-.397-.165zM14.128 18.048a.561.561 0 01.397-.164h6.416a.561.561 0 010 1.123h-6.416a.561.561 0 01-.397-.959zM28.159 22.215h-16.04a.561.561 0 110-1.123h16.04a.561.561 0 110 1.123zM31.366 21.092h8.02a.561.561 0 110 1.123h-8.02a.561.561 0 010-1.123zM24.95 24.3h14.436a.561.561 0 110 1.123H24.951a.561.561 0 010-1.123zM34.575 27.508h4.811a.561.561 0 010 1.123h-4.812a.561.561 0 110-1.123zM31.764 28.466a.561.561 0 01-.398.165H12.12a.561.561 0 110-1.123h19.247a.561.561 0 01.398.958zM21.743 25.423h-9.624a.561.561 0 010-1.123h9.624a.561.561 0 110 1.123zM18.922 31.838h-5.774a.447.447 0 01-.332-.155.61.61 0 01-.15-.406c0-.157.057-.302.15-.406a.447.447 0 01.332-.155h5.774c.119 0 .239.052.332.155.093.104.15.25.15.406a.61.61 0 01-.15.406.447.447 0 01-.332.155zM21.346 30.88a.561.561 0 01.397-.164h8.02a.561.561 0 110 1.122h-8.02a.561.561 0 01-.397-.958zM32.97 30.716h6.416a.561.561 0 010 1.122H32.97a.561.561 0 110-1.122zM15.473 33.924h11.55c.086 0 .183.042.265.144a.674.674 0 01.135.417.674.674 0 01-.135.417c-.082.102-.18.144-.266.144H15.474c-.087 0-.185-.042-.266-.144a.674.674 0 01-.136-.417c0-.164.053-.314.136-.417.081-.102.179-.144.265-.144zM31.7 37.24a.56.56 0 01.169.202l.647 1.293h1.926l4.693-2.346a.562.562 0 01.503 1.004l-4.813 2.406a.56.56 0 01-.25.06h-2.406a.562.562 0 01-.502-.311l-.454-.907-1.053 1.053a.561.561 0 01-.794-.794l1.604-1.604a.56.56 0 01.73-.055z" fill="#414550"/><path fill-rule="evenodd" clip-rule="evenodd" d="M3.043 35.688a4.972 4.972 0 118.639 3.359l3.295 10.173-2.411-1.206-1.805 2.093-2.368-9.46a5.045 5.045 0 01-.74 0L5.457 50.828l-1.603-2.672L.75 50.641l4.183-11.052a4.964 4.964 0 01-1.89-3.901zm2.861 4.503l-2.653 7.01.905-.724.803 1.338 1.59-7.374a4.943 4.943 0 01-.645-.25zm3.594.244l1.826 7.3.962-1.116.797.399-2.326-7.181a4.95 4.95 0 01-1.259.598zm-1.483-8.597a3.85 3.85 0 100 7.7 3.85 3.85 0 000-7.7z" fill="#414550"/></svg>