<svg width="52" height="51" fill="none" xmlns="http://www.w3.org/2000/svg"><g opacity=".7"><path d="M18.584 29.548c.793-.095 1.633-.384 2.416-.548.287.096.885.8 1.058 1.059.291.437 1.026 1.116 1.492 1.389.712.417 1.35.609 2.178.609.544 0 1.093.087 1.57-.165.51-.27.892-.86 1.347-1.224.29-.23.702-.391.925-.697.118-.163.3-.341.474-.444.278-.163.281-.525.65-.35.146.067.36.151.517.18.849.154 1.634.483 2.406.862 1 .49 2.16.665 3.252.816 1.013.14 1.984.516 2.86 1.043 1.536.92 3.265 2.162 3.903 3.902.255.693.444 1.258.444 2.024 0 .196.12 1.265-.185 1.301-1.13.133-2.29.093-3.439.093-2.156 0-4.304.186-6.463.186-1.434 0-2.88.174-4.316.186-2.457.02-4.915 0-7.372 0-3.872 0-7.762-.066-11.632-.181-.805-.024-1.592-.029-2.395-.093-.382-.03-.274-.053-.367-.356-.138-.45-.067-.908.016-1.363.215-1.183.358-2.41 1.074-3.444.676-.977 1.846-1.957 2.88-2.514 1.163-.626 2.365-.975 3.67-1.161.497-.071 1.06-.477 1.54-.646.252-.089.5-.214.743-.325.224-.102.517-.111.754-.14z" fill="#DDEDF6"/><path d="M32.77 11.665c.544.367 1.134.602 1.727.888-.396 0 .998.13 1.389.19.318.05.654.06.866.31.123.146.265.262.367.424.19.3.261.716.351 1.056.15.569.107 1.17.204 1.749.08.477.07 1.3-.389 1.612-.34.231-.778.342-1.153.504-.436.19-.886.329-1.325.504-.142.057-.074.359-.091.49-.055.407-.101.81-.189 1.212-.206.94-.674 1.783-1.002 2.678-.308.841-.831 1.473-1.579 1.974-.197.133-.415.194-.625.297-.026.013-.136.11-.168.097-.018-.007.019-.306.019-.349 0-.564-.012-1.129.002-1.692.035-1.5.065-2.997.065-4.498 0-.357.084-.748-.008-1.097-.09-.346-.362-.768-.735-.833-1.16-.2-2.38-.127-3.553-.127-.666 0-1.322.023-1.969.202-.465.129-.944.146-1.416.232-.448.08-.886.206-1.325.322-.305.08-.61.11-.918.168-.234.045-.321.054-.321.3v1.15c0 1.227-.083 2.455 0 3.68.036.543.062 1.086.1 1.628.013.173.042.356.13.509.146.11.286.227.425.342.147.122.354.234.453.4a.81.81 0 01.008.012c.042.02.084.04.127.058.372.155.671.168 1.075.168h.004c1.781 0 3.556 0 5.337.084.548.026 1.112.002 1.657.076.139.02.156.136.156.26 0 1.945-.64 4.916-3.034 5.063-.623.038-1.228.127-1.853.127-.377 0-.753-.032-1.13-.06-.192-.014-.334-.035-.501-.127-.202-.111-.359-.326-.465-.526-.157-.297-.317-.585-.425-.904-.183-.54-.401-1.058-.534-1.614-.2-.838.04-1.836-.414-2.605a2.644 2.644 0 01-.825-.666.672.672 0 01-.06-.088 3.818 3.818 0 00-.272-.188c-.351-.22-.643-.496-.94-.788-.198-.193-.367-.341-.505-.586-.086-.152-.142-.303-.21-.463-.166-.386-.093-.837-.202-1.237-.183-.67-.672-1.209-1.01-1.806-.232-.411-.446-.85-.698-1.249-.064-.102-.217-.06-.325-.06a3.03 3.03 0 01-.925-.167c-.169-.057-.232-.201-.334-.335-.117-.153-.232-.294-.338-.457-.416-.641-.687-1.455-.687-2.22 0-.514.032-1.048.17-1.544.092-.329.222-.644.357-.957.064-.15.09-.258.23-.35.285-.187.599-.271.923-.369.535-.16 1.064-.266 1.618-.34.636-.084 1.325-.162 1.935-.37.293-.1.576-.12.875-.184.349-.075.694-.174 1.036-.276.317-.094.616-.227.926-.343.43-.161.862-.287 1.299-.426.463-.147.946-.266 1.397-.447.46-.186.877-.465 1.335-.661.64-.275 1.268-.739 1.804-1.181l.005-.005c.131-.108.984-.812 1.055-.755.127.101.276.332.351.472.173.324.345.65.51.98.219.439.35.925.634 1.329.166.236.4.403.571.638.112.155.326.287.472.41.152.128.322.244.487.355z" fill="#F4E7D4"/><path d="M16.537 6.668c-.806 1.612-.469 3.612-.345 5.326 1.509 0 2.842-.184 4.345-.302 1.06-.082 2.077-.07 3.104-.377.74-.22 1.426-.701 2.06-1.128.755-.509 1.586-.888 2.338-1.398.5-.34.9-.778 1.38-1.146.244-.187.275-.265.36.04.1.36.115.664.148 1.027.183 2.018 2.45 2.874 4.134 3.4.457.143 1.34.437 1.633-.09.073-.13.113-.357.128-.505.057-.578.055-1.203.055-1.784 0-2.235-.474-4.662-2.037-6.355-.336-.365-.6-.669-.983-.984-.39-.32-.846-.593-1.262-.881-.403-.28-1.22-.218-1.682-.262a63.775 63.775 0 00-2.53-.17l-.071-.005c-1.504-.081-3.127-.169-4.588.242-1.348.38-2.685 1.312-3.794 2.144-.57.427-1.046.842-1.404 1.468-.33.578-.692 1.146-.99 1.74z" fill="#CEC2BB"/><path fill-rule="evenodd" clip-rule="evenodd" d="M16.662 47.303a.576.576 0 01.407-.17h2.818l.592-2.96H3.496A2.636 2.636 0 01.864 41.54V12.75c.045-.306-.049-1.047.636-1.75.542-.557 1.498-.866 1.996-.882H15.67v-1.07A8.812 8.812 0 0124.472.247h3.29a8.812 8.812 0 018.802 8.802v1.069h12.174a2.636 2.636 0 012.632 2.632v28.79a2.636 2.636 0 01-2.632 2.633H31.67l.666 2.96h2.83a.576.576 0 01.575.577v1.892h2.715a.576.576 0 010 1.151H12.133a.575.575 0 110-1.151h4.36V47.71c0-.153.06-.3.169-.407zm20.395-30.029a1.071 1.071 0 01-1.069 1.07h-1.07v-5.43h1.07a1.071 1.071 0 011.07 1.07v3.29zM16.822 9.048a7.659 7.659 0 017.65-7.65h3.29a7.66 7.66 0 017.65 7.65v2.715h-1.069c-.449 0-.903-.226-1.325-.544-.427-.322-.85-.761-1.244-1.238a16.332 16.332 0 01-1.85-2.835.577.577 0 00-1.063.075c-.058.175-.271.522-1.054 1.023-.787.505-2.176 1.182-4.638 2.003a67.953 67.953 0 01-5.316 1.51l-.028.006h-1.003V9.048zm9.39 7.658a.56.56 0 00-.189 0h-.001l-4.642.774-2.913-2.912v-1.774l.187-.047c.96-.239 2.878-.74 4.87-1.404 3.198-1.067 4.794-1.954 5.609-2.65l.22-.19.151.249c.263.432.598.947.985 1.464 1.088 1.451 2.13 2.295 3.102 2.583l.176.053v1.716l-2.912 2.912-4.644-.774zm7.555 3.036a6.027 6.027 0 01-1.715 4.2l-.424.433v-6.04l2.14-2.139v3.546zm-2.1 16.698l.116-.329a2.715 2.715 0 015.12 0l.116.33h-1.03a.576.576 0 100 1.15h1.644a.576.576 0 00.576-.575 3.873 3.873 0 00-3.093-3.789l-.197-.04v-2.702l2.82.664a7.621 7.621 0 015.9 7.447v.312H8.595v-.312a7.62 7.62 0 015.898-7.447l2.822-.664v2.417c0 .033.003.065.008.097l.035.206-.197.07a2.221 2.221 0 101.459 0l-.198-.07.035-.206a.626.626 0 00.01-.097v-2.464l-.002-.028v-.196l3.034-.713.067.222c.501 1.66 2.329 2.934 4.55 2.934 2.221 0 4.05-1.275 4.55-2.934l.067-.223 3.034.714V33.187l-.198.04a3.873 3.873 0 00-3.093 3.79.576.576 0 00.576.575h1.645a.576.576 0 100-1.152h-1.03zm-13.776-2.138a1.07 1.07 0 110 2.139 1.07 1.07 0 010-2.14zm11.763-5.512c0 .776-.421 1.46-1.063 1.942-.643.482-1.518.773-2.474.773-.955 0-1.83-.291-2.473-.773-.642-.482-1.064-1.166-1.064-1.942v-1.892h7.074v1.892zm-9.048-4.415l-.423-.433a6.025 6.025 0 01-1.716-4.2v-3.546l2.139 2.139v6.04zm-4.36-6.032a1.07 1.07 0 01-1.07-1.069v-3.29a1.071 1.071 0 011.07-1.07h1.07v5.43h-1.07zM2.016 12.75a1.482 1.482 0 011.48-1.48H15.67v.562l-.164.059a2.224 2.224 0 00-1.48 2.093v3.29a2.224 2.224 0 002.22 2.221h1.07v.246a7.183 7.183 0 003.18 5.952l.11.073v.557a.576.576 0 00.576.575h.247v1.436l-7.198 1.694a8.77 8.77 0 00-6.786 8.567v.313h-5.43V12.75zm48.203 28.79a1.481 1.481 0 01-1.48 1.481H3.495a1.482 1.482 0 01-1.48-1.48V40.06h48.203v1.48zm-5.43-2.944a8.77 8.77 0 00-6.785-8.568l-7.198-1.694v-1.436h.247a.576.576 0 00.575-.575v-.557l.11-.073a7.183 7.183 0 003.18-5.952l.001-.246h1.069a2.225 2.225 0 002.221-2.221v-3.29a2.224 2.224 0 00-1.48-2.093l-.165-.059v-.563h12.174a1.482 1.482 0 011.48 1.48v26.16H44.79v-.313zm-23.032-12.85v-7.161l4.36-.727 4.36.727v7.162h-8.72zm12.833 22.54v1.316H17.645v-1.316H34.59zm-13.528-1.152l.592-2.961h8.835l.666 2.96H21.063z" fill="#414550"/><path d="M30.806 13.984a.576.576 0 11-1.152 0 .576.576 0 011.152 0zM22.58 13.984a.576.576 0 11-1.152 0 .576.576 0 011.152 0z" fill="#414550"/><path d="M18.584 29.548c.793-.095 1.633-.384 2.416-.548.287.096.885.8 1.058 1.059.291.437 1.026 1.116 1.492 1.389.712.417 1.35.609 2.178.609.544 0 1.093.087 1.57-.165.51-.27.892-.86 1.347-1.224.29-.23.702-.391.925-.697.118-.163.3-.341.474-.444.278-.163.281-.525.65-.35.146.067.36.151.517.18.849.154 1.634.483 2.406.862 1 .49 2.16.665 3.252.816 1.013.14 1.984.516 2.86 1.043 1.536.92 3.265 2.162 3.903 3.902.255.693.444 1.258.444 2.024 0 .196.12 1.265-.185 1.301-1.13.133-2.29.093-3.439.093-2.156 0-4.304.186-6.463.186-1.434 0-2.88.174-4.316.186-2.457.02-4.915 0-7.372 0-3.872 0-7.762-.066-11.632-.181-.805-.024-1.592-.029-2.395-.093-.382-.03-.274-.053-.367-.356-.138-.45-.067-.908.016-1.363.215-1.183.358-2.41 1.074-3.444.676-.977 1.846-1.957 2.88-2.514 1.163-.626 2.365-.975 3.67-1.161.497-.071 1.06-.477 1.54-.646.252-.089.5-.214.743-.325.224-.102.517-.111.754-.14z" fill="#DDEDF6"/><path d="M32.77 11.665c.544.367 1.134.602 1.727.888-.396 0 .998.13 1.389.19.318.05.654.06.866.31.123.146.265.262.367.424.19.3.261.716.351 1.056.15.569.107 1.17.204 1.749.08.477.07 1.3-.389 1.612-.34.231-.778.342-1.153.504-.436.19-.886.329-1.325.504-.142.057-.074.359-.091.49-.055.407-.101.81-.189 1.212-.206.94-.674 1.783-1.002 2.678-.308.841-.831 1.473-1.579 1.974-.197.133-.415.194-.625.297-.026.013-.136.11-.168.097-.018-.007.019-.306.019-.349 0-.564-.012-1.129.002-1.692.035-1.5.065-2.997.065-4.498 0-.357.084-.748-.008-1.097-.09-.346-.362-.768-.735-.833-1.16-.2-2.38-.127-3.553-.127-.666 0-1.322.023-1.969.202-.465.129-.944.146-1.416.232-.448.08-.886.206-1.325.322-.305.08-.61.11-.918.168-.234.045-.321.054-.321.3v1.15c0 1.227-.083 2.455 0 3.68.036.543.062 1.086.1 1.628.013.173.042.356.13.509.146.11.286.227.425.342.147.122.354.234.453.4a.81.81 0 01.008.012c.042.02.084.04.127.058.372.155.671.168 1.075.168h.004c1.781 0 3.556 0 5.337.084.548.026 1.112.002 1.657.076.139.02.156.136.156.26 0 1.945-.64 4.916-3.034 5.063-.623.038-1.228.127-1.853.127-.377 0-.753-.032-1.13-.06-.192-.014-.334-.035-.501-.127-.202-.111-.359-.326-.465-.526-.157-.297-.317-.585-.425-.904-.183-.54-.401-1.058-.534-1.614-.2-.838.04-1.836-.414-2.605a2.644 2.644 0 01-.825-.666.672.672 0 01-.06-.088 3.818 3.818 0 00-.272-.188c-.351-.22-.643-.496-.94-.788-.198-.193-.367-.341-.505-.586-.086-.152-.142-.303-.21-.463-.166-.386-.093-.837-.202-1.237-.183-.67-.672-1.209-1.01-1.806-.232-.411-.446-.85-.698-1.249-.064-.102-.217-.06-.325-.06a3.03 3.03 0 01-.925-.167c-.169-.057-.232-.201-.334-.335-.117-.153-.232-.294-.338-.457-.416-.641-.687-1.455-.687-2.22 0-.514.032-1.048.17-1.544.092-.329.222-.644.357-.957.064-.15.09-.258.23-.35.285-.187.599-.271.923-.369.535-.16 1.064-.266 1.618-.34.636-.084 1.325-.162 1.935-.37.293-.1.576-.12.875-.184.349-.075.694-.174 1.036-.276.317-.094.616-.227.926-.343.43-.161.862-.287 1.299-.426.463-.147.946-.266 1.397-.447.46-.186.877-.465 1.335-.661.64-.275 1.268-.739 1.804-1.181l.005-.005c.131-.108.984-.812 1.055-.755.127.101.276.332.351.472.173.324.345.65.51.98.219.439.35.925.634 1.329.166.236.4.403.571.638.112.155.326.287.472.41.152.128.322.244.487.355z" fill="#F4E7D4"/><path d="M16.537 6.668c-.806 1.612-.469 3.612-.345 5.326 1.509 0 2.842-.184 4.345-.302 1.06-.082 2.077-.07 3.104-.377.74-.22 1.426-.701 2.06-1.128.755-.509 1.586-.888 2.338-1.398.5-.34.9-.778 1.38-1.146.244-.187.275-.265.36.04.1.36.115.664.148 1.027.183 2.018 2.45 2.874 4.134 3.4.457.143 1.34.437 1.633-.09.073-.13.113-.357.128-.505.057-.578.055-1.203.055-1.784 0-2.235-.474-4.662-2.037-6.355-.336-.365-.6-.669-.983-.984-.39-.32-.846-.593-1.262-.881-.403-.28-1.22-.218-1.682-.262a63.775 63.775 0 00-2.53-.17l-.071-.005c-1.504-.081-3.127-.169-4.588.242-1.348.38-2.685 1.312-3.794 2.144-.57.427-1.046.842-1.404 1.468-.33.578-.692 1.146-.99 1.74z" fill="#CEC2BB"/></g><path fill-rule="evenodd" clip-rule="evenodd" d="M16.662 47.303a.576.576 0 01.407-.17h2.818l.592-2.96H3.496A2.636 2.636 0 01.864 41.54V12.75c.045-.306-.049-1.047.636-1.75.542-.557 1.498-.866 1.996-.882H15.67v-1.07A8.812 8.812 0 0124.472.247h3.29a8.812 8.812 0 018.802 8.802v1.069h12.174a2.636 2.636 0 012.632 2.632v28.79a2.636 2.636 0 01-2.632 2.633H31.67l.666 2.96h2.83a.576.576 0 01.575.577v1.892h2.715a.576.576 0 010 1.151H12.133a.575.575 0 110-1.151h4.36V47.71c0-.153.06-.3.169-.407zm20.395-30.029a1.071 1.071 0 01-1.069 1.07h-1.07v-5.43h1.07a1.071 1.071 0 011.07 1.07v3.29zM16.822 9.048a7.659 7.659 0 017.65-7.65h3.29a7.66 7.66 0 017.65 7.65v2.715h-1.069c-.449 0-.903-.226-1.325-.544-.427-.322-.85-.761-1.244-1.238a16.332 16.332 0 01-1.85-2.835.577.577 0 00-1.063.075c-.058.175-.271.522-1.054 1.023-.787.505-2.176 1.182-4.638 2.003a67.953 67.953 0 01-5.316 1.51l-.028.006h-1.003V9.048zm9.39 7.658a.56.56 0 00-.189 0h-.001l-4.642.774-2.913-2.912v-1.774l.187-.047c.96-.239 2.878-.74 4.87-1.404 3.198-1.067 4.794-1.954 5.609-2.65l.22-.19.151.249c.263.432.598.947.985 1.464 1.088 1.451 2.13 2.295 3.102 2.583l.176.053v1.716l-2.912 2.912-4.644-.774zm7.555 3.036a6.027 6.027 0 01-1.715 4.2l-.424.433v-6.04l2.14-2.139v3.546zm-2.1 16.698l.116-.329a2.715 2.715 0 015.12 0l.116.33h-1.03a.576.576 0 100 1.15h1.644a.576.576 0 00.576-.575 3.873 3.873 0 00-3.093-3.789l-.197-.04v-2.702l2.82.664a7.621 7.621 0 015.9 7.447v.312H8.595v-.312a7.62 7.62 0 015.898-7.447l2.822-.664v2.417c0 .033.003.065.008.097l.035.206-.197.07a2.221 2.221 0 101.459 0l-.198-.07.035-.206a.626.626 0 00.01-.097v-2.464l-.002-.028v-.196l3.034-.713.067.222c.501 1.66 2.329 2.934 4.55 2.934 2.221 0 4.05-1.275 4.55-2.934l.067-.223 3.034.714V33.187l-.198.04a3.873 3.873 0 00-3.093 3.79.576.576 0 00.576.575h1.645a.576.576 0 100-1.152h-1.03zm-13.776-2.138a1.07 1.07 0 110 2.139 1.07 1.07 0 010-2.14zm11.763-5.512c0 .776-.421 1.46-1.063 1.942-.643.482-1.518.773-2.474.773-.955 0-1.83-.291-2.473-.773-.642-.482-1.064-1.166-1.064-1.942v-1.892h7.074v1.892zm-9.048-4.415l-.423-.433a6.025 6.025 0 01-1.716-4.2v-3.546l2.139 2.139v6.04zm-4.36-6.032a1.07 1.07 0 01-1.07-1.069v-3.29a1.071 1.071 0 011.07-1.07h1.07v5.43h-1.07zM2.016 12.75a1.482 1.482 0 011.48-1.48H15.67v.562l-.164.059a2.224 2.224 0 00-1.48 2.093v3.29a2.224 2.224 0 002.22 2.221h1.07v.246a7.183 7.183 0 003.18 5.952l.11.073v.557a.576.576 0 00.576.575h.247v1.436l-7.198 1.694a8.77 8.77 0 00-6.786 8.567v.313h-5.43V12.75zm48.203 28.79a1.481 1.481 0 01-1.48 1.481H3.495a1.482 1.482 0 01-1.48-1.48V40.06h48.203v1.48zm-5.43-2.944a8.77 8.77 0 00-6.785-8.568l-7.198-1.694v-1.436h.247a.576.576 0 00.575-.575v-.557l.11-.073a7.183 7.183 0 003.18-5.952l.001-.246h1.069a2.225 2.225 0 002.221-2.221v-3.29a2.224 2.224 0 00-1.48-2.093l-.165-.059v-.563h12.174a1.482 1.482 0 011.48 1.48v26.16H44.79v-.313zm-23.032-12.85v-7.161l4.36-.727 4.36.727v7.162h-8.72zm12.833 22.54v1.316H17.645v-1.316H34.59zm-13.528-1.152l.592-2.961h8.835l.666 2.96H21.063z" fill="#414550"/><path d="M30.806 13.984a.576.576 0 11-1.152 0 .576.576 0 011.152 0zM22.58 13.984a.576.576 0 11-1.152 0 .576.576 0 011.152 0z" fill="#414550"/></svg>