<svg width="51" height="51" fill="none" xmlns="http://www.w3.org/2000/svg"><g opacity=".6"><path d="M29.986 35.36c-6.01 0-11.997.2-17.999-.253-.201-.1.204 1.235.253 1.382.428 1.31 1.313 2.387 1.615 3.709.215.937-.13 1.973.103 2.904.164.655.257 1.298.598 1.887.345.596.71.858 1.247 1.294 1.098.89 2.27 1.868 3.629 2.32.519.174 1.024.297 1.56.412.514.11 1.08.37 1.606.383 1.007.023 2.034.42 3.054.186.987-.225 2.094-.493 3.031-.906 1.607-.707 3.005-1.832 4.24-3.068.905-.904 1.31-1.824 1.63-3.063.177-.682.284-1.384.468-2.07.167-.624.607-1.19.803-1.83.262-.857.313-1.589.29-2.494-.005-.153-.03-.999-.22-1.041-.326-.073-.753-.012-1.088-.005-.358.007-.783.07-1.14.126-1.177.184-2.49.126-3.68.126z" fill="#FFCDCD"/><path d="M11.249 32.753H7.616c.2.302.072.946.21 1.303.161.42-.012.96-.042 1.387-.087 1.216-.886 2.738-1.649 3.671-.543.664-1.024 1.375-1.695 1.924-.515.422-1.054.914-1.527 1.387-.858.858-1.709 1.775-2.041 2.957-.139.492.052 1.043-.108 1.522-.125.376-.042.874-.042 1.27 0 .318-.023.736.388.799.644.099 1.275.064 1.929.093 1.76.078 3.503.333 5.258.5 2.298.219 4.63.336 6.94.336 1.062 0 2.139.051 3.2-.005h.017c.5-.027 1.1-.058 1.537-.312.85-.495-.47-1.123-.826-1.41-.483-.39-1.028-.73-1.48-1.15-.83-.77-1.61-1.579-2.438-2.353-.516-.482-1.14-.887-1.56-1.457-.318-.432-.79-.975-1.01-1.448-.513-1.113-.942-2.156-.942-3.381 0-.647-.076-1.341.088-1.971.133-.508.344-1.013.453-1.527.109-.51.107-1.082.3-1.574.067-.174.344-.397.233-.607-.038-.071-.192-.047-.234.004-.144.181-1.104.042-1.326.042z" fill="#BCECF2"/><path d="M35.835 7c.622.429 1.177.83 1.826 1.22.212-.105.381-.28.58-.42.448-.315.634-.95 1.168-1.178.371-.16.862-.516 1.285-.405.4.105.754.317 1.121.505.375.191.75.436 1.085.69.38.287.896.379 1.35.486.464.11.344.92.378 1.26.068.702.057 1.472-.01 2.171-.04.415-.155.604-.436.885-.522.522-1.22.939-1.869 1.276-.394.206-.833.287-1.209.531-.119.078-.094.207-.163.31-.079.119-.084.402-.1.54-.029.243-.018.49-.018.735 0 .683.073 1.361.073 2.045 0 .313-.18.27-.367.443-.352.322-.798.57-1.206.817-.394.239-.789.471-1.19.698-.103.058-.281.175-.4.19-.189.024-.425-.109-.587-.19-.26-.13-.5-.313-.764-.433-.529-.24-.941-.737-1.433-1.037-.178-.11-.383-.203-.531-.352-.074-.074-.05-.19-.068-.286a7.972 7.972 0 01-.108-1.433v-1.234c0-.363.099-.685-.243-.897-.296-.183-.642-.292-.942-.467-.303-.177-.624-.306-.904-.521-.252-.193-.548-.285-.815-.45-.21-.129-.576-.385-.69-.602-.041-.077-.013-.268-.007-.35.036-.485.027-.983.08-1.468.073-.664.029-1.344.102-2.005.007-.065.082-.083.13-.11.263-.15.5-.239.707-.474.152-.171.292-.267.48-.39.1-.066.173-.164.288-.203.31-.105.617-.16.922-.29.314-.134.548-.126.863-.114.276.01.578.002.838.11.275.115.536.225.784.396z" fill="#F4E7D4"/><path fill-rule="evenodd" clip-rule="evenodd" d="M27.08 5.63l.052-.07a12.848 12.848 0 0120.827-.134 12.856 12.856 0 01-17.754 18.123l-.269-.189v2.712l.094.047a12.86 12.86 0 01-8.868 23.962l-.058-.014-.054.026a3.88 3.88 0 01-1.648.362H4.107a3.934 3.934 0 01-3.093-6.367l6.127-7.795V18.535l-.109-.043a1.856 1.856 0 01.684-3.582h8.075a1.857 1.857 0 01.685 3.582l-.108.042v8.897l.273-.201c.566-.42 1.167-.791 1.795-1.111l.094-.048V9.346l-.162-.009a1.854 1.854 0 01.098-3.706h8.615zm-1.103 1.496c-.15.293-.29.592-.417.897h-7.092a.536.536 0 01-.073-.005l.073.176a.705.705 0 01-.5-1.204l.073.175a.531.531 0 01.425-.21h7.6l-.09.171zM7.239 40.404a.577.577 0 00-.202.163l-4.015 5.108a1.373 1.373 0 001.084 2.216H16.54l.045.034c.532.393 1.093.746 1.678 1.054l-.08.322H4.108a2.78 2.78 0 01-2.185-4.502l6.25-7.95a.576.576 0 00.123-.356V18.627h6.921v9.82l-.05.05a12.828 12.828 0 00-3.536 11.645l.041.204h-4.18a.576.576 0 00-.252.058zm4.744 1.096l.039.117a12.868 12.868 0 002.899 4.832l.275.288H4.059l-.179-.109.022-.205L7.771 41.5h4.212zM29.12 26.96a11.705 11.705 0 01-7.903 21.945l-.01-.003-.003-.001a.056.056 0 00-.008-.003l-.007-.001a11.703 11.703 0 01-1.84-21.938.578.578 0 00.335-.524V9.348h5.585l-.06.217a12.816 12.816 0 003.522 12.774l.053.05v4.047a.576.576 0 00.336.524zm8.469-2.224A11.706 11.706 0 1149.294 13.03a11.72 11.72 0 01-11.706 11.706zM7.716 16.063h8.075a.705.705 0 010 1.41H7.716a.705.705 0 010-1.41z" fill="#414550"/><path fill-rule="evenodd" clip-rule="evenodd" d="M37.588 7.43l-3.13-1.807h-.576l-3.418 1.973v4.947l3.13 1.807v3.614a.577.577 0 00.288.5l3.418 1.973a.578.578 0 00.577 0l3.417-1.973.289-.5V14.35l1.342-.775 1.787-1.032a.577.577 0 00.288-.5V8.096a.577.577 0 00-.288-.5l-3.418-1.973h-.577L37.673 7.38l-.085.05zm3.418-.642l2.84 1.64v3.282l-.427.247-2.413 1.394-2.84-1.64V8.43l2.84-1.643zM31.33 8.43l2.84-1.64 2.842 1.64v3.28l-2.841 1.64-2.841-1.64V8.43zm3.417 9.2v-3.28l2.841-1.64 2.841 1.64v3.28l-1.444.834-1.397.807-1.396-.807-1.445-.834z" fill="#414550"/><path d="M46.458 15.893a.576.576 0 01.818.504.576.576 0 01-.036.222 10.295 10.295 0 01-1.422 2.594.577.577 0 11-.923-.694 9.132 9.132 0 001.263-2.303.576.576 0 01.3-.323z" fill="#414550"/><path fill-rule="evenodd" clip-rule="evenodd" d="M14.456 34.756a.578.578 0 01.352-.122h18.84a.578.578 0 01.56.434 10.297 10.297 0 11-19.957 0 .578.578 0 01.205-.312zm18.736 1.032l.026.14a9.142 9.142 0 11-17.976 0l.026-.14h17.924z" fill="#414550"/><path fill-rule="evenodd" clip-rule="evenodd" d="M28.682 40.814a1.858 1.858 0 11-2.065-3.091 1.858 1.858 0 012.065 3.09zm-1.033-2.25a.706.706 0 110 1.411.706.706 0 010-1.412z" fill="#414550"/><path d="M29.986 35.36c-6.01 0-11.997.2-17.999-.253-.201-.1.204 1.235.253 1.382.428 1.31 1.313 2.387 1.615 3.709.215.937-.13 1.973.103 2.904.164.655.257 1.298.598 1.887.345.596.71.858 1.247 1.294 1.098.89 2.27 1.868 3.629 2.32.519.174 1.024.297 1.56.412.514.11 1.08.37 1.606.383 1.007.023 2.034.42 3.054.186.987-.225 2.094-.493 3.031-.906 1.607-.707 3.005-1.832 4.24-3.068.905-.904 1.31-1.824 1.63-3.063.177-.682.284-1.384.468-2.07.167-.624.607-1.19.803-1.83.262-.857.313-1.589.29-2.494-.005-.153-.03-.999-.22-1.041-.326-.073-.753-.012-1.088-.005-.358.007-.783.07-1.14.126-1.177.184-2.49.126-3.68.126z" fill="#FFCDCD"/><path d="M11.249 32.753H7.616c.2.302.072.946.21 1.303.161.42-.012.96-.042 1.387-.087 1.216-.886 2.738-1.649 3.671-.543.664-1.024 1.375-1.695 1.924-.515.422-1.054.914-1.527 1.387-.858.858-1.709 1.775-2.041 2.957-.139.492.052 1.043-.108 1.522-.125.376-.042.874-.042 1.27 0 .318-.023.736.388.799.644.099 1.275.064 1.929.093 1.76.078 3.503.333 5.258.5 2.298.219 4.63.336 6.94.336 1.062 0 2.139.051 3.2-.005h.017c.5-.027 1.1-.058 1.537-.312.85-.495-.47-1.123-.826-1.41-.483-.39-1.028-.73-1.48-1.15-.83-.77-1.61-1.579-2.438-2.353-.516-.482-1.14-.887-1.56-1.457-.318-.432-.79-.975-1.01-1.448-.513-1.113-.942-2.156-.942-3.381 0-.647-.076-1.341.088-1.971.133-.508.344-1.013.453-1.527.109-.51.107-1.082.3-1.574.067-.174.344-.397.233-.607-.038-.071-.192-.047-.234.004-.144.181-1.104.042-1.326.042z" fill="#BCECF2"/><path d="M35.835 7c.622.429 1.177.83 1.826 1.22.212-.105.381-.28.58-.42.448-.315.634-.95 1.168-1.178.371-.16.862-.516 1.285-.405.4.105.754.317 1.121.505.375.191.75.436 1.085.69.38.287.896.379 1.35.486.464.11.344.92.378 1.26.068.702.057 1.472-.01 2.171-.04.415-.155.604-.436.885-.522.522-1.22.939-1.869 1.276-.394.206-.833.287-1.209.531-.119.078-.094.207-.163.31-.079.119-.084.402-.1.54-.029.243-.018.49-.018.735 0 .683.073 1.361.073 2.045 0 .313-.18.27-.367.443-.352.322-.798.57-1.206.817-.394.239-.789.471-1.19.698-.103.058-.281.175-.4.19-.189.024-.425-.109-.587-.19-.26-.13-.5-.313-.764-.433-.529-.24-.941-.737-1.433-1.037-.178-.11-.383-.203-.531-.352-.074-.074-.05-.19-.068-.286a7.972 7.972 0 01-.108-1.433v-1.234c0-.363.099-.685-.243-.897-.296-.183-.642-.292-.942-.467-.303-.177-.624-.306-.904-.521-.252-.193-.548-.285-.815-.45-.21-.129-.576-.385-.69-.602-.041-.077-.013-.268-.007-.35.036-.485.027-.983.08-1.468.073-.664.029-1.344.102-2.005.007-.065.082-.083.13-.11.263-.15.5-.239.707-.474.152-.171.292-.267.48-.39.1-.066.173-.164.288-.203.31-.105.617-.16.922-.29.314-.134.548-.126.863-.114.276.01.578.002.838.11.275.115.536.225.784.396z" fill="#F4E7D4"/></g><path fill-rule="evenodd" clip-rule="evenodd" d="M27.08 5.63l.052-.07a12.848 12.848 0 0120.827-.134 12.856 12.856 0 01-17.754 18.123l-.269-.189v2.712l.094.047a12.86 12.86 0 01-8.868 23.962l-.058-.014-.054.026a3.88 3.88 0 01-1.648.362H4.107a3.934 3.934 0 01-3.093-6.367l6.127-7.795V18.535l-.109-.043a1.856 1.856 0 01.684-3.582h8.075a1.857 1.857 0 01.685 3.582l-.108.042v8.897l.273-.201c.566-.42 1.167-.791 1.795-1.111l.094-.048V9.346l-.162-.009a1.854 1.854 0 01.098-3.706h8.615zm-1.103 1.496c-.15.293-.29.592-.417.897h-7.092a.536.536 0 01-.073-.005l.073.176a.705.705 0 01-.5-1.204l.073.175a.531.531 0 01.425-.21h7.6l-.09.171zM7.239 40.404a.577.577 0 00-.202.163l-4.015 5.108a1.373 1.373 0 001.084 2.216H16.54l.045.034c.532.393 1.093.746 1.678 1.054l-.08.322H4.108a2.78 2.78 0 01-2.185-4.502l6.25-7.95a.576.576 0 00.123-.356V18.627h6.921v9.82l-.05.05a12.828 12.828 0 00-3.536 11.645l.041.204h-4.18a.576.576 0 00-.252.058zm4.744 1.096l.039.117a12.868 12.868 0 002.899 4.832l.275.288H4.059l-.179-.109.022-.205L7.771 41.5h4.212zM29.12 26.96a11.705 11.705 0 01-7.903 21.945l-.01-.003-.003-.001a.056.056 0 00-.008-.003l-.007-.001a11.703 11.703 0 01-1.84-21.938.578.578 0 00.335-.524V9.348h5.585l-.06.217a12.816 12.816 0 003.522 12.774l.053.05v4.047a.576.576 0 00.336.524zm8.469-2.224A11.706 11.706 0 1149.294 13.03a11.72 11.72 0 01-11.706 11.706zM7.716 16.063h8.075a.705.705 0 010 1.41H7.716a.705.705 0 010-1.41z" fill="#414550"/><path fill-rule="evenodd" clip-rule="evenodd" d="M37.588 7.43l-3.13-1.807h-.576l-3.418 1.973v4.947l3.13 1.807v3.614a.577.577 0 00.288.5l3.418 1.973a.578.578 0 00.577 0l3.417-1.973.289-.5V14.35l1.342-.775 1.787-1.032a.577.577 0 00.288-.5V8.096a.577.577 0 00-.288-.5l-3.418-1.973h-.577L37.673 7.38l-.085.05zm3.418-.642l2.84 1.64v3.282l-.427.247-2.413 1.394-2.84-1.64V8.43l2.84-1.643zM31.33 8.43l2.84-1.64 2.842 1.64v3.28l-2.841 1.64-2.841-1.64V8.43zm3.417 9.2v-3.28l2.841-1.64 2.841 1.64v3.28l-1.444.834-1.397.807-1.396-.807-1.445-.834z" fill="#414550"/><path d="M46.458 15.893a.576.576 0 01.818.504.576.576 0 01-.036.222 10.295 10.295 0 01-1.422 2.594.577.577 0 11-.923-.694 9.132 9.132 0 001.263-2.303.576.576 0 01.3-.323z" fill="#414550"/><path fill-rule="evenodd" clip-rule="evenodd" d="M14.456 34.756a.578.578 0 01.352-.122h18.84a.578.578 0 01.56.434 10.297 10.297 0 11-19.957 0 .578.578 0 01.205-.312zm18.736 1.032l.026.14a9.142 9.142 0 11-17.976 0l.026-.14h17.924z" fill="#414550"/><path fill-rule="evenodd" clip-rule="evenodd" d="M28.682 40.814a1.858 1.858 0 11-2.065-3.091 1.858 1.858 0 012.065 3.09zm-1.033-2.25a.706.706 0 110 1.411.706.706 0 010-1.412z" fill="#414550"/></svg>