<svg xmlns="http://www.w3.org/2000/svg" width="266" height="253"><style></style><path id="Layer" fill-rule="evenodd" d="M115.46 252.84c-.19-.13-.23-.66-.18-1 .38-3.16.67-6.28.17-9.46-.36-2.36-.59-4.74-1.21-7.05-.22-.81-.11-1.7-.21-2.55-.06-.55-.26-1.08-.37-1.62-.3-1.56-.46-3.1-.17-4.71.28-1.58.23-3.21.33-4.81.12-1.83.4-3.68.4-5.49 0-2.11-.23-4.24-.37-6.36-.21-3.01-.14-5.98 1.06-8.83.11-.26.22-.55.24-.83.04-2.04 1.23-3.68 1.88-5.5 1.09-2.97 3.07-5.4 4.91-7.9.99-1.35 1.74-2.88 2.61-4.28.39-.62.81-1.23 1.3-1.73 1.06-1.09 2.15-2.18 3.32-3.17 1.03-.87 2.22-1.57 3.27-2.43 1.34-1.1 2.69-2.19 3.9-3.41 1.31-1.3 2.8-2.3 4.5-2.91 1.48-.53 3.04-.44 4.5.3.77.39 1.58.68 2.51.9-.82-1.26-1.67-2.51-2.48-3.79-1.11-1.78-2.19-3.56-3.31-5.34-.34-.55-.74-1.1-1.12-1.63-2.21-3.12-4.56-6.09-7.35-8.71-1.97-1.85-4.18-3.3-6.77-4.17a34.82 34.82 0 00-10.16-1.88c-.38-.01-.79.04-1.3.07.18 1.17.34 2.27.51 3.37.4 2.59.08 5.12-.8 7.54-1.31 3.58-2.67 7.16-4.87 10.32-1.73 2.5-3.58 4.87-5.84 6.93-1.26 1.16-2.6 2.25-4.19 2.72-1.88.56-3.9.95-5.84.89-4.04-.13-8.04-.83-11.86-2.18-1.81-.63-3.63-1.39-5.18-2.48-2.07-1.44-4.12-2.94-5.9-4.82-2.23-2.33-3.63-4.97-4.49-8.02-.24-.85-.67-1.64-1.01-2.45-.75-1.72-1.46-3.41-1.6-5.33-.06-.73-.4-1.44-.52-2.17-.27-1.47-.49-2.94-.73-4.47-1.6.53-3.19.75-4.77.25-3.45-1.09-6.85-2.29-9.11-5.39-1.25-1.71-2.63-3.36-3.71-5.18-1.48-2.48-2.51-5.16-3.16-8-.07-.34-.52-.6-.82-.87-.16-.14-.47-.16-.56-.34-.6-1.12-1.44-2.05-1.46-3.5-.02-.96.26-1.64.57-2.46.49-1.24.62-2.62 1.01-3.91.31-1.05-.13-1.83-.6-2.68-.28-.5-.31-1.16-.56-1.68-.45-.92-1.04-1.77-1.5-2.69-.15-.34-.18-.8-.13-1.19.05-.44.27-.87.38-1.32.2-.88.89-1.18 1.67-.72.46.27.94.53 1.45.81.07-.15.16-.26.17-.37.09-2.69 1.21-5.08 2.44-7.35 1.69-3.13 3.41-6.3 6.14-8.73 1.79-1.59 3.53-3.29 5.84-4.09 1.13-.39 2.34-.6 3.55-.74 1.06-.11 2.14-.02 3.3-.02-.07-.16-.14-.42-.25-.65-.37-.88-.71-1.76-1.11-2.62-.17-.37-.45-.7-.67-1.08a9.6 9.6 0 00-2.58-2.91c-1.34-.99-2.64-2.08-4.13-2.81-1.92-.94-4.03-1.51-6-2.36-1.37-.58-2.67-1.33-3.96-2.05-.63-.34-1.19-.82-1.75-1.27-.63-.5-1.36-.57-2.03-.25-.88.44-1.72.95-2.5 1.52-1.21.89-2.3 1.91-3.51 2.8-1.54 1.13-3.08 2.27-4.73 3.2-1.08.61-2.38.86-3.58 1.22-2.26.69-4.56 1.07-6.91.76-.95-.13-1.87-.45-2.81-.73-1.25-.38-2.5-.76-3.72-1.18-.56-.19-1.07-.73-1.61-.75-2.34-.02-3.56-1.57-4.67-3.26-.87-1.32-1.77-2.65-2.38-4.09-.81-1.86-1.42-3.83-2.02-5.76-.56-1.8-1.02-3.65-1.49-5.49-.48-1.88 0-3.74.2-5.6.26-2.79 1.81-5.07 3.18-7.48 1.06-1.88 2.48-3.42 3.92-4.93 1.55-1.63 3.26-3.11 4.98-4.53.77-.63 1.72-1.08 2.67-1.42 1.75-.62 3.54-1.18 5.34-1.66 2.02-.54 4.08-.95 6.14-1.43-.86-2.43-.43-4.95.09-7.41.33-1.56 1.13-3.02 1.79-4.49.34-.76.82-1.45 1.24-2.17.25-.41.31-.75-.08-1.16-.85-.88-.45-1.92-.27-2.93.01-.1.12-.28.2-.27 1.25-.02 1.13-1.16 1.55-1.86.81-1.37 1.04-1.51 2.58-1.26.61.09 1.95-.92 2.09-1.56.12-.53.27-1.05.38-1.59.39-2.22 2.07-2.95 3.97-3.42.68-.17 1.02.11 1.17.78.11.43.26.88.53 1.22.42.56.94.49 1.49.08 1.94-1.44 4-2.69 6.42-3.06 1.37-.21 2.83-.16 4.23.03 1.76.23 3.6.34 5.12 1.39 1.48 1.02 2.86 2.14 4.3 3.21 1.36 1.02 2.32 2.33 3.2 3.77 1.41 2.3 2.57 4.73 3.09 7.38.5 2.69.91 5.38 1.21 8.11.09.91-.21 1.89-.47 2.8-.44 1.7-.66 3.58-1.56 5.02-1.19 1.9-1.35 4.28-3.04 5.88a203.96 203.96 0 00-4.16 4.16c-.52.53-1.06 1.07-1.51 1.65-.98 1.29-1.92 2.61-2.87 3.94-.34.47-.26.95.06 1.44 1.61 2.48 3.17 5 4.82 7.46.45.67 1.11 1.2 1.81 1.93.29-.79.58-1.4.74-2.02.05-.18-.2-.48-.37-.7-.15-.23-.45-.41-.51-.66-.12-.47-.19-.96.6-1.04.34-.03.83-.34.92-.63.31-.95.96-1.54 1.77-2.03 1.1-.66 1.63-1.8 2.35-2.78.76-1.03 1.33-2.21 2-3.29.18-.28.45-.58.75-.69 1.22-.48 2.5-.87 3.74-1.32.37-.14.73-.32 1.08-.52 1.82-.97 3.79-1.62 5.62-2.6 1.26-.67 2.98-.76 4.46-.67 3.27.18 6.55.5 9.79 1.05 3.33.55 6.51 1.7 9.23 3.78 1.52 1.16 3 2.4 4.56 3.63.55-.68 1.17-1.47 1.77-2.25 1.37-1.83 3.39-2.71 5.38-3.61 1.07-.48 2.25-.78 3.29-1.31.9-.46 1.79-1.04 2.49-1.76.49-.49.81-1.26.94-1.96.16-.83.74-1.31 1.32-1.47.58-.15 1.33.18 1.98.36.09.03.14.53.05.77-.18.46-.47.88-.7 1.32.07.06.15.12.22.17.31-.29.64-.57.95-.89.77-.75 1.16-.74 2.15-.37.61.25 1.31.19 1.99.29.39.05.83.08 1.2.23.57.24 1.1.59 1.73.94.13-.56.22-.98.3-1.4.17-.89.53-1.19 1.39-1.15 1.48.05 1.61.19 1.48 1.66-.08 1.04.31 1.56 1.77 1.86 2.28.46 4.34 1.39 6.3 2.55 1.49.88 2.75 2.15 4.17 3.17 2.42 1.73 3.56 4.4 5.03 6.8.43.7.54 1.63.75 2.47.52 2.06 1.08 4.1 1.52 6.18.13.63-.04 1.32-.08 1.98-.14 1.79-.13 3.63-.46 5.39-.43 2.35-.73 4.77-2.02 6.86-1.26 2.08-2.58 4.13-4.07 6.04-.58.77-1.71 1.15-2.68 1.76.62.45 1.21.9 1.79 1.32 2.65 1.98 5.13 4.13 6.83 7.04 1.37 2.36 2.84 4.7 3.46 7.38.41 1.77 1.07 3.51.86 5.43-.14 1.24.14 2.52.05 3.77-.07.9-.45 1.76-.72 2.64-.2.67-.45 1.31-.74 2.18.93-.32 1.68-.56 2.45-.83 2.6-.96 4.85-2.49 6.83-4.36 2.09-1.96 4.14-4.04 5.84-6.32 1.5-2.02 2.54-4.41 3.71-6.65 1.66-3.22 2.64-6.87 5.52-9.34 1.45-1.23 3.08-2.24 4.64-3.33.53-.38 1.07-.77 1.63-1.12 1.56-1.01 3.15-2.03 4.74-3.01 1.77-1.1 3.54-2.18 5.32-3.27 2.32-1.43 4.61-2.96 7.02-4.24 1.24-.67 2.69-.95 4.08-1.33 1.05-.28 2.12-.65 3.19-.63 3.01.07 5.86.96 8.42 2.5 2.44 1.48 4.91 2.86 7.53 4 2.94 1.28 6 1.98 9.16 2.51 1.97.33 3.84 1.29 5.77 1.93 2.4.82 4.4 2.26 6.34 3.82 1.08.87 2.02 1.92 3.09 2.83.42.36 1.06.48 1.53.81.51.35.96.8 1.42 1.24.96.96 1.81 2.07 2.88 2.89.85.64 1.96.98 2.97 1.38.78.31.97.96 1.06 1.63.03.22-.32.57-.57.74-1.96 1.17-4.11 1.92-6.29 2.57-1.34.41-2.46 1.24-3.5 2.17-1 .9-1.88 1.95-2.91 2.8-1.15.95-2.42 1.78-3.73 2.52-2.31 1.29-4.42 2.79-6.23 4.72-1.2 1.28-2.6 2.37-3.87 3.59-1.22 1.17-2.39 2.39-3.62 3.56-2.56 2.49-5.18 4.91-8.17 6.89-2.24 1.49-4.72 2.47-7.15 3.62-2.26 1.09-4.63 1.75-7.02 2.31-3.05.7-6.13.76-9.29.56-3.74-.23-7.28-1.54-10.97-1.84-2.27-.18-4.21-1.07-6.15-2.13-1.51-.83-3.15-1.42-4.73-2.12-3.25-1.46-6.49-2.9-9.43-4.96-1.23-.87-2.86-1.39-4.38-1.62-2.08-.31-4.26-.31-6.36-.19-1.98.12-3.39 1.41-4.53 3.02-1.71 2.42-3.5 4.79-5.73 6.8-.68.61-.92 1.51-1.2 2.45-.72 2.41-.22 4.84-.59 7.23-.88 5.63-1.79 11.26-2.54 16.9-.36 2.68-.43 5.46.44 8.07.58 1.72 1.57 3.34 2.42 4.97 1.41 2.68 3.14 5.18 5.12 7.49.71.82 1.35 1.71 2.72 1.23-.07.11-.12.2-.18.31.44.27.84.64 1.31.8 1.78.56 2.95.09 3.6-1.65.61-1.7 1.02-3.48 1.38-5.25.61-3.02.98-6.1 1.71-9.08.48-1.98 1.62-3.71 3.27-5.02.64-.53 1.21-1.22 1.92-1.6 1.29-.7 2.67-1.21 3.97-1.85 3.17-1.58 6.57-1.36 9.93-1.35.73 0 1.44.02 2.16.06 1.86.13 3.73.22 5.58.45 1.25.16 2.52.43 3.69.86.93.33 1.92.6 2.8 1.12 1 .56 2.08.97 3.14 1.4 1.04.42 2.12.74 3.16 1.17 1.35.57 2.8 1.04 3.99 1.86 1.86 1.29 3.82 2.54 4.89 4.75.96 1.97 2.18 3.81 3.25 5.71 1.17 2.06 2.24 4.17 3.47 6.2.7 1.16 1.53 2.24 2.38 3.28.39.48.48.85.1 1.29.18-.1.36-.18.36-.18 2.61 2.41 5.2 4.72 7.68 7.16.75.75 1.67 1.19 2.44 1.85.85.69 1.74 1.3 2.59 1.98.18.13.41.51.33.6-.23.33-.51.76-.87.88-2.6.89-5.24 1.64-7.82 2.57-1.63.58-3.21 1.34-4.8 2.08-1.46.64-3 .64-4.57.73-1.77.1-3.56.24-5.32.56-1.24.21-2.41.74-3.63 1.11-2.16.67-4.39.85-6.64.83-1.12-.01-2.27.15-3.34-.07-1.56-.33-3.02-.34-4.59-.06-1.04.2-2.2-.22-3.28-.43-.23-.04-.39-.41-.62-.65-.02.19-.03.35-.04.66-1.74-.49-3.47-.91-5.16-1.47-1.78-.58-3.55-1.21-5.24-2.03-1.7-.83-3.33-1.84-4.89-2.92-1.52-1.03-3-2.16-4.34-3.4-1.07-.99-1.86-2.26-2.84-3.34-1.23-1.36-2.62-2.6-3.79-4.02-1.22-1.51-2.76-1.89-4.57-1.77-.7.04-1.42-.07-2.35-.13.64 1.61 1.13 3.09 1.78 4.47 1.07 2.27 2.23 4.51 3.39 6.74.61 1.18 1.26 2.33 1.93 3.49 1.5 2.54 2.9 5.15 3.72 8.01.48 1.74.81 3.52 1.26 5.27.36 1.46.8 2.87 1.2 4.31.39 1.37.63 2.82 1.18 4.14.91 2.18 2.1 4.24 3.01 6.41 1.25 2.93 3.06 5.5 4.68 8.19 1.71 2.86 3.32 5.81 4.84 8.78.73 1.43 1.85 2.37 3.21 3.1.37.2.74.41 1.16.64-.27.79-.92.91-1.49.85-1.52-.17-3.06-.41-4.57-.68-1.77-.31-2.99-1.6-4.39-2.53-.31-.22-.36-.88-.46-1.35-.28-1.61-.3-3.3-.83-4.83-.58-1.73-1.51-3.37-2.4-4.97-1.59-2.9-3.33-5.71-4.9-8.61-.61-1.13-.98-2.41-1.39-3.63-1.32-3.9-2.56-7.83-3.93-11.71-1.53-4.32-3.18-8.61-4.8-12.9-.27-.71-.64-1.38-1.08-2.04.07 1.14.11 2.3.26 3.43.33 2.57.76 5.13 1.1 7.68.39 2.95.28 5.92.06 8.89-.18 2.37-.12 4.75-.3 7.12-.19 2.5-1.02 4.79-2.7 6.73-.55.64-1.02 1.34-1.48 2.03-1.57 2.34-3.12 4.69-4.69 7.03-1.01 1.53-2.02 3.05-3.06 4.56-1.21 1.79-2.82 3.06-4.83 3.93-1.69.74-3.45 1.11-5.24 1.44-1.62.31-3.24.89-4.8 1.44-2.74.96-5.45 2.03-8.17 3.02-.88.32-1.84.5-2.71.85-2.28.89-3.83 2.73-5.57 4.32-.2.16-.39.39-.62.46-.31-.09-.78.07-1.01-.09zm32.24-115.93c-.26.83-.52 1.68-.63 2.55-.18 1.47-.24 2.97-.41 4.46-.22 2.06-.5 4.12-.75 6.18-.03.27-.01.55-.01.82.78-1.95 2.11-12.78 1.8-14.01zM170.51 115c-1.04-1.43-.95-1.47-3.22-.66 1.03.21 2.06.42 3.22.66zm.3-1.64c1.59 2.34 4.16 3.5 6.29 5.22-2.06-1.82-3.9-3.84-6.29-5.22zm10.75 7.54c-3-2.68-5.72-5.69-8.94-8.11-.1.12-.2.25-.32.38 2.96 2.7 5.76 5.61 9.26 7.73zm5.15 2.92c-.64-.95-1.38-1.74-2.16-2.51-2.84-2.8-5.73-5.57-8.54-8.4-.64-.65-1.13-.63-1.96-.18.82.83 1.53 1.64 2.34 2.36 2.32 2.15 4.68 4.26 7.01 6.4.41.38.67.97 1.12 1.27.68.44 1.47.71 2.19 1.06zm-11.41-19.28c-1.95 2.33-3.58 5.13-6.53 6.86 1.41.22 5.76-4.49 6.53-6.86zm71.6-13.58c2.44.98 4.72 2.28 6.82 3.84-1.18-.41-2.3-.94-3.4-1.45-1.53-.7-3.03-1.45-4.8-1.36-.5.01-1.1-.09-1.47-.38-.84-.61-1.5-.21-2.37.1 2.74 1.43 5.62 2.28 8.21 4.16-.33.04-.42.06-.49.03-2.13-.87-4.22-1.79-6.38-2.6-1-.36-2.08-.65-3.12-.65-.91.01-1.82.48-2.9.81 2.69 1.03 5.11 1.95 7.55 2.89-.04.1-.08.21-.11.31-.34-.08-.68-.12-1-.25-2.8-1.21-5.71-2.02-8.77-2.08-.84-.02-1.71.34-2.54.51v.34l12.12 3.73c-.03.09-.04.16-.07.25-.24-.03-.49-.04-.73-.11-1.29-.39-2.55-.89-3.88-1.2-3.13-.73-6.27-1.38-9.4-2-.54-.11-1.18-.07-1.7.11-2.44.86-4.87 1.79-7.29 2.72-.17.07-.3.26-.5.48 1.26.39 2.4.66 3.47 1.11 1.8.75 3.56 1.59 5.34 2.44 1 .48 1.98 1.04 2.93 1.62.19.12.27.42.41.64-2.37-1.08-4.61-2.1-6.85-3.13-2.17-.99-4.43-1.55-6.79-1.8-.47-.05-.92-.3-1.39-.38-.29-.04-.59.03-.9.06-.01.13-.04.26-.05.39 4.2 1.24 7.98 3.31 11.54 5.8-.87-.33-1.68-.75-2.47-1.22-.7-.4-1.33-.99-2.08-1.28-1.95-.73-3.93-1.37-5.92-2.02-.93-.31-1.85-.67-2.81-.82-.69-.11-3.41 1.37-4.01 1.98 5.72 1.69 11.37 3.49 16.39 6.81-1.26-.36-2.44-.89-3.63-1.45-4.2-1.94-8.55-3.43-13.04-4.5-1.23-.29-2.33.02-3.5.45 2.96 1.47 5.67 3.09 8.05 5.2-.38-.12-.69-.37-1-.57-2.4-1.56-4.99-2.77-7.68-3.68-.67-.22-1.35-.54-2.15.13 1.74.96 3.41 1.79 5.01 2.79 1.58.99 3.4 1.6 4.75 2.98-.34-.01-.61-.15-.85-.29-.87-.51-1.71-1.11-2.61-1.53-2.29-1.04-4.63-1.92-6.88-3.02-.95-.46-1.67-.41-2.73.37 3.83 2.57 7.7 4.9 11.34 7.51-1.9-1.08-3.72-2.27-5.64-3.31-2.29-1.24-4.65-2.36-6.99-3.51-.24-.12-.56-.07-.85-.1.12.34.14.82.38 1 2.32 1.75 4.67 3.46 7 5.2.75.55 1.46 1.18 2.18 1.77-.34-.02-.62-.12-.86-.3-1.08-.8-2.12-1.69-3.23-2.43-2.3-1.49-4.63-2.91-6.97-4.35-.27-.16-.69-.1-1.03-.14-.04.1-.09.22-.12.33 1.64 1.62 3.59 2.87 5.41 4.33-.39-.01-.71-.13-1-.3-1.78-1.16-3.54-2.35-5.32-3.49-.31-.19-.76-.18-1.16-.26-.01.07-.02.18-.04.25 1.05.96 2.08 1.96 3.17 2.86 1.08.89 2.22 1.68 3.34 2.53.53.4 1 .88 1.51 1.28 1.68 1.38 3.36 2.73 5.04 4.1-.87-.47-1.65-1.04-2.43-1.64-1.95-1.51-3.87-3.06-5.86-4.56-1.65-1.24-3.39-2.39-5.07-3.6-1.09-.79-1.61-.84-2.69.06 3.03 2.53 6.03 5.03 9.03 7.54-.04.05-.08.11-.14.16-.84-.64-1.64-1.32-2.5-1.93-2.36-1.7-4.74-3.36-7.11-5.06-.99-.71-1.47-.72-2.62.23 3.09 3.43 6.17 6.84 9.25 10.25-.55-.22-1.05-.56-1.46-.98-2.73-2.88-5.47-5.79-8.19-8.69-.52-.55-1.07-.7-1.82-.26 1.52 3.08 4.38 5.05 6.22 7.84-.93-.78-1.79-1.61-2.61-2.5-1.4-1.49-2.83-2.96-4.15-4.52-.83-.99-.82-1.09-2.23-.55 2.36 3.5 5.81 5.96 8.38 9.21-.45-.28-.86-.62-1.23-.99-2.46-2.36-4.93-4.69-7.36-7.07-1.15-1.12-1.27-1.2-2.5-.48.21.3.4.64.63.9 1.46 1.58 2.95 3.16 4.43 4.71 1.36 1.44 2.74 2.87 4.13 4.28.94.97 1.94 1.88 2.89 2.85.2.2.25.55.36.81-1.02-.98-2.04-1.96-3.03-2.94-2.04-2.02-4.05-4.06-6.12-6.06-1.24-1.21-2.59-2.29-3.78-3.53-.93-.98-1.69-1.16-2.97-.27 1.61 1.82 3.13 3.69 4.8 5.4 1.92 1.98 3.97 3.83 5.96 5.73 1.42 1.34 3.36 1.43 5.08 2.06.41.16.45-.14.11-.4.68.32 1.34.76 2.05.92 2.82.66 5.69 1.15 8.51 1.84 2.75.66 5.53.49 8.29.3 1.1-.07 2.19-.52 3.48-.83-1.78-1.28-3.33-2.39-4.87-3.49.04-.08.09-.15.14-.24 1.86 1.02 3.7 2.05 5.57 3.06.28.15.73.2 1.03.1 1.5-.53 3-1.11 4.49-1.7.66-.26 1.33-.55 1.97-.88 1.73-.85 1.78-1.56.23-2.7-.14-.1-.29-.19-.42-.32-.67-.53-1.35-1.08-2.02-1.61.04-.06.08-.14.12-.19.2.08.41.16.58.28.49.34.92.79 1.46 1.01.97.39 2.02.61 2.25 1.89.03.11.23.18.17.13.84-.5 1.58-.91 2.38-1.39-.04.28-.05.43-.03.36.56-.5 1.2-1.08 1.82-1.66 1.51-1.41 3-2.84 4.53-4.23.87-.8 1.82-1.53 2.65-2.35 1.48-1.51 2.84-3.14 4.38-4.58 1.77-1.65 3.61-3.23 5.54-4.69 1.2-.9 2.72-1.37 3.9-2.28 1.66-1.28 3.12-2.79 4.81-4.33-1.73-1.08-3.27-2.04-4.8-2.98.05-.1.13-.19.18-.29.54.26 1.09.53 1.64.79.96.45 1.92.87 2.87 1.35.79.41 2.23.02 2.84-.92-3.69-2.24-7.4-4.04-11.63-4.62zm-71.19 19.77c.17.06.61-.2.76-.42.87-1.32 1.79-2.63 2.54-4.02 1.15-2.13 2.56-4.13 3.4-6.42.67-1.77 1.56-3.45 2.35-5.17-.03-.02-.07-.06-.11-.06-.15.17-.35.31-.46.51-1.64 2.99-3.29 5.95-4.88 8.98-1.04 1.97-2.46 3.58-4.02 5.13-.19.19-.41.57-.34.74.15.29.46.61.76.73zm76.98-20.05c-.43-.13-.94-.01-1.41 0-.01.1-.03.2-.04.31 1.33.65 2.66 1.3 3.98 1.97.91.48 1.82.97 2.72 1.48.48.28.92.62 1.37.92-.04.08-.05.16-.09.24.95-.23 1.89-.46 2.82-.7-.01-.1-.01-.21-.03-.31-.09-.1-.19-.21-.31-.28-2.79-1.71-5.88-2.75-9.01-3.63zm7.39.29c-1.03-.08-2.06-.27-3.07-.44-.33-.06-.92.01-.61-.63.02.01.04.01.07.01.27-.59.72-.28 1.12-.22.75.11 1.52.23 2.27.34.04-.11.09-.2.13-.32-.84-.86-1.61-1.78-2.51-2.56-.85-.71-1.93-1.17-2.76-1.91-2.41-2.17-4.8-4.37-7.93-5.53-1.67-.61-3.35-1.25-5.06-1.71-2.32-.63-4.81-.6-7.04-1.63-.66-.3-1.34-.55-2-.85-2.43-1.18-4.94-2.21-7.24-3.59-2.54-1.52-5.16-2.64-8.1-2.98-1.11-.12-2.2 0-3.08.81-.96.77-1.83 1.67-2.73 2.53-.48.46-1.07.82-1.42 1.35-1.55 2.31-3.03 4.65-4.54 6.97-.37.58-.77 1.13-1.15 1.68-.06-.03-.12-.07-.2-.11 1.09-1.97 2.18-3.95 3.28-5.91-.96 1.05-1.92 2.11-2.62 3.32a89.38 89.38 0 00-3.72 7.04c-1.19 2.5-2.23 5.08-3.27 7.65-.73 1.79-1.27 3.65-1.99 5.44-.63 1.53-1.41 3.02-2.12 4.53-.07.14-.07.32-.11.49 1.31-2.12 2.61-4.2 3.64-6.42 1.01-2.19 1.72-4.5 2.57-6.74.28-.74.61-1.43.96-2.14.05-.12.26-.18.4-.25.07.14.22.3.2.41-.06.43-.11.87-.27 1.26-1.1 2.76-2.2 5.52-3.35 8.27-1.13 2.7-2.52 5.26-4.41 7.53-.14.18-.16.45-.25.68.26.04.5.07.77.12-.09-1.33.11-1.47 1.23-1.1.32.11.65.13.99.18.08-.07.13-.14.21-.21-.15-.22-.36-.41-.4-.64-.05-.22 0-.69.09-.7 1.54-.33 2.51-1.47 3.68-2.36 2.76-2.12 5.11-4.68 7.45-7.22 1.68-1.82 3.26-3.72 4.91-5.59.81-.92 1.68-1.8 2.49-2.74.54-.62 1-1.31 1.51-1.95.03-.03.19.05.38.11-5.81 7.43-11.6 14.75-19.16 20.44 3.48-1.38 6.27-3.79 9.03-6.17 2.78-2.4 5.39-5.01 8.08-7.52-3.45 4.63-7.72 8.44-12.44 12.08 2.19-.47 3.89-1.49 5.56-2.49 2.22-1.35 4.01-3.26 5.93-5 2.07-1.87 4.05-3.83 6.08-5.74.15-.13.3-.24.44-.35.05.06.12.11.16.17-3.63 4.03-7.53 7.79-11.61 11.42.19.01.35-.04.48-.1 2.03-.81 4.06-1.63 6.11-2.41 1.31-.5 2.69-.84 3.96-1.41 2-.91 3.94-1.95 5.88-2.99 1.23-.67 2.48-1.35 3.64-2.14 2.11-1.44 4.22-2.93 5.89-4.9.86-1 1.67-2.04 2.5-3.04.64-.77 1.3-1.55 1.94-2.32.08.04.16.07.26.11-.16.41-.24.9-.48 1.24-.53.77-1.1 1.49-1.69 2.21-2 2.42-4.45 4.38-6.94 6.26-.94.72-1.93 1.4-2.9 2.09l.15.33c.62-.2 1.28-.34 1.85-.66.82-.45 1.58-1.04 2.39-1.55.35-.22.85-.28 1.13-.55.46-.47.79-1.1 1.24-1.57 2.03-2.08 4.07-4.15 6.13-6.18 1.27-1.26 2.59-2.44 3.88-3.69.41-.4.74-.52 1.04.11-2.53 1.89-4.64 4.17-6.77 6.46-2.11 2.28-4.38 4.41-6.59 6.61.73-.37 1.5-.78 2.13-1.31 1.78-1.53 3.55-3.1 5.29-4.69 1.85-1.69 3.67-3.41 5.49-5.14.58-.55 1.09-1.19 1.69-1.74.21-.19.54-.25.81-.35-.1.3-.11.67-.31.87a99.047 99.047 0 01-3.42 3.38c-2.08 1.95-4.18 3.86-6.26 5.81-.52.48-.99 1.01-1.49 1.51.05.08.1.14.15.22.43-.13.92-.17 1.28-.43 1.49-1.12 3.03-2.22 4.4-3.47 2.03-1.85 3.96-3.83 5.92-5.76.85-.85.98-.82 1.36.36-1.46.56-8.26 6.81-8.77 8.13.26-.13.43-.27.64-.34 2.31-.83 4.74-1.08 7.19-1.31 1.85-.17 3.72-.25 5.57-.23 1.03.01 2.05.26 3.06.4-.16.15-.35.27-.42.47-.03.1.13.38.28.45.87.44 1.76.84 2.63 1.26 1.26.59 2.56 1.11 3.77 1.82.69.39.95.22 1.28-.35-1.15-1.12-2.09-2.44-3.84-2.58zm-3.68-1.07h-.02l.03-.03c0 .01-.01.02-.01.03zm-46.75-18.37c-1.54 1.3-3.25 2.39-4.42 4.1-.85 1.22-1.91 2.32-2.73 3.57-2.87 4.44-4.81 9.37-7 14.15-1.4 3.07-2.81 6.14-4.42 9.11-.99 1.81-2.37 3.39-3.52 5.12-.39.61-.74.83-1.53.89-.84.06-1.94.26-2.37 1.34.3-.07.59-.23.76-.45.28-.39.62-.52.95-.2.62.58 1.04.46 1.47-.23.27-.43.63-.76.99-.02.05.11.35.23.42.17.93-.67 2.34-.32 2.97-1.78 1.05-2.45 2.49-4.71 3.57-7.15.96-2.19 1.56-4.53 2.49-6.74 1.46-3.4 2.93-6.78 4.61-10.07 1.17-2.31 2.61-4.51 4.06-6.65 1.25-1.81 2.72-3.47 4.25-5.38-.33.14-.46.16-.55.22zm-2.45.39c-1.29 1.02-2.61 2-3.86 3.06-3.36 2.9-5.6 6.58-7.3 10.6-.7 1.64-1.23 3.34-1.88 5-1 2.49-1.91 5-3.1 7.38-1.15 2.28-2.62 4.44-3.97 6.61-.75 1.21-1.6 2.36-2.41 3.53.04.06.09.11.12.18.44-.13.97-.14 1.26-.43.96-.97 1.89-2.01 2.71-3.08 2.14-2.78 3.4-6.05 4.94-9.16 1.29-2.61 2.4-5.33 3.62-7.98.71-1.53 1.49-3.01 2.27-4.52.79-1.5 1.48-3.04 2.41-4.43 1.17-1.7 2.52-3.27 3.84-4.88.56-.67 1.22-1.28 1.82-1.92-.03-.05-.06-.09-.08-.13-.13.06-.29.09-.39.17zm-13.39 11.87c-.99 1.33-1.87 2.71-2.71 4.13-1.24 2.12-2.4 4.3-3.59 6.47l-.26-.13c1.3-2.5 2.58-5.02 3.87-7.52-.08-.04-.13-.08-.21-.12-.34.41-.69.78-.96 1.22-.83 1.28-1.53 2.64-2.42 3.89-1.5 2.13-2.49 4.53-3.65 6.83-1.21 2.39-2.38 4.81-3.6 7.19-.58 1.13-1.22 2.24-1.84 3.33.1.08.21.14.31.21.71-.91 1.45-1.78 2.11-2.74 1.48-2.14 2.72-4.42 3.67-6.85.06-.14.28-.19.41-.29.07.06.16.12.23.18-.9 3.73-3.16 6.76-5.22 10 .29-.04.56-.19.85-.3 1.08-.44 2.32-.53 3.08-1.58.69-.97 1.55-1.8 2.13-2.88.58-1.08 1.31-2.09 2.05-3.08 2.17-2.94 3.46-6.31 4.82-9.64 1.27-3.1 2.56-6.18 3.9-9.26.93-2.14 2.2-4.04 3.85-5.71.93-.95 1.8-1.97 2.68-2.96-.03-.02-.05-.05-.07-.07-.68.43-1.35.87-2.03 1.3-.27.17-.71.32-.75.54-.13 1-.99 1.33-1.61 1.9-.46.44-.98.83-1.37 1.32-1.24 1.55-2.5 3.07-3.67 4.62zm-5.27 4.62c-.08-.03-.16-.1-.24-.14-.72 1.18-1.45 2.36-2.17 3.54.05.04.12.07.17.11.75-1.17 1.5-2.33 2.24-3.51zm3.13-4.04c-.08-.06-.17-.15-.25-.21-.74.94-1.48 1.85-2.22 2.79.08.06.17.13.24.2.74-.93 1.49-1.86 2.23-2.78zm-.99-1.53c-2.39 2.07-4.29 4.55-6 7.17 2.05-2.34 4.1-4.68 6.17-7.01-.07-.06-.11-.11-.17-.16zm-8.75 9.36c1.99-2.67 3.85-5.19 5.73-7.71-2.88 1.76-4.65 4.36-5.73 7.71zm-8.38 16.88c.49-.18.95-.42 1.32-.74 1.79-1.48 3-3.43 4.17-5.38 1.39-2.31 2.62-4.7 3.91-7.05 1.03-1.87 2.07-3.75 3.1-5.62-.08-.04-.15-.09-.21-.12-4.68 5.92-7.91 12.77-12.29 18.91zm.54 2.1c0-.4 0-.67.01-.99-.42.25-.81.48-1.21.71.01.1.05.19.07.29.38-.01.76-.01 1.13-.01zm-7.83.03c.19.05.42.18.52.11 1.38-.92 2.94-1.58 4.06-2.87.21-.24.44-.46.65-.7.18-.21.34-.42.4-.51-1.8 1.3-3.7 2.63-5.63 3.97zm-4.47 2.05c.9.06 1.74-.03 2.58-.14.49-.07 1.27.2 1.01-.84-.03-.11.25-.27.38-.41.15-.2.31-.41.46-.6-1.48.64-2.95 1.32-4.43 1.99zm-1.8-2.6c-.13-.01-.25-.02-.37-.04-.05.76-.11 1.51-.15 2.25.1.01.2.02.29.02.08-.73.15-1.49.23-2.23zm-5.21-9.04c-.4-.66-.69-1.39-1.16-1.99-.49-.62-1.15-1.08-1.69-1.67-1.34-1.44-2.9-2.63-4.55-3.67-1.4-.89-2.85-1.73-4.35-2.42-1.32-.61-2.72-1.06-4.24-.94-.72.05-2.11.72-2.28 1.4-.16.61-.23 1.25-.32 1.92 1.77.07 3.17.75 3.42 2.91-1.22.9-2.58.86-4 .3-.03.07-.08.14-.11.2.34.42.69.84 1.03 1.28-.52.44-.95.53-1.44 0-.48-.52-1.07-.66-1.82-.53-.53.1-1.13-.02-1.72-.05 0-.02-.02.18.04.36.33.94.21 1.13-.76 1.1-.55-.02-1.01.18-1.14.72-.12.47-.14 1.02-.02 1.49.23.97.11 1.5-.61 1.55-.87.04-1.85.46-2.57-.44-.15-.18-.44-.25-.81-.47-.15.51-.41.97-.38 1.42.04.8-.35.84-.96.81-.85-.03-1.7.03-2.59.06 1.08 1.68 3.48 2.46 5.16 1.79.81-.31 1.68-.47 2.51-.64.14-.03.33.12.61.22-.22.16-.3.27-.43.33-1.25.53-1.55 1.62-1.53 2.77.05 2.91.34 5.8 1.02 8.65.59 2.44 1.43 4.74 2.6 6.91.91 1.71 1.94 3.4 3.06 4.99.95 1.35 2.13 2.51 4.04 2.75-.15-.26-.21-.47-.34-.59-2-1.86-3.52-4.1-4.96-6.4-.18-.26-.09-.68-.13-1.04.21.24.44.46.61.73 1.54 2.54 3.41 4.79 5.75 6.64.41.32.89.59 1.41.05-.71-.68-1.56-1.24-2.1-2.01-1.72-2.48-3.33-5.04-4.98-7.58-.25-.4-.47-.8-.64-1.24-.17-.42-.24-.87-.36-1.32 2.41 4.49 4.98 8.8 9.33 11.84.2-.12.52-.3.91-.53-5.18-3.25-7.55-8.39-9.92-13.54 2.9 4.94 5.31 10.27 10.94 13.02.08-.05.29-.22.53-.37-.81-.71-1.59-1.3-2.26-2.01-.67-.71-1.2-1.54-1.79-2.34-.56-.76-1.15-1.52-1.64-2.32-.5-.82-.92-1.71-1.37-2.56-.42-.81-.82-1.61-1.22-2.42.1-.03.18-.08.26-.11 1.18 1.98 2.34 3.98 3.56 5.94 1.14 1.82 2.58 3.37 4.33 4.62 1.01.73 1.38.63 2.02-.3-1.63-.75-6.46-7.53-6.15-8.74 1.92 3.17 3.92 6.2 6.98 8.32.81-.66.79-.79.01-1.43-.53-.43-1.01-.93-1.42-1.46-.96-1.26-1.86-2.55-2.75-3.87-.45-.68-.8-1.43-1.21-2.17 1.35 1.55 2.56 3.14 3.78 4.75.82 1.11 1.77 2.06 3.06 2.6.19.09.5-.03.69-.04-1.39-2.46-2.71-4.77-4.02-7.09.09-.05.16-.13.24-.17.24.26.51.49.68.78.66 1.07 1.25 2.21 1.94 3.27.47.71 1.07 1.33 1.65 1.96.32.36.66.23.96-.1.56-.65 1.11-1.32 1.68-1.97-.6-1.29-1.2-2.62-1.8-3.91-.09-.2-.24-.38-.35-.58l.33-.23c.85 1.28 1.68 2.59 2.59 3.97.43-.45.72-.77.87-.91-.26-.62-.5-1.07-.6-1.55-.13-.53-.02-1.13-.16-1.66-.24-.85-.6-1.68-.87-2.5-.07-.21-.02-.44-.03-.66.1-.02.2-.05.3-.07.72 1.73 1.45 3.46 2.18 5.19.33-1.19.66-2.28.96-3.38.04-.17.02-.36.02-.52-.22-2.78-1.05-5.35-2.33-7.81-.51-.97-1.06-1.92-1.59-2.87 2.95 3.14 4.26 7.03 5.17 11.15.34-1.26.68-2.51.7-3.78.03-4.28-1.24-8.19-3.46-11.79zm-26.45 24.41c-.98-1.59-1.72-3.37-2.43-5.13-.92-2.27-1.43-4.67-1.57-7.14-.04-.67-.14-1.35-.22-2.02-.06-.01-.13 0-.2 0-.05.24-.14.48-.16.73-.22 2.51-.1 5.01.5 7.46.66 2.76 2.05 5.19 3.66 7.5 1.22 1.75 2.39 3.55 4.4 4.53 1.22.6 2.38 1.42 3.92 1.07-.62-.49-1.29-.91-1.98-1.24-2.61-1.26-4.44-3.37-5.92-5.76zm2.19 13.52c-.27-1.25-.75-2.45-.86-3.71-.19-2.09-1-2.51-2.59-2.68-2.48-.29-4.71-1.33-6.51-2.95-2.32-2.1-4.53-4.38-6.47-6.81-1.34-1.69-2.47-3.68-3.17-5.69-1.23-3.53-2.07-7.22-1.74-11.03.21-2.3.02-4.67 1.18-6.82-.65-.36-1.27-.73-1.9-1.06-2.26-1.17-4.5-2.33-6.75-3.51-.58-.31-1.24-.63-1.6-1.14-.43-.59-.86-.57-1.42-.48-1.92.3-3.84.65-5.78.93-2.16.32-4.31.58-6.48.87-.02.12-.05.25-.07.36.13.17.26.35.41.5 2.28 2.24 3.94 4.86 4.78 7.93.41 1.46.62 2.97 1.01 4.45.67 2.58.91 5.19.6 7.88-.18 1.47-.08 1.48 1.42 1.85.13.04.26.09.39.15 1.4.54 2.8 1.07 4.18 1.62 3.51 1.38 7.06 2.65 10.3 4.7 2.07 1.32 4.26 2.44 6.17 4.01 1.97 1.63 4.17 2.99 6.06 4.7 2.63 2.35 5.07 4.93 7.57 7.43.62.63 1.18 1.33 1.78 1.98-.05-1.23-.25-2.35-.51-3.48zm13.81 16.42c.08-.02.17-.04.25-.07.01-.96-.03-1.95.05-2.92.28-2.87.6-5.74.89-8.61.24-2.27.48-4.54.77-6.8.21-1.63.55-3.22.73-4.85.09-.75-.05-1.55-.11-2.31-.1-.02-.19-.04-.3-.06-.53.37-1.07.75-1.59 1.13-2.03 1.5-4.47 1.95-6.83 2.45-1.54.31-3.17.22-4.75.22-.77-.01-1.04.31-.88 1.01.27 1.2.43 2.45.9 3.58.9 2.19 1.88 4.34 3.02 6.42.73 1.31 1.8 2.41 2.66 3.65 1.52 2.15 3.03 4.34 4.54 6.51.22.21.46.42.65.65zm-7.69-8.37c.75 1.02 1.5 2.03 2.23 3.06.06-.05.12-.09.18-.11-.7-1.02-1.4-2.07-2.1-3.09-.11.03-.2.09-.31.14zM121 117.86c.17.16.42.29.48.46.36 1.16.69 2.34.96 3.52.41 1.7 1.22 3.25 2.24 4.62.93 1.27 2.14 2.33 3.24 3.46.57.58 1.19 1.12 1.79 1.67.07-.04.13-.1.2-.13-6.19-6.81-8.94-14.54-6.22-23.56-1.17-.43-2.2-.8-3.21-1.19-.57-.22-.9-.12-.89.56.03.63.01 1.26.07 1.9.16 1.76.31 3.51.48 5.26-.52-.01-.99-.58-1.04-1.66-.09-1.91-.29-3.81-.17-5.7.07-1.1-.17-1.94-.86-2.71-.32-.36-.73-.63-1.1-.95-.81-.71-1.38-.71-2.03.15-1.09 1.42-1.64 3.03-1.59 4.84.03.69.05 1.38.12 2.06.22 1.85.72 3.62 1.67 5.23 1.01 1.72 2.14 3.38 3.07 5.13a22.83 22.83 0 004.44 5.87c.81.77 1.45 1.7 2.27 2.46.74.67 1.61 1.2 2.41 1.8.06-.07.1-.13.15-.2-1.1-1.3-2.27-2.56-3.29-3.91-1.91-2.47-2.92-5.32-3.35-8.39-.06-.18.09-.38.16-.59zm1.9 25.06c1.86.32 3.64 1.1 5.45 1.67.34.1.69.17 1.13.28-.08-.24-.1-.34-.14-.39-1.35-1.49-2.63-3.05-4.06-4.47-1.98-2-3.96-4.04-6.15-5.8-2.34-1.9-4.86-3.58-7.41-5.21a58.344 58.344 0 00-6.2-3.44c-2.84-1.37-5.53-3.16-8.66-3.78-1.36-.27-2.7-1.31-4.19-.35-1.19-.31-.76.7-1.06 1.16 2.26.71 4.46 1.37 6.65 2.09.12.04.58.33 1.13.68.13-.03.27-.03.36.02.49.22.98.5 1.43.8 3.73 2.54 7.09 5.41 9.39 9.38 1.03 1.79 2.42 3.4 3.27 5.26.62 1.36 1.47 1.63 2.72 1.7 2.11.09 4.25.05 6.34.4zM68.76 70.64c-.74-2.76-1.18-5.55-.9-8.58-1.12.38-1.24 1.28-1.41 1.99-.54 2.35.09 4.65.6 6.89.33 1.47.66 2.98 1.64 4.24 1.1 1.41 2 3.03 3.22 4.31 1.5 1.59 3.23 2.96 4.86 4.4.4.35.82.69 1.21 1.04-.05.09-.1.19-.13.29-.49-.19-1.07-.3-1.46-.63-1.23-.98-2.42-2.02-3.61-3.06-1.83-1.62-3.38-3.45-4.58-5.6-.3-.54-.68-1.01-1.03-1.51-.08.05-.16.1-.24.14.3.7.56 1.43.92 2.12.68 1.29 1.29 2.66 2.15 3.81.99 1.28 2.18 2.4 3.37 3.5 2.67 2.48 5.7 4.39 9.07 5.78.89.36 1.8.67 2.7 1-.74-.92-1.85-1.37-2.41-2.39.23.04.41.13.58.22 1.71.88 3.2 2.18 5.13 2.63 1.03.24 2.09.38 3.15.51 2.32.26 4.61.51 6.93.71.37.04.77-.23 1.15-.35-.01-.1-.01-.19-.02-.29-2.15-.82-3.8-2.21-5.02-4.13.44.24.82.55 1.12.89 1.2 1.38 2.86 2.01 4.38 2.88.44.25.77.06.84-.39.29-1.71.59-3.4.78-5.11.1-1.01.02-2.02.02-3.04.09 0 .19-.01.29 0 .56 2.27.28 4.57.12 7.15 1.19-.93 2.37-1.58 3.15-2.55 1.65-2.01 2.7-4.42 2.99-7 .28-2.35.16-4.76.28-7.15.14-3-.73-5.75-2.08-8.37-.54-1.03-1.1-2.06-1.64-3.08.07-.06.12-.13.2-.21.27.21.61.33.76.6.75 1.3 1.47 2.61 2.13 3.95 1.16 2.3 1.69 4.78 1.69 7.35 0 .4 0 .8.04 1.22.02.4.08.79.1 1.19.99-5.68-.31-10.94-3.06-16.07.36.1.55.09.6.17 2.51 4.26 3.98 8.83 3.73 13.88 2.33-4.65 2.38-9.34.37-14.09.13-.03.25-.07.37-.09.39.88.79 1.74 1.24 2.76.11-.27.2-.42.19-.52-.32-1.44-.65-2.86-1-4.27-.15-.58-.38-1.14-.5-1.74-.44-2.39-1.68-4.26-3.66-5.64-.59-.41-1.22-.78-1.82-1.17l-.12.15c.19.41.37.84.57 1.25-.06.05-.13.08-.2.14-.28-.24-.56-.45-.82-.71-.84-.83-1.56-1.82-2.52-2.46-1.82-1.23-3.8-2.13-5.92-2.82-2.14-.68-4.25-1.01-6.44-.5-.33.08-.63.3-.95.45.23.26.41.54.68.74.57.43.61.84.02 1.27-.27.2-.63.3-.94.42-.54.18-1.08.37-1.72.58 1.86.3 3.57.65 5.28.81 1.89.18 3.29 1.32 4.8 2.23 1.46.86 3.05 1.6 3.77 3.32-.24-.01-.41-.1-.56-.19-1.63-1.07-3.26-2.14-4.89-3.2-2-1.31-4.27-1.69-6.58-1.93-.77-.08-1.69-.26-2.15.74 4.33.19 13.38 4.78 14.15 7.36-1.27-.88-2.36-1.71-3.5-2.43-1.34-.84-2.67-1.7-4.1-2.36-1.32-.61-2.76-1-4.17-1.41-.99-.29-2.04-.54-3.15.14.71 1.66 2.59 1.09 3.67 2.03-.08.28-.16.62-.28.93-.88 2.04-2.93 2.07-4.65 2.53-1.29.33-1.4.19-1.2 1.54.06.35.22.72.44 1.01.44.61.29 1.04-.27 1.48-.51.41-1.11.83-1.41 1.38-.54 1-1.25 1.41-2.36 1.37-.62 0-1.35-.05-1.77.64-.92 1.49-1.65 1.55-2.78.24-.15-.18-.31-.34-.45-.51-.42-.49-.78-1.31-1.54-.35-.07.09-.3.02-.42.09-.27.14-.62.25-.77.49-.45.76-.71 1.65-1.78 1.8.52.73.52.71 2.27 1.07.28.07.72.27.78.51.25.97.38 1.95.56 2.93-.08.05-.16.09-.22.15-.16-.23-.4-.43-.49-.69-.71-1.92-1.26-2.36-2.91-2.27.25 1.31.48 2.62.73 3.94l-.27.07c-.17-.32-.37-.65-.47-1-.39-1.25-.69-2.53-1.15-3.77-.22-.56-.7-1.02-1.07-1.52-.13.06-.27.1-.4.15.13 1.85.26 3.72.4 5.57-.08-.02-.16 0-.23.01zM82.4 43.17c-.15.19-.32.39-.5.57-.1.1-.24.17-.25.18.17.41.42.72.38.97-.07.59-.3 1.17-.43 1.75-.26 1.2.08 1.68 1.32 1.85 1.6.21 2.46 1.83 2.32 3.1-.14 1.2-.4 2.37-.58 3.56-.02.14 0 .29.02.39 2.34.04 4.28-.93 4.68-2.42-.66-.23-1.32-.52-1.99-.7-1.04-.29-1.4-.63-1.45-1.83-.04-1.05-.41-2.26.91-2.92.02 0 .05-.02.08-.02.95-.47 1.92-.92 3.02-1.45-.82-.65-1.56-1.24-2.28-1.83-.6-.51-1.27-.95-1.77-1.55-.35-.43-.65-.68-1.19-.58-.58.11-1.2.14-1.77.31-.22.05-.36.41-.52.62zm.33 12.23c.84.06 1.4-.88 1.3-2.37-.43.78-.85 1.56-1.3 2.37zm-9.64-2.06c-.47 1.68-.38 3.47-1.31 5.06-.8 1.37.17 3.09 1.75 3.48.22.06.56-.02.73-.15.58-.47 1.21-.92 1.65-1.5.7-.91 1.29-1.89 1.88-2.88.9-1.59 2.34-2.88 2.8-4.71.27-1.14 1.05-2.21.4-3.53-.71.21-1.49.2-1.92 1.02-.1.18-.51.34-.75.31-1.19-.16-1.98.29-2.53 1.36-.26.51-.71.7-1.29.54-1.03-.3-1.13-.06-1.41 1zm4.56 8.83c-.44-.09-.93 0-1.39.03-.01.07-.04.14-.05.22.4.39.79.8 1.19 1.2.98-.87 1.94-1.44 3.19-1.43.38-.01.86-.01 1.07-.23.75-.75 1.49-1.54 2.03-2.45.2-.35-.12-1.02-.18-1.55-.02-.26.03-.53-.03-.77-.06-.27-.2-.51-.32-.76-.28.13-.69.18-.78.38-.28.72-.53 1.45-.6 2.2-.05.62-.13 1.09-.75 1.41-.36.19-.68.55-.93.88-.67.88-1.35 1.1-2.45.87zm.52-1.08c1.14.47 2.59-1.23 2.72-3.28-1 1.19-1.86 2.23-2.72 3.28zm5.14-19.31c.47-.08.96-.17 1.44-.27 1.13-.22 1.44-.07 1.86.78.65-.12 1.18-.29 1.73-.29 1.46.01 2.93.09 4.4.15.65.04 1.34.01 1.95.21 1.63.52 3.35.79 4.85 1.67 1.32.76 2.69 1.48 3.95 2.31 1.63 1.07 3.26 2.16 4.8 3.38 1.03.81 2.05 1.72 2.75 2.8 1.53 2.44 2.03 5.27 2.73 8.02.56 2.21.52 4.46.29 6.69-.22 2.05-.49 4.1-.77 6.31 1.44-2.48 1.62-5.06 1.84-7.63.06-.62-.07-1.25-.02-1.88.09-1.01.43-2.03.36-3.03-.23-3.1-.73-6.14-2.54-8.82-1.41-2.11-3.01-4.02-4.86-5.7-1.16-1.04-2.48-2.03-3.89-2.69-1.99-.94-4.08-1.85-6.22-2.3-2.81-.57-5.71-.75-8.57-.9-1.79-.08-3.62.18-5.41.36-.4.04-.79.37-1.2.56.25.23.4.29.53.27zm10.62 1.37c0-.08.01-.17.01-.26l-2.69-.06c0 .06.01.14-.01.21.91.03 1.8.07 2.69.11zm21.2 29.54c-.17.51-.26.98-.09 1.33.74 1.58 1.8 2.9 3.1 4.08 1.9 1.75 4.12 2.91 6.47 3.84.39.16.84.12 1.27.16.03-.12.06-.22.08-.34-4.29-2.17-8.52-4.41-10.83-9.07zm-.73 2.12c-1.15 1.33-1.33 3.03-.45 4.34.37.55.79 1.07 1.25 1.53 1.78 1.82 4.09 2.64 6.44 3.37.16.05.32.04.48.06v-.34c-1.93-1.2-4.15-2.01-5.58-4.19.31.09.43.11.52.16.1.05.2.12.3.18 1.78 1.05 3.55 2.11 5.36 3.09.32.19.81.09 1.21.14.03-.12.05-.21.07-.32-.66-.38-1.3-.78-1.99-1.11-3.01-1.41-5.44-3.47-7.24-6.28-.11-.19-.23-.41-.37-.63zm2.23 7.98c-1.48-1-2.67-2.42-4-3.65-.39 1.64 6.52 6.3 8.84 6-1.58-.77-3.36-1.35-4.84-2.35zm22.09-2.61c-2.94-.43-5.85-.48-8.57.78-2.19 1.02-4.35 2.17-6.34 3.53-1.72 1.16-3.27 2.64-4.76 4.08-1.35 1.27-2.55 2.67-3.77 4.06-.24.29-.28.74-.41 1.12-.08.25-.14.5-.26.71-.43.78-.93 1.54-1.34 2.34-1.14 2.27-2.12 4.59-1.96 7.19.11 1.98.32 3.96.59 5.93.18 1.22.55 2.41.83 3.6.1-.02.18-.04.28-.05 0-.2.03-.4.01-.59-.18-1.36-.4-2.68-.55-4.02-.21-1.98.23-3.87 1.35-5.43.62-.87.93-1.65 1.12-2.64.28-1.5.22-2.92-.53-4.27-.3-.51-.12-.91.43-1.2.86-.44 1.67-.98 2.55-1.38.92-.43.79-.92.23-1.49-.59-.55-.31-1.01.1-1.49.75-.82 1.59-1.06 2.66-.33.12-.71.23-1.22.29-1.77.15-1.06.79-1.7 1.83-1.7.49 0 .95.11 1.18.13.96-.97 1.75-1.94 2.7-2.67 1.11-.85 2.36-.76 3.53.09 1.78-2.09 4.09-3.09 6.72-3.13 1.95-.04 3.93.1 5.82.55 1.87.46 3.81.87 5.55 1.91 1.58.95 3.31 1.63 4.98 2.44-1.02-.96-2.05-1.99-3.27-2.7-3.39-1.93-7.1-3.01-10.99-3.6zm-24.2 3.1c1.27 1.47 2.88 2.46 4.67 3.14.21.07.52-.13.84-.24-1.97-1.08-3.74-2.06-5.5-3.03 0 .02-.03.09-.01.13zm-3.38-.75c-1.11 1.54-1.96 2.88-2.96 4.11-1.35 1.66-2.44 3.57-4.22 4.89-1.09.8-1.03 1.18.01 2.04 1.76 1.45 3.87 2.26 5.9 3.2.27.11.56.2.73.4.54.57.85.45 1.14-.24.91-2.24 2.14-4.31 3.64-6.21.79-1.01 1.71-1.9 2.64-2.91-2.55-1.4-5.23-2.59-6.88-5.28zm-46.16-13.5c-.13.23-.21.31-.19.37.19 1.69.29 3.37.6 5.05.47 2.59 1.53 4.97 2.66 7.33 1.62 3.39 4.02 6.04 7.2 7.94 1.56.92 3.29 1.66 5 2.25 1.9.65 3.87 1.16 5.84 1.47 1.5.24 3.05.05 4.76.06-2.4-.76-4.61-1.32-6.72-2.13-2.69-1.07-5.39-2.18-7.75-3.91-1.45-1.07-2.97-2.11-4.29-3.32-1.67-1.54-3.14-3.26-4.09-5.4-.99-2.24-2.47-4.25-2.49-6.85.01-.9-.31-1.81-.53-2.86zm53.73 57.69c-.23-.34-.4-.61-.57-.87-1.08-1.76-2.17-3.51-3.23-5.29-.28-.47-.45-1-.73-1.47-1.65-2.92-3.05-5.93-3.33-9.35-.03-.31-.19-.61-.36-1.11-.62 5.62 4.12 16.01 8.22 18.09zm13.89 13.62c-.47-1.95-.95-3.88-1.42-5.84-.29.71.7 4.19 1.42 5.84zm-5.82-8.47c-6.19-4.39-9.87-10.7-13.28-17.23-.12.04-.24.08-.34.13.11.2.24.38.34.6.51 1.09 1.05 2.14 1.49 3.26 1.02 2.48 2.52 4.66 4.06 6.81 1.21 1.67 2.69 3.16 4.14 4.64.96 1 2.25 1.5 3.59 1.79zm7.21-1.1c.03-.04.04-.08.07-.12-.96-1.55-2.07-3.02-2.84-4.67-1.06-2.25-1.94-4.62-2.78-6.96-.43-1.22-.7-2.51-.86-3.8-.29-2.34-.45-4.7-.68-7.04-.02-.24-.23-.57-.43-.63-.79-.26-1.53.31-1.48 1.14.16 2.2.27 4.43.56 6.62.72 5.69 2.88 10.71 7.22 14.64.36.34.82.56 1.22.82zm-8.84-39c-.39-.65-.62-1.32-.89-1.98-.09-.23-.19-.48-.35-.67-.25-.28-.6-.48-.83-.76-.41-.52-1.06-.51-1.28.12-.17.51-.2 1.07-.26 1.61-.12.85-.83 1.34-1.65 1.16-.29-.07-.55-.21-.83-.22-.57-.03-.95.47-.66.87.81 1.08.83 2.4 1.24 3.62.4 1.15.39 2.66 2.05 2.94.24.04.49 0 .73.06.21.08.52.18.57.35.22.75.37 1.53.6 2.27.07.26.26.49.4.75.06-.02.11-.07.17-.09-.1-1.1-.22-2.18-.33-3.28-.11-.24-.86-1.78-.7-1.99.12-.13.47-.19.63-.12.16.08.24.38.3.6.3 1.25.63 2.49.87 3.76.14.77.47 1.05 1.29.79-.51-2.38-1.02-4.78-1.53-7.16.09-.04.17-.06.28-.09.68 2.29 1.36 4.57 2.03 6.87.09-.01.19-.05.29-.06-.01-.37.06-.75-.01-1.09-.54-2.32-1.14-4.63-1.71-6.94-.07-.3-.1-.64-.17-.95.11-.03.22-.06.32-.08 1.28 2.1 1.35 4.67 2.49 6.84.21-.56.43-1.11.43-1.66.03-1.94-.66-3.66-1.68-5.28-.44-.71-.89-1.43-1.28-2.18-.11-.21-.01-.51-.01-.77.2.17.47.31.61.53.36.54.66 1.12 1.01 1.68.18.29.47.53.59.84.55 1.44 1.07 2.9 1.62 4.34.04.12.12.22.3.56.07-2.8-1.2-4.92-2.17-7.14 1.81 1.56 2.3 3.79 3.07 5.9.71-.41.97-1.49.29-2.89-1.34-2.82-2.84-4.78-6.13-4.4-.64 1.18.8 2.16.29 3.34zm22.91-.4c.97.6 1.95 1.22 2.87 1.9.75.55 1.41 1.21 2.12 1.81.1-.07.19-.16.28-.22-.44-.61-.8-1.3-1.35-1.79-2.05-1.81-4.27-3.43-6.82-4.45-1.69-.67-3.48-1.22-5.26-1.57-1.23-.23-2.57-.15-3.84-.01-1.1.11-1.93 1.45-1.56 2.27.35-.32.68-.69 1.05-.98.72-.53 1.78-.48 2.37.19.41.47.81.64 1.41.49.22-.06.48-.05.69.02 2.66.85 5.6.78 8.04 2.34zm-1-2.96c1.21.84 2.62 1.76 3.96 2.78.85.65 1.78 1.3 2.4 2.16 1.57 2.22 3.05 4.5 4.41 6.87 1.08 1.86 1.94 3.86 2.83 5.69.48-7.23-6-15.8-13.6-17.5zm-16.7 1.02c.78 1.5 1.6 3.06 2.35 4.47.67-1.42-.91-4.52-2.35-4.47zm6.22 5.75c-.61-.01-1.22-.01-1.92-.02-.26.31.69 1.2-.66 1.18.07.1.18.2.25.3.18-.03.36-.1.55-.11.31 0 .69-.09.93.05.84.46 1.65.44 2.5.07-.2-1.06-.68-1.47-1.65-1.47zm9.55-10.97c-1.46-.63-3.05-1.03-4.62-1.34-2.48-.5-4.99-.65-7.44.19-1.68.58-2.97 1.61-3.62 3.3.06.09.12.18.19.27.51-.27 1.05-.52 1.55-.82.62-.37 1.16-.31 1.8-.02.45.21 1.03.32 1.51.27 1.12-.1 2.21-.44 3.31-.52 1.85-.14 3.57.46 5.34.89 2.46.6 4.74 1.66 7.03 2.7 1.89.84 3.47 2.16 4.87 3.69.5.54.97 1.07 1.44 1.61.05-.05.11-.09.17-.14-.35-.57-.69-1.17-1.07-1.74-.79-1.16-1.5-2.39-2.42-3.46-2.15-2.5-5.17-3.62-8.04-4.88zm-12.87 2.33c-.16-.08-.47.13-.7.23-.36.15-.69.38-1.05.48-.46.12-.97.11-1.45.16-.02.09-.02.18-.05.27.96.4 1.9.81 2.97 1.25.24-.57.53-1.12.67-1.72.05-.18-.18-.56-.39-.67zm-5.01-1.57c-.5-.41-1.07.04-1.49.45-.2.18-.45.27-.62.47-.37.45-.72.94-1.06 1.41.08.13.14.26.22.38 1.22-.01 2.47-.03 3.72-.05.02-.49.13-.83.03-1.11-.19-.56-.37-1.22-.8-1.55zm-5.63 15.59c-.13.03-.25.05-.39.08.14.59.27 1.18.41 1.77.11-.03.22-.05.33-.08-.1-.59-.23-1.17-.35-1.77zm-3.3-3.67c-.08.02-.18.04-.28.08.17.74.34 1.47.51 2.22.11-.03.23-.05.34-.07-.2-.75-.38-1.49-.57-2.23zm-.58-2.52c-1.16.62-2.21 1.19-3.28 1.76.63 1.68.85 3.3.51 4.98-.04.2.15.43.23.65.09-.03.17-.05.25-.07 0-.54-.04-1.07-.03-1.6.02-1.59.3-1.87 1.98-1.76-.17-.5-.29-.95-.43-1.39-.27.23-.28.5-.42.63-.17.16-.44.2-.68.28-.05-.22-.17-.44-.16-.66 0-.28.06-.57.14-.84.12-.57 1.07-1.11 1.52-.83.24.14.38.45.57.68.06-.02.1-.03.16-.05-.12-.6-.23-1.18-.36-1.78zm.44 9.2c.84.13 1.72.05 2.19 1.05-.21-1.66-.31-3.22.18-4.77.07-.19-.23-.5-.46-.95-.86 1.62-1.65 2.97-3.58 2.44-.02 1.01.74 2.07 1.67 2.23zm29.66-9.29c1.45 1.18 2.91 2.35 4.37 3.53-1-1.78-2.62-2.75-4.21-3.74-.07.08-.12.15-.16.21zm-13.88-1.01c.19-.54.28-1.09.57-1.51.35-.48.89-.82 1.3-1.26.17-.2.37-.51.36-.76-.01-.3-.16-.68-.38-.87-.11-.08-.59.06-.76.26-.59.59-1.01 1.35-1.93 1.51-.07.01-.15.46-.07.64.25.65.59 1.31.91 1.99zM112.1 80.35c-.52 1.35.74 3.48 2.34 4.19-.82-1.47-1.54-2.75-2.34-4.19zm1.45-33.02c.52-.82.85-.22 1.13.04 1.12-1.26 2.21-2.49 3.31-3.75-1.74.4-3.65 1.99-4.44 3.71zm.91 2.9c-.18.59-.27 1.21-.39 1.81l.26.06c1.05-1.89 1.99-3.85 3.18-5.64.7-1.06 1.76-1.89 2.7-2.75.2-.17.67-.01 1.02 0-.18.23-.33.57-.57.69-1.21.62-2.08 1.59-2.71 2.73-.92 1.64-1.72 3.35-2.47 5.05-.26.6-.2 1.36-.29 2.03l.29.03c.37-.84.72-1.71 1.15-2.53.41-.79.83-1.6 1.34-2.33.52-.73 1.26-1.32 1.71-2.08.61-1.04.98-1.55 1.91-1.93-.14.32-.19.57-.33.77-.94 1.32-1.93 2.59-2.83 3.94-1.26 1.91-2.4 3.89-1.9 6.33.02.08 0 .17-.04.25-.54 1.23.03 2.35.25 3.51.23-1.59.27-3.21.65-4.74.44-1.79 1.16-3.54 1.78-5.27.12-.37.34-.74.6-1.05.09-.13.4-.09.6-.13 0 .17.06.39-.01.54-.48 1.14-.99 2.27-1.45 3.42-.63 1.6-.86 3.26-.97 4.97-.16 2.26-.25 4.54.43 6.71.87 2.83 1.69 5.69 3.28 8.25.14.24.05.62.06.93-.28-.19-.62-.31-.83-.56-1.41-1.79-1.77-4.05-2.64-6.09-.54-1.25-.9-2.6-1.3-3.84-1.13 3.51.23 6.57 1.85 9.61-1.42-.82-1.74-2.36-2.63-3.57-.18.7-.51 1.46-.34 2.06.35 1.08.85 2.15 1.51 3.07 1.62 2.24 3.83 3.85 6.23 5.12 1.08.55 2.18 1.24 3.57 1.13-2.13-1.89-4.11-3.83-5.8-6.03 1.25.96 2.45 1.96 3.56 3.04 1.15 1.09 2.37 2.03 4.06 2.59-2.42-3.35-4.79-6.51-5.73-10.35 1.3 2.19 2.55 4.47 3.97 6.66.59.92 1.18 2.09 2.67 2.01-.56-1.26-1.11-2.5-1.61-3.74-.68-1.69-1.31-3.39-1.95-5.1-.04-.09.16-.29.26-.48 1.08 3.25 2.44 6.2 4.45 8.79.03-1.65-.99-3.08-.85-4.74.86 1.52 1.19 3.3 2.64 4.76-.45-2.69-.86-5.12-1.29-7.57.11-.03.21-.04.32-.07.92 2.76 1.12 5.75 2.41 8.39.12-.02.23-.05.35-.07-.22-2.09-.44-4.2-.65-6.29.09-.01.18-.04.27-.03.53 2.1 1.07 4.22 1.61 6.31l.44-.06c.02-1.67.05-3.35.06-5.22.22.26.38.34.39.45.19 1.28.38 2.55.57 3.84.19 1.37.38 1.52 1.8 1.36l.18-5.19h.26c.11 1.21.17 2.43.38 3.63.11.63.29 1.46.74 1.78.94.67 1.72.14 2.08-1.26.31-1.18.55-2.37.82-3.56.06-.22.17-.42.26-.62.09.02.15.05.24.08-.3 2.02-.64 4.04-.94 6.09.3.12.62.22 1.09.41.6-.89 1.36-1.75 1.75-2.75.4-1.02.39-2.18.59-3.29.13-.74.28-1.49.43-2.23.1.01.19.03.3.04.19 1.46.03 2.9-.32 4.32-.35 1.43-.9 2.82-1.38 4.22.51.17 1.76-.29 2.09-1.03.64-1.45 1.21-2.94 1.74-4.44.35-1.01.58-2.06.85-3.11.08.02.14.05.22.06l-1.65 7.56c.04.05.09.11.13.17.69-.7 1.47-1.34 2.03-2.1 2.46-3.4 4.36-7.04 4.42-11.37.03-2.43-.13-4.85-.34-7.28-.28-3.38-1.04-6.55-2.65-9.59.28-.01.63.03.73.22.37.69.77 1.41.98 2.17.39 1.34 1.26 2.46 1.35 3.92.21 2.93.68 5.83.87 8.76.23 3.4-.6 6.61-2.2 9.63-.36.68-.52 1.49-.92 2.13-1.27 1.95-2.66 3.83-4.83 4.91.03.07.07.17.11.24.28-.09.59-.17.84-.31 1.98-.96 3.32-2.55 4.3-4.47.26-.51.66-.95.92-1.47.72-1.37 1.63-2.71 2.04-4.16.53-1.88.63-3.86.94-5.79.46-2.94.37-5.86-.44-8.71-.82-2.88-1.74-5.7-3.55-8.19-1.58-2.15-3.46-3.88-5.65-5.31-.63-.41-1.31-.73-1.96-1.1 1.09 1.12 2.34 1.99 3.43 3.04 1.13 1.1 2.08 2.36 3.08 3.57.1.12.01.38.01.58-.21-.07-.47-.1-.61-.24-.27-.3-.46-.66-.7-.98-2.02-2.52-4.59-4.41-7.29-6.12-.19-.12-.43-.15-.8-.26.62.87 1.13 1.59 1.64 2.3-.1.07-.19.16-.29.24-1.1-1.04-2-2.35-3.64-2.71.77 1.33 1.55 2.68 2.32 4-.08.05-.17.11-.25.16-.73-.95-1.46-1.89-2.16-2.86-.75-1.04-1.87-1.5-3.08-1.85.04-.14.09-.29.13-.43.65.01 1.3 0 2.03 0-.9-.42-1.59-2.25-1.42-3.45.03-.24-.25-.52-.38-.77-.25.16-.64.26-.75.49-.17.33-.13.78-.22 1.18-.12.61-.48 1.04-1.13.93-1.31-.21-2.6-.49-3.9-.75-.47-.1-1.01-.15-1.38-.41-.55-.4-.83-.22-1.24.18-.55.52-1.14 1.07-1.81 1.42-.65.32-.95.05-.83-.65.14-.85.36-1.65.55-2.48-.6-.13-.97.18-1.1.95-.08.51-.09 1.1-.38 1.48-1.15 1.51-2.7 2.56-4.41 3.35-.62.3-1.29.45-1.93.71-.18.06-.33.26-.43.42-.17.25-.25.56-.45.77-1.68 1.85-3.29 3.76-4.08 6.23zm-25.23-6.2c.06.02.18-.24.29-.38-.76-.18-1.38-.32-2-.46-.02.07-.05.15-.07.23.59.21 1.18.42 1.78.61zm-5.6 6.91c.21-.6-.1-.86-.72-.91-.35 1.46-.69 2.92-1.02 4.37.11.05.22.08.35.12.46-1.18.94-2.38 1.39-3.58zm-5.42-6.99c.42-.11.73-.29.99-.22.82.16.79-.35.86-1.07-.74.39-1.52.45-1.85 1.29zm-3.85 6.91c.19.08.36.17.57.28.29-.3.56-.54.78-.8.91-1.02 2.33-.8 3.45-1.54 1.31-.88 1.49-.6 1.62-2.21.02-.2.02-.4.06-.6.11-.57-.12-.71-.71-.74-1.09-.05-2.14-.2-3.07-.92-.26-.2-.81-.2-1.17-.1-.76.21-1.5.54-2.21.9-.35.17-.77.43-.97.74-1.21 2.05-.55 4.04 1.65 4.99zm-3.16.28c.12-.19.37-.4.36-.58-.03-.37-.21-.74-.33-1.1-.11-.01-.22-.01-.32-.02-.11.41-.3.79-.31 1.18 0 .18.4.35.6.52zm10.15 1.59c-.84 1.54-1.7 3.08-2.55 4.62 1.63-1.13 2.22-2.82 2.55-4.62zm-14.62 4.73c-.15 1.08-.26 2.12.16 3.22.23.59.32.77.9.38.23-.16.64-.12.93-.07.08.02.1.48.07.72-.1.94.8 2.56 1.62 2.87.71.28 1.05-.13 1.38-.67.28-.47.27-.77-.23-1.06-.22-.12-.31-.46-.42-.72-.91-2.04-1.26-4.06.3-6 .06-.07.1-.15.11-.23.18-.99.35-1.98.57-2.97.14-.58-.11-.81-.65-.82-.76-.04-1.54.03-2.3-.1-1.25-.23-1.92.47-2.49 1.41-.32.53-.6 1.08-.96 1.72.6.57 1.15 1.3 1.01 2.32zM50.85 46.39c-1.24-.41-2.58-.51-4.04-.76.02.3.02.61.06.9.19 1.41.53 2.8.54 4.2.05 2.91.17 5.81-.66 8.66-.48 1.61-.89 3.21-1.72 4.7-.27.46-.38 1.04-.5 1.57-.03.17.11.48.24.56 1.1.53 1.87 1.51 2.83 2.2 1.56 1.14 3.33 1.71 5.04 2.35 1.79.68 3.52 1.45 5.16 2.42.93.55 1.89 1.04 2.88 1.59.04-.1.11-.26.12-.41.08-1.81.07-3.64.25-5.44.16-1.48.51-2.95.86-4.41.2-.84.61-1.61.87-2.43.08-.25.02-.58-.09-.82-.5-1.02-.98-2.05-1.56-3.03-.87-1.48-1.68-3.02-2.75-4.35-1.64-2.07-3.45-4.01-5.26-5.94-.64-.62-1.43-1.27-2.27-1.56zm-9.94-3.24c1.15 1.32 2.39 2.63 2.95 4.41.19.56.58 1.06.7 1.63.44 2.19.79 4.41 1.19 6.66.16-.7.36-1.32.44-1.96.13-1.1.41-2.24.21-3.27-.36-1.84-.89-3.66-1.62-5.39-.49-1.17-1.33-2.26-2.21-3.19-.96-1.02-2.11-1.86-3.2-2.74-2.17-1.74-4.45-3.28-7.22-3.9-1.11-.25-2.26-.68-3.38-.65-1.52.03-3.04 0-4.59.45-1.47.42-2.78 1.01-4.07 1.75-.63.36-1.1.97-1.65 1.46.95-.14 1.77-.46 2.62-.69 1.4-.35 2.81-.93 4.2-.91 3.37.06 6.7.61 9.73 2.24.45.23.9.55 1.38.72 1.88.66 3.29 1.96 4.52 3.38zm5.13-38.92c2.05 0 4.11-.19 6.15-.07 3.47.22 6.75 1.18 9.69 3.07.64.4 1.19.93 1.77 1.41 1.22 1.05 2.45 2.07 3.65 3.15.26.21.45.54.64.81.18.28.34.56.51.83.08-.04.13-.09.22-.14-.78-1.85-1.66-3.63-2.83-5.3-1.16-1.63-2.69-2.82-4.3-3.92-1.35-.92-2.75-1.88-4.3-2.31-2.87-.85-5.89-1.11-8.79.09-1.13.47-2.21 1.08-3.3 1.62.01.09.01.21.03.31.28.17.57.46.86.45zM30.83 30c.1-.33.11-.63.05-.93-.16-.88-.39-1.76-.53-2.65-.05-.25.14-.55.2-.84-.02-.01-.02-.03-.03-.04.06-.17.13-.38.24-.7.7 2.17.73 4.33 2.13 6.16-.65-4.37-1.28-8.54-1.91-12.73.12-.04.24-.09.37-.14.14.28.32.56.36.85.17.99.21 2.01.41 2.99.53 2.59 1.04 5.19 1.71 7.74.23.83.92 1.56 1.4 2.32.11-.05.2-.09.29-.15-1.62-3.96-2.17-8.09-2.23-12.34.21.19.37.42.4.64.27 2.24.34 4.51 1.01 6.69.51 1.72.71 3.57 2.15 4.92.23.22.22.69.35 1.26.1.05.41.2.73.36.09-.07.18-.13.27-.19-1.38-2.43-2.48-4.95-2.79-7.75.31.61.53 1.25.74 1.89.63 1.98 1.56 3.78 2.82 5.45.55.73 1.03 1.49 1.58 2.2 1.08 1.34 2.22 2.65 3.32 3.97.32.38.65.77.95 1.15.1-.3-.01-.47-.04-.65-.02-.22 0-.45-.01-.67.17.13.39.21.49.37.9 1.33 1.71 2.72 2.65 4 .99 1.33.72 1.4 2.09 1.59-4.05-5.17-7.77-10.36-9.98-16.44.23.11.41.27.5.47 1.02 2.26 2.25 4.41 3.55 6.54 2 3.24 4.36 6.18 6.85 9.03.24.27.58.42.88.65.05-.07.09-.13.16-.19-.52-.84-1.04-1.7-1.59-2.54-1.86-2.95-3.73-5.87-5.58-8.84-.1-.16-.06-.42-.07-.63.09-.04.2-.06.28-.09.34.63.64 1.28 1.01 1.9.88 1.4 1.74 2.81 2.71 4.17 1.38 1.92 2.84 3.78 4.28 5.65.13.17.43.22.66.33.06-.09.1-.17.16-.25-.55-.93-1.14-1.85-1.66-2.79-1.45-2.66-2.88-5.32-4.26-8.01-.38-.74-.57-1.59-.85-2.38.15.07.34.11.4.2.69 1.26 1.33 2.56 2.05 3.8 1.53 2.65 3.01 5.33 4.71 7.86 1.25 1.91 1.61 1.87 3.64.75.15-.09.3-.17.44-.29 1.71-1.26 3.24-2.63 4.49-4.41 1.95-2.78 2.87-5.72 2.43-9.09-.04-.25.11-.49.17-.75l.26.06c.79 2.29.52 4.55-.26 6.87 1.83-1.91 2.57-4.24 3.02-6.64.45-2.44-.64-4.71-1.24-7.03l.27-.07.52 1.25c.07-.03.15-.08.24-.1-.72-3.4-1.96-6.56-4.12-9.36.29.14.57.3.78.51 2.33 2.2 3.37 5.07 4.2 8.07.24.89.55 1.75.84 2.64.11-.06.22-.08.33-.14.12-6.71-1.57-12.57-7.36-16.82-2.2-1.62-8.78-4.14-10.45-3.43 1.79.58 3.55 1.01 4.74 2.08-1.64-.51-3.48-.98-5.26-1.65-2.46-.93-4.85-.55-7.28.09-.17.05-.48-.06-.55-.2-.44-.89-.96-.73-1.55-.16-.1.1-.27.1-.39.14-.04-.41.03-.82-.13-1.07-.47-.78-1.02-1.49-1.63-2.35-.1.05-.45.19-.77.36-1.05.57-1.14 1.89-.13 2.51 1.08.65 1.84 1.54 2.41 2.64.45.85.16 1.51-.78 1.48-.47-.03-.97-.3-1.37-.58-.37-.26-.61-.69-1.05-1.22-.15.54-.31.9-.32 1.26.01 1.06.24 2.19-1.27 2.47-.16.04-.27.3-.43.42-.54.41-1.14.66-1.77.33-.62-.32-.64-.9-.49-1.52.03-.13-.04-.3 0-.44.16-.67-.05-1.08-.77-1.12-.51-.03-1.26.78-1.08 1.3.35 1.06-.26 1.54-1 2-.5.3-.66.57-.26 1.17 1.01 1.48.95 1.76-.11 3.21-1.65 2.25-2.75 4.72-3.1 7.51-.05.45.03.93.02 1.39.74-2.09.74-2.09 1.17-2.16-.1 2.49.15 4.82 1.57 6.88zm5.51-19.82c.2-.66.4-1.35.6-2.02-1.1.45-1.24.93-.6 2.02zM16.48 37.14c-.11.29.26.75.43 1.14.31-.15.63-.28.92-.48 1.2-.85 2.29-1.85 3.57-2.54 1.04-.55 2.28-.91 3.45-1.03 1.89-.19 3.88-.4 5.72-.08 2.11.38 4.22.88 6.15 2.11 2.81 1.8 5.46 3.69 7.55 6.32.35.44.69.88 1.04 1.33.09-.04.19-.08.29-.13-.15-.43-.25-.91-.48-1.3-.91-1.49-1.78-3.01-2.82-4.39-.89-1.16-1.77-2.41-3.18-3.11-2.11-1.04-4.18-2.2-6.3-3.22-2.02-.99-4.19-1.52-6.46-1.24-1.54.2-3.07.53-4.51 1.06-1.21.45-2.77.39-3.52 1.69-.73 1.25-1.31 2.56-1.85 3.87zm-1.71-1.11c-.02.21.12.43.18.65.22-.07.55-.11.62-.25.46-.98.85-1.98 1.37-3.21-.87.3-1.45.49-1.75.59-.18.86-.34 1.54-.42 2.22zm-1.85 1.07c.62-.26 1.02-1.37.93-2.45-.85.41-1.15 1.15-.93 2.45zm-1.9 1.82c1-.52.51-1.47.7-2.21-1.24.56-1.32.83-.7 2.21zM7.11 49.21c-.37.34-1 .48-1.53.54-.46.02-.93-.2-1.55-.34-.09 1.27-.23 2.43-.25 3.58-.02.78.14 1.55.13 2.34 0 .75-.21 1.52-.16 2.26.06.87.47 1.11 1.21.66.87-.53 1.54-.26 2.22.24.38.26.75.55 1.08.87.55.55.94.47 1.39-.16.59-.79 1.13-1.7 1.92-2.18.92-.58 2.1-.74 3.27-1.11-.12-.22-.32-.62-.53-1.02-.37-.7-.68-1.44-.29-2.21.13-.25.51-.52.8-.53 1.19-.12 2.4-.14 3.7-.19-.08-.48-.1-.83-.19-1.14-.2-.64-.51-1.25-.61-1.88-.07-.43.04-.96.24-1.36.16-.32.57-.54.84-.82 1-1.01.71-2.22-.68-2.48-.8-.16-1.69-.04-2.53.05-.73.06-1.04-.33-1.03-.92 0-.53.1-1.14.36-1.58.41-.68.71-1.33.83-2.12.17-1.03.04-1.64-.63-1.95-.55-.26-1.55.05-2.04.63-.23.27-.42.61-.7.75-1.65.88-1.9 2.62-2.7 4.17.46.06.77.06 1.06.13.44.09.98.1 1.32.36 1.27.95 2.61 3.87 1.75 5.58-.98 1.95-1.88 3.93-2.86 5.88-.55 1.09-1.58 1.29-2.7.82-1.47-.61-2.35-1.42-1.69-3.13.01-.01.01-.06 0-.08-.23-.8.45-1.14.86-1.58.13-.15.62.05.94.09-.05.21-.04.51-.15.57-1.02.53-.73 1.48-.74 2.32 0 .24.31.55.57.65.13.06.48-.2.61-.4.69-1.05 1.02-2.22.86-3.49-.1-.76-.07-1.67-.49-2.25-.53-.77-.56-1.49-.54-2.34.02-1.16-.06-2.32-.1-3.57-1.89 1.15-2.14 2.1-1.12 3.72.14.24.24.52.39.78.4.78-.05 1.4-.54 1.84zm-.75-6.03c.59-.74 1.18-1.48 1.78-2.22-.1-.07-.2-.17-.3-.24l-1.82 2.21.34.25zm-.12 5.32c.44-.34.38-.76.15-1.2-.34-.68-.66-1.37-.97-2-.52 1.03-.43 2.3.82 3.2zm2.92-7c.1.01.22.01.3.01.11-.98.23-1.97.36-3.09-.38.15-.61.25-.74.3.03 1.04.06 1.92.08 2.78zm3.4 8.36c.86-1.55-.12-2.85-.44-4.22-.07.01-.14.02-.2.04.21 1.4.43 2.79.64 4.18zm-2.29-3c-.12.01-.24.03-.37.05.21 1.26.4 2.51.6 3.77.09 0 .17-.02.26-.02.22-1.32-.09-2.57-.49-3.8zm2.02 14.84c-.53-.64-1.14-1.2-1.72-1.79 2.56 5.24 6.57 8.94 12.22 10.34 4.07 1.01 8.27.57 12.23-.98-.03-.17-.05-.35-.08-.5-.69.11-1.37.32-2.05.29-1.64-.08-3.29-.15-4.89-.44-2.69-.49-5.38-1.04-8-1.78-3.08-.87-5.68-2.61-7.71-5.14zm-8.2 2.89c.41-1.78.82-3.5 1.23-5.27-.16.06-.28.12-.41.15-.82.22-1.96-.08-2.05-.59-.16-.9-.25-1.82-.28-2.73-.03-1.11.05-2.22.1-3.33.03-.88.15-1.76.08-2.64-.06-.82.04-1.45.89-1.73-.17-.37-.34-.7-.49-1.02-.13 0-.26-.01-.37-.03-.3.94-.67 1.88-.88 2.84-.2.91-.24 1.83-.4 2.75-.23 1.46-.23 2.9.16 4.32.57 2.05 1.18 4.11 1.82 6.14.12.4.4.77.6 1.14zm1.01 1.02c.12 0 .22.01.35.02l.21-2.96c-.09 0-.18-.02-.27-.02-.09.99-.18 1.98-.29 2.96zm4.21 7.06c-1.94-3.12-2.1-6.58-2.64-10.02-.09.15-.17.25-.19.34-.53 2.94-.18 5.77 1.22 8.41.28.56.63 1.2 1.61 1.27zm27.65-3.26c-4.99 2.41-10.18 3.03-15.4 1.41-5.27-1.64-9.24-5.09-11.71-9.85-.78-.2-1.36-.33-2.11-.53.03.91-.02 1.75.12 2.56.21 1.34.47 2.67.85 3.97.72 2.6 1.76 5.08 3.55 7.14.66.76 1.44 1.29 2.44 1.51.56.11 1.12.3 1.64.54 1.63.78 3.42 1.11 5.14.91 2.45-.27 4.86-.99 7.28-1.55.16-.03.32-.15.46-.25 1.9-1.39 3.81-2.79 5.7-4.2.7-.52 1.35-1.11 2.04-1.66zm4.12-3.6c.56-.02 1.38-.61 1.59-1.13.62-1.54 1.12-3.15 1.43-4.79.26-1.39.29-2.84.23-4.26-.08-1.83.06-3.74-.89-5.41-.49-.89-1.08-1.71-1.7-2.65.37.06.72.13 1.08.2-2.91-7.3-12.27-10.47-17.68-10 1.69.58 3.87 1.11 5.81 2.09 1.93.96 4.13 1.57 5.59 3.41-.31.07-.6.04-.82-.1-.6-.37-1.15-.87-1.78-1.16-1.92-.84-3.84-1.67-5.8-2.4-2.63-.97-5.3-1.37-8-.25-.83.34-1.69.59-2.54.9-.09.03-.2.12-.25.22-.48.94-.94 1.89-1.51 3.01.49-.01.82.09 1.01-.03.91-.5 1.7-.05 2.48.28.94.41 1.36 2.34.67 3.01-1.72 1.74-1.69 1.73-.66 4.01.21.44.21 1.11.04 1.57-.1.24-.81.25-1.25.31-.89.12-1.78.19-2.65.32-.67.1-.65.65-.44 1.07.24.52.64.95.95 1.44.42.63.33 1.29-.27 1.54-.38.15-.84.17-1.25.1-.96-.16-1.83-.11-2.53.66.59 1.27 2.47 3.03 3.98 3.76 1.93.97 3.92 1.83 5.86 2.74.16.08.26.3.39.45-.21.06-.46.22-.61.15-2.1-.87-4.24-1.69-6.25-2.71-1.18-.6-2.16-1.53-3.23-2.32.74 1.01 1.52 2.02 2.41 2.9 1.81 1.76 4.08 2.76 6.43 3.43 2.34.66 4.77 1 7.16 1.45.71.14 1.43.27 2.14.28 1.95.05 3.91.11 5.86.01 1.21-.06 2.43-.44 3.63-.69.14-.03.23-.18.35-.29-.02-.08-.03-.18-.04-.26-4.03.31-8.08 1.11-12.02-.24.01-.08.01-.17.03-.24 1.04.04 2.13-.03 3.16.16 3.35.63 6.59-.43 9.89-.54zm27.15 22.77c2.72 2.56 5.68 4.71 9.46 5.32 2.03.33 4.06.55 6.09.78.84.09 1.68.05 2.51.06.01-.1.02-.2.02-.32-.58-.08-1.16-.13-1.72-.23-2.62-.49-5.12-1.32-7.56-2.36-2.15-.94-4.04-2.3-5.64-3.92-1.34-1.33-2.57-2.84-3.5-4.57-1.67-3.09-2.89-6.34-3.51-9.79-.23-1.26-.19-2.58-.41-3.83-.34-1.94.43-3.7.86-5.51.44-1.79 1.24-3.5.95-5.45-.3.53-.54 1.03-.83 1.49-2.26 3.65-3.09 7.68-3.22 11.89-.02.8-.14 1.62-.04 2.42.35 2.92.54 5.87 2 8.51.69 1.26 1.48 2.46 2.36 3.58.61.73 1.48 1.26 2.18 1.93zm-18.1 11.06c2.21-2.66 4.79-4.85 7.49-6.92 2.82-2.16 6.23-2.58 9.62-3.62-.67-.65-1.22-1.17-1.91-1.83-.01 1.2-.68 1.47-1.47 1.59-.69.09-1.45.05-2.05.32-1.57.7-3.13 1.47-4.61 2.36-2.48 1.46-4.38 3.55-5.89 5.99-.44.69-.79 1.41-1.18 2.11zm-7.83 25.58c.54.02.96.01 1.37.08.35.04.77.35 1 .23.67-.37 1.24-.91 1.87-1.33 1.86-1.28 2.97-3.02 3.29-5.27.03-.2.24-.37.37-.56.22.32.24.54.25.77.03 1.68-.69 3.09-1.76 4.32-.54.62-.48 1.17-.15 1.73.39.7.85 1.36 1.4 1.94.93.97 1.87 1.97 2.94 2.79 1.41 1.1 2.87 2.13 4.42 3.01 1.45.81 3.02 1.41 4.56 2.02 1.02.4 2.12.62 3.18.92.17-.58.21-.97.39-1.27.56-.96.49-1.04-.52-1.42-1.87-.69-3.69-1.49-5.52-2.27-.19-.07-.31-.32-.45-.5.82.22 1.49.55 2.21.77 1.63.49 3.26.92 4.92 1.34.72.18 1.12-.22 1.3-.95-1.07-.26-2.12-.45-3.12-.81-1-.37-1.95-.89-2.91-1.34.04-.1.09-.22.12-.33.3.08.62.1.9.21 1.89.76 3.82 1.26 5.88 1.17.18-.02.35-.24.56-.39-2.03-.72-3.93-1.39-5.83-2.04.04-.11.07-.24.11-.34 2.06.38 4.03 1.44 6.22.77-2.12-.78-4.24-1.55-6.35-2.33.04-.12.07-.23.11-.35.22.03.45.07.67.13 1.89.53 3.74 1.13 5.65 1.55 1.22.27 2.51.24 3.53-.84-2.2-.44-4.31-.86-6.42-1.26.01-.12 0-.24.01-.36.21-.04.42-.15.61-.11 2.59.47 5.19.91 7.83.48.66-.12 1.31-.38 1.94-.58-.02-.08-.04-.18-.06-.27-1.13-.04-2.29 0-3.39-.18-1.1-.17-2.17-.59-3.25-.91.03-.11.05-.23.06-.33 4.42.99 8.79 1.12 13.2-.78-1.26-.2-2.38-.35-3.47-.57-1.1-.2-2.18-.46-3.26-.69.03-.09.04-.19.07-.29.08-.02.15-.05.21-.05 3.78.45 7.56.95 11.35 1.3.82.08 1.7-.33 2.5-.65.22-.09.28-.63.42-.96.51-1.16.24-1.72-.98-2.08-.67-.2-1.32-.41-1.97-.63-.15-.06-.26-.27-.4-.4.04-.06.09-.11.13-.17 1.3.26 2.62.52 3.99.8-.06-.41-.23-.71-.14-.91.32-.79-.18-1.15-.72-1.45-.66-.38-1.38-.68-2.07-1.01l-2.9-1.42c.02-.03.04-.06.07-.1 2 .64 4 1.31 6.1 2 .07-1.65.04-3.14-.47-4.64-.28-.79-.8-1.29-1.52-1.53-1.78-.57-3.6-1.03-5.39-1.56-.69-.2-1.37-.43-2.05-.64.03-.13.07-.23.1-.36 2.79.65 5.59 1.28 8.48 1.94-.19-.88-.26-1.74-.56-2.5-.4-1.04-1.01-1.91-2.28-2.1-1.5-.22-2.99-.52-4.49-.8-.89-.17-1.74-.38-2.62-.56.02-.08.03-.15.05-.23 2.83.35 5.67.68 8.79 1.06-.53-.66-.84-1.44-1.33-1.6-1.93-.62-3.9-1.01-5.96-.94.2-.2.4-.61.57-.58.98.06 1.91.24 2.89.32.67.05 1.34.01 2.13.01-.35-.64-.37-1.45-1.35-.98-.08.05-.28-.15-.42-.23-.28-.17-.54-.44-.85-.5-1.18-.24-2.38-.4-3.57-.6-.92-.15-1.87-.3-2.79-.45.57-.08 1.13-.2 1.69-.19 1.52.03 3.03.13 4.55.18.07.01.13-.08.19-.12-.85-1.51-2.22-1.94-3.8-1.93-1.76.03-3.52.09-5.29.16-1.35.05-2.69.11-4.02.18.65-.16 1.29-.34 1.94-.46 1.02-.18 2.03-.29 3.05-.42-3.41-.67-6.76-.34-10.1.45 1.28-1.02 2.86-.96 4.31-1.35.36-.1.71-.32 1.05-.48-.04-.15-.09-.29-.14-.42-3.06-.41-6.02.11-8.93 1.27 1.94-1.39 4.28-1.7 6.68-2.48-.62-.45-1.05-.76-1.49-1.07-.02.07-.01.15-.02.22-.93.2-1.85.41-2.76.59-.05-.12-.07-.23-.11-.35.71-.24 1.44-.51 2.22-.8-.45-.74-.97-1.01-1.64-.89-.7.12-1.41.29-2.09.5-1.24.35-2.52.64-3.71 1.16-3.41 1.52-6.23 3.85-8.73 6.56-1.51 1.63-2.86 3.39-3.6 5.54-.29.88-.7 1.73-1.14 2.77-.57-.56-1.04-.95-1.39-1.41-.67-.91-.6-1.96-.41-2.99.36-1.89 1.11-3.62 2.1-5.29 1.3-2.19 2.68-4.32 4.57-6.06.59-.55 1.23-1.05 1.87-1.53.61-.46 1.26-.88 1.9-1.31-.06-.07-.12-.12-.18-.19-6.82 3.24-10.55 8.76-11.82 16.04.31.26.65.45.84.75.08.13-.09.53-.26.69-.26.26-.69.36-.9.64-.83 1.09-1.28 1.27-2.58.86-.65-.21-1.29-.48-2-.73-.18.52-.54 1.06-.42 1.48.15.58.63 1.48 1.01 1.51 1.14.03 1.97.73 2.96 1.02.22.06.53.05.73-.06.84-.44 1.25-.31 1.54.49.05.14.27.29.43.33.34.08.71.03 1.01.15.28.13.59.36.71.61.07.16-.14.64-.31.69-.49.15-1.06.25-1.55.18-.65-.07-1.3-.32-2.01-.51-.01.28-.05.44-.02.6.3 1.45 1.78 2.71 3.72 2.86 1.02.08.95.57.83 1.26-.04.19-.15.39-.13.59.08.67-.32.85-.83.75-.84-.18-1.66-.43-2.46-.71-.45-.14-.86-.41-1.3-.61-.36 1.67.09 2.45 1.68 2.76.7.14.86.5 1.03 1.08.45 1.46-.36 2.66-.82 3.9-.18.5-.79.86-1.45.37-.26-.2-.58-.33-.99-.55-.29.59-.5 1.03-.64 1.36zM62.48 86.1c-1.77.71-3.48 1.24-5.02 2.05-1.6.82-3.1 1.86-4.35 3.18.06.07.11.15.17.22.22-.12.42-.24.64-.35 1.05-.64 2.1-1.36 3.2-1.89 1.41-.67 2.91-1.12 4.34-1.75 1.15-.51 2.34-.62 3.61-.56-.87-.55-1.76-1.06-2.67-1.55-.02-.02-.08.05-.11.07.05.24.15.47.19.58zm-8.49 1.57c1.7-.73 3.41-1.46 5.11-2.2-1.91.2-3.69.74-5.2 1.97.03.07.06.16.09.23zm-6.9 28.28c-.51-.34-1.07-.57-1.59-.86-.69-.39-1.46-.74-1.96-1.3s-.74-1.38-1.1-2.11c-.21.05-.46.11-.77.18 1.21 2.62 3.61 4.48 5.42 4.09zm-5.59 7.47c.02-.61.03-1.15.04-1.67.01-.79.54-.91 1.16-.92.6-.01 1.01.15.96.88-.03.44.06.91.09 1.35.08.02.15.01.23.02.01-.19-.04-.47.06-.55 1.01-.73.19-1.31-.27-1.66-.96-.76-2.02-1.37-2.35-2.72-1.5 1.7-1.49 4.18.08 5.27zm18.95-34.49c-6.64 1.19-13.4 9.24-13.09 15.18 2.46-6.8 6-12.5 13.09-15.18zm-14.06 22.8c.02-.14.04-.28.07-.41-.55-.09-1.11-.19-1.67-.26-.01.1-.04.19-.05.29.54.1 1.09.24 1.65.38zm2.16 16.96c1.18 1.34 2.5 2.53 3.74 3.81.18.18.25.46.38.69-.07.03-.14.09-.21.13-1.41-.66-2.13-2.11-3.33-2.99.18.34.45.59.64.89.25.39.45.8.66 1.21l.01-.01c.34.25.73.46 1 .77.83.99 1.61 1.99 2.76 2.65 1.05.6 2.02 1.41 3.12 1.94 1.72.8 3.51 1.46 5.29 2.13.46.18.96.16 1.15-.64-3.18-.08-5.43-2.15-7.96-3.6 2.7.93 5.17 2.61 8.17 2.66.15-.57.29-1.07.42-1.52-2.11-.88-4.18-1.69-6.17-2.63-1.35-.63-2.65-1.41-3.86-2.28-1.36-.98-2.69-2.06-3.89-3.24-.99-.98-1.77-2.19-2.66-3.27-.19-.24-.59-.61-.65-.56-.35.26-.78.59-.42 1.13.54.9 1.07 1.91 1.81 2.73zm-4.29-.99c1.06 1.82 2.07 3.58 3.08 5.35.1-.05.21-.08.32-.13-1.06-2.14-2.14-4.27-3.25-6.48-.38-.03-.88-.03-1.53-.07.28.58.49 1.02.73 1.47.24-.06.47-.1.65-.14zm2.15 6.3l.31-.14c-.32-.73-.66-1.48-.98-2.21-.11.06-.2.09-.31.14.32.74.65 1.47.98 2.21zm13.18 6.02c-.36-.21-.69-.39-1.01-.55-1.14-.61-2.36-1.12-3.4-1.87-1.68-1.19-3.35-2.42-4.6-4.13-.27-.38-.41-.64-.17-1.04-.24.02-.58.16-.67.07-.48-.55-.92-1.17-1.37-1.75-.7-.96-1.4-1.92-2.19-2.96.4 5.3 9.14 13.24 13.41 12.23zM52 138.58c2.33 1.96 4.95 3.38 8.05 3.67.95.09 1.92-.06 2.87-.15.16-.01.28-.31.43-.47-.19-.13-.4-.32-.6-.35-.92-.08-1.84-.12-2.76-.18-1.91-.11-3.67-.79-5.27-1.7-1.87-1.08-3.58-2.41-5.26-3.56.75.84 1.54 1.91 2.54 2.74zm10.39 4.86c-5.44-.02-9.74-2.31-13.23-6.37-.05.06-.09.11-.12.18.03.11.01.25.07.32 1.11 1.2 2.08 2.58 3.37 3.54 1.92 1.45 4.2 2.24 6.52 2.84 1.14.29 2.27.05 3.39-.51zm47.54-5.14c-1.39-1.76-2.86-3.47-4.33-5.18-.28-.33-.6-.66-.95-.89-.94-.58-2.04-1-2.84-1.73-1.48-1.32-3.19-1.83-5.08-2.01-.93-.1-1.92-.08-2.8-.33-.99-.29-1.87-.04-2.72.24-1.5.49-2.99 1.08-4.42 1.74-.88.41-1.69 1-2.5 1.55-.22.15-.34.41-.56.55-.12.08-.39.06-.53-.02-.08-.04-.11-.38-.03-.45.48-.52.94-1.12 1.53-1.46 1.16-.68 2.41-1.19 3.62-1.79 1.49-.74 3.08-1.27 4.71-1.27 1.68 0 3.36.31 5.02.61 1.81.32 3.35 1.21 4.87 2.22 1.7 1.12 3.33 2.25 4.55 3.91.58.8 1.32 1.47 1.98 2.22.08-.27.02-.47-.11-.63-.15-.21-.41-.36-.51-.57-1.26-2.47-3.41-4.16-5.43-5.9-1.26-1.09-2.73-1.9-4.09-2.9a.325.325 0 01-.12-.16c-.55-.2-1.03-.38-1.13-.42-2.36-.63-4.7-1.4-7.07-1.97-2.93-.69-5.91-.62-8.8.19-2.1.59-4.14 1.44-6.16 2.29-1.67.72-3.21 1.61-4.64 2.82-1.58 1.35-2.8 2.97-4.07 4.58-1.56 1.95-2.1 4.22-2.5 6.56-.02.12-.02.29.03.34.9.61.26 1.1-.12 1.6-.53.72-.47 1.5.14 2.19.16.19.28.43.34.68.44 1.64 1.3 2.96 2.96 3.99 0-.98-.06-1.8 0-2.62.11-1.81.48-2.46 2.36-2.02.25.06.53.14.99.25-.82-2.76-1.41-5.39-1.32-8.1.07-.01.15-.02.21-.04.49 2.29.98 4.59 1.43 6.77.72-.82 1.2-1.77 1.99-2.19.96-.51 1.46-1.08 1.82-2.08.66-1.78 1.42-3.53 2.37-5.18.8-1.39 1.74-2.82 2.91-3.92 1.32-1.24 3.01-2.1 4.48-3.24 1.78-1.35 3.85-1.89 5.95-2.37 1.29-.27 1.61-.07 1.83.89-.15.02-.28.08-.42.06-1.68-.27-3.26.25-4.71.98-1.47.71-2.82 1.64-4.19 2.52-2.03 1.3-3.96 2.75-5.01 5.02-.77 1.64-1.41 3.34-2.08 5.04-.16.41-.23.84-.35 1.26.15.09.28.19.43.28.38-.39.83-.74 1.15-1.17.89-1.19 1.7-2.4 2.57-3.59.08-.11.36-.1.57-.14 0 .2.07.45-.01.59-.8 1.27-1.63 2.51-2.4 3.78-.2.31-.33.77-.27 1.12.17 1.35.42 2.66.66 4.13 1.88.37 2.81 1.69 2.63 3.57-.08.68.05 1.37.1 2.18.35-.17.46-.22.55-.26.47-.15 1.11-.53 1.38-.36.33.2.39.9.48 1.38.13.65-.48.63-.84.75-.82.28-1.06.87-.93 1.63.16 1.06.76 1.52 1.64 1.61.87.09 1.8.2 2.57.59.64.31 1.27.95 1.55 1.6.55 1.33-.29 2.95-1.64 3.44-.67.24-1.31.5-2.18.84.37.3.57.52.83.65 1.23.61 2.48.81 3.89.78 3.22-.06 6.4-.44 9.44-1.39 3.09-.96 5.98-2.41 8.36-4.66 1.12-1.07 2.26-2.21 3.04-3.54 1.25-2.14 2.23-4.42 3.28-6.67.27-.59.72-1.53.5-1.83-.52-.68-.4-1.41-.58-2.1-.54-2.01-2.08-3.31-3.27-4.84zm-41.1 15.63c-.99-1.11-1.96-2.23-2.93-3.32-.07.06-.15.13-.21.19.34 1.72 1.9 2.27 3.14 3.13zm-.26 3.65c.61.18 1.3.15 1.96.21.52.04.99.05 1.03-.67.06-.73-.4-.86-.98-.9-.85-.08-1.71-.18-2.54-.31-.29-.05-.58-.2-1.12-.39.39 1.09.81 1.81 1.65 2.06zm1.71 1.3c-.64-.97-1.45-.37-2.18-.45.21.58 1.38.81 2.18.45zm7.54 11.42c0-.51.04-.99-.01-1.47-.13-1.25.41-2.19 1.53-2.79.18-.1.4-.53.32-.68-.23-.51-.56-.51-1-.08-1 .96-2.07.83-2.52-.33.38 0 .7 0 1.02-.01.3-.02.74.05.89-.13.61-.68 1.36-.66 1.97-.26.83.55 1.79 1.14 1.82 2.37.91.05 1.61-.43 2.04-1.46.76-1.78.71-1.99-.67-3.33-.39.14-.81.37-1.21.37-1.38.01-2.76.09-4.1-.14-1.13-.2-1.23-1.56-1.91-2.32-.32-.36-.47-.85-.71-1.29.09-.07.16-.13.25-.19.75 1.28 1.5 2.58 3.23 2.93-1.13-1.61-2.44-3.01-3.01-4.86 1.06 1.29 2.13 2.58 3.19 3.87.08-.07.18-.15.26-.22-.01-.07 0-.18-.03-.25-1.16-1.57-2.32-3.11-3.48-4.67-.19-.23-.53-.58-.47-.66.46-.71-.19-.9-.54-1.19-1.28-1.07-2.58-2.1-3.88-3.14-.38-.31-.86-.32-.98.16-.16.6-.21 1.28-.13 1.89.08.68.48 1.34-.48 1.84.43.24.74.44 1.08.58.26.12.55.18.83.24.93.22 1.41.92 1.34 1.85-.02.35.12.74.2 1.27-.16.3-.58.75-.67 1.28-.17.91.44 1.53 1.09 2.09.62.54 1.19 1.15 1.79 1.72-.05.07-.12.16-.16.24-.16.01-.36.1-.47.04-1.49-.99-3.22-1.81-3.19-3.99-.94.19-1.7.36-2.48.51.62 3.4 6.56 9.35 9.25 10.21zm-.84-26.64c.32-.77.01-1.8-.64-2.14-1.17-.61-2.28-.53-2.74.38-.39.81-.61 1.72-.75 2.61-.09.51-.24.77-.73.72-.6-.05-1.18-.16-1.75-.27-.58-.11-1.18-.17-1.26.61-.09.83-.06 1.69-.04 2.55.01.12.27.34.41.34 1.28.02 2.55 0 3.85-.02.65-.02 1.35-.24 1.93-.08 2.19.62 3.41 2.4 4.58 4.18.08.13-.08.43-.18.82-1.59-2.25-3.1-4.2-5.81-4.42-.04.08-.09.18-.13.25.79.52 1.62.97 2.37 1.55.96.73 1.82 1.57 2.76 2.33 1.02.85 1.29 2.46 2.79 2.84.09.02.17.15.22.25.52 1.28 1.13 2.53 1.49 3.84.36 1.24.41 1.37 1.68.98.26-.08.51-.12.77-.2 1.64-.44 2.34-2.83 1.02-3.88-.7-.55-1.75-.87-2.67-.91-1.65-.09-3.04-1.81-2.42-3.38.18-.43.73-.72 1.09-1.08.17-.16.33-.32.52-.49-.05-.06-.11-.13-.18-.18-.18.08-.35.17-.53.26-.89.4-1.66-.03-1.7-1.01-.02-.44-.06-.87 0-1.3.19-1.06-.17-1.88-.93-2.56-.27-.22-.64-.35-.95-.52-.15.35-.29.7-.45 1.05-.24.52-.44 1.1-.78 1.55-.18.23-.65.23-.98.33-.07-.25-.11-.52-.21-.77-.05-.16-.16-.28-.28-.42-.5-.58-.57-1.23-.25-1.94.24-.58.59-1.21.88-1.87zm.43.88c-.26.6-.55 1.18-.73 1.79-.05.18.22.43.33.65.16-.17.39-.32.44-.51.13-.6.17-1.23.27-1.85-.12-.02-.21-.04-.31-.08zm4.04 14.81c-.01-2.15-3.6-7.17-5.27-7.44 1.72 2.43 3.49 4.93 5.27 7.44zm-9.05-9c1.32 1.26 2.73 2.42 3.97 3.77 1.21 1.32 2.23 2.82 3.33 4.24-1.54-3.47-3.94-6.19-7.3-8.01zm6.83 20.94c.13-1.65.23-3.1.35-4.62-.88.58-1.08 3.24-.35 4.62zm2 1.02c-.2-1.85-.4-3.67-.62-5.6-.79 2.02-.44 5.14.62 5.6zm2.49.92c-.21-1.72-.39-3.36-.59-5-.06-.53-.41-.62-.86-.63-.5-.01-.71.27-.64.7.21 1.33.45 2.66.75 3.98.16.65.68.98 1.34.95zm2.63.8c-.76-2.42-1.5-4.79-2.21-7.06-.03.15-.15.48-.14.82.03 1.66.13 3.28.74 4.85.31.81.74 1.34 1.61 1.39zm2.34.22c-.97-1.99-1.89-3.88-2.8-5.77-.12.04-.23.07-.33.12.08.42.1.85.25 1.23.47 1.2 1.05 2.38 1.51 3.59.21.58.56.85 1.37.83zm26.05-25.31c-.43 1.43-.74 2.72-1.23 3.94-.72 1.82-1.28 3.76-2.7 5.21-.72.74-1.57 1.34-2.36 2.03-1.7 1.48-3.27 3.13-5.42 4.06-1.91.83-3.77 1.76-5.88 2.11-2.59.44-5.03.27-7.46-.7-.51-.21-1.07-.24-1.61-.35-.03.1-.07.2-.09.29.9.49 1.77 1.06 2.71 1.47 1.75.79 3.54 1.43 5.58 1.21 2.17-.22 4.12-.98 5.89-2.12 1.05-.68 1.91-1.66 2.86-2.51.14-.12.36-.15.63-.25-.05.25-.04.35-.08.4-1.16 1.81-2.87 2.98-4.68 4.05-.54.33-1.23.37-1.79.65-1.61.78-3.33.78-5.01.64-2.35-.18-4.32-1.47-6.28-2.68-.48-.3-.95-.61-1.41-.89-.08.04-.15.1-.23.15.16.81.18 1.67.49 2.39.82 1.9 1.69 3.79 2.69 5.59.48.87 1.32 1.42 2.41 1.58 2.11.26 4.2.01 6.26-.33.84-.14 1.76-.27 2.47-.68 2.96-1.69 5.33-4.11 7.38-6.81 1.11-1.49 2.21-3.04 3.04-4.71 1.11-2.2 1.93-4.55 2.9-6.82.96-2.18 1.16-4.44.92-6.92zm-23.87 16.14c2.69.92 5.39.67 7.98-.16 2.94-.94 5.65-2.43 7.94-4.62 1.65-1.56 3.36-3.11 4.45-5.13.83-1.58 1.43-3.29 2.07-4.96.19-.52.2-1.11.29-1.66-.32.29-.46.6-.62.9-.59 1.09-1.33 2.12-1.77 3.27-.8 2.12-2.28 3.76-3.93 5.18-2.72 2.34-5.79 4.12-9.36 4.89-1.75.39-3.51.82-5.28 1.1-1.33.2-2.69.2-4.03.28 0 .06-.02.12-.03.18.76.25 1.53.48 2.29.73zm-22.46-13.15c.09-.66.18-1.28.24-1.63-.74-.57-1.26-.92-1.74-1.33-.51-.43-.97-.92-1.47-1.39-.48 1.34 1.59 3.39 2.97 4.35zm41.18-25.74c-1.98-1.27-3.95-2.61-6.19-3.37-.03.1-.07.18-.11.29 2.1 1.03 4.2 2.06 6.3 3.08zm23.35 22.32c.75.68 1.5 1.35 2.25 2.03.06-.04.11-.11.17-.16-.71-.72-1.42-1.43-2.12-2.15-.12.09-.21.18-.3.28zm-.1-5.13c-.12.08-.24.14-.37.22.63.97 1.26 1.93 1.9 2.91.09-.06.21-.13.3-.19-.61-.99-1.22-1.97-1.83-2.94zm16.05 24.23c.09-.07.19-.14.28-.2-2.83-4.09-5.64-8.16-8.47-12.25-.1.07-.2.14-.29.21 2.53 4.3 5.42 8.34 8.48 12.24zm-6.46-11.69c.7 1.06 1.38 2.11 2.08 3.17.12-.08.25-.16.38-.24-.7-1.04-1.42-2.1-2.12-3.14-.12.07-.23.13-.34.21zm69.19 39.26c-1.82-1.66-3.6-3.34-5.47-4.93-1.75-1.46-3.59-2.8-5.36-4.2-1.14-.9-2.18-1.97-3.73-2.12-.13-.01-.26-.16-.34-.26-.86-1.3-2.3-.91-3.43-1.39-.04.09-.08.16-.12.25.45.38.92.78 1.38 1.16-.09.11-.16.21-.26.31-.74-.41-1.57-.71-2.2-1.24-1.43-1.22-3.1-1.77-4.91-2.06-.51-.08-1.02-.23-1.52-.35-.02.06-.03.11-.05.16 4.1 4.35 8.22 8.71 12.32 13.06-.1.1-.2.2-.28.31-.49-.39-1.05-.73-1.5-1.18-.99-1.05-1.86-2.18-2.87-3.19-1.26-1.27-2.75-2.32-3.88-3.7-1.49-1.8-2.96-3.56-4.95-4.79-.41-.25-.87-.4-1.31-.6-.05.09-.12.19-.17.29 2.88 2.77 5.78 5.56 8.65 8.35-1.34-.41-2.37-1.26-3.34-2.18-1.89-1.79-3.76-3.62-5.75-5.31-1.05-.9-2.33-1.54-3.5-2.28-.18-.12-.41-.13-.65-.21 3.03 3.02 6.01 6 8.98 8.98-.11.11-.21.21-.32.33l-2.7-2.46c-2.06-1.84-4.11-3.71-6.2-5.51-.52-.44-1.22-.64-1.86-.97-.03.08-.09.17-.12.25.18.17.39.33.56.5 1.51 1.37 3.1 2.7 4.52 4.16 2.57 2.6 5.02 5.31 7.59 7.92 1.07 1.08 2.3 2 3.57 3.08-.12.1-.28.36-.49.42-.2.05-.48-.08-.63-.22-.64-.55-1.23-1.13-1.81-1.67 0 .38.03.68-.01.97-.01.03-.45.09-.58 0-.75-.6-1.51-1.22-2.21-1.89-3.08-2.86-6.14-5.75-9.21-8.63l-.01.02c-.85-.74-1.66-1.49-2.53-2.2-1.48-1.17-2.98-2.36-4.51-3.47-.47-.33-1.09-.45-1.84-.74.14.4.14.49.2.55 2.06 1.97 4.12 3.95 6.22 5.9 2.04 1.89 4.09 3.77 6.15 5.63 1.5 1.35 3.04 2.65 4.55 3.98.17.16.3.34.46.51.29.31.54.81.89.9 2.34.64 4.7 1.18 7.06 1.72.28.06.58-.04.88-.05-.45-1.32-1.79-1.93-2.18-3.35.29.08.42.08.51.14.67.68 1.31 1.38 2 2.02.43.39.91.92 1.43 1.02 1.25.23 2.56.26 3.91.36-.02-.3-.05-.54-.09-.93.33.1.74.1.79.25.06.2-.11.51-.24.94 2.06-.57 4.14.23 6.23-.68-.22-.32-.37-.59-.57-.81-2.3-2.44-4.59-4.9-6.93-7.28-.89-.9-1.91-1.66-2.86-2.49-.1-.1-.1-.34-.13-.52.16.04.4.02.52.13 1.46 1.25 2.97 2.45 4.37 3.78 2.3 2.19 4.49 4.49 6.76 6.71.23.22.68.38.96.33.67-.13 1.3-.41 1.96-.64.52-.18.64-.49.2-.89zm-32.44-10.34c.41.43.88.83 1.31 1.25 1.51 1.42 3.03 2.84 4.54 4.26.48.45.98.86 1.49 1.29.07-.06.12-.13.17-.18-.27-.38-.51-.79-.82-1.14-1.5-1.61-2.94-3.3-4.56-4.78-2.51-2.32-5.15-4.51-7.76-6.72-.27-.23-.73-.23-1.11-.34-.04.08-.08.16-.1.25 1.87 1.7 3.76 3.41 5.68 5.14-.21.21-.35.37-.49.5.67-.37 1.17-.01 1.65.47zm20.3-1.01c.08.11.13.24.23.31 2.18 1.76 4.39 3.46 6.54 5.26 1.91 1.57 3.81 3.15 5.59 4.85 1.18 1.11 1.95 1.35 3.6.51-4.72-4.58-9.7-8.65-15.96-10.93zm29.05 4.24c.17-.23.3-.39.57-.72-2.22-.59-4.32-1.13-6.39-1.67-.04.1-.09.2-.13.3 1.4 1.15 2.79 2.3 4.18 3.45-.09.11-.16.24-.25.35-.32-.16-.69-.27-.98-.47-1.92-1.29-3.8-2.68-5.78-3.88-.7-.42-1.66-.4-2.52-.57-.02.09-.07.18-.1.27 1.73 1.46 3.83 2.46 5.32 4.22-.85-.32-1.59-.77-2.33-1.23-1.49-.94-2.98-1.87-4.46-2.83-.39-.26-.79-.51-1.17-.76.03-.08.06-.15.1-.23l-2.09-.09c-.05.09-.07.18-.12.28 2.04 1.49 4.03 3.03 5.74 4.91-.41 0-.74-.15-1.02-.33-.97-.7-1.94-1.35-2.85-2.13-1.2-1.05-2.93-1.32-3.89-2.72-.07-.09-.28-.1-.42-.09-.56.04-1.13.1-1.9.18.7.5 1.22.98 1.81 1.27 2.1 1.08 3.81 2.65 5.44 4.33.14.16.11.49.2.91-.39-.21-.55-.29-.67-.38-.11-.09-.21-.19-.32-.28-2.11-2.02-4.52-3.66-7.12-4.96-1.23-.61-2.65-.83-3.98-1.22-.1-.04-.23-.07-.34-.09 1.74 1.4 3.46 2.49 5.06 3.75 2.64 2.09 5.21 4.25 7.76 6.44.86.74 2.09.98 3.15.37-.21-.36-.37-.79-.67-1.06-.76-.67-1.6-1.29-2.41-1.93-.45-.35-.35-.69-.03-1.04 1.24 1.1 2.4 2.21 3.66 3.21.53.43 1.29.94 1.88.86 1.4-.19 2.8-.6 4.15-1.1 1.81-.67 3.55-1.48 5.33-2.25.23-.1.44-.26.72-.42-1.1-.97-2.11-1.8-3.13-2.65zm6.33 1.4c-1.76-.61-3.43-1.51-5.32-1.8l-.17.31c1.21.75 2.41 1.51 3.75 2.33.51-.18 1.1-.41 1.69-.63 0-.06.02-.14.05-.21zm-72.05-13.21c1.18.3 1.23.27 1.71-.36.83-1.11 1.71-2.18 2.51-3.32 1.1-1.55 2.18-3.14 3.24-4.71.72-1.05 1.4-2.11 2.1-3.17.08.04.13.08.22.12-1.01 2.04-2.24 3.93-3.54 5.81-1.3 1.88-2.55 3.78-3.9 5.77.3.04.42.06.53.06 1.41.03 2.14-1.11 2.96-1.92 1.25-1.23 2.3-2.66 3.31-4.1 1.18-1.69 2.22-3.48 3.33-5.22.06-.11.2-.18.3-.26.08.07.17.13.25.19-1.23 2.05-2.36 4.14-3.72 6.09-1.34 1.96-2.9 3.77-4.4 5.68 1.44.35 1.63.4 2.47-.5 1.35-1.45 2.66-2.94 3.88-4.48 1.05-1.31 1.95-2.72 2.93-4.09.08-.11.26-.13.4-.2.07.05.13.12.2.17-1.96 3.28-4.44 6.21-6.62 9.41.51-.06 1.02-.12 1.34-.4a105.8 105.8 0 004.15-3.79c.57-.54 1.06-1.16 1.58-1.75.09.06.15.13.23.19-.83 2.55-3.23 3.88-4.91 5.93 1.2.5 2.35.43 3.42-.11 3.09-1.54 5.65-3.86 8.36-5.96.73-.58 1.44-1.16 2.16-1.74.06.07.12.14.17.22-3.03 2.9-6.29 5.56-9.67 8.13 1.29.39 2.49.55 3.63-.3.25-.19.56-.3.82-.48 1.17-.78 2.35-1.54 3.49-2.37.94-.68 1.81-1.42 2.72-2.15.06.09.15.18.21.27-2.26 1.9-4.52 3.78-6.9 5.78 2.03.57 3.41-.55 4.84-1.4 1.44-.85 2.8-1.82 4.19-2.75.04.06.1.1.14.16-1.85 1.52-3.68 3.06-5.62 4.67 2.05.7 3.92.99 5.85.03a86.49 86.49 0 014.46-2.1c.62-.26 1.3-.38 1.95-.56.02.08.05.16.07.25-2.24 1.12-4.47 2.22-6.87 3.44 1.5.94 2.9.84 4.19.37 1.76-.65 3.53-1.37 5.14-2.33 2.76-1.65 5.4-3.52 8.1-5.29.23-.16.5-.28.75-.42.04.07.09.16.12.23a91.977 91.977 0 01-13.75 8.92c.71.17 1.44.33 2.02.09 1.76-.74 3.47-1.6 5.17-2.47.91-.47 1.79-1.04 2.77-1.64-.54 1.18-4.59 3.7-5.46 3.63-.38.44-.67.77-1.14 1.32 1 .02 1.94.29 2.61-.01 1.83-.84 3.59-1.88 5.32-2.93 1.14-.68 2.16-1.5 3.23-2.26.06.07.1.12.15.2-2.03 1.99-4.52 3.41-6.68 5.34.91.11 1.84.27 2.61 0 1.52-.56 2.98-1.31 4.43-2.06 1.09-.56 2.13-1.22 3.19-1.85.05.06.09.12.14.17-1.7 1.56-3.9 2.42-5.66 4.01 8.65.22 16.97 1.6 25.08 4.41-.96-.97-1.94-1.79-2.92-2.65-1.15-1-2.23-2.07-3.4-3.04-1.18-.96-1.78-2.46-3.08-3.3-.16-.1-.24-.35-.36-.54-.68-.89-1.43-1.73-2.03-2.67-1.04-1.64-2.04-3.31-3.01-5-.86-1.48-1.78-2.9-2.46-4.46-.88-2-2.09-3.76-3.42-5.42-.83-1.04-1.91-1.99-3.07-2.61-2.23-1.21-4.45-2.45-6.92-3.23-2.45-.77-4.79-1.89-7.21-2.76-1.02-.37-2.11-.58-3.19-.74-1.05-.14-2.03-.07-2.56 1.2-.52 1.22-1.26 2.36-1.95 3.51-1.31 2.2-2.65 4.39-3.99 6.57-.4.67-.89.93-1.5.76 2.27-4.11 5.1-7.87 7.16-12.18-.53-.11-.84-.22-1.16-.24-1.57-.07-3.15-.08-4.72-.16-.22-.01-.43-.19-.59-.27-.35.11-.69.29-1.04.33-.83.1-1.68.11-2.5.21-3.47.41-6.59 1.67-9.28 3.93-1.66 1.4-3.07 3.04-3.58 5.2-.52 2.19-.88 4.41-1.27 6.63-.36 2.03-.62 4.08-1.06 6.09-.3 1.05-.81 2.12-1.19 3.23zm5.63 6.5c1.05 1.23 2 2.52 3.07 3.74 2.4 2.69 5.4 4.59 8.53 6.29 1.24.68 2.63 1.06 3.96 1.57.07-.12.14-.25.24-.37-.77-.7-1.55-1.38-2.3-2.09-2.09-1.95-4.13-3.95-6.23-5.87-2.54-2.31-4.88-4.87-7.83-6.71-.41-.24-.61-.79-1.06-1.38-.64.05-1.54.11-2.51.19.51.63.91 1.18 1.37 1.68.9 1 1.89 1.93 2.76 2.95zm-10.91 4.62c-.44-1.44-.6-2.95-1.56-4.24-.73-.98-1.19-2.17-1.87-3.2-.74-1.11-1.59-2.16-2.4-3.24-.09-.11-.22-.2-.41-.36-.06 1.13-.11 2.11-.17 3.12-.07 1.12-.13 2.24-.24 3.37-.15 1.55-.32 3.1-.44 4.64-.02.17.16.46.32.51 1.76.6 2.62 2.18 3.71 3.5.54.65.98 1.37 1.47 2.05-.77-.66-1.33-1.48-2.03-2.17-.91-.87-1.9-1.65-2.9-2.41-.14-.11-.75.08-.75.13.01.58-.09 1.28.19 1.72 1.02 1.59 2.17 3.11 3.28 4.62.55.75 1.13 1.46 1.69 2.2-.54-.28-.95-.66-1.33-1.08-1.11-1.32-2.21-2.64-3.33-3.96-.19-.23-.42-.43-.67-.67-.67 1.77-.43 3.16.7 4.45.56.65 1.01 1.39 1.48 2.1.42.63.19.94-.43 1.02-.72-1.3-1.43-2.54-2.13-3.79-.09.04-.19.08-.28.12-.03.13-.07.25-.1.38-.49 2.09-.83 4.21-1.49 6.23-.7 2.12-.65 4.16-.2 6.28.22 1.05.27 2.13.39 3.19-.07.01-.16.03-.23.04-.41-1.72-.81-3.47-1.22-5.19-.36.45-.6.93-.76 1.43-.35 1.13-.95 2.28-.93 3.42.03 2.32.42 4.64.63 6.96.05.63.01 1.26 0 1.9-.07-.08-.15-.14-.16-.21-.27-1.62-.52-3.25-.79-4.87-.14-.9-.31-1.81-.47-2.7h-.26c-.53 1.12-.96 2.3-1.61 3.35-1.18 1.86-1.26 3.96-1.37 6-.09 1.92.16 3.86.32 5.79.11 1.35.22 2.71.47 4.03.4 2.16.92 4.31 1.37 6.46.03.16-.14.38-.21.57-.13-.16-.34-.31-.37-.45-.2-3.28-1.49-6.36-1.45-9.69.02-2.26-.31-4.53-.49-6.78-.04-.7-.04-1.39-.06-2.08-.36.23-.52.48-.65.76-.46.98-.62 2-.72 3.07-.29 3.07-.31 6.13.22 9.19.04.25-.03.53-.07.81-.24-2.29-.5-4.57-.71-6.87-.09-1.03-.04-2.08-.05-3.13-.09-.02-.18-.02-.27-.05-.75 1.02-1.57 2.05-1.68 3.38-.1 1.32-.04 2.65-.04 3.97 0 .62.02 1.23.02 1.83-.1-.08-.24-.14-.26-.24-.11-1.15-.21-2.29-.32-3.45-.03-.45-.08-.9-.1-1.36-.15-.01-.3-.01-.45-.02-.62 2.4-.43 4.94-1.14 7.35-.01-1.9-.01-3.8 0-5.69-.05-.04-.12-.07-.18-.1-.86 1.03-1.73 2.06-2.58 3.09.2 0 .38-.02.58-.02.01.48.09.98.02 1.45-.27 1.68-.57 3.35-.88 5.01-.03.13-.12.25-.16.36-.05-.01-.1-.01-.16-.02.13-2.01.25-4.02.37-6.2-3.9 4.71-7.75 9.29-10.33 14.74 1.7-.58 3.39-1.14 5.05-1.73 2.71-.96 5.39-1.96 8.12-2.88 1.5-.52 3.03-.94 4.54-1.36.86-.22 1.78-.27 2.61-.56 2.74-.96 4.98-2.68 6.7-5.02 1.39-1.87 2.74-3.78 4.09-5.67 1-1.4 2.03-2.8 2.99-4.24.79-1.18 1.55-2.39 2.28-3.62.56-.93 1.15-1.87 1.55-2.86.24-.58.03-1.31.17-1.93.34-1.4-.08-2.67-.41-3.99-.13-.47-.01-1-.03-1.49 0 0 .01-.02.03-.01.29.6.58 1.2.88 1.78.09-.02.16-.05.23-.07.1-.58.29-1.17.28-1.75.03-2.43.07-4.88-.03-7.31-.08-2.06-.34-4.11-.57-6.17-.12-.97-.46-1.92-.53-2.9-.17-2.94-.46-5.79-1.32-8.57zm-.1-7.68c-.11.03-.22.06-.34.1.05.34.06.7.15 1.02.08.26.3.49.41.75 1.59 3.72 3.27 7.38 4.75 11.15 1.14 2.9 2.31 5.76 3.68 8.55 1.15 2.38 2.32 4.78 2.78 7.43.1.59.17 1.19.36 1.75.16.51.53.96.67 1.47.43 1.59.67 3.23 1.22 4.77.54 1.54 1.39 2.97 2.08 4.46 1 2.21 1.92 4.44 2.99 6.62 1.73 3.58 3.55 7.11 5.32 10.68.45.91 2.26 1.74 3.31 1.44-.7-1.39-1.31-2.75-2.05-4.07-1.47-2.55-2.98-5.07-4.46-7.6-.76-1.29-1.55-2.55-2.26-3.87-.55-1.02-.96-2.1-1.48-3.12-.63-1.25-1.5-2.42-1.95-3.74-.92-2.63-1.67-5.3-2.42-7.99-.89-3.16-1.17-6.51-2.62-9.5-1.57-3.28-3.35-6.45-4.98-9.68-1.5-3-2.93-6.04-4.39-9.06-.28-.5-.51-1.03-.77-1.56zm29.85 62.06c-.8-.02-1.39.06-1.94-.05-.61-.13-1.16-.45-1.74-.67-.04.11-.08.19-.11.29.76.74 2.83 1.08 3.79.43zm-19.9-33.57c.11-.03.21-.08.32-.11-.34-.99-.7-1.97-1.03-2.95-.09.04-.19.08-.29.1.33.98.65 1.97 1 2.96zm-31.78-34.13c2.1-.52 4.06-1.1 6.05-1.45 2-.36 4.03-.51 6.26-.78-2.51-1.91-5.03-1.96-7.61-.92-1.18.49-2.27 1.27-3.35 1.97-.47.3-.85.74-1.35 1.18zm-5.48 5.25c4.9-3.24 10.23-5.34 16.05-6.22-1.98.06-3.98.06-5.87.51-1.87.46-3.72 1.21-5.43 2.12-1.75.94-3.31 2.22-4.93 3.34.05.11.12.19.18.25zm-10.57 12.75c.41-.19.59-.25.76-.34 1.78-1.03 3.52-2.09 5.32-3.06 1.2-.65 2.5-1.14 3.74-1.7.74-.34 1.48-.72 2.26-.99 1.07-.37 2.19-.63 3.27-.97.64-.2 1.25-.6 1.89-.63 1.75-.1 3.21-.98 4.65-1.76 1.92-1.05 3.97-1.94 5.51-3.66.83-.92 1.74-1.7 2.2-2.94-.79.28-1.53.64-2.27.98-.21.09-.47.07-.71.08-.03-.24-.12-.53-.05-.74.09-.2.33-.37.54-.47.88-.4 1.75-.77 2.64-1.15 0-.11.02-.23.02-.34-.49-.11-.98-.33-1.46-.32-3.19.06-6.28.73-9.28 1.83-3.44 1.28-6.55 3.21-9.71 5.07-1.24.73-2.54 1.51-3.21 2.83-1.01 1.95-2.26 3.67-3.88 5.15-.7.63-1.23 1.44-1.83 2.2-.11.2-.19.48-.4.93zm-3.1 59.42c.46-.54.77-.9 1.05-1.28.26-.38.45-.8.73-1.17.79-1.03 1.68-1.99 2.4-3.05 1.45-2.1 2.77-4.29 4.26-6.36 1.39-1.93 2.88-3.77 4.33-5.64 1.33-1.71 2.54-3.53 4.03-5.08 1.64-1.71 2.72-3.76 4.02-5.69.67-.99 1.08-2.16 1.65-3.23.88-1.64 1.87-3.25 2.71-4.93 1.18-2.35 2.34-4.71 3.31-7.13.67-1.72 1.66-3.42 1.26-5.38.87-.25 1.47-1.75 1.08-2.6-4.88 5.07-12.86 11.39-14.75 11.61 5.93-3.89 11.48-8.16 15.48-14.17-.56.52-1.12 1.02-1.67 1.55-.11-.06-.21-.14-.3-.19 1.19-2.07 2.93-3.92 2.91-6.32-1.46 1.51-2.93 3.17-4.55 4.69-2.79 2.61-4.59 3.82-5.41 3.77.51-.41 1-.76 1.45-1.15 1.85-1.64 3.77-3.2 5.49-4.96 1.01-1.04 1.6-2.51 2.59-3.57 1.01-1.1.69-2.35.96-3.49-3.05 2.33-6.08 4.64-9.09 6.94-.07-.07-.14-.15-.21-.23.18-.19.34-.42.56-.56.65-.46 1.38-.83 2-1.33.94-.74 1.82-1.57 2.76-2.34 1.54-1.27 2.94-2.67 3.85-4.5.45-.9.64-1.84.38-2.92-.16.1-.21.11-.24.15-.08.1-.13.19-.19.3-1.03 1.93-2.47 3.53-4.38 4.52-2.19 1.14-4.48 2.09-6.79 2.98-2.5.96-5.04 1.76-7.6 2.59-.32.11-.72-.06-1.07-.09.23-.24.43-.6.72-.71 1.1-.44 2.22-.8 3.33-1.19 3.65-1.26 7.42-2.16 10.78-4.19 1.7-1.02 2.95-2.39 4.16-4.07-.23.04-.32.04-.39.08-1.75 1.05-3.49 2.15-5.26 3.16-.68.41-1.41 1.05-2.28.31 3.02-1.56 6.06-3.03 8.52-5.47 1.1-1.1 1.56-2.88.93-4.37-.39.61-.67 1.26-1.16 1.72-1.89 1.85-3.99 3.41-6.38 4.61-2.43 1.22-4.96 2-7.55 2.77-1.29.38-2.6.75-3.87 1.25-1.41.55-2.82 1.15-4.17 1.89-2.41 1.3-4.75 2.72-7.09 4.09-.25.15-.44.42-.59.57 1.72-.67 3.48-1.39 5.26-2.02a85.37 85.37 0 015.56-1.77c1.62-.44 3.27-.7 4.88-1.13 1.05-.28 2.06-.71 3.06-1.09.59-.23 1.15-.54 1.74-.75.15-.06.41.09.6.15-.11.18-.17.4-.32.51-.31.2-.63.4-.99.52-2.52.82-5.05 1.63-7.59 2.41-2.87.88-5.77 1.69-8.62 2.61-.82.26-1.58.76-2.33 1.2-.95.56-1.91 1.11-2.81 1.72-.22.14-.29.49-.49.84 1.29-.6 2.39-1.11 3.5-1.59 1.1-.48 2.22-.93 3.32-1.4.39-.16.74-.18.72.38-1.1.46-2.22.87-3.26 1.4-1.21.62-2.36 1.38-3.52 2.09-.11.06-.28.22-.27.32.09.78-.46.95-1 1.2-.16.06-.28.25-.36.41-.29.76-.61 1.5-.8 2.29-.53 2.34-.93 4.68-.7 7.09.03.42-.27.87-.23 1.31.08.85.29 1.7.39 2.55.29 2.58.38 5.15 0 7.76-.34 2.38-.81 4.84-.64 7.22.26 3.67 1.06 7.29 1.54 10.93.36 2.65.88 5.28.7 8-.05 1.42-.01 2.9-.05 4.65z" opacity=".122" fill="#202124"/></svg>