<svg width="86" height="20" fill="none" xmlns="http://www.w3.org/2000/svg"><path fill="#00B67B" d="M0 0h20v20H0z"/><path d="M10.111 3.333l1.653 5.093h5.347l-4.326 3.147-2.674 1.946 3.044-.805 1.283 3.952-4.327-3.147-4.326 3.147 1.653-5.093L3.11 8.426H8.46l1.652-5.093z" fill="#fff"/><path fill="#00B67B" d="M22 0h20v20H22z"/><path d="M32.111 3.333l1.653 5.093h5.347l-4.326 3.147-2.674 1.946 3.044-.805 1.283 3.952-4.327-3.147-4.326 3.147 1.653-5.093-4.327-3.147h5.348l1.652-5.093z" fill="#fff"/><path fill="#00B67B" d="M44 0h20v20H44z"/><path d="M54.111 3.333l1.653 5.093h5.347l-4.326 3.147-2.674 1.946 3.044-.805 1.283 3.952-4.327-3.147-4.326 3.147 1.653-5.093-4.327-3.147h5.348l1.652-5.093z" fill="#fff"/><path fill="#00B67B" d="M66 0h20v20H66z"/><path d="M76.111 3.333l1.653 5.093h5.347l-4.326 3.147-2.674 1.946 3.044-.805 1.283 3.952-4.327-3.147-4.326 3.147 1.653-5.093-4.327-3.147h5.348l1.652-5.093z" fill="#fff"/></svg>