<svg width="180" height="24" fill="none" xmlns="http://www.w3.org/2000/svg"><path d="M12 1.384l2.567 6.622.116.3.322.019 7.092.394-5.506 4.488-.25.204.083.311 1.816 6.867-5.969-3.85-.271-.174-.271.175-5.97 3.849 1.817-6.867.082-.311-.25-.204-5.505-4.488 7.092-.394.322-.018.116-.3L12 1.383zM51 1.384l2.567 6.622.116.3.322.019 7.092.394-5.505 4.488-.25.204.082.311 1.816 6.867-5.969-3.85-.271-.174-.271.175-5.97 3.849 1.817-6.867.082-.311-.25-.204-5.505-4.488 7.092-.394.322-.018.116-.3L51 1.383zM90 1.384l2.567 6.622.116.3.322.019 7.092.394-5.505 4.488-.25.204.082.311 1.816 6.867-5.969-3.85-.271-.174-.271.175-5.97 3.849 1.817-6.867.082-.311-.25-.204-5.505-4.488 7.092-.394.322-.018.116-.3L90 1.383zM129 1.384l2.567 6.622.116.3.322.019 7.092.394-5.505 4.488-.25.204.082.311 1.816 6.867-5.969-3.85-.271-.174-.271.175-5.969 3.849 1.816-6.867.082-.311-.25-.204-5.505-4.488 7.092-.394.322-.018.116-.3L129 1.383zM168 1.384l2.567 6.622.116.3.322.019 7.092.394-5.505 4.488-.25.204.082.311 1.816 6.867-5.969-3.85-.271-.174-.271.175-5.969 3.849 1.816-6.867.082-.311-.25-.204-5.505-4.488 7.092-.394.322-.018.116-.3L168 1.383z" fill="#FFFDFA" stroke="#D2D1CF"/></svg>