<svg width="232" height="75" fill="none" xmlns="http://www.w3.org/2000/svg"><path opacity=".6" d="M1 1.5l26.111 26.245L53.222 1.5l26.111 26.245L105.444 1.5l26.112 26.245L157.667 1.5l26.111 26.245L209.889 1.5 236 27.745M1 21.69l26.111 26.245 26.111-26.245 26.111 26.245 26.111-26.245 26.112 26.245 26.111-26.245 26.111 26.245 26.111-26.245L236 47.934M1 41.877l26.111 26.246 26.111-26.246 26.111 26.246 26.111-26.246 26.112 26.246 26.111-26.246 26.111 26.246 26.111-26.246L236 68.123M1 62.066l26.111 26.245 26.111-26.245 26.111 26.245 26.111-26.245 26.112 26.245 26.111-26.245 26.111 26.245 26.111-26.245L236 88.311M1 82.255L27.111 108.5l26.111-26.245L79.333 108.5l26.111-26.245 26.112 26.245 26.111-26.245 26.111 26.245 26.111-26.245L236 108.5" stroke="#CDC2B6"/></svg>