<svg width="95" height="24" fill="none" xmlns="http://www.w3.org/2000/svg"><g clip-path="url(#clip0)"><path d="M25.006 8.208h9.595v1.76h-3.777v9.922h-2.071V9.968H24.99l.015-1.76zm9.184 3.224h1.77v1.636h.032c.064-.234.174-.452.332-.67a2.61 2.61 0 01.585-.592c.221-.187.474-.327.759-.436.269-.109.553-.171.838-.171.221 0 .38.015.458.015a1.4 1.4 0 00.253.031v1.792c-.126-.032-.269-.047-.411-.063-.142-.015-.269-.03-.411-.03-.316 0-.616.061-.9.186a2.284 2.284 0 00-.744.545c-.205.25-.38.545-.506.904-.126.358-.19.778-.19 1.246v4.018H34.16l.031-8.41zm13.72 8.458h-1.864v-1.184h-.032c-.237.436-.585.763-1.043 1.028-.459.265-.933.39-1.407.39-1.122 0-1.944-.265-2.45-.826-.506-.545-.759-1.386-.759-2.492v-5.374h1.897v5.187c0 .747.142 1.277.442 1.573.285.311.696.467 1.218.467.395 0 .727-.062.995-.187.27-.124.49-.28.649-.483.174-.202.284-.451.363-.732.08-.28.11-.591.11-.918v-4.907h1.898v8.458h-.016zm3.226-2.71c.063.545.268.919.632 1.152.363.218.806.327 1.312.327.174 0 .38-.015.6-.046a2.68 2.68 0 00.633-.156c.205-.078.363-.187.49-.343a.79.79 0 00.174-.576.833.833 0 00-.27-.592c-.173-.156-.379-.265-.631-.374a5.544 5.544 0 00-.886-.233c-.332-.063-.663-.14-1.011-.218a11.072 11.072 0 01-1.028-.28 2.963 2.963 0 01-.885-.452 1.951 1.951 0 01-.616-.717c-.158-.296-.237-.639-.237-1.075 0-.467.11-.84.347-1.152a2.51 2.51 0 01.87-.748 3.982 3.982 0 011.17-.405c.426-.078.837-.109 1.217-.109.442 0 .869.047 1.264.14.395.094.775.234 1.09.452.333.202.601.483.807.81.221.327.348.732.41 1.2h-1.975c-.095-.453-.3-.748-.617-.904a2.578 2.578 0 00-1.122-.234c-.126 0-.3.016-.474.031-.19.031-.348.063-.522.125-.158.062-.3.156-.41.265a.619.619 0 00-.175.451c0 .234.08.405.238.546.158.14.363.249.632.358.253.093.553.171.885.233.332.063.68.14 1.028.218.347.078.68.172 1.011.28.332.11.632.25.885.453.253.186.475.42.633.7.158.28.237.639.237 1.044 0 .498-.11.919-.348 1.277a2.937 2.937 0 01-.9.857c-.364.218-.791.374-1.234.483a6.713 6.713 0 01-1.343.155 5.742 5.742 0 01-1.502-.187 3.85 3.85 0 01-1.202-.545c-.331-.249-.6-.545-.79-.919-.19-.358-.3-.794-.316-1.308h1.913v.016h.016zm6.243-5.748h1.439V8.878h1.897v2.539h1.707v1.386h-1.707v4.517c0 .202.015.358.031.514.016.14.063.265.11.358a.615.615 0 00.27.218c.126.047.284.078.505.078.127 0 .269 0 .395-.016.127-.015.27-.03.396-.062v1.449a8.302 8.302 0 01-.617.062c-.205.031-.395.031-.616.031-.506 0-.901-.047-1.202-.14a1.733 1.733 0 01-.71-.405 1.441 1.441 0 01-.349-.67 5.244 5.244 0 01-.11-.934v-4.985h-1.439v-1.417.031zm6.37 0h1.787v1.153h.031c.269-.499.633-.841 1.107-1.06.474-.217.98-.326 1.549-.326.68 0 1.264.109 1.77.358.506.234.917.545 1.249.966.332.405.585.887.743 1.433.158.545.253 1.136.253 1.744 0 .576-.08 1.121-.222 1.651-.158.53-.379 1.012-.68 1.417-.3.405-.679.732-1.153.982-.474.249-1.012.373-1.644.373-.269 0-.553-.03-.822-.078a3.537 3.537 0 01-.79-.233 2.84 2.84 0 01-.696-.42 2.387 2.387 0 01-.537-.593h-.032v4.221h-1.897V11.432h-.016zm6.624 4.237c0-.374-.048-.748-.159-1.106a2.8 2.8 0 00-.458-.95 2.516 2.516 0 00-.743-.67c-.3-.171-.648-.25-1.027-.25-.79 0-1.391.266-1.802.81-.395.546-.6 1.278-.6 2.181 0 .437.046.826.157 1.184.11.358.253.67.474.935.206.264.459.467.76.623.3.155.631.233 1.026.233.443 0 .79-.093 1.091-.264.3-.172.538-.405.743-.67.19-.28.332-.592.411-.95a5.27 5.27 0 00.127-1.106zm3.335-7.46h1.897v1.76h-1.897v-1.76zm0 3.223h1.897v8.458h-1.897v-8.458zm3.588-3.224h1.897V19.89h-1.897V8.208zm7.682 11.915c-.68 0-1.296-.109-1.833-.342a4.164 4.164 0 01-1.36-.92 3.988 3.988 0 01-.837-1.417 5.463 5.463 0 01-.3-1.79c0-.64.094-1.231.3-1.776.19-.546.474-1.013.837-1.418.364-.39.822-.7 1.36-.919a4.86 4.86 0 011.833-.342c.68 0 1.296.109 1.834.342.537.218.98.53 1.36.92.363.389.647.871.837 1.417.19.545.3 1.137.3 1.775 0 .654-.094 1.246-.3 1.791a4.395 4.395 0 01-.838 1.418c-.363.39-.822.7-1.36.919a4.801 4.801 0 01-1.833.342zm0-1.48c.411 0 .79-.093 1.09-.264.317-.171.554-.405.76-.685.205-.28.347-.608.442-.95a4.21 4.21 0 000-2.165 2.773 2.773 0 00-.442-.95 2.39 2.39 0 00-.76-.67 2.256 2.256 0 00-1.09-.265c-.41 0-.79.093-1.09.265a2.41 2.41 0 00-.76.67c-.205.28-.347.591-.442.95a4.185 4.185 0 000 2.165c.095.358.237.67.443.95.205.28.458.514.759.685.316.187.68.265 1.09.265zm4.9-7.21h1.439V8.877h1.897v2.539h1.707v1.386h-1.707v4.517c0 .202.016.358.031.514.016.14.063.265.11.358a.616.616 0 00.27.218c.126.047.284.078.505.078.127 0 .27 0 .396-.016.126-.015.268-.03.395-.062v1.449c-.206.03-.411.046-.617.062-.205.031-.395.031-.616.031-.506 0-.901-.047-1.201-.14a1.733 1.733 0 01-.712-.405 1.441 1.441 0 01-.348-.67 5.244 5.244 0 01-.11-.934v-4.985h-1.439v-1.417.031z" fill="#fff"/><path d="M22.793 8.207h-8.678L11.443.077l-2.687 8.13-8.678-.015 7.018 5.03-2.687 8.131 7.019-5.03 7.018 5.03-2.672-8.13 7.019-5.016z" fill="#00B67A"/><path d="M16.376 15.062l-.6-1.838-4.332 3.1 4.932-1.263z" fill="#005128"/></g><defs><clipPath id="clip0"><path fill="#fff" d="M0 0h95v23.052H0z"/></clipPath></defs></svg>