<svg width="105" height="27" fill="none" xmlns="http://www.w3.org/2000/svg"><g clip-path="url(#clip0)"><path d="M27.639 9.646h10.604v1.945h-4.175v10.966h-2.289V11.59h-4.158l.018-1.945zm10.15 3.563h1.957v1.808h.035c.07-.258.192-.5.367-.74.174-.241.384-.465.646-.655a2.87 2.87 0 01.839-.482c.297-.12.611-.19.926-.19.244 0 .419.018.506.018.088.017.193.035.28.035v1.98a3.587 3.587 0 00-.454-.07c-.158-.017-.297-.034-.455-.034-.349 0-.681.069-.995.207a2.522 2.522 0 00-.822.602 3.25 3.25 0 00-.559.999c-.14.395-.21.86-.21 1.377v4.441h-2.096l.035-9.296zm15.165 9.348h-2.062v-1.308h-.035c-.262.482-.646.843-1.153 1.136-.506.292-1.03.43-1.555.43-1.24 0-2.148-.293-2.708-.912-.559-.603-.838-1.532-.838-2.755V13.21h2.096v5.733c0 .826.157 1.411.49 1.738.314.345.768.517 1.345.517.437 0 .803-.069 1.1-.207.297-.137.542-.31.717-.533.192-.224.314-.5.401-.81.088-.31.123-.654.123-1.015v-5.423h2.096v9.348h-.017zm3.564-2.996c.07.603.297 1.016.699 1.274.402.241.89.362 1.45.362.192 0 .42-.017.664-.052a2.96 2.96 0 00.699-.172c.227-.086.401-.206.541-.379a.873.873 0 00.192-.637c-.017-.258-.105-.482-.297-.654-.192-.172-.419-.292-.699-.413a6.145 6.145 0 00-.978-.258c-.367-.069-.734-.155-1.118-.241-.384-.086-.769-.19-1.136-.31a3.272 3.272 0 01-.978-.5 2.156 2.156 0 01-.681-.791c-.175-.327-.262-.706-.262-1.188 0-.516.122-.93.384-1.274.245-.344.577-.62.96-.826a4.404 4.404 0 011.294-.448c.471-.086.926-.12 1.345-.12.49 0 .96.051 1.398.155.436.103.856.258 1.205.499.367.224.664.534.891.895.245.362.384.81.454 1.326h-2.184c-.104-.5-.331-.827-.68-.999a2.85 2.85 0 00-1.241-.258c-.14 0-.332.017-.524.034-.21.035-.385.07-.577.138a1.368 1.368 0 00-.454.293.683.683 0 00-.192.499c0 .258.087.447.262.603.174.154.401.275.699.395.28.104.611.19.978.259s.751.155 1.136.24c.384.087.75.19 1.118.31.366.121.698.276.978.5.28.206.524.465.699.774.175.31.262.706.262 1.154 0 .55-.122 1.015-.384 1.411a3.247 3.247 0 01-.996.947c-.402.241-.874.413-1.363.534a7.423 7.423 0 01-1.485.172 6.347 6.347 0 01-1.66-.207 4.257 4.257 0 01-1.328-.602 2.902 2.902 0 01-.873-1.016c-.21-.396-.332-.878-.35-1.446H56.5v.017h.018zm6.9-6.352h1.59v-2.823h2.097v2.806h1.887v1.532h-1.887v4.992c0 .224.018.396.035.569.018.154.07.292.123.395a.68.68 0 00.296.241c.14.052.315.087.56.087.14 0 .297 0 .436-.018.14-.017.297-.034.437-.069v1.601a9.137 9.137 0 01-.681.07c-.227.034-.437.034-.682.034-.559 0-.995-.052-1.327-.155a1.914 1.914 0 01-.787-.448 1.592 1.592 0 01-.384-.74 5.785 5.785 0 01-.122-1.033v-5.509h-1.59v-1.566.034zm7.042 0h1.974v1.274h.035c.297-.55.699-.93 1.223-1.17a4.01 4.01 0 011.712-.362c.751 0 1.398.12 1.957.396.559.258 1.013.602 1.38 1.067.367.448.646.981.821 1.584.175.603.28 1.257.28 1.928 0 .637-.088 1.24-.245 1.825-.175.585-.42 1.119-.751 1.566-.332.448-.752.81-1.276 1.085-.524.275-1.118.413-1.817.413-.297 0-.611-.034-.908-.086a3.914 3.914 0 01-.874-.258 3.141 3.141 0 01-.768-.465 2.636 2.636 0 01-.594-.654h-.035v4.665h-2.097V13.209h-.017zm7.32 4.683c0-.414-.052-.827-.175-1.223a3.099 3.099 0 00-.506-1.05 2.78 2.78 0 00-.822-.74c-.331-.19-.716-.275-1.135-.275-.874 0-1.537.292-1.992.895-.437.602-.664 1.411-.664 2.41 0 .482.053.912.175 1.308s.28.74.524 1.033c.227.293.507.517.839.689.332.172.699.258 1.135.258.49 0 .874-.104 1.206-.293a2.8 2.8 0 00.821-.74c.21-.31.367-.654.454-1.05.088-.413.14-.81.14-1.222zm3.686-8.246h2.097v1.945h-2.097V9.646zm0 3.563h2.097v9.348h-2.097v-9.348zm3.966-3.563h2.097v12.91h-2.097V9.647zm8.491 13.169c-.751 0-1.433-.12-2.026-.379a4.602 4.602 0 01-1.503-1.015 4.407 4.407 0 01-.926-1.567 6.04 6.04 0 01-.332-1.98c0-.705.105-1.36.332-1.962.21-.603.524-1.12.926-1.567.402-.43.908-.774 1.502-1.015a5.372 5.372 0 012.027-.38c.751 0 1.433.121 2.027.38a4.352 4.352 0 011.502 1.015c.402.43.716.964.926 1.567.21.602.332 1.257.332 1.962 0 .723-.105 1.378-.332 1.98a4.859 4.859 0 01-.926 1.567c-.402.43-.908.774-1.502 1.015a5.307 5.307 0 01-2.027.379zm0-1.635c.454 0 .874-.104 1.206-.293.349-.19.611-.448.838-.758.227-.31.385-.67.49-1.05a4.657 4.657 0 000-2.392 3.068 3.068 0 00-.49-1.05 2.643 2.643 0 00-.838-.74 2.493 2.493 0 00-1.206-.293c-.454 0-.874.103-1.205.292-.35.19-.612.448-.839.74-.227.31-.384.655-.49 1.05a4.624 4.624 0 000 2.393c.106.396.263.74.49 1.05.227.31.507.569.839.758.349.206.75.293 1.205.293zm5.416-7.97h1.59v-2.824h2.096v2.806h1.887v1.532h-1.887v4.992c0 .224.018.396.035.569.018.154.07.292.123.395.07.104.174.19.297.241.139.052.314.087.559.087.139 0 .297 0 .437-.018.139-.017.297-.034.436-.069v1.601a9.129 9.129 0 01-.681.07c-.227.034-.437.034-.681.034-.56 0-.996-.052-1.328-.155a1.912 1.912 0 01-.786-.448 1.586 1.586 0 01-.385-.74 5.741 5.741 0 01-.122-1.033v-5.509h-1.59v-1.566.034z" fill="#202124"/><path d="M25.192 9.645h-9.591L12.648.659l-2.97 8.986-9.592-.017 7.757 5.56-2.97 8.986 7.757-5.56 7.758 5.56-2.953-8.986 7.757-5.543z" fill="#00B67A"/><path d="M18.1 17.22l-.664-2.031-4.787 3.426L18.1 17.22z" fill="#005128"/></g><defs><clipPath id="clip0"><path fill="#fff" transform="translate(0 .573)" d="M0 0h105v25.478H0z"/></clipPath></defs></svg>