<svg width="281" height="129" fill="none" xmlns="http://www.w3.org/2000/svg"><path d="M1 1l31 31.15L63 1l31 31.15L125 1l31 31.15L187 1l31 31.15L249 1l31 31.15M1 24.963l31 31.151 31-31.15 31 31.15 31-31.15 31 31.15 31-31.15 31 31.15 31-31.15 31 31.15M1 48.925l31 31.15 31-31.15 31 31.15 31-31.15 31 31.15 31-31.15 31 31.15 31-31.15 31 31.15M1 72.888l31 31.151 31-31.151 31 31.151 31-31.151 31 31.151 31-31.151 31 31.151 31-31.151 31 31.151M1 96.849L32 128l31-31.15L94 128l31-31.15L156 128l31-31.15L218 128l31-31.15L280 128" stroke="#CDC2B6"/></svg>