<svg width="22" height="26" viewBox="0 0 22 26" fill="none" xmlns="http://www.w3.org/2000/svg">
<path fill-rule="evenodd" clip-rule="evenodd" d="M10.9999 0.42627L11.7721 1.36447L11.7658 1.36961C11.7721 1.36447 11.7721 1.36446 11.7721 1.36447L11.8057 1.40525L11.9046 1.52476C11.9909 1.62891 12.1167 1.78023 12.2738 1.96813C12.5881 2.34405 13.0274 2.86587 13.5271 3.44925C14.5316 4.62177 15.7627 6.02219 16.7134 6.99013C17.6615 7.95548 18.8877 9.05757 19.8881 9.92704C20.3861 10.3598 20.8237 10.7311 21.1366 10.994C21.293 11.1254 21.4181 11.2297 21.5038 11.3008L21.6018 11.3819L21.6343 11.4087C21.6343 11.4087 21.6346 11.409 20.9999 12.1817C20.3653 12.9545 20.3652 12.9545 20.3652 12.9544L20.3287 12.9244L20.2265 12.8398C20.138 12.7663 20.0098 12.6595 19.8499 12.5252C19.5305 12.2568 19.0842 11.8781 18.5762 11.4366C17.5648 10.5577 16.291 9.41432 15.2865 8.39154C14.2845 7.37136 13.0156 5.92633 12.0083 4.75042C12.0055 4.74718 12.0027 4.74394 11.9999 4.74069V25.9999H9.99993V4.74069C9.99716 4.74393 9.99438 4.74718 9.9916 4.75042C8.98422 5.92633 7.71535 7.37136 6.71338 8.39154C5.70887 9.41432 4.43503 10.5577 3.42366 11.4366C2.91567 11.8781 2.46941 12.2568 2.14992 12.5252C1.99011 12.6595 1.86188 12.7663 1.77332 12.8398L1.6712 12.9244L1.63539 12.9539C1.63534 12.9539 1.63461 12.9545 0.999932 12.1817C0.365256 11.409 0.36524 11.409 0.365234 11.409L0.398062 11.3819L0.496061 11.3008C0.58178 11.2297 0.706874 11.1254 0.863273 10.994C1.17619 10.7311 1.61381 10.3598 2.11174 9.92704C3.11221 9.05757 4.33838 7.95548 5.28648 6.99013C6.23714 6.02219 7.46826 4.62177 8.47273 3.44925C8.9725 2.86587 9.41179 2.34405 9.72608 1.96813C9.88318 1.78023 10.0089 1.62891 10.0953 1.52476L10.1942 1.40525L10.2274 1.36499C10.2274 1.36499 10.2278 1.36447 10.2328 1.3686L10.2274 1.36499L10.9999 0.42627Z" fill="#202124"/>
</svg>
