<svg width="15" height="12" viewBox="0 0 15 12" fill="none" xmlns="http://www.w3.org/2000/svg">
<path fill-rule="evenodd" clip-rule="evenodd" d="M14.53 11.9913H0.468C0.21 11.9913 0 11.7853 0 11.5313V0.462258C0 0.459258 0.001 0.457258 0.001 0.455258C-0.001 0.336258 0.043 0.218258 0.134 0.128258C0.233 0.0312575 0.363 -0.0077425 0.491 0.0012575H14.507C14.635 -0.0077425 14.766 0.0312575 14.864 0.128258C14.955 0.218258 14.999 0.336258 14.997 0.455258C14.997 0.457258 14.999 0.459258 14.999 0.462258V11.5313C14.999 11.7853 14.789 11.9913 14.53 11.9913ZM7.862 6.74226C7.852 6.75526 7.847 6.77026 7.835 6.78326C7.742 6.87326 7.62 6.91726 7.499 6.91426C7.378 6.91726 7.256 6.87326 7.163 6.78326C7.151 6.77026 7.146 6.75526 7.136 6.74226L6.474 6.17826L1.69 11.0693H13.308L8.524 6.17826L7.862 6.74226ZM0.937 10.5183L5.795 5.59926L0.937 1.45426V10.5183ZM1.719 0.922257L7.499 5.85526L13.279 0.922257H1.719ZM9.203 5.59826L14.061 10.5183V1.45426L9.203 5.59826Z" fill="#202124" fill-opacity="0.5"/>
</svg>
