<svg width="14" height="15" viewBox="0 0 14 15" fill="none" xmlns="http://www.w3.org/2000/svg">
<path fill-rule="evenodd" clip-rule="evenodd" d="M11.083 9.231C10.051 9.231 9.149 9.764 8.631 10.565L5.508 8.799C5.709 8.408 5.834 7.971 5.834 7.501C5.834 7.209 5.777 6.935 5.696 6.671L8.946 4.835C9.479 5.406 10.236 5.77 11.083 5.77C12.694 5.77 14 4.478 14 2.885C14 1.292 12.694 0 11.083 0C9.473 0 8.167 1.292 8.167 2.885C8.167 3.175 8.223 3.45 8.304 3.714L5.054 5.551C4.521 4.979 3.764 4.615 2.917 4.615C1.306 4.615 0 5.907 0 7.501C0 9.093 1.306 10.385 2.917 10.385C3.582 10.385 4.187 10.156 4.678 9.786L4.667 9.809L8.198 11.804C8.187 11.908 8.167 12.009 8.167 12.116C8.167 13.709 9.473 15 11.083 15C12.694 15 14 13.709 14 12.116C14 10.522 12.694 9.231 11.083 9.231ZM11.083 1.154C12.05 1.154 12.834 1.929 12.834 2.885C12.834 3.841 12.05 4.615 11.083 4.615C10.117 4.615 9.334 3.841 9.334 2.885C9.334 1.929 10.117 1.154 11.083 1.154ZM2.917 9.231C1.95 9.231 1.167 8.456 1.167 7.501C1.167 6.544 1.95 5.77 2.917 5.77C3.883 5.77 4.667 6.544 4.667 7.501C4.667 8.456 3.883 9.231 2.917 9.231ZM11.083 13.847C10.117 13.847 9.334 13.072 9.334 12.116C9.334 11.159 10.117 10.385 11.083 10.385C12.05 10.385 12.834 11.159 12.834 12.116C12.834 13.072 12.05 13.847 11.083 13.847Z" fill="#202124" fill-opacity="0.5"/>
</svg>
