<svg width="34" height="35" viewBox="0 0 34 35" fill="none" xmlns="http://www.w3.org/2000/svg">
<path d="M16.5054 7.15927C16.8132 9.1978 18.4871 10.5877 20.0321 11.8664C20.4635 11.4167 21.016 11.0466 21.5426 10.7833C22.3733 10.368 23.2467 10.1245 24.1958 10.245C25.5818 10.421 27.0888 10.1109 28.4446 10.5045C29.3901 10.779 30.4253 11.284 31.1939 11.9128C31.7906 12.401 32.5412 12.8758 32.9194 13.5566C33.1679 14.0039 33.1357 14.7628 33.1357 15.2533C33.1357 16.086 33.0574 16.907 33.0492 17.743C33.0405 18.6323 32.9627 19.5166 32.9627 20.4106C32.9627 20.7298 33.0315 21.1454 32.9435 21.4536C32.7809 22.0225 32.8358 22.6782 32.7224 23.2705C32.618 23.8156 32.6155 24.3549 32.4869 24.895C32.2366 25.9462 31.8658 27.2584 31.2708 28.1778C29.9611 30.2019 28.4354 31.7104 26.301 32.8064C25.5841 33.1746 24.8178 33.399 24.0996 33.7581C23.4271 34.0944 22.6648 34.2772 21.9175 34.2772C21.3884 34.2772 20.7872 34.3531 20.2641 34.258C19.8506 34.1828 19.3446 34.1836 18.9519 34.0609C18.2322 33.836 17.4371 33.819 16.7362 33.4986C15.6596 33.0064 14.5078 32.4063 13.7369 31.4702C13.4048 31.067 12.718 30.4588 12.718 29.9082V28.3172C12.718 27.7111 12.8962 27.2756 12.2373 27.1877C11.0819 27.0336 9.77312 26.5659 8.73824 26.0197C8.19458 25.7328 7.72223 25.3432 7.1425 25.1113C6.69583 24.9327 6.21107 24.6403 5.86399 24.3086C4.82171 23.3127 4.21694 22.0431 3.58573 20.7807C3.28691 20.1831 2.82685 19.7241 2.46103 19.1754C1.93034 18.3793 1.54911 17.4588 1.16809 16.5847C0.649969 15.3961 0.346191 14.3075 0.346191 13.0231C0.346191 11.8079 0.378892 10.4968 0.586513 9.30294C0.803946 8.0527 1.2275 6.70676 1.6968 5.51546C1.95797 4.8525 2.3008 4.15212 2.6629 3.53521C2.94414 3.05605 3.25711 2.81603 3.6338 2.43934C4.31615 1.75699 5.35754 1.1416 6.34463 1.1416C7.79245 1.1416 9.30148 1.14415 10.7281 1.38192C12.7888 1.72537 15.1234 1.85764 15.9575 4.1216C16.3003 5.05215 16.3575 6.17927 16.5054 7.15927Z" fill="#E3D2B7"/>
<path d="M0.22583 7.28526C0.662552 4.86123 1.82171 3.08567 3.87377 1.69747C5.16347 0.825066 6.68598 0.262924 8.27661 0.071943C9.89215 -0.121909 11.5028 0.0777531 12.9344 0.649602C15.5506 1.6948 17.3963 3.90878 18.1313 6.88361C18.5581 8.61119 19.2907 9.89672 20.1135 11.0179C21.4097 9.88326 23.0929 9.21052 24.9266 9.10703C26.9018 8.99486 28.8784 9.53554 30.4928 10.6276C32.3509 11.8847 33.4006 13.4926 33.7961 15.6881C34.1502 17.6535 33.9794 19.9007 33.7631 22.7458C33.7305 23.1749 33.6969 23.616 33.6647 24.0642C33.4627 27.2205 31.6883 30.1118 28.6684 32.2055C26.1316 33.9643 22.9209 34.9972 20.0199 34.9972C19.9237 34.9972 19.8273 34.9961 19.7318 34.9937C17.6401 34.9437 15.7882 34.1645 14.3761 32.7405C13.2133 31.5677 12.4167 30.0101 12.1017 28.3152C9.9207 27.8243 7.75318 26.8909 5.9073 25.6111C2.56301 23.2924 0.597809 20.0926 0.373508 16.6012C0.337185 16.0968 0.299934 15.6063 0.26368 15.1292C0.0231094 11.9648 -0.166862 9.46527 0.22583 7.28526ZM19.7626 33.6271C21.7207 33.6737 23.8583 33.1876 25.7998 32.286C25.1823 31.8236 24.3927 31.1128 24.1468 30.3577C24.0302 29.9998 24.2175 29.6123 24.5652 29.4923C24.9129 29.3725 25.2893 29.5651 25.4059 29.9231C25.5651 30.4118 26.4879 31.1672 27.1498 31.5715C27.415 31.4128 27.6746 31.2464 27.9266 31.0717C30.598 29.2195 32.1652 26.6989 32.3399 23.9688C32.3727 23.5132 32.4063 23.0702 32.4391 22.6393C32.5734 20.8729 32.6901 19.3367 32.668 17.9902C32.5038 18.0101 32.3282 18.0205 32.1452 18.0205C31.2841 18.0205 30.2751 17.7999 29.6794 17.3513C29.3835 17.1283 29.3191 16.7006 29.5357 16.396C29.7523 16.0913 30.1677 16.0249 30.4637 16.248C30.8969 16.5744 31.9849 16.7236 32.5862 16.6253C32.3567 14.5732 31.6101 13.0193 29.7634 11.7701C27.3241 10.1199 23.464 9.84142 20.9476 12.0814C21.1032 12.2702 21.2594 12.4567 21.415 12.6424C21.9569 13.2891 22.4686 13.8999 22.9336 14.5789C24.2065 16.4378 24.6675 18.8252 24.2852 21.1393C24.2868 21.1407 24.2886 21.1419 24.2902 21.1434C24.6844 21.5021 25.9513 21.685 26.715 21.6737C26.7173 21.6737 26.7196 21.6737 26.7219 21.6737C27.0854 21.6737 27.382 21.9751 27.3857 22.3502C27.3895 22.7276 27.0952 23.0368 26.7286 23.0408C26.7239 23.0408 26.7139 23.0408 26.6991 23.0408C26.4613 23.0408 24.975 23.0199 23.951 22.522C23.8093 22.9652 23.6359 23.4013 23.4286 23.825C21.9499 26.8457 19.1771 28.6243 15.8212 28.7047C15.715 28.7072 15.6085 28.7085 15.5016 28.7085C14.8517 28.7085 14.1877 28.661 13.5188 28.5703C14.1874 31.1524 16.2636 33.5433 19.7626 33.6271ZM1.69814 16.5037C1.69827 16.5055 1.69841 16.5074 1.69854 16.5093C1.89436 19.57 3.65252 22.3998 6.64913 24.4774C7.56294 25.1109 8.56114 25.6523 9.59985 26.0885C9.928 25.1978 10.7599 24.2372 11.3933 23.9111C11.7216 23.7423 12.1202 23.8791 12.2842 24.2168C12.4483 24.5544 12.3153 24.965 11.9873 25.1339C11.6302 25.3177 11.0389 26.0373 10.8454 26.5547C12.492 27.0978 14.1943 27.376 15.7902 27.3381C18.6399 27.2698 20.9917 25.7652 22.2425 23.2099C23.5027 20.6355 23.3479 17.5568 21.8482 15.3667C21.4206 14.7423 20.9294 14.1561 20.4095 13.5354C19.0767 11.9447 17.566 10.1417 16.8443 7.2206C16.3247 5.11755 15.2916 3.77953 14.2044 2.92791C13.7317 3.62682 12.743 4.35131 11.9605 4.5373C11.9103 4.54926 11.8601 4.55493 11.8106 4.55493C11.5083 4.55493 11.2351 4.34112 11.1642 4.02505C11.0817 3.65717 11.3045 3.29018 11.6619 3.20522C12.1281 3.09442 12.7947 2.58286 13.0748 2.20643C12.8625 2.09775 12.6544 2.00417 12.454 1.92413C11.5224 1.55194 10.5064 1.37019 9.4794 1.37019C7.77084 1.37019 6.03206 1.87334 4.60318 2.84C2.14814 4.50073 1.41939 6.63125 1.33712 9.59364C1.34595 9.59966 1.35505 9.60506 1.36368 9.61162C1.99821 10.0894 3.64508 10.2696 4.32556 10.0359C4.67343 9.91668 5.04946 10.1101 5.16546 10.4682C5.2814 10.8263 5.09335 11.2134 4.74548 11.3328C4.42098 11.4442 3.98924 11.4994 3.51832 11.4994C2.80418 11.4994 2.00033 11.3721 1.34416 11.1211C1.38081 12.2986 1.47908 13.5932 1.58772 15.0228C1.62404 15.5027 1.66162 15.9962 1.69814 16.5037Z" fill="#414550"/>
<path d="M15.531 12.1038C15.8971 12.1264 16.176 12.4503 16.1541 12.8271C16.132 13.204 15.8163 13.4913 15.4514 13.4685C14.7352 13.4237 13.1898 14.0367 12.6972 14.6675C12.5659 14.8354 12.3735 14.9227 12.1793 14.9226C12.0333 14.9226 11.8862 14.8732 11.7635 14.7717C11.4777 14.5351 11.4324 14.1048 11.6622 13.8106C12.4434 12.8109 14.4437 12.0355 15.531 12.1038Z" fill="#414550"/>
<path d="M17.7477 19.3715C17.5312 19.0668 17.5955 18.6391 17.8915 18.4162C18.6798 17.8225 20.2702 17.6724 21.0614 17.9438C21.4093 18.0633 21.5973 18.4504 21.4814 18.8085C21.3654 19.1666 20.9892 19.3601 20.6415 19.2408C20.2085 19.0921 19.0788 19.2158 18.6757 19.5194C18.5575 19.6085 18.4202 19.6514 18.2842 19.6514C18.0795 19.6514 17.8777 19.5545 17.7477 19.3715Z" fill="#414550"/>
<path d="M8.71511 7.54688H8.71564C9.08231 7.54688 9.37939 7.85296 9.37939 8.23041C9.37939 8.60786 9.08185 8.91395 8.71511 8.91395C8.34838 8.91395 8.0511 8.60786 8.0511 8.23041C8.0511 7.85296 8.34838 7.54688 8.71511 7.54688Z" fill="#414550"/>
<path d="M6.72634 16.4326H6.72681C7.09348 16.4326 7.39062 16.7387 7.39062 17.1162C7.39062 17.4936 7.09308 17.7997 6.72634 17.7997C6.35961 17.7997 6.06233 17.4936 6.06233 17.1162C6.06233 16.7387 6.35967 16.4326 6.72634 16.4326Z" fill="#414550"/>
<path d="M12.5652 18.3467H12.5657C12.9324 18.3467 13.2295 18.6528 13.2295 19.0302C13.2295 19.4077 12.9319 19.7137 12.5652 19.7137C12.1985 19.7137 11.9012 19.4077 11.9012 19.0302C11.9012 18.6528 12.1985 18.3467 12.5652 18.3467Z" fill="#414550"/>
<path d="M27.7058 25.0454H27.7063C28.073 25.0454 28.3701 25.3515 28.3701 25.7289C28.3701 26.1064 28.0726 26.4125 27.7058 26.4125C27.3391 26.4125 27.0418 26.1064 27.0418 25.7289C27.0418 25.3515 27.3391 25.0454 27.7058 25.0454Z" fill="#414550"/>
<path d="M25.8435 13.6981C25.4768 13.6981 25.1795 13.392 25.1795 13.0146C25.1795 12.6371 25.4768 12.3311 25.8435 12.3311H25.844C26.2107 12.3311 26.5078 12.6371 26.5078 13.0146C26.5078 13.392 26.2103 13.6981 25.8435 13.6981Z" fill="#414550"/>
<path d="M19.074 29.8301H19.0745C19.4412 29.8301 19.7383 30.1362 19.7383 30.5136C19.7383 30.8911 19.4407 31.1971 19.074 31.1971C18.7073 31.1971 18.41 30.8911 18.41 30.5136C18.41 30.1362 18.7073 29.8301 19.074 29.8301Z" fill="#414550"/>
<path d="M18.011 22.0374H18.0115C18.3782 22.0374 18.6753 22.3434 18.6753 22.7209C18.6753 23.0983 18.3778 23.4044 18.011 23.4044C17.6443 23.4044 17.347 23.0983 17.347 22.7209C17.347 22.3434 17.6443 22.0374 18.011 22.0374Z" fill="#414550"/>
</svg>
