<svg width="32" height="32" viewBox="0 0 32 32" fill="none" xmlns="http://www.w3.org/2000/svg">
<path d="M20.0941 5.68326C19.4871 6.32597 19.0428 7.11165 18.4769 7.78886C18.0545 8.29441 17.716 8.85196 17.6321 9.51162C17.4708 10.7788 18.0373 12.017 18.3383 13.2212C18.58 14.188 18.9153 15.1246 19.1304 16.0924C19.2655 16.7005 19.4428 17.3372 19.6749 17.9175C19.8863 18.446 20.1159 18.9303 20.3449 19.4455C20.5914 20.0002 20.9599 20.5405 21.2822 21.0561C21.4546 21.3319 21.5381 21.6542 21.698 21.934C21.7551 22.0338 21.7946 22.0866 21.8046 22.0994C21.7938 22.0864 21.7473 22.0331 21.6518 21.9472C21.4254 21.7434 20.9643 21.5862 20.6782 21.4521C19.1302 20.7265 17.7256 19.7195 16.1733 18.9967C14.7389 18.3288 13.1402 18.2772 11.5859 18.2772C10.6808 18.2772 9.66747 18.3538 8.78392 18.5413C7.80549 18.7488 6.84694 18.8309 5.89285 19.1716C5.59892 19.2766 5.17649 19.522 5.3351 19.8845C5.49342 20.2464 5.90108 20.2139 6.24598 20.2508C7.60263 20.3962 9.07216 21.0978 10.2526 21.7558C10.9245 22.1303 11.5641 22.5427 12.1898 23C12.8111 23.454 13.4573 23.8155 14.0677 24.2805C14.4499 24.5717 14.7615 24.9078 15.0677 25.2805C15.4551 25.7522 16.0377 26.1791 16.5033 26.5808C17.3099 27.2767 18.3059 27.5933 19.1832 28.1782C20.1842 28.8455 21.3627 29.3752 22.5627 29.5049C23.4353 29.5992 24.109 29.4973 24.962 29.3267C25.1163 29.2958 25.441 29.1783 25.5891 29.2112C25.8202 29.2625 25.9364 29.7543 26.094 29.9207C26.5689 30.422 27.197 30.6309 27.8168 30.8844C28.3593 31.1064 28.723 31.0033 29.2392 30.7194C29.8752 30.3696 30.5654 29.8935 31.0544 29.3531C31.5333 28.8238 31.6665 27.53 30.8927 27.1881C30.6701 27.0897 30.4631 26.9505 30.2392 26.858C30.1703 26.8296 29.9358 26.8089 29.896 26.7392C29.6947 26.387 29.5449 26.037 29.5396 25.6237C29.5329 25.1075 29.4802 24.6049 29.4802 24.0858C29.4802 23.6056 29.5787 23.1343 29.5363 22.6469C29.458 21.747 29.0894 20.9007 28.797 20.0561C28.5637 19.3821 28.2805 18.7749 27.8762 18.1848C27.2575 17.2819 26.3868 16.5221 25.8102 15.5908C25.6436 15.3216 25.4469 14.9876 25.203 14.7855C24.7513 14.4113 24.4668 13.8049 24.104 13.3466C23.7592 12.911 23.5802 12.3022 23.2954 11.8218C23.0823 11.4625 22.7966 11.0783 22.6188 10.703C22.4292 10.3028 22.0658 9.94321 21.7871 9.60403C21.6125 9.39143 21.5151 9.17223 21.3647 8.95056C21.166 8.65777 20.9038 8.40703 20.7475 8.08588C20.547 7.67361 20.5946 7.15694 20.4538 6.72286C20.3561 6.42172 20.335 6.0946 20.2096 5.80207C20.1644 5.69658 20.123 5.4304 20.0347 5.38623L20.0941 5.68326Z" fill="#9CC69B"/>
<path d="M15.203 5.94713C16.0445 6.60161 17.0736 7.13262 17.7179 7.99993L18.0149 8.53458C18.0149 8.87191 17.7464 9.16247 17.6618 9.45866C17.5593 9.81738 17.5991 10.3014 17.5991 10.6699C17.5991 11.9816 18.199 13.1476 18.576 14.386C19.0438 15.9233 18.9771 17.5317 19.3944 19.0758C19.4857 19.4135 19.6901 19.6512 19.8829 19.9338C19.9444 20.024 20.509 20.7202 20.4835 20.7457C20.4349 20.7943 19.7742 20.3882 19.708 20.3596C19.1108 20.1014 18.5356 19.8044 17.9423 19.5378C16.6956 18.9777 15.3775 18.3959 13.9753 18.3959C12.46 18.3959 10.9821 18.0989 9.46381 18.0989C9.15227 18.0989 8.95129 18.1216 8.68823 17.9669C8.46366 17.8348 8.26281 17.6777 8.03477 17.551C7.54592 17.2794 7.15389 16.7243 6.69485 16.3893C6.06384 15.9289 5.52568 15.3071 5.1107 14.6402C4.77524 14.101 4.49545 13.491 4.23611 12.9075C3.9283 12.2149 3.59063 11.5256 3.31203 10.8184C2.7904 9.49425 2.45098 8.11493 1.88629 6.81182C1.5374 6.00667 1.15504 5.19917 0.952307 4.34318C0.771799 3.58104 0.879883 2.87679 1.01171 2.11217C1.06738 1.78927 1.32825 1.16271 1.67838 1.06268C2.04661 0.957468 2.37858 0.930664 2.76088 0.930664C3.85037 0.930664 4.9308 1.3465 6.01498 1.3465C6.74511 1.3465 7.51259 1.85241 8.15028 2.14848C8.74042 2.42247 9.31964 2.70634 9.93905 2.92075C10.6238 3.15777 11.2661 3.5717 11.8829 3.94715C12.4776 4.30911 13.1282 4.56627 13.7245 4.92404C14.2413 5.23409 14.7275 5.5773 15.203 5.94713Z" fill="#FAD67C"/>
<g clip-path="url(#clip0)">
<path d="M15.1039 22.1706C15.3482 21.9269 15.7438 21.9269 15.9881 22.1706C16.2318 22.4149 16.2318 22.8104 15.9881 23.0541C15.7438 23.2985 15.3482 23.2985 15.1039 23.0541C14.8602 22.8104 14.8602 22.4149 15.1039 22.1706Z" fill="#414550"/>
<path d="M16.9905 23.8085C17.2182 23.5492 17.6131 23.5236 17.8724 23.7512C20.667 26.205 23.3707 26.5884 24.8368 26.1711C25.1688 26.0767 25.5144 26.2692 25.6088 26.6011C25.7032 26.933 25.5107 27.2787 25.1789 27.3731C24.731 27.5006 24.2344 27.5639 23.708 27.5639C23.0019 27.5639 22.2419 27.4498 21.474 27.2236C19.9569 26.7767 18.4263 25.9007 17.0478 24.6902C16.7885 24.4626 16.7629 24.0679 16.9905 23.8085Z" fill="#414550"/>
<path d="M0.806513 7.08119C-0.285301 4.06956 -0.269741 1.97337 0.852575 0.851057C1.96083 -0.257258 4.02689 -0.281321 6.99346 0.779556C9.27315 1.59475 12.0477 3.06006 14.6054 4.79963C15.864 5.65532 17.0773 6.61101 18.1567 7.59426C18.6817 6.51244 19.3767 5.52538 20.1969 4.70469C20.4252 4.47625 20.79 4.45944 21.0384 4.66588C21.2868 4.87238 21.3368 5.23413 21.1539 5.50032C20.9209 5.83938 20.8834 6.78382 21.545 8.32995C22.0889 9.60089 23.3046 11.7379 26.007 14.7005C28.6783 17.6291 30.7423 21.6447 29.8772 25.4572L31.4508 27.0308C32.1818 27.7618 32.1818 28.9512 31.4508 29.6823L29.6837 31.4494C28.9511 32.182 27.7649 32.1822 27.0322 31.4493L25.4632 29.8798C21.8032 30.7053 17.8118 28.8197 15.0367 26.2429C11.981 23.4055 9.77278 22.1226 8.45852 21.546C6.86083 20.8451 5.88702 20.876 5.53877 21.1155C5.27258 21.2985 4.91096 21.2485 4.7044 21.0001C4.49789 20.7518 4.51464 20.387 4.74302 20.1587C5.53152 19.3702 6.53858 18.7238 7.69077 18.2592C6.72415 17.2081 5.78152 16.0256 4.93177 14.795C3.15308 12.2182 1.64951 9.4067 0.806513 7.08119ZM27.916 30.5657C28.1602 30.8099 28.5558 30.81 28.8001 30.5657L30.5672 28.7986C30.8114 28.5545 30.8114 28.1587 30.5672 27.9146L29.4336 26.7811C29.1682 27.3592 28.8253 27.8712 28.4186 28.2934C28.1279 28.6238 27.4901 29.1146 26.7881 29.4375L27.916 30.5657ZM7.26871 19.8346C7.78759 19.9466 8.35503 20.1358 8.96059 20.4015C10.972 21.2839 13.3671 22.9872 15.887 25.327C20.1978 29.3295 25.2733 29.6735 27.4741 27.4726C27.9739 26.9729 28.3575 26.2839 28.5836 25.4798C29.4062 22.5618 28.0978 18.8471 25.0836 15.5428C22.8513 13.0956 21.2304 10.7715 20.396 8.82164C20.1352 8.21213 19.9532 7.64213 19.8507 7.12238C19.2119 8.11738 18.7534 9.23207 18.5056 10.3945C18.1825 11.9081 18.4148 13.858 19.1598 15.8849C19.9629 18.07 21.2985 20.2195 23.0224 22.101C23.2483 22.3477 23.2399 22.7285 23.0035 22.965C22.7671 23.2015 22.3862 23.2098 22.1396 22.9839C18.126 19.3072 13.2097 17.8654 8.9884 19.1272C8.37227 19.3112 7.79502 19.5492 7.26871 19.8346ZM8.99934 17.8266C12.5165 16.9035 16.313 17.667 19.5382 19.5192C17.5921 16.2833 16.7116 12.812 17.2834 10.1338C17.3775 9.69214 17.4996 9.25382 17.6472 8.82582C16.5317 7.77482 15.2448 6.74557 13.9027 5.83313C11.4287 4.1505 8.75697 2.73744 6.57265 1.95637C4.17014 1.09724 2.45251 1.01849 1.73626 1.73481C1.00795 2.463 1.09495 4.2105 1.98126 6.65532C2.78945 8.88457 4.23964 11.5926 5.96008 14.085C6.89146 15.4335 7.93709 16.7201 8.99934 17.8266Z" fill="#414550"/>
<path d="M14.2094 10.7077L15.093 9.82411C15.337 9.58011 15.7327 9.58011 15.9767 9.82411C16.2207 10.0681 16.2207 10.4638 15.9767 10.7078L15.0931 11.5914C14.8491 11.8354 14.4534 11.8354 14.2094 11.5914C13.9654 11.3474 13.9654 10.9517 14.2094 10.7077Z" fill="#414550"/>
<path d="M9.79186 15.1257L10.6754 14.2421C10.9194 13.9981 11.3151 13.9981 11.5592 14.2421C11.8032 14.4861 11.8032 14.8818 11.5592 15.1258L10.6756 16.0094C10.4316 16.2534 10.0359 16.2534 9.79186 16.0094C9.54786 15.7654 9.54786 15.3697 9.79186 15.1257Z" fill="#414550"/>
<path d="M10.2338 11.1495L11.1173 10.266C11.3613 10.022 11.757 10.022 12.0011 10.266C12.2451 10.51 12.2451 10.9057 12.0011 11.1498L11.1175 12.0333C10.8735 12.2773 10.4778 12.2774 10.2338 12.0333C9.98975 11.7893 9.98975 11.3936 10.2338 11.1495Z" fill="#414550"/>
<path d="M13.7674 14.6842L14.651 13.8007C14.895 13.5567 15.2907 13.5567 15.5348 13.8007C15.7788 14.0447 15.7787 14.4404 15.5348 14.6844L14.6512 15.568C14.4072 15.812 14.0115 15.812 13.7674 15.568C13.5234 15.3239 13.5234 14.9283 13.7674 14.6842Z" fill="#414550"/>
<path d="M6.69961 7.61417L7.58316 6.73061C7.82716 6.48661 8.22284 6.48661 8.4669 6.73061C8.7109 6.97461 8.7109 7.37029 8.4669 7.61436L7.58335 8.49792C7.33935 8.74192 6.9436 8.74192 6.69961 8.49792C6.45561 8.25392 6.45561 7.85823 6.69961 7.61417Z" fill="#414550"/>
<path d="M4.04824 4.96333L4.93243 4.07977C5.17649 3.83589 5.57212 3.83608 5.81618 4.08008C6.06012 4.32421 6.05993 4.71983 5.81587 4.96383L4.93168 5.8474C4.68768 6.09127 4.29199 6.09121 4.04793 5.84709C3.80399 5.6029 3.80417 5.20733 4.04824 4.96333Z" fill="#414550"/>
<path d="M10.6761 7.17277L11.5597 6.2892C11.8037 6.0452 12.1994 6.0452 12.4434 6.2892C12.6875 6.5332 12.6874 6.92889 12.4434 7.17295L11.5599 8.05646C11.3159 8.30046 10.9202 8.30052 10.6761 8.05646C10.4321 7.81245 10.4321 7.41683 10.6761 7.17277Z" fill="#414550"/>
<path d="M6.25618 11.5907L7.13976 10.7072C7.38376 10.4632 7.77945 10.4632 8.02352 10.7072C8.26758 10.9512 8.26752 11.3469 8.02352 11.5909L7.13994 12.4745C6.89594 12.7185 6.50025 12.7185 6.25618 12.4745C6.01218 12.2304 6.01218 11.8348 6.25618 11.5907Z" fill="#414550"/>
</g>
<defs>
<clipPath id="clip0">
<rect width="32" height="32" fill="white" transform="matrix(-1 0 0 1 32 0)"/>
</clipPath>
</defs>
</svg>
