<svg width="283" height="193" viewBox="0 0 283 193" fill="none" xmlns="http://www.w3.org/2000/svg">
<path d="M36.6255 68.5924C41.2517 61.7417 47.5913 56.1755 55.6444 51.8938C63.8688 47.6122 73.207 45.4713 83.6588 45.4713C95.8241 45.4713 106.79 48.4685 116.557 54.4629C126.494 60.4572 134.29 69.0205 139.945 80.1529C145.77 91.114 148.683 103.873 148.683 118.431C148.683 132.989 145.77 145.919 139.945 157.223C134.29 168.355 126.494 177.004 116.557 183.17C106.79 189.336 95.8241 192.418 83.6588 192.418C73.0356 192.418 63.6975 190.363 55.6444 186.253C47.7627 181.971 41.4231 176.49 36.6255 169.811V190.106H0.643555V0H36.6255V68.5924ZM111.93 118.431C111.93 109.868 110.131 102.503 106.533 96.3376C103.106 90.0007 98.4799 85.2053 92.6543 81.9512C87 78.6971 80.8318 77.0701 74.1494 77.0701C67.6384 77.0701 61.47 78.7827 55.6444 82.2081C49.9901 85.4621 45.3639 90.2576 41.7657 96.5945C38.3389 102.931 36.6255 110.381 36.6255 118.945C36.6255 127.508 38.3389 134.958 41.7657 141.295C45.3639 147.632 49.9901 152.513 55.6444 155.938C61.47 159.193 67.6384 160.82 74.1494 160.82C80.8318 160.82 87 159.107 92.6543 155.682C98.4799 152.256 103.106 147.375 106.533 141.038C110.131 134.701 111.93 127.166 111.93 118.431Z" fill="#FAF6F0"/>
<path d="M226.971 192.418C215.32 192.418 204.868 190.363 195.616 186.253C186.363 181.971 178.996 176.234 173.513 169.04C168.201 161.847 165.288 153.883 164.774 145.149H201.013C201.698 150.629 204.354 155.168 208.98 158.764C213.778 162.361 219.689 164.159 226.714 164.159C233.568 164.159 238.879 162.789 242.649 160.049C246.59 157.309 248.56 153.798 248.56 149.516C248.56 144.892 246.161 141.466 241.364 139.24C236.738 136.842 229.284 134.273 219.004 131.533C208.381 128.964 199.642 126.309 192.789 123.569C186.106 120.829 180.28 116.633 175.312 110.981C170.514 105.329 168.115 97.7077 168.115 88.1168C168.115 80.2385 170.343 73.0453 174.798 66.5372C179.424 60.029 185.935 54.891 194.331 51.1232C202.898 47.3553 212.921 45.4713 224.401 45.4713C241.364 45.4713 254.9 49.753 265.009 58.3164C275.118 66.7084 280.687 78.0977 281.715 92.4841H247.275C246.761 86.8323 244.362 82.3794 240.079 79.1253C235.967 75.6999 230.398 73.9873 223.373 73.9873C216.862 73.9873 211.807 75.1861 208.209 77.5839C204.782 79.9816 203.069 83.3213 203.069 87.603C203.069 92.3985 205.468 96.0807 210.265 98.6497C215.063 101.047 222.516 103.531 232.625 106.1C242.906 108.669 251.387 111.323 258.07 114.064C264.752 116.804 270.492 121.086 275.29 126.909C280.259 132.561 282.829 140.096 283 149.516C283 157.737 280.687 165.101 276.061 171.609C271.606 178.118 265.095 183.256 256.528 187.023C248.132 190.62 238.28 192.418 226.971 192.418Z" fill="#FAF6F0"/>
</svg>
