<svg width="64" height="64" viewBox="0 0 64 64" fill="none" xmlns="http://www.w3.org/2000/svg">
<g clip-path="url(#clip0)">
<path d="M52.0331 31.6925C51.9452 42.4617 43.198 51.165 32.4287 51.0771C21.6595 51.0331 12.9562 42.2419 13.0002 31.4287C13.0441 20.6595 21.8353 11.9562 32.6046 12.0002C43.4177 12.0881 52.0771 20.8793 52.0331 31.6925Z" fill="#009540"/>
<path d="M7.38471 31.9561L7.91218 33.011L9.09899 33.2308L8.21987 34.0659L8.3957 35.2528L7.38471 34.6813L6.28581 35.2528L6.50559 34.022L5.62646 33.1868L6.81328 33.011L7.38471 31.9561Z" fill="#009540"/>
<path d="M1.65934 31.6374H2.31868C2.40659 15.4615 15.5495 2.36264 31.7253 2.36264H31.9011C48.0769 2.49451 61.1319 15.6374 61.1319 31.8132V31.989C61.044 48.1648 47.9011 61.2637 31.7253 61.2637H31.5055C15.3297 61.1319 2.27473 48.033 2.27473 31.9011V31.6813L1.65934 31.6374H1V31.8571C1 48.7363 14.6703 62.4066 31.5494 62.5385H31.7692C48.6923 62.5385 62.4066 48.8681 62.4945 31.9451V31.7692C62.4945 14.8901 48.8242 1.13187 31.9451 1H31.7692C14.8022 1.04396 1.04396 14.7143 1 31.6374H1.65934Z" fill="#009540"/>
<path d="M10.0222 26.6374L10.0662 27.4725C10.0222 27.8242 9.89035 28.0879 9.71453 28.3517L9.09915 28.967C8.87937 29.0989 8.61563 29.2308 8.26398 29.2747H7.38486C7.03321 29.2308 6.76948 29.1429 6.46178 28.967L5.75849 28.4396L5.31893 27.6484C5.23101 27.3407 5.18706 27.033 5.27497 26.6374L5.49475 25.9341L5.89035 25.4066L6.41783 25.055L7.16508 24.9231L7.03321 25.5385L6.5497 25.6264L6.15409 25.8462L5.89035 26.2418L5.75849 26.6813L5.80244 27.4286L6.15409 27.9561L6.72552 28.3517L7.42882 28.5714H8.13211L8.7475 28.3517L9.27497 27.9561L9.53871 27.2967V26.6374L9.31893 26.1099L8.87937 25.7583L8.30794 25.5824L8.08816 27.033L7.56068 26.9451L7.91233 24.9231L10.3299 25.3187L10.286 25.7143L9.67057 25.7583L10.0222 26.6374Z" fill="#009540"/>
<path d="M8.39564 23.5605L8.00003 23.077L7.86816 22.4177L8.00003 21.7144L8.39564 21.099L8.92311 20.7473L9.58245 20.6594L10.2418 20.8352L10.8572 21.1869L11.2528 21.6704L11.3846 22.2858L11.2528 22.9891L10.8572 23.6045L10.3297 23.9561L9.67036 24.044L9.01102 23.8682L8.39564 23.5605ZM9.80223 23.5166L10.2418 23.4726L10.5934 23.2528L10.8572 22.9012L10.9451 22.5056L10.8572 22.11L10.5495 21.7583L10.1099 21.4946L9.58245 21.3627L9.14289 21.4506L8.79124 21.6704L8.57146 22.0221L8.5275 22.4177L8.61542 22.8133L8.92311 23.1649L9.40663 23.4287L9.80223 23.5166Z" fill="#009540"/>
<path d="M10.1539 19.5165L9.84621 18.9451L9.7583 18.3297L10.022 17.6703L10.5495 17.1429L11.1209 16.9231L11.7363 16.9671L12.3957 17.2308L12.9231 17.6703L13.2748 18.2418L13.3187 18.8572L13.055 19.5165L12.5715 20.044L11.9561 20.2638L11.2968 20.2198L10.6374 19.9561L10.1539 19.5165ZM11.5165 19.6923H11.9561L12.3517 19.5165L12.6594 19.2088L12.7473 18.8132V18.3736L12.5275 17.978L12.088 17.6264L11.6045 17.4066L11.1209 17.3627L10.7693 17.5385L10.4616 17.8462L10.3297 18.2418V18.6374L10.5495 19.033L10.9891 19.3846L11.5165 19.6923Z" fill="#009540"/>
<path d="M16.0439 15.5604L15.7362 15.2527V15.8681L15.3845 16.4396L14.8131 16.8352L14.1977 16.9231L13.5823 16.7472L13.0109 16.3516L12.5713 15.8681L12.3955 15.2527L12.4395 14.6374L12.7472 14.0659L12.9669 13.8901L13.2307 13.7143L13.5384 13.6264H13.89L12.6153 12.4835L12.9669 12.0439L16.3955 15.2088L16.0439 15.5604ZM13.8461 16.2198L14.2856 16.3516L14.7252 16.3077L15.1208 16.0439L15.3406 15.6483V15.2088L15.1647 14.7692L14.901 14.4615L14.5054 14.1538L14.0658 14.022L13.6263 14.0659L13.1867 14.3297L12.9669 14.7692V15.2088L13.1428 15.6044L13.4505 15.956L13.8461 16.2198Z" fill="#009540"/>
<path d="M17.3185 8.5715L20.5273 11.2528L19.868 7.1649L20.6152 6.72534L22.901 10.7693L22.3735 11.077L20.4834 7.69237L21.0988 11.7803L20.6592 12.044L17.4944 9.40666L19.3405 12.7473L18.857 13.055L16.5713 9.01106L17.3185 8.5715Z" fill="#009540"/>
<path d="M26.5936 9.71413L26.2419 9.67017L26.0221 9.31853L25.6265 9.846L25.0551 10.1537L24.6155 10.2416L24.2199 10.1976L23.9123 9.97787L23.6925 9.58226L23.6485 9.09875L23.8243 8.7471L24.0881 8.48336L24.4837 8.26358L24.8793 8.08776L25.2309 7.91193L25.4507 7.73611V7.47237L25.2749 7.20864L25.0551 7.12072H24.7914L24.5276 7.16468L24.0002 7.47237L23.9123 8.0438L23.3848 8.21962L23.3408 7.69215L23.5606 7.25259L23.9123 6.9449L24.3958 6.72512L24.8353 6.63721H25.2749L25.6265 6.85699L25.8463 7.29655L26.3298 8.96688L26.4617 9.23061L26.6375 9.27457L26.7694 9.23061L26.9013 9.62622L26.5936 9.71413ZM25.3628 8.30754L25.0551 8.4394L24.7035 8.61523L24.3958 8.79105L24.2199 9.05479V9.40644L24.3518 9.62622L24.5276 9.71413L24.7474 9.75809L24.9672 9.71413L25.4068 9.49435L25.6705 9.23061L25.7584 8.92292L25.7144 8.65919L25.5826 8.13171L25.3628 8.30754Z" fill="#009540"/>
<path d="M27.7804 6.02203L27.8683 6.5495C28.0881 6.10994 28.3958 5.89016 28.8793 5.80225L29.4507 5.8462L29.8463 6.06598L30.1101 6.41763L30.198 6.9451L30.4617 9.14291H29.8903L29.6266 6.90115L29.4068 6.41763L28.8793 6.28576L28.4397 6.41763L28.176 6.68137L28.0002 7.03302V7.47258L28.22 9.36269L27.6925 9.40664L27.2529 6.02203H27.7804Z" fill="#009540"/>
<path d="M33.8023 9.18689L33.8462 8.65942L33.3627 9.09898L32.7034 9.18689L32.132 9.05503L31.8243 8.79129L31.6484 8.39568L31.6045 7.86821L31.7364 5.67041L32.3078 5.71437L32.1759 8.00008L32.3078 8.4836L32.7913 8.70338L33.2309 8.65942L33.5825 8.43964L33.7583 8.13195L33.8462 7.69239L33.9781 5.80228L34.5056 5.84623L34.3298 9.23085L33.8023 9.18689Z" fill="#009540"/>
<path d="M35.4727 6.46155L35.6045 6.02199L36.176 6.06594L36.2199 5.62638L36.6155 5.05495L37.3188 4.96704L37.4946 5.011L37.6705 5.09891L37.5825 5.58243L37.4067 5.53847L37.2749 5.45056L36.9232 5.49451L36.7913 5.75825L36.7034 6.19781L37.3188 6.32968L37.2749 6.76924L36.6155 6.68133L36.0441 9.53847L35.5166 9.4066L36.0441 6.59341L35.4727 6.46155Z" fill="#009540"/>
<path d="M39.8243 10.6813L39.5606 10.4616V10.022L38.9452 10.2418L38.2858 10.1539L37.8902 9.97805L37.6265 9.71431L37.4946 9.36266L37.5386 8.9231L37.7584 8.48354L38.11 8.30772L38.5056 8.26376L38.9452 8.30772L39.3847 8.39563L39.7803 8.48354L40.0441 8.43959L40.2199 8.21981V7.91211L40.132 7.69233L39.9122 7.56046L39.6485 7.4286L39.0331 7.38464L38.6375 7.78024L38.11 7.60442L38.4177 7.16486L38.8133 6.94508L39.2968 6.90112L39.8243 6.98904L40.2639 7.16486L40.6155 7.4286L40.7913 7.78024L40.7474 8.26376L40.2199 9.89013L40.132 10.1539L40.2199 10.3297L40.3957 10.3737L40.2199 10.7693L39.8243 10.6813ZM39.6485 8.83519L39.2529 8.79123L38.9012 8.70332H38.5496L38.2858 8.79123L38.11 9.09893V9.31871L38.1979 9.49453L38.3737 9.6264L38.5935 9.75827L39.077 9.84618L39.4287 9.75827L39.6924 9.58244L39.8243 9.36266L40.0001 8.83519H39.6485Z" fill="#009540"/>
<path d="M43.9562 9.53838L43.5606 9.09882L43.0771 9.0109L42.6375 9.09882L42.2859 9.36255L42.0222 9.75816L41.8463 10.1538L41.8024 10.5933L41.8903 10.9889L42.2419 11.2966L42.9452 11.3845L43.4727 10.9889L44.0002 11.2527C43.7364 11.6043 43.4287 11.8241 43.1211 11.868C42.7694 11.956 42.4178 11.912 42.0661 11.6922L41.5386 11.2966L41.2749 10.7252V10.1098L41.5386 9.45046L41.9342 8.87904L42.4617 8.48343L43.0771 8.35156L43.7804 8.57134L44.2639 8.92299L44.5276 9.3186L44.6595 9.80211L44.5276 10.3296L44.0002 10.0658V9.53838H43.9562Z" fill="#009540"/>
<path d="M47.2087 10.9889L46.901 11.3845L46.3735 10.9889L45.1867 12.7032L45.0988 12.8351V12.9669L45.1867 13.0548L45.3186 13.2307L45.5383 13.3186L45.2307 13.7581L44.879 13.4944L44.6153 13.2746L44.4834 13.0109V12.7471L44.6592 12.4395L45.9339 10.6812L45.4504 10.3296L45.7581 9.93396L46.2416 10.2856L46.8131 9.45044L47.2966 9.80209L46.6812 10.5933L47.2087 10.9889Z" fill="#009540"/>
<path d="M47.4725 15.7803L47.8681 15.3847V15.3407L47.2087 15.3847L46.6813 15.033L46.3296 14.6374L46.2417 14.1979L46.3736 13.7583L46.6813 13.3627L48.2197 11.7803L48.5714 12.1759L47.0329 13.8023L46.8131 14.2858L47.0329 14.7693L47.3846 15.033L47.7802 15.077L48.1758 14.9451L48.4835 14.7253L49.8461 13.3187L50.1977 13.6704L47.8681 16.1319L47.4725 15.7803Z" fill="#009540"/>
<path d="M51.5164 15.2088L50.9449 15.6484V15.6924C51.2526 15.6044 51.5164 15.6044 51.7361 15.6924L52.3515 16.1319L51.912 16.5275L51.4724 16.1319L51.0328 16L50.5493 16.1319L50.0658 16.3956L48.879 17.3627L48.5273 16.9231L51.1647 14.8132L51.5164 15.2088Z" fill="#009540"/>
<path d="M53.055 17.4065L50.1978 19.2527L49.9341 18.7692L52.7473 16.923L53.055 17.4065ZM53.2747 16.6153L53.8022 16.2637L54.1099 16.7472L53.5385 17.1428L53.2747 16.6153Z" fill="#009540"/>
<path d="M54.0657 19.077L53.5822 19.2968H53.6262C54.0657 19.2968 54.4174 19.5605 54.6372 20.0001L54.813 20.5276L54.7251 20.9671L54.5053 21.3188L54.0657 21.5825L52.0877 22.5496L51.824 22.066L53.846 21.0551L54.2416 20.6594L54.1976 20.132L53.8899 19.7803L53.5383 19.6045L53.1427 19.5605L52.7471 19.6924L51.0328 20.5276L50.769 20.0441L53.802 18.5496L54.0657 19.077Z" fill="#009540"/>
<path d="M52.2199 26.3297C51.8683 26.1539 51.6485 25.8022 51.5166 25.3187L51.4287 24.8352L51.4727 24.3956L51.6485 24L52.0441 23.7363L52.2199 24.3077L52.0001 24.4396L51.9122 24.7033V24.967L51.9562 25.2308L52.176 25.6264L52.4837 25.8462L52.9232 25.9341L53.4507 25.8462L53.6705 25.7583L53.099 25.4945L52.7913 24.9231L52.7474 24.2637L53.0111 23.6923L53.4507 23.2967L54.0661 23.033L54.6815 22.9451L55.2968 23.033L55.8243 23.3846L56.176 24.044L56.2199 24.6154L55.9562 25.1429L56.3957 25.011L56.5276 25.5385L53.5826 26.3736C52.9672 26.5055 52.5716 26.4616 52.2199 26.3297ZM53.4946 25.1868L53.8463 25.4066L54.3298 25.4945L54.7694 25.4066L55.2089 25.2308L55.5166 24.967L55.6924 24.6154V24.1758L55.4727 23.7363L55.121 23.5165L54.6815 23.4725L54.2419 23.5605L53.8023 23.7363L53.4507 24L53.2749 24.3517V24.8352L53.4946 25.1868Z" fill="#009540"/>
<path d="M58.3737 31.4724C58.3737 31.9559 58.2858 32.3076 58.022 32.5274C57.8023 32.7911 57.4506 32.923 57.0111 32.923C56.5715 32.923 56.2199 32.8351 56.0001 32.5713C55.7363 32.3076 55.6484 31.9999 55.6484 31.5164L55.6045 30.1098H53.7144V29.4944L58.3737 29.4504V31.4724ZM56.1319 31.2966C56.1319 31.6482 56.1759 31.912 56.3517 32.0878L57.0111 32.3076L57.6264 32.0438C57.8023 31.868 57.8902 31.6043 57.8902 31.2526V30.0219L56.1319 30.0658V31.2966Z" fill="#009540"/>
<path d="M56.7914 34.8572L56.0881 34.7693L56.6155 35.3407L56.7034 36.0879L56.0881 36V35.4286L55.9122 35.033L55.5166 34.7693L54.9452 34.5934L53.4507 34.3737L53.5386 33.8462L56.8793 34.3297L56.7914 34.8572Z" fill="#009540"/>
<path d="M52.3516 38.6373L52.5713 38.3296H52.9669L52.7472 37.7142L52.8351 37.0549L52.9669 36.6153L53.2746 36.3076L53.6263 36.1758L54.0658 36.2197L54.5054 36.4395L54.7252 36.7912L54.7691 37.1868V37.6263L54.7252 38.0659L54.6812 38.4175L54.7252 38.6813L54.945 38.8571L55.2527 38.901L55.4724 38.7692L55.6043 38.5494L55.6922 38.3296L55.7362 37.7142L55.3406 37.3186L55.4724 36.7912L55.956 37.0549L56.1757 37.4505L56.2636 37.978L56.1757 38.5054L55.9999 38.945L55.7362 39.2967L55.3845 39.4725L54.901 39.4285L53.2746 38.945L53.0109 38.901L52.879 38.989V39.2087L52.4834 39.0769L52.3516 38.6373ZM54.1977 38.3736L54.2417 38.0219L54.2856 37.6703V37.3186L54.1538 37.0549L53.89 36.8791L53.6263 36.8351L53.4505 36.923L53.3186 37.0989L53.2307 37.3626L53.1428 37.8021L53.2307 38.1978L53.4065 38.4615L53.6263 38.5934L54.1538 38.7692L54.1977 38.3736Z" fill="#009540"/>
<path d="M53.6265 42.7692L54.0222 42.3736L54.154 41.8462L54.0222 41.4066L53.7145 41.0989L53.2749 40.8352L52.8353 40.7033L52.4397 40.6593L52.0441 40.8352L51.7364 41.1868L51.6485 41.8462L52.0441 42.3736L51.8243 42.8571C51.4727 42.6374 51.2529 42.3297 51.165 42.022C51.0771 41.6703 51.1211 41.3187 51.3408 40.9231L51.7364 40.3516L52.3079 40.044L52.9233 40L53.5826 40.2198L54.198 40.6154L54.5496 41.1429L54.6815 41.8022L54.5057 42.5055L54.198 42.9451L53.8024 43.2527L53.3189 43.3846L52.7914 43.2967L53.0551 42.7692H53.6265Z" fill="#009540"/>
<path d="M52.2639 45.9779L51.8683 45.7142L52.2199 45.1867L50.5056 43.9999L50.3738 43.956H50.2419L50.154 43.9999L50.0221 44.1757L49.8902 44.3955L49.4507 44.1318L49.7144 43.7362L49.9342 43.4724L50.154 43.3406H50.4177L50.7694 43.5164L52.5276 44.7472L52.8793 44.2197L53.2749 44.5274L52.9672 44.967L53.7584 45.5384L53.4507 46.0219L52.6155 45.4505L52.2639 45.9779Z" fill="#009540"/>
<path d="M51.2526 47.2528L48.6152 45.1429L48.9669 44.7034L51.6042 46.8133L51.2526 47.2528ZM52.0878 47.2089L52.6152 47.6045L52.2636 48.044L51.7361 47.6045L52.0878 47.2089Z" fill="#009540"/>
<path d="M48.5274 49.3628L49.0548 49.099L49.3186 48.6595L49.3625 48.2199L49.1867 47.8243L48.879 47.4287L48.5274 47.165L48.1318 47.0331H47.6922L47.2966 47.2968L46.9889 47.8683L47.2087 48.5276L46.8131 48.9232C46.5933 48.5716 46.4614 48.2639 46.4614 47.9122C46.5054 47.5606 46.6373 47.2968 46.9889 46.9452L47.5603 46.5935L48.1318 46.4617L48.7032 46.6375L49.2746 47.0771L49.7142 47.6485L49.89 48.2639L49.846 48.8793L49.4504 49.4946L49.0109 49.8023L48.5274 49.9782L48.0438 49.9342L47.5603 49.6705L47.9999 49.2749L48.5274 49.3628Z" fill="#009540"/>
<path d="M43.4287 50.022C43.5166 49.7143 43.7364 49.4945 44.0441 49.2308L44.7034 48.967H45.3188L45.8902 49.2308L46.4177 49.7582L46.7254 50.3736L46.7693 51.033L46.5496 51.6044L46.11 52.0879L45.4067 52.3956L44.7474 52.2637L44.1759 51.8681L43.7803 51.3846L45.8463 49.9341L45.5825 49.6264L45.2309 49.4506L44.8353 49.4066L44.3957 49.6264L44.0001 50.0659L44.0441 50.6374L43.6045 50.989C43.3847 50.6374 43.3408 50.3297 43.4287 50.022ZM44.7913 51.7363L45.143 51.8681H45.4946L45.8463 51.7363L46.11 51.4725L46.1979 51.1209V50.7692L46.066 50.4176L44.4397 51.5165L44.7913 51.7363Z" fill="#009540"/>
<path d="M38.9011 56.1319L39.7802 56.088L40.3956 55.7363L40.7472 55.1649L40.8352 54.5055L40.7033 53.8023L40.3956 53.099L39.9121 52.5715L39.3406 52.3077L38.5934 52.3957L38.1099 52.6594L37.8022 53.055L37.6703 53.5385L37.7143 54.066L37.1428 54.2858C36.967 53.7143 37.0549 53.1869 37.2747 52.7913C37.4945 52.3517 37.8901 52.088 38.4615 51.9121L39.4286 51.7803L40.2198 52.044L40.8352 52.6594L41.2747 53.4946C41.3626 53.8462 41.4066 54.1539 41.4505 54.4616L41.3187 55.3407L40.7912 56.044L40 56.5275L39.2967 56.6594L38.6374 56.5715L38.0659 56.2198L37.6264 55.6484L38.1978 55.4726L38.9011 56.1319Z" fill="#009540"/>
<path d="M33.2745 53.3187C33.5383 53.0989 33.802 52.9671 34.1976 52.9231L34.9009 52.9671L35.4723 53.2747L35.824 53.8022L35.9998 54.5055L35.9558 55.2088L35.6921 55.8242L35.2525 56.2198L34.6372 56.4396L33.846 56.3517L33.3185 55.9561L32.9668 55.3407L32.835 54.7253L35.3405 54.4176L35.2086 53.978L34.9888 53.6703L34.6372 53.4506L34.1536 53.4066L33.6262 53.6264L33.3624 54.1539L32.835 54.2418C32.9668 53.8462 33.0547 53.5385 33.2745 53.3187ZM33.6701 55.4725L33.9339 55.7363L34.2416 55.8682L34.6372 55.9121L34.9888 55.7802L35.2525 55.5605L35.4284 55.2528L35.4723 54.8572L33.5383 55.0769L33.6701 55.4725Z" fill="#009540"/>
<path d="M31.3846 56.5274V55.7802L30.8571 56.3956L30.1099 56.5714V56L30.7252 55.8681L31.0769 55.6483L31.2967 55.2088L31.3846 54.6373L31.4285 53.1428H31.956L31.9121 56.5274H31.3846Z" fill="#009540"/>
<path d="M27.8682 56.2638L27.9121 55.7363L28.6154 55.8242L28.8352 53.7583V53.6264L28.7912 53.4945L28.6594 53.4506L28.4396 53.4066L28.1759 53.3627L28.2638 52.8792L28.6594 52.9231L29.011 53.011L29.2748 53.1429L29.4066 53.3627V53.7583L29.1429 55.8682L29.7143 55.9561L29.6704 56.4396L29.0989 56.3956L28.9671 57.4066L28.3956 57.3187L28.5275 56.3077L27.8682 56.2638Z" fill="#009540"/>
<path d="M26.6813 56.6594L26.5934 57.3188L26.022 57.1869L26.1538 56.5276L26.6813 56.6594ZM26.2857 55.9561L26.945 52.6594L27.4725 52.7913L26.8132 56.1319L26.2857 55.9561Z" fill="#009540"/>
<path d="M25.5386 55.2966L25.4068 55.7362L24.8353 55.6043L24.7035 56.0879L24.3079 56.6153H23.5606L23.3848 56.5274L23.2529 56.4395L23.3848 55.9999L23.5167 56.0879L23.6485 56.1318H24.0002L24.22 55.8681L24.3079 55.4285L23.6925 55.2527L23.8244 54.7692L24.4837 54.945L25.2749 52.2197L25.8024 52.3516L25.0112 55.1208L25.5386 55.2966Z" fill="#009540"/>
<path d="M22.6374 55.4724L22.4176 56.1317L21.8901 55.9119L22.1539 55.2526L22.6374 55.4724ZM22.2857 54.7251L23.5165 51.5603L24.044 51.7801L22.8572 54.901L22.2857 54.7251Z" fill="#009540"/>
<path d="M19.4728 52.7032L19.8684 53.1428L20.3519 53.2746L20.7915 53.1867L21.1431 52.879L21.4069 52.4834L21.5387 52.0439L21.5827 51.6483L21.4508 51.2527L21.0992 50.945L20.4398 50.8131L19.9124 51.2087L19.4289 50.945C19.6926 50.5933 19.9563 50.3735 20.264 50.2856C20.6157 50.2417 20.9673 50.2856 21.3629 50.4615L21.8904 50.8571L22.1981 51.3845V51.9999L21.9783 52.6593L21.5827 53.2307L21.0113 53.6263L20.3959 53.7142L19.6926 53.5384L19.253 53.2307L18.9453 52.8351L18.8574 52.3955L18.9453 51.868L19.4728 52.1318V52.7032Z" fill="#009540"/>
<path d="M17.3188 47.7364L17.4946 48.0441L17.4067 48.4397H18.066L18.6375 48.7474L18.9452 49.0551L19.121 49.4067L19.1649 49.7583L18.9891 50.154L18.5935 50.4616L18.1979 50.5496L17.8463 50.4616L17.4946 50.2858L17.0551 50.11L16.7474 49.9342L16.4836 49.8463L16.2638 49.9781L16.132 50.2419L16.1759 50.4616L16.3078 50.6814L16.5276 50.8573L17.099 51.121L17.5825 50.9012L18.066 51.2529L17.6265 51.6045L17.1869 51.6485L16.6594 51.5166L16.2199 51.2529L15.8682 50.9452L15.6045 50.5935L15.5605 50.2419L15.7364 49.7583L16.7913 48.3518L16.9671 48.132L16.8792 47.9562L16.7034 47.9122L16.9671 47.5605L17.3188 47.7364ZM16.8792 49.5825L17.2309 49.7583L17.5386 49.9342L17.8902 50.066H18.1979L18.4616 49.8463L18.5496 49.6265V49.4067L18.4177 49.1869L18.2419 49.0111L17.8463 48.7474H17.4946L17.1869 48.8353L16.9671 48.9671L16.6155 49.4067L16.8792 49.5825Z" fill="#009540"/>
<path d="M13.0987 48.4395L13.4504 48.0879L13.8899 48.5714L15.3844 47.0769L15.5163 46.945V46.8571L15.4723 46.7253L15.2965 46.5494L15.1207 46.4176L15.4723 46.0659L15.78 46.3297L15.9998 46.6373L16.1317 46.9011L16.0438 47.1209L15.824 47.4286L14.2855 48.967L14.6811 49.3626L14.3295 49.7143L13.9339 49.3187L13.2306 49.978L12.791 49.6264L13.5383 48.9231L13.0987 48.4395Z" fill="#009540"/>
<path d="M11.9118 48L11.3844 48.4396L11.0327 48L11.5602 47.5604L11.9118 48ZM12.0437 47.2088L14.6371 45.011L14.9888 45.4505L12.3954 47.5604L12.0437 47.2088Z" fill="#009540"/>
<path d="M12 45.6263L11.3407 45.6703L10.7692 45.4505L10.2857 44.923L9.97803 44.2197L10.022 43.6043L10.3297 43.0329L10.8571 42.5933L11.5165 42.3296L12.1319 42.2856L12.7033 42.5054L13.1868 43.0329L13.4506 43.7362V44.3516L13.1429 44.923L12.6154 45.4065L12 45.6263ZM12.7033 44.4834L12.9231 44.0439L12.967 43.6483L12.7912 43.2527L12.5275 42.9889L12.1319 42.8131H11.6923L11.1648 43.0769L10.7692 43.4285L10.5495 43.8681L10.5055 44.2637L10.6813 44.6593L10.9451 44.967L11.3407 45.1428L11.8242 45.0549L12.3077 44.8351L12.7033 44.4834Z" fill="#009540"/>
<path d="M8.52749 41.6703L9.01101 41.4505C8.57145 41.4065 8.2198 41.1428 8.04398 40.6593L7.91211 40.1318L8.04398 39.6922L8.30771 39.3845L8.74727 39.1208L10.8132 38.2856L11.033 38.8131L8.9231 39.6922L8.48354 39.9999L8.52749 40.5274L8.79123 40.8791L9.14288 41.0988L9.49453 41.1428L9.93409 41.0549L11.6923 40.3076L11.8682 40.8791L8.79123 42.1538L8.52749 41.6703Z" fill="#009540"/>
<path d="M23.9453 31.8573C23.1541 32.8683 22.0991 33.2199 21.1321 33.2199C17.9672 33.2199 16.1211 30.8463 16.1211 27.9012C16.1211 24.8683 17.9672 22.4946 21.1321 22.4946C23.242 22.4946 25.176 23.8133 25.4398 26.099H23.2859C23.0222 24.9562 22.187 24.3847 21.1321 24.3847C19.1101 24.3847 18.3189 26.099 18.3189 27.9012C18.3189 29.6155 19.1101 31.3298 21.1321 31.3298C22.5826 31.3298 23.4618 30.5825 23.5497 29.132H21.3079V27.4617H25.6156V33.0001H24.165L23.9453 31.8573Z" fill="white"/>
<path d="M27.4614 22.7583H30.6263L32.9999 29.7913H33.0438L35.3296 22.7583H38.4944V33.0001H36.3845V25.7034H36.3406L33.8351 33.0001H32.1208L29.5713 25.7913H29.5274V33.0001H27.4614V22.7583Z" fill="white"/>
<path d="M40.4727 22.7583H45.088C47.6375 22.7583 48.6485 24.3847 48.6485 26.011C48.6485 27.6814 47.6375 29.3078 45.088 29.3078H42.7144V33.0001H40.4727V22.7583ZM42.7144 27.5495H44.4287C45.4836 27.5495 46.4067 27.2858 46.4067 26.011C46.4067 24.7363 45.4836 24.4726 44.4287 24.4726H42.7144V27.5495Z" fill="white"/>
<path d="M24.604 42.099L24.0326 42.7144L23.1095 41.8793C22.626 42.143 22.0546 42.2749 21.5711 42.2749C19.5931 42.2749 18.4502 40.6924 18.4502 38.8463C18.4502 37.0001 19.5931 35.4617 21.5711 35.4617C23.5051 35.4617 24.692 37.0001 24.692 38.8463C24.692 39.7694 24.4282 40.7364 23.7689 41.3518L24.604 42.099ZM21.659 40.6045L22.2304 39.9891L23.0216 40.6924C23.4172 40.2089 23.5931 39.5496 23.5931 38.8463C23.5931 37.6155 23.0216 36.3847 21.615 36.3847C20.2084 36.3847 19.5931 37.6155 19.5931 38.8463C19.5931 40.121 20.2084 41.3518 21.615 41.3518L22.3183 41.176L21.659 40.6045Z" fill="white"/>
<path d="M29.7471 42.1428H28.6922V41.4834C28.4284 41.9669 27.857 42.2307 27.3295 42.2307C26.1427 42.2307 25.5713 41.6153 25.5713 40.3845V37.3955H26.6262V40.2966C26.6262 41.1318 26.9779 41.4395 27.5054 41.4395C28.3845 41.4395 28.6482 40.868 28.6482 40.1647V37.3955H29.7032V42.1428H29.7471Z" fill="white"/>
<path d="M34.8023 41.0878L35.0221 41.4395L35.2858 41.3955V42.1428L34.6265 42.2307C34.1869 42.2307 33.9232 42.0988 33.8353 41.6593C33.4397 42.0988 32.7803 42.2307 32.2089 42.2307C31.3737 42.2307 30.5825 41.7911 30.5825 40.8681C30.5825 39.6813 31.5496 39.5054 32.4287 39.4175C33.1759 39.2417 33.8353 39.3296 33.8353 38.7142C33.8353 38.1867 33.2638 38.0988 32.8682 38.0988C32.2968 38.0988 31.8572 38.3626 31.8133 38.8461H30.8023C30.8463 37.6153 31.9012 37.2637 32.9561 37.2637C33.8792 37.2637 34.8463 37.6153 34.8463 38.6263V41.0878H34.8023ZM33.7474 39.7692C33.4397 39.945 32.9561 39.945 32.4726 40.0329C32.0331 40.1208 31.5935 40.2527 31.5935 40.8241C31.5935 41.2637 32.2089 41.4395 32.5605 41.4395C33.0001 41.4395 33.7034 41.2197 33.7034 40.5164V39.7692H33.7474Z" fill="white"/>
<path d="M37.0003 35.5935H35.9453V42.099H37.0003V35.5935Z" fill="white"/>
<path d="M38.1426 36.5605H39.2415V35.5935H38.1426V36.5605ZM38.1426 42.143H39.2415V37.3957H38.1426V42.143Z" fill="white"/>
<path d="M39.813 37.3956H40.6482V35.989H41.6592V37.3956H42.5822V38.1429H41.6592V40.6484C41.6592 41.0879 41.6592 41.3077 42.1427 41.3077L42.5383 41.2637V42.0989L41.8789 42.1429C40.78 42.1429 40.6042 41.7033 40.6042 40.9121V38.0989H39.769V37.3956H39.813Z" fill="white"/>
<path d="M42.8457 37.3955H44.0325L45.2633 40.912L46.4501 37.3955H47.549L45.7028 42.3625C45.3512 43.2417 45.0875 43.945 44.0325 43.945L43.2853 43.901V43.0219L43.8127 43.1098C44.2523 43.1098 44.4281 42.8461 44.516 42.4505L44.6479 42.0988L42.8457 37.3955Z" fill="white"/>
</g>
<defs>
<clipPath id="clip0">
<rect width="64" height="64" fill="white"/>
</clipPath>
</defs>
</svg>
