<svg width="64" height="64" viewBox="0 0 64 64" fill="none" xmlns="http://www.w3.org/2000/svg">
<circle opacity="0.2" cx="32" cy="32" r="30.25" stroke="white" stroke-width="1.5"/>
<path fill-rule="evenodd" clip-rule="evenodd" d="M24.4682 22.259L17.2918 38.9162C16.7147 40.1283 16.3465 41.448 15.5555 42.5819L15.3192 42.7383C14.5829 42.6357 13.6376 43.0487 13.1625 42.3498C12.374 41.5237 11.5581 40.5682 10.8243 39.6884C10.7969 39.6102 10.772 39.4294 10.8516 39.4294L13.7968 40.0501L15.6102 36.4601L18.7644 30.8051L22.7867 24.1188C23.3115 23.4223 23.707 22.6721 24.2841 22H24.5204L24.4682 22.259Z" fill="#CF4037"/>
<path fill-rule="evenodd" clip-rule="evenodd" d="M11.0287 37.5257L11.8844 32.2152H10.1705L9.31483 37.5257H5.71045L7.81985 24.4414H11.4217L10.668 29.1262H12.3819L13.1381 24.4414H16.74L14.6306 37.5257H11.0287ZM36.242 28.2758C35.8067 27.7894 35.4286 27.5133 34.6873 27.5133C32.8142 27.5133 32.0282 29.5441 31.7968 30.9835C31.5506 32.5109 31.6973 34.4538 33.4983 34.4538C34.3117 34.4538 34.8739 34.141 35.5405 33.6204L34.7395 37.2813C33.9659 37.5941 33.2868 37.7505 32.4908 37.7505C29.5407 37.7505 27.389 35.5462 28.1104 31.0691C29.0556 25.2039 33.3117 24.2141 35.0604 24.2141C35.6972 24.2141 36.3017 24.2996 36.8464 24.5269L36.242 28.2758ZM45.6721 28.2758C45.2368 27.7894 44.8587 27.5133 44.1174 27.5133C42.2443 27.5133 41.4583 29.5441 41.2269 30.9835C40.9807 32.5109 41.1274 34.4538 42.9284 34.4538C43.7418 34.4538 44.304 34.141 44.9706 33.6204L44.1696 37.2813C43.396 37.5941 42.7169 37.7505 41.9209 37.7505C38.9708 37.7505 36.8191 35.5462 37.5405 31.0691C38.4857 25.2039 42.7418 24.2141 44.4905 24.2141C45.1273 24.2141 45.7318 24.2996 46.2765 24.5269L45.6721 28.2758ZM46.3188 37.5257L48.4282 24.4414H51.7142C54.8584 24.4414 57.1146 25.4482 56.5623 28.8843C56.0151 32.2861 53.7266 33.3272 50.6147 33.2392L49.9232 37.5257H46.3188ZM51.8436 27.2518L51.5749 27.2689L51.0899 30.2895C52.0699 30.3408 52.7764 29.8032 52.9306 28.833C53.0649 27.9972 52.7266 27.2518 51.8436 27.2518ZM25.5358 24.4487H24.3716L22.6976 28.2953L22.5309 32.9752H20.6603L19.4016 35.8663H22.4986L22.5284 37.5232H26.2696L25.5358 24.4487ZM22.8294 40.6953C22.8319 40.5756 22.8045 40.2139 22.3792 40.2139C21.8991 40.2139 21.6628 40.6709 21.5857 41.1108C21.5061 41.5507 21.5782 42.0077 22.0583 42.0077C22.404 42.0077 22.5807 41.7682 22.6976 41.4627H23.7025C23.5856 42.1225 22.914 42.8239 21.9389 42.8239C20.8618 42.8239 20.3842 42.0785 20.5583 41.1108C20.7424 40.0795 21.526 39.3976 22.5533 39.3976C23.4662 39.4025 23.8841 39.8742 23.8269 40.6929H22.8294V40.6953ZM25.3268 39.4783H28.0805L27.9313 40.3165H26.2024L26.1303 40.7246H27.6999L27.5581 41.5018H25.9885L25.9164 41.9099H27.6974L27.5482 42.7481H24.7398L25.3268 39.4783ZM29.4461 39.4783H31.3988C31.9809 39.4783 32.4287 39.7935 32.3167 40.4118C32.257 40.7515 32.0331 41.1083 31.67 41.2305C31.9312 41.3356 32.0481 41.6386 32.0132 42.0443C31.9983 42.2056 31.9336 42.5942 32.0008 42.7457H30.976C30.9536 42.582 30.966 42.4109 30.9834 42.2423C31.0108 41.9319 31.0406 41.6069 30.6352 41.6069H30.0904L29.8864 42.7481H28.8616L29.4461 39.4783ZM30.2148 40.9055H30.7521C30.9436 40.9055 31.2098 40.8737 31.262 40.5805C31.2993 40.3752 31.2048 40.2554 30.8118 40.2554H30.3317L30.2148 40.9055ZM34.2843 40.3165H33.3515L33.5008 39.4783H36.3912L36.242 40.3165H35.3092L34.8739 42.7481H33.849L34.2843 40.3165ZM37.6076 39.4783H38.6325L38.0479 42.7481H37.0231L37.6076 39.4783ZM39.9981 39.4783H42.5702L42.4209 40.3165H40.8737L40.8016 40.7246H42.1299L41.9906 41.5018H40.6623L40.4384 42.7481H39.4135L39.9981 39.4783ZM43.7741 39.4783H44.799L44.2144 42.7481H43.1896L43.7741 39.4783ZM46.1646 39.4783H48.9183L48.769 40.3165H47.0402L46.9681 40.7246H48.5377L48.3984 41.5018H46.8288L46.7566 41.9099H48.5377L48.3884 42.7481H45.5825L46.1646 39.4783ZM50.2839 39.4783H51.9679C53.0774 39.4783 53.3236 40.2847 53.1769 41.1083C52.9978 42.1103 52.3435 42.7481 51.1819 42.7481H49.6993L50.2839 39.4783ZM50.8734 41.9099H51.2739C51.9132 41.9099 52.0973 41.4016 52.152 41.0937C52.1893 40.8884 52.2266 40.3141 51.4854 40.3141H51.1595L50.8734 41.9099ZM57.9081 24.4463H59.1842V24.6809H58.6842V25.9957H58.4081V24.6809H57.9081V24.4463ZM59.3633 24.4463H59.7513L60.1866 25.6584H60.1916L60.617 24.4463H61V25.9957H60.7364V24.8006H60.7314L60.2936 25.9957H60.0672L59.6294 24.8006H59.6245V25.9957H59.3608V24.4463H59.3633Z" fill="white"/>
</svg>
