<svg width="588" height="388" viewBox="0 0 588 388" fill="none" xmlns="http://www.w3.org/2000/svg">
<path d="M0.818182 233.962L0.818182 235.195H11V233.962H0.818182ZM11 231.649V230.475H6.22727C5.10866 230.475 4.31818 229.66 4.31818 228.745C4.31818 227.855 4.89986 227.234 5.76989 227.234H11V226.041H6.02841C5.04403 226.041 4.31818 225.424 4.31818 224.35C4.31818 223.515 4.76065 222.799 5.8892 222.799H11L11 221.626H5.8892C4.09446 221.626 3.2642 222.591 3.2642 223.953C3.2642 225.047 3.76633 225.847 4.55682 226.24V226.319C3.74148 226.697 3.2642 227.363 3.2642 228.368C3.2642 229.362 3.74148 230.098 4.55682 230.416V230.515H3.36364V231.649H11ZM11 219.481V218.308H6.22727C5.10866 218.308 4.31818 217.492 4.31818 216.577C4.31818 215.688 4.89986 215.066 5.76989 215.066H11V213.873H6.02841C5.04403 213.873 4.31818 213.256 4.31818 212.183C4.31818 211.347 4.76065 210.631 5.8892 210.631H11V209.458H5.8892C4.09446 209.458 3.2642 210.423 3.2642 211.785C3.2642 212.879 3.76633 213.679 4.55682 214.072V214.151C3.74148 214.529 3.2642 215.195 3.2642 216.2C3.2642 217.194 3.74148 217.93 4.55682 218.248V218.347H3.36364L3.36364 219.481H11ZM7.87784 202.5C9.30966 202.5 9.96591 203.594 9.96591 204.469C9.96591 205.444 9.25 206.14 8.13636 206.14H3.36364V207.313H8.21591C10.1648 207.313 11.0994 206.279 11.0994 204.847C11.0994 203.694 10.483 202.938 9.70739 202.58V202.5H11V201.327H3.36364V202.5H7.87784ZM6.40625 198.005C5.07386 198.005 4.31818 197.18 4.31818 196.056C4.31818 194.967 5.02912 194.306 6.22727 194.306H11L11 193.133H6.14773C4.19886 193.133 3.2642 194.172 3.2642 195.718C3.2642 196.871 3.78125 197.587 4.55682 197.945V198.045H3.36364V199.178H11V198.005H6.40625ZM11.1591 187.787C11.1591 186.236 10.3835 185.102 9.23011 184.744L8.91193 185.878C9.70739 186.176 10.1051 186.867 10.1051 187.787C10.1051 189.164 9.2152 190.114 7.57955 190.168L7.57955 184.625H7.08239C4.23864 184.625 3.2642 186.315 3.2642 187.906C3.2642 189.974 4.89489 191.347 7.24148 191.347C9.58807 191.347 11.1591 189.994 11.1591 187.787ZM6.56534 190.168C5.37713 190.089 4.31818 189.249 4.31818 187.906C4.31818 186.634 5.27273 185.818 6.56534 185.818L6.56534 190.168ZM11 178.903V177.729H6.16761C5.13352 177.729 4.37784 176.914 4.37784 175.8C4.37784 175.487 4.4375 175.164 4.45739 175.085H3.2642C3.25426 175.219 3.24432 175.527 3.24432 175.701C3.24432 176.616 3.76136 177.411 4.51705 177.69V177.769H3.36364V178.903H11ZM11.1591 170.724C11.1591 169.173 10.3835 168.04 9.23011 167.682L8.91193 168.815C9.70739 169.114 10.1051 169.805 10.1051 170.724C10.1051 172.102 9.2152 173.051 7.57955 173.106L7.57955 167.562H7.08239C4.23864 167.562 3.2642 169.253 3.2642 170.844C3.2642 172.912 4.89489 174.284 7.24148 174.284C9.58807 174.284 11.1591 172.932 11.1591 170.724ZM6.56534 173.106C5.37713 173.026 4.31818 172.186 4.31818 170.844C4.31818 169.571 5.27273 168.756 6.56534 168.756L6.56534 173.106ZM5.07386 160.369C3.99006 160.737 3.2642 161.562 3.2642 163.073C3.2642 164.684 4.17898 165.877 5.47159 165.877C6.52557 165.877 7.23153 165.251 7.55966 163.849L7.85795 162.576C8.03693 161.805 8.40483 161.442 8.93182 161.442C9.58807 161.442 10.125 162.138 10.125 163.232C10.125 164.192 9.71236 164.793 8.89205 165.002L9.17045 166.116C10.468 165.842 11.1591 164.773 11.1591 163.212C11.1591 161.438 10.1896 160.229 8.87216 160.229C7.80824 160.229 7.13707 160.896 6.80398 162.258L6.52557 163.391C6.30185 164.296 5.99858 164.704 5.41193 164.704C4.75568 164.704 4.27841 164.008 4.27841 163.073C4.27841 162.049 4.84517 161.626 5.37216 161.423L5.07386 160.369ZM13.8636 158.463V157.29H9.8267V157.191C10.2443 156.932 11.1591 156.435 11.1591 154.963C11.1591 153.054 9.62784 151.722 7.2017 151.722C4.79545 151.722 3.2642 153.054 3.2642 154.983C3.2642 156.475 4.17898 156.932 4.5767 157.191V157.33H3.36364V158.463H13.8636ZM7.18182 157.31C5.47159 157.31 4.31818 156.554 4.31818 155.122C4.31818 153.631 5.57102 152.895 7.18182 152.895C8.8125 152.895 10.1051 153.651 10.1051 155.122C10.1051 156.534 8.91193 157.31 7.18182 157.31ZM11.1591 146.83C11.1591 144.762 9.58807 143.369 7.22159 143.369C4.83523 143.369 3.2642 144.762 3.2642 146.83C3.2642 148.898 4.83523 150.29 7.22159 150.29C9.58807 150.29 11.1591 148.898 11.1591 146.83ZM10.1051 146.83C10.1051 148.401 8.75284 149.117 7.22159 149.117C5.69034 149.117 4.31818 148.401 4.31818 146.83C4.31818 145.259 5.69034 144.543 7.22159 144.543C8.75284 144.543 10.1051 145.259 10.1051 146.83ZM6.40625 140.405C5.07386 140.405 4.31818 139.58 4.31818 138.456C4.31818 137.368 5.02912 136.706 6.22727 136.706H11V135.533H6.14773C4.19886 135.533 3.2642 136.572 3.2642 138.118C3.2642 139.272 3.78125 139.988 4.55682 140.346V140.445H3.36364V141.578H11V140.405H6.40625ZM5.07386 127.98C3.99006 128.348 3.2642 129.173 3.2642 130.684C3.2642 132.295 4.17898 133.488 5.47159 133.488C6.52557 133.488 7.23153 132.862 7.55966 131.46L7.85795 130.187C8.03693 129.417 8.40483 129.054 8.93182 129.054C9.58807 129.054 10.125 129.75 10.125 130.844C10.125 131.803 9.71236 132.405 8.89205 132.613L9.17045 133.727C10.468 133.454 11.1591 132.385 11.1591 130.824C11.1591 129.049 10.1896 127.841 8.87216 127.841C7.80824 127.841 7.13707 128.507 6.80398 129.869L6.52557 131.003C6.30185 131.907 5.99858 132.315 5.41193 132.315C4.75568 132.315 4.27841 131.619 4.27841 130.684C4.27841 129.66 4.84517 129.238 5.37216 129.034L5.07386 127.98ZM11.1591 122.873C11.1591 121.322 10.3835 120.188 9.23011 119.83L8.91193 120.964C9.70739 121.262 10.1051 121.953 10.1051 122.873C10.1051 124.25 9.2152 125.2 7.57955 125.254V119.711H7.08239C4.23864 119.711 3.2642 121.401 3.2642 122.992C3.2642 125.06 4.89489 126.433 7.24148 126.433C9.58807 126.433 11.1591 125.08 11.1591 122.873ZM6.56534 125.254C5.37713 125.175 4.31818 124.335 4.31818 122.992C4.31818 121.719 5.27273 120.904 6.56534 120.904V125.254Z" fill="#202124"/>
<path d="M27 351.5V1H21M27 351.5V359.5M27 351.5H587V357.5M27 351.5H18M21 301H27M21 251H27M21 201H27M21 151H27M21 101H27M21 51H27M447 357.5V351.5M517 357.5V351.5M377 357.5V351.5M307 357.5V351.5M237 357.5V351.5M167 357.5V351.5M97 357.5V351.5" stroke="#202124"/>
<path opacity="0.1" d="M587 2H28M28 302H587M28 252H587M28 202H587M28 152H587M28 102H587M28 52H587" stroke="#202124"/>
<path opacity="0.1" d="M587 1V352M447 352V1M517 352V1M377 352V1M307 352V1M237 352V1M167 352V1M97 352V1" stroke="#202124"/>
<path d="M291.866 377.912H295.067V387H296.3V377.912H299.502V376.818H291.866V377.912ZM301.246 387H302.419V379.364H301.246V387ZM301.842 378.091C302.3 378.091 302.678 377.733 302.678 377.295C302.678 376.858 302.3 376.5 301.842 376.5C301.385 376.5 301.007 376.858 301.007 377.295C301.007 377.733 301.385 378.091 301.842 378.091ZM304.568 387H305.741V382.227C305.741 381.109 306.557 380.318 307.471 380.318C308.361 380.318 308.983 380.9 308.983 381.77V387H310.176V382.028C310.176 381.044 310.792 380.318 311.866 380.318C312.702 380.318 313.417 380.761 313.417 381.889V387H314.591V381.889C314.591 380.094 313.626 379.264 312.264 379.264C311.17 379.264 310.37 379.766 309.977 380.557H309.898C309.52 379.741 308.854 379.264 307.849 379.264C306.855 379.264 306.119 379.741 305.801 380.557H305.702V379.364H304.568V387ZM319.938 387.159C321.489 387.159 322.622 386.384 322.98 385.23L321.847 384.912C321.548 385.707 320.857 386.105 319.938 386.105C318.561 386.105 317.611 385.215 317.556 383.58H323.1V383.082C323.1 380.239 321.409 379.264 319.818 379.264C317.75 379.264 316.378 380.895 316.378 383.241C316.378 385.588 317.73 387.159 319.938 387.159ZM317.556 382.565C317.636 381.377 318.476 380.318 319.818 380.318C321.091 380.318 321.906 381.273 321.906 382.565H317.556Z" fill="#202124"/>
<path d="M28 302H115C115 302 121.43 302.497 125.5 302C149.728 299.042 138.605 251.2 163 252C186.822 252.781 174.359 298.967 198 302C202.067 302.522 208.5 302 208.5 302H330.5C330.5 302 335.684 302.162 339 302C396.871 299.173 352.581 170.438 410.5 172C467.593 173.54 420.515 298.156 477.5 302C481.981 302.302 489 302 489 302H587.5" stroke="#202124" stroke-width="1.5"/>
<path d="M28 300H114C114 300 120.43 300.497 124.5 300C148.728 297.042 137.605 248.2 162 249C185.822 249.781 174.359 296.967 198 300C202.067 300.522 208.5 300 208.5 300H330.5C330.5 300 335.684 300.162 339 300C396.871 297.173 347 110 412.5 110C478 110 424.515 296.156 481.5 300C485.981 300.302 493 300 493 300H587.5" stroke="#FF0000" stroke-width="1.5"/>
<path d="M73.8041 122C73.4262 119.912 71.7558 118.679 69.7075 118.679C67.1024 118.679 65.2132 120.688 65.2132 123.909C65.2132 127.131 67.1024 129.139 69.7075 129.139C71.7558 129.139 73.4262 127.906 73.8041 125.818H72.5711C72.2728 127.23 71.0597 127.986 69.7075 127.986C67.858 127.986 66.4063 126.554 66.4063 123.909C66.4063 121.264 67.858 119.832 69.7075 119.832C71.0597 119.832 72.2728 120.588 72.5711 122H73.8041ZM77.8845 129.179C79.2169 129.179 79.9129 128.463 80.1515 127.966H80.2112V129H81.3845V123.969C81.3845 121.543 79.5351 121.264 78.5606 121.264C77.4072 121.264 76.0947 121.662 75.4981 123.054L76.6118 123.452C76.8703 122.895 77.4818 122.298 78.6004 122.298C79.6792 122.298 80.2112 122.87 80.2112 123.849V123.889C80.2112 124.456 79.6345 124.406 78.2425 124.585C76.8256 124.769 75.2794 125.082 75.2794 126.832C75.2794 128.324 76.4328 129.179 77.8845 129.179ZM78.0635 128.125C77.1288 128.125 76.4527 127.707 76.4527 126.892C76.4527 125.997 77.268 125.719 78.1828 125.599C78.68 125.54 80.0123 125.401 80.2112 125.162V126.236C80.2112 127.19 79.4555 128.125 78.0635 128.125ZM84.6993 124.406C84.6993 123.074 85.5246 122.318 86.6482 122.318C87.7369 122.318 88.3982 123.029 88.3982 124.227V129H89.5715V124.148C89.5715 122.199 88.5324 121.264 86.9862 121.264C85.8328 121.264 85.1169 121.781 84.759 122.557H84.6595V121.364H83.526V129H84.6993V124.406ZM94.599 129.159C96.0706 129.159 96.5677 128.244 96.8263 127.827H96.9655V129H98.099V118.818H96.9257V122.577H96.8263C96.5677 122.179 96.1104 121.264 94.6189 121.264C92.6899 121.264 91.3575 122.795 91.3575 125.202C91.3575 127.628 92.6899 129.159 94.599 129.159ZM94.7581 128.105C93.2865 128.105 92.5308 126.812 92.5308 125.182C92.5308 123.571 93.2666 122.318 94.7581 122.318C96.1899 122.318 96.9456 123.472 96.9456 125.182C96.9456 126.912 96.17 128.105 94.7581 128.105ZM100.411 129H101.584V121.364H100.411V129ZM101.007 120.091C101.465 120.091 101.843 119.733 101.843 119.295C101.843 118.858 101.465 118.5 101.007 118.5C100.55 118.5 100.172 118.858 100.172 119.295C100.172 119.733 100.55 120.091 101.007 120.091ZM106.617 129.159C108.088 129.159 108.585 128.244 108.844 127.827H108.983V129H110.117V118.818H108.943V122.577H108.844C108.585 122.179 108.128 121.264 106.636 121.264C104.707 121.264 103.375 122.795 103.375 125.202C103.375 127.628 104.707 129.159 106.617 129.159ZM106.776 128.105C105.304 128.105 104.548 126.812 104.548 125.182C104.548 123.571 105.284 122.318 106.776 122.318C108.207 122.318 108.963 123.472 108.963 125.182C108.963 126.912 108.188 128.105 106.776 128.105ZM114.676 129.179C116.008 129.179 116.704 128.463 116.943 127.966H117.002V129H118.176V123.969C118.176 121.543 116.326 121.264 115.352 121.264C114.198 121.264 112.886 121.662 112.289 123.054L113.403 123.452C113.661 122.895 114.273 122.298 115.391 122.298C116.47 122.298 117.002 122.87 117.002 123.849V123.889C117.002 124.456 116.426 124.406 115.033 124.585C113.617 124.769 112.07 125.082 112.07 126.832C112.07 128.324 113.224 129.179 114.676 129.179ZM114.854 128.125C113.92 128.125 113.244 127.707 113.244 126.892C113.244 125.997 114.059 125.719 114.974 125.599C115.471 125.54 116.803 125.401 117.002 125.162V126.236C117.002 127.19 116.247 128.125 114.854 128.125ZM126.502 129.179C127.834 129.179 128.53 128.463 128.769 127.966H128.828V129H130.002V123.969C130.002 121.543 128.152 121.264 127.178 121.264C126.024 121.264 124.712 121.662 124.115 123.054L125.229 123.452C125.487 122.895 126.099 122.298 127.218 122.298C128.296 122.298 128.828 122.87 128.828 123.849V123.889C128.828 124.456 128.252 124.406 126.86 124.585C125.443 124.769 123.897 125.082 123.897 126.832C123.897 128.324 125.05 129.179 126.502 129.179ZM126.681 128.125C125.746 128.125 125.07 127.707 125.07 126.892C125.07 125.997 125.885 125.719 126.8 125.599C127.297 125.54 128.63 125.401 128.828 125.162V126.236C128.828 127.19 128.073 128.125 126.681 128.125ZM132.143 129H133.316V121.364H132.143V129ZM132.74 120.091C133.197 120.091 133.575 119.733 133.575 119.295C133.575 118.858 133.197 118.5 132.74 118.5C132.282 118.5 131.905 118.858 131.905 119.295C131.905 119.733 132.282 120.091 132.74 120.091ZM135.625 129H136.758V127.827H136.897C137.156 128.244 137.653 129.159 139.125 129.159C141.034 129.159 142.366 127.628 142.366 125.202C142.366 122.795 141.034 121.264 139.105 121.264C137.613 121.264 137.156 122.179 136.897 122.577H136.798V118.818H135.625V129ZM136.778 125.182C136.778 123.472 137.534 122.318 138.965 122.318C140.457 122.318 141.193 123.571 141.193 125.182C141.193 126.812 140.437 128.105 138.965 128.105C137.554 128.105 136.778 126.912 136.778 125.182ZM144.161 129H145.334V121.364H144.161V129ZM144.757 120.091C145.215 120.091 145.593 119.733 145.593 119.295C145.593 118.858 145.215 118.5 144.757 118.5C144.3 118.5 143.922 118.858 143.922 119.295C143.922 119.733 144.3 120.091 144.757 120.091ZM150.585 129.159C152.276 129.159 153.389 128.125 153.588 126.773H152.415C152.196 127.608 151.5 128.105 150.585 128.105C149.193 128.105 148.298 126.952 148.298 125.182C148.298 123.452 149.213 122.318 150.585 122.318C151.619 122.318 152.236 122.955 152.415 123.651H153.588C153.389 122.219 152.176 121.264 150.565 121.264C148.497 121.264 147.125 122.895 147.125 125.222C147.125 127.509 148.438 129.159 150.585 129.159ZM157.551 129.179C158.883 129.179 159.579 128.463 159.818 127.966H159.877V129H161.051V123.969C161.051 121.543 159.201 121.264 158.227 121.264C157.073 121.264 155.761 121.662 155.164 123.054L156.278 123.452C156.536 122.895 157.148 122.298 158.266 122.298C159.345 122.298 159.877 122.87 159.877 123.849V123.889C159.877 124.456 159.301 124.406 157.908 124.585C156.492 124.769 154.945 125.082 154.945 126.832C154.945 128.324 156.099 129.179 157.551 129.179ZM157.729 128.125C156.795 128.125 156.119 127.707 156.119 126.892C156.119 125.997 156.934 125.719 157.849 125.599C158.346 125.54 159.678 125.401 159.877 125.162V126.236C159.877 127.19 159.122 128.125 157.729 128.125ZM164.365 124.406C164.365 123.074 165.191 122.318 166.314 122.318C167.403 122.318 168.064 123.029 168.064 124.227V129H169.237V124.148C169.237 122.199 168.198 121.264 166.652 121.264C165.499 121.264 164.783 121.781 164.425 122.557H164.326V121.364H163.192V129H164.365V124.406ZM176.791 123.074C176.423 121.99 175.597 121.264 174.086 121.264C172.475 121.264 171.282 122.179 171.282 123.472C171.282 124.526 171.908 125.232 173.31 125.56L174.583 125.858C175.354 126.037 175.717 126.405 175.717 126.932C175.717 127.588 175.021 128.125 173.927 128.125C172.967 128.125 172.366 127.712 172.157 126.892L171.043 127.17C171.317 128.468 172.386 129.159 173.947 129.159C175.722 129.159 176.93 128.19 176.93 126.872C176.93 125.808 176.264 125.137 174.901 124.804L173.768 124.526C172.863 124.302 172.455 123.999 172.455 123.412C172.455 122.756 173.151 122.278 174.086 122.278C175.11 122.278 175.533 122.845 175.737 123.372L176.791 123.074ZM95.7841 134.679C94.0341 134.679 92.7614 135.852 92.7614 137.423V147.864H93.9347V144.185L94.0142 144.145C94.571 144.92 95.3267 145.139 96.0625 145.139C97.8722 145.139 99.1847 143.807 99.1847 142.077C99.1847 141.058 98.7322 139.989 97.7131 139.457C98.4141 138.925 98.7472 138.109 98.7472 137.364C98.7472 136.031 97.6733 134.679 95.7841 134.679ZM95.2074 139.114V140.128H96.1818C97.2955 140.128 98.0114 141.082 98.0114 142.077C98.0114 143.131 97.2159 144.045 95.9233 144.045C94.6903 144.045 93.9347 143.21 93.9347 142.236V137.423C93.9347 136.449 94.7699 135.773 95.7841 135.773C96.7983 135.773 97.5938 136.449 97.5938 137.364C97.5938 138.219 96.9176 139.034 95.7642 139.034H95.2074V139.114ZM105.435 140.088H100.981V141.182H105.435V140.088ZM110.582 148.023C112.412 148.023 113.883 147.188 113.883 145.219V137.364H112.75V138.577H112.63C112.372 138.179 111.895 137.264 110.403 137.264C108.474 137.264 107.142 138.795 107.142 141.142C107.142 143.528 108.534 144.881 110.383 144.881C111.875 144.881 112.352 144.006 112.61 143.588H112.71V145.139C112.71 146.412 111.815 146.989 110.582 146.989C109.195 146.989 108.708 146.258 108.395 145.835L107.46 146.491C107.937 147.292 108.877 148.023 110.582 148.023ZM110.542 143.827C109.071 143.827 108.315 142.713 108.315 141.122C108.315 139.571 109.051 138.318 110.542 138.318C111.974 138.318 112.73 139.472 112.73 141.122C112.73 142.812 111.954 143.827 110.542 143.827ZM117.204 134.818H116.031V145H117.204V134.818ZM124.166 141.878C124.166 143.31 123.072 143.966 122.197 143.966C121.222 143.966 120.526 143.25 120.526 142.136V137.364H119.353V142.216C119.353 144.165 120.387 145.099 121.819 145.099C122.972 145.099 123.728 144.483 124.086 143.707H124.166V145H125.339V137.364H124.166V141.878ZM130.59 145.159C132.281 145.159 133.394 144.125 133.593 142.773H132.42C132.201 143.608 131.505 144.105 130.59 144.105C129.198 144.105 128.303 142.952 128.303 141.182C128.303 139.452 129.218 138.318 130.59 138.318C131.624 138.318 132.241 138.955 132.42 139.651H133.593C133.394 138.219 132.181 137.264 130.57 137.264C128.502 137.264 127.13 138.895 127.13 141.222C127.13 143.509 128.442 145.159 130.59 145.159ZM137.555 145.179C138.888 145.179 139.584 144.463 139.822 143.966H139.882V145H141.055V139.969C141.055 137.543 139.206 137.264 138.232 137.264C137.078 137.264 135.766 137.662 135.169 139.054L136.283 139.452C136.541 138.895 137.153 138.298 138.271 138.298C139.35 138.298 139.882 138.87 139.882 139.849V139.889C139.882 140.456 139.305 140.406 137.913 140.585C136.496 140.769 134.95 141.082 134.95 142.832C134.95 144.324 136.104 145.179 137.555 145.179ZM137.734 144.125C136.8 144.125 136.124 143.707 136.124 142.892C136.124 141.997 136.939 141.719 137.854 141.599C138.351 141.54 139.683 141.401 139.882 141.162V142.236C139.882 143.19 139.126 144.125 137.734 144.125ZM144.37 140.406C144.37 139.074 145.195 138.318 146.319 138.318C147.408 138.318 148.069 139.029 148.069 140.227V145H149.242V140.148C149.242 138.199 148.203 137.264 146.657 137.264C145.504 137.264 144.788 137.781 144.43 138.557H144.33V137.364H143.197V145H144.37V140.406Z" fill="#202124"/>
<path d="M201.415 273H202.648V269.281H204.875C207.246 269.281 208.315 267.839 208.315 266.04C208.315 264.24 207.246 262.818 204.855 262.818H201.415V273ZM202.648 268.188V263.912H204.815C206.471 263.912 207.102 264.817 207.102 266.04C207.102 267.263 206.471 268.188 204.835 268.188H202.648ZM210.142 273H211.316V268.168C211.316 267.134 212.131 266.378 213.244 266.378C213.558 266.378 213.881 266.438 213.96 266.457V265.264C213.826 265.254 213.518 265.244 213.344 265.244C212.429 265.244 211.634 265.761 211.355 266.517H211.276V265.364H210.142V273ZM215.351 273H216.525V265.364H215.351V273ZM215.948 264.091C216.405 264.091 216.783 263.733 216.783 263.295C216.783 262.858 216.405 262.5 215.948 262.5C215.49 262.5 215.113 262.858 215.113 263.295C215.113 263.733 215.49 264.091 215.948 264.091ZM218.673 273H219.847V268.227C219.847 267.109 220.662 266.318 221.577 266.318C222.467 266.318 223.088 266.9 223.088 267.77V273H224.281V268.028C224.281 267.044 224.898 266.318 225.972 266.318C226.807 266.318 227.523 266.761 227.523 267.889V273H228.696V267.889C228.696 266.094 227.732 265.264 226.369 265.264C225.276 265.264 224.475 265.766 224.083 266.557H224.003C223.625 265.741 222.959 265.264 221.955 265.264C220.96 265.264 220.225 265.741 219.906 266.557H219.807V265.364H218.673V273ZM233.089 273.179C234.421 273.179 235.117 272.463 235.356 271.966H235.415V273H236.589V267.969C236.589 265.543 234.739 265.264 233.765 265.264C232.611 265.264 231.299 265.662 230.702 267.054L231.816 267.452C232.074 266.895 232.686 266.298 233.805 266.298C234.883 266.298 235.415 266.87 235.415 267.849V267.889C235.415 268.456 234.839 268.406 233.447 268.585C232.03 268.769 230.483 269.082 230.483 270.832C230.483 272.324 231.637 273.179 233.089 273.179ZM233.268 272.125C232.333 272.125 231.657 271.707 231.657 270.892C231.657 269.997 232.472 269.719 233.387 269.599C233.884 269.54 235.216 269.401 235.415 269.162V270.236C235.415 271.19 234.66 272.125 233.268 272.125ZM238.73 273H239.903V268.168C239.903 267.134 240.719 266.378 241.832 266.378C242.146 266.378 242.469 266.438 242.548 266.457V265.264C242.414 265.254 242.106 265.244 241.932 265.244C241.017 265.244 240.222 265.761 239.943 266.517H239.864V265.364H238.73V273ZM244.927 275.864C245.986 275.864 246.732 275.302 247.174 274.114L250.426 265.384L249.143 265.364L247.035 271.449H246.956L244.848 265.364H243.575L246.399 273.04L246.18 273.636C245.752 274.8 245.225 274.909 244.37 274.69L244.072 275.724C244.191 275.784 244.529 275.864 244.927 275.864ZM255.916 273H257.089V268.168C257.089 267.134 257.904 266.378 259.018 266.378C259.331 266.378 259.654 266.438 259.734 266.457V265.264C259.6 265.254 259.291 265.244 259.117 265.244C258.203 265.244 257.407 265.761 257.129 266.517H257.049V265.364H255.916V273ZM264.094 273.159C265.645 273.159 266.779 272.384 267.137 271.23L266.003 270.912C265.705 271.707 265.014 272.105 264.094 272.105C262.717 272.105 261.767 271.215 261.713 269.58H267.256V269.082C267.256 266.239 265.566 265.264 263.975 265.264C261.906 265.264 260.534 266.895 260.534 269.241C260.534 271.588 261.887 273.159 264.094 273.159ZM261.713 268.565C261.792 267.377 262.632 266.318 263.975 266.318C265.247 266.318 266.063 267.273 266.063 268.565H261.713ZM274.45 267.074C274.082 265.99 273.257 265.264 271.745 265.264C270.134 265.264 268.941 266.179 268.941 267.472C268.941 268.526 269.568 269.232 270.97 269.56L272.242 269.858C273.013 270.037 273.376 270.405 273.376 270.932C273.376 271.588 272.68 272.125 271.586 272.125C270.627 272.125 270.025 271.712 269.816 270.892L268.703 271.17C268.976 272.468 270.045 273.159 271.606 273.159C273.381 273.159 274.589 272.19 274.589 270.872C274.589 269.808 273.923 269.137 272.561 268.804L271.427 268.526C270.522 268.302 270.115 267.999 270.115 267.412C270.115 266.756 270.811 266.278 271.745 266.278C272.769 266.278 273.192 266.845 273.396 267.372L274.45 267.074ZM276.355 275.864H277.528V271.827H277.628C277.886 272.244 278.384 273.159 279.855 273.159C281.764 273.159 283.097 271.628 283.097 269.202C283.097 266.795 281.764 265.264 279.835 265.264C278.344 265.264 277.886 266.179 277.628 266.577H277.489V265.364H276.355V275.864ZM277.509 269.182C277.509 267.472 278.264 266.318 279.696 266.318C281.188 266.318 281.923 267.571 281.923 269.182C281.923 270.812 281.168 272.105 279.696 272.105C278.284 272.105 277.509 270.912 277.509 269.182ZM287.989 273.159C290.057 273.159 291.449 271.588 291.449 269.222C291.449 266.835 290.057 265.264 287.989 265.264C285.92 265.264 284.528 266.835 284.528 269.222C284.528 271.588 285.92 273.159 287.989 273.159ZM287.989 272.105C286.418 272.105 285.702 270.753 285.702 269.222C285.702 267.69 286.418 266.318 287.989 266.318C289.56 266.318 290.276 267.69 290.276 269.222C290.276 270.753 289.56 272.105 287.989 272.105ZM294.413 268.406C294.413 267.074 295.238 266.318 296.362 266.318C297.451 266.318 298.112 267.029 298.112 268.227V273H299.285V268.148C299.285 266.199 298.246 265.264 296.7 265.264C295.547 265.264 294.831 265.781 294.473 266.557H294.373V265.364H293.24V273H294.413V268.406ZM306.838 267.074C306.471 265.99 305.645 265.264 304.134 265.264C302.523 265.264 301.33 266.179 301.33 267.472C301.33 268.526 301.956 269.232 303.358 269.56L304.631 269.858C305.402 270.037 305.765 270.405 305.765 270.932C305.765 271.588 305.069 272.125 303.975 272.125C303.015 272.125 302.414 271.712 302.205 270.892L301.091 271.17C301.365 272.468 302.434 273.159 303.995 273.159C305.77 273.159 306.978 272.19 306.978 270.872C306.978 269.808 306.311 269.137 304.949 268.804L303.816 268.526C302.911 268.302 302.503 267.999 302.503 267.412C302.503 266.756 303.199 266.278 304.134 266.278C305.158 266.278 305.581 266.845 305.784 267.372L306.838 267.074ZM311.945 273.159C313.497 273.159 314.63 272.384 314.988 271.23L313.855 270.912C313.556 271.707 312.865 272.105 311.945 272.105C310.568 272.105 309.619 271.215 309.564 269.58H315.107V269.082C315.107 266.239 313.417 265.264 311.826 265.264C309.758 265.264 308.386 266.895 308.386 269.241C308.386 271.588 309.738 273.159 311.945 273.159ZM309.564 268.565C309.644 267.377 310.484 266.318 311.826 266.318C313.099 266.318 313.914 267.273 313.914 268.565H309.564Z" fill="#202124"/>
<path d="M466.867 127.912H470.068V137H471.301V127.912H474.503V126.818H466.867V127.912ZM475.454 137H476.627V132.168C476.627 131.134 477.442 130.378 478.556 130.378C478.869 130.378 479.192 130.438 479.272 130.457V129.264C479.138 129.254 478.829 129.244 478.655 129.244C477.741 129.244 476.945 129.761 476.667 130.517H476.587V129.364H475.454V137ZM482.91 137.179C484.242 137.179 484.938 136.463 485.177 135.966H485.237V137H486.41V131.969C486.41 129.543 484.56 129.264 483.586 129.264C482.433 129.264 481.12 129.662 480.524 131.054L481.637 131.452C481.896 130.895 482.507 130.298 483.626 130.298C484.705 130.298 485.237 130.87 485.237 131.849V131.889C485.237 132.456 484.66 132.406 483.268 132.585C481.851 132.769 480.305 133.082 480.305 134.832C480.305 136.324 481.458 137.179 482.91 137.179ZM483.089 136.125C482.154 136.125 481.478 135.707 481.478 134.892C481.478 133.997 482.293 133.719 483.208 133.599C483.705 133.54 485.038 133.401 485.237 133.162V134.236C485.237 135.19 484.481 136.125 483.089 136.125ZM488.551 137H489.725V129.364H488.551V137ZM489.148 128.091C489.605 128.091 489.983 127.733 489.983 127.295C489.983 126.858 489.605 126.5 489.148 126.5C488.691 126.5 488.313 126.858 488.313 127.295C488.313 127.733 488.691 128.091 489.148 128.091ZM493.047 132.406C493.047 131.074 493.872 130.318 494.996 130.318C496.085 130.318 496.746 131.029 496.746 132.227V137H497.919V132.148C497.919 130.199 496.88 129.264 495.334 129.264C494.18 129.264 493.465 129.781 493.107 130.557H493.007V129.364H491.874V137H493.047V132.406ZM503.265 137.159C504.816 137.159 505.949 136.384 506.307 135.23L505.174 134.912C504.876 135.707 504.185 136.105 503.265 136.105C501.888 136.105 500.938 135.215 500.883 133.58H506.427V133.082C506.427 130.239 504.736 129.264 503.146 129.264C501.077 129.264 499.705 130.895 499.705 133.241C499.705 135.588 501.057 137.159 503.265 137.159ZM500.883 132.565C500.963 131.377 501.803 130.318 503.146 130.318C504.418 130.318 505.234 131.273 505.234 132.565H500.883ZM511.095 137.159C512.567 137.159 513.064 136.244 513.322 135.827H513.462V137H514.595V126.818H513.422V130.577H513.322C513.064 130.179 512.606 129.264 511.115 129.264C509.186 129.264 507.854 130.795 507.854 133.202C507.854 135.628 509.186 137.159 511.095 137.159ZM511.254 136.105C509.783 136.105 509.027 134.812 509.027 133.182C509.027 131.571 509.763 130.318 511.254 130.318C512.686 130.318 513.442 131.472 513.442 133.182C513.442 134.912 512.666 136.105 511.254 136.105ZM516.907 137H518.08V132.168C518.08 131.134 518.896 130.378 520.009 130.378C520.322 130.378 520.646 130.438 520.725 130.457V129.264C520.591 129.254 520.283 129.244 520.109 129.244C519.194 129.244 518.398 129.761 518.12 130.517H518.04V129.364H516.907V137ZM525.085 137.159C526.636 137.159 527.77 136.384 528.128 135.23L526.994 134.912C526.696 135.707 526.005 136.105 525.085 136.105C523.708 136.105 522.758 135.215 522.704 133.58H528.247V133.082C528.247 130.239 526.557 129.264 524.966 129.264C522.898 129.264 521.525 130.895 521.525 133.241C521.525 135.588 522.878 137.159 525.085 137.159ZM522.704 132.565C522.783 131.377 523.623 130.318 524.966 130.318C526.239 130.318 527.054 131.273 527.054 132.565H522.704ZM535.441 131.074C535.073 129.99 534.248 129.264 532.736 129.264C531.126 129.264 529.932 130.179 529.932 131.472C529.932 132.526 530.559 133.232 531.961 133.56L533.234 133.858C534.004 134.037 534.367 134.405 534.367 134.932C534.367 135.588 533.671 136.125 532.577 136.125C531.618 136.125 531.016 135.712 530.807 134.892L529.694 135.17C529.967 136.468 531.036 137.159 532.597 137.159C534.372 137.159 535.58 136.19 535.58 134.872C535.58 133.808 534.914 133.137 533.552 132.804L532.418 132.526C531.513 132.302 531.106 131.999 531.106 131.412C531.106 130.756 531.802 130.278 532.736 130.278C533.761 130.278 534.183 130.845 534.387 131.372L535.441 131.074ZM537.346 139.864H538.52V135.827H538.619C538.878 136.244 539.375 137.159 540.846 137.159C542.755 137.159 544.088 135.628 544.088 133.202C544.088 130.795 542.755 129.264 540.826 129.264C539.335 129.264 538.878 130.179 538.619 130.577H538.48V129.364H537.346V139.864ZM538.5 133.182C538.5 131.472 539.255 130.318 540.687 130.318C542.179 130.318 542.915 131.571 542.915 133.182C542.915 134.812 542.159 136.105 540.687 136.105C539.275 136.105 538.5 134.912 538.5 133.182ZM548.98 137.159C551.048 137.159 552.44 135.588 552.44 133.222C552.44 130.835 551.048 129.264 548.98 129.264C546.912 129.264 545.52 130.835 545.52 133.222C545.52 135.588 546.912 137.159 548.98 137.159ZM548.98 136.105C547.409 136.105 546.693 134.753 546.693 133.222C546.693 131.69 547.409 130.318 548.98 130.318C550.551 130.318 551.267 131.69 551.267 133.222C551.267 134.753 550.551 136.105 548.98 136.105ZM555.404 132.406C555.404 131.074 556.23 130.318 557.353 130.318C558.442 130.318 559.103 131.029 559.103 132.227V137H560.277V132.148C560.277 130.199 559.237 129.264 557.691 129.264C556.538 129.264 555.822 129.781 555.464 130.557H555.365V129.364H554.231V137H555.404V132.406ZM567.83 131.074C567.462 129.99 566.636 129.264 565.125 129.264C563.514 129.264 562.321 130.179 562.321 131.472C562.321 132.526 562.948 133.232 564.35 133.56L565.622 133.858C566.393 134.037 566.756 134.405 566.756 134.932C566.756 135.588 566.06 136.125 564.966 136.125C564.006 136.125 563.405 135.712 563.196 134.892L562.082 135.17C562.356 136.468 563.425 137.159 564.986 137.159C566.761 137.159 567.969 136.19 567.969 134.872C567.969 133.808 567.303 133.137 565.94 132.804L564.807 132.526C563.902 132.302 563.494 131.999 563.494 131.412C563.494 130.756 564.19 130.278 565.125 130.278C566.149 130.278 566.572 130.845 566.776 131.372L567.83 131.074ZM572.937 137.159C574.488 137.159 575.621 136.384 575.979 135.23L574.846 134.912C574.547 135.707 573.856 136.105 572.937 136.105C571.56 136.105 570.61 135.215 570.555 133.58H576.099V133.082C576.099 130.239 574.408 129.264 572.817 129.264C570.749 129.264 569.377 130.895 569.377 133.241C569.377 135.588 570.729 137.159 572.937 137.159ZM570.555 132.565C570.635 131.377 571.475 130.318 572.817 130.318C574.09 130.318 574.905 131.273 574.905 132.565H570.555Z" fill="#202124"/>
<path d="M260.116 77.3636H261.309C261.254 75.8274 259.837 74.679 257.868 74.679C255.92 74.679 254.388 75.8125 254.388 77.5227C254.388 78.8949 255.383 79.7102 256.974 80.1676L258.226 80.5256C259.3 80.8239 260.255 81.2017 260.255 82.2159C260.255 83.3295 259.181 84.0653 257.769 84.0653C256.556 84.0653 255.482 83.5284 255.383 82.375H254.11C254.229 84.0455 255.581 85.179 257.769 85.179C260.116 85.179 261.448 83.8864 261.448 82.2358C261.448 80.3267 259.638 79.7102 258.584 79.4318L257.55 79.1534C256.795 78.9545 255.581 78.5568 255.581 77.4631C255.581 76.4886 256.476 75.7727 257.829 75.7727C259.062 75.7727 259.996 76.3594 260.116 77.3636ZM266.518 85.1591C268.069 85.1591 269.202 84.3835 269.56 83.2301L268.427 82.9119C268.129 83.7074 267.438 84.1051 266.518 84.1051C265.141 84.1051 264.191 83.2152 264.136 81.5795H269.68V81.0824C269.68 78.2386 267.989 77.2642 266.398 77.2642C264.33 77.2642 262.958 78.8949 262.958 81.2415C262.958 83.5881 264.31 85.1591 266.518 85.1591ZM264.136 80.5653C264.216 79.3771 265.056 78.3182 266.398 78.3182C267.671 78.3182 268.487 79.2727 268.487 80.5653H264.136ZM274.567 85.1591C276.257 85.1591 277.371 84.125 277.57 82.7727H276.396C276.178 83.608 275.482 84.1051 274.567 84.1051C273.175 84.1051 272.28 82.9517 272.28 81.1818C272.28 79.4517 273.195 78.3182 274.567 78.3182C275.601 78.3182 276.217 78.9545 276.396 79.6506H277.57C277.371 78.2188 276.158 77.2642 274.547 77.2642C272.479 77.2642 271.107 78.8949 271.107 81.2216C271.107 83.5085 272.419 85.1591 274.567 85.1591ZM282.387 85.1591C284.455 85.1591 285.847 83.5881 285.847 81.2216C285.847 78.8352 284.455 77.2642 282.387 77.2642C280.319 77.2642 278.927 78.8352 278.927 81.2216C278.927 83.5881 280.319 85.1591 282.387 85.1591ZM282.387 84.1051C280.816 84.1051 280.1 82.7528 280.1 81.2216C280.1 79.6903 280.816 78.3182 282.387 78.3182C283.958 78.3182 284.674 79.6903 284.674 81.2216C284.674 82.7528 283.958 84.1051 282.387 84.1051ZM288.812 80.4062C288.812 79.0739 289.637 78.3182 290.76 78.3182C291.849 78.3182 292.51 79.0291 292.51 80.2273V85H293.684V80.1477C293.684 78.1989 292.645 77.2642 291.099 77.2642C289.945 77.2642 289.229 77.7812 288.871 78.5568H288.772V77.3636H287.638V85H288.812V80.4062ZM298.711 85.1591C300.183 85.1591 300.68 84.2443 300.939 83.8267H301.078V85H302.211V74.8182H301.038V78.5767H300.939C300.68 78.179 300.223 77.2642 298.731 77.2642C296.802 77.2642 295.47 78.7955 295.47 81.2017C295.47 83.6278 296.802 85.1591 298.711 85.1591ZM298.87 84.1051C297.399 84.1051 296.643 82.8125 296.643 81.1818C296.643 79.571 297.379 78.3182 298.87 78.3182C300.302 78.3182 301.058 79.4716 301.058 81.1818C301.058 82.9119 300.282 84.1051 298.87 84.1051ZM306.77 85.179C308.103 85.179 308.799 84.4631 309.037 83.9659H309.097V85H310.27V79.9688C310.27 77.5426 308.421 77.2642 307.446 77.2642C306.293 77.2642 304.98 77.6619 304.384 79.054L305.498 79.4517C305.756 78.8949 306.368 78.2983 307.486 78.2983C308.565 78.2983 309.097 78.87 309.097 79.8494V79.8892C309.097 80.456 308.52 80.4062 307.128 80.5852C305.711 80.7692 304.165 81.0824 304.165 82.8324C304.165 84.3239 305.319 85.179 306.77 85.179ZM306.949 84.125C306.015 84.125 305.338 83.7074 305.338 82.892C305.338 81.9972 306.154 81.7188 307.069 81.5994C307.566 81.5398 308.898 81.4006 309.097 81.1619V82.2358C309.097 83.1903 308.341 84.125 306.949 84.125ZM312.412 85H313.585V80.1676C313.585 79.1335 314.4 78.3778 315.514 78.3778C315.827 78.3778 316.15 78.4375 316.23 78.4574V77.2642C316.096 77.2543 315.787 77.2443 315.613 77.2443C314.699 77.2443 313.903 77.7614 313.625 78.517H313.545V77.3636H312.412V85ZM318.609 87.8636C319.668 87.8636 320.414 87.3018 320.856 86.1136L324.107 77.3835L322.825 77.3636L320.717 83.4489H320.637L318.529 77.3636H317.257L320.08 85.0398L319.862 85.6364C319.434 86.7997 318.907 86.9091 318.052 86.6903L317.754 87.7244C317.873 87.7841 318.211 87.8636 318.609 87.8636ZM329.597 85H330.771V77.3636H329.597V85ZM330.194 76.0909C330.651 76.0909 331.029 75.733 331.029 75.2955C331.029 74.858 330.651 74.5 330.194 74.5C329.737 74.5 329.359 74.858 329.359 75.2955C329.359 75.733 329.737 76.0909 330.194 76.0909ZM334.093 80.4062C334.093 79.0739 334.918 78.3182 336.042 78.3182C337.131 78.3182 337.792 79.0291 337.792 80.2273V85H338.965V80.1477C338.965 78.1989 337.926 77.2642 336.38 77.2642C335.226 77.2642 334.51 77.7812 334.153 78.5568H334.053V77.3636H332.92V85H334.093V80.4062ZM344.51 77.3636H342.799V76.5881C342.799 75.8324 343.118 75.4347 343.893 75.4347C344.231 75.4347 344.43 75.5142 344.549 75.554L344.887 74.5398C344.708 74.4602 344.35 74.3409 343.774 74.3409C342.68 74.3409 341.626 74.9972 341.626 76.3097V77.3636H340.393V78.358H341.626V85H342.799V78.358H344.51V77.3636ZM349.041 85.1591C350.592 85.1591 351.726 84.3835 352.084 83.2301L350.95 82.9119C350.652 83.7074 349.961 84.1051 349.041 84.1051C347.664 84.1051 346.714 83.2152 346.66 81.5795H352.203V81.0824C352.203 78.2386 350.513 77.2642 348.922 77.2642C346.854 77.2642 345.482 78.8949 345.482 81.2415C345.482 83.5881 346.834 85.1591 349.041 85.1591ZM346.66 80.5653C346.739 79.3771 347.58 78.3182 348.922 78.3182C350.195 78.3182 351.01 79.2727 351.01 80.5653H346.66ZM357.09 85.1591C358.781 85.1591 359.894 84.125 360.093 82.7727H358.92C358.701 83.608 358.005 84.1051 357.09 84.1051C355.698 84.1051 354.803 82.9517 354.803 81.1818C354.803 79.4517 355.718 78.3182 357.09 78.3182C358.124 78.3182 358.741 78.9545 358.92 79.6506H360.093C359.894 78.2188 358.681 77.2642 357.07 77.2642C355.002 77.2642 353.63 78.8949 353.63 81.2216C353.63 83.5085 354.942 85.1591 357.09 85.1591ZM365.129 77.3636H363.499V75.5341H362.325V77.3636H361.172V78.358H362.325V83.1307C362.325 84.4631 363.399 85.0994 364.393 85.0994C364.831 85.0994 365.109 85.0199 365.268 84.9602L365.03 83.9062C364.93 83.9261 364.771 83.9659 364.513 83.9659C363.996 83.9659 363.499 83.8068 363.499 82.8125V78.358H365.129V77.3636ZM366.894 85H368.067V77.3636H366.894V85ZM367.491 76.0909C367.948 76.0909 368.326 75.733 368.326 75.2955C368.326 74.858 367.948 74.5 367.491 74.5C367.033 74.5 366.656 74.858 366.656 75.2955C366.656 75.733 367.033 76.0909 367.491 76.0909ZM373.319 85.1591C375.387 85.1591 376.779 83.5881 376.779 81.2216C376.779 78.8352 375.387 77.2642 373.319 77.2642C371.251 77.2642 369.858 78.8352 369.858 81.2216C369.858 83.5881 371.251 85.1591 373.319 85.1591ZM373.319 84.1051C371.748 84.1051 371.032 82.7528 371.032 81.2216C371.032 79.6903 371.748 78.3182 373.319 78.3182C374.89 78.3182 375.606 79.6903 375.606 81.2216C375.606 82.7528 374.89 84.1051 373.319 84.1051ZM379.743 80.4062C379.743 79.0739 380.569 78.3182 381.692 78.3182C382.781 78.3182 383.442 79.0291 383.442 80.2273V85H384.615V80.1477C384.615 78.1989 383.576 77.2642 382.03 77.2642C380.877 77.2642 380.161 77.7812 379.803 78.5568H379.703V77.3636H378.57V85H379.743V80.4062Z" fill="#202124"/>
<path d="M328.5 298.5L331.387 293.5H325.613L328.5 298.5ZM328 95.5V294H329V95.5H328Z" fill="black"/>
<path d="M117 299L119.887 294L114.113 294L117 299ZM116.5 162L116.5 294.5L117.5 294.5L117.5 162L116.5 162Z" fill="black"/>
<path d="M442 135.5H461.5L431 180" stroke="black" stroke-dasharray="2 2"/>
<path d="M178.5 267H193.5" stroke="black" stroke-dasharray="2 2"/>
</svg>
