<svg xmlns="http://www.w3.org/2000/svg" viewBox="0 0 603 383" width="603" height="383">
	<style>
		tspan { white-space:pre }
		.shp0 { fill: #202124 } 
		.shp1 { fill: none;stroke: #202124 } 
		.shp2 { opacity: 0.102;fill: none;stroke: #202124 } 
		.shp3 { opacity: 0.6;fill: #b49ad6 } 
		.shp4 { opacity: 0.6;fill: #baddee } 
		.shp5 { fill: #000000 } 
		.shp6 { fill: #7180ce } 
		.shp7 { fill: #69c9f3 } 
	</style>
	<path id="Layer" fill-rule="evenodd" class="shp0" d="M1.82 220.72L1.82 217.16C1.82 215.03 3.03 214.04 4.52 214.04C5.84 214.04 6.41 214.81 6.65 215.69L6.75 215.69C6.81 214.75 7.68 213.64 9.3 213.64C10.83 213.64 12 214.63 12 217.04L12 220.72L1.82 220.72ZM10.91 217.04C10.91 215.43 10.19 214.81 9.3 214.81C8.26 214.81 7.37 215.65 7.37 216.98L7.37 219.49L10.91 219.49L10.91 217.04ZM6.29 217.2C6.29 216.09 5.6 215.21 4.52 215.21C3.63 215.21 2.91 215.81 2.91 217.16L2.91 219.49L6.29 219.49L6.29 217.2ZM12 212.49L1.82 208.75L1.82 207.48L12 203.74L12 205.03L9.12 206.06L9.12 210.17L12 211.2L12 212.49ZM8.02 206.44L3.43 208.07L3.43 208.15L8.02 209.78L8.02 206.44ZM1.82 202.15L1.82 198.71C1.82 196.32 3.24 195.25 5.04 195.25C6.84 195.25 8.28 196.32 8.28 198.69L8.28 200.92L12 200.92L12 202.15L1.82 202.15ZM7.19 198.73C7.19 197.1 6.26 196.47 5.04 196.47C3.82 196.47 2.91 197.1 2.91 198.75L2.91 200.92L7.19 200.92L7.19 198.73ZM1.34 187.18L1.34 186.15C2.65 187.1 5.34 187.86 7.7 187.86C10.07 187.86 12.76 187.1 14.07 186.15L14.07 187.18C12.3 188.4 10.21 189.07 7.7 189.07C5.2 189.07 3.11 188.4 1.34 187.18ZM4.36 184.42L4.36 183.24L8.88 183.24C10.12 183.24 10.97 182.41 10.97 181.13C10.97 179.86 10.11 179.03 8.88 179.03L4.36 179.03L4.36 177.85L12 177.85L12 179.03L10.87 179.03L10.87 179.09C11.67 179.5 12.1 180.28 12.1 181.13C12.1 181.99 11.67 182.77 10.87 183.18L10.87 183.24L14.86 183.24L14.86 184.42L4.36 184.42ZM4.36 175.71L4.36 174.57L5.56 174.57L5.56 174.47C4.74 174.16 4.26 173.42 4.26 172.43C4.26 171.42 4.74 170.76 5.56 170.38L5.56 170.3C4.77 169.91 4.26 169.1 4.26 168.01C4.26 166.65 5.09 165.69 6.89 165.69L12 165.69L12 166.86L6.89 166.86C5.76 166.86 5.32 167.57 5.32 168.41C5.32 169.48 6.04 170.1 7.03 170.1L12 170.1L12 171.29L6.77 171.29C5.9 171.29 5.32 171.91 5.32 172.8C5.32 173.72 6.11 174.53 7.23 174.53L12 174.53L12 175.71L4.36 175.71ZM8.22 163.9C5.84 163.9 4.26 162.5 4.26 160.44C4.26 158.37 5.84 156.98 8.22 156.98C10.59 156.98 12.16 158.37 12.16 160.44C12.16 162.5 10.59 163.9 8.22 163.9ZM8.22 158.15C6.69 158.15 5.32 158.87 5.32 160.44C5.32 162.01 6.69 162.72 8.22 162.72C9.75 162.72 11.11 162.01 11.11 160.44C11.11 158.87 9.75 158.15 8.22 158.15ZM12 154.01L12 155.19L1.82 155.19L1.82 154.01L12 154.01ZM13.53 151.54L13.53 152.62L1.34 149.34L1.34 148.26L13.53 151.54ZM1.82 146.71L1.82 145.48L10.91 145.48L10.91 140.75L12 140.75L12 146.71L1.82 146.71ZM13.27 138.38L13.27 139.42C11.96 138.46 9.28 137.71 6.91 137.71C4.54 137.71 1.86 138.46 0.55 139.42L0.55 138.38C2.32 137.17 4.4 136.49 6.91 136.49C9.41 136.49 11.5 137.17 13.27 138.38Z" />
	<path id="Layer" class="shp1" d="M83 358.5L83 8L77 8M83 358.5L83 366.5M83 358.5L603 358.5M83 358.5L74 358.5M77 308L83 308M77 258L83 258M77 208L83 208M77 158L83 158M77 108L83 108M77 58L83 58" />
	<path id="Layer" class="shp2" d="M603 9L84 9M84 309L603 309M84 259L603 259M84 209L603 209M84 159L603 159M84 109L603 109M84 59L603 59" />
	<path id="Layer" fill-rule="evenodd" class="shp0" d="M177.46 369.82L181.02 369.82C183.15 369.82 184.14 371.03 184.14 372.52C184.14 373.83 183.37 374.41 182.49 374.65L182.49 374.75C183.43 374.81 184.54 375.69 184.54 377.3C184.54 378.83 183.55 380 181.14 380L177.46 380L177.46 369.82ZM181.14 378.91C182.75 378.91 183.37 378.19 183.37 377.3C183.37 376.26 182.53 375.37 181.2 375.37L178.69 375.37L178.69 378.91L181.14 378.91ZM180.98 374.29C182.09 374.29 182.97 373.6 182.97 372.52C182.97 371.63 182.37 370.91 181.02 370.91L178.69 370.91L178.69 374.29L180.98 374.29ZM187.58 380L186.41 380L186.41 369.82L187.58 369.82L187.58 380ZM194.54 372.36L195.72 372.36L195.72 380L194.54 380L194.54 378.71L194.46 378.71C194.1 379.48 193.35 380.1 192.2 380.1C190.76 380.1 189.73 379.17 189.73 377.22L189.73 372.36L190.9 372.36L190.9 377.14C190.9 378.25 191.6 378.97 192.57 378.97C193.45 378.97 194.54 378.31 194.54 376.88L194.54 372.36ZM197.51 376.24C197.51 373.89 198.88 372.26 200.95 372.26C202.54 372.26 204.23 373.24 204.23 376.08L204.23 376.58L198.69 376.58C198.74 378.21 199.69 379.11 201.07 379.11C201.99 379.11 202.68 378.71 202.98 377.91L204.11 378.23C203.75 379.38 202.62 380.16 201.07 380.16C198.86 380.16 197.51 378.59 197.51 376.24ZM203.03 375.56C203.03 374.27 202.22 373.32 200.95 373.32C199.6 373.32 198.76 374.38 198.69 375.56L203.03 375.56ZM206.17 369.82L207.35 369.82L207.35 373.58L207.44 373.58C207.7 373.18 208.16 372.26 209.65 372.26C211.58 372.26 212.91 373.8 212.91 376.2C212.91 378.63 211.58 380.16 209.67 380.16C208.2 380.16 207.7 379.24 207.44 378.83L207.31 378.83L207.31 380L206.17 380L206.17 369.82ZM209.51 379.11C210.99 379.11 211.74 377.81 211.74 376.18C211.74 374.57 211 373.32 209.51 373.32C208.08 373.32 207.33 374.47 207.33 376.18C207.33 377.91 208.1 379.11 209.51 379.11ZM214.35 376.24C214.35 373.89 215.72 372.26 217.79 372.26C219.38 372.26 221.07 373.24 221.07 376.08L221.07 376.58L215.53 376.58C215.58 378.21 216.53 379.11 217.91 379.11C218.83 379.11 219.52 378.71 219.82 377.91L220.95 378.23C220.59 379.38 219.46 380.16 217.91 380.16C215.7 380.16 214.35 378.59 214.35 376.24ZM219.88 375.56C219.88 374.27 219.06 373.32 217.79 373.32C216.45 373.32 215.61 374.38 215.53 375.56L219.88 375.56ZM222.86 372.36L223.99 372.36L223.99 373.52L224.07 373.52C224.35 372.76 225.14 372.24 226.06 372.24C226.23 372.24 226.54 372.25 226.68 372.26L226.68 373.46C226.6 373.44 226.27 373.38 225.96 373.38C224.85 373.38 224.03 374.13 224.03 375.17L224.03 380L222.86 380L222.86 372.36ZM228.07 372.36L229.2 372.36L229.2 373.52L229.28 373.52C229.56 372.76 230.35 372.24 231.27 372.24C231.44 372.24 231.75 372.25 231.88 372.26L231.88 373.46C231.81 373.44 231.48 373.38 231.17 373.38C230.06 373.38 229.24 374.13 229.24 375.17L229.24 380L228.07 380L228.07 372.36ZM233.41 382.72L233.71 381.69C234.56 381.91 235.09 381.8 235.52 380.64L235.74 380.04L232.91 372.36L234.18 372.36L236.29 378.45L236.37 378.45L238.48 372.36L239.76 372.38L236.51 381.11C236.07 382.3 235.32 382.86 234.26 382.86C233.87 382.86 233.53 382.78 233.41 382.72ZM244.89 376.24C244.89 373.89 246.27 372.26 248.33 372.26C249.93 372.26 251.62 373.24 251.62 376.08L251.62 376.58L246.07 376.58C246.13 378.21 247.08 379.11 248.45 379.11C249.37 379.11 250.06 378.71 250.36 377.91L251.5 378.23C251.14 379.38 250 380.16 248.45 380.16C246.25 380.16 244.89 378.59 244.89 376.24ZM250.42 375.56C250.42 374.27 249.61 373.32 248.33 373.32C246.99 373.32 246.15 374.38 246.07 375.56L250.42 375.56ZM255.9 375.49L257.73 372.36L259.08 372.36L256.62 376.18L259.08 380L257.73 380L255.9 377.04L254.07 380L252.72 380L255.14 376.18L252.72 372.36L254.07 372.36L255.9 375.49ZM264.08 373.36L262.45 373.36L262.45 377.81C262.45 378.81 262.94 378.97 263.46 378.97C263.72 378.97 263.88 378.93 263.98 378.91L264.22 379.96C264.06 380.02 263.78 380.1 263.34 380.1C262.35 380.1 261.27 379.46 261.27 378.13L261.27 373.36L260.12 373.36L260.12 372.36L261.27 372.36L261.27 370.53L262.45 370.53L262.45 372.36L264.08 372.36L264.08 373.36ZM265.84 372.36L266.98 372.36L266.98 373.52L267.06 373.52C267.33 372.76 268.13 372.24 269.04 372.24C269.22 372.24 269.52 372.25 269.66 372.26L269.66 373.46C269.58 373.44 269.26 373.38 268.94 373.38C267.83 373.38 267.01 374.13 267.01 375.17L267.01 380L265.84 380L265.84 372.36ZM270.69 377.83C270.69 376.08 272.24 375.77 273.66 375.58C275.05 375.41 275.62 375.46 275.62 374.89L275.62 374.85C275.62 373.87 275.09 373.3 274.01 373.3C272.89 373.3 272.28 373.89 272.02 374.45L270.91 374.05C271.51 372.66 272.82 372.26 273.97 372.26C274.95 372.26 276.8 372.54 276.8 374.97L276.8 380L275.62 380L275.62 378.97L275.56 378.97C275.33 379.46 274.63 380.18 273.3 380.18C271.85 380.18 270.69 379.32 270.69 377.83ZM275.62 377.24L275.62 376.16C275.43 376.4 274.09 376.54 273.6 376.6C272.68 376.72 271.87 377 271.87 377.89C271.87 378.71 272.54 379.13 273.48 379.13C274.87 379.13 275.62 378.19 275.62 377.24ZM278.58 376.22C278.58 373.89 279.95 372.26 282.02 372.26C283.63 372.26 284.85 373.22 285.04 374.65L283.87 374.65C283.69 373.95 283.07 373.32 282.04 373.32C280.67 373.32 279.75 374.45 279.75 376.18C279.75 377.95 280.65 379.11 282.04 379.11C282.96 379.11 283.65 378.61 283.87 377.77L285.04 377.77C284.85 379.13 283.73 380.16 282.04 380.16C279.89 380.16 278.58 378.51 278.58 376.22ZM290.08 373.36L288.45 373.36L288.45 377.81C288.45 378.81 288.95 378.97 289.46 378.97C289.72 378.97 289.88 378.93 289.98 378.91L290.22 379.96C290.06 380.02 289.78 380.1 289.35 380.1C288.35 380.1 287.28 379.46 287.28 378.13L287.28 373.36L286.12 373.36L286.12 372.36L287.28 372.36L287.28 370.53L288.45 370.53L288.45 372.36L290.08 372.36L290.08 373.36Z" />
	<path id="Layer" fill-rule="evenodd" class="shp0" d="M428.68 369.82L432.12 369.82C434.51 369.82 435.58 371.24 435.58 373.04C435.58 374.84 434.51 376.28 432.14 376.28L429.91 376.28L429.91 380L428.68 380L428.68 369.82ZM432.1 375.19C433.73 375.19 434.36 374.26 434.36 373.04C434.36 371.82 433.73 370.91 432.08 370.91L429.91 370.91L429.91 375.19L432.1 375.19ZM438.58 380L437.4 380L437.4 369.82L438.58 369.82L438.58 380ZM440.37 377.83C440.37 376.08 441.91 375.77 443.33 375.58C444.72 375.41 445.3 375.46 445.3 374.89L445.3 374.85C445.3 373.87 444.77 373.3 443.69 373.3C442.57 373.3 441.96 373.89 441.7 374.45L440.59 374.05C441.18 372.66 442.5 372.26 443.65 372.26C444.62 372.26 446.47 372.54 446.47 374.97L446.47 380L445.3 380L445.3 378.97L445.24 378.97C445 379.46 444.31 380.18 442.97 380.18C441.52 380.18 440.37 379.32 440.37 377.83ZM445.3 377.24L445.3 376.16C445.1 376.4 443.77 376.54 443.27 376.6C442.36 376.72 441.54 377 441.54 377.89C441.54 378.71 442.22 379.13 443.15 379.13C444.54 379.13 445.3 378.19 445.3 377.24ZM448.26 376.22C448.26 373.89 449.63 372.26 451.7 372.26C453.31 372.26 454.52 373.22 454.72 374.65L453.55 374.65C453.37 373.95 452.75 373.32 451.72 373.32C450.34 373.32 449.43 374.45 449.43 376.18C449.43 377.95 450.32 379.11 451.72 379.11C452.63 379.11 453.33 378.61 453.55 377.77L454.72 377.77C454.52 379.13 453.41 380.16 451.72 380.16C449.57 380.16 448.26 378.51 448.26 376.22ZM456.08 376.24C456.08 373.89 457.45 372.26 459.52 372.26C461.11 372.26 462.8 373.24 462.8 376.08L462.8 376.58L457.25 376.58C457.31 378.21 458.26 379.11 459.64 379.11C460.56 379.11 461.25 378.71 461.55 377.91L462.68 378.23C462.32 379.38 461.19 380.16 459.64 380.16C457.43 380.16 456.08 378.59 456.08 376.24ZM461.61 375.56C461.61 374.27 460.79 373.32 459.52 373.32C458.17 373.32 457.33 374.38 457.25 375.56L461.61 375.56ZM464.74 369.82L465.92 369.82L465.92 373.58L466.01 373.58C466.27 373.18 466.73 372.26 468.22 372.26C470.15 372.26 471.48 373.8 471.48 376.2C471.48 378.63 470.15 380.16 468.24 380.16C466.77 380.16 466.27 379.24 466.01 378.83L465.88 378.83L465.88 380L464.74 380L464.74 369.82ZM468.08 379.11C469.55 379.11 470.31 377.81 470.31 376.18C470.31 374.57 469.57 373.32 468.08 373.32C466.65 373.32 465.89 374.47 465.89 376.18C465.89 377.91 466.67 379.11 468.08 379.11ZM472.92 376.22C472.92 373.83 474.31 372.26 476.38 372.26C478.45 372.26 479.84 373.83 479.84 376.22C479.84 378.59 478.45 380.16 476.38 380.16C474.31 380.16 472.92 378.59 472.92 376.22ZM478.67 376.22C478.67 374.69 477.95 373.32 476.38 373.32C474.81 373.32 474.09 374.69 474.09 376.22C474.09 377.75 474.81 379.11 476.38 379.11C477.95 379.11 478.67 377.75 478.67 376.22Z" />
	<path id="Layer" fill-rule="evenodd" class="shp0" d="M40.57 6.82L41.64 6.82C41.71 7.66 42.51 8.18 43.52 8.18C44.64 8.18 45.45 7.56 45.45 6.63C45.45 5.67 44.71 4.99 43.38 4.99L42.68 4.99L42.68 4.06L43.38 4.06C44.42 4.06 45.14 3.46 45.14 2.54C45.14 1.66 44.52 1.07 43.55 1.07C42.65 1.07 41.82 1.59 41.78 2.45L40.76 2.45C40.81 1.08 42.06 0.15 43.57 0.15C45.19 0.15 46.16 1.25 46.16 2.49C46.16 3.47 45.61 4.2 44.73 4.47L44.73 4.53C45.83 4.72 46.48 5.52 46.48 6.63C46.48 8.06 45.23 9.12 43.54 9.12C41.84 9.12 40.63 8.19 40.57 6.82ZM51.62 6.82L52.64 6.82C52.72 7.61 53.44 8.18 54.33 8.18C55.4 8.18 56.19 7.36 56.19 6.24C56.19 5.1 55.37 4.25 54.26 4.24C53.72 4.24 53.11 4.43 52.74 4.69L51.76 4.57L52.28 0.27L56.82 0.27L56.82 1.21L53.17 1.21L52.86 3.78L52.92 3.78C53.27 3.5 53.84 3.29 54.43 3.29C56.03 3.29 57.21 4.53 57.21 6.22C57.21 7.89 55.99 9.12 54.33 9.12C52.83 9.12 51.68 8.15 51.62 6.82ZM58.72 4.64C58.72 1.81 59.84 0.15 61.75 0.15C63.66 0.15 64.78 1.81 64.78 4.64C64.78 7.49 63.68 9.12 61.75 9.12C59.82 9.12 58.72 7.49 58.72 4.64ZM63.76 4.64C63.76 2.37 63.01 1.07 61.75 1.07C60.49 1.07 59.74 2.37 59.74 4.64C59.74 6.91 60.48 8.18 61.75 8.18C63.02 8.18 63.76 6.91 63.76 4.64ZM66.22 4.64C66.22 1.81 67.34 0.15 69.25 0.15C71.16 0.15 72.28 1.81 72.28 4.64C72.28 7.49 71.18 9.12 69.25 9.12C67.32 9.12 66.22 7.49 66.22 4.64ZM71.26 4.64C71.26 2.37 70.51 1.07 69.25 1.07C67.99 1.07 67.24 2.37 67.24 4.64C67.24 6.91 67.98 8.18 69.25 8.18C70.52 8.18 71.26 6.91 71.26 4.64ZM40.37 56.82L41.44 56.82C41.51 57.66 42.31 58.18 43.32 58.18C44.44 58.18 45.25 57.56 45.25 56.63C45.25 55.67 44.51 54.99 43.18 54.99L42.48 54.99L42.48 54.06L43.18 54.06C44.22 54.06 44.94 53.46 44.94 52.54C44.94 51.66 44.32 51.07 43.35 51.07C42.45 51.07 41.62 51.59 41.58 52.45L40.56 52.45C40.61 51.08 41.86 50.15 43.37 50.15C44.99 50.15 45.96 51.25 45.96 52.49C45.96 53.47 45.41 54.2 44.53 54.47L44.53 54.53C45.63 54.72 46.29 55.52 46.29 56.63C46.29 58.06 45.03 59.12 43.34 59.12C41.64 59.12 40.43 58.19 40.37 56.82ZM51.22 54.64C51.22 51.81 52.34 50.15 54.25 50.15C56.16 50.15 57.28 51.81 57.28 54.64C57.28 57.49 56.18 59.12 54.25 59.12C52.32 59.12 51.22 57.49 51.22 54.64ZM56.26 54.64C56.26 52.37 55.51 51.07 54.25 51.07C52.99 51.07 52.24 52.37 52.24 54.64C52.24 56.91 52.98 58.18 54.25 58.18C55.52 58.18 56.26 56.91 56.26 54.64ZM58.72 54.64C58.72 51.81 59.84 50.15 61.75 50.15C63.66 50.15 64.78 51.81 64.78 54.64C64.78 57.49 63.68 59.12 61.75 59.12C59.82 59.12 58.72 57.49 58.72 54.64ZM63.76 54.64C63.76 52.37 63.01 51.07 61.75 51.07C60.49 51.07 59.74 52.37 59.74 54.64C59.74 56.91 60.48 58.18 61.75 58.18C63.02 58.18 63.76 56.91 63.76 54.64ZM66.22 54.64C66.22 51.81 67.34 50.15 69.25 50.15C71.16 50.15 72.28 51.81 72.28 54.64C72.28 57.49 71.18 59.12 69.25 59.12C67.32 59.12 66.22 57.49 66.22 54.64ZM71.26 54.64C71.26 52.37 70.51 51.07 69.25 51.07C67.99 51.07 67.24 52.37 67.24 54.64C67.24 56.91 67.98 58.18 69.25 58.18C70.52 58.18 71.26 56.91 71.26 54.64ZM40.96 108.23L43.84 105.08C44.85 103.98 45.33 103.38 45.33 102.57C45.33 101.65 44.6 101.07 43.66 101.07C42.65 101.07 42 101.73 42 102.73L41 102.73C41 101.19 42.16 100.15 43.69 100.15C45.22 100.15 46.31 101.23 46.31 102.57C46.31 103.54 45.87 104.29 44.37 105.9L42.41 107.99L42.41 108.06L46.47 108.06L46.47 109L40.96 109L40.96 108.23ZM51.62 106.82L52.64 106.82C52.72 107.61 53.44 108.18 54.33 108.18C55.4 108.18 56.19 107.36 56.19 106.24C56.19 105.1 55.37 104.25 54.26 104.24C53.72 104.24 53.11 104.43 52.74 104.69L51.76 104.57L52.28 100.27L56.82 100.27L56.82 101.21L53.17 101.21L52.86 103.78L52.92 103.78C53.27 103.5 53.84 103.29 54.43 103.29C56.03 103.29 57.21 104.53 57.21 106.22C57.21 107.89 55.99 109.12 54.33 109.12C52.83 109.12 51.68 108.15 51.62 106.82ZM58.72 104.64C58.72 101.81 59.84 100.15 61.75 100.15C63.66 100.15 64.78 101.81 64.78 104.64C64.78 107.49 63.68 109.12 61.75 109.12C59.82 109.12 58.72 107.49 58.72 104.64ZM63.76 104.64C63.76 102.37 63.01 101.07 61.75 101.07C60.49 101.07 59.74 102.37 59.74 104.64C59.74 106.91 60.48 108.18 61.75 108.18C63.02 108.18 63.76 106.91 63.76 104.64ZM66.22 104.64C66.22 101.81 67.34 100.15 69.25 100.15C71.16 100.15 72.28 101.81 72.28 104.64C72.28 107.49 71.18 109.12 69.25 109.12C67.32 109.12 66.22 107.49 66.22 104.64ZM71.26 104.64C71.26 102.37 70.51 101.07 69.25 101.07C67.99 101.07 67.24 102.37 67.24 104.64C67.24 106.91 67.98 108.18 69.25 108.18C70.52 108.18 71.26 106.91 71.26 104.64ZM40.76 158.23L43.64 155.08C44.65 153.98 45.13 153.38 45.13 152.57C45.13 151.65 44.4 151.07 43.46 151.07C42.45 151.07 41.8 151.73 41.8 152.73L40.8 152.73C40.8 151.19 41.96 150.15 43.49 150.15C45.02 150.15 46.12 151.23 46.12 152.57C46.12 153.54 45.67 154.29 44.17 155.9L42.21 157.99L42.21 158.06L46.27 158.06L46.27 159L40.76 159L40.76 158.23ZM51.22 154.64C51.22 151.81 52.34 150.15 54.25 150.15C56.16 150.15 57.28 151.81 57.28 154.64C57.28 157.49 56.18 159.12 54.25 159.12C52.32 159.12 51.22 157.49 51.22 154.64ZM56.26 154.64C56.26 152.37 55.51 151.07 54.25 151.07C52.99 151.07 52.24 152.37 52.24 154.64C52.24 156.91 52.98 158.18 54.25 158.18C55.52 158.18 56.26 156.91 56.26 154.64ZM58.72 154.64C58.72 151.81 59.84 150.15 61.75 150.15C63.66 150.15 64.78 151.81 64.78 154.64C64.78 157.49 63.68 159.12 61.75 159.12C59.82 159.12 58.72 157.49 58.72 154.64ZM63.76 154.64C63.76 152.37 63.01 151.07 61.75 151.07C60.49 151.07 59.74 152.37 59.74 154.64C59.74 156.91 60.48 158.18 61.75 158.18C63.02 158.18 63.76 156.91 63.76 154.64ZM66.22 154.64C66.22 151.81 67.34 150.15 69.25 150.15C71.16 150.15 72.28 151.81 72.28 154.64C72.28 157.49 71.18 159.12 69.25 159.12C67.32 159.12 66.22 157.49 66.22 154.64ZM71.26 154.64C71.26 152.37 70.51 151.07 69.25 151.07C67.99 151.07 67.24 152.37 67.24 154.64C67.24 156.91 67.98 158.18 69.25 158.18C70.52 158.18 71.26 156.91 71.26 154.64ZM45.72 209L44.66 209L44.66 201.38L44.61 201.38L42.48 202.79L42.48 201.72L44.66 200.27L45.72 200.27L45.72 209ZM51.62 206.82L52.64 206.82C52.72 207.61 53.44 208.18 54.33 208.18C55.4 208.18 56.19 207.36 56.19 206.24C56.19 205.1 55.37 204.25 54.26 204.24C53.72 204.24 53.11 204.43 52.74 204.69L51.76 204.57L52.28 200.27L56.82 200.27L56.82 201.21L53.17 201.21L52.86 203.78L52.92 203.78C53.27 203.5 53.84 203.29 54.43 203.29C56.03 203.29 57.21 204.53 57.21 206.22C57.21 207.89 55.99 209.12 54.33 209.12C52.83 209.12 51.68 208.15 51.62 206.82ZM58.72 204.64C58.72 201.81 59.84 200.15 61.75 200.15C63.66 200.15 64.78 201.81 64.78 204.64C64.78 207.49 63.68 209.12 61.75 209.12C59.82 209.12 58.72 207.49 58.72 204.64ZM63.76 204.64C63.76 202.37 63.01 201.07 61.75 201.07C60.49 201.07 59.74 202.37 59.74 204.64C59.74 206.91 60.48 208.18 61.75 208.18C63.02 208.18 63.76 206.91 63.76 204.64ZM66.22 204.64C66.22 201.81 67.34 200.15 69.25 200.15C71.16 200.15 72.28 201.81 72.28 204.64C72.28 207.49 71.18 209.12 69.25 209.12C67.32 209.12 66.22 207.49 66.22 204.64ZM71.26 204.64C71.26 202.37 70.51 201.07 69.25 201.07C67.99 201.07 67.24 202.37 67.24 204.64C67.24 206.91 67.98 208.18 69.25 208.18C70.52 208.18 71.26 206.91 71.26 204.64ZM45.52 259L44.46 259L44.46 251.38L44.41 251.38L42.28 252.8L42.28 251.72L44.46 250.27L45.52 250.27L45.52 259ZM51.22 254.64C51.22 251.81 52.34 250.15 54.25 250.15C56.16 250.15 57.28 251.81 57.28 254.64C57.28 257.49 56.18 259.12 54.25 259.12C52.32 259.12 51.22 257.49 51.22 254.64ZM56.26 254.64C56.26 252.37 55.51 251.07 54.25 251.07C52.99 251.07 52.24 252.37 52.24 254.64C52.24 256.91 52.98 258.18 54.25 258.18C55.52 258.18 56.26 256.91 56.26 254.64ZM58.72 254.64C58.72 251.81 59.84 250.15 61.75 250.15C63.66 250.15 64.78 251.81 64.78 254.64C64.78 257.49 63.68 259.12 61.75 259.12C59.82 259.12 58.72 257.49 58.72 254.64ZM63.76 254.64C63.76 252.37 63.01 251.07 61.75 251.07C60.49 251.07 59.74 252.37 59.74 254.64C59.74 256.91 60.48 258.18 61.75 258.18C63.02 258.18 63.76 256.91 63.76 254.64ZM66.22 254.64C66.22 251.81 67.34 250.15 69.25 250.15C71.16 250.15 72.28 251.81 72.28 254.64C72.28 257.49 71.18 259.12 69.25 259.12C67.32 259.12 66.22 257.49 66.22 254.64ZM71.26 254.64C71.26 252.37 70.51 251.07 69.25 251.07C67.99 251.07 67.24 252.37 67.24 254.64C67.24 256.91 67.98 258.18 69.25 258.18C70.52 258.18 71.26 256.91 71.26 254.64ZM51.62 306.82L52.64 306.82C52.72 307.61 53.44 308.18 54.33 308.18C55.4 308.18 56.19 307.36 56.19 306.24C56.19 305.1 55.37 304.25 54.26 304.24C53.72 304.24 53.11 304.43 52.74 304.69L51.76 304.57L52.28 300.27L56.82 300.27L56.82 301.21L53.17 301.21L52.86 303.78L52.92 303.78C53.27 303.5 53.84 303.29 54.43 303.29C56.03 303.29 57.21 304.53 57.21 306.22C57.21 307.89 55.99 309.12 54.33 309.12C52.83 309.12 51.68 308.15 51.62 306.82ZM58.72 304.64C58.72 301.81 59.84 300.15 61.75 300.15C63.66 300.15 64.78 301.81 64.78 304.64C64.78 307.49 63.68 309.12 61.75 309.12C59.82 309.12 58.72 307.49 58.72 304.64ZM63.76 304.64C63.76 302.37 63.01 301.07 61.75 301.07C60.49 301.07 59.74 302.37 59.74 304.64C59.74 306.91 60.48 308.18 61.75 308.18C63.02 308.18 63.76 306.91 63.76 304.64ZM66.22 304.64C66.22 301.81 67.34 300.15 69.25 300.15C71.16 300.15 72.28 301.81 72.28 304.64C72.28 307.49 71.18 309.12 69.25 309.12C67.32 309.12 66.22 307.49 66.22 304.64ZM71.26 304.64C71.26 302.37 70.51 301.07 69.25 301.07C67.99 301.07 67.24 302.37 67.24 304.64C67.24 306.91 67.98 308.18 69.25 308.18C70.52 308.18 71.26 306.91 71.26 304.64ZM66.22 354.64C66.22 351.81 67.34 350.15 69.25 350.15C71.16 350.15 72.28 351.81 72.28 354.64C72.28 357.49 71.18 359.12 69.25 359.12C67.32 359.12 66.22 357.49 66.22 354.64ZM71.26 354.64C71.26 352.37 70.51 351.07 69.25 351.07C67.99 351.07 67.24 352.37 67.24 354.64C67.24 356.91 67.98 358.18 69.25 358.18C70.52 358.18 71.26 356.91 71.26 354.64Z" />
	<path id="Layer" class="shp3" d="M162 127L232 127L232 358L162 358L162 127Z" />
	<path id="Layer" class="shp3" d="M382 123L452 123L452 358L382 358L382 123Z" />
	<path id="Layer" class="shp4" d="M236 97L306 97L306 358L236 358L236 97Z" />
	<path id="Layer" class="shp4" d="M456 112L526 112L526 358L456 358L456 112Z" />
	<path id="Layer" class="shp1" d="M488 94L491 94M494 94L491 94M491 94L491 112.5" />
	<path id="Layer" class="shp1" d="M268 76L271 76M274 76L271 76M271 76L271 97.5" />
	<path id="Layer" class="shp1" d="M414 109L417 109M420 109L417 109M417 109L417 123.5" />
	<path id="Layer" class="shp1" d="M194 112L197 112M200 112L197 112M197 112L197 127.5" />
	<path id="Layer" class="shp1" d="M162 72L306 72" />
	<path id="Layer" class="shp0" d="M230.02 68.55L230.98 68.55L230.9 66.36L232.75 67.53L233.22 66.7L231.28 65.68L233.22 64.67L232.75 63.83L230.9 65.01L230.98 62.82L230.02 62.82L230.1 65.01L228.25 63.83L227.78 64.67L229.72 65.68L227.78 66.7L228.25 67.53L230.1 66.36L230.02 68.55ZM237.02 68.55L237.98 68.55L237.9 66.36L239.75 67.53L240.22 66.7L238.28 65.68L240.22 64.67L239.75 63.83L237.9 65.01L237.98 62.82L237.02 62.82L237.1 65.01L235.25 63.83L234.78 64.67L236.72 65.68L234.78 66.7L235.25 67.53L237.1 66.36L237.02 68.55Z" />
	<path id="Layer" fill-rule="evenodd" class="shp5" d="M417.47 40L416.23 40L416.23 29.82L417.47 29.82L417.47 40ZM420.95 40L419.78 40L419.78 32.36L420.91 32.36L420.91 33.56L421.01 33.56C421.37 32.78 422.09 32.26 423.24 32.26C424.79 32.26 425.82 33.2 425.82 35.15L425.82 40L424.65 40L424.65 35.23C424.65 34.03 423.99 33.32 422.9 33.32C421.78 33.32 420.95 34.07 420.95 35.41L420.95 40ZM427.61 36.22C427.61 33.89 428.98 32.26 431.05 32.26C432.66 32.26 433.88 33.22 434.07 34.65L432.9 34.65C432.72 33.95 432.11 33.32 431.07 33.32C429.7 33.32 428.78 34.45 428.78 36.18C428.78 37.95 429.68 39.11 431.07 39.11C431.99 39.11 432.68 38.61 432.9 37.77L434.07 37.77C433.88 39.13 432.76 40.16 431.07 40.16C428.92 40.16 427.61 38.51 427.61 36.22ZM436.96 40L435.79 40L435.79 29.82L436.96 29.82L436.96 40ZM443.92 32.36L445.1 32.36L445.1 40L443.92 40L443.92 38.71L443.84 38.71C443.49 39.48 442.73 40.1 441.58 40.1C440.14 40.1 439.11 39.16 439.11 37.22L439.11 32.36L440.28 32.36L440.28 37.14C440.28 38.25 440.98 38.97 441.95 38.97C442.83 38.97 443.92 38.31 443.92 36.88L443.92 32.36ZM451.6 34.37C451.4 33.85 450.97 33.28 449.95 33.28C449.02 33.28 448.32 33.76 448.32 34.41C448.32 35 448.73 35.3 449.63 35.53L450.77 35.8C452.13 36.14 452.79 36.81 452.79 37.87C452.79 39.19 451.59 40.16 449.81 40.16C448.25 40.16 447.18 39.47 446.91 38.17L448.02 37.89C448.23 38.71 448.83 39.13 449.79 39.13C450.88 39.13 451.58 38.59 451.58 37.93C451.58 37.4 451.22 37.04 450.45 36.86L449.18 36.56C447.77 36.23 447.15 35.53 447.15 34.47C447.15 33.18 448.34 32.26 449.95 32.26C451.46 32.26 452.29 32.99 452.65 34.07L451.6 34.37ZM454.56 32.36L455.73 32.36L455.73 40L454.56 40L454.56 32.36ZM454.32 30.3C454.32 29.86 454.7 29.5 455.16 29.5C455.61 29.5 455.99 29.86 455.99 30.3C455.99 30.73 455.61 31.09 455.16 31.09C454.7 31.09 454.32 30.73 454.32 30.3ZM457.52 36.22C457.52 33.84 458.92 32.26 460.99 32.26C463.05 32.26 464.44 33.84 464.44 36.22C464.44 38.59 463.05 40.16 460.99 40.16C458.92 40.16 457.52 38.59 457.52 36.22ZM463.27 36.22C463.27 34.69 462.56 33.32 460.99 33.32C459.41 33.32 458.7 34.69 458.7 36.22C458.7 37.75 459.41 39.11 460.99 39.11C462.56 39.11 463.27 37.75 463.27 36.22ZM467.41 40L466.24 40L466.24 32.36L467.37 32.36L467.37 33.56L467.47 33.56C467.83 32.78 468.54 32.26 469.7 32.26C471.24 32.26 472.28 33.2 472.28 35.15L472.28 40L471.11 40L471.11 35.23C471.11 34.03 470.45 33.32 469.36 33.32C468.24 33.32 467.41 34.07 467.41 35.41L467.41 40ZM533.23 36.9L537.7 29.82L539.2 29.82L539.2 36.82L540.59 36.82L540.59 37.91L539.2 37.91L539.2 40L538.02 40L538.02 37.91L533.23 37.91L533.23 36.9ZM538.02 31.39L537.94 31.39L534.56 36.74L534.56 36.82L538.02 36.82L538.02 31.39ZM545.81 32.36L547.04 32.36L548.7 38.21L548.77 38.21L550.4 32.36L551.66 32.36L553.27 38.19L553.35 38.19L555 32.36L556.23 32.36L553.9 40L552.75 40L551.08 34.13L550.96 34.13L549.29 40L548.14 40L545.81 32.36ZM557.16 36.24C557.16 33.89 558.54 32.26 560.61 32.26C562.2 32.26 563.89 33.24 563.89 36.08L563.89 36.58L558.34 36.58C558.4 38.22 559.35 39.11 560.73 39.11C561.64 39.11 562.34 38.71 562.63 37.91L563.77 38.23C563.41 39.38 562.28 40.16 560.73 40.16C558.52 40.16 557.16 38.59 557.16 36.24ZM562.69 35.57C562.69 34.27 561.88 33.32 560.61 33.32C559.26 33.32 558.42 34.38 558.34 35.57L562.69 35.57ZM565.31 36.24C565.31 33.89 566.69 32.26 568.75 32.26C570.35 32.26 572.03 33.24 572.03 36.08L572.03 36.58L566.49 36.58C566.55 38.22 567.5 39.11 568.87 39.11C569.79 39.11 570.48 38.71 570.78 37.91L571.92 38.23C571.56 39.38 570.42 40.16 568.87 40.16C566.67 40.16 565.31 38.59 565.31 36.24ZM570.84 35.57C570.84 34.27 570.03 33.32 568.75 33.32C567.41 33.32 566.57 34.38 566.49 35.57L570.84 35.57ZM573.82 29.82L574.99 29.82L574.99 35.76L575.13 35.76L578.47 32.36L579.92 32.36L576.7 35.63L580.16 40L578.67 40L575.81 36.38L574.99 37.14L574.99 40L573.82 40L573.82 29.82ZM585.79 34.37C585.59 33.85 585.16 33.28 584.14 33.28C583.21 33.28 582.51 33.76 582.51 34.41C582.51 35 582.92 35.3 583.82 35.53L584.96 35.8C586.32 36.14 586.98 36.81 586.98 37.87C586.98 39.19 585.77 40.16 584 40.16C582.44 40.16 581.37 39.47 581.1 38.17L582.21 37.89C582.42 38.71 583.02 39.13 583.98 39.13C585.07 39.13 585.77 38.59 585.77 37.93C585.77 37.4 585.41 37.04 584.64 36.86L583.36 36.56C581.96 36.23 581.34 35.53 581.34 34.47C581.34 33.18 582.53 32.26 584.14 32.26C585.65 32.26 586.48 32.99 586.84 34.07L585.79 34.37Z" />
	<path id="Layer" class="shp6" d="M394 31L402 31L402 39L394 39L394 31Z" />
	<path id="Layer" class="shp7" d="M515 31L523 31L523 39L515 39L515 31Z" />
</svg>