<svg xmlns="http://www.w3.org/2000/svg" viewBox="0 0 616 401" width="616" height="401">
	<style>
		tspan { white-space:pre }
		.shp0 { fill: #202124 } 
		.shp1 { fill: none;stroke: #202124 } 
		.shp2 { opacity: 0.102;fill: none;stroke: #202124 } 
	</style>
	<path id="Layer" fill-rule="evenodd" class="shp0" d="M1.82 297.94L1.82 294.5C1.82 292.11 3.24 291.04 5.04 291.04C6.84 291.04 8.28 292.11 8.28 294.48L8.28 296.7L12 296.7L12 297.94L1.82 297.94ZM7.19 294.52C7.19 292.88 6.26 292.25 5.04 292.25C3.82 292.25 2.91 292.88 2.91 294.54L2.91 296.7L7.19 296.7L7.19 294.52ZM8.22 289.65C5.84 289.65 4.26 288.26 4.26 286.19C4.26 284.12 5.84 282.73 8.22 282.73C10.59 282.73 12.16 284.12 12.16 286.19C12.16 288.26 10.59 289.65 8.22 289.65ZM8.22 283.9C6.69 283.9 5.32 284.62 5.32 286.19C5.32 287.76 6.69 288.48 8.22 288.48C9.75 288.48 11.11 287.76 11.11 286.19C11.11 284.62 9.75 283.9 8.22 283.9ZM6.37 276.58C5.85 276.79 5.28 277.21 5.28 278.23C5.28 279.17 5.76 279.86 6.41 279.86C7 279.86 7.3 279.46 7.53 278.55L7.8 277.42C8.14 276.06 8.81 275.39 9.87 275.39C11.19 275.39 12.16 276.6 12.16 278.37C12.16 279.93 11.47 281 10.17 281.28L9.89 280.16C10.71 279.95 11.13 279.35 11.13 278.39C11.13 277.3 10.59 276.6 9.93 276.6C9.4 276.6 9.04 276.97 8.86 277.74L8.56 279.01C8.23 280.41 7.53 281.04 6.47 281.04C5.18 281.04 4.26 279.84 4.26 278.23C4.26 276.72 4.99 275.9 6.07 275.53L6.37 276.58ZM5.36 270.3L5.36 271.93L9.81 271.93C10.81 271.93 10.97 271.44 10.97 270.92C10.97 270.66 10.93 270.5 10.91 270.4L11.96 270.16C12.02 270.32 12.1 270.6 12.1 271.04C12.1 272.03 11.46 273.11 10.13 273.11L5.36 273.11L5.36 274.26L4.36 274.26L4.36 273.11L2.53 273.11L2.53 271.93L4.36 271.93L4.36 270.3L5.36 270.3ZM1.82 264.44L1.82 261C1.82 258.61 3.14 257.54 4.94 257.54C6.29 257.54 7.35 258.15 7.79 259.44L12 257.14L12 258.57L8.02 260.72C8.02 260.81 8.02 260.89 8.02 260.98L8.02 263.21L12 263.21L12 264.44L1.82 264.44ZM6.91 261.02C6.91 259.39 6.16 258.75 4.94 258.75C3.72 258.75 2.91 259.39 2.91 261.04L2.91 263.21L6.91 263.21L6.91 261.02ZM8.24 256.08C5.89 256.08 4.26 254.71 4.26 252.64C4.26 251.05 5.24 249.36 8.08 249.36L8.58 249.36L8.58 254.91C10.22 254.85 11.11 253.9 11.11 252.52C11.11 251.61 10.71 250.91 9.91 250.62L10.23 249.48C11.38 249.84 12.16 250.97 12.16 252.52C12.16 254.73 10.59 256.08 8.24 256.08ZM7.57 250.56C6.27 250.56 5.32 251.37 5.32 252.64C5.32 253.99 6.38 254.83 7.57 254.91L7.57 250.56ZM12 246.4L12 247.58L1.82 247.58L1.82 246.4L12 246.4ZM12 241.04L1.82 237.3L1.82 236.02L12 232.29L12 233.58L9.12 234.6L9.12 238.72L12 239.74L12 241.04ZM8.02 234.99L3.43 236.62L3.43 236.7L8.02 238.33L8.02 234.99ZM12 229.68L12 230.86L1.82 230.86L1.82 229.68L12 229.68ZM4.36 227.54L4.36 226.4L5.58 226.4L5.58 226.26C5.18 226 4.26 225.55 4.26 224.06C4.26 222.13 5.8 220.79 8.2 220.79C10.63 220.79 12.16 222.13 12.16 224.04C12.16 225.51 11.24 226 10.83 226.26L10.83 226.36L14.86 226.36L14.86 227.54L4.36 227.54ZM11.11 224.19C11.11 222.72 9.81 221.97 8.18 221.97C6.57 221.97 5.32 222.7 5.32 224.19C5.32 225.63 6.47 226.38 8.18 226.38C9.91 226.38 11.11 225.61 11.11 224.19ZM12 217.83L12 219L1.82 219L1.82 217.83L5.56 217.83L5.56 217.73C4.77 217.37 4.26 216.69 4.26 215.48C4.26 213.92 5.18 212.88 7.15 212.88L12 212.88L12 214.05L7.23 214.05C6.01 214.05 5.32 214.72 5.32 215.82C5.32 216.98 6.07 217.83 7.41 217.83L12 217.83ZM9.83 211.09C8.08 211.09 7.77 209.54 7.59 208.13C7.41 206.74 7.46 206.16 6.89 206.16L6.85 206.16C5.87 206.16 5.3 206.69 5.3 207.77C5.3 208.89 5.89 209.5 6.45 209.76L6.05 210.87C4.66 210.28 4.26 208.96 4.26 207.81C4.26 206.84 4.54 204.99 6.97 204.99L12 204.99L12 206.16L10.97 206.16L10.97 206.22C11.46 206.46 12.18 207.15 12.18 208.49C12.18 209.94 11.32 211.09 9.83 211.09ZM9.24 206.16L8.16 206.16C8.4 206.36 8.54 207.69 8.6 208.19C8.72 209.1 9 209.92 9.89 209.92C10.71 209.92 11.13 209.24 11.13 208.31C11.13 206.91 10.19 206.16 9.24 206.16ZM1.82 198.75L1.82 195.31C1.82 192.92 3.24 191.85 5.04 191.85C6.84 191.85 8.28 192.92 8.28 195.29L8.28 197.51L12 197.51L12 198.75L1.82 198.75ZM7.19 195.33C7.19 193.69 6.26 193.06 5.04 193.06C3.82 193.06 2.91 193.69 2.91 195.35L2.91 197.51L7.19 197.51L7.19 195.33ZM8.22 190.46C5.84 190.46 4.26 189.07 4.26 187C4.26 184.93 5.84 183.54 8.22 183.54C10.59 183.54 12.16 184.93 12.16 187C12.16 189.07 10.59 190.46 8.22 190.46ZM8.22 184.71C6.69 184.71 5.32 185.43 5.32 187C5.32 188.57 6.69 189.29 8.22 189.29C9.75 189.29 11.11 188.57 11.11 187C11.11 185.43 9.75 184.71 8.22 184.71ZM4.36 182.6L4.36 181.37L10.21 179.72L10.21 179.64L4.36 178.01L4.36 176.76L10.19 175.15L10.19 175.07L4.36 173.42L4.36 172.18L12 174.51L12 175.66L6.13 177.34L6.13 177.45L12 179.13L12 180.28L4.36 182.6ZM8.24 171.25C5.89 171.25 4.26 169.88 4.26 167.81C4.26 166.22 5.24 164.53 8.08 164.53L8.58 164.53L8.58 170.07C10.22 170.02 11.11 169.07 11.11 167.69C11.11 166.77 10.71 166.08 9.91 165.78L10.23 164.65C11.38 165.01 12.16 166.14 12.16 167.69C12.16 169.9 10.59 171.25 8.24 171.25ZM7.57 165.72C6.27 165.72 5.32 166.54 5.32 167.81C5.32 169.15 6.38 169.99 7.57 170.07L7.57 165.72ZM4.36 162.74L4.36 161.61L5.52 161.61L5.52 161.53C4.76 161.25 4.24 160.46 4.24 159.54C4.24 159.37 4.25 159.06 4.26 158.93L5.46 158.93C5.44 159.01 5.38 159.33 5.38 159.64C5.38 160.76 6.13 161.57 7.17 161.57L12 161.57L12 162.74L4.36 162.74ZM5 146.48C3.59 146.78 2.83 147.99 2.83 149.34C2.83 151.19 4.26 152.64 6.91 152.64C9.55 152.64 10.99 151.19 10.99 149.34C10.99 147.99 10.23 146.78 8.82 146.48L8.82 145.25C10.91 145.62 12.14 147.29 12.14 149.34C12.14 151.95 10.13 153.84 6.91 153.84C3.69 153.84 1.68 151.95 1.68 149.34C1.68 147.29 2.91 145.62 5 145.25L5 146.48ZM12 142.24L12 143.41L1.82 143.41L1.82 142.24L5.56 142.24L5.56 142.14C4.77 141.78 4.26 141.1 4.26 139.89C4.26 138.33 5.18 137.29 7.15 137.29L12 137.29L12 138.46L7.23 138.46C6.01 138.46 5.32 139.13 5.32 140.23C5.32 141.39 6.07 142.24 7.41 142.24L12 142.24ZM9.83 135.5C8.08 135.5 7.77 133.95 7.59 132.54C7.41 131.14 7.46 130.57 6.89 130.57L6.85 130.57C5.87 130.57 5.3 131.1 5.3 132.18C5.3 133.3 5.89 133.91 6.45 134.17L6.05 135.28C4.66 134.68 4.26 133.37 4.26 132.22C4.26 131.24 4.54 129.39 6.97 129.39L12 129.39L12 130.57L10.97 130.57L10.97 130.63C11.46 130.87 12.18 131.56 12.18 132.89C12.18 134.35 11.32 135.5 9.83 135.5ZM9.24 130.57L8.16 130.57C8.4 130.77 8.54 132.1 8.6 132.6C8.72 133.51 9 134.33 9.89 134.33C10.71 134.33 11.13 133.65 11.13 132.72C11.13 131.32 10.19 130.57 9.24 130.57ZM12 126.08L12 127.25L4.36 127.25L4.36 126.12L5.56 126.12L5.56 126.02C4.78 125.66 4.26 124.94 4.26 123.79C4.26 122.25 5.2 121.21 7.15 121.21L12 121.21L12 122.38L7.23 122.38C6.03 122.38 5.32 123.04 5.32 124.13C5.32 125.25 6.07 126.08 7.41 126.08L12 126.08ZM13.49 119.1L12.84 118.17C13.26 117.85 13.99 117.37 13.99 115.98C13.99 114.75 13.41 113.85 12.14 113.85L10.59 113.85L10.59 113.95C11.01 114.21 11.88 114.69 11.88 116.18C11.88 118.03 10.53 119.42 8.14 119.42C5.8 119.42 4.26 118.09 4.26 116.16C4.26 114.67 5.18 114.19 5.58 113.93L5.58 113.81L4.36 113.81L4.36 112.68L12.22 112.68C14.19 112.68 15.02 114.15 15.02 115.98C15.02 117.69 14.29 118.63 13.49 119.1ZM8.12 113.83C6.47 113.83 5.32 114.59 5.32 116.02C5.32 117.51 6.57 118.25 8.12 118.25C9.71 118.25 10.83 117.49 10.83 116.02C10.83 114.61 9.81 113.83 8.12 113.83ZM8.24 110.89C5.89 110.89 4.26 109.52 4.26 107.45C4.26 105.86 5.24 104.17 8.08 104.17L8.58 104.17L8.58 109.71C10.22 109.66 11.11 108.71 11.11 107.33C11.11 106.41 10.71 105.72 9.91 105.42L10.23 104.29C11.38 104.65 12.16 105.78 12.16 107.33C12.16 109.54 10.59 110.89 8.24 110.89ZM7.57 105.36C6.27 105.36 5.32 106.18 5.32 107.45C5.32 108.79 6.38 109.63 7.57 109.71L7.57 105.36ZM1.34 96.14L1.34 95.11C2.65 96.06 5.34 96.81 7.7 96.81C10.07 96.81 12.76 96.06 14.07 95.11L14.07 96.14C12.3 97.35 10.21 98.03 7.7 98.03C5.2 98.03 3.11 97.35 1.34 96.14ZM9.55 88.2C8.44 88.2 7.51 87.49 7.51 86.21C7.51 84.92 8.44 84.25 9.55 84.25L10.09 84.25C11.2 84.25 12.14 84.94 12.14 86.21C12.14 87.51 11.2 88.2 10.09 88.2L9.55 88.2ZM3.73 93.27C2.61 93.27 1.68 92.56 1.68 91.28C1.68 89.99 2.61 89.32 3.73 89.32L4.26 89.32C5.38 89.32 6.31 90.01 6.31 91.28C6.31 92.58 5.38 93.27 4.26 93.27L3.73 93.27ZM1.82 85.9L1.82 84.76L12 91.76L12 92.9L1.82 85.9ZM10.09 87.19C10.71 87.19 11.28 86.93 11.28 86.21C11.28 85.52 10.71 85.26 10.09 85.26L9.55 85.26C8.94 85.26 8.36 85.5 8.36 86.21C8.36 86.91 8.94 87.19 9.55 87.19L10.09 87.19ZM4.26 92.26C4.88 92.26 5.46 92 5.46 91.28C5.46 90.59 4.88 90.33 4.26 90.33L3.73 90.33C3.11 90.33 2.53 90.57 2.53 91.28C2.53 91.98 3.11 92.26 3.73 92.26L4.26 92.26ZM13.27 81.38L13.27 82.42C11.96 81.46 9.28 80.71 6.91 80.71C4.54 80.71 1.86 81.46 0.55 82.42L0.55 81.38C2.32 80.17 4.4 79.49 6.91 79.49C9.41 79.49 11.5 80.17 13.27 81.38Z" />
	<path id="Layer" class="shp1" d="M55 351.5L55 1L49 1M55 351.5L55 359.5M55 351.5L615 351.5L615 357.5M55 351.5L46 351.5M49 301L55 301M49 251L55 251M49 201L55 201M49 151L55 151M49 101L55 101M49 51L55 51M475 357.5L475 351.5M545 357.5L545 351.5M405 357.5L405 351.5M335 357.5L335 351.5M265 357.5L265 351.5M195 357.5L195 351.5M125 357.5L125 351.5" />
	<path id="Layer" class="shp2" d="M615 2L56 2M56 302L615 302M56 252L615 252M56 202L615 202M56 152L615 152M56 102L615 102M56 52L615 52" />
	<path id="Layer" class="shp2" d="M615 1L615 352M475 352L475 1M545 352L545 1M405 352L405 1M335 352L335 1M265 352L265 1M195 352L195 1M125 352L125 1" />
	<path id="Layer" fill-rule="evenodd" class="shp0" d="M263.9 387.82L271.53 387.82L271.53 388.91L268.33 388.91L268.33 398L267.1 398L267.1 388.91L263.9 388.91L263.9 387.82ZM272.48 390.36L273.62 390.36L273.62 391.52L273.7 391.52C273.98 390.76 274.77 390.24 275.69 390.24C275.86 390.24 276.17 390.25 276.3 390.26L276.3 391.46C276.22 391.44 275.9 391.38 275.59 391.38C274.47 391.38 273.66 392.13 273.66 393.17L273.66 398L272.48 398L272.48 390.36ZM277.33 395.83C277.33 394.08 278.88 393.77 280.3 393.58C281.69 393.41 282.27 393.46 282.27 392.89L282.27 392.85C282.27 391.87 281.74 391.3 280.66 391.3C279.54 391.3 278.93 391.89 278.67 392.45L277.55 392.05C278.15 390.66 279.46 390.26 280.62 390.26C281.59 390.26 283.44 390.54 283.44 392.97L283.44 398L282.27 398L282.27 396.97L282.21 396.97C281.97 397.46 281.27 398.18 279.94 398.18C278.49 398.18 277.33 397.32 277.33 395.83ZM282.27 395.24L282.27 394.16C282.07 394.4 280.74 394.54 280.24 394.6C279.32 394.72 278.51 395 278.51 395.89C278.51 396.71 279.18 397.13 280.12 397.13C281.51 397.13 282.27 396.19 282.27 395.24ZM285.58 390.36L286.75 390.36L286.75 398L285.58 398L285.58 390.36ZM285.34 388.3C285.34 387.86 285.72 387.5 286.18 387.5C286.64 387.5 287.01 387.86 287.01 388.3C287.01 388.73 286.64 389.09 286.18 389.09C285.72 389.09 285.34 388.73 285.34 388.3ZM292.23 391.36L290.59 391.36L290.59 395.81C290.59 396.81 291.09 396.97 291.61 396.97C291.87 396.97 292.03 396.93 292.13 396.91L292.36 397.96C292.2 398.02 291.93 398.1 291.49 398.1C290.5 398.1 289.42 397.46 289.42 396.13L289.42 391.36L288.27 391.36L288.27 390.36L289.42 390.36L289.42 388.53L290.59 388.53L290.59 390.36L292.23 390.36L292.23 391.36ZM297.21 398L300.95 387.82L302.22 387.82L305.96 398L304.67 398L303.64 395.12L299.53 395.12L298.5 398L297.21 398ZM303.26 394.02L301.63 389.43L301.55 389.43L299.92 394.02L303.26 394.02ZM308.56 398L307.39 398L307.39 390.36L308.52 390.36L308.52 391.56L308.62 391.56C308.98 390.78 309.69 390.26 310.85 390.26C312.39 390.26 313.43 391.2 313.43 393.15L313.43 398L312.26 398L312.26 393.23C312.26 392.03 311.6 391.32 310.51 391.32C309.39 391.32 308.56 392.07 308.56 393.41L308.56 398ZM318.28 393.49L320.11 390.36L321.46 390.36L319 394.18L321.46 398L320.11 398L318.28 395.04L316.45 398L315.1 398L317.53 394.18L315.1 390.36L316.45 390.36L318.28 393.49ZM323.14 390.36L324.31 390.36L324.31 398L323.14 398L323.14 390.36ZM322.9 388.3C322.9 387.86 323.28 387.5 323.74 387.5C324.19 387.5 324.57 387.86 324.57 388.3C324.57 388.73 324.19 389.09 323.74 389.09C323.28 389.09 322.9 388.73 322.9 388.3ZM326.1 394.24C326.1 391.89 327.48 390.26 329.54 390.26C331.13 390.26 332.82 391.24 332.82 394.08L332.82 394.58L327.28 394.58C327.34 396.21 328.29 397.11 329.66 397.11C330.58 397.11 331.27 396.71 331.57 395.91L332.7 396.23C332.35 397.38 331.21 398.16 329.66 398.16C327.45 398.16 326.1 396.59 326.1 394.24ZM331.63 393.56C331.63 392.27 330.82 391.32 329.54 391.32C328.2 391.32 327.36 392.38 327.28 393.56L331.63 393.56ZM337.93 391.36L336.3 391.36L336.3 395.81C336.3 396.81 336.8 396.97 337.31 396.97C337.57 396.97 337.73 396.93 337.83 396.91L338.07 397.96C337.91 398.02 337.63 398.1 337.19 398.1C336.2 398.1 335.13 397.46 335.13 396.13L335.13 391.36L333.97 391.36L333.97 390.36L335.13 390.36L335.13 388.53L336.3 388.53L336.3 390.36L337.93 390.36L337.93 391.36ZM339.6 400.72L339.89 399.69C340.75 399.91 341.28 399.8 341.7 398.64L341.92 398.04L339.1 390.36L340.37 390.36L342.48 396.45L342.56 396.45L344.67 390.36L345.95 390.38L342.7 399.11C342.25 400.3 341.51 400.86 340.45 400.86C340.05 400.86 339.71 400.78 339.6 400.72ZM353.75 387.34L354.78 387.34C353.82 388.65 353.07 391.34 353.07 393.7C353.07 396.07 353.82 398.76 354.78 400.07L353.75 400.07C352.53 398.3 351.86 396.21 351.86 393.7C351.86 391.2 352.53 389.11 353.75 387.34ZM359.95 388.77C358.6 388.77 357.7 389.49 357.7 390.46C357.7 391.56 358.92 391.95 359.67 392.15L360.71 392.43C361.76 392.71 363.57 393.33 363.57 395.24C363.57 396.89 362.24 398.18 359.89 398.18C357.7 398.18 356.35 397.05 356.23 395.38L357.51 395.38C357.61 396.53 358.68 397.06 359.89 397.06C361.3 397.06 362.38 396.33 362.38 395.22C362.38 394.2 361.42 393.82 360.35 393.53L359.1 393.17C357.51 392.71 356.51 391.89 356.51 390.52C356.51 388.81 358.04 387.68 359.99 387.68C361.96 387.68 363.38 388.83 363.43 390.36L362.24 390.36C362.12 389.36 361.19 388.77 359.95 388.77ZM365.04 387.82L372.68 387.82L372.68 388.91L369.48 388.91L369.48 398L368.24 398L368.24 388.91L365.04 388.91L365.04 387.82ZM372.52 398L376.25 387.82L377.53 387.82L381.27 398L379.97 398L378.95 395.12L374.83 395.12L373.81 398L372.52 398ZM378.56 394.02L376.93 389.43L376.85 389.43L375.22 394.02L378.56 394.02ZM384.08 398L382.85 398L382.85 387.82L384.08 387.82L384.08 398ZM390.77 393.46L386.32 393.46L386.32 392.36L390.77 392.36L390.77 393.46ZM391.4 387.82L399.04 387.82L399.04 388.91L395.83 388.91L395.83 398L394.6 398L394.6 388.91L391.4 388.91L391.4 387.82ZM401.4 399.27L400.36 399.27C401.32 397.96 402.07 395.28 402.07 392.91C402.07 390.54 401.32 387.86 400.36 386.55L401.4 386.55C402.61 388.31 403.29 390.4 403.29 392.91C403.29 395.42 402.61 397.5 401.4 399.27Z" />
	<path id="Layer" fill-rule="evenodd" class="shp0" d="M118.9 369.23L121.78 366.08C122.79 364.98 123.27 364.38 123.27 363.57C123.27 362.65 122.54 362.07 121.6 362.07C120.59 362.07 119.94 362.73 119.94 363.73L118.94 363.73C118.94 362.19 120.1 361.15 121.63 361.15C123.16 361.15 124.26 362.23 124.26 363.57C124.26 364.54 123.81 365.29 122.31 366.9L120.35 368.99L120.35 369.06L124.41 369.06L124.41 370L118.9 370L118.9 369.23ZM126.19 367.82L127.21 367.82C127.29 368.61 128 369.18 128.9 369.18C129.97 369.18 130.75 368.36 130.75 367.24C130.75 366.1 129.94 365.25 128.83 365.24C128.29 365.24 127.67 365.43 127.31 365.69L126.32 365.57L126.85 361.27L131.38 361.27L131.38 362.21L127.74 362.21L127.43 364.78L127.48 364.78C127.84 364.5 128.41 364.29 129 364.29C130.6 364.29 131.78 365.53 131.78 367.22C131.78 368.89 130.56 370.12 128.9 370.12C127.4 370.12 126.25 369.15 126.19 367.82ZM187.45 367.82L188.53 367.82C188.59 368.66 189.39 369.18 190.4 369.18C191.52 369.18 192.33 368.56 192.33 367.63C192.33 366.67 191.59 365.99 190.26 365.99L189.57 365.99L189.57 365.06L190.26 365.06C191.3 365.06 192.02 364.46 192.02 363.54C192.02 362.66 191.4 362.07 190.44 362.07C189.53 362.07 188.7 362.58 188.66 363.45L187.64 363.45C187.69 362.08 188.94 361.15 190.45 361.15C192.07 361.15 193.04 362.25 193.04 363.49C193.04 364.47 192.49 365.2 191.61 365.47L191.61 365.53C192.71 365.72 193.37 366.52 193.37 367.63C193.37 369.06 192.11 370.12 190.42 370.12C188.73 370.12 187.52 369.19 187.45 367.82ZM194.92 365.64C194.92 362.81 196.05 361.15 197.96 361.15C199.87 361.15 200.99 362.81 200.99 365.64C200.99 368.49 199.88 370.12 197.96 370.12C196.03 370.12 194.92 368.49 194.92 365.64ZM199.97 365.64C199.97 363.37 199.22 362.07 197.96 362.07C196.7 362.07 195.95 363.37 195.95 365.64C195.95 367.91 196.69 369.18 197.96 369.18C199.23 369.18 199.97 367.91 199.97 365.64ZM256.59 367.82L257.67 367.82C257.73 368.66 258.53 369.18 259.54 369.18C260.66 369.18 261.47 368.56 261.47 367.63C261.47 366.67 260.73 365.99 259.41 365.99L258.71 365.99L258.71 365.06L259.41 365.06C260.44 365.06 261.16 364.46 261.16 363.54C261.16 362.66 260.54 362.07 259.58 362.07C258.67 362.07 257.84 362.58 257.8 363.45L256.78 363.45C256.83 362.08 258.08 361.15 259.59 361.15C261.21 361.15 262.18 362.25 262.18 363.49C262.18 364.47 261.63 365.2 260.75 365.47L260.75 365.53C261.85 365.72 262.51 366.52 262.51 367.63C262.51 369.06 261.25 370.12 259.56 370.12C257.87 370.12 256.66 369.19 256.59 367.82ZM264.27 367.82L265.29 367.82C265.37 368.61 266.08 369.18 266.98 369.18C268.05 369.18 268.84 368.36 268.84 367.24C268.84 366.1 268.02 365.25 266.91 365.24C266.37 365.24 265.75 365.43 265.39 365.69L264.4 365.57L264.93 361.27L269.47 361.27L269.47 362.21L265.82 362.21L265.51 364.78L265.56 364.78C265.92 364.5 266.49 364.29 267.08 364.29C268.68 364.29 269.86 365.53 269.86 367.22C269.86 368.89 268.64 370.12 266.98 370.12C265.48 370.12 264.33 369.15 264.27 367.82ZM328.72 367.34L332.56 361.27L333.84 361.27L333.84 367.27L335.03 367.27L335.03 368.21L333.84 368.21L333.84 370L332.83 370L332.83 368.21L328.72 368.21L328.72 367.34ZM332.83 362.62L332.76 362.62L329.86 367.2L329.86 367.27L332.83 367.27L332.83 362.62ZM336.44 365.64C336.44 362.81 337.56 361.15 339.47 361.15C341.38 361.15 342.51 362.81 342.51 365.64C342.51 368.49 341.4 370.12 339.47 370.12C337.55 370.12 336.44 368.49 336.44 365.64ZM341.48 365.64C341.48 363.37 340.73 362.07 339.47 362.07C338.21 362.07 337.46 363.37 337.46 365.64C337.46 367.91 338.2 369.18 339.47 369.18C340.74 369.18 341.48 367.91 341.48 365.64ZM397.92 367.34L401.76 361.27L403.04 361.27L403.04 367.27L404.23 367.27L404.23 368.21L403.04 368.21L403.04 370L402.03 370L402.03 368.21L397.92 368.21L397.92 367.34ZM402.03 362.62L401.96 362.62L399.06 367.2L399.06 367.27L402.03 367.27L402.03 362.62ZM405.84 367.82L406.87 367.82C406.95 368.61 407.66 369.18 408.55 369.18C409.63 369.18 410.41 368.36 410.41 367.24C410.41 366.1 409.6 365.25 408.48 365.24C407.95 365.24 407.33 365.43 406.97 365.69L405.98 365.57L406.51 361.27L411.04 361.27L411.04 362.21L407.39 362.21L407.09 364.78L407.14 364.78C407.5 364.5 408.07 364.29 408.65 364.29C410.26 364.29 411.43 365.53 411.43 367.22C411.43 368.89 410.21 370.12 408.55 370.12C407.05 370.12 405.91 369.15 405.84 367.82ZM467.14 367.82L468.17 367.82C468.25 368.61 468.96 369.18 469.85 369.18C470.93 369.18 471.71 368.36 471.71 367.24C471.71 366.1 470.9 365.25 469.79 365.24C469.25 365.24 468.63 365.43 468.27 365.69L467.28 365.57L467.81 361.27L472.34 361.27L472.34 362.21L468.69 362.21L468.39 364.78L468.44 364.78C468.8 364.5 469.37 364.29 469.96 364.29C471.56 364.29 472.73 365.53 472.73 367.22C472.73 368.89 471.51 370.12 469.85 370.12C468.35 370.12 467.21 369.15 467.14 367.82ZM474.24 365.64C474.24 362.81 475.36 361.15 477.27 361.15C479.18 361.15 480.31 362.81 480.31 365.64C480.31 368.49 479.2 370.12 477.27 370.12C475.35 370.12 474.24 368.49 474.24 365.64ZM479.29 365.64C479.29 363.37 478.54 362.07 477.27 362.07C476.01 362.07 475.26 363.37 475.26 365.64C475.26 367.91 476 369.18 477.27 369.18C478.54 369.18 479.29 367.91 479.29 365.64ZM539.32 367.82L540.34 367.82C540.42 368.61 541.13 369.18 542.03 369.18C543.1 369.18 543.89 368.36 543.89 367.24C543.89 366.1 543.07 365.25 541.96 365.24C541.42 365.24 540.81 365.43 540.44 365.69L539.46 365.57L539.98 361.27L544.52 361.27L544.52 362.21L540.87 362.21L540.56 364.78L540.61 364.78C540.97 364.5 541.54 364.29 542.13 364.29C543.73 364.29 544.91 365.53 544.91 367.22C544.91 368.89 543.69 370.12 542.03 370.12C540.53 370.12 539.38 369.15 539.32 367.82ZM546.62 367.82L547.64 367.82C547.72 368.61 548.43 369.18 549.33 369.18C550.4 369.18 551.19 368.36 551.19 367.24C551.19 366.1 550.37 365.25 549.26 365.24C548.73 365.24 548.11 365.43 547.75 365.69L546.76 365.57L547.28 361.27L551.82 361.27L551.82 362.21L548.17 362.21L547.86 364.78L547.91 364.78C548.27 364.5 548.84 364.29 549.43 364.29C551.03 364.29 552.21 365.53 552.21 367.22C552.21 368.89 550.99 370.12 549.33 370.12C547.83 370.12 546.68 369.15 546.62 367.82Z" />
	<path id="Layer" fill-rule="evenodd" class="shp0" d="M36.09 52L35.04 52L35.04 44.38L34.98 44.38L32.85 45.8L32.85 44.72L35.04 43.27L36.09 43.27L36.09 52ZM38.62 49.82L39.64 49.82C39.72 50.61 40.44 51.18 41.33 51.18C42.4 51.18 43.19 50.36 43.19 49.24C43.19 48.1 42.37 47.25 41.26 47.24C40.72 47.24 40.11 47.43 39.74 47.69L38.76 47.57L39.28 43.27L43.82 43.27L43.82 44.21L40.17 44.21L39.86 46.78L39.92 46.78C40.27 46.5 40.84 46.29 41.43 46.29C43.03 46.29 44.21 47.53 44.21 49.22C44.21 50.89 42.99 52.12 41.33 52.12C39.83 52.12 38.68 51.15 38.62 49.82ZM35.89 102L34.84 102L34.84 94.38L34.79 94.38L32.65 95.8L32.65 94.72L34.84 93.27L35.89 93.27L35.89 102ZM38.22 97.64C38.22 94.81 39.34 93.15 41.25 93.15C43.16 93.15 44.28 94.81 44.28 97.64C44.28 100.49 43.18 102.12 41.25 102.12C39.32 102.12 38.22 100.49 38.22 97.64ZM43.26 97.64C43.26 95.37 42.51 94.07 41.25 94.07C39.99 94.07 39.24 95.37 39.24 97.64C39.24 99.91 39.98 101.18 41.25 101.18C42.52 101.18 43.26 99.91 43.26 97.64ZM38.62 149.82L39.64 149.82C39.72 150.61 40.44 151.18 41.33 151.18C42.4 151.18 43.19 150.36 43.19 149.24C43.19 148.1 42.37 147.25 41.26 147.24C40.72 147.24 40.11 147.43 39.74 147.69L38.76 147.57L39.28 143.27L43.82 143.27L43.82 144.21L40.17 144.21L39.86 146.78L39.92 146.78C40.27 146.5 40.84 146.29 41.43 146.29C43.03 146.29 44.21 147.53 44.21 149.22C44.21 150.89 42.99 152.12 41.33 152.12C39.83 152.12 38.68 151.15 38.62 149.82ZM38.22 197.64C38.22 194.81 39.34 193.15 41.25 193.15C43.16 193.15 44.28 194.81 44.28 197.64C44.28 200.49 43.18 202.12 41.25 202.12C39.32 202.12 38.22 200.49 38.22 197.64ZM43.26 197.64C43.26 195.37 42.51 194.07 41.25 194.07C39.99 194.07 39.24 195.37 39.24 197.64C39.24 199.91 39.98 201.18 41.25 201.18C42.52 201.18 43.26 199.91 43.26 197.64ZM36.85 248.11L33.03 248.11L33.03 247.17L36.85 247.17L36.85 248.11ZM38.62 249.82L39.64 249.82C39.72 250.61 40.44 251.18 41.33 251.18C42.4 251.18 43.19 250.36 43.19 249.24C43.19 248.1 42.37 247.25 41.26 247.24C40.72 247.24 40.11 247.43 39.74 247.69L38.76 247.57L39.28 243.27L43.82 243.27L43.82 244.21L40.17 244.21L39.86 246.78L39.92 246.78C40.27 246.5 40.84 246.29 41.43 246.29C43.03 246.29 44.21 247.53 44.21 249.22C44.21 250.89 42.99 252.12 41.33 252.12C39.83 252.12 38.68 251.15 38.62 249.82ZM31.07 298.11L27.25 298.11L27.25 297.17L31.07 297.17L31.07 298.11ZM35.89 302L34.84 302L34.84 294.38L34.79 294.38L32.65 295.8L32.65 294.72L34.84 293.27L35.89 293.27L35.89 302ZM38.22 297.64C38.22 294.81 39.34 293.15 41.25 293.15C43.16 293.15 44.28 294.81 44.28 297.64C44.28 300.49 43.18 302.12 41.25 302.12C39.32 302.12 38.22 300.49 38.22 297.64ZM43.26 297.64C43.26 295.37 42.51 294.07 41.25 294.07C39.99 294.07 39.24 295.37 39.24 297.64C39.24 299.91 39.98 301.18 41.25 301.18C42.52 301.18 43.26 299.91 43.26 297.64Z" />
	<path id="Layer" class="shp0" d="M182 276C179.24 276 177 273.76 177 271C177 268.24 179.24 266 182 266C184.76 266 187 268.24 187 271C187 273.76 184.76 276 182 276Z" />
	<path id="Layer" class="shp0" d="M164 222C161.24 222 159 219.76 159 217C159 214.24 161.24 212 164 212C166.76 212 169 214.24 169 217C169 219.76 166.76 222 164 222Z" />
	<path id="Layer" class="shp0" d="M221 217C218.24 217 216 214.76 216 212C216 209.24 218.24 207 221 207C223.76 207 226 209.24 226 212C226 214.76 223.76 217 221 217Z" />
	<path id="Layer" class="shp0" d="M221 227C218.24 227 216 224.76 216 222C216 219.24 218.24 217 221 217C223.76 217 226 219.24 226 222C226 224.76 223.76 227 221 227Z" />
	<path id="Layer" class="shp0" d="M249 240C246.24 240 244 237.76 244 235C244 232.24 246.24 230 249 230C251.76 230 254 232.24 254 235C254 237.76 251.76 240 249 240Z" />
	<path id="Layer" class="shp0" d="M263 177C260.24 177 258 174.76 258 172C258 169.24 260.24 167 263 167C265.76 167 268 169.24 268 172C268 174.76 265.76 177 263 177Z" />
	<path id="Layer" class="shp0" d="M234 175C231.24 175 229 172.76 229 170C229 167.24 231.24 165 234 165C236.76 165 239 167.24 239 170C239 172.76 236.76 175 234 175Z" />
	<path id="Layer" class="shp0" d="M234 144C231.24 144 229 141.76 229 139C229 136.24 231.24 134 234 134C236.76 134 239 136.24 239 139C239 141.76 236.76 144 234 144Z" />
	<path id="Layer" class="shp0" d="M279 103C276.24 103 274 100.77 274 98C274 95.23 276.24 93 279 93C281.76 93 284 95.23 284 98C284 100.77 281.76 103 279 103Z" />
	<path id="Layer" class="shp0" d="M357 67C354.24 67 352 64.77 352 62C352 59.23 354.24 57 357 57C359.76 57 362 59.23 362 62C362 64.77 359.76 67 357 67Z" />
	<path id="Layer" class="shp0" d="M312 157C309.24 157 307 154.76 307 152C307 149.24 309.24 147 312 147C314.76 147 317 149.24 317 152C317 154.76 314.76 157 312 157Z" />
	<path id="Layer" class="shp0" d="M347 173C344.24 173 342 170.76 342 168C342 165.24 344.24 163 347 163C349.76 163 352 165.24 352 168C352 170.76 349.76 173 347 173Z" />
	<path id="Layer" class="shp0" d="M382 164C379.24 164 377 161.76 377 159C377 156.24 379.24 154 382 154C384.76 154 387 156.24 387 159C387 161.76 384.76 164 382 164Z" />
	<path id="Layer" class="shp0" d="M349 215C346.24 215 344 212.76 344 210C344 207.24 346.24 205 349 205C351.76 205 354 207.24 354 210C354 212.76 351.76 215 349 215Z" />
	<path id="Layer" class="shp0" d="M421 134C418.24 134 416 131.76 416 129C416 126.24 418.24 124 421 124C423.76 124 426 126.24 426 129C426 131.76 423.76 134 421 134Z" />
	<path id="Layer" class="shp0" d="M464 191C461.24 191 459 188.76 459 186C459 183.24 461.24 181 464 181C466.76 181 469 183.24 469 186C469 188.76 466.76 191 464 191Z" />
	<path id="Layer" class="shp0" d="M519 116C516.24 116 514 113.76 514 111C514 108.24 516.24 106 519 106C521.76 106 524 108.24 524 111C524 113.76 521.76 116 519 116Z" />
</svg>