<svg width="28" height="30" viewBox="0 0 28 30" fill="none" xmlns="http://www.w3.org/2000/svg">
<path d="M5.71113 30C4.16391 30.0001 2.62189 29.3716 1.49751 28.1329C0.468037 26.9988 -0.0617178 25.5285 0.00573099 23.9926C0.0731798 22.4568 0.729811 21.0395 1.85472 20.0017L17.0799 5.95407C17.7721 5.31538 18.6699 4.98636 19.607 5.02856C20.5445 5.07041 21.4096 5.47783 22.0431 6.17572C22.6766 6.87361 23.0026 7.7784 22.9611 8.7235C22.9196 9.6686 22.5156 10.5409 21.8233 11.1795L8.2178 23.7327L7.03195 22.4263L20.6375 9.87319C20.9836 9.55385 21.1856 9.11775 21.2064 8.64517C21.2272 8.17259 21.0641 7.72019 20.7474 7.37122C20.4306 7.02224 19.998 6.81859 19.5293 6.79764C19.06 6.77657 18.6118 6.94108 18.2657 7.26036L3.04064 21.308C2.26181 22.0266 1.80729 23.0078 1.76057 24.0711C1.71385 25.1343 2.0806 26.1522 2.79332 26.9374C3.50599 27.7225 4.47931 28.1808 5.5339 28.2279C6.58838 28.2751 7.59823 27.9052 8.37694 27.1867L24.25 12.5413C25.4613 11.4236 26.1685 9.89716 26.2412 8.24324C26.3138 6.58933 25.7433 5.0059 24.6347 3.7846C23.5261 2.56331 22.012 1.8503 20.3715 1.77705C18.7308 1.70391 17.1604 2.27897 15.9491 3.39667L1.6957 16.5477L0.509841 15.2413L14.7632 2.09037C16.3208 0.653329 18.3404 -0.0860004 20.4492 0.00797261C22.5584 0.102182 24.5051 1.01883 25.9304 2.58904C28.8728 5.83058 28.6509 10.8812 25.4358 13.8476L9.56268 28.493C8.46921 29.5019 7.08809 29.9999 5.71113 30Z" fill="#FF9900"/>
</svg>
