<svg width="344" height="184" viewBox="0 0 344 184" fill="none" xmlns="http://www.w3.org/2000/svg">
<path d="M135.716 56.2612C127.197 40.6492 111.758 33.1401 91.4967 33.1401C80.8734 33.1401 71.4496 35.5379 63.2252 40.3333C55.0008 45.1288 48.5755 51.9795 43.9492 60.8854C39.323 69.7912 37.0099 80.0673 37.0099 91.7134C37.0099 103.702 39.323 114.149 43.9492 123.055C48.7468 131.961 55.3435 138.812 63.7392 143.607C72.135 148.403 81.9015 150.8 93.0387 150.8C120.036 150.8 138.68 135.094 142.802 109.44H82.2442V81.9512H179.395C181.41 120.362 168.625 155.331 133.39 173.665C121.053 180.001 107.174 183.17 91.7537 183.17C74.4481 183.17 58.7703 179.316 44.7203 171.609C30.8416 163.731 19.8757 152.856 11.8226 138.983C3.94087 125.11 0 109.354 0 91.7134C0 74.0729 3.94087 58.3164 11.8226 44.4437C19.8757 30.3999 30.8416 19.5244 44.7203 11.8174C58.7703 3.93914 74.3624 0 91.4967 0C111.715 0 129.278 4.96674 144.184 14.9002C159.091 24.6624 169.372 38.4494 175.026 56.2612H135.716Z" fill="#FAF6F0"/>
<path d="M269.241 183.941C255.534 183.941 243.197 180.943 232.231 174.949C221.265 168.783 212.613 160.135 206.273 149.002C200.105 137.87 197.021 125.025 197.021 110.467C197.021 95.9094 200.19 83.0644 206.53 71.9321C213.041 60.7997 221.865 52.2364 233.002 46.2421C244.14 40.0764 256.562 36.9936 270.269 36.9936C283.977 36.9936 296.399 40.0764 307.536 46.2421C318.673 52.2364 327.412 60.7997 333.752 71.9321C340.263 83.0644 343.518 95.9094 343.518 110.467C343.518 125.025 340.177 137.87 333.494 149.002C326.983 160.135 318.074 168.783 306.765 174.949C295.628 180.943 283.12 183.941 269.241 183.941ZM269.241 152.599C275.752 152.599 281.835 151.057 287.489 147.975C293.315 144.72 297.941 139.925 301.368 133.588C304.795 127.251 306.508 119.544 306.508 110.467C306.508 96.937 302.91 86.5754 295.714 79.3822C288.689 72.0177 280.036 68.3355 269.755 68.3355C259.475 68.3355 250.822 72.0177 243.797 79.3822C236.943 86.5754 233.516 96.937 233.516 110.467C233.516 123.997 236.858 134.444 243.54 141.809C250.394 149.002 258.961 152.599 269.241 152.599Z" fill="#FAF6F0"/>
</svg>
