<svg width="1280" height="193" viewBox="0 0 1280 193" fill="none" xmlns="http://www.w3.org/2000/svg">
<path d="M135.716 64.7389C127.197 49.1269 111.758 41.6178 91.4967 41.6178C80.8734 41.6178 71.4496 44.0156 63.2252 48.8111C55.0008 53.6065 48.5755 60.4572 43.9492 69.3631C39.323 78.269 37.0099 88.545 37.0099 100.191C37.0099 112.18 39.323 122.627 43.9492 131.533C48.7468 140.439 55.3435 147.289 63.7392 152.085C72.135 156.88 81.9015 159.278 93.0387 159.278C120.036 159.278 138.68 143.572 142.802 117.917H82.2442V90.4289H179.395C181.41 128.84 168.625 163.809 133.39 182.142C121.053 188.479 107.174 191.648 91.7537 191.648C74.4481 191.648 58.7703 187.794 44.7203 180.087C30.8416 172.209 19.8757 161.333 11.8226 147.461C3.94087 133.588 0 117.832 0 100.191C0 82.5506 3.94087 66.7941 11.8226 52.9214C19.8757 38.8776 30.8416 28.0021 44.7203 20.2951C58.7703 12.4168 74.3624 8.47771 91.4967 8.47771C111.715 8.47771 129.278 13.4444 144.184 23.3779C159.091 33.1401 169.372 46.9271 175.026 64.7389H135.716Z" fill="#FAF6F0"/>
<path d="M269.241 192.418C255.534 192.418 243.197 189.421 232.231 183.427C221.265 177.261 212.613 168.612 206.273 157.48C200.105 146.348 197.021 133.503 197.021 118.945C197.021 104.387 200.19 91.5421 206.53 80.4098C213.041 69.2774 221.865 60.7141 233.002 54.7198C244.14 48.5541 256.562 45.4713 270.269 45.4713C283.977 45.4713 296.399 48.5541 307.536 54.7198C318.673 60.7141 327.412 69.2774 333.752 80.4098C340.263 91.5421 343.518 104.387 343.518 118.945C343.518 133.503 340.177 146.348 333.494 157.48C326.983 168.612 318.074 177.261 306.765 183.427C295.628 189.421 283.12 192.418 269.241 192.418ZM269.241 161.076C275.752 161.076 281.835 159.535 287.489 156.452C293.315 153.198 297.941 148.403 301.368 142.066C304.795 135.729 306.508 128.022 306.508 118.945C306.508 105.415 302.91 95.0531 295.714 87.8599C288.689 80.4954 280.036 76.8132 269.755 76.8132C259.475 76.8132 250.822 80.4954 243.797 87.8599C236.943 95.0531 233.516 105.415 233.516 118.945C233.516 132.475 236.858 142.922 243.54 150.287C250.394 157.48 258.961 161.076 269.241 161.076Z" fill="#FAF6F0"/>
<path d="M433.137 192.418C419.43 192.418 407.093 189.421 396.127 183.427C385.161 177.261 376.509 168.612 370.169 157.48C364.001 146.348 360.917 133.503 360.917 118.945C360.917 104.387 364.086 91.5421 370.426 80.4098C376.937 69.2774 385.761 60.7141 396.898 54.7198C408.036 48.5541 420.458 45.4713 434.165 45.4713C447.873 45.4713 460.295 48.5541 471.432 54.7198C482.569 60.7141 491.308 69.2774 497.648 80.4098C504.159 91.5421 507.414 104.387 507.414 118.945C507.414 133.503 504.073 146.348 497.39 157.48C490.879 168.612 481.97 177.261 470.661 183.427C459.524 189.421 447.016 192.418 433.137 192.418ZM433.137 161.076C439.648 161.076 445.731 159.535 451.385 156.452C457.211 153.198 461.837 148.403 465.264 142.066C468.691 135.729 470.404 128.022 470.404 118.945C470.404 105.415 466.806 95.0531 459.61 87.8599C452.585 80.4954 443.932 76.8132 433.651 76.8132C423.371 76.8132 414.718 80.4954 407.693 87.8599C400.839 95.0531 397.412 105.415 397.412 118.945C397.412 132.475 400.754 142.922 407.436 150.287C414.29 157.48 422.857 161.076 433.137 161.076Z" fill="#FAF6F0"/>
<path d="M524.556 118.431C524.556 104.045 527.383 91.2852 533.037 80.1529C538.863 69.0205 546.744 60.4572 556.682 54.4629C566.62 48.4685 577.672 45.4713 589.837 45.4713C599.089 45.4713 607.914 47.5265 616.309 51.6369C624.705 55.5761 631.387 60.8854 636.356 67.5648V0H672.852V190.106H636.356V169.04C631.901 176.062 625.647 181.714 617.594 185.996C609.541 190.277 600.203 192.418 589.58 192.418C577.586 192.418 566.62 189.336 556.682 183.17C546.744 177.004 538.863 168.355 533.037 157.223C527.383 145.919 524.556 132.989 524.556 118.431ZM636.613 118.945C636.613 110.21 634.9 102.76 631.473 96.5945C628.046 90.2576 623.42 85.4622 617.594 82.2081C611.769 78.7827 605.515 77.0701 598.832 77.0701C592.15 77.0701 585.982 78.6971 580.327 81.9512C574.673 85.2053 570.047 90.0007 566.449 96.3376C563.022 102.503 561.308 109.868 561.308 118.431C561.308 126.994 563.022 134.53 566.449 141.038C570.047 147.375 574.673 152.256 580.327 155.682C586.153 159.107 592.321 160.82 598.832 160.82C605.515 160.82 611.769 159.193 617.594 155.938C623.42 152.513 628.046 147.718 631.473 141.552C634.9 135.215 636.613 127.679 636.613 118.945Z" fill="#FAF6F0"/>
<path d="M741.69 157.994H807.229V190.106H705.708V0H741.69V157.994Z" fill="#FAF6F0"/>
<path d="M816.491 118.431C816.491 104.045 819.318 91.2852 824.972 80.1529C830.798 69.0205 838.594 60.4572 848.36 54.4629C858.298 48.4685 869.35 45.4713 881.515 45.4713C892.138 45.4713 901.391 47.6122 909.272 51.8938C917.325 56.1755 923.751 61.5704 928.548 68.0786V47.7835H964.787V190.106H928.548V169.297C923.922 175.977 917.497 181.543 909.272 185.996C901.219 190.277 891.881 192.418 881.258 192.418C869.264 192.418 858.298 189.336 848.36 183.17C838.594 177.004 830.798 168.355 824.972 157.223C819.318 145.919 816.491 132.989 816.491 118.431ZM928.548 118.945C928.548 110.21 926.835 102.76 923.408 96.5945C919.981 90.2576 915.355 85.4622 909.529 82.2081C903.704 78.7827 897.45 77.0701 890.767 77.0701C884.085 77.0701 877.917 78.6971 872.262 81.9512C866.608 85.2053 861.982 90.0007 858.384 96.3376C854.957 102.503 853.243 109.868 853.243 118.431C853.243 126.994 854.957 134.53 858.384 141.038C861.982 147.375 866.608 152.256 872.262 155.682C878.088 159.107 884.256 160.82 890.767 160.82C897.45 160.82 903.704 159.193 909.529 155.938C915.355 152.513 919.981 147.718 923.408 141.552C926.835 135.215 928.548 127.679 928.548 118.945Z" fill="#FAF6F0"/>
<path d="M1033.63 68.5924C1038.25 61.7417 1044.59 56.1755 1052.64 51.8938C1060.87 47.6122 1070.21 45.4713 1080.66 45.4713C1092.82 45.4713 1103.79 48.4685 1113.56 54.4629C1123.49 60.4572 1131.29 69.0205 1136.94 80.1529C1142.77 91.114 1145.68 103.873 1145.68 118.431C1145.68 132.989 1142.77 145.919 1136.94 157.223C1131.29 168.355 1123.49 177.004 1113.56 183.17C1103.79 189.336 1092.82 192.418 1080.66 192.418C1070.04 192.418 1060.7 190.363 1052.64 186.253C1044.76 181.971 1038.42 176.49 1033.63 169.811V190.106H997.643V0H1033.63V68.5924ZM1108.93 118.431C1108.93 109.868 1107.13 102.503 1103.53 96.3376C1100.11 90.0007 1095.48 85.2053 1089.65 81.9512C1084 78.6971 1077.83 77.0701 1071.15 77.0701C1064.64 77.0701 1058.47 78.7827 1052.64 82.2081C1046.99 85.4622 1042.36 90.2576 1038.77 96.5945C1035.34 102.931 1033.63 110.381 1033.63 118.945C1033.63 127.508 1035.34 134.958 1038.77 141.295C1042.36 147.632 1046.99 152.513 1052.64 155.938C1058.47 159.193 1064.64 160.82 1071.15 160.82C1077.83 160.82 1084 159.107 1089.65 155.682C1095.48 152.256 1100.11 147.375 1103.53 141.038C1107.13 134.701 1108.93 127.166 1108.93 118.431Z" fill="#FAF6F0"/>
<path d="M1223.97 192.418C1212.32 192.418 1201.87 190.363 1192.62 186.253C1183.36 181.971 1176 176.234 1170.51 169.04C1165.2 161.847 1162.29 153.883 1161.77 145.149H1198.01C1198.7 150.629 1201.35 155.168 1205.98 158.764C1210.78 162.361 1216.69 164.159 1223.71 164.159C1230.57 164.159 1235.88 162.789 1239.65 160.049C1243.59 157.309 1245.56 153.798 1245.56 149.516C1245.56 144.892 1243.16 141.466 1238.36 139.24C1233.74 136.842 1226.28 134.273 1216 131.533C1205.38 128.964 1196.64 126.309 1189.79 123.569C1183.11 120.829 1177.28 116.633 1172.31 110.981C1167.51 105.329 1165.12 97.7077 1165.12 88.1168C1165.12 80.2385 1167.34 73.0453 1171.8 66.5372C1176.42 60.029 1182.93 54.891 1191.33 51.1232C1199.9 47.3553 1209.92 45.4713 1221.4 45.4713C1238.36 45.4713 1251.9 49.753 1262.01 58.3164C1272.12 66.7084 1277.69 78.0977 1278.71 92.4841H1244.28C1243.76 86.8323 1241.36 82.3793 1237.08 79.1253C1232.97 75.6999 1227.4 73.9873 1220.37 73.9873C1213.86 73.9873 1208.81 75.1861 1205.21 77.5839C1201.78 79.9816 1200.07 83.3213 1200.07 87.603C1200.07 92.3985 1202.47 96.0807 1207.27 98.6497C1212.06 101.047 1219.52 103.531 1229.63 106.1C1239.91 108.669 1248.39 111.323 1255.07 114.064C1261.75 116.804 1267.49 121.086 1272.29 126.909C1277.26 132.561 1279.83 140.096 1280 149.516C1280 157.737 1277.69 165.101 1273.06 171.609C1268.61 178.118 1262.09 183.256 1253.53 187.023C1245.13 190.62 1235.28 192.418 1223.97 192.418Z" fill="#FAF6F0"/>
</svg>
