<svg width="228" height="127" viewBox="0 0 228 127" fill="none" xmlns="http://www.w3.org/2000/svg">
<path d="M4.53849 109.307H13.5509V116.792H15.5083V101.736H13.5509V108.318H4.53849V101.736H2.58113V116.792H4.53849V109.307ZM32.798 101.736V113.243H32.712L20.7742 101.478H20.6667V116.792H21.6561V105.285H21.7422L33.6799 117.051H33.7875V101.736H32.798Z" fill="#202124"/>
<path d="M54.5049 39.3584V50.866H54.4189L42.4812 39.1003H42.3736V54.415H43.363V42.9075H43.4491L55.3868 54.6732H55.4944V39.3584H54.5049Z" fill="#202124"/>
<path d="M118.538 109.307H127.551V116.792H129.508V101.736H127.551V108.318H118.538V101.736H116.581V116.792H118.538V109.307ZM156.469 101.736V113.243H156.383L144.445 101.478H144.338V116.792H145.327V105.285H145.413L157.351 117.051H157.458V101.736H156.469Z" fill="#202124"/>
<path d="M136.171 116.191C136.397 116.191 136.655 116.17 136.945 116.127C137.247 116.073 137.526 115.971 137.784 115.82C138.053 115.659 138.274 115.433 138.446 115.143C138.628 114.852 138.72 114.471 138.72 113.997C138.72 113.707 138.677 113.433 138.591 113.175C138.516 112.906 138.392 112.669 138.22 112.465C138.058 112.25 137.849 112.083 137.591 111.965C137.333 111.836 137.026 111.771 136.671 111.771C136.445 111.771 136.23 111.798 136.026 111.852C135.822 111.906 135.639 112.008 135.477 112.158C135.316 112.298 135.182 112.497 135.074 112.755C134.967 113.013 134.891 113.341 134.848 113.739H133.412C133.423 113.449 133.482 113.148 133.59 112.836C133.708 112.513 133.896 112.223 134.155 111.965C134.413 111.696 134.751 111.481 135.171 111.319C135.59 111.147 136.117 111.061 136.752 111.061C137.333 111.061 137.833 111.147 138.252 111.319C138.682 111.481 139.032 111.701 139.301 111.981C139.58 112.25 139.785 112.567 139.914 112.933C140.043 113.298 140.107 113.68 140.107 114.078C140.107 114.637 139.957 115.094 139.656 115.449C139.354 115.793 138.897 116.095 138.284 116.353L138.107 116.417V116.53L138.284 116.562C138.639 116.616 138.957 116.734 139.236 116.917C139.516 117.089 139.752 117.304 139.946 117.563C140.15 117.81 140.306 118.09 140.414 118.401C140.521 118.703 140.575 119.004 140.575 119.305C140.575 119.735 140.489 120.154 140.317 120.563C140.156 120.972 139.908 121.337 139.575 121.66C139.242 121.972 138.822 122.225 138.317 122.418C137.822 122.612 137.241 122.709 136.574 122.709C136.101 122.719 135.655 122.655 135.235 122.515C134.816 122.375 134.445 122.182 134.122 121.934C133.81 121.676 133.558 121.38 133.364 121.047C133.181 120.714 133.09 120.364 133.09 119.998H134.703C134.714 120.257 134.768 120.509 134.864 120.757C134.972 121.004 135.112 121.219 135.284 121.402C135.467 121.585 135.682 121.735 135.929 121.854C136.176 121.961 136.456 122.015 136.768 122.015C137.413 122.015 137.935 121.8 138.333 121.37C138.741 120.94 138.946 120.273 138.946 119.369C138.946 119.176 138.924 118.939 138.881 118.66C138.838 118.38 138.725 118.111 138.542 117.853C138.37 117.584 138.096 117.358 137.72 117.175C137.343 116.993 136.827 116.901 136.171 116.901V116.191Z" fill="#202124"/>
<path d="M174.226 12.4717C174.226 13.2747 174.377 14.1351 174.678 15.0528C174.994 15.9562 175.481 16.7951 176.141 17.5694C176.8 18.3438 177.639 18.9891 178.657 19.5053C179.675 20.0072 180.894 20.2581 182.314 20.2581C183.275 20.2581 184.142 20.1434 184.917 19.914C185.705 19.6702 186.408 19.3475 187.024 18.946C187.655 18.5445 188.2 18.0857 188.659 17.5694C189.118 17.0389 189.491 16.4868 189.778 15.9132C190.079 15.3253 190.301 14.7374 190.444 14.1494C190.602 13.5615 190.681 13.0023 190.681 12.4717C190.681 11.6687 190.516 10.8155 190.186 9.91208C189.857 8.99434 189.347 8.1483 188.659 7.37396C187.971 6.59962 187.096 5.96151 186.035 5.45962C184.988 4.9434 183.748 4.68528 182.314 4.68528C180.894 4.68528 179.675 4.93623 178.657 5.43811C177.639 5.94 176.8 6.57811 176.141 7.35245C175.481 8.11245 174.994 8.95132 174.678 9.86906C174.377 10.7868 174.226 11.6543 174.226 12.4717ZM176.334 12.4717C176.334 11.4679 176.485 10.5502 176.786 9.71849C177.101 8.87245 177.524 8.1483 178.055 7.54604C178.6 6.94377 179.238 6.47773 179.969 6.14792C180.701 5.80377 181.497 5.6317 182.357 5.6317C183.203 5.6317 183.999 5.80377 184.744 6.14792C185.504 6.47773 186.164 6.94377 186.723 7.54604C187.297 8.1483 187.749 8.87245 188.078 9.71849C188.408 10.5502 188.573 11.4679 188.573 12.4717C188.573 13.4755 188.408 14.4004 188.078 15.2464C187.749 16.0781 187.297 16.7951 186.723 17.3974C186.164 17.9996 185.504 18.4728 184.744 18.817C183.999 19.1468 183.203 19.3117 182.357 19.3117C181.497 19.3117 180.701 19.1468 179.969 18.817C179.238 18.4728 178.6 17.9996 178.055 17.3974C177.524 16.7951 177.101 16.0781 176.786 15.2464C176.485 14.4004 176.334 13.4755 176.334 12.4717Z" fill="#202124"/>
<path d="M209.717 74.8491C209.717 75.6522 209.868 76.5125 210.169 77.4303C210.484 78.3337 210.972 79.1725 211.631 79.9469C212.291 80.7212 213.13 81.3665 214.148 81.8827C215.166 82.3846 216.385 82.6356 217.805 82.6356C218.765 82.6356 219.633 82.5208 220.407 82.2914C221.196 82.0476 221.899 81.725 222.515 81.3235C223.146 80.922 223.691 80.4631 224.15 79.9469C224.609 79.4163 224.982 78.8642 225.268 78.2906C225.57 77.7027 225.792 77.1148 225.935 76.5269C226.093 75.939 226.172 75.3797 226.172 74.8491C226.172 74.0461 226.007 73.1929 225.677 72.2895C225.347 71.3718 224.838 70.5257 224.15 69.7514C223.462 68.9771 222.587 68.339 221.526 67.8371C220.479 67.3208 219.239 67.0627 217.805 67.0627C216.385 67.0627 215.166 67.3137 214.148 67.8156C213.13 68.3174 212.291 68.9556 211.631 69.7299C210.972 70.4899 210.484 71.3288 210.169 72.2465C209.868 73.1642 209.717 74.0318 209.717 74.8491ZM211.825 74.8491C211.825 73.8454 211.976 72.9276 212.277 72.0959C212.592 71.2499 213.015 70.5257 213.546 69.9235C214.091 69.3212 214.729 68.8552 215.46 68.5254C216.191 68.1812 216.987 68.0091 217.848 68.0091C218.694 68.0091 219.49 68.1812 220.235 68.5254C220.995 68.8552 221.655 69.3212 222.214 69.9235C222.788 70.5257 223.239 71.2499 223.569 72.0959C223.899 72.9276 224.064 73.8454 224.064 74.8491C224.064 75.8529 223.899 76.7778 223.569 77.6239C223.239 78.4556 222.788 79.1725 222.214 79.7748C221.655 80.3771 220.995 80.8503 220.235 81.1944C219.49 81.5242 218.694 81.6891 217.848 81.6891C216.987 81.6891 216.191 81.5242 215.46 81.1944C214.729 80.8503 214.091 80.3771 213.546 79.7748C213.015 79.1725 212.592 78.4556 212.277 77.6239C211.976 76.7778 211.825 75.8529 211.825 74.8491Z" fill="#202124"/>
<path d="M188.208 25.2737V49.4718L208.641 62.3775" stroke="#202124" stroke-width="1.61321" stroke-dasharray="5.38 5.38"/>
<path d="M22.0473 95.717L14.519 71.5189L36.0285 56.4623M59.6889 56.4623L79.5851 71.5189M79.5851 71.5189L67.7549 110.236H40.8681M79.5851 71.5189L115.076 51.0849L150.566 71.5189M150.566 71.5189L181.755 53.7736M150.566 71.5189L146.264 95.717H154.33L150.566 71.5189ZM181.755 53.7736V24.7358M181.755 53.7736L207.028 68.2924M71.519 74.2075L62.9153 102.17M39.2549 62.3773L22.0473 74.2075" stroke="#202124" stroke-width="1.61321"/>
<path d="M172.075 95.9126V104.125M167.969 100.019H176.182M178.528 100.019C178.528 103.583 175.639 106.472 172.075 106.472C168.512 106.472 165.623 103.583 165.623 100.019C165.623 96.4552 168.512 93.5662 172.075 93.5662C175.639 93.5662 178.528 96.4552 178.528 100.019Z" stroke="#202124" stroke-width="1.61321"/>
<path d="M200.233 40.8679H208.446M210.792 40.8679C210.792 44.4317 207.903 47.3207 204.34 47.3207C200.776 47.3207 197.887 44.4317 197.887 40.8679C197.887 37.3041 200.776 34.415 204.34 34.415C207.903 34.415 210.792 37.3041 210.792 40.8679Z" stroke="#202124" stroke-width="1.61321"/>
</svg>
