<svg width="251" height="119" viewBox="0 0 251 119" fill="none" xmlns="http://www.w3.org/2000/svg">
<path d="M59.5171 43.3492V54.8567H59.4311L47.4934 43.091H47.3858V58.4058H48.3753V46.8982H48.4613L60.399 58.6639H60.5066V43.3492H59.5171ZM49.3432 69.9205H58.3556V77.4058H60.313V62.3492H58.3556V68.931H49.3432V62.3492H47.3858V77.4058H49.3432V69.9205Z" fill="#202124"/>
<path d="M144.594 102.765H153.607V110.25H155.564V95.1934H153.607V101.775H144.594V95.1934H142.637V110.25H144.594V102.765ZM172.854 95.1934V106.701H172.768L160.83 94.9353H160.722V110.25H161.712V98.7425H161.798L173.736 110.508H173.843V95.1934H172.854Z" fill="#202124"/>
<path d="M185.692 114.056H178.272L181.32 110.652C181.589 110.329 181.874 109.98 182.175 109.603C182.487 109.227 182.772 108.829 183.03 108.409C183.289 107.99 183.504 107.554 183.676 107.103C183.848 106.651 183.934 106.189 183.934 105.715C183.934 104.973 183.735 104.382 183.337 103.941C182.95 103.5 182.45 103.279 181.837 103.279C181.471 103.279 181.165 103.349 180.917 103.489C180.681 103.629 180.482 103.817 180.32 104.054C180.17 104.28 180.057 104.548 179.982 104.86C179.906 105.162 179.852 105.479 179.82 105.812H178.207C178.207 105.36 178.298 104.936 178.481 104.538C178.664 104.14 178.917 103.796 179.239 103.505C179.573 103.215 179.96 102.989 180.401 102.828C180.842 102.656 181.32 102.57 181.837 102.57C182.417 102.57 182.939 102.656 183.402 102.828C183.864 102.989 184.251 103.215 184.563 103.505C184.875 103.796 185.112 104.134 185.273 104.522C185.445 104.898 185.531 105.296 185.531 105.715C185.531 106.242 185.477 106.694 185.37 107.07C185.273 107.447 185.112 107.813 184.886 108.167C184.671 108.512 184.386 108.877 184.031 109.264C183.687 109.652 183.267 110.114 182.772 110.652L180.675 112.894H185.692V114.056Z" fill="#202124"/>
<path d="M179.917 12.4717C179.917 13.2747 180.068 14.1351 180.369 15.0528C180.684 15.9562 181.172 16.7951 181.832 17.5694C182.491 18.3438 183.33 18.9891 184.348 19.5053C185.366 20.0072 186.585 20.2581 188.005 20.2581C188.966 20.2581 189.833 20.1434 190.607 19.914C191.396 19.6702 192.099 19.3475 192.715 18.946C193.346 18.5445 193.891 18.0857 194.35 17.5694C194.809 17.0389 195.182 16.4868 195.469 15.9132C195.77 15.3253 195.992 14.7374 196.135 14.1494C196.293 13.5615 196.372 13.0023 196.372 12.4717C196.372 11.6687 196.207 10.8155 195.877 9.91208C195.547 8.99434 195.038 8.1483 194.35 7.37396C193.662 6.59962 192.787 5.96151 191.726 5.45962C190.679 4.9434 189.439 4.68528 188.005 4.68528C186.585 4.68528 185.366 4.93623 184.348 5.43811C183.33 5.94 182.491 6.57811 181.832 7.35245C181.172 8.11245 180.684 8.95132 180.369 9.86906C180.068 10.7868 179.917 11.6543 179.917 12.4717ZM182.025 12.4717C182.025 11.4679 182.176 10.5502 182.477 9.71849C182.792 8.87245 183.215 8.1483 183.746 7.54604C184.291 6.94377 184.929 6.47773 185.66 6.14792C186.392 5.80377 187.187 5.6317 188.048 5.6317C188.894 5.6317 189.69 5.80377 190.435 6.14792C191.195 6.47773 191.855 6.94377 192.414 7.54604C192.988 8.1483 193.44 8.87245 193.769 9.71849C194.099 10.5502 194.264 11.4679 194.264 12.4717C194.264 13.4755 194.099 14.4004 193.769 15.2464C193.44 16.0781 192.988 16.7951 192.414 17.3974C191.855 17.9996 191.195 18.4728 190.435 18.817C189.69 19.1468 188.894 19.3117 188.048 19.3117C187.187 19.3117 186.392 19.1468 185.66 18.817C184.929 18.4728 184.291 17.9996 183.746 17.3974C183.215 16.7951 182.792 16.0781 182.477 15.2464C182.176 14.4004 182.025 13.4755 182.025 12.4717Z" fill="#202124"/>
<path d="M70.2044 12.4717C70.2044 13.2747 70.3549 14.1351 70.6561 15.0528C70.9715 15.9562 71.4591 16.7951 72.1187 17.5694C72.7783 18.3438 73.6172 18.9891 74.6353 19.5053C75.6534 20.0072 76.8723 20.2581 78.2919 20.2581C79.2527 20.2581 80.1202 20.1434 80.8946 19.914C81.6832 19.6702 82.3859 19.3475 83.0025 18.946C83.6334 18.5445 84.1783 18.0857 84.6372 17.5694C85.0961 17.0389 85.4689 16.4868 85.7557 15.9132C86.0568 15.3253 86.2791 14.7374 86.4225 14.1494C86.5802 13.5615 86.6591 13.0023 86.6591 12.4717C86.6591 11.6687 86.4942 10.8155 86.1644 9.91208C85.8346 8.99434 85.3255 8.1483 84.6372 7.37396C83.9489 6.59962 83.0742 5.96151 82.0131 5.45962C80.9663 4.9434 79.7259 4.68528 78.2919 4.68528C76.8723 4.68528 75.6534 4.93623 74.6353 5.43811C73.6172 5.94 72.7783 6.57811 72.1187 7.35245C71.4591 8.11245 70.9715 8.95132 70.6561 9.86906C70.3549 10.7868 70.2044 11.6543 70.2044 12.4717ZM72.3123 12.4717C72.3123 11.4679 72.4629 10.5502 72.764 9.71849C73.0795 8.87245 73.5025 8.1483 74.0331 7.54604C74.578 6.94377 75.2161 6.47773 75.9474 6.14792C76.6787 5.80377 77.4746 5.6317 78.3349 5.6317C79.181 5.6317 79.9768 5.80377 80.7225 6.14792C81.4825 6.47773 82.1421 6.94377 82.7014 7.54604C83.2749 8.1483 83.7266 8.87245 84.0565 9.71849C84.3863 10.5502 84.5512 11.4679 84.5512 12.4717C84.5512 13.4755 84.3863 14.4004 84.0565 15.2464C83.7266 16.0781 83.2749 16.7951 82.7014 17.3974C82.1421 17.9996 81.4825 18.4728 80.7225 18.817C79.9768 19.1468 79.181 19.3117 78.3349 19.3117C77.4746 19.3117 76.6787 19.1468 75.9474 18.817C75.2161 18.4728 74.578 17.9996 74.0331 17.3974C73.5025 16.7951 73.0795 16.0781 72.764 15.2464C72.4629 14.4004 72.3123 13.4755 72.3123 12.4717Z" fill="#202124"/>
<path d="M215.075 63.4717C215.075 64.2747 215.226 65.1351 215.527 66.0528C215.843 66.9562 216.33 67.7951 216.99 68.5694C217.649 69.3438 218.488 69.9891 219.506 70.5053C220.525 71.0072 221.743 71.2581 223.163 71.2581C224.124 71.2581 224.991 71.1434 225.766 70.914C226.554 70.6702 227.257 70.3475 227.874 69.946C228.505 69.5445 229.049 69.0857 229.508 68.5694C229.967 68.0389 230.34 67.4868 230.627 66.9132C230.928 66.3253 231.15 65.7374 231.294 65.1494C231.451 64.5615 231.53 64.0023 231.53 63.4717C231.53 62.6687 231.365 61.8155 231.035 60.9121C230.706 59.9943 230.197 59.1483 229.508 58.374C228.82 57.5996 227.945 56.9615 226.884 56.4596C225.837 55.9434 224.597 55.6853 223.163 55.6853C221.743 55.6853 220.525 55.9362 219.506 56.4381C218.488 56.94 217.649 57.5781 216.99 58.3525C216.33 59.1125 215.843 59.9513 215.527 60.8691C215.226 61.7868 215.075 62.6543 215.075 63.4717ZM217.183 63.4717C217.183 62.4679 217.334 61.5502 217.635 60.7185C217.951 59.8725 218.374 59.1483 218.904 58.546C219.449 57.9438 220.087 57.4777 220.818 57.1479C221.55 56.8038 222.346 56.6317 223.206 56.6317C224.052 56.6317 224.848 56.8038 225.594 57.1479C226.354 57.4777 227.013 57.9438 227.572 58.546C228.146 59.1483 228.598 59.8725 228.928 60.7185C229.257 61.5502 229.422 62.4679 229.422 63.4717C229.422 64.4755 229.257 65.4004 228.928 66.2464C228.598 67.0781 228.146 67.7951 227.572 68.3974C227.013 68.9996 226.354 69.4728 225.594 69.817C224.848 70.1468 224.052 70.3117 223.206 70.3117C222.346 70.3117 221.55 70.1468 220.818 69.817C220.087 69.4728 219.449 68.9996 218.904 68.3974C218.374 67.7951 217.951 67.0781 217.635 66.2464C217.334 65.4004 217.183 64.4755 217.183 63.4717ZM237.149 63.5147H246.162V71H248.119V55.9434H246.162V62.5253H237.149V55.9434H235.192V71H237.149V63.5147Z" fill="#202124"/>
<path d="M162.744 64.7735L133.686 48.0429L104.628 64.7735L80.7515 49.5585M162.744 64.7735L159.222 84.586H165.826L162.744 64.7735ZM162.744 64.7735L185.169 49.5585M208.974 62.1318L191.363 49.5585M191.363 49.5585L188.087 47.7571L185.169 49.5585M191.363 49.5585V26.4692M185.169 49.5585V26.4692M1 64.7735L26.3817 48.0429L43.6562 58.7395M80.7515 49.5585L78.3731 48.0429L62.4072 58.7395M80.7515 49.5585V26.4692M75.0981 50.2371V26.4692" stroke="#202124" stroke-width="1.61321"/>
</svg>
