<svg width="244" height="189" fill="none" xmlns="http://www.w3.org/2000/svg"><path d="M48.211 46.286c-2.092 7.323-10.562 9.229-10.562 17.603 0 1.194-1 2.712-.457 3.39.62.775 1.966 1.79 2.184 2.772.577 2.596 2.306 2.663 4.271 4.27 5.074 4.152 14.163-2.886 17.604 3.651 3.16 6.004 13.453 1.778 18.647 4.238 2.98 1.412 2.937 5.422 6.748 2.771 2.635-1.832 5.057-4.563 8.508-4.661 1.558-.045 3.18.16 4.727-.033 1.429-.178 3.737-1.966 4.955-1.695 1.481.329 1.576 1.62 2.641 2.184 1.61.853 6.409.484 8.215.685 6.571.73 13.391-1.337 18.452-5.477 1.021-.836 2.851-.407 4.107-1.206 1.256-.8 2.102.743 3.26.13 1.543-.817 3.379-3.64 4.401-4.89 1.788-2.185 3.205-5.565.88-7.889-2.191-2.191-.804-5.976-2.217-8.802-1.38-2.762-2.377-4.007-4.531-6.161-2.215-2.215-5.531-3.372-7.335-6.031-.745-1.098-2.419-2.35-2.347-3.651.091-1.63.587-3.21.587-4.955 0-2.696-7.206-6.51-9.259-7.955-1.64-1.154-1.304-2.557-1.304-4.107 0-1.094-2.004-2.249-2.64-2.934-2.185-2.354-5.457-5.932-8.639-6.911-3.265-1.005-3.289-2.46-4.01-5.705-.796-3.582-4.58-2.64-7.563-2.64-2.878 0-5.606-.278-8.248 1.042-2.32 1.16-4.19 2.79-6.324 4.238-1.544 1.048-1.38-.855-3.097.326-2.977 2.047-5.427 4.808-7.14 7.89-2.637 4.747-6.807 6.81-9.55 10.627-3.052 4.246-5.698 8.172-8.966 12.257-1.97 2.463-5.092 4.456-5.998 7.629z" fill="#E3BF85"/><path d="M112.839 34.949c-3.804-3.328-4.443-7.859-6.999-12.087-.59-2.36-.955-2.56-.439-4.88.175-.791.471-1.338.439-2.196-.036-.98-.878-1.643-.878-2.608 0-.18 2.103 1.005 2.634 1.213 3.304 1.299 6.205 3.878 9.401 5.475 4.139 2.07 6.849 6.442 10.485 9.143 1.429 1.061 3.887 2.181 4.855 3.719.618.98.015 3.547 1.214 4.08 2.818 1.252 4.317 5.573 5.759 8.006 1.347 2.273 1.541 4.632 2.531 6.896.964 2.202 3.978 4.752 3.978 6.947 0 2.577 1.534 5.328.232 7.67-.394.709.132 1.148.026 1.73-.108.592-1.892 1.479-2.325 1.99-1.119 1.322-2.375 1.312-3.977 2.091-2.235 1.088-4.259 1.493-6.608 1.962l-.003.001c-1.262.252-3.958 1.567-5.243.568-1.07-.832-2.407-1.206-2.789-2.582-.735-2.647-1.162-6.023-1.162-8.781 0-2.23-.988-6.133-2.066-8.135-2.105-3.91-6.767-5.984-6.767-10.822 0-4.238 1.229-6.314-2.298-9.4z" fill="#C29E63"/><path d="M171.122 115.706c-3.3 2.452-9.436 6.336-12.737 8.757-1.851 1.358-3.85 2.642-5.491 4.283-.887.887-1.953 1.556-2.896 2.388-.881.778-1.686 1.684-2.594 2.416-2.366 1.906-4.366 4.593-6.396 6.849-.996 1.107-1.777 2.271-2.937 3.225-1.068.878-2.368 1.806-3.267 2.855-2.924 3.411-6.52 6.362-9.334 9.8-.374.458-.693 1.214-1.043 1.73a4.177 4.177 0 00-.388.759c-.093.281-.083.209 0 0 .034-.1.08-.245.141-.443.934-3.034 2.861-6.311 4.694-8.895 1.723-2.427 3.574-4.438 5.683-6.547 1.898-1.898 3.421-3.954 5.188-5.929.339-.38.918-2.538.247-1.963-2.257 1.934-4.009 4.458-6.286 6.41-1.663 1.425-3.32 2.936-5.079 4.255-2.09 1.567-4.533 2.737-6.67 4.2-1.984 1.357-3.903 2.342-6.067 3.294-1.441.634-2.456 1.863-3.816 2.58-.986.521-1.903 1.105-2.841 1.73-2.012 1.341-4.08 2.279-6.108 3.514-1.202.731-1.972 1.654-3.019 2.511-.712.583-.115-.061.109-.398 3.083-4.623 8.184-7.451 12.202-11.172 4.565-4.226 10.375-6.433 15.167-10.267.852-.682 1.86-1.062 2.718-1.73.696-.541 1.548-1.385 2.374-1.715 1.902-.761-3.921 1.224-5.778 2.086-1.919.891-3.632 2.327-5.682 2.896-1.911.531-3.726 1.713-5.436 2.663-1.274.708-2.123 1.666-3.582 1.99-1.102.245-2.163.756-3.212 1.222-1.607.714-3.373 1.56-4.873 2.47-.971.59-2.351.183-3.156.989-1.49 1.489-3.357 2.368-5.436 3.088-3.217 1.113-5.674 2.903-8.276 4.927-2.254 1.753-5.255 2.81-7.783 4.145-2.218 1.172-4.571 3.111-6.437 4.791-2.258 2.032-4.51 4.108-6.89 6.012-1.462 1.169-3.386 1.755-4.763 3.033a18.52 18.52 0 01-1.603 1.329c-.59.658-1.189 1.314-1.801 1.965-.518.551.845-1.301 1.469-1.729.11-.076.22-.155.332-.236 3.8-4.233 7.296-8.502 12.405-11.39 2.747-1.553 5.266-3.777 7.837-5.614 2.97-2.121 6.063-4.199 9.114-6.204 5.093-3.347 10.66-5.968 15.661-9.429l.033-.023c-3.351 1.694-6.731 2.662-10.259 3.907-3.62 1.278-6.77 3.148-10.033 5.133-1.292.787-2.72 2.128-4.2 2.457-1.696.377-3.426 1.027-5.01 1.744-2.037.921-3.354 3.001-5.188 4.2-.491.321-1.031.324-1.537.549-1.54.684-2.88 1.736-4.255 2.704-1.974 1.389-3.943 3.011-6.067 4.187l.055-.001c.502 0-.839.42-.357.165.1-.054.201-.108.302-.164-1.118.051-2.724 1.61-3.569 2.195-1.834 1.27-3.194 4.032-5.38 4.639-1.405.39-2.643.874-3.953 1.675-.71.434-1.358 1.295-2.224 1.345-.859.049-1.677.542-2.47.851-2.768 1.076-5.193 1.867-8.153 1.867-.129 0 .75-.358 1.043-.55 1.408-.917 2.416-2.416 3.788-3.403.885-.637 1.944-1.726 3.076-2.636-.476.166-.96.305-1.456.398-1.558.292-2.686-.284-3.857-1.221-.793-.634 5.651-3.07 5.97-3.267 1.594-.986 2.931-1.765 4.75-2.169.484-.107 1.397-.419 1.756-.741 2.623-2.347 4.695-5.209 7.55-7.302.78-.572 1.675-1.35 2.58-1.702 1.116-.434 2.29-.727 3.267-1.482.145-.113.951-.745 1.297-.974-.326.007-1.148-.152-1.352-.152-2.377 0-4.335.277-6.657.741-1.49.298-1.385-.483-2.608-.754-.445-.099-.757-.481-1.235-.481-.761 0-1.375.253-2.1.439-1.738.447-3.829.552-5.436 1.291-.876.402-1.575 1.211-2.525 1.427-.985.224-1.937.58-2.91.796-.945.21-3.739.787-1.812-.755 1.48-1.183 2.895-2.571 4.53-3.541 1.06-.63 2.294-.585 3.458-.837 1.042-.226 1.498-.071 2.334-.906.762-.763.73-.8-.412-.384-1.776.645-4.048.718-5.737-.248-.833-.476.99-1.048 1.29-1.18 1.802-.788 3.713-1.895 5.614-2.388 1.05-.272 2.03.28 3.088-.014.797-.221 1.652-.101 2.47-.123 2.243-.063 4.364-.881 6.479-1.538 2.348-.728 4.956-1.388 7.357-1.921 2.35-.523 4.625-1.357 6.918-2.087 2.882-.917 5.627-1.51 8.345-3.047 1.987-1.123 4.216-1.829 6.176-3.019.368-.224 1.258-.433 1.29-.989.034-.559-2.767.068-3.115.138-3.858.771-7.68 1.732-11.543 2.457-5.043.945-10.192 1.157-15.18 2.155-1.583.316-3.916 1.125-5.491.562-1.47-.525-3.102.371-4.584.371h-3.322c-.831 0-.607-.048-.508-.741.134-.937.515-.917 1.469-1.291 2.043-.799 3.82-1.915 5.957-2.47 1.5-.39 2.958-1.165 4.31-1.922 1.569-.879 3.134-.521 4.721-.974.434-.124.504-.667-.055-.741-1.318-.176-2.73.029-4.035.178-2.578.295-4.717-.557-7.165-.686-1.947-.103.092-1.11.865-1.345 1.406-.428 2.981-.051 4.433-.385 2.01-.462 3.967-1.063 5.957-1.606 4.328-1.18 9.052-1.329 13.15-3.143 3.197-1.415 6.15-3.119 9.47-4.268 1.652-.572 3.413-.834 4.969-1.661 1.63-.868 3.3-1.61 5.01-2.306 2.597-1.058 5.243-1.076 7.974-1.647 1.927-.404 3.818-.934 5.737-1.373 1.07-.244 1.934-.712.481-1.166-1.593-.498-3.87.764-5.395 1.166-2.687.71-5.284 1.669-8.001 2.279-4.724 1.06-9.313 2.486-14.014 3.596-2.7.637-5.458.534-8.153 1.043-3.126.59-12.29 3.059-9.375 1.784 3.721-1.628 7.34-3.252 11.406-3.761 1.791-.223 3.521-.203 5.257-.796 1.764-.602 3.352-1.682 5.12-2.223 2.965-.909 5.982-1.783 8.853-2.965 1.466-.604 2.939-1.2 4.488-1.537 1.332-.29 3.06-.555 4.296-1.085 3.408-1.46 7.349-2.914 10.967-3.692 2.459-.529 5.088-.708 7.412-1.715a547.949 547.949 0 007.109-3.144c3.779-1.7 7.406-3.778 11.393-4.996 3.025-.924 6.002-2.049 9.031-2.992 1.033-.322 2.089-.71 3.171-.837.096-.011.54-.024.535-.028-1.184-.789 2.692-.957 4.09-1.221 1.767-.334 3.494-.741 5.298-.741.451 0 .837.247 1.373.247 1.073 0 1.461-.516 2.347.37.906.906 2.714 2.61 2.827 3.857.33 3.621 4.955 3.695 4.955 7.33 0 1.747-.32 3.073.193 4.804.323 1.091-1.525 2.687-2.416 2.909z" fill="#A7B991" stroke="#000" stroke-linecap="round" stroke-linejoin="round"/><path d="M168.843 98.165c-.257-.488-.683-1.204-1.07-1.592-1.666-.833-4.733-1.486-5.285-3.967-.392-1.767 2.271-.793 2.8-.507 1.217.654 2.037-.07 3.253.15 1.119.204 2.655 1.05 3.446 1.84 1.111 1.11 2.655 2.011 3.582 3.28 1.023 1.4 1.681 2.721 2.471 4.255.784 1.526 1.524 2.759 1.921 4.447.279 1.184.444 3.345-.192 4.392-.734 1.209-4.941 4.514-4.941 1.167 0-2.487-1.438-4.172-2.704-6.176-.765-1.212-.986-2.575-1.551-3.83-.537-1.193-1.091-2.246-1.714-3.429l-.016-.03z" fill="#C29E63"/><path d="M173.592 94.212c.969-.704 2.041-.975 3.212-1.235 1.744-.388 3.67-1.31 5.326-1.99 3.876-1.59 7.628-3.45 11.557-4.928 3.18-1.196 6.525-2.599 9.498-4.255 5.248-2.923 10.355-5.82 15.235-9.333 2.031-1.462 4.117-2.553 6.314-3.651 1.184-.592.599.41.247 1.07-1.016 1.906.395 1.336 1.881.975.204-.05 4.186-.92 4.186-.81 0 1.234-1.735 1.476.412 1.428 1.725-.04 1.158.28.562 1.592-.383.843.453 2.048.742 2.855.314.88-.867 1.21-1.359 1.73-.767.809-1.388 1.712-2.169 2.525-1.672 1.739-4.354 2.4-6.602 3.28-2.618 1.025-5.228 2.02-7.837 3.088-4.637 1.897-9.166 4.087-13.781 6.04-5.421 2.293-10.556 4.884-15.455 8.18-2.222 1.495-4.046 3.201-5.174 5.682-.105.232-.458.734-.738 1.186-.166.733-.374 1.268-.374.791 0-.151.167-.457.374-.791.144-.633.256-1.413.175-1.817-.238-1.188-.253-2.259-.549-3.445-.347-1.386-1.301-2.57-1.867-3.857-.822-1.87-2.378-2.95-3.816-4.31z" fill="#CFD1B0"/><path d="M244 68.848c-.227-.187-.632-.241-.905-.181-.299.066-.458.391-.723.543-.832.474-1.954.684-2.805 1.086.446-.29-.055-1.03.09-1.268 1.096-.075 5.063-4.336.543-3.076-2.319.646-5.495 1.13-7.78 1.9 1.172-1.12 2.34-2.245 3.8-3.077 1.132-1.19 2.366-2.279 3.618-3.35.592-1.3.943-2.855-.814-3.258-1.539 2.943-9.216 8.416-11.218 9.233-.032-1.022.462-1.906.091-2.444-.736-.293-1.189.467-1.629.814-2.433 1.92-7.489 4.425-11.489 7.15-4.258 2.9-9.18 4.802-13.752 7.422-3.746 1.606-7.358 3.45-10.946 5.068-14.926 6.736-14.969 7.047-18.727 7.965-2.189-3.34-8.973-1.306-11.761.09-.226.547-.398 1.2-.271 1.63-4.009.443-8.248 1.11-11.761 1.72-1.378.239-2.758.21-4.162.362-3.058.332-6.101.864-9.137 1.176-7.456.767-14.48 1.821-20.989 3.892-4.055 1.291-7.599 2.811-11.128 4.435-1.865.859-3.772 1.518-5.518 2.354-3.474 1.661-6.998 3.495-10.495 5.068a54.88 54.88 0 00-5.157 2.625c-.741.432-1.552 1.034-2.352 1.539-.668.421-1.886.916-1.628 1.991 1.383.202 2.677-.716 3.89-1.358.836-.442 22.272-11.472 31.664-13.486 3.275-.702 6.662-1.614 9.861-2.081 3.446-.503 7.613-1.088 11.399-1.448 2.313-.221 4.628-.687 6.605-.996.641-.1 1.342-.361 1.99-.181-29.072 7.549-48.832 16.839-72.013 23.532-2.966.856-6.098 1.41-9.137 2.263-5.486 1.538-11.141 2.323-17.37 2.806-2.636.204-5.284.223-7.871 0l-14.656-1.811c-.55-.146-1.391-.892-1.9-.361-.281 4.235 28.086 3.787 32.297 3.71 6.244-.113 12.736-.715 18.366-2.172 26.876-6.954 36.097-10.68 36.097-10.68-.929 1.862-3.307 2.192-5.519 2.897-9.759 3.11-36.971 10.642-43.968 12.127-1.648.351-3.253.932-4.885 1.268-1.862.382-3.686.704-5.61.996-3.666.556-7.432 1.052-11.308 1.267-1.386.076-16.027.873-18.727.724-.553-.031-1.283-.475-1.629.271.6 1.785 8.704.921 22.437 0 0 0-.546.127 9.137-.362 4.79-.242 10.782.048 15.29-.362-3.858 1.535-14.382 2.844-24.065 8.146-2.014-.496-15.552 1.774-15.832 1.81-2.247.286-4.251.519-6.605 1.086-10.349 2.495-12.34.946-11.218 2.987 2.004.321 3.918-.498 5.97-.815 3.732-.575 7.535-.636 11.22-.995 3.38-.33 6.753-.587 10.131-.905-1.347 1.096-2.966 1.769-4.433 2.715-3.577 2.308-7.032 5.083-10.223 7.693C10.154 163.635-.277 169.113.007 168.95c.09 1.854 11.593-2.867 22.707-10.86 2.673-2.247 5.963-4.408 16.013-9.956a5.68 5.68 0 011.99-.634c7.54-.787 3.013.571 18.185-.996 2.226-.23 4.436-.756 6.695-.995 6.76-.715 13.174-3.345 19.45-3.802-4.278 1.382-8.645 2.78-12.846 3.983-.3.086-7.743 2.403-10.947 3.439-3.433 1.111-6.587 2.627-9.951 3.802-8.898 1.073-11.172 1.767-18.999 5.068-1.157.488-2.261.735-3.8 1.448-.484.225-3.293 1.444-2.894 2.173.044.081 11.197-3.185 11.127-3.168 1.771-.433 3.58-.653 5.338-.905-7.88 3.999-15.312 10.308-15.29 10.589.11 1.372 2.134-.149 2.896-.543 4.625-2.393 9.26-4.435 13.932-6.517 1.666-.742 3.74-2.324 5.338-2.896.775-.278 11.003.089 12.213.272-1.136 1.095-2.521 1.8-3.71 2.805-2.23 1.888-4.08 3.814-5.97 5.974-.38.433-.826.914-1.267 1.358-.45.453-.929 1.049-1.357 1.358-2.61 1.884-30.645 12.042-33.835 11.766-.153.367-.386.905-.18 1.357 1.164.345 2.396-.402 3.527-.09 7.6-1.474 20.53-5.261 25.15-6.517-.28.203-6.336 5.273-14.565 9.051-1.365.444-2.787.831-3.438 1.991.392.195.42.349.814.453.317.082.77.061 1.086 0 1.898-.369 4.025-1.763 6.062-1.992 6.134-2.941 7.635-2.266 18.184-9.413.887-.601 1.782-1.321 2.623-1.991.866-.689 1.548-1.569 2.443-2.172.85-.574 2.06-1.058 3.076-1.539 6.9-3.265 18.446-10.929 25.24-13.848 1.458-.626 2.844-1.326 4.252-1.991 2.878-1.358 5.871-2.46 8.776-3.71 19.19-8.26-.286.878-13.932 9.412-2.578 1.612-5.38 2.941-8.052 4.345-7.973 4.187-14.642 9.539-18.365 12.58-1.181 1.398-8.455 9.621-7.238 10.59.866-.19 1.112-1 1.72-1.449 5.358-4.082 10.8-8.081 15.65-12.671 1.091-.521 2.022-1.332 2.986-2.081 6.468-5.033 21.543-13.485 28.588-17.378 2.25-.458 11.13-6.254 13.118-7.422 2.566-1.163 5.04-2.672 7.78-3.801 2.772-1.143 5.773-1.841 8.414-3.259 1.313-.315 2.309-.948 3.528-1.357-1.1 1.696-3.007 2.52-4.614 3.71-3.247 2.406-6.483 4.792-9.951 6.879-8.58 5.164-7.001 2.527-24.065 15.93-3.025 2.376-6.233 4.655-9.409 6.788-3.43 2.305-7.054 4.353-10.313 6.969-.532.427-1.632 1.224-.905 1.991.846.182 1.295-.815 1.81-1.267 1.434-1.161 2.984-1.898 4.523-2.987.938-.664 2.054-1.183 3.076-1.719 2.04-1.071 3.889-2.407 5.79-3.802 1.806-1.326 3.887-2.48 5.88-3.711 2.026-1.251 3.993-2.69 5.971-3.71 1.485-.767 2.907-1.705 4.433-2.445 1.537-.744 3.041-1.605 4.524-2.443 5.925-3.348 11.493-7.054 16.375-11.314 2.473-2.158 4.884-4.444 7.599-6.336 2.52-2.124 5.029-4.261 7.961-5.973-.949 1.011-2.188 1.732-2.805 3.077-1.608 1.25-2.955 2.954-4.342 4.616-1.706 2.045-3.501 4.094-5.066 6.155-.346.455-.659.913-.995 1.358-.669.883-1.429 1.663-2.081 2.534-1.75 2.334-2.694 5.384-3.709 8.236-.242.678-.83 1.633-.181 2.172.855-.104 1.024-1.084 1.357-1.629a30.08 30.08 0 011.176-1.81c2.49-3.467 5.416-6.628 7.961-9.956 1.783-2.331 3.29-4.698 5.157-6.788 1.838-2.058 4.003-3.789 6.242-5.702 9.085-7.761 7.2-5.733 10.133-7.784 5.778-4.041 6.565-5.476 9.861-8.055l10.404-7.693c.549-.26 1.194-.213 1.899-.362 1.046-.223 2.433-.64 3.076-1.086 1.081-.749.453-2.477 1.176-3.621.865-.206.992-.74 1.991-.905.927-.883 1.616-2.003 2.352-3.077 4.922-2.585 9.631-5.77 15.108-8.056.899-.629 7.261-4.56 11.67-5.883 4.354-2.528 9.347-4.13 13.661-6.697 1.302-.775 2.702-1.564 4.071-1.991 1.398-.437 2.907-.636 4.071-1.268 1.182-1.17 2.263-2.443 2.443-4.616.281-.046 7.871-3.322 8.414-7.692zM83.69 116.275c.302-.301.703-.503 1.175-.634-.257.346-.633.573-1.176.634zm11.308-5.069c-.28.094-12.683 6.193.995-.905.097.37-.88.444-.995.905zm22.798 41.453c-1.606.814-3.076 1.854-4.614 2.806a265.454 265.454 0 01-7.147 4.254c-2.398 1.383-5.002 2.338-7.147 4.073-2.333 1.041-4.46 2.733-6.876 3.982.085-.043-.369.437-.18 0 20.061-15.419 8.712-6.771 38.629-25.795-3.97 3.812-8.398 7.165-12.665 10.68zm119.69-85.35c1.109-.037 1.978-.314 2.895-.543h.271c-.063.57-.557.71-.814 1.086-2.034.39-3.969 1.38-5.609 2.172-.77.372-1.551.734-2.352 1.087-.789.347-1.508.84-2.262 1.176-2.801 1.25-5.838 2.447-8.594 3.983-4.638 2.582-9.035 4.676-13.932 6.516 1.158-.976 2.771-1.774 4.342-2.443l7.419-3.983c3.752-2.15 7.845-4.428 11.398-6.969.378-.02.428.147.724 0 1.939-.927 4.469-1.261 6.514-2.082zm-.724 2.625c-.404.41-.808.82-1.447.996.012-.163-.111-.191-.09-.362.595-.129.981-.466 1.537-.634zm-16.827 9.956c4.567-3.275 10.148-5.535 14.837-8.689.154-.033.171.07.181.18-1.593 1.002-3.043 2.147-4.885 2.897-3.469 1.78-6.625 3.872-10.133 5.612zm7.871-3.168c-.307-.255.354-.303.452-.452.326.273-.47.186-.452.452zm-.271 0c-.44.586-1.203.849-1.9 1.177.552-.473 1.155-.897 1.9-1.177zm-3.981 2.353c-.374.5-1.127.623-1.538 1.086.013-.5.94-.868 1.538-1.086zm-22.527 12.219c-1.83.728-3.676 1.707-5.428 2.625-1.744.914-3.428 2.034-5.247 2.715-1.104.414-2.202.705-3.257 1.177-2.964 1.325-6.192 2.74-9.589 3.711-.64-.446-.78-1.393-1.176-2.082 2.88-1.399 6.165-2.594 9.499-3.892 4.149-1.615 8.095-3.684 12.665-4.797 6.261-2.32 12.443-4.54 17.823-7.603.671-.382 1.402-.732 1.809-.995.914-.59 1.926-1.595 3.347-1.81-1.453.65-2.63 1.84-4.071 2.534-.668.322-1.18.601-1.809.996-.371.233-.729.429-1.086.633-4.223 2.418-8.656 4.87-13.48 6.788zm1.357.362c-1 .96-2.494 1.427-3.89 1.991 1.177-.783 2.577-1.344 3.89-1.99zm-23.793 12.309c-.453-.211-.363-.964-.543-1.448 1.343.077 1.972-.562 3.076-.724-.614 1.075-1.304 2.074-2.352 2.716.227-.829.877-1.235 1.176-1.992-.754.181-.978.892-1.357 1.448zm4.614-3.077c.154-.033.171.071.181.181-.501.374-.825.924-1.086 1.539-.557.119-.997.692-1.537.543.665-.903 1.177-1.959 2.442-2.263zm2.442-.905c-.221.352-.449.696-.633 1.086a.457.457 0 00.272.272c.303-.21.561-.465.904-.634-.142-1.04 1.018-1.5 1.9-1.81.328-.087.076.406.362.362.789-1.143 2.771-1.489 4.342-2.082.936-.353 2.071-.433 2.986-.724-3.944 2.3-7.971 4.517-12.757 5.974.541-1.15 1.166-2.214 2.624-2.444zm-9.77-1.448c-.311-.021-.394-.27-.452-.543.264-.158.546-.298.904-.362-.251.33-.458.516-.452.905zm1.266-1.267c.118-.245.292-.433.634-.453-.022.34-.371.353-.634.453zm1.538-.544c.204-.43.506-.761.996-.905-.149.485-.574.694-.996.905zm3.891-1.81c.104-.74.727-.962 1.357-1.176-.326.519-.643 1.047-1.357 1.176zm2.08-1.086c.367-.267.319-.948.996-.905a2.089 2.089 0 01-.996.905zm2.081-1.538c1.516-.686 3.138-1.266 4.524-2.082.231-.004.11.067.09.181-.567.58-.848 1.444-1.809 1.63.045-.318.366-.359.361-.725-.624-.126-.936.801-1.357 1.177-.902.093-1.342.647-2.261.724.222-.23.513-.392.452-.905zm5.428-2.535c1.456-.564 2.824-1.217 4.162-1.9-.282.865-1.59 1.486-2.081 2.444-.344.048-.501.282-.905.271.2-.434.673-.594.815-1.086-1.213-.434-1.183 2.16-2.986 1.9.258-.609 1.061-.976.995-1.629zm4.614-2.081c.324-.25.873-.273 1.176-.543.068.641-1.091.838-.905 1.9-.545.209-1.005.503-1.628.634.244-.83 1.651-.916 1.357-1.991zm4.071-.905c.826-1.166 1.909-2.073 3.438-2.535.185.147-.004.668.181.815.398.016.644-.133.724-.634 5.434-1.67 10.031-4.124 14.837-6.607.231-.004.11.067.09.18-5.099 2.835-9.865 6-15.832 7.966-1.124.656-2.435 1.123-3.709 1.629.078-.402.649-.448.271-.814zm18.999-6.88c-.781.607-1.669 1.108-2.624 1.54-1.326 1.075-2.934 1.842-4.704 2.715-1.359.67-2.446 1.358-4.071 1.81a132.068 132.068 0 007.237-3.982c.87-.517 1.994-.736 2.624-1.54.785.092.966-.42 1.538-.542zm-11.49 6.065c-2.563 1.174-5.007 2.462-8.142 3.258 2.931-1.094 5.112-2.331 8.142-3.258zm-8.414 1.358c.063.178.242.24.453.271-.812.516-1.773.881-2.895 1.086.831-1.14 1.96-2.328 3.257-2.715.291.312-.833.721-.815 1.358zm30.941-20.546c1.602-1.11 5.179-4.272 6.604-5.069.476-.7 1.14-1.212 1.628-1.9-.036 1.94-3.514 4.026-6.332 6.335-1.1.902-2.087 1.858-3.167 2.625-1.7 1.207-12.04 7.456-18.998 10.952-2.631 1.321-5.285 2.755-7.961 4.163-1.372.722-2.622 1.476-4.072 1.992-1.378.49-2.788 1.081-3.98 1.99-1.75.537-3.403 1.358-5.157 2.173-4.015 1.866-8.143 3.69-12.213 5.883-.66.355-1.861 1.31-2.443 1.176-.464-.106-.814-.988-.904-1.357 9.241-3.5 17.756-7.897 26.416-11.947 1.249-.584 2.489-1.306 3.71-1.992 1.232-.692 2.564-1.255 3.799-1.9.284-.148 18.062-9.655 23.07-13.124zm-31.755 16.472c.191-.382.705-.441 1.086-.633-.193.38-.715.431-1.086.633zm11.671-7.15c.733-.39 1.424-.908 2.171-1.266 4.343-2.085 3.218-2.493 13.842-8.146.275 1.688-1.225 2.254-2.534 2.896-1.055.518-2.058 1.337-3.166 1.991-1.065.63-2.231 1.145-3.347 1.72-1.045.538-1.906 1.083-3.076 1.629-1.58.738-3.118 1.652-4.704 2.444-1.324.66-2.736 1.158-4.072 1.81-2.458 1.2-5.045 1.967-7.418 3.168 3.885-2.039 8.349-4.14 12.304-6.245zm-15.561 7.784c.049.41-.512.212-.723.362.16-.2.403-.32.723-.362zm-.904.362c-.602.658-2.398 1.385-3.8 1.81 1.173-.697 2.613-1.126 3.8-1.81zm-4.252 1.901c-.238.246-.563.402-.995.452.256-.226.605-.359.995-.452zm-1.81.815c-.136.255-.562.221-.814.362-.038-.43.475-.31.814-.362zm-1.176.452c-.344.29-.73.537-1.266.634.293-.34.705-.562 1.266-.634zm-7.418 4.164c2.536-1.297 5.19-2.002 7.69-3.078 2.473-1.064 4.846-2.461 7.599-3.258 1.1-.83 2.458-1.402 3.799-1.992-.084.222-.485.492-.904.725-.562.313-1.514.644-2.352 1.086-.371.195-.714.566-1.086.724-.678.288-1.532.238-1.899.905-.864.098-1.597.442-2.353.815-.735.362-1.435.969-2.171 1.267-.302.122-.627.065-.904.18-.361.152-.637.473-.995.635-1.142.511-2.511.726-3.438 1.629-3.681.903-6.244 2.925-10.042 3.71-.15-.242-.384-.4-.543-.633 2.573-.864 4.757-2.119 7.599-2.715zm-45.778 9.141c-2.513.364-5.016.805-7.509 1.177-3.859.576-7.594 1.108-11.127 1.991-3.671.917-7.608 1.731-11.218 2.987 9.093-4.982 21.932-6.495 23.16-6.698 3.973-.656 7.828-1.038 11.942-1.448 7.235-.721 14.654-1.9 21.893-2.806.159-.02.194-.087.362-.09.674.138-1.201.31-1.267.633-2.691.328-5.816 1.181-8.684 1.9-.001 0-15.555 2.065-17.552 2.354zm-33.564 17.74c-6.41 2.122-7.78 2.865-14.475 4.797-20.343 5.872-26.15 5.381-29.673 5.521 1.172-.449 2.518-.542 3.8-.905 4.787-1.356 10.193-2.521 15.108-4.073.282-.09 10.963-3.32 21.802-7.512.704-.272 1.448-.465 2.172-.724.19-.069 21.773-7.467 25.964-8.87 4.183-1.4 8.47-2.424 12.485-3.892 2.133-.451 4.371-.832 6.514-1.448 2.18-.627 4.386-1.115 6.604-1.72 2.203-.601 4.469-1.024 6.695-1.63 2.17-.589 4.422-.94 6.513-1.719.268.079 1.035-.023 1.357-.18.097.174.417.125.543.271-.276.64-1.633.654-2.443.905-2.057.637-4.049 1.457-6.152 2.082-2.067.614-4.136 1.279-6.242 1.81-4.18 1.053-8.396 2.123-12.304 3.711-3.98 1.617-8.132 2.804-12.122 4.344-3.971 1.533-7.88 3.142-11.942 4.254-4.746 1.61-9.368 3.377-14.204 4.978zm62.243-18.736c-.135-.62 1.099-.65 1.267-1.267 1 .127 1.815-.17 2.623-.452-1.085.784-2.329 1.41-3.619 1.991-.014-.225.142-.28.181-.453-.224-.013-.439-.016-.452.181zm-1.809 1.177c-.309.053-.476.249-.815.272.121-.302.53-.316.634-.634.272-.091.16.202.181.362zm-1.991.453c.652-.706 1.276-1.44 2.352-1.72-.689.668-1.442 1.272-2.352 1.72zm-.904.724c-.613.141-1.067.441-1.719.543.518-.417 1.165-.705 1.628-1.177.405-.007-.055.336.091.634zm-1.991.543c-.425.117-.936.149-1.266.362-.027-.331.711-.675 1.176-.815-.075.256.128.235.09.453zm-1.628 0c.713-.554 1.176-1.358 2.262-1.539-.588.68-1.369 1.165-2.262 1.539zm-1.719.271c.505-.399.792-1.018 1.628-1.086-.334.751-1.163 1.009-1.447 1.81h-.543c.042-.293.779-.534.362-.724zm-.452-.543c-.231.373-.642.565-1.086.724.26-.343.594-.612 1.086-.724zm-1.086 1.358v.362c-.178.124-.517.086-.724.181.21-.213.297-.548.724-.543zm-5.247.543c-1.199.967-2.312 2.42-4.071 2.534 1.029-1.173 2.17-2.233 4.071-2.534zm-6.333 3.258c.747-.67 1.251-1.585 2.352-1.901-.276.78-1.146 1.75-2.352 1.901zm8.414-3.982c-.847.963-1.469 2.151-3.076 2.353.897-.913 1.762-1.857 3.076-2.353zm1.99-.272c.154-.033.171.071.181.181-.839.549-1.209 1.567-2.533 1.63.747-.641 1.646-1.129 2.352-1.811zm-1.448.724c-.05-.384.568-.878 1.177-.905-.35.344-.849.539-1.177.905zm-10.132 3.077c.229-.314.808-.277 1.086-.542.201.278-.711.966-.905 1.448-.493.08-.791.355-1.357.362.443-.371.86-.768 1.357-1.087-.04-.08-.079-.161-.181-.181zm-1.448.363c.345.364-.794.759-.814 1.357-.624.04-.926.401-1.538.453.587-.801 1.487-1.288 2.352-1.81zm-5.066 2.805c.268-.939 1.455-1.742 2.805-1.9-.738.831-1.573 1.564-2.805 1.9zm-.181-.905c-.269 1.118-1.399 1.375-2.352 1.81.173-.853 1.145-1.689 2.352-1.81zm-2.623.996c-.456.599-.833 1.279-1.719 1.448.261-.795.67-1.441 1.719-1.448zm-3.619 2.172c-.176-.42.663-.602.814-.996.095.34-.451.814-.814.996zm-9.137 3.711c-.387.18-.918.034-1.267-.09.686-.763 1.168-1.728 2.352-1.991.345.643-1.481 1.081-1.085 2.081zm-.905-1.448c.374.093-.34.529-.452.724-.818 1.114-2.282 1.579-3.8 1.991.665-1.657 2.524-2.121 4.252-2.715zm-6.242 3.348c-.162-.556.533-1.033.723-1.538.525-.045.914-.071 1.357-.362-.177.789-.954 1.76-2.08 1.9zm10.765-4.796c-.956.943-1.533 2.267-3.166 2.534.889-1.011 1.678-2.123 3.166-2.534zm2.895-.815c-.792 1.108-1.993 1.808-3.438 2.263.682-1.219 1.831-1.971 3.438-2.263zm1.538-.724c-.165.619-.928 1.424-1.719 1.72.488-.659 1.086-1.207 1.719-1.72zm-15.38 5.25c-.249 1.41-1.654 1.663-2.894 2.081.602-1.056 1.415-1.903 2.894-2.081zm-62.966 19.278c.628-.377 1.388-.265 2.081-.362 4.52-.636 8.769-1.902 13.208-2.987 5.019-1.226 9.995-2.653 15.018-3.982 2.41-.638 4.785-1.562 7.237-2.173 11.384-2.834 17.121-4.705 21.532-6.336 1.518-.56 3.05-1.02 4.524-1.448h.181c.247.349-.498.412-.815.544-.98.405-2.45.99-3.257 1.629-2.005.459-3.67 1.638-5.518 2.353-1.828.707-3.674 1.456-5.428 2.353-3.285 1.132-6.876 2.401-10.585 3.621-17.597 5.784-23.36 6.301-38.178 6.788zM18.19 148.224c2.228-.537 18.082-3.098 15.199-1.177-4.692.326-10.053.782-15.2 1.177zm21.622-2.082c-13.122 6.347-21.571 13.528-24.517 15.297 7.375-5.988 6.074-7.1 28.497-18.102.163-.028 17.68-5.124 18.728-5.522 4.017-1.522 8.743-2.866 13.027-4.344 3.45-1.189 6.881-2.311 10.404-3.258 7.056-1.898 13.493-5.068 19.722-7.874 5.58-2.514 11.006-5.198 16.827-7.513.81-.321 1.66-.766 2.443-.995.281-.083 19.446-6.346 19.903-6.969 3.757-.902 7.434-2.259 11.218-3.259 1.256-.331 2.512-.674 3.71-1.086 3.094-1.063 5.824-2.832 8.594-4.073.383.25.608.658.905.995-.769-.02-1.246.634-1.81.996-1.786 1.148-3.801 2.111-5.971 2.987-2.779 1.122-5.575 2.351-8.413 3.53l-16.918 6.879c-4.409 2.439-9.183 4.357-14.022 6.335-3.607 1.475-7.276 2.841-11.038 4.254-3.5 1.315-18.145 5.708-19.45 5.974-2.745.558-5.495 1.45-8.233 2.172-2.709.714-5.385 1.499-8.052 2.263-4.114 1.179-8.336 2.138-12.213 3.168-1.299.345-2.51.967-3.8 1.358-1.27.384-11.89 3.088-19.541 6.787zm24.155-4.706c-1.215.263-2.53.424-3.8.634.276-.539.831-.798 1.176-1.267.096-.338-.339-.144-.271-.453.785-.27 1.42-.692 2.352-.815-.248.658-1.049.761-1.267 1.448-.015.227.14.284.272.362.431-.185 1.443-.708 1.085-1.086.676-.651 1.274-1.381 2.443-1.538-.076 1.018-2.322 1.585-1.99 2.715zm-4.614.724c-2.858.613-5.106.925-8.051 1.267 2.838-1.323 6.278-2.046 9.499-2.987.222.468-1.152 1.112-1.448 1.72zm6.785-2.172c.07-1.559 1.612-1.645 2.805-2.082.231-.004.11.068.09.181-.958.882-1.916 1.764-2.985 2.534v.544c-.603.166-1.373.283-1.81.361.378-.769 1.323-.969 1.9-1.538zm3.981-2.353c.257-.2.801-.184 1.267-.362.161-.026.185.085.09.09-.87 1.061-1.95 1.911-2.986 2.806v.543c-.607.225-.895.212-1.628.271.889-.984 2.136-2.477 3.257-3.348zm2.262-.543c.862-.073 1.165-.705 2.17-.634-.9 1.392-2.345 2.238-3.346 3.53-.624.311-1.485.385-2.262.543 1.048-1.244 2.485-2.1 3.438-3.439zm2.895-.815c1.02-.156 1.882-.47 2.895-.634-1.023 1.21-2.36 2.104-3.257 3.44-.927.189-1.79.442-2.714.633.852-1.319 2.228-2.114 3.076-3.439zm4.161-1.086c.792-.083 1.19-.559 2.08-.543-1.097 1.376-2.813 2.132-3.799 3.62-.673.141-1.191.437-1.9.543.873-1.541 2.494-2.332 3.62-3.62zm2.895-.815c.85-.235 1.629-.543 2.533-.724-1.941 1.527-3.036 3.902-6.152 4.254 1.029-1.354 2.65-2.116 3.62-3.53zm.815 1.629c.184-.18.246-.524.452-.723.14-.136.349-.124.543-.272.687-.526 1.19-1.44 1.628-1.629.584-.252 1.308-.017 1.9-.453.192.322-.687.839-1.085 1.177-.48.405-.951.972-1.448 1.177-.228.495-.685.762-.995 1.176-.928.081-1.284.398-2.08.452.17-.515.712-.54 1.085-.905zm3.98-1.719c.857-.816 1.15-1.754 2.533-1.901-.263.884-1.812 1.264-2.08 2.444-.028.209.26.101.271.272.333-.164.798-.423.543-.906 1.344-.525 1.549-2.191 3.437-2.172-.606 1.053-1.974 1.344-2.17 2.806-1.459.412-2.636.825-4.072 1.086.11-.897.877-1 1.538-1.629zm3.8-.724c.38-.403.733-.827 1.085-1.086.115-.278.308-.477.453-.725.688-.125 1.41-.218 1.99-.452-.459.989-1.243 1.653-1.719 2.625-.795.32-1.744.487-2.533.814-.262-.381.4-.834.724-1.176zm-16.737 8.87c-1.892.4-3.798.927-5.7 1.267-6.227 1.111-23.149 1.992-23.431 1.991 1.103-.792 2.866-1.008 4.252-1.177 7.91-.963 18.872-2.864 19.632-2.987 1.637-.263 3.08-.927 4.886-1.267.251-.047.563.063.814 0 .39-.097.7-.439 1.085-.543.949-.256 1.857-.421 2.805-.724 1.677-.534 3.478-.951 5.338-1.538.859-.272 1.678-.76 2.533-.996 1.283-.355 2.607-.474 3.89-.815 1.188-.315 2.34-.826 3.528-1.176 2.415-.711 4.78-1.364 7.147-2.263 2.323-.882 4.743-1.448 7.057-2.354 5.595-2.188 11.579-4.039 17.46-6.064 18.136-6.242 42.225-18.393 42.521-18.554 1.249-.679 2.632-1.323 3.528-2.444-1.495-.657-2.702.75-3.8 1.358-3.546 1.964-7.424 3.611-11.309 5.521-3.797 1.868-5.171 3.075-21.893 10.047-2.365.986-4.866 1.768-7.418 2.534a95.15 95.15 0 00-5.7 1.901c-1.739.643-3.775 1.162-5.79 1.81-1.228.394-2.592 1.054-4.071 1.538-2.931.96-4.975 2.102-8.233 2.987-.543.148-1.458.373-2.171.634-1.153.422-2.6 1.502-1.628-.362-.284-.101-.57.295-.724.543-.231.37-.146.56-.272.814-.76.446-1.84.574-2.714.905-.194-.419 1.061-.92 1.176-1.629-1.219.35-1.715 2.206-3.528 2.263.7-1.355 1.425-2.554 2.986-2.986 1.15-.32 2.434-.444 3.618-.725.584-.138 1.117-.372 1.719-.543 2.95-.835 5.73-1.536 8.504-2.625 4.424-1.736 8.687-3.434 12.485-5.34 1.137-.401 2.311-.765 3.166-1.448 8.074-2.666 11.663-5.681 21.803-9.141 2.531-.864 5.209-1.41 7.69-2.625 4.331-1.104 7.945-2.984 11.399-5.069 1.122-.677 2.275-1.331 3.257-2.172.022-.098.18-.062.181-.181.077-.017.085.035.091.091.74.979 1.651 1.787 2.171 2.986-1.967.535-3.733 1.713-5.7 2.716-8.977 4.577-13.415 7.247-18.003 9.322a130.747 130.747 0 00-4.795 2.263c-.281.141-35.434 15.054-39.806 17.287-4.164 1.355-8.847 2.192-13.299 3.258-5.648.642-10.961 2.49-16.737 3.712zm77.079-25.977c-.01-.402.44-.344.634-.542.273.309-.355.486-.634.542zm-.904.272c-.016 1.041-1.505 1.391-2.172 2.082.189-.868 1.237-1.659 2.172-2.082zm-4.433 2.806c.595-.683 1.025-1.434 2.171-1.629-.994.943-1.756 2.578-3.166 2.806.209-.475.647-.778.995-1.177zm-2.171 1.358c.26-.676.922-1.732 1.99-1.901-.504.793-1.337 1.257-1.99 1.901zm-1.719 1.085c-.418.599-.544 1.595-1.448 1.72.077-.184-.079-.562-.181-.271.57-1.332 1.899-2.686 3.166-3.62.008.836-.979 1.373-1.537 2.171zm.723.453c-.112-.267.528-.556.724-.815.2.355-.55.533-.724.815zm-5.609 3.077a3.645 3.645 0 01-1.085.544c.733-1.62 2.2-2.506 2.985-4.074.289-.224.62-.406.995-.542.232-.004.111.067.091.18-1.099 1.164-1.919 2.606-3.167 3.621-.004.155.067.234.181.271zm-1.538.724c-.747.249-1.273.718-2.171.815 1.051-1.693 2.602-2.888 3.709-4.526.465-.017.638-.327 1.086-.362.188.193-.207.68-.452.996-.275.353-.657.688-.905.905-.265.731-.906 1.085-1.267 1.72-.24.21.241.242 0 .452zm-11.761 4.526c-.473.19-.988.339-1.357.633-.131-.405.415-.911.814-1.085.751-1.09 1.316-2.365 2.715-2.806-.707 1.012-1.442 1.997-2.262 2.896-.011.163.111.191.09.362zm0-2.172c-1.069 1.494-1.804 3.324-3.89 3.801 1.148-1.416 1.859-3.27 3.89-3.801zm-4.252 4.073c-.629.155-.936.631-1.719.633.576-1.686 1.671-2.854 3.257-3.53.154-.033.171.071.181.182-.624.805-1.683 1.619-1.719 2.715zm5.338-2.987c.318-.371.785-.846 1.176-1.358.659-.862.882-1.722 2.171-1.9.174.239-.266.495-.452.724-.603.737-1.472 1.698-1.809 2.715.847-.219 1.083-1.127 1.538-1.72.597-.779 1.42-1.403 1.9-2.262.567-.096.803-.524 1.447-.544-.679 1.261-2.212 2.501-2.262 3.802-1.534.395-2.62 1.24-4.342 1.448-.218-.234.369-.597.633-.905zm5.7-2.987c.438-.919 1.319-2.18 2.804-2.353-1.305 1.561-1.784 3.948-4.162 4.435.506-1.063 1.486-1.651 2.081-2.625-.137-.072-.558.343-.723.543zm4.975-3.348c.244-.042.055.354 0 .451-.55.988-2.102 2.153-2.804 3.169v.452c-.38.073-.587.318-.996.362.998-1.748 1.829-3.661 3.8-4.434zm2.714 1.266c.868-1.455 2.071-2.574 3.167-3.801-.582 1.349-2.113 2.532-2.804 4.073-.437.106-.716.37-1.086.543-.239-.393.473-.61.723-.815zm-21.441 9.232c-.232-.536.571-.816.634-1.357.179.07.049.583-.181.542.135.107.106.377.362.363-.057.366-.633.212-.815.452zm.724.905c-.512.339-.833.478-1.538.724a3.493 3.493 0 011.538-.724zm-1.538-.543c-.339.144-.701.264-.995.453.341-1.259 1.329-2.652 2.533-3.349.154-.033.171.07.181.181-.597.881-1.353 1.603-1.719 2.715zm-1.447.634c-.472.102-.692.455-1.267.453-.331-.419.225-.918.543-1.358.534-.739.87-1.625 1.9-1.81.154-.033.171.07.181.181-.553.698-1.435 1.501-1.357 2.534zm-35.012 13.667c9.818-4.354 11.769-4.726 14.927-5.521 3.674-.926 7.817-2.224 11.4-3.44a43.76 43.76 0 004.161-1.629c1.416-.649 2.978-1.172 4.252-1.901h.271c-8.27 4.609-16.743 9.014-25.964 12.672-9.69 2.677-14.504 3.335-16.013 3.529 1.91-1.496 4.453-2.596 6.966-3.71zm-9.59 4.163c-3.573.405-7.226 1.27-10.765 1.358.609-.689 2.036-.557 2.623-1.268 5.69-1.627 10.712-3.404 16.375-4.978h.181c-2.838 1.596-5.813 3.055-8.413 4.888zm33.926-15.749c.283-.224.584-.034.815-.361.154-.034.17.07.181.18-.637.811-1.127 1.77-1.629 2.716-1.079.278-2.018.696-3.166.905.508-.698 1.321-1.092 1.719-1.9-1.425.083-1.668 2.132-3.257 2.353 1.148-1.718 2.308-3.423 4.885-3.711-.228.798-.882 1.168-1.086 1.991.882-.335.878-1.647 1.538-2.173zm6.243-.181c-.713.253-1.36.571-2.081.815 1.189-1.344 1.674-3.393 3.8-3.801-.475 1.094-1.383 1.754-1.719 2.986zm2.623-3.529c.342-.081.777-.068.995-.272.154-.033.171.071.181.181-.612.866-1.309 1.647-1.718 2.715-.543.121-.955.373-1.448.544.506-1.214 1.359-2.08 1.99-3.168zm-4.794 3.892c-.224.34-.602.834-1.086.905.667-1.234 1.489-2.312 2.352-3.349h.362c-.59.764-1.085 1.616-1.628 2.444zm-1.81 1.358c-.41.012-.623.221-.995.271.798-1.313 1.254-2.97 2.804-3.53.154-.033.171.071.181.181-.732.957-1.47 1.908-1.99 3.078zm-1.447.452c-.309.023-.435.229-.815.181.681-1.1.987-2.573 2.262-3.078-.448 1-1.095 1.802-1.447 2.897zm-8.776 2.624c1.13-1.313 2.02-2.867 3.98-3.348-1.364 1.078-1.76 3.126-3.98 3.348zm-2.171.544c.668-.991 1.8-1.519 2.352-2.625-1.314.259-2.112 2.194-3.347 2.896-.264.15-.587.086-.814.272.47-1.039 1.851-1.949 2.533-3.078 1.18-.268 2.166-.728 3.437-.905-1.308 1.226-2.066 3.001-4.161 3.44zm-60.524 16.382c1.559-.87 7.197-3.058 15.199-4.254-.883.685-2.142.995-2.986 1.719-4.339.705-8.229 1.756-12.213 2.535zm-1.447 6.969c.434-.965 1.5-1.391 2.352-1.991.868-.613 1.712-1.322 2.623-1.901 2.802-1.782 12.746-6.749 13.028-6.879 2.57-1.186 5.152-2.297 8.051-3.348 12.385-4.492 12.509-3.961 16.104-5.069.963-.297 1.948-.61 2.895-.905 2.84-.886 5.538-1.654 8.504-2.625 1.873-.614 3.922-1.467 6.152-1.991.5-.405 1.114-.696 1.9-.815-.188.578-1.852 2.635-2.624 3.077-.35.201-1.012.289-1.538.453-3.974 1.238-7.884 2.865-12.304 3.801-2.563.543-5.067 1.488-7.6 2.263-18.413 5.639-26.892 11.548-37.543 15.93zm20.174-8.327c.285-.176 4.463-2.486 5.971-1.991 2.443.003 20.962-2.799 24.155-3.801.073.016.09.09.181.09-1.021.71-2.264 1.121-3.438 1.81-1.513.889-2.776 1.545-4.523 2.263-7.323 3.01-21.545 1.652-22.346 1.629zm-.271 11.223c1.196-1.321 2.696-2.955 3.89-4.344 2.103-1.59 4.086-3.432 6.514-4.979.335-.213.982-.679 1.176-.724.28-.064 5.315.444 9.047-1.176h.09c.2.091-.974.838-1.266.996-5.267 2.832-7.327 4.39-19.813 10.77-.24-.248.233-.4.362-.543zm14.203-5.973c-3.138 2.14-6.609 3.947-10.313 5.521 3.302-2.067 6.994-3.744 10.313-5.793.162.066.013.165 0 .272zM29.5 186.238c3.646-1.524 13.29-8.06 13.57-8.236 1.076-.676 2.167-1.419 2.985-2.353 2.338-.713 5.076-1.075 7.057-1.901.154-.034.17.07.18.181-3.89 2.99-12.85 9.78-23.792 12.309zm102.139-45.073c.629-1.242 2.627-1.897 3.166-3.53.953-.314 1.63-.904 2.624-1.177-1.87 1.629-3.826 3.172-5.79 4.707zm.362-3.44c-1.684.669-3.36 1.467-5.067 2.172-1.737.719-3.518 1.293-5.247 1.992-3.463 1.399-6.748 2.915-9.77 4.706-3.029 1.795-5.971 3.738-9.047 5.431-.794.437-1.662.754-2.443 1.176-12.734 6.889-6.055 2.68-25.15 14.663-3.997 2.418-7.471 5.385-11.037 8.236-1.78 1.423-3.29 3.22-5.247 4.435-1.957 1.215-3.583 2.805-5.519 4.073 8.28-12.79 27.43-20.291 33.926-24.709 4.613-3.138 21.844-11.497 24.517-14.844 3.699-1.578 7.067-3.488 10.584-5.249 1.942-1.465 4.134-2.584 6.424-3.62 1.674-.758 3.362-1.655 5.066-2.534 4.819-2.487 11.989-6.688 14.656-8.237 3.972-3.157 14.313-9.432 18.546-11.676-.572.774-1.62 1.324-2.533 1.992-.884.647-1.758 1.432-2.714 1.901-12.304 11.846-14.037 12.481-20.084 15.476-3.335 1.653-6.533 3.293-9.861 4.616zm30.759-16.563c-1.131 1.131-2.459 2.066-3.528 3.258-3.867 3.614-8.772 6.19-12.756 9.685-.345.741-1.207.965-1.629 1.629-.325-.023-.331.272-.633.271-4.747 3.85-9.059 8.134-12.395 13.396-2.713 2.896-4.792 6.428-7.689 9.141.488-2.611 2.125-4.555 3.799-6.698 2.629-3.363 5.412-6.899 8.052-10.137.191-.08.267-.275.543-.271.33-.559.812-.979 1.266-1.448 1.33-1.373 2.648-2.9 4.252-4.164 1.957-1.541 3.745-3.11 5.881-4.525 2.529-1.676 9.159-7.557 11.942-10.228.238-.026.071.351.362.272 1.099-.892 1.75-2.232 3.076-2.896-.008.992-1.655 1.597-1.719 2.534 1.268-.512 1.996-2.348 3.257-3.168-.417.729-1.076 1.216-1.448 1.991 1.585-.405 1.879-2.887 3.619-3.439-.401.835-1.129 1.344-1.447 2.263 1.383-.55 1.9-2.743 3.347-3.53-.171.976-1.141 1.935-1.538 2.986-1.543 1.021-3.16 1.969-4.614 3.078zm8.052-7.15c.105.015.076.165.09.271-.864.554-1.265 1.571-1.99 2.263.235-.933 1.117-2.098 1.9-2.534zm-.633 1.539c.167-.345.529-.497.723-.815.15.304-.443.641-.723.815zm1.176-4.254c.161-.292.446-.46.814-.544-.197.256-.54.365-.814.544zm1.809.995c-.262-.04-.412-.191-.452-.452.107-.135.341-.141.452-.272.356.087.068.527 0 .724zm.543-1.81c-.452-.157-.751-.189-1.176 0 .364-.45.872-.756 1.176-1.267.146-.026.156.086.271.09-.032.451-.253.713-.271 1.177zm-1.629-2.263c-3.156 2.632-7.511 4.339-11.037 6.788-4.774 3.317-1.448.718-8.956 6.155-1.468 1.062-3.03 2.047-4.524 3.077-4.68 3.228-39.638 21.296-38.539 20.727-1.795.93-24.198 10.69-23.342 10.318-3.71 1.61-9.282 4.119-16.555 8.598-3.466 2.134-7.149 4.007-10.676 6.064-5.518 3.219-8.8 3.394-12.213 4.435-4.307 1.314-8.722 2.575-13.118 3.621 3.656-2.015 7.721-2.941 11.58-4.345 2.883-1.049 5.775-2.242 8.504-3.439 2.697-1.183.39.358 7.6-3.259 3.073-1.541 5.797-3.273 8.323-5.43 1.217-1.041 2.557-2.102 3.89-2.987.698-.464 1.498-.764 2.171-1.267a44.83 44.83 0 016.242-3.892s37.766-17.914 35.283-16.745c12.013-5.659 18.84-6.969 34.469-18.282 3.047-2.206 6.157-4.534 9.408-6.607 2.232-1.424 4.565-2.5 7.057-3.621 1.331-.599 3.083-1.874 4.614-2.534.446-.193.706-.172.904-.543.463.592.726 1.386.815 2.353a4.216 4.216 0 01-1.9.815zm3.076 4.797c2.665-5.345-2.133-11.721-6.423-15.93-.281-.275-2.143-3.28-6.243-3.53 1.272-1.005 3.568-1.116 5.157-1.085.785.014 1.762.148 2.262.633 3.665 3.555 15.178 18.883 5.247 19.912zm5.519-5.249c.308-.657.975-.956 1.447-1.449-.033.572-.622 1.369-1.447 1.449zm-.272-.544c.067-.386.279-.626.724-.633-.096.356-.354.551-.724.633zm52.201-26.88c-.723.444-1.925.662-2.895.995-.961.33-1.947.619-2.805.996 0 0-2.045 1.242-10.132 5.159-12.453 6.032-9.896 4.387-26.688 13.576-1.172.642-2.355 1.263-3.528 1.901-1.294.702-2.49 1.73-3.891 2.172-.485.153-1.087.054-1.538.272-.539.26-.815.988-1.447 1.086-.194-.695-.378-.93-.633-1.629l7.327-2.625c2.791-1.043 5.493-2.605 8.052-3.983 1.107-.596 2.31-1.106 3.348-1.81 1.768-1.2 3.976-2.312 5.97-3.349.781-.405 1.551-.874 2.172-1.448 3.609-1.423 15.898-8.723 19.36-10.59 1.432-.772 3.044-1.335 4.523-1.99 1.531-.68 3.032-1.595 4.524-2.263-.239 1.449-.687 2.894-1.719 3.53zm-7.147-.363c1.999-1.68 4.655-2.704 6.513-4.525 3.636-1.568 6.595-3.819 10.223-5.16.106.015.077.166.091.272-1.029 1.865-3.608 3.13-5.79 4.164-3.433 1.628-7.458 3.661-11.037 5.25z" fill="#202124"/><path fill-rule="evenodd" clip-rule="evenodd" d="M95.538.13c.3.242.098.45.23.692.284-.016.555-.018.691.114.236-.506.954-.335 1.382-.114.17.337-.13.427.23.575-.09.564-1.184.121-1.151.807-.785.055-1.242-.217-1.843-.346 0-.64.042-1.036 0-1.612.304.299.091-.186.461-.116zM91.279.36c.056.518-.058.864-.115 1.267.277.282.612.068.806.231-.069.738-.028 1.194-.921 1.266-.05-.31-.432-.59-.115-.92-.471-.297-.82-.716-.691-1.613.298-.124.564-.28 1.036-.23zM94.732.707c-.134.712-.008 1.04-.345 1.612-1.341-.004-.97-2.274.345-1.612zM99.221 1.166c-.354.086-.221-.315-.575-.23.043-.384.611-.129.575.23zM87.595 1.397c.273.91.257.907 0 1.843-1.243.071-1.205-2.27 0-1.843zM101.064 1.627c.006.429.257.346.806.231-.043.618.754.397 1.151.576-.562 1.388-2.157.157-2.878.806-.233-.229.016-.938-.576-.806.134-.366.714-.284.806-.691.427.167.413.254.691-.116z" fill="#202124"/><path fill-rule="evenodd" clip-rule="evenodd" d="M98.301 2.203c-.502.1-.512.026-.921.116-.006-.386.9-.78.921-.116zM84.257 2.78c.53-.108.4.443.806.46-.142.204-.357.334-.46.576-.534.072-.292-.63-.346-1.037zM106.359 5.083c1.772-.147.71 2.73-.575.921.001-.305-.064-.678.23-.69-.411-1.076-1.864-.448-2.417-.577-.364.894.477 1.384.575 2.534-1.029.848-1.628-1.12-2.533-.115.036.271.401.214.346.576-.47-.03-.7-.298-1.036-.461-.062-.523.231-.69.345-1.037h.921c.237-.032.109-.429.345-.46-.583-.703-.137-2.227.807-2.419.415-.032.312.455.69.461.87-.707 2.09.069 2.993.345-.193.344-.192.883-.691.922zM87.02 4.507c-.434.027-.487.433-.921.46-.3-.287-.133-.928-.115-1.151.53-.357 1.006.179 1.036.69zM99.452 4.046c.092.369.34.581.346 1.037-.401.288-.43-.593-1.152-.346.025-.452.123-.678.806-.69zM83.566 4.737c.661.624-.068 1.642-.46 1.958-.404-.171-.653-.498-.576-1.152.323-.29.805-.422 1.036-.806z" fill="#202124"/><path fill-rule="evenodd" clip-rule="evenodd" d="M101.294 6.234c-.556.058-.638-.359-1.151-.345v-.576c.272-.275 1.304-.016.921-.346.097-.337.37.069.575 0 .056.594-.109.965-.345 1.267zM81.264 5.198c.177.305-.011.614-.115 1.151-.59.248-.707-.066-1.151-.23-.118-1.084.365-1.016 1.266-.921zM105.553 6.119c-.267.886.694 1.218 1.497 1.382-.312.533.226.722.115 1.382-.791.168-1.762.369-1.497-1.267-.099-.285-.801.034-.921-.23.036-.157.289-.096.461-.115a1.038 1.038 0 00-.461-.461c.186-.313.275-.723.806-.691zM84.602 6.58c.753-.024 1.196.262 1.267.921-.512.169-.676 0-1.267 0 .019-.355-.272-.65 0-.921zM108.777 6.925c.093.91.499 1.384 1.151 1.958-.082.522-.763.7-1.266.46-.011.549.528.547.575 1.037h-.345c.168.216.632.136.575.576-.649-.119-1.43-.274-2.072-.806-.096-.79.512-1.218 1.151-.922.066-.948-.622-1.143-1.151-1.497-.014-.74.764-1.052 1.382-.806zM86.79 7.386c.261.084.587.103.805.23.218.566-.14.439-.23.922-.734-.029-.717-.795-.576-1.152zM77.925 7.616c.013.575-.301 1.138-1.035 1.267.035.269.225.476 0 .691-.428-.232-.724.116-1.152-.115-.096-.673.22-.932.69-1.037-.155-.874.849-1.11 1.498-.806zM83.911 9.344c-.13.021-.063.115 0 .115-.159.468-1.006.14-1.381.115-.141-.96 1.11-1.244 1.381-.23zM110.964 11.647c.529.95-.02 1.805-.691 2.188-.64-.185-1.006-1.062-.691-1.843.261-.199.965.045 1.036-.345-.662-.476-.425-1.176-.806-1.842 1.114-2.003 2.194 1.244 1.152 1.842zM105.553 10.035c.097.25.298.393.231.806-.294.09-.559.21-.691.461-.288-.058-.385-.306-.691-.346-.132-.823.371-1.01 1.151-.921zM73.781 11.417c.343.194.6.475.921.69-.067.24-.242.373-.345.577-.544.006-.819-.256-1.036-.576.223-.162.341-.427.46-.691zM98.07 11.877c-.3.758-.014 1.394-.46 1.958-.388-.071-.512-.408-.92-.46-.014-.578.17-.84-.116-1.267.546-.237.988-.866 1.497-.23zM111.885 11.532c.665.716 1.442 1.322 2.187 1.958-.16.147-.071.544-.23.691-.869.025-1.079-.61-1.727-.806-.143-.767-.15-.84-.23-1.843zM106.014 13.835c-.844-.077-1.277-.564-1.382-1.381.851-1.736 2.561.293 1.382 1.381zM70.213 12.108c.415.045.58.34.806.576.411-.164.822-.33 1.38-.346.052.103.102.206.231.23.017.824-.482 1.131-1.151 1.267-.221-.163-.209-.559-.346-.806-.279.223-.695.378-1.036.23-.112-.455-.159-.836.116-1.15zM101.064 12.338c.096.596-.224.775-.461 1.036-.401-.212-1.04-.187-.92-.92.111-.004.089-.142.115-.231.473-.27.744.112 1.266.115zM81.38 12.799c-.106.432-.487.589-1.037.575-.754-.719.641-1.313 1.036-.575zM112.575 14.987c-1.029.076-2.111-1.217-1.036-1.843.619.341.852 1.068 1.036 1.843zM101.294 13.95c.061.522-.169.752-.691.691-.268.565-.925.91-1.61.46-.172-.593.348-.495.23-1.036 1.011-.229 1.174-.659 2.071-.114zM115.683 14.18c.482-.058.316.53.576.691-.381.52-1.272.324-1.496-.23.193-.267 1.031.111.92-.46zM107.74 14.757c-.148.724.426.725.806.921.027.45.034.767.575.921.029.87.058 1.893-1.15 1.497-.366-.49-.171-.915.115-1.497-.699-.414-1.969-.256-1.612-1.728.548-.387.634-.463 1.266-.114zM69.637 14.642c-.323.752-.592 1.557-1.612 1.612-.369-.712.327-1.052.461-1.613.261-.227.643.123 1.151 0zM91.279 14.757v.69c-.408.223-.532.13-.92.23-.015-.292-.168-.445-.461-.46.308-.434.767-.947 1.38-.46zM102.906 15.102c.415.296 1.222.69.691 1.267-.684-.046-1.239-.22-1.382-.806.113-.27.495-.273.691-.46zM115.108 15.908c-.092.216-.192.422-.231.691-.348.164-.616-.05-1.035-.115-.613-1.026.87-1.118 1.266-.576zM118.216 16.714c-.555 1.185-2.992.735-2.878-.806.95-.245 1.983.47 2.878.806zM93.811 16.023c.256.314.072.925-.115 1.152-.488.027-.815-.106-1.15-.23-.126-1.045.646-1.143 1.265-.922zM100.603 16.484c.281.115.245.038.691.115-.467.507.781 1.194 0 1.958-.555-.058-.977-.251-1.266-.576.287-.62.413-.945.575-1.497zM69.752 17.06c-.018.134.026.205.116.23-.077.307-.346.422-.576.576-1.396-.204-.495-1.893.46-.806zM67.45 18.327c-.44.298-1.107.004-1.036-.576.387-.374 1.14-.175 1.036.576zM120.288 18.442c-.103.337-.103.354 0 .69-.728.039-1.419.038-1.612-.46.193-.856 1.095-.692 1.612-.23zM111.885 18.672c-.096 1.04-1.655 1.029-1.497-.23.443-.417 1.161-.317 1.497.23zM103.712 18.212c.137.322.126.794.114 1.266-.723.11-1.054-.173-1.381-.46-.378.12-.503.494-.691.806-.263-.12-.694-.073-.921-.23.093-.63.643-.907 1.266-.692.433-.334.788-.747 1.613-.69zM117.641 19.018c-.298.317-.316.913-.922.921-.402-.519-.897-.945-1.611-1.151v-.461c.937-.068 2.073.06 2.533.69zM109.352 18.327c.551.102.637.667.691 1.267-.551.028-1.227.315-1.496-.346.033-.542.436-.715.805-.921zM113.15 19.133c.017.323-.282.331-.575.345.01-.163.019-.326-.115-.346-.01-.321.7-.321.69 0zM71.019 19.594v.575c-.624.108-.886-.034-1.267-.115-.396-.944.791-.88 1.267-.46zM100.143 19.478c-.385.411.082 1.22-.23 1.843-.412-.226-.615.054-1.152 0-.05-.102-.1-.206-.23-.23.148-.865.693-1.897 1.612-1.613zM65.608 20.055c-.097.44-.52.553-.92.69-.234-.343-.712-.44-.691-1.036.615-.184 1.178-.08 1.611.346z" fill="#202124"/><path fill-rule="evenodd" clip-rule="evenodd" d="M110.964 19.594c.655.452.039 2.14-1.267 1.497-.549-1.187.887-1.261 1.267-1.497zM112.92 19.593c.207 1.135-.883.975-1.381.576.275-.378.687-.618 1.381-.576zM97.035 20.055c.019.48-.343.578-.461.92-.398-.1-.755-.242-.92-.575.025-.962.86-.61 1.38-.345zM121.669 19.824c.075.732.625.988 1.037 1.382.296-.394.737-.645 1.381-.691.11.395.391.744 0 1.037.099.323.599.245.806.46-.097.134-.152.309-.116.576-.885-.266-1.987-.316-2.417-1.037-.983.395-1.393-.436-2.072-.69.223-.569.478-1.508 1.381-1.037zM118.907 21.091c-.388.304-.34 1.042-.921 1.151-.359-.062-.495-.348-.806-.46-.02-.289.258-.28.346-.46-.473-1.39 1.157-1.266 1.381-.231zM91.279 20.515c.023.445.004.849-.115 1.152-.647.11-.918-.157-1.266-.346.094-.849.628-1.188 1.38-.806zM106.474 20.285c.792.014 1.166.446 1.266 1.152.517-.207.882-.668 1.612-.346.223.92.301 1.73-.345 2.188-.8-.006-1.03-.582-.921-1.497-.868.22-2.36-.118-1.612-1.497zM114.648 20.4c.438.276-.297 1.086-.922 1.037-.475-.945.673-.604.922-1.037zM76.314 22.358c-.426.22-1.237-.03-1.151-.691.575-.187 1.23-.086 1.15.69zM119.943 21.552c-.099.712.58.648 1.036.806-.171.481-.435.87-.691 1.266-.632.018-.555-.673-1.151-.69.004-.336-.21-.987-.115-1.267.366-.217.481.029.921-.115zM100.258 21.667h1.036c.513.56 1.079 1.556 1.842 1.497.058 1.251-.754 1.42-1.727 1.382.103-.64-.221-.854-.23-1.382-.371.025-.487-.204-.921-.115v-1.382zM115.683 22.242c.537-.112.626-.627 1.267-.345.018.714-.128.892-.346 1.152-.551.09-.56-.36-.806-.576-.553.9-1.375.307-2.187.346-.413-1.385 1.684-1.277 2.072-.577zM66.299 22.819c-.399.39-1.543.27-1.381-.577.706-.495 1.461.05 1.38.577zM112.46 22.588c-.017.286.059.478.23.576-.043.383-.551.9-.345 1.151-.174.212-.777.341-1.036.116-.017-.286-.021-.56.23-.577a.58.58 0 00-.345-.345c-.074.416-.191.819-.345 1.382-.582.122-.659-.262-1.152-.23-.19-.385-.407-.744-.345-1.382.319-.258 1.063-.088 1.266-.46.218.012.08.38.346.345.42-.39.715-.833 1.496-.576zM61.349 22.819c.05.396-.046.645-.115.92-.74.18-1.195-.245-1.267-1.036.355-.241 1.137-.115 1.382.116zM127.08 22.703c.308.35.197.664 0 1.037-1.839.211-1.163-1.538 0-1.037zM74.817 23.624c-.255.129-.311.456-.575.576-.263-.274-.679-.396-1.036-.576-.047-.277.21-.25.115-.575.669-.433 1.346-.108 1.496.575zM95.768 22.934c.218.128.544.146.806.23-.142.794.34.966.23 1.728-.37.361-.81.04-1.266-.116-.107-.553-.19-1.331.23-1.842zM124.663 23.624c-.151.387-.118.958-.461 1.152.147.275.959-.115.691.576.756-.064 1.101.628.805 1.266-.398.177-1.049.102-1.611.115.007-.638-.792-1.324-.115-1.612-.231-.23-.719-.202-.921-.46-.084-.545.164-.757.345-1.037.636-.043.631-.043 1.267 0zM64.342 23.74c.588.063.8.504 1.036.921-.073.426-.647.351-1.151.345-.1-.092-.069-.315-.23-.345-.098-.52.269-.575.345-.921zM125.814 23.74c.385.35.477.284 1.036.46-.136 1.019 1.033.732 1.266 1.382-.798 1.096-2.907-.45-2.302-1.842zM106.935 25.352c-.054.522-.668.484-1.151.576-.145-.393-.467-.608-.921-.691-.191-2.447 1.573-.521 2.072.115zM115.913 24.2c-.118.772.615.691.922 1.037-.103.627-.801.658-1.037 1.152-.471-.105-.586-.565-.69-1.037-.454-.07-.598.17-.806.346-.358-.103-.497-.423-.576-.806.723-.666 1.35-.52 2.187-.692zM70.443 24.661c.255.205.418.503.345 1.037-.185-.033-.198.109-.345.115-.36-.14-.597-.401-1.036-.46-.078-.655.684-.468 1.036-.692zM75.163 24.661c.51.334.738.95.92 1.613-1.122.928-1.844-.985-.92-1.613zM119.137 24.776c.01.182-.055.44.115.46.899-.883 2.706.114 1.612 1.152-.902.135-1.404-.13-1.727-.575-.413-.069-.557.133-.806.23.223.407-.054.515-.115.921-.501-.035-.941-.132-1.381-.23v-.806c.379-.082.736-.185 1.151-.23-.035-.464.184-1.137 1.151-.922zM102.33 24.891c.17 1.117-.864 1.637-1.611 1.152-.071-.992.714-1.128 1.611-1.152zM112.69 25.582c-.274.94-1.68.968-1.496 0 .099-.52 1.241-.904 1.496 0zM73.897 25.698c.075.42-.25.441-.23.805-1.896.137-.559-2.358.23-.805zM104.747 25.122c.092.466.149.53.231.806-.343.652-1.43.467-1.958.115.044-.84.776-.99 1.727-.921zM59.392 25.698c-.464.328-.25.676-.576 1.036-.357-.257-.814-.415-.806-1.036.112-.004.09-.141.115-.231.617-.139.832-.03 1.267.23zM129.498 25.928c.778.252 1.445.237 1.151 1.267-.875.12-1.487-.552-1.151-1.267zM72.054 26.388c.026.371-.203.488-.115.922-.133-.018-.204.025-.23.115-.369-.321-1.077-.304-1.036-1.037.616-.263 1.057-.122 1.381 0zM115.338 26.503c.036.42-.018.75-.115 1.038-.557.02-.983-.092-1.381-.231-.165-.924.822-1.08 1.496-.806zM100.028 27.886c-.576.454-1.013.007-1.382-.346-.076-1.276 1.77-1.112 1.382.346z" fill="#202124"/><path fill-rule="evenodd" clip-rule="evenodd" d="M119.828 26.734c-.925 1.456-.218 3.215-1.842 3.8-.05-.141-.147-.236-.345-.23.023-.676.003-1.308-.461-1.497.184-.875 1.013-.395 1.497-.921-.152-.87.468-1.49 1.151-1.152zM64.803 26.964c.492.2.85.532.92 1.152-.316.356-.634.035-1.15.23-.237-.185-.268-.577-.231-1.036.153-.116.428-.11.46-.346zM75.969 27.886c-.371.358-1.231.265-1.267-.346.237-.924 1.215-.413 1.267.346zM129.152 27.31c-.288.463.634 1.444-.115 1.728.007.453.47.451.461.92.293-.012.402-.21.575-.345.535.182.529.602 1.266.346-.36-.637-1.407-.588-1.496-1.497.192-.153.385-.305.805-.23.049.22.329.208.231.575 1.594-.228.731 1.353 1.841 1.497-.019 1.056.87 1.204 1.497 1.613.144.769.615 1.37 1.036 2.072-.217.206-.509.336-.46.807-.738.135-1.075.048-1.612-.23-.238-.75.122-1.05.345-1.613-.106-.355-.46-.46-.691-.69-.565.618-2.14.63-2.302-.347.26-.315.594-.558.806-.92-.348-.256-1.429.39-1.726-.576-.115.07.107.775-.115 1.036-.332-.014-.754.063-.922-.116.484.763.756 2.13.231 2.995-1.059-.257-1.446-.072-2.188-.346-.472.142-.657.571-1.381.461-.198-.187-.286-.482-.23-.922.555-.637 1.632-.218 2.187-.69-.132.362.181.28.23.46 1.19-.244-.842-1.557.345-2.073.026-.37-.203-.487-.115-.921.402-.251.798-.507.806-1.152-.093-.291-.474-.294-.691-.46-.257-1.392.45-2.1 1.382-1.382zM89.552 27.77c-.067.317-.286.482-.345.807-.474-.217-1.213-.169-1.266-.807.178-.785 1.385-.629 1.611 0zM109.927 27.31c.192.154.039.652.231.806.398.093.486-.215.691 0 .099.734.652 1.183.23 1.843-.611.15-.588-.334-1.152-.23-.27-.674.199-.752 0-1.498-.591.092-.874-.123-1.266-.23-.015-.92.665-.852 1.266-.691zM57.78 27.31c.682-.068 1.22.007 1.382.46-.014.448-.34.582-.576.807-.456-.355-1.002-.546-.806-1.267zM126.62 27.77c-.019.135.025.206.115.23.095.326-.163.3-.115.577-.305.22-1.058.12-1.382 0 .01-.164.019-.326-.115-.346.138-.524.951-.691 1.497-.46zM122.706 28.346c-.101.474-.857.514-.461 1.152-.29.17-.514.407-.921.46-.149-.311-.511-.409-.46-.92.181-.05.098-.363.46-.231-.427-1.108 1.292-1.214 1.382-.46zM102.215 28.577c.02.562-.814.738-1.266.46-.133-1.022.814-.8 1.266-.46zM69.292 28.923c-.106.47-.643.507-1.151.575-1.093-.832.738-1.48 1.15-.575zM72.515 29.038c-.277.443-.698.907-1.266.46-.29-1.064 1.078-1.15 1.266-.46zM114.532 28.923c.142 1.13-1.683 1.255-1.496 0 .417-.28.937-.287 1.496 0zM57.895 32.262c-.03-.37-.77-.805-.23-1.036-.472-.23-1.109-.936-.92-1.497.244-.73 1.467-.749 1.38.46.373.473.924.766.922 1.613-.207.33-.677.398-1.152.46zM122.59 29.728c.595-.26 1.093-.216 1.267.346.634 2.053-3.413.59-1.267-.346z" fill="#202124"/><path fill-rule="evenodd" clip-rule="evenodd" d="M125.929 30.074a.542.542 0 00-.115.345c.654.05 1.192-.116 1.381.576-.263.236-.406.592-.805.69-.593-.07-.846-.797-1.497-.46-.881-.737.032-1.85 1.036-1.151zM110.388 30.189c.795.178 1.06 1.328.576 1.843-.58.08-.791-.207-1.152-.346.204-.487.249-1.133.576-1.497zM120.634 31.11c-.146.943-.925 1.469-1.843 1.037v-.691c.606-.104 1.3-.889 1.843-.346zM122.13 31.917c.063.167-.135.595.115.575-.079.228-.307.307-.576.346.143.334.593.791.346 1.151.148.16.5.115.806.116-.1.258-.004.475-.346.692-.869-.146-.718-.342-1.611-.116-.051-.102-.102-.206-.23-.23.087-.995.446-1.126.115-2.074.272-.36.854-.7 1.381-.46zM112 32.377c.01.47.181.714.69.922v.69c-.336.125-.663.259-1.151.23-.223-.545-.497-1.888.461-1.842zM116.029 33.414c.047.703-1.261.742-1.612.345-.074-1.134 1.413-1.243 1.612-.345zM119.943 33.76c-.123.666-1.03.339-1.382.345-.555-1.578 1.126-1.57 1.382-.345zM124.432 32.838c.058.847-.746 1.456-1.381.921-.213-.93.733-1.226 1.381-.921zM56.86 33.414c.284.75-.565 1.142-1.152 1.382-1.025-.564.1-2.148 1.151-1.382zM108.086 33.183c.589.81-.375.759-.691 1.037-.217-.167-.51-.257-.46-.691.245-.254.727-.27 1.151-.346zM130.073 33.298c.485.38 1.582.693 1.266 1.498.163.221.559.208.806.345-.096.326.162.298.115.576-.579.622-1.533.14-2.188-.115-.023-.865-.298-.988-.345-1.958.118-.113.234-.228.346-.346zM57.895 33.644c.497-.015.424.189.921.345.06.482-.064.781-.23 1.037h-.806c-.428-.465-.317-1.031.115-1.382zM96.805 35.257c-.691 0-1.17-.212-1.382-.692.47-1.132 2.428-.409 1.382.692zM109.467 34.104c.041.415.176.556 0 .922-.536.038-.908-.09-1.266-.23-.126-.788.714-.93 1.266-.692zM127.656 35.026c.019.327-.39.225-.231.69-.514.203-.877.25-1.266-.114-.08-.786 1.283-1.473 1.497-.576zM53.981 35.371c-.231.536-.64.895-1.266 1.037-1.283-.832.409-2.41 1.266-1.037zM119.712 35.717c-.491.316-1.241.449-1.496-.115-.011-.944 1.633-.907 1.496.115zM78.847 35.486c-.104.204-.278.337-.346.576-.478-.098-1.016-.136-1.15-.576.388-.627 1.062-.401 1.496 0zM123.627 35.602c-.241.227-.765.088-1.037 0v-.46c.486-.154 1.037-.242 1.037.46zM129.382 35.371c-.018.34-.151.812-.46 1.153-.675.099-1.012-.14-1.267-.461-.023-1.24 1.023-.482 1.727-.692zM114.762 35.947c-.296.44.528.576.346 1.267-.724.109-1.525 1.017-2.188.46-.06-1.02.883-1.035 1.037-1.842.373-.066.536.079.805.115zM125.929 35.947c.41.166 1.033.118 1.266.461-.38.3-.229.512-.576.921-.588.112-.955.154-1.151-.346.082-.415.379-.619.461-1.036zM55.708 36.638c.364-.018.385.306.806.231.01.181-.055.44.115.46-.11.432-.935.618-1.381.346-.273-.494.35-.597.46-1.037zM125.123 37.33c-.001 1.52-1.423.92-1.842 1.958-.635-.487-1.314.346-1.842-.346.056-.98.968-1.105 1.727-1.382.135.172.143.471.345.576.257-.018-.149-.29 0-.576.593-.036 1.084-.823 1.612-.23zM50.643 37.79c.313.81-.092 1.696-1.151 1.497-.548-1.015-.206-2.088 1.151-1.497zM115.108 38.02c.178.985-.327 1.285-1.151 1.267-.736-.736.448-1.61 1.151-1.266zM118.906 38.596c-.253.968-1.067 1.168-1.611.346v-.46c.434-.358 1.391-.497 1.611.114zM53.406 38.25c.431.068.427.572.921.576.042.502-.21.713-.46.922-.936.011-.996-1.164-.461-1.497zM111.655 38.481c.476.985-.736 1.858-1.497 1.267-.067.123-.117.35-.231.69-.55.053-.485.053-1.035 0-.723-.868.541-1.146.92-1.612.598.753.869-.48 1.843-.345zM131.224 38.941c.154.858-.969 1.297-1.496 1.844-.333-.052-.525-.243-.576-.577.148-.619.947-.587.921-1.382.458-.116.747-.07 1.151.115zM125.123 40.439c-.421.075-.442-.25-.806-.23-.21-1.439 1.48-.817.806.23zM132.375 40.67c-.439-.06-.587-.411-.575-.922.52-.978 1.639.619.575.921zM54.097 39.748h.23c.613.04.526.78.92 1.037-.058.325-.278.489-.344.806-.445.023-.848.004-1.152-.116.158-.83-.09-1.024.346-1.727zM51.909 39.978c.294.36.284.501.346.922-.31.342-.844.46-1.382.575-.934-.908-.185-1.779 1.036-1.497zM96.69 40.9c-.295.013-.403.21-.576.345-.41-.013-.419-.426-.921-.345.096-.827 1.66-1.36 1.496 0zM116.374 42.166c-.599.118-1.01.116-1.381-.23.065-.627-.35-1.254.115-1.613.367-.098.356.181.575.231.614-.778 1.224-.64 1.267.23.023.477-.759.83-.576 1.382zM48.686 40.208c.402.54-.031 1.162-.23 1.728.361.055.47-.144.576-.346.279.18.43.49.46.922-.4.176-.514.637-1.151.575-.035-.348-.444-.323-.46-.69-.055-.362.309-.304.344-.577-.351.084-.419-.117-.69-.114-.48-1.032.056-1.63 1.151-1.498zM140.433 40.785c.143.598.375.886 0 1.266-.645.109-.841-.233-1.266-.345-.063-.793.379-1.08 1.266-.921zM132.951 41.13c.057.863-.595 1.017-.921 1.497-.455-.16-.92-.308-1.036-.807.315-.544 1.193-.956 1.957-.69zM122.706 41.36c.131.253.297.47.23.922-.51.402-1.331.13-1.267-.691.429.005.457-.39 1.037-.23zM119.943 41.706c.685.249.04.764.115 1.151-.532-.032-.62.377-.806.692-.936-.777-.035-1.49.691-1.843zM127.425 41.82c.415.046.772.15 1.151.231-.001.69-.461.92-.92 1.152-.49-.212-.586-.933-.231-1.383zM58.471 42.166c.163.575.302.955-.23 1.267-1.106-.073-1.107-1.861.23-1.267zM135.253 42.282c-.051.217.156.694-.23.575.071.313.481.287.46.691-.254.168-.228.616-.575.691-.472.05-.602-.243-.806-.46-.251-.021-.366.094-.346.345.411.127.746.33.806.806.513-.09.766.079 1.036.23.229-.385.419-.81.806-1.036.328.209.471.605 1.151.46.131.462-.06.73.23 1.152-.236.033-.229.308-.345.46-.834-.02-1.258-.257-1.612.346-.841-.526-2.022-.042-2.763.462-.054-.522-.681-.471-.92-.807-.055-.361.143-.47.345-.576-.053-.293-.498-.193-.576-.46-.043-.389.2-.492.346-.691-.051-.142-.148-.237-.346-.23.079-.46.251-.825.231-1.383.78-.6 1.372.29 1.957.116-.032-.237-.51-.027-.461-.346-.047-.703 1.261-.742 1.612-.345zM137.786 43.087c-.345.546-1.096.316-1.381-.115.063-1.182 1.259-.734 1.381.115zM125.699 42.512c.019.326.211.48.23.806-.48.284-1.186.232-1.612-.115v-.576c.526-.237.811-.263 1.382-.115zM114.417 42.857c.077.927-.861 1.11-1.497.691v-.69c.837-.112.812-.435 1.497 0zM47.305 42.857c.64 1.557-1.673 1.564-1.497.115.432-.491.882-.226 1.497-.115zM142.275 42.857c-.095.814.261 1.372-.115 1.843-.692.04-.887-.418-1.381-.576-.24.681-1.103.74-1.842.922.049-.654-.338-1.828.345-2.303.584-.086.713.285 1.036.46.382-.325 1.088-.773 1.957-.346zM123.972 42.742c-.09 1.024-.59 1.637-1.727 1.613-.13-.37-.028-.407-.23-.806.454-.468 1.095-.748 1.957-.807zM81.149 42.857c.53.303.803.16 1.266.461.075.498-.2.646-.345.921-.873.115-1.495-.794-.921-1.382zM104.402 42.972c1.362 1.055-1.293 2.395-1.036.23.256-.166.555-.288 1.036-.23zM121.094 43.433c-.174.364-.266.809-.46 1.152.233.189.375.47.345.92-.371.352-1.132.073-1.381-.344-.037-.46.532-.312.575-.692-.114-.153-.311-.226-.345-.46.102-.633.813-.929 1.266-.576zM86.214 43.663c.084.545-.164.758-.345 1.037-.536-.078-.814-.414-1.151-.69.211-.477 1.018-.794 1.496-.347zM126.965 43.663c-.144.689.059 1.04-.23 1.613-.416-.068-.772-.194-1.152 0-.337-.892.508-1.932 1.382-1.613zM131.569 44.47c-.315.931-1.844.832-1.726-.46.591-.459 1.369.017 1.726.46zM118.561 43.895c-.122.429.432.181.345.575-.073.502-.762.389-.805.921-1.009-.101-.828-1.82.46-1.496zM114.417 44.355c.218.204.76.083 1.151.115.154.5.065.643-.115 1.036-.582-.045-.895-.252-1.266-.23-.058-.317.05-.604.23-.921z" fill="#202124"/><path fill-rule="evenodd" clip-rule="evenodd" d="M140.894 44.47c.393.182.767.384.921.806.014.207-.141.243-.115.46-.634.347-1.101-.108-1.497-.345.096-.441.377-.698.691-.922zM125.123 46.197c.414-.04.555-.176.921 0 .05.245.143.514 0 .807.298.238.722.35 1.151.46-.107.757.367.886.115 1.497-1.278.757-1.831-.399-1.612-1.613-.437.024-.589.333-.921.46.095.406.741.258.576.923-.996.117-2.486.374-2.763-.691-.512.383-1.094-.006-1.612-.231.052-.37.176-.668.691-.575-.338-.354-1.104-.278-1.151-.922.082-.609.899-.482 1.266-.806.277.167.33.968.115 1.267 1.084.057 1.858.345 2.878.69-.015-.558-.248-.556-.23-.92-.636-.324-1.243-.677-1.382-1.498.856-.636 1.737.2 1.958 1.152zM108.777 45.16c.192 1.57-1.85 1.605-1.727.461.065-.605 1.104-.915 1.727-.46zM140.318 46.312c-.559.842-1.791.56-2.187-.23.117-1.126 2.148-.702 2.187.23zM43.851 45.506c.887-.003 1.538.129 1.497 1.152-.21.174-.645.122-.806.346-.5-.262-1.27-.84-.69-1.498zM110.273 45.621c.462.037.189.81.806.691-.03.355-.25.519-.346.807-.559-.077-1.232-.067-1.151-1.037.092-.293.706-.062.691-.46zM76.544 45.967c-.02 1.22-1.468 1.59-2.072.69-.176-1.292 1.278-.848 2.072-.69zM130.303 46.082c-.221.163-.208.56-.346.806-.261-.083-.587-.102-.805-.23-.066-.671.714-1.094 1.151-.576zM48.801 47.118c.095-.325-.162-.298-.115-.575.581-.131 1.095-.721 1.496-.115-.1 1.074-.618.534-1.38.69zM91.74 46.428c.036.27.181.432.114.806-.579.399-1.737.272-1.726-.576.503-.311.945-.294 1.611-.23zM143.542 46.312c.732-.003.886.572 1.381.806v.461c-.576.335-.629-.407-1.266-.345.067-.427-.356-.668-.115-.922zM47.535 46.888c-.251.241.057.329 0 .69-.375.202-.716.436-1.381.346-.204-.404-.417-.622-.23-1.151.613-.23 1.105-.253 1.611.115zM54.212 46.542c1.221.088.825 1.958-.46 1.267-.214-.477.026-1.097.46-1.267zM103.826 48.04c-.173-.454-.728-.419-1.035-.46-.093-1.977 2.312-.349 1.035.46zM117.871 46.773c.59.122.707.002 1.151.23.047 1.206-.788.836-1.497.576-.117-.5.239-.53.346-.806zM139.167 47.809c-.092.446-.398.678-.691.922-.562-.534-1.307-.247-1.957-.576-.201.028.173.428.231.576-.116.516-.952.603-.576 1.267-.505-.121-.378.39-.805.345-.374-.086-.731-.191-.691-.69-.851.111-1.89.935-2.533.23.285-.61.017-.813.115-1.267-.342.118-.441.48-.921.46-.039-.383-.436-.408-.576-.69.111-.965 1.506-.644 1.842-1.382.66-.046.808.42 1.267.576.002.27-.199.339-.116.69.394.298.756.626 1.497.577.177-.715-.42-.656-.46-1.152.047-.337.393-.374.575-.576.459.002.811.11 1.036.346.624-1.147 2.215-.477 2.763.344zM52.14 47.579c.086.977-.553 1.283-1.382 1.037-.532-.894.842-1.577 1.382-1.037zM143.081 47.694v.691c-.415.403-1.097.131-1.496-.115-.249-1.206.93-.897 1.496-.576zM140.088 49.307c-.481-1.365 1.18-1.557 1.497-.807.205.488-.749 1.404-1.497.807zM144.808 48.616v.575c-.171.06-.29.17-.461.231-1.296-.268-.579-1.734.461-.806zM48.456 48.385h.576c-.056.363.353.261.23.691-.494-.12-.445-.065-.806.115v-.806zM113.957 48.616c-.137.794-.743 1.571-1.727 1.152.426-.213.224-.337.23-.921.592-.283.779-.566 1.497-.23zM130.418 50.573c-.133.097-.308.152-.575.116.54.69-.04 1.44-1.036 1.266-.052-.332-.408-.36-.346-.806-.37-.025-.487.204-.92.115-.294.013-.229.386-.23.691-.548.01-1.03-.045-1.037-.575.363-.351.732-.06 1.152-.23.08-.504-.196-.65-.115-1.153.285.273.677.001 1.035 0v-.921c.854-.606 2.342-.034 2.072 1.497zM100.373 49.997c-.578-.035-1.36.134-1.612-.23.088-1.229 2.093-.8 1.612.23zM72.285 49.307c.445-.062.474.293.806.345.011.357-.141.55-.23.806-.393.008-.804.036-.922-.23.062-.36.475-.37.346-.921zM109.582 49.768c.055.36-.309.304-.345.575-.658.083-.848-.303-1.151-.575.073-.824 1.231-.322 1.496 0zM139.167 49.767c.025.421.158.442 0 .806.42-.24.778-.482 1.266-.115.153.715-.126 1.314-1.036 1.267-.205-.255-.453-.468-.345-1.037-1.285 1.094-1.516-1.912.115-.92zM40.283 49.768c-.13.165-.125.28.115.345-.262.352-.469.76-.46 1.382.398.092.442-.171.805-.115.104.203.258.357.46.46.096 1.757-2.173 1.314-1.611-.23-.287-.072-.935-.028-.921-.691.327-.594.697-1.144 1.612-1.151zM87.595 51.265c-.504.02-.592-.374-1.036-.115-.013-.295-.21-.403-.345-.576.625-1.082 2.338-.345 1.38.691zM106.244 51.034c.092-.4-.171-.442-.115-.806.217-.331 1.007-.268 1.381-.115.301.777-.589 1.392-1.266.921zM99.107 50.92c-.002.573-.513.638-.92.805-.226-.35-.676-.476-.576-1.151.434-.404 1.165-.012 1.496.345zM125.699 51.495c-1.015.326-1.92.248-2.763-.115-.067-.374.078-.536.115-.806.564.027.818-.231 1.036.23.399-.72 1.614-.274 1.612.691zM44.772 51.15c-.348.572-.632 1.21-1.036 1.727-.612-.227-1.008-.908-1.727-.691-.13-.253-.297-.47-.23-.921.432-.238.74-.404 1.151-.116.397-.406 1.536-.767 1.842 0zM136.289 50.689c-.54.999.844 1.346.576 2.073.37.128.757.24 1.151.345-.367.44-.415 1.197-1.382 1.037-.046-.438-.529-.438-.23-.922-.116-.19-.489-.125-.69-.23.083-.352-.199-.34-.115-.69-1.182-.257-.934-2.014.69-1.613zM62.27 50.919c.007.43-.116.728-.23 1.036-.4.138-.925-.2-1.267-.46.077-.732.792-.756 1.497-.576z" fill="#202124"/><path fill-rule="evenodd" clip-rule="evenodd" d="M108.431 51.15c.215.423-.076.637.115 1.036-.092.099-.315.069-.345.23-.609.073-.708-.366-1.036-.575-.165-.829.726-.918 1.266-.691zM117.18 51.38c-.219.372.077.664-.23 1.036-.342-.119-.835-.087-1.037-.346.26-.25-.095-.393 0-.806.425-.415.865-.093 1.267.116zM120.518 51.265c.062.522-.231.69-.345 1.036-.45.067-.668-.1-.921-.23.007-.378.328-.44.231-.921.526-.038.638-.119 1.035.115zM47.996 51.84c-.02.698-.574.559-.921.692-.943-.784.305-1.527.92-.691zM131.8 51.955c-.205.794-.398 1.599-1.612 1.382-.641-.922.902-2.815 1.612-1.382zM142.621 51.84c-.054.82-.744 1.33-1.382.922-.107-1.028.656-1.31 1.382-.922zM138.707 52.301c.67-.095.898.253 1.151.576a.54.54 0 00-.115.345c-.191.193-.676.092-1.036.115-.259-.502-.087-.552 0-1.036zM123.051 52.532c.163.196.215.807.115.92-.454.07-.51-.257-.576-.575.154-.116.348-.19.461-.345zM110.964 54.029c-.509-.145-.772-.533-1.267-.692.305-1.14 2.133-.245 1.267.692zM144.117 53.107c-.197.643-.629 1.286-1.381 1.037.092-.4-.171-.443-.115-.806.424-.305 1.085-.849 1.496-.23zM114.648 53.453c.709-.02 1.174.207 1.151.921-.142.05-.237.147-.231.346-.612-.002-1.02-.208-1.266-.576-.005-.35.243-.448.346-.691zM126.965 53.568v.46c1.482.423-.065 2.286-.921 1.037-.02-.288.258-.28.345-.46-.151-.413-.378-.036-.691-.23-.028-.72.509-.874 1.267-.807zM131.8 53.683c-.002.306.043.658-.115.807-.472.05-.738-.107-1.037-.23a.731.731 0 011.152-.577zM139.627 53.683c.772-.033 1.045.3 1.382.922-.023.437-.523.398-.806.575-.366-.327-.942-.787-.576-1.497zM124.202 53.798c.696.287.875 1.158.576 1.843-.61.267-1.342-.037-1.497-.576.179-.55.58-.878.921-1.267zM45.578 53.913c.654.267.857.985 1.036 1.728-.272.265-.49.585-1.151.46-.498-.521-.622-1.832.115-2.188zM119.137 54.72c-.605.749-1.518.264-1.957-.346.308-.806 1.978-.516 1.957.346zM134.793 54.604c-.426.721-1.737.76-1.727-.345.386-.467 1.763-.54 1.727.345z" fill="#202124"/><path fill-rule="evenodd" clip-rule="evenodd" d="M136.404 55.41c-.158.303-.602.32-.806.577-.255-.132-.625-.233-.69-.346-.78-1.372 1.539-1.948 1.496-.23zM85.869 54.49c.595.117.748.041 1.38 0-.101.251-.108.62 0 .805-.475.486-1.13-.053-1.61-.23.117-.151.112-.424.23-.576zM133.066 54.72c.301.93-.494 1.206-1.381 1.267-.128-.219-.147-.545-.231-.807.464-.4.802-.649 1.612-.46zM66.068 55.756c.011.488-.186.615-.575.92-.391-.107-.643-.354-.806-.69.113-.685 1.042-.607 1.381-.23zM119.597 56.907c-.682-.085-1.219-.316-1.151-1.151.766-.773 1.87.408 1.151 1.151zM130.303 56.102c-.1.36-.285.635-.575.806-1.66-.183-.093-2.38.575-.806zM148.261 55.526c.616.459.71 1.439 1.497 1.727v.461c-1.311.712-2.103-1.239-1.497-2.188zM152.636 55.526c.22.415.33.047.69 0-.252.458.329.528.461.921-.204.41-.144 1.084-.806 1.037-.011.471.398.523.691.69-.11.236-.236.456-.346.692-.805.076-.984-.475-1.266-.922.115-.153.19-.347.345-.46-.416-.65-.43-1.586.231-1.958zM136.98 55.756c.501.19.974.408 1.151.921-.135.019-.097.21-.115.346-.838.07-1.525-.01-1.381-.921a.58.58 0 00.345-.346zM143.772 56.217c.065.564-.417.581-.806.69-.054-.406-.516-.404-.461-.92.379-.267 1.112-.092 1.267.23zM67.68 56.101c-.15.363-.08.486 0 .922-.52.161-.963 0-1.381-.23-.083-.353.117-.42.115-.692.547.045.83-.243 1.266 0zM104.747 56.101c-.507.502.277.389.346.922-.52.278-1.177.471-1.612 0-.28-.963.761-1.119 1.266-.922zM44.542 57.023c-.467.07-.677.397-1.266.346-.035-.235-.23-.307-.346-.461-.087-.97 1.846-1.29 1.612.115zM38.786 56.332c.303.736-.29 1.337-.345 2.073-.46.016-.795.006-.921.576-.847-.023-.975-.092-1.266-.576.527-1.008 1.153-1.916 2.532-2.073zM124.317 56.332c.584.03.812.416 1.151.69-.112 1.102-1.088.575-1.726.232.103-.396.472-.526.575-.922zM140.088 56.793c-.168.953-1.339.693-1.612 0 .319-.601 1.268-.507 1.612 0zM146.534 56.677v.346c-.755.242-.094 1.901-1.151 1.843-.078.693.473.755.346 1.497-.85-.264-1.182 1.3-2.072.575-.274.15-.265.58-.691.576-.886-.773-2.786.29-2.763-1.497 1.062.05 2.347-.897 2.993.23.268-.387 1.115-.8 1.612-.575.535-.473.248-1.062-.115-1.498-.338.099.15.29 0 .577-.635-.147-1.287.346-1.612-.461.15-.714.534-.917 1.151-.921.064.28.27.42.461.575.353-.788.732-2.216 1.841-1.267zM150.103 56.332c.634.317 2.148 1.26.806 1.843-.634-.199-1.412-1.13-.806-1.843zM115.798 56.447c.333.456.352.72 0 1.152-.294.125-.548-.35-.69 0-.211-.267-.329-.377-.461-.922.532.071.663-.258 1.151-.23zM118.907 56.908c.26 1.253-1.447 1.58-1.612.23.429-.357.998-.624 1.612-.23zM58.816 56.793c.002.593.15.736-.115 1.151-.58-.033-1.135-.092-1.266-.575.334-.32.844-.461 1.381-.576zM112.115 57.253v.46c-.636.389-1.325-.005-1.497-.69.499-.303 1.22-.266 1.497.23zM49.032 57.253v.69c-.531-.069-.411.512-.691.692-1.463-.239-.538-2.287.69-1.382zM96.574 58.29c-.56.211-.8-.068-1.266-.23-.63-1.65 2.317-1.02 1.266.23zM120.979 57.484c-.002.344-.3.391-.345.69-.459.075-.464-.304-.922-.23-.2-.99 1.014-1.166 1.267-.46zM128.922 57.139c-.075.423-.092.905-.346 1.151-.508.047-.889-.031-1.151-.23-.444-1.094.647-1.176 1.497-.922zM41.204 57.369h1.266c.412.42.172 1.041-.23 1.267-.668.052-.82-.41-1.382-.461.221-.163.209-.56.346-.806zM98.992 57.369c.496.04.814.26 1.151.46.107.987-.825.965-1.382.691-.138-.616.05-.657.23-1.151zM108.777 57.944c-.082.427.196.495.115.922-.575-.193-1.482-.053-1.727-.576-.239-.963 1.057-.813 1.612-.346zM64.918 57.944c-.11 1.234-1.656 1.343-1.843.115.553-.202 1.296-.554 1.843-.115z" fill="#202124"/><path fill-rule="evenodd" clip-rule="evenodd" d="M155.744 59.441c.051.435-.227.541-.346.806-.87.088-2.604-1.61-1.496-2.072.655-.274 1.436 1.368 1.842 1.266zM40.283 58.52c-.03.623-.407.899-.46 1.497-.408.087-.702-.1-1.152-.23a2.485 2.485 0 01-.115-1.037c.44-.272 1.18-.732 1.727-.23zM147.225 58.29c.702-.05.868.437 1.151.806-.405.924-.02 1.415-.921 1.843-.608-.121-.534-.925-.805-1.383.108-.506.535-.693.575-1.267zM120.288 60.017c-.787-.018-1.236-.375-1.151-1.267.767-.651 1.977.614 1.151 1.267zM64.803 58.636c.437.176.764.463 1.266.575.392 1.11-1.03 1.21-1.612.576.15-.349.048-.95.346-1.151zM35.563 61.284c-.351-.07-.328-.517-.921-.346.056-.363-.208-.407-.115-.806.555-.059.838-.39.92-.921 1.331-.452.865 1.784.116 2.073zM122.936 59.556c-.019.135.025.206.115.231-.134.956-2.038.7-1.727-.46.652-.216 1.229-.261 1.612.23zM60.658 59.326c.432 1.311-1.38 1.298-2.072.691.506-.896.992-.61 2.072-.691zM69.292 59.326c.222.407-.054.515-.115.922-.752.254-.752-.33-1.497-.346.05-.677.964-.852 1.612-.576zM79.307 59.556c.068.78-.722 1.191-1.267.691-.322-1.027.597-1.139 1.267-.69zM151.599 60.938c-.67-.247-2.433.223-2.302-1.036.169-.1.365-.172.345-.46 1.154-.1 2.247-.064 1.957 1.496zM128.576 60.247c-.157.751-1.312.683-1.611.115.092-.215.192-.421.23-.69.628-.22 1.084.149 1.381.575zM130.073 59.556c.013.295.211.404.345.577-.001.229-.314.146-.23.46 1.771-.59 1.138 2.327-.345.69-.018-.285.181-.355.23-.575-.59.276-1.118-.177-1.036-.921.308-.114.607-.238 1.036-.23zM152.636 59.556c.556.317 1.46 1.235.806 1.728-.751-.017-1.03-.506-1.382-.921.042-.419.268-.654.576-.807zM90.819 60.938c-.425.395-1.39.236-1.612-.23-.083-1.419 1.948-1.22 1.612.23zM104.517 60.248c-.058.479-.342.732-.46 1.151-.658.084-.663-.708-1.152-.46-.104-.845 1.195-1.084 1.612-.691zM113.266 60.478c-.112 1.013-1.549.926-1.727 0 .334-.602 1.371-.553 1.727 0zM41.089 61.4c.037-.423-.099-1.02.114-1.267.37.09.764.157 1.037.345.098.79-.532.85-1.151.921zM45.578 60.363c.213.247.078.843.115 1.267.256.357.886.341 1.036.805-1.107 2.088-2.96-1.619-1.151-2.072z" fill="#202124"/><path fill-rule="evenodd" clip-rule="evenodd" d="M43.62 60.478c.888.825-.264 1.535-1.035 1.727-.871-.762-.152-1.767 1.036-1.727zM65.723 60.593c.17.06.29.17.46.23-.286.484.174.667.576.461-.002.27.198.339.116.691-.496.4-.96.05-1.497-.115.005-.747.022-.803.345-1.267zM155.514 62.09c-.372.154-.854.323-1.266.115-1.149-1.564 1.674-2.125 1.266-.114zM49.262 61.169c-.31 2.824-3.148-1.12 0 0zM52.14 60.938c.17.514.037.714-.115 1.152-.501-.113-1.035-.193-1.267-.576-.02-.672.717-.588 1.382-.576zM67.335 60.938c.598.134 1.96.36 1.266 1.382-.624.126-.765-.232-1.266-.23-.02-.327-.211-.48-.23-.806.245.054.219-.165.23-.346zM75.393 61.169c.425.4-.042.917 0 1.267-.811.25-1.146-.294-1.151-1.152.267-.401 1.057-.086 1.151-.115zM121.784 61.284c.037.27.182.432.116.806-.44.42-1.257.197-1.497-.23-.015-.973.82-.617 1.381-.576zM150.909 61.169h.46c-.128.78.754.551.691 1.267 1.247.135.916 1.848 2.187 1.958.449-.116.018-.397.115-.806.368-.362.774-.167 1.151-.115.027.778-.101 1.723-.805 2.072-.381-.118-.679-.318-.691-.806-.474.193.375 1.088-.23 1.498-1.701-.038-.384 2.826-2.303 2.187.154.27.196.65.346.922-.615 1.042-2.07-.046-2.878-.23-.103-.641.229-.846.576-1.037-.367-1.035.867-1.32 1.266-1.957.408.271.892.486 1.381.115.676-1.87-.087-2.754-1.381-3.57-.024-.8-.167-.824.115-1.498zm-.23 7.14h.46c-.126-.464.375-.888-.115-1.037.115.576-.358.564-.345 1.037zM124.893 61.284c-.02.327.389.224.23.691.306.001.657-.044.806.115.213.589.05.765-.461 1.037-.587-.104-.769-.614-1.496-.576-.039-.384-.334-.51-.23-1.037.261-.199.642-.278 1.151-.23zM34.297 61.514c.322.914 1.988 1.236 1.15 2.303-.847.004-1.176-.51-1.611-.92.138-.477.332-.896.46-1.383zM156.319 61.745c.201.487.312 1.087 0 1.497-.485-.014-.582-.416-.921-.576.202-.413.413-.816.921-.921zM108.431 62.55c.067.529-.384.538-.575.807-.475-.177-1.02-.285-1.266-.691.173-.895 1.488-.732 1.841-.115zM36.944 62.435h.576c-.13.753.51.699.46 1.613h.921c.196.634-.807 1.132-.23 1.958-.282.102-.5.268-.921.23.046.3.343.347.345.691-.04.382-.345.5-.575.691-.553-.198-1.052-.592-.806-1.267-.28.072-1.45.206-1.612-.46.167-.601.683-.853 1.497-.806-.018.286.18.357.23.575.106-.546.332-.972.575-1.381-.223-.238-.697-.224-.92-.461.276-.555.246-.734.46-1.383zM59.162 64.163c-.462-.114-.771-.38-1.151-.575.389-1.599 2.551-.13 1.15.575zM124.317 63.127c.767.04 1.032.58 1.151 1.267-.48.306-1.141-.044-1.496-.23.061-.4.308-.614.345-1.037zM68.601 63.357a3.9 3.9 0 01.576.575c-.041.382-.345.5-.576.692-.403-.173-.964-.188-1.15-.576.036-.578.993-.234 1.15-.691zM47.88 63.472c.02.67.712.67.576 1.497-1.599 1.268-2.097-1.442-.576-1.496zM119.367 64.74c-.5 0-.768-.23-1.151-.346-.158-1.35 2.231-.782 1.151.345z" fill="#202124"/><path fill-rule="evenodd" clip-rule="evenodd" d="M151.254 65.545c-.208.26-.581.271-.921.115-.511.372-.448 1.318-1.151 1.497-.496.075-.361-.482-.806-.46.174-.402.159-.993.461-1.267-.165-.258-.37-.474-.576-.69.056-1.135 1.494-.886 2.302-1.267.255.855.45 1.137.691 2.072zM115.223 64.624a.8.8 0 00-.23.346c-.877.065-1.585-.44-1.036-1.153.62-.19 1.208.115 1.266.807zM135.829 63.817c-.273.422.243 1.241-.576 1.383-.388.066-.608-.326-1.036-.576.193-.599.851-1.134 1.612-.807zM42.01 64.163c-.18.626-.745.868-.806 1.612-.421.076-.442-.249-.806-.23.199-.822.524-2.268 1.611-1.382zM33.721 64.163c.474.624-.025 1.455-.575 1.728-.431-.241-.605-.064-1.037-.346-.006-1.004.853-1.142 1.612-1.382zM129.267 64.163c.381.5.135.951-.23 1.266-.559-.015-1.068-.083-1.381-.345-.258-1.102.762-.926 1.611-.921zM122.36 65.66c-.155.114-.23.308-.345.461-.52-.056-.784-.368-1.266-.461-.063-.436-.279-.72-.231-1.267 1.022-.425 1.624.51 1.842 1.267zM95.308 64.854c.16.33-.314.585 0 .69-.546.46-1.11.452-1.727.116v-.806c.523-.41 1.194-.356 1.727 0zM103.366 65.2c-.008.622-.052.61-.115 1.037-.503-.035-.89-.185-1.266-.346.068-.239-.143-.757.115-.806.338-.018.954-.153 1.266.115zM83.796 66.121c-.309.228-.567.508-1.15.46.028-.335-.217-.397-.346-.575-.055-1.19 1.56-.857 1.496.115zM50.182 65.545c.368-.098.356.181.576.23-.396.917.38 1.475.23 2.765-.413-.03-.421.346-.806.345a.805.805 0 00-.575-.575c.084-.338.35-.496.575-.691.035-.304-.159-.378-.46-.346.17-.183.026-.703-.115-.921.154-.308.535-.386.575-.807zM112.69 66.121c-.066.24-.285.329-.23.69-.521.18-1.2-.178-1.381-.69.124-.875 1.402-.585 1.611 0zM44.197 65.775c.237.383.222.712 0 1.152-.553.016-.965-.11-1.267-.345-.18-.874.642-1.089 1.267-.806zM127.425 65.775c-.37.427.422.431.231 1.037-.201.3-.765.233-1.266.23-.133-.251-.023-.745-.346-.806.304-.328.856-.698 1.381-.46zM135.944 65.89c-.279.836.597.964.921 1.728-.058.404-.642.28-.806.576-.802-.295-.416-1.14-1.381-1.153-.571-.91.168-1.513 1.266-1.15zM120.749 66.466c.154.36.202 1.06-.115 1.267-.459.037-.851.006-1.037-.23.038.421-.127.64-.23.92-.379.006-.573.195-1.036.116-.19.27-.251.67-.575.807-.475-.063-.78-.295-1.037-.576.152-.693.39-1.3.922-1.613.612.144.777.04 1.381.115-.043-.96.873-1.534 1.727-.806zM106.474 66.121c.362-.017.396.295.461.576.437-.215.823-.482 1.496-.46-.018.133.025.204.115.23-.24 1.133-1.734.915-2.647.805-.468-.487-.127-1.187.575-1.15zM74.932 67.157c-.44.234-.973.22-1.38-.115-.16-1.31 1.469-.756 1.38.115zM116.489 66.237c.479.716-.129 1.522-.806 1.266-.238.03-.031.506-.23.576-.676.024-1.12-.185-1.381-.576.567-.705 1.36-1.382 2.417-1.266zM48.916 67.734c-.651-.096-.36.35-.805.345-.657-.007-1.054-.683-1.036-1.037.058-1.139 1.684-.588 1.841.692zM33.606 66.697c.329-.023.627-.015.575.344-.33.023-.628.015-.575-.344z" fill="#202124"/><path fill-rule="evenodd" clip-rule="evenodd" d="M35.333 66.697c.202.812 1.492 1.526.575 2.419-.695.043-1.165-.14-1.496-.462.034-.838-.723-2.153.92-1.957zM141.124 66.697c-.14.83.336 1.046.806 1.267.444-.093.53-.545.921-.692.561.257 1.161.148 1.726.577-.023.36.078.845-.115 1.036-.664-.001-1.057.151-1.957.346-.643-.915-2.37-.005-2.993-1.267.308-.652.617-1.303 1.612-1.267zM39.822 67.388c-.064.546-.955.762-1.496.46-.426-.919 1.129-1.207 1.496-.46zM133.411 67.042c.051.397-.045.646-.115.922-.331-.015-.753.063-.921-.115v-.692c.324-.16.662-.304 1.036-.115zM87.48 67.042h1.151c.12.327.12.48 0 .807-.313-.278-.514-.073-1.15-.115-.011-.43-.13-.329 0-.692zM148.722 67.157c.495.446.216.947.115 1.382-.306.001-.658-.043-.806.115.654.591 1.532.98 1.151 2.304-1.322.251-2.441.706-2.878 1.843-.428.007-.728-.116-1.036-.23.265-.16-.125-.382-.115-.461.133-1.001 1.472-1.128 2.073-1.843-.179-.705-1.135-.632-1.497-1.151.224-.544.567-.97.805-1.498 1.041.158 1.161-.605 2.188-.461zM130.649 67.849c-.092 1.245-2.126.764-1.612-.346.679-.37 1.256-.14 1.612.346zM138.361 67.964c.132.952-1.036 1.4-1.381.576-.123-.891.987-1.186 1.381-.576zM41.78 67.849c.305 0 .656-.044.805.115.13.335-.024.833-.115 1.267-.549.05-.861-.138-1.152-.346.266-.47.287-.476.461-1.036zM43.62 68.31c.211.25.943-.021 1.152.23.128.87-.782.932-1.266.576-.067-.374.078-.536.115-.807zM76.544 69.806h-.92c-.435-.243-.272-1.002-.231-1.152.865-.89 2.058.363 1.15 1.152zM91.74 68.424c-.332.398-.492.967-1.036 1.152-.35-.659.43-1.075 1.035-1.152zM125.929 69.576c-.31-.08-.223.238-.346.346-.817-.103-1.338-.504-1.726-1.037.485-1.046 2.033-.132 2.072.691zM136.174 68.54c.334.785-.203 1.205-.805 1.381-1.028-.348-.429-1.679.805-1.382zM56.399 69.116c.055.362-.164.45-.23.69-.42-.116-.833-.242-1.267-.345-.124-.927 1.285-1.018 1.497-.345zM84.602 68.654c-.197.698.662.337.576.922.1.37-.38.158-.345.46-.515-.022-.654-.42-1.037-.575.143-.394.16-.915.806-.807zM115.108 69.46c-.1.362-.286.637-.576.807-.474-.062-.739-.335-1.036-.576.023-.949 1.347-.968 1.612-.23zM40.398 70.613c-.193.306-.229.77-.576.921-1.039-.175-1.348-1.1-2.417-1.497.473-2.196 2.398-.153 2.993.576zM145.383 69.116c.433 1.012-.873 1.854-1.611 1.036.057-.825.633-1.133 1.611-1.036z" fill="#202124"/><path fill-rule="evenodd" clip-rule="evenodd" d="M75.393 70.152a.819.819 0 00-.23.346c-.49-.069-.762.082-1.151.115-.765-1.404 1.474-1.994 1.381-.461zM62.155 70.267c-.425.324-1.123.142-1.497.116.003-.271-.198-.34-.115-.692.522-.312 1.91-.718 1.612.576zM48.686 69.691c-.035.503.34.512.115.922-.714-.178-.655.42-1.151.46-.751-.558-.052-1.917 1.036-1.382zM94.157 70.036c.083.353-.118.42-.115.692-.358.15-.329-.032-.806 0-.11-.305-.478-.732-.23-1.037.287-.174.864.156 1.15.345zM52.6 69.806c.564-.065.818.18 1.036.461.057.671-.58.649-1.036.806.03-.376-.358-.332-.46-.576.075-.308.33-.437.46-.69zM90.473 69.921c.056.539.137.75-.115 1.152-.674-.038-.716.006-1.151-.23-.046-.826.504-1.232 1.266-.922zM117.986 69.806c.427-.043.301.467.806.346.247 1.038-.888 1.23-1.612.921-.145.257.078.944.115 1.382-.202.283-.694.273-1.036.116.577.58-.168.997-.576 1.267-.422-.115-.69-.384-1.151-.461-.173-.75.604-1.032 1.036-.806.852-.702-.23-3.583 1.957-2.534.314.084.232-.23.461-.23zM120.173 71.073c.345-1.055 2.332-1.759 1.957-.23-.168.684-1.369.882-1.957.23zM142.736 70.728c.576-.083.69.083.921-.346.235.11.455.235.69.346.038.423-.098 1.019.115 1.267.743-.1 1.087 1.46.345 1.957-.765.12-1.287-.51-.921-1.151-.49-.316-1.056-.555-1.266-1.152-1.062.172-1.809-.59-1.726-1.152.137-.932 1.635-.86 1.842.231zM46.269 70.037c.456-.073.33.438.806.345v.806c-.228.187-.838.371-1.152.115.11-.576-.053-.873.346-1.266zM100.028 70.843c-.07.82-1.41.591-1.727.115.229-.929 1.391-.894 1.727-.115zM113.842 70.958c-.053.818-1.502.58-1.612-.115.146-.636 1.51-.344 1.612.115zM38.21 71.419c-.05 1.095-1.836.458-1.842-.23.44-1.097 1.365-.205 1.843.23zM84.602 71.303c-.218.128-.544.148-.806.231.15-.456-.378-.235-.23-.691.61-.01 1.154-.576 1.036.46zM126.044 71.073c-.146.882-1.418.8-1.727.115.33-.761 1.229-.56 1.727-.115zM107.395 70.728c.421.04.43.491.806.576-.184.406.117.63-.23.921-.63-.13-.85-.495-1.382-.46-.093-.707.534-.695.806-1.037zM63.766 71.188c-.091.591.243.755.23 1.267-.61.475-1.843-.055-1.61-1.152.431-.195.848-.298 1.38-.115zM79.422 72.11c.047.622-.66.49-.69 1.036-.25.02-.053-.408-.116-.576-.544-.045-.96.037-1.381.115-.77-1.756 1.598-1.74 2.187-.575zM42.01 71.764c-.382.754-.333 1.227-.806 1.843-.59-.1-.993-.39-1.382-.691-.186-1.623 1.22-1.873 2.187-1.152zM95.308 71.419c.035.534-.001.997-.23 1.266-.427.082-.494-.197-.921-.115.01-.163.019-.326-.115-.345.124-.521.76-1.038 1.266-.806zM51.794 73.146c-.489-.125-.705-.522-1.036-.806.064-1.994 2.357-.18 1.036.806zM57.78 71.534c.164.385.164 1.111 0 1.497-.446.225-.801-.147-1.266-.23.088-.434-.14-.551-.116-.922.223-.381.837-.627 1.382-.345zM128.692 72.686c-.409-.206-1.077-.152-1.267-.576-.061-1.313 2.515-.453 1.267.576zM92.43 72.8c-.225.19-.825.384-1.151.115.019-.133-.025-.204-.115-.23.022-1.168 1.595-1.576 1.266.115zM111.885 72.11c.142.325.142.71 0 1.036-.379.036-.943.266-1.267 0-.3-.78.432-1.392 1.267-1.036zM46.269 73.377c.026-.482-.188-.544 0-.922.621-.2 1.977-.671 1.841.46-.073.614-1.086.89-1.841.462zM43.62 72.686c-.057.29.011.88-.114 1.382-.58.36-.647-.007-1.266-.115-.06-.482.064-.78.23-1.037.61.15.587-.333 1.15-.23zM97.15 72.685c-.152.265.374.648.23 1.267a.582.582 0 00-.345.346c-.413-.01-.665-.179-1.036-.23-.01-.182.055-.44-.115-.46.287-.443.567-.892 1.266-.923zM129.152 72.685c.987.216 1.303 1.217.805 2.073-.134-.018-.204.026-.23.116-1.342.063-1.1-1.514-.575-2.189zM93.236 72.8c.27.037.432.182.806.115-.222.256.298.469.115 1.037-.369.344-.68.11-1.267.115-.183-.543.19-.774.346-1.267zM100.603 73.147c-.027.47-.391.606-.46 1.036-.508.047-.89-.032-1.151-.23-.081-1.002 1.039-1.443 1.611-.806zM123.281 73.952c-.684.918-2.01.31-1.957-.46.071-1.034 1.787-.583 1.957.46zM80.573 73.607c-.07.894-1.26.952-1.842.46.194-1.091 1.355-1.398 1.842-.46zM82.07 73.031c.335.901-.12 1.83-1.152 1.728-.549-.862.023-2.226 1.152-1.728z" fill="#202124"/><path fill-rule="evenodd" clip-rule="evenodd" d="M143.542 73.146c.084.262-.208.898.23.806-.032.237-.307.23-.461.346.378.263.2.94 0 1.267-.61.238-.923-.13-1.266-.46.15-.426.628-.525.921-.807-.072-.312-.481-.287-.461-.69.197-.303.421-.579 1.037-.462zM73.09 73.492c.064 1.124-1.5 1.13-1.61.115.427-.455.937-.221 1.61-.115zM45.693 74.183c-.183.74-1.419.666-1.726.115-.218-1.138 1.375-1.102 1.726-.115zM54.327 73.377c.067.24.242.372.345.576.087.355-.397.14-.23.575-.584.048-.78-.294-1.266-.345.062-.59.407-.897 1.151-.806zM48.11 73.607c.804-.273 1.141.37 1.497 1.037-.042.341-.2.568-.46.69.116.345.633.288.46.922-1.15.626-2.571-.46-1.497-1.382-.206-.65.214-.843 0-1.267zM61.925 73.492c-.08.31.237.222.345.345.071.494-.375.47-.345.921-.602-.355-.978.041-1.382-.345-.094-1.09.653-.832 1.382-.921zM74.587 73.607c.054.523.207.945.23 1.497-.498.352-.513.026-1.15 0-.453-.796-.386-2.028.92-1.497zM78.5 73.838c.114 1.292-1.526 1.458-1.61.23.26-.53 1.095-.55 1.61-.23zM126.965 73.722c.254.336.357.566.23 1.036-.439.137-.707.445-1.381.346-.48.211-.326 1.057-.691 1.382-.442.034-1.006-.228-1.266-.69.05-.334.242-.526.575-.576-.286-1.239 1.387-1.327 2.533-1.498zM68.371 74.068c.169.253.35.494.345.921-.282.292-.74.411-1.381.345-.051-.294-.161-.53-.345-.69.225-.428.625-.68 1.381-.576zM135.023 74.067c.491.365.042.905-.23 1.498-1.858.068-.617-1.396.23-1.498zM95.423 74.528c-.307.92.018 1.419-.115 2.188-1.95.11-1.354-2.946.115-2.188zM104.057 74.298c.22.34.571 1.03.115 1.382-1.188.081-1.792-1.535-.115-1.382zM59.392 75.334c-.354.723-1.884.404-1.727-.69.712-.544 1.53.037 1.727.69zM98.646 74.644c.009.49.193.805.115 1.381-.097.248-.733-.043-.805.23-.329-.132-.378-.543-.691-.69.247-.511.718-1.183 1.381-.921zM85.178 74.644c.503.15.245.54.23 1.036.24.182.469.375.806.46.062.524-.231.69-.345 1.037-.526.027-.805-.193-1.151-.345-.1-.446.28-.41.345-.691-.178-.206-.691-.077-.806-.346-.204-.895.558-.823.92-1.151zM92.89 76.14c-.386.004-.608-.158-.805-.345-.31.034-.206.484-.46.576-.503.08-.649-.196-1.152-.116.125-1.345 2.48-2.279 2.417-.115zM120.288 74.99c.062.444-.206.561-.115 1.035-.312-.07-.914.146-1.036-.115-.25-.02-.053.409-.115.576-.824.428-1.792.362-1.382-.806.19-.157.672.094 1.151 0-.024-.333.862-1.375 1.497-.69zM66.644 76.255c-.61.209-1.402-.141-1.842-.46-.032-1.594 2.38-.579 1.842.46zM56.169 75.104c.296.51.552 1.059.805 1.612-.236.032-.23.308-.345.46-1.227.116-1.247-.977-1.957-1.38.292-.439.72-.741 1.497-.692zM50.528 75.334c1.171-.118 1.949.178 1.842 1.037-.5-.04-.643.279-1.036.345.075.347.452.393.575.691-.001.42-.327.517-.46.806-.703.09-1.006-.222-1.381-.46-.19-.881.506-.876.92-1.152-.05-.332-.494-.272-.575-.576-.083-.351.118-.419.115-.69zM67.105 75.795c.748.096 1.091.597 1.266 1.267-.484.313-1.143.83-1.612.23-.023-.638.255-.974.346-1.497zM77.465 75.795c.522.485.248 1.062-.115 1.497-.306-.002-.657.044-.806-.115-.688.758-.182 2.104.921 2.073.47-.144.524-.705 1.266-.576.216-.22-.068-.208 0-.576.254-.169.494-.35.921-.345.066.357.41.434.576.69-.123.427-.69.586-1.152.346-.122.157.03.737.46.691.091 1.127-.313 1.759-1.38 1.728-.119-.266-.397-.372-.346-.807.11-.196.362-.252.575-.345-.397-.51-1.69.614-2.072-.115-.336.508-.677 1.011-.92 1.612.596.06.656-.418 1.266-.345.084.107.209.174.345.23-.07.275-.166.525-.115.921-.27.23-.733.266-1.266.23-.065-.281-.446-.245-.346-.69-.36.222-.829.297-1.151 0 .053-.81-.2-1.212.115-1.728a2.823 2.823 0 001.496-.576c-.104-.24-.34-.35-.69-.345.008-.61-.092-.935-.575-1.267.214-.765 1.015-1.092 1.611-1.151.103-.705.599-1.015 1.382-1.037zM100.258 77.177c-.503.08-.648-.196-1.151-.115-.26-1.782 2.138-1.304 1.151.115zM132.72 76.025c.277.932-1.058 1.594-1.381.576.211-.598.75-.98 1.381-.576zM111.77 76.256c.136.597-.212.71-.346 1.036-.785-.188-1.503-.207-1.036-1.151.734-.16.818.105 1.382.115zM102.445 76.14c.569.433 1.691.785 1.152 1.959-2.647.757-3.431-1.67-1.152-1.959zM81.955 76.371c.282.404.223.945 0 1.382-.48.1-.632.14-1.152 0-.168-.7.103-1.56 1.152-1.382zM106.819 76.601c.143.318.336.585.346 1.037-.43.43-1.606.129-1.612-.576.286-.538.512-.524 1.266-.461zM115.108 76.486c.235.034.226.311.46.346-.035.645-.022.718-.345 1.152-.522-.093-1.072-.156-1.151-.692.049-.565.862-.366 1.036-.806zM62.73 77.638c-.48.149-.224.438-.345.806-.992.599-1.74-.5-1.727-1.612.626-.425 1.983-.029 2.072.806zM134.447 76.832c-.149.657-.357 1.255-1.151 1.266-.205-.255-.453-.468-.345-1.037.495-.284.933-.571 1.496-.23zM84.027 78.213c-.333.33-.656.605-1.151.231-.277-1.514 1.42-1.993 1.15-.23zM88.056 77.177c-.143.356-.284.714-.576.922-.582.044-.746-.329-1.036-.577.11-.7 1.094-.636 1.612-.345zM130.763 77.753a.63.63 0 01-.46.46c.149.506.168.618.23 1.038-.104.394-.521.477-.69.806-.311-.112-.556-.29-.576-.691.052-.486.585-.49.69-.922-.143-.317-.587-.333-.805-.575.155-1.07 1.366-1.055 1.611-.116zM55.018 78.214c-.508.4-1.395.192-1.958 0-.14-.525.316-.452.23-.922.922-.214 1.48.174 1.728.922zM97.265 78.213c-.266.156-.381.463-.921.346.332.88-.451 1.006-.115 1.958-.093.099-.315.069-.346.23-.976-.295-1.487-.349-2.417-.69-.048-1.034.86-1.375 1.497-.806.374-.309-.265-.573-.23-.922.445.062.562-.206 1.035-.115v-.691c.619-.463 1.689-.488 1.497.69zM99.452 77.638c-.227.77-.453 1.543-.576 2.419-.583-.13-.84.05-1.15-.231-.094-.784.66-.721.805-1.267.044-.428-.554-.213-.575-.575-.064-.96 1.181-.957 1.496-.346zM126.62 77.868c-.161.631-.841 1.145-1.497.921-.06-.17-.17-.29-.23-.46.126-.643 1.503-1.294 1.727-.46zM122.36 77.984c-.221.732-1.436 1.153-1.611.115.255-.578 1.168-.481 1.611-.115zM112.345 78.444c.064.205.059.478.231.575-.669.7-1.673 1.25-2.418.461.115-.153.19-.347.345-.46-.084-.26-.438-.253-.46-.576.443-1.235 1.377.05 2.302 0z" fill="#202124"/><path fill-rule="evenodd" clip-rule="evenodd" d="M74.357 78.098c-.198.394.126.714-.115 1.152.2.373.302-.3.69-.115.056.631-.655.495-.806.921-.445-.59-1.383-.688-1.726-1.382-.226.158-.062.706-.23.921-.4.062-.613.308-1.036.346-.58-.38-.856-.71-1.842-.46-.034-.235-.312-.226-.346-.461 0-.385.375-.393.346-.806.604-.029 1.194-.044 1.266.46 1.146-.982 1.825-.436 3.799-.576zM59.507 78.328c-.083.608-.375 1.007-.69 1.382-1.297-.116-2.183.787-2.879-.23-.087-.936 1.24-.914 1.612-.46.598-.321 1.182-1.227 1.957-.692zM91.97 79.48c-.46.038-.64-.205-1.151-.115-.182-1.536 2.176-1.284 1.15.116zM128.576 80.057c-.731-.152-1.116-.65-1.151-1.498.855-.997 2.308.792 1.151 1.498zM90.588 79.711c-.478.79-1.85-.014-2.072-.576.53-1.576 1.563-.083 2.072.576zM118.101 79.02c-.051.43-.017.595-.345.921-.828.022-1.266-.346-1.612-.806.318-1.17 1.293-.62 1.957-.115zM82.76 78.905c-.066.432-.1.897-.69.806.233.84-1.029 1.432-1.612.576-.003-.272.198-.34.115-.691.707-.235 1.554-1.79 2.187-.691zM86.444 78.674v.806c-.341.157-.834.167-1.036-.115.02-.7.441-1.164 1.036-.691zM66.068 79.25c-.203.894-1.306.688-1.726.115.047-.955 1.598-1.07 1.726-.115zM135.598 79.826c-.661.26-1.664.12-1.726-.576.416-.645 2.188-.676 1.726.576zM113.036 79.826c.306-.723 1.545-1.07 1.726-.23.214.984-1.364 1.491-1.726.23zM100.143 79.135c.272.035.214.4.576.345v.806c.389-.2.604-.319.92-.345.335.324.754 1.097.346 1.496.016.33.48.212.805.231-.061.446.206.563.115 1.037-.832.778-1.789-.135-2.648-.346-.122-.384.037-.393-.114-.806.269-.038.475-.138.69-.23a.544.544 0 01-.115-.346c-.072-.273-.708.017-.806-.23-.324.116.032.489 0 .69h-.46c-.184 1.16-.641 2.047-1.382 2.65-2.034-.967.194-2.696.691-3.801.24-.049.305.078.46.115.256-.474.895-.564.922-1.266zM133.411 79.135c.622.694-.514 1.897-1.151 1.266-.182.317-.199.8-.345 1.152-.639.102-.892-.182-1.152-.46.031-.622.364-.942 1.037-.922.236-.647.544-1.22 1.611-1.036zM106.705 79.48c.252 1.185-1.108 1.505-1.727.576.219-.569 1.191-1.011 1.727-.575zM87.48 79.48c-.204.333-.042 1.033-.345 1.267-.332-.014-.754.063-.921-.115.019-.134-.026-.205-.116-.231.195-.573.581-.954 1.382-.92zM103.481 79.48c.362.291.976.33 1.382.576.099.56-.33.592-.231 1.152.407.26.405-.244.921 0 .304.541.508 1.18 1.036 1.497-.002 1.478-1.882.395-2.417.921-.378-.044-.508-.336-.806-.46.01-.45-.089-1.01.461-.922-.036-.73-.874-.661-.921-1.381.088-.565.656-.649.575-1.382zM63.882 79.71c-.23.463-.151.753-.461 1.268-1.845.518-1.044-1.888.46-1.267zM68.14 79.941c-.044.724-.416 1.12-1.266 1.037-.124-.298-.416-.429-.46-.807.296-.414 1.3-.61 1.726-.23zM122.36 79.71c.221.394.619.61.806 1.037-.032.237-.308.23-.46.346.393.653 1.629-.12 2.071.576.008.584-.197.953-.115 1.612-.563.47-1.558.617-2.072 0 .103-.473.564-.587.806-.921-.27-.102-1.201.147-1.381-.346-.056-.362.163-.45.23-.69-1.186-.206-1.336-1.916.115-1.613zM61.349 79.826c.74 1.087-1.395 2.396-1.266.23.368-.13.763-.234 1.266-.23zM126.39 79.941c.251.36.333 1.039 0 1.382-.449-.15-.666-.004-1.152-.115-.019-.326-.211-.48-.23-.807.485-.128.611-.616 1.382-.46zM119.943 80.747c-.001.344-.207.484-.461.576.279.723.67-.35 1.382.115.2.822.247 1.692-.345 2.418-.898.006-1.51-.935-2.073-1.612.026-.512.561-.514.806-.806-.103-.244-.805.227-1.036-.115.132.475.171.945-.23 1.152-1 .04-1.221-.698-2.072-.807.037.131.252 1.162-.116 1.497h-.92c-.162-.221-.304-.463-.346-.806.118-.113.233-.228.346-.345-.08-.38-.656-.265-.576-.806.112-.004.089-.141.115-.23.431.152.796-.344 1.036 0 .311-.035.207-.485.461-.577.839.241 1.166.451 2.072.461.372-.743 1.544-.844 1.957-.115zM84.027 81.553c-.685.356-1.48.338-2.072 0-.124-1.358 2.26-1.627 2.072 0zM113.036 80.978c-.083.351.118.419.115.69.274.073.507.07.806.346-.083 1.07-1.093 1.21-1.612 1.842a80.295 80.295 0 00-1.842-1.036c-.787.313-1.842 1.32-2.763.46.212-.676-.069-1.137.231-1.727.664-.235 1.248.257 1.841-.115.723.566 1.507.431 2.073 1.037.236-.033.229-.308.345-.461-.714-.648-.154-1.683.806-1.036zM71.019 81.323c.117.5-.239.53-.346.806-.805.037-1.296-.239-1.612-.691.031-.764 1.804-.809 1.958-.115zM128.922 80.862c.357.787-.272 1.05-.576 1.497-.652.078-1.046-.105-1.496-.23-.247-1.532 1.166-1.13 2.072-1.267zM80.918 81.899c-.642 1.252-2.457 1.948-3.108.345.414-.825 2.347-.638 3.108-.345zM86.79 82.13c.049.433-.36.407-.46.69.314.402.461.67.344 1.267-.504.304-1.257.5-1.841.115-.012-.472-.023-.943.115-1.266.57-.013.565.113 1.035 0-.079-.459-.8-.274-.805-.807.22-.782 1.322-.574 1.611 0zM73.32 82.245c-.048.22-.247.29-.23.576-.551-.025-1.265.114-1.496-.23-.323-1.335 1.565-1.043 1.727-.346zM93.927 84.317c-.315.105.204.404-.115.576-.755-.072-1.901-.296-1.382-1.267.567.064 1.517-.061 2.072-.345.175-.402.477-.675.46-1.267 2.033-1.222 1.132 4.086-1.035 2.303zM126.735 82.014c.004.915-.537.597-1.267.806-.046-.3-.343-.347-.345-.691.382-.581.94-.159 1.612-.115z" fill="#202124"/><path fill-rule="evenodd" clip-rule="evenodd" d="M92.2 82.014c.287.097.617.151 1.036.115.21.274.3.666.115 1.037-.489.141-.62.042-1.151 0 .189-.465-.2-.622 0-1.152zM89.437 82.244c.384.2.51-.058 1.036 0 .428.837-.358 1.783-1.381 1.037.118-.342.086-.835.345-1.037zM73.897 82.475c.568.046 1.168.059 1.496.345.077.537-.415.506-.576.806-.525.103-.652-.192-1.035-.23.013-.331-.063-.753.115-.921zM77.925 82.82c.067.451-.099.67-.23.922-.869.143-1.384-.432-1.151-1.037.365-.356 1.041-.172 1.381.116zM84.142 83.396c-.081 1.052-1.245.892-2.072.69-.17-.352-.031-.599.115-.92.648-.126 1.369-.187 1.957.23zM91.279 84.548c-.343.521-1.2 1.076-2.072.69-.178-.167-.101-.589-.115-.92.91-.274 1.968-1.204 2.187.23zM147.11 51.034c-.486-.003-.743.223-1.151 0-.198.148-.143.549-.461.576-.968-.454-1.138-.686-2.187-.806-.177-1.304 1.718-.969 2.187-.46 1.197-1.21 2.219.848 3.108 1.381.084.352-.117.42-.115.691-.68.144-.822-.252-1.15-.46-.282.401.257.967.345 1.381.857-.905 2.962-.85 3.453.577-.406.4-.493 1.118-1.381 1.036-.359-.487-1.262-.426-1.612-.921-.41.264-.696.207-1.266.115.246.368.332.93-.115 1.151-.843.076-.924-.61-1.266-1.036.447-.09.27-.805.92-.691-.087-.71-.22-1.43.231-1.843.37-.101.238.299.46.345.285-.298-.112-.564 0-1.036zM88.746 70.267c-.038.352-.185.843-.115 1.267-.48.287-.672-.287-1.151 0-.023-.637.388-.84.575-1.267.296-.125.55.35.691 0zM79.882 76.14c.183.13-.33.386.23.46-.396 1.227-2.968.134-1.956-1.036.347.136.71-.098.806.46.386-.34.693.37.92.116zM137.21 37.214c.717-.158 1.173.574 1.612 1.037.059.48-.064.78-.23 1.037.05.486.467.606.69.92.157 1.208-1.198.799-1.611.692-.18.281-.207.714-.461.92-.879-.25-1.807.145-1.957-.92-.691.6-1.912-.355-1.151-1.152.448.05.911.087 1.266.23.099.367-.1.438-.23.576.36.298.501-.428.921-.115.121-.253-.004-.383.23-.691h.345c.543.033.339.813.691 1.037.573-.806-.57-1.265 0-2.074-.696.31-1.787.35-2.417.115-.189-.694-.277-1.488-.806-1.842-.357-.012-.329.362-.806.23-.124.299-.279.565-.23 1.037-.392.107-.675.323-1.266.23-.396-.409-.109-1.075 0-1.612.428.006.456-.389 1.036-.23.363-.45.267-.813.805-1.152 1.451-.913 2.33-.289 3.569.921.031.477-.151.449 0 .806zm-1.266.576c.283-.297-.123-.554-.346-.691-.121.306-.085.655.346.69zM134.562 57.368c.164.882-1.01 1.517-1.381.806.357.514-.517.947-.23 1.613.604.073 1.86-.277 2.532.23-.758-.69.181-1.355-.114-2.188.255-.267.448.04.805 0-.402.623.462.486.46 1.037.385 0 .393-.375.806-.346.139.514.382.923.921 1.036.92-.69.706-2.517 2.763-2.072.066.24.285.329.23.69-.151.118-.424.113-.575.231-.096.325.162.298.115.576-.873.47-1.621 1.066-2.303 1.727.277.282.612.068.806.23.022.592.365.864.461 1.383.046.468-.491.354-.576.69.647.032 1.412-.813 1.957-1.266.733.042 1.176-.205 1.957-.115.065.331.084.2.23.575.568-.314.681-1.084 1.727-.92.096.287.315.452.345.806.884-.07.957.283 1.612.23.206-.216.254-.59.46-.806h.461c-.316.687.954.507.69 1.496-.481.34-1.066-.037-1.266-.345-.338.098.069.371 0 .576-.769.424-1.581.17-2.418 0-.045.66.622.606 1.267.575.064.397.349.573.69.691-.217.59.346 1.117.806 1.383-.047.375-.24.604-.46.806-.62-.224-1.166-.523-1.497-1.037-.794.633-3.034 2.086-3.684.46.481-.554 1.171-.901 2.072-1.036.054-.36-.1-.514-.46-.46.051-.372.22-.625.23-1.037-.417-.08-.445.478-.806.115-.413.01-.091.753-.345.922-.361.127-.304.053-.576-.116-.003.132-.19 1.087-.69.691.185.805-1.982 1.998-1.727.345-.079-.107-.792.125-.921-.23-.399.368-.599.42-.576 1.037-.277.145-.77.073-.805.46-1.855-.693-.198-1.716.115-2.879.383-.154.582-.492 1.036-.575.014-.207-.141-.243-.115-.461-.646-.004-1.856 1.003-2.303 0-.651.106-1.344.556-2.072.23-.203.193.103.386 0 .806-.406-.01-1.038.639-1.381 0-.318.79-2.128 1.382-1.727-.46.352-.109.361-.56.806-.576-.004-.418-.474-.37-.576-.691.16-.628 1.297-.906 1.843-.46-.082.532-.428.8-.576 1.266.084.108.209.175.345.23.503-.8 1.83-2.097 2.878-1.266.281-.18.301-.62.691-.691.404.485.747.805 1.611.576-.238-.424.031-.637.115-1.037-.572-.195-.556-.98-1.266-1.036-.421.238.031.638-.23 1.036-.318.126-.993.23-1.152-.115-.337.008-.427.263-.575.46-1.174-.557-3.037-.115-3.799-1.266.63-.522.546-1.196.691-2.303.427-.08.791-.214.921.23.349-.362 1.121-1.068 1.727-.46zm7.828 6.104c-.126-.615-.574-.331-1.036-.46-.137.636.805.193 1.036.46zm-2.302.69c.275-.07.835.146.921-.114-.449-.31.357-.324.23-.691-.638.005-.965.278-1.266-.115-.088.434.14.55.115.92zM140.779 69.116c.006.543-.402.672-.576 1.036-.389-.043-.889-.311-.805.346.915.12 1.034 1.038 1.841 1.266-.239.376-.628.6-.92.922.322.238.521-.417 1.036-.346 1.177.891-.029 2.396.69 3.456-.286.54-.725 1.342-1.611.92-.384.663-1.31 1.267-1.957.461-.621.262-1.127.638-1.727.922-.224-.236-.543-.378-.806-.576-.09-.512.154-.69.115-1.151-.242-.104-.371-.32-.575-.46-.084-.546.164-.758.345-1.038.9-.132 1.284.252 1.151 1.152 1.096.498 2.526.356 3.454-.23-.695-.724.142-1.015 0-1.728-.472-.141-.745-.483-1.151-.69-.282-.272.172-.215.115-.577-.387-.285-.598-.07-.921-.46-.257.05-.047.568-.115.806-.807.076-1.054.712-1.497 1.152-.668.17-.649-.35-1.151-.346-.189-1.49 1.295-.61 1.497-1.727-.162-.184-.397-.295-.691-.346-.073-.736.069-.878-.23-1.843.389.044.49-.2.69-.345.425.257.788 1.309 1.266.806.075-.459-.304-.463-.23-.921.559-.21.837-.7 1.152-1.152.672.095 1.103.43 1.611.691zM133.411 71.303c-.103.243-.178.513-.345.692.462.381 1.261.427 1.266 1.266-.362.099-.486.436-.921.461-.372-.089-.602-.319-.691-.691-.271-.003-.338.199-.69.115-.003-.343.011-.702-.345-.69.04-.152.202-.182.23-.346-.314-.223-.696-.38-.691-.922.774-.764 1.643-.215 2.187.115z" fill="#202124"/></svg>