<svg width="205" height="196" viewBox="0 0 205 196" fill="none" xmlns="http://www.w3.org/2000/svg">
<path d="M104.726 53.1636L66.3065 75.575V118.942L104.726 142.227L143.146 118.942V75.575L104.726 53.1636Z" stroke="black" stroke-width="1.5"/>
<path d="M171.168 128.3L165.956 138.872M163.983 126.489L159.875 134.368M157.298 124.38L154.293 129.565M150.614 122.27L149.011 125.262" stroke="black" stroke-width="1.5"/>
<path d="M44.3696 139.669L37.8394 129.856M49.5407 134.363L44.7866 126.856M54.7193 129.639L51.7414 124.438M59.8978 124.915L58.1141 122.027" stroke="black" stroke-width="1.5"/>
<path d="M163.534 56.0306L169.715 66.0668M158.179 61.1516L162.666 68.821M152.837 65.6905L155.631 70.9932M147.496 70.2295L149.177 73.1783" stroke="black" stroke-width="1.5"/>
<path d="M43.8951 57.2383L38.9471 65.3879L66 77L67 75L43.8951 57.2383Z" fill="black"/>
<path d="M100.926 171.173L110.46 171.123L106 142L104 142L100.926 171.173Z" fill="black"/>
<path d="M102.611 9.40251C102.611 10.926 102.346 12.2638 101.815 13.4159C101.292 14.568 100.542 15.4548 99.5638 16.0764C98.586 16.6979 97.4567 17.0087 96.1757 17.0087C94.2429 17.0087 92.6815 16.3189 91.4915 14.9394C90.3015 13.5523 89.7065 11.684 89.7065 9.33429V7.62888C89.7065 6.12054 89.9718 4.78653 90.5024 3.62684C91.0405 2.45958 91.7985 1.56519 92.7763 0.943662C93.754 0.314554 94.8796 0 96.153 0C97.4264 0 98.5481 0.306974 99.5183 0.920923C100.496 1.53487 101.25 2.40274 101.781 3.52452C102.311 4.6463 102.588 5.94621 102.611 7.42423V9.40251ZM101.212 7.60614C101.212 5.6127 100.761 4.0513 99.8594 2.92194C98.9574 1.79258 97.722 1.2279 96.153 1.2279C94.6143 1.2279 93.3864 1.79637 92.4693 2.93331C91.5597 4.06267 91.105 5.64302 91.105 7.67436V9.40251C91.105 11.3656 91.5597 12.9232 92.4693 14.0753C93.3788 15.2199 94.6143 15.7921 96.1757 15.7921C97.7599 15.7921 98.9953 15.2274 99.8822 14.0981C100.769 12.9611 101.212 11.3808 101.212 9.35703V7.60614Z" fill="black"/>
<path d="M118.403 16.7813H116.993V8.84541H107.534V16.7813H106.135V0.227388H107.534V7.66299H116.993V0.227388H118.403V16.7813Z" fill="black"/>
<path d="M102.611 187.529C102.611 189.053 102.346 190.391 101.815 191.543C101.292 192.695 100.542 193.582 99.5638 194.203C98.586 194.825 97.4567 195.136 96.1757 195.136C94.2429 195.136 92.6815 194.446 91.4915 193.066C90.3015 191.679 89.7065 189.811 89.7065 187.461V185.756C89.7065 184.247 89.9718 182.913 90.5024 181.754C91.0405 180.587 91.7985 179.692 92.7763 179.071C93.754 178.442 94.8796 178.127 96.153 178.127C97.4264 178.127 98.5481 178.434 99.5183 179.048C100.496 179.662 101.25 180.53 101.781 181.651C102.311 182.773 102.588 184.073 102.611 185.551V187.529ZM101.212 185.733C101.212 183.74 100.761 182.178 99.8594 181.049C98.9574 179.92 97.722 179.355 96.153 179.355C94.6143 179.355 93.3864 179.923 92.4693 181.06C91.5597 182.19 91.105 183.77 91.105 185.801V187.529C91.105 189.493 91.5597 191.05 92.4693 192.202C93.3788 193.347 94.6143 193.919 96.1757 193.919C97.7599 193.919 98.9953 193.354 99.8822 192.225C100.769 191.088 101.212 189.508 101.212 187.484V185.733Z" fill="black"/>
<path d="M118.403 194.908H116.993V186.972H107.534V194.908H106.135V178.354H107.534V185.79H116.993V178.354H118.403V194.908Z" fill="black"/>
<path d="M188.614 143.289C188.614 144.812 188.349 146.15 187.818 147.302C187.295 148.454 186.545 149.341 185.567 149.963C184.589 150.584 183.46 150.895 182.179 150.895C180.246 150.895 178.685 150.205 177.495 148.826C176.305 147.439 175.71 145.57 175.71 143.221V141.515C175.71 140.007 175.975 138.673 176.506 137.513C177.044 136.346 177.802 135.451 178.78 134.83C179.757 134.201 180.883 133.886 182.156 133.886C183.43 133.886 184.551 134.193 185.522 134.807C186.499 135.421 187.254 136.289 187.784 137.411C188.315 138.533 188.591 139.832 188.614 141.31V143.289ZM187.216 141.492C187.216 139.499 186.765 137.938 185.863 136.808C184.961 135.679 183.725 135.114 182.156 135.114C180.618 135.114 179.39 135.683 178.473 136.82C177.563 137.949 177.108 139.529 177.108 141.561V143.289C177.108 145.252 177.563 146.809 178.473 147.962C179.382 149.106 180.618 149.678 182.179 149.678C183.763 149.678 184.999 149.114 185.885 147.984C186.772 146.847 187.216 145.267 187.216 143.243V141.492Z" fill="black"/>
<path d="M204.406 150.667H202.996V142.732H193.537V150.667H192.139V134.114H193.537V141.549H202.996V134.114H204.406V150.667Z" fill="black"/>
<path d="M14.0139 150.667H12.6041V142.732H3.14478V150.667H1.74634V134.114H3.14478V141.549H12.6041V134.114H14.0139V150.667Z" fill="black"/>
<path d="M30.4655 143.289C30.4655 144.812 30.2002 146.15 29.6696 147.302C29.1466 148.454 28.3963 149.341 27.4185 149.963C26.4407 150.584 25.3114 150.895 24.0304 150.895C22.0976 150.895 20.5362 150.205 19.3462 148.826C18.1562 147.439 17.5612 145.57 17.5612 143.221V141.515C17.5612 140.007 17.8265 138.673 18.3571 137.513C18.8952 136.346 19.6532 135.451 20.6309 134.83C21.6087 134.201 22.7343 133.886 24.0077 133.886C25.281 133.886 26.4028 134.193 27.373 134.807C28.3508 135.421 29.105 136.289 29.6355 137.411C30.1661 138.533 30.4428 139.832 30.4655 141.31V143.289ZM29.0671 141.492C29.0671 139.499 28.6161 137.938 27.7141 136.808C26.8121 135.679 25.5766 135.114 24.0077 135.114C22.469 135.114 21.2411 135.683 20.324 136.82C19.4144 137.949 18.9596 139.529 18.9596 141.561V143.289C18.9596 145.252 19.4144 146.809 20.324 147.962C21.2335 149.106 22.469 149.678 24.0304 149.678C25.6145 149.678 26.85 149.114 27.7368 147.984C28.6237 146.847 29.0671 145.267 29.0671 143.243V141.492Z" fill="black"/>
<path d="M186.868 54.2253C186.868 55.7488 186.602 57.0866 186.072 58.2387C185.549 59.3908 184.799 60.2776 183.821 60.8991C182.843 61.5206 181.714 61.8314 180.433 61.8314C178.5 61.8314 176.938 61.1417 175.748 59.7622C174.558 58.3751 173.963 56.5067 173.963 54.157V52.4516C173.963 50.9433 174.229 49.6093 174.759 48.4496C175.297 47.2823 176.055 46.3879 177.033 45.7664C178.011 45.1373 179.137 44.8228 180.41 44.8228C181.683 44.8228 182.805 45.1297 183.775 45.7437C184.753 46.3576 185.507 47.2255 186.038 48.3473C186.568 49.4691 186.845 50.769 186.868 52.247V54.2253ZM185.469 52.4289C185.469 50.4355 185.018 48.8741 184.116 47.7447C183.214 46.6153 181.979 46.0507 180.41 46.0507C178.871 46.0507 177.643 46.6191 176.726 47.7561C175.817 48.8854 175.362 50.4658 175.362 52.4971V54.2253C175.362 56.1884 175.817 57.746 176.726 58.8981C177.636 60.0426 178.871 60.6149 180.433 60.6149C182.017 60.6149 183.252 60.0502 184.139 58.9208C185.026 57.7839 185.469 56.2035 185.469 54.1798V52.4289Z" fill="black"/>
<path d="M202.66 61.604H201.25V53.6682H191.791V61.604H190.392V45.0501H191.791V52.4857H201.25V45.0501H202.66V61.604Z" fill="black"/>
<path d="M12.2676 61.604H10.8578V53.6682H1.39844V61.604H0V45.0501H1.39844V52.4857H10.8578V45.0501H12.2676V61.604Z" fill="black"/>
<path d="M28.7192 54.2253C28.7192 55.7488 28.4539 57.0866 27.9233 58.2387C27.4003 59.3908 26.6499 60.2776 25.6721 60.8991C24.6944 61.5206 23.565 61.8314 22.2841 61.8314C20.3513 61.8314 18.7899 61.1417 17.5999 59.7622C16.4099 58.3751 15.8149 56.5067 15.8149 54.157V52.4516C15.8149 50.9433 16.0801 49.6093 16.6107 48.4496C17.1489 47.2823 17.9068 46.3879 18.8846 45.7664C19.8624 45.1373 20.9879 44.8228 22.2613 44.8228C23.5347 44.8228 24.6565 45.1297 25.6267 45.7437C26.6044 46.3576 27.3586 47.2255 27.8892 48.3473C28.4198 49.4691 28.6964 50.769 28.7192 52.247V54.2253ZM27.3207 52.4289C27.3207 50.4355 26.8697 48.8741 25.9678 47.7447C25.0658 46.6153 23.8303 46.0507 22.2613 46.0507C20.7227 46.0507 19.4948 46.6191 18.5776 47.7561C17.6681 48.8854 17.2133 50.4658 17.2133 52.4971V54.2253C17.2133 56.1884 17.6681 57.746 18.5776 58.8981C19.4872 60.0426 20.7227 60.6149 22.2841 60.6149C23.8682 60.6149 25.1037 60.0502 25.9905 58.9208C26.8773 57.7839 27.3207 56.2035 27.3207 54.1798V52.4289Z" fill="black"/>
<path d="M98 26.5H111M99 36.5H110M100 46.5H109" stroke="black" stroke-width="1.5"/>
</svg>
