<svg width="35" height="34" viewBox="0 0 35 34" fill="none" xmlns="http://www.w3.org/2000/svg">
<path d="M20.8465 10.4816C21.0352 8.47945 20.4293 6.22973 20.8985 4.25899C21.0341 3.6897 20.9641 3.06555 20.9641 2.48113C20.9641 1.6595 20.72 1.84341 19.944 1.82536C18.3045 1.78724 16.6623 1.82536 14.9966 1.82536H13.1604C12.5179 1.82536 11.9768 1.60477 11.7833 2.30626C11.3347 3.93257 11.521 5.73238 11.521 7.40668C11.521 8.23877 11.4174 10.49 12.3371 10.773C13.2683 11.0595 14.425 10.875 15.3973 10.875H17.678C18.32 10.875 19.0176 10.9584 19.6526 10.8677C19.9386 10.8268 20.6021 10.6549 20.836 10.5547L20.8329 10.4815L20.8465 10.4816Z" fill="#E5EFF8"/>
<path d="M23.9677 13.1217C22.4108 13.1217 20.8427 13.0743 19.2952 13.0743C18.2774 13.0743 17.2523 12.9707 16.2426 13.0717C15.1498 13.181 15.28 15.2594 15.3497 16.0084C15.4305 16.8774 15.4469 17.7572 15.5051 18.6291C15.5492 19.2911 15.7658 19.9789 15.7658 20.6361C15.7658 20.9213 15.7045 21.3397 15.8238 21.608C15.9024 21.7849 16.1515 21.7578 16.3163 21.774C17.2348 21.864 18.1808 21.9139 19.1029 21.9373C19.6917 21.9522 20.2813 21.9339 20.8703 21.9399C21.3021 21.9443 21.7061 21.9986 22.1398 21.9504C22.736 21.8842 23.3127 21.6775 23.9097 21.6554C24.3484 21.6392 24.2521 20.8421 24.2521 20.5782C24.2521 19.202 24.2073 17.8184 24.2548 16.443C24.2901 15.4189 24.2521 14.3872 24.2521 13.3588L23.9677 13.1217Z" fill="#E5EFF8"/>
<path d="M12.4472 13.027C10.7203 12.9112 8.99529 12.8464 7.26643 12.9559C6.77503 12.987 6.29219 13.027 5.79937 13.027C5.42457 13.027 5.05306 13.0744 4.67734 13.0744C4.54888 13.0744 4.26852 13.0249 4.16111 13.1323C4.06523 13.2282 4.064 13.5333 4.05839 13.6512C4.03692 14.102 4.00834 14.5475 4.00834 14.9997C4.00834 16.0755 3.99067 17.1683 4.12423 18.2368C4.18087 18.6899 4.14734 19.1561 4.15057 19.6116C4.15337 20.0062 4.19798 20.3967 4.19798 20.7916C4.19798 21.1334 4.21483 21.4903 4.25593 21.8293C4.27088 21.9527 4.22992 22.4264 4.38235 22.4035C5.11497 22.2936 5.82748 22.1298 6.56846 22.0638C7.19949 22.0075 7.83512 22.0182 8.46747 21.9637C9.01612 21.9164 9.57351 21.94 10.1242 21.94H12.3287C12.4827 21.94 12.7595 22.0003 12.8371 21.8451C13.0037 21.5119 13.0049 21.0657 13.0267 20.7021C13.0674 20.0219 13.0625 19.3538 13.0267 18.674C12.978 17.7487 13.0162 16.8222 13.0162 15.9005C13.0162 15.3968 12.9687 14.9019 12.9687 14.3992C12.9687 14.093 12.938 13.8014 12.9213 13.5011C12.9142 13.3731 12.847 13.0372 12.7317 12.9796L12.4472 13.027Z" fill="#E5EFF8"/>
<path d="M9.42204 24.5426C7.60732 24.5012 5.81951 24.6608 4.00828 24.7318C3.55719 24.7495 3.08262 24.6863 2.63604 24.7608C2.24436 24.826 1.8232 24.7371 1.42446 24.7371C1.24382 24.7371 1.05963 24.7265 0.879249 24.7371C0.729814 24.7459 0.860977 26.553 0.868713 26.7019C0.909066 27.4787 0.926658 28.2522 0.926658 29.0303C0.926658 29.7589 1.16371 30.4764 1.16371 31.2085C1.16371 31.6654 1.08144 32.1078 1.06889 32.5596C1.0658 32.6707 0.929479 32.9886 1.06889 33.0706C1.2648 33.1859 1.53688 33.2143 1.75633 33.2444C2.25321 33.3126 2.75605 33.3656 3.25763 33.3656C4.57468 33.3656 5.89011 33.3182 7.20579 33.3182C7.70012 33.3182 8.20499 33.2842 8.69656 33.2339C8.83174 33.2201 9.04947 33.2216 9.17592 33.1654C9.49937 33.0217 9.38365 32.2515 9.40243 31.9644C9.45025 31.2334 9.31815 30.4884 9.31815 29.7572C9.31815 28.7317 9.27074 27.7032 9.27074 26.6756C9.27074 26.1599 9.21926 25.6139 9.30761 25.1058C9.34041 24.9172 9.3819 24.7313 9.42204 24.5426Z" fill="#E5EFF8"/>
<path d="M13.111 24.5949C15.7838 24.3977 18.4661 24.4527 21.1442 24.4527C21.283 24.4527 21.5421 24.4037 21.6605 24.479C21.7931 24.5634 21.7777 25.0871 21.7869 25.2165C21.8269 25.7769 21.9499 26.3249 21.9739 26.889C21.9902 27.2725 21.93 27.669 21.8923 28.0505C21.8565 28.4125 21.9103 28.7794 21.8712 29.1409C21.826 29.559 21.8 29.9699 21.7764 30.3894C21.7434 30.9743 21.6921 31.5521 21.6921 32.1383C21.6921 32.3035 21.7863 32.845 21.6816 32.9759C21.6187 33.0545 21.5828 33.2913 21.4735 33.3156C21.0704 33.4052 20.5468 33.3115 20.1434 33.2946C19.2065 33.2552 18.2697 33.2206 17.333 33.176C16.5899 33.1406 15.8428 33.0538 15.1022 33.0338C14.6367 33.0212 14.1693 33.0338 13.7036 33.0338C13.5478 33.0338 13.5449 32.5128 13.5403 32.4122C13.5191 31.947 13.4692 31.4853 13.4455 31.0215C13.4114 30.358 13.4902 29.6941 13.4902 29.0303V26.0172C13.4902 25.7663 13.5055 25.5091 13.4876 25.2586C13.4793 25.1422 13.4801 24.7321 13.3954 24.6897L13.111 24.5949Z" fill="#E5EFF8"/>
<path d="M24.8685 24.5C27.3001 24.0579 29.763 23.5992 32.2433 23.5992C32.4943 23.5992 32.7282 23.67 32.965 23.752L32.9788 23.7568C33.1088 23.8016 33.2683 23.8566 33.318 23.9891C33.4689 24.3915 33.6261 24.7908 33.7051 25.2164C33.82 25.8349 33.7844 26.4819 33.7815 27.1075C33.7747 28.6032 33.356 29.9769 33.0335 31.4218C32.9654 31.7268 32.9281 32.0784 32.9281 32.3911V32.8915C32.9281 32.9778 32.9393 33.0189 32.8544 33.0574C32.4568 33.2382 31.7947 33.1956 31.3742 33.2128C29.622 33.2849 27.8592 33.1286 26.1117 33.1286H25.1898C25.1247 33.1286 24.9771 33.1623 24.966 33.0733C24.9219 32.721 24.9633 32.3402 24.9633 31.9855C24.9633 31.0844 24.956 30.1698 24.8791 29.2726C24.8089 28.4547 24.8457 27.6279 24.7632 26.8126C24.6931 26.1208 24.6315 25.4342 24.6315 24.7371L24.8685 24.5Z" fill="#E5EFF8"/>
<mask id="path-2-inside-1" fill="white">
<rect x="11.3794" y="1" width="10.2414" height="10.2414" rx="1"/>
</mask>
<rect x="11.3794" y="1" width="10.2414" height="10.2414" rx="1" stroke="#414550" stroke-width="2.6" mask="url(#path-2-inside-1)"/>
<mask id="path-3-inside-2" fill="white">
<rect x="3.41357" y="12.3794" width="10.2414" height="10.2414" rx="1"/>
</mask>
<rect x="3.41357" y="12.3794" width="10.2414" height="10.2414" rx="1" stroke="#414550" stroke-width="2.6" mask="url(#path-3-inside-2)"/>
<mask id="path-4-inside-3" fill="white">
<rect x="14.793" y="12.3794" width="10.2414" height="10.2414" rx="1"/>
</mask>
<rect x="14.793" y="12.3794" width="10.2414" height="10.2414" rx="1" stroke="#414550" stroke-width="2.6" mask="url(#path-4-inside-3)"/>
<mask id="path-5-inside-4" fill="white">
<rect y="23.7585" width="10.2414" height="10.2414" rx="1"/>
</mask>
<rect y="23.7585" width="10.2414" height="10.2414" rx="1" stroke="#414550" stroke-width="2.6" mask="url(#path-5-inside-4)"/>
<mask id="path-6-inside-5" fill="white">
<rect x="12.5171" y="23.7585" width="10.2414" height="10.2414" rx="1"/>
</mask>
<rect x="12.5171" y="23.7585" width="10.2414" height="10.2414" rx="1" stroke="#414550" stroke-width="2.6" mask="url(#path-6-inside-5)"/>
<mask id="path-7-inside-6" fill="white">
<rect x="23.8965" y="23.7585" width="10.2414" height="10.2414" rx="1"/>
</mask>
<rect x="23.8965" y="23.7585" width="10.2414" height="10.2414" rx="1" stroke="#414550" stroke-width="2.6" mask="url(#path-7-inside-6)"/>
</svg>
