<svg width="260" height="193" viewBox="0 0 260 193" fill="none" xmlns="http://www.w3.org/2000/svg">
<path d="M35.9818 157.994H101.52V190.106H0V0H35.9818V157.994Z" fill="#FAF6F0"/>
<path d="M110.782 118.431C110.782 104.045 113.609 91.2852 119.264 80.1529C125.089 69.0205 132.885 60.4572 142.652 54.4629C152.59 48.4685 163.641 45.4713 175.806 45.4713C186.43 45.4713 195.682 47.6122 203.564 51.8938C211.617 56.1755 218.042 61.5704 222.84 68.0786V47.7835H259.079V190.106H222.84V169.297C218.214 175.977 211.788 181.543 203.564 185.996C195.511 190.277 186.173 192.418 175.549 192.418C163.555 192.418 152.59 189.336 142.652 183.17C132.885 177.004 125.089 168.355 119.264 157.223C113.609 145.919 110.782 132.989 110.782 118.431ZM222.84 118.945C222.84 110.21 221.126 102.76 217.7 96.5945C214.273 90.2576 209.646 85.4621 203.821 82.2081C197.995 78.7827 191.741 77.0701 185.059 77.0701C178.377 77.0701 172.208 78.6971 166.554 81.9512C160.9 85.2053 156.273 90.0007 152.675 96.3376C149.248 102.503 147.535 109.868 147.535 118.431C147.535 126.994 149.248 134.53 152.675 141.038C156.273 147.375 160.9 152.256 166.554 155.682C172.38 159.107 178.548 160.82 185.059 160.82C191.741 160.82 197.995 159.193 203.821 155.938C209.646 152.513 214.273 147.718 217.7 141.552C221.126 135.215 222.84 127.679 222.84 118.945Z" fill="#FAF6F0"/>
</svg>
