<svg width="180" height="31" viewBox="0 0 180 31" fill="none" xmlns="http://www.w3.org/2000/svg">
<path d="M9.77539 21.7709C9.77539 20.2986 10.9689 19.1051 12.4412 19.1051H25.5483C27.0206 19.1051 28.2141 20.2986 28.2141 21.7709V27.5469C28.2141 29.0192 27.0206 30.2128 25.5483 30.2128H12.4412C10.9689 30.2128 9.77539 29.0192 9.77539 27.5469V21.7709Z" fill="#7055DC"/>
<path d="M9.99658 2.66584C9.99658 1.19354 11.1901 0 12.6624 0H22.215C23.6873 0 24.8809 1.19354 24.8809 2.66584V12.2184C24.8809 13.6907 23.6873 14.8843 22.215 14.8843H12.6624C11.1901 14.8843 9.99658 13.6908 9.99658 12.2184V2.66584Z" fill="#58CAA8"/>
<path d="M0 11.3299C0 9.8576 1.19354 8.66406 2.66584 8.66406H17.5501C19.0224 8.66406 20.216 9.8576 20.216 11.3299V23.5484C20.216 25.0207 19.0224 26.2142 17.5501 26.2142H2.66584C1.19353 26.2142 0 25.0207 0 23.5484V11.3299Z" fill="#EC348C"/>
<path d="M24.8794 19.1049C24.8794 17.6326 26.0729 16.4391 27.5452 16.4391H29.5446C31.0169 16.4391 32.2105 17.6326 32.2105 19.1049V21.3265C32.2105 22.7988 31.0169 23.9923 29.5446 23.9923H27.5452C26.0729 23.9923 24.8794 22.7988 24.8794 21.3265V19.1049Z" fill="#FF9900"/>
<path d="M56.3322 11.177C55.4177 9.50042 53.7605 8.69402 51.5856 8.69402C50.4453 8.69402 49.4337 8.95151 48.5509 9.46649C47.668 9.98147 46.9783 10.7172 46.4817 11.6736C45.9852 12.6299 45.7369 13.7335 45.7369 14.9841C45.7369 16.2716 45.9852 17.3935 46.4817 18.3499C46.9967 19.3063 47.7048 20.042 48.606 20.557C49.5073 21.0719 50.5556 21.3294 51.7511 21.3294C54.6491 21.3294 56.6503 19.6427 57.0928 16.8877H50.5924V13.9358H61.0207C61.2371 18.0607 59.8646 21.816 56.0824 23.7848C54.7582 24.4653 53.2684 24.8055 51.6132 24.8055C49.7555 24.8055 48.0727 24.3917 46.5645 23.5641C45.0747 22.718 43.8976 21.5501 43.0332 20.0604C42.1872 18.5706 41.7642 16.8785 41.7642 14.9841C41.7642 13.0897 42.1872 11.3977 43.0332 9.9079C43.8976 8.39975 45.0747 7.23185 46.5645 6.4042C48.0727 5.55816 49.7464 5.13514 51.5856 5.13514C53.7558 5.13514 55.641 5.66851 57.2412 6.73526C58.8413 7.78361 59.9448 9.26418 60.5517 11.177H56.3322Z" fill="#202124"/>
<path d="M70.665 24.8883C69.1936 24.8883 67.8694 24.5664 66.6923 23.9227C65.5152 23.2606 64.5864 22.3318 63.9059 21.1363C63.2437 19.9408 62.9127 18.5614 62.9127 16.9981C62.9127 15.4347 63.2529 14.0553 63.9335 12.8598C64.6324 11.6644 65.5795 10.7447 66.775 10.101C67.9705 9.43891 69.304 9.10785 70.7753 9.10785C72.2467 9.10785 73.5801 9.43891 74.7756 10.101C75.9711 10.7447 76.9091 11.6644 77.5896 12.8598C78.2885 14.0553 78.638 15.4347 78.638 16.9981C78.638 18.5614 78.2793 19.9408 77.562 21.1363C76.8631 22.3318 75.9067 23.2606 74.6929 23.9227C73.4974 24.5664 72.1547 24.8883 70.665 24.8883ZM70.665 21.5225C71.3639 21.5225 72.0168 21.357 72.6237 21.026C73.2491 20.6765 73.7457 20.1615 74.1135 19.481C74.4813 18.8005 74.6653 17.9729 74.6653 16.9981C74.6653 15.5451 74.279 14.4324 73.5066 13.6599C72.7525 12.869 71.8237 12.4736 70.7202 12.4736C69.6166 12.4736 68.6878 12.869 67.9337 13.6599C67.1981 14.4324 66.8302 15.5451 66.8302 16.9981C66.8302 18.4511 67.1889 19.573 67.9062 20.3638C68.6418 21.1363 69.5614 21.5225 70.665 21.5225Z" fill="#202124"/>
<path d="M88.2579 24.8883C86.7865 24.8883 85.4623 24.5664 84.2852 23.9227C83.1081 23.2606 82.1793 22.3318 81.4987 21.1363C80.8366 19.9408 80.5056 18.5614 80.5056 16.9981C80.5056 15.4347 80.8458 14.0553 81.5263 12.8598C82.2252 11.6644 83.1724 10.7447 84.3679 10.101C85.5634 9.43891 86.8968 9.10785 88.3682 9.10785C89.8396 9.10785 91.173 9.43891 92.3685 10.101C93.564 10.7447 94.502 11.6644 95.1825 12.8598C95.8814 14.0553 96.2309 15.4347 96.2309 16.9981C96.2309 18.5614 95.8722 19.9408 95.1549 21.1363C94.456 22.3318 93.4996 23.2606 92.2857 23.9227C91.0902 24.5664 89.7476 24.8883 88.2579 24.8883ZM88.2579 21.5225C88.9568 21.5225 89.6097 21.357 90.2166 21.026C90.842 20.6765 91.3385 20.1615 91.7064 19.481C92.0742 18.8005 92.2581 17.9729 92.2581 16.9981C92.2581 15.5451 91.8719 14.4324 91.0994 13.6599C90.3454 12.869 89.4166 12.4736 88.313 12.4736C87.2095 12.4736 86.2807 12.869 85.5266 13.6599C84.7909 14.4324 84.4231 15.5451 84.4231 16.9981C84.4231 18.4511 84.7817 19.573 85.499 20.3638C86.2347 21.1363 87.1543 21.5225 88.2579 21.5225Z" fill="#202124"/>
<path d="M98.0709 16.9429C98.0709 15.398 98.3743 14.0277 98.9813 12.8323C99.6066 11.6368 100.453 10.7172 101.519 10.0734C102.586 9.42971 103.772 9.10785 105.078 9.10785C106.071 9.10785 107.019 9.32855 107.92 9.76996C108.821 10.193 109.538 10.7631 110.072 11.4804V4.22473H113.989V24.64H110.072V22.3778C109.594 23.1319 108.922 23.7388 108.058 24.1986C107.193 24.6584 106.191 24.8883 105.051 24.8883C103.763 24.8883 102.586 24.5573 101.519 23.8951C100.453 23.233 99.6066 22.3042 98.9813 21.1087C98.3743 19.8948 98.0709 18.5062 98.0709 16.9429ZM110.099 16.9981C110.099 16.0601 109.915 15.26 109.548 14.5979C109.18 13.9174 108.683 13.4024 108.058 13.053C107.432 12.6851 106.761 12.5012 106.044 12.5012C105.327 12.5012 104.664 12.6759 104.058 13.0254C103.451 13.3748 102.954 13.8898 102.568 14.5703C102.2 15.2324 102.016 16.0233 102.016 16.9429C102.016 17.8625 102.2 18.6718 102.568 19.3707C102.954 20.0512 103.451 20.5753 104.058 20.9432C104.683 21.311 105.345 21.495 106.044 21.495C106.761 21.495 107.432 21.3202 108.058 20.9708C108.683 20.6029 109.18 20.088 109.548 19.4258C109.915 18.7453 110.099 17.9361 110.099 16.9981Z" fill="#202124"/>
<path d="M121.378 21.1915H128.413V24.64H117.516V4.22473H121.378V21.1915Z" fill="#202124"/>
<path d="M129.408 16.9429C129.408 15.398 129.711 14.0277 130.318 12.8323C130.943 11.6368 131.78 10.7172 132.829 10.0734C133.895 9.42971 135.082 9.10785 136.387 9.10785C137.528 9.10785 138.521 9.33775 139.367 9.79755C140.231 10.2574 140.921 10.8367 141.436 11.5356V9.35614H145.326V24.64H141.436V22.4054C140.94 23.1227 140.25 23.7204 139.367 24.1986C138.503 24.6584 137.5 24.8883 136.36 24.8883C135.072 24.8883 133.895 24.5573 132.829 23.8951C131.78 23.233 130.943 22.3042 130.318 21.1087C129.711 19.8948 129.408 18.5062 129.408 16.9429ZM141.436 16.9981C141.436 16.0601 141.252 15.26 140.884 14.5979C140.517 13.9174 140.02 13.4024 139.395 13.053C138.769 12.6851 138.098 12.5012 137.381 12.5012C136.663 12.5012 136.001 12.6759 135.394 13.0254C134.787 13.3748 134.291 13.8898 133.905 14.5703C133.537 15.2324 133.353 16.0233 133.353 16.9429C133.353 17.8625 133.537 18.6718 133.905 19.3707C134.291 20.0512 134.787 20.5753 135.394 20.9432C136.02 21.311 136.682 21.495 137.381 21.495C138.098 21.495 138.769 21.3202 139.395 20.9708C140.02 20.6029 140.517 20.088 140.884 19.4258C141.252 18.7453 141.436 17.9361 141.436 16.9981Z" fill="#202124"/>
<path d="M152.715 11.5908C153.212 10.8551 153.892 10.2574 154.757 9.79755C155.64 9.33775 156.642 9.10785 157.764 9.10785C159.07 9.10785 160.247 9.42971 161.295 10.0734C162.362 10.7172 163.199 11.6368 163.806 12.8323C164.431 14.0094 164.744 15.3796 164.744 16.9429C164.744 18.5062 164.431 19.8948 163.806 21.1087C163.199 22.3042 162.362 23.233 161.295 23.8951C160.247 24.5573 159.07 24.8883 157.764 24.8883C156.624 24.8883 155.621 24.6676 154.757 24.2262C153.911 23.7664 153.23 23.1778 152.715 22.4605V24.64H148.853V4.22473H152.715V11.5908ZM160.799 16.9429C160.799 16.0233 160.606 15.2324 160.219 14.5703C159.851 13.8898 159.355 13.3748 158.73 13.0254C158.123 12.6759 157.46 12.5012 156.743 12.5012C156.044 12.5012 155.382 12.6851 154.757 13.053C154.15 13.4024 153.653 13.9174 153.267 14.5979C152.899 15.2784 152.715 16.0785 152.715 16.9981C152.715 17.9177 152.899 18.7177 153.267 19.3983C153.653 20.0788 154.15 20.6029 154.757 20.9708C155.382 21.3202 156.044 21.495 156.743 21.495C157.46 21.495 158.123 21.311 158.73 20.9432C159.355 20.5753 159.851 20.0512 160.219 19.3707C160.606 18.6902 160.799 17.8809 160.799 16.9429Z" fill="#202124"/>
<path d="M173.147 24.8883C171.897 24.8883 170.775 24.6676 169.782 24.2262C168.788 23.7664 167.998 23.1503 167.409 22.3778C166.839 21.6053 166.526 20.7501 166.471 19.8121H170.361C170.434 20.4006 170.72 20.888 171.216 21.2743C171.731 21.6605 172.366 21.8536 173.12 21.8536C173.855 21.8536 174.426 21.7065 174.83 21.4122C175.253 21.1179 175.465 20.7409 175.465 20.2811C175.465 19.7845 175.207 19.4166 174.692 19.1775C174.196 18.9201 173.396 18.6442 172.292 18.3499C171.152 18.074 170.214 17.7889 169.478 17.4947C168.761 17.2004 168.135 16.7498 167.602 16.1428C167.087 15.5359 166.83 14.7175 166.83 13.6875C166.83 12.8415 167.069 12.069 167.547 11.3701C168.044 10.6712 168.742 10.1194 169.644 9.71479C170.563 9.31016 171.639 9.10785 172.871 9.10785C174.692 9.10785 176.145 9.56765 177.23 10.4873C178.316 11.3885 178.913 12.6116 179.024 14.1565H175.327C175.272 13.5496 175.014 13.0714 174.554 12.7219C174.113 12.3541 173.515 12.1701 172.761 12.1701C172.062 12.1701 171.52 12.2989 171.133 12.5564C170.766 12.8139 170.582 13.1725 170.582 13.6323C170.582 14.1473 170.839 14.5427 171.354 14.8186C171.869 15.0761 172.669 15.3428 173.754 15.6187C174.858 15.8945 175.768 16.1796 176.486 16.4739C177.203 16.7682 177.819 17.228 178.334 17.8533C178.867 18.4603 179.143 19.2695 179.162 20.2811C179.162 21.1639 178.913 21.9548 178.417 22.6537C177.938 23.3526 177.24 23.9043 176.32 24.309C175.419 24.6952 174.361 24.8883 173.147 24.8883Z" fill="#202124"/>
</svg>
