<svg width="51" height="51" viewBox="0 0 51 51" fill="none" xmlns="http://www.w3.org/2000/svg">
<g opacity="0.6">
<path d="M29.9861 35.3593C23.9754 35.3593 17.9893 35.5606 11.9874 35.1071C11.786 35.0064 12.1913 36.3418 12.2396 36.4894C12.6675 37.7986 13.5534 38.8761 13.8554 40.1975C14.0697 41.1348 13.7254 42.1714 13.9582 43.1024C14.1219 43.7571 14.2149 44.4 14.556 44.9891C14.9009 45.5849 15.2659 45.8473 15.8029 46.2827C16.9005 47.1727 18.0724 48.1507 19.4316 48.6038C19.9506 48.7768 20.4561 48.8996 20.9914 49.0148C21.5063 49.1256 22.0728 49.3858 22.5979 49.3977C23.6048 49.4206 24.6322 49.8177 25.6522 49.5845C26.639 49.359 27.7463 49.0907 28.6831 48.6785C30.2901 47.9714 31.6875 46.8463 32.9236 45.6102C33.8276 44.7062 34.2322 43.7859 34.5535 42.5466C34.7302 41.865 34.8372 41.1628 35.0205 40.4777C35.1878 39.8526 35.6283 39.2867 35.8237 38.6471C36.0857 37.7896 36.1365 37.058 36.1133 36.1532C36.1094 35.9998 36.0841 35.154 35.8938 35.1118C35.5675 35.0392 35.141 35.1005 34.8057 35.1071C34.4475 35.1141 34.0231 35.1774 33.6661 35.2332C32.4886 35.4172 31.1766 35.3593 29.9861 35.3593Z" fill="#FFCDCD"/>
<path d="M11.2489 32.7534H7.61551C7.81654 33.055 7.68807 33.6986 7.82567 34.0564C7.98741 34.4769 7.81412 35.0167 7.78364 35.4434C7.69679 36.6593 6.89843 38.1812 6.13508 39.1141C5.5921 39.7778 5.11065 40.4894 4.43982 41.0382C3.92477 41.4596 3.38589 41.9521 2.91269 42.4253C2.05529 43.2827 1.20403 44.2003 0.871839 45.3815C0.733461 45.8735 0.924072 46.425 0.764426 46.9039C0.639207 47.2796 0.722394 47.7782 0.722394 48.1742C0.722394 48.4921 0.699112 48.9096 1.11002 48.9728C1.75431 49.0719 2.385 49.0371 3.03878 49.0662C4.79949 49.1445 6.54173 49.3987 8.29735 49.5659C10.5955 49.7848 12.9276 49.9022 15.2372 49.9022C16.2991 49.9022 17.3756 49.9533 18.4362 49.8975L18.4539 49.8966C18.9533 49.8703 19.5543 49.8387 19.9914 49.5846C20.8415 49.0903 19.5219 48.4622 19.1648 48.1742C18.6824 47.7852 18.1372 47.4459 17.6843 47.0254C16.8556 46.2558 16.0752 45.446 15.2465 44.6716C14.7314 44.1903 14.1069 43.7848 13.6867 43.2145C13.3688 42.7832 12.8963 42.2398 12.6779 41.7668C12.1643 40.654 11.7346 39.6107 11.7346 38.3856C11.7346 37.739 11.6589 37.0449 11.8233 36.4148C11.9559 35.9065 12.1672 35.4019 12.2763 34.8877C12.3846 34.3771 12.3825 33.8064 12.5752 33.3138C12.6431 33.1404 12.9199 32.9167 12.8087 32.7067C12.7711 32.6356 12.6166 32.6596 12.5752 32.7114C12.4307 32.892 11.4708 32.7534 11.2489 32.7534Z" fill="#BCECF2"/>
<path d="M35.8351 6.99941C36.4567 7.42888 37.0116 7.83051 37.661 8.22076C37.8734 8.11455 38.0421 7.94004 38.241 7.80003C38.6893 7.4846 38.8751 6.85048 39.4093 6.62157C39.7803 6.46257 40.2711 6.10591 40.6939 6.21718C41.0941 6.32249 41.448 6.53412 41.8152 6.72165C42.1902 6.91314 42.5644 7.15822 42.8997 7.41197C43.2793 7.69921 43.7959 7.79078 44.2497 7.89806C44.7138 8.00776 44.5942 8.8182 44.6276 9.15821C44.6964 9.86027 44.685 10.6299 44.6174 11.3293C44.5772 11.7445 44.4633 11.9327 44.1823 12.2136C43.6604 12.7356 42.9613 13.1526 42.3135 13.4901C41.9192 13.6956 41.4799 13.7767 41.1045 14.0211C40.9852 14.0988 41.01 14.2281 40.9411 14.3316C40.8621 14.45 40.8574 14.7326 40.841 14.8708C40.812 15.1145 40.8226 15.3608 40.8226 15.606C40.8226 16.2891 40.8961 16.9674 40.8961 17.6505C40.8961 17.9637 40.7164 17.9214 40.5285 18.0936C40.1766 18.4162 39.7308 18.6637 39.3235 18.9106C38.9292 19.1496 38.5344 19.3825 38.1328 19.6091C38.0296 19.6673 37.852 19.7841 37.7325 19.799C37.5442 19.8226 37.3083 19.6901 37.1463 19.6091C36.8858 19.4788 36.6458 19.2958 36.3825 19.1761C35.853 18.9354 35.4409 18.4394 34.9487 18.1386C34.7709 18.0299 34.5661 17.9357 34.4177 17.7873C34.3438 17.7134 34.3676 17.5963 34.3503 17.5014C34.2644 17.0292 34.242 16.5526 34.242 16.0676V14.834C34.242 14.471 34.3406 14.1489 33.999 13.9374C33.7029 13.7541 33.3574 13.6447 33.0575 13.4697C32.7545 13.293 32.4334 13.1641 32.1527 12.9489C31.9007 12.7557 31.6046 12.6644 31.3378 12.4996C31.1289 12.3705 30.7615 12.1137 30.6474 11.8971C30.6067 11.8197 30.6353 11.6288 30.6413 11.5478C30.6773 11.0617 30.6679 10.5636 30.721 10.0793C30.7938 9.41465 30.7496 8.73544 30.8231 8.07371C30.8303 8.00922 30.9053 7.99115 30.9538 7.96342C31.2156 7.81379 31.4522 7.72496 31.6605 7.48958C31.8117 7.31862 31.9517 7.22334 32.1404 7.09949C32.2396 7.03439 32.3132 6.93631 32.4284 6.89729C32.7381 6.79238 33.0455 6.73758 33.3495 6.60727C33.6639 6.47255 33.8977 6.48121 34.2132 6.49289L34.2134 6.4929C34.4893 6.50312 34.7913 6.49506 35.0508 6.60319C35.3262 6.71792 35.5871 6.82808 35.8351 6.99941Z" fill="#F4E7D4"/>
<path fill-rule="evenodd" clip-rule="evenodd" d="M27.0809 5.63071L27.1321 5.55905C28.32 3.89336 29.8886 2.53543 31.7072 1.59824C33.5259 0.661053 35.542 0.171697 37.588 0.170887C39.608 0.170395 41.5997 0.645936 43.4016 1.55895C45.2036 2.47197 46.765 3.79677 47.9593 5.42593C49.1536 7.0551 49.9472 8.94278 50.2757 10.9359C50.6042 12.9291 50.4584 14.9716 49.8502 16.8979C49.2419 18.8241 48.1882 20.58 46.7746 22.023C45.361 23.466 43.6273 24.5556 41.714 25.2034C39.8006 25.8513 37.7615 26.0391 35.762 25.7517C33.7626 25.4643 31.8589 24.7098 30.2055 23.5493L29.9364 23.3604V26.0717L30.0301 26.1191C32.8462 27.5451 35.0394 29.957 36.1921 32.8956C37.3447 35.8342 37.3763 39.094 36.2808 42.0543C35.1852 45.0147 33.0391 47.4686 30.2512 48.9489C27.4633 50.4292 24.2283 50.8323 21.1623 50.0815L21.104 50.0672L21.0496 50.0926C20.5335 50.3328 19.971 50.4566 19.4017 50.4551H4.10695C3.36837 50.4554 2.64454 50.2479 2.01842 49.8561C1.39229 49.4644 0.889079 48.9043 0.566352 48.24C0.243625 47.5756 0.114419 46.8339 0.193514 46.0996C0.27261 45.3652 0.556813 44.668 1.01361 44.0876L7.14061 36.2931V18.5347L7.03244 18.492C6.63031 18.3334 6.29617 18.0393 6.08771 17.6606C5.87924 17.2819 5.80952 16.8423 5.89058 16.4177C5.97163 15.9931 6.19838 15.6101 6.53169 15.3348C6.865 15.0595 7.28395 14.9092 7.71624 14.9099H15.7909C16.2231 14.9092 16.6423 15.0594 16.9756 15.3345C17.3089 15.6097 17.5357 15.9926 17.6169 16.4171C17.6981 16.8416 17.6285 17.2812 17.4203 17.6599C17.212 18.0386 16.8781 18.3328 16.4761 18.4916L16.3681 18.5343V27.4314L16.6406 27.2297C17.2074 26.8104 17.8081 26.4388 18.4364 26.1189L18.5298 26.0714V9.34586L18.3682 9.33707C17.886 9.31085 17.4331 9.0976 17.1057 8.74265C16.7783 8.3877 16.6022 7.91906 16.615 7.43634C16.6277 6.95363 16.8282 6.49492 17.1739 6.15773C17.5195 5.82054 17.9831 5.63147 18.466 5.63071H27.0809ZM25.9768 7.12597C25.8269 7.41884 25.6878 7.71789 25.5596 8.02312H18.4678C18.4435 8.0232 18.4192 8.02161 18.3951 8.01839L18.4681 8.19401C18.3754 8.19427 18.2836 8.17626 18.1979 8.14102C18.1121 8.10575 18.0341 8.05389 17.9684 7.98842C17.9026 7.92296 17.8505 7.84517 17.8148 7.75951C17.7793 7.67405 17.7609 7.58244 17.7608 7.48989C17.7601 7.39693 17.7781 7.30477 17.8138 7.21892C17.8494 7.1332 17.9019 7.05553 17.9682 6.9905L18.0408 7.1654C18.0554 7.14653 18.0713 7.12864 18.0885 7.11187C18.1379 7.06222 18.1967 7.02282 18.2615 6.99592C18.3262 6.96901 18.3956 6.95514 18.4657 6.95508H26.0659C26.0358 7.01181 26.0061 7.06877 25.9768 7.12597ZM7.23879 40.4043C7.16025 40.4425 7.09133 40.4981 7.03743 40.5668L3.02198 45.6754C2.8639 45.8782 2.76582 46.1214 2.73919 46.3771C2.71256 46.6329 2.75836 46.891 2.87136 47.122C2.98436 47.353 3.16002 47.5476 3.37829 47.6835C3.59656 47.8195 3.84893 47.8914 4.10609 47.891H16.539L16.5843 47.9245C17.1159 48.3183 17.6769 48.6707 18.2624 48.9786L18.1829 49.3008H4.10691C3.58495 49.3007 3.07355 49.1537 2.63119 48.8766C2.18882 48.5996 1.83336 48.2036 1.60543 47.734C1.37751 47.2645 1.28633 46.7402 1.34231 46.2213C1.3983 45.7023 1.59919 45.2096 1.92203 44.7995L8.17214 36.849C8.25198 36.7475 8.29538 36.622 8.29537 36.4928V18.6266H15.2163V28.4469L15.1658 28.497C13.6584 29.9935 12.5462 31.8408 11.929 33.8733C11.3119 35.9057 11.209 38.0596 11.6298 40.1416L11.6712 40.3463H7.49085C7.40352 40.3463 7.31733 40.3661 7.23879 40.4043ZM11.9831 41.4998L12.0219 41.617C12.6191 43.4219 13.6097 45.072 14.9209 46.4487L15.1959 46.7375H4.05872L3.88043 46.6281L3.90199 46.4233L7.77058 41.4998H11.9831ZM29.1194 26.9602C31.78 28.187 33.8838 30.3669 35.0153 33.0694C36.1468 35.7719 36.2238 38.8004 35.231 41.5569C34.2383 44.3133 32.2479 46.5973 29.6531 47.9577C27.0583 49.3181 24.0477 49.6559 21.2159 48.9046L21.2055 48.9018L21.2026 48.9009C21.1996 48.8998 21.197 48.8989 21.1945 48.8984L21.1879 48.8969C18.8638 48.2717 16.7889 46.9449 15.2461 45.0977C13.7032 43.2505 12.7674 40.9725 12.5662 38.5741C12.365 36.1757 12.9082 33.7737 14.1217 31.6952C15.3352 29.6168 17.16 27.963 19.3474 26.9593C19.4476 26.9131 19.5325 26.8391 19.592 26.7462C19.6515 26.6533 19.6832 26.5452 19.6833 26.4348V9.3475H25.2683L25.2072 9.56466C24.5747 11.8128 24.5686 14.191 25.1894 16.4424C25.8102 18.6938 27.0343 20.7327 28.7296 22.339L28.783 22.3895V26.436C28.783 26.5464 28.8147 26.6544 28.8743 26.7473C28.9339 26.8402 29.0191 26.9142 29.1194 26.9602ZM37.5879 24.7358C35.2727 24.7358 33.0095 24.0493 31.0845 22.7631C29.1595 21.4768 27.6592 19.6486 26.7732 17.5097C25.8872 15.3707 25.6554 13.0171 26.1071 10.7464C26.5588 8.47574 27.6736 6.38998 29.3107 4.7529C30.9478 3.11583 33.0335 2.00096 35.3042 1.54929C37.5749 1.09763 39.9285 1.32944 42.0675 2.21542C44.2064 3.1014 46.0346 4.60175 47.3209 6.52675C48.6071 8.45174 49.2936 10.7149 49.2936 13.0301C49.2902 16.1335 48.0558 19.1091 45.8614 21.3036C43.6669 23.498 40.6913 24.7324 37.5879 24.7358ZM7.71607 16.0633H15.7905C15.9774 16.0633 16.1567 16.1376 16.2889 16.2698C16.4211 16.402 16.4954 16.5813 16.4954 16.7682C16.4954 16.9552 16.4211 17.1345 16.2889 17.2667C16.1567 17.3989 15.9774 17.4732 15.7905 17.4732H7.71607C7.52912 17.4732 7.34982 17.3989 7.21763 17.2667C7.08543 17.1345 7.01116 16.9552 7.01116 16.7682C7.01116 16.5813 7.08543 16.402 7.21763 16.2698C7.34982 16.1376 7.52912 16.0633 7.71607 16.0633Z" fill="#414550"/>
<path fill-rule="evenodd" clip-rule="evenodd" d="M37.5879 7.4297L34.4587 5.62288H33.8817L30.4642 7.59648L30.4646 12.5429L33.5939 14.3498V17.9644C33.5939 18.0657 33.6206 18.1652 33.6712 18.2529C33.7219 18.3406 33.7946 18.4134 33.8823 18.4641L37.2999 20.4374C37.3876 20.4879 37.4871 20.5145 37.5884 20.5145C37.6896 20.5145 37.7891 20.4879 37.8768 20.4374L41.2944 18.4642L41.5828 17.9644V14.3498L42.9245 13.575L44.7117 12.5429C44.7994 12.4923 44.8722 12.4194 44.9229 12.3317C44.9735 12.244 45.0001 12.1445 45.0001 12.0432V8.09577C45.0001 7.99462 44.9734 7.8952 44.9228 7.80756C44.8789 7.73144 44.8182 7.66652 44.7455 7.61761C44.7345 7.61021 44.7233 7.60317 44.7118 7.59652L41.2942 5.62288H40.7172L37.6734 7.38036L37.5879 7.4297ZM41.0056 6.78763L43.8467 8.42862V10.5583V11.7104L43.419 11.9574L41.0057 13.3509L38.1651 11.7104V8.43039L41.0056 6.78763ZM31.3296 8.43033L34.1706 6.78937L37.0116 8.43033V11.7104L34.1706 13.3509L31.3296 11.7104V8.43033ZM34.7474 17.6299V14.3498L37.5884 12.7093L40.4294 14.3498V17.6299L38.985 18.4642L37.5884 19.2709L36.1917 18.4642L34.7474 17.6299Z" fill="#414550"/>
<path d="M46.4583 15.8928C46.5975 15.8292 46.7561 15.8235 46.8994 15.877C46.9705 15.9033 47.0361 15.9435 47.0917 15.995C47.1473 16.0466 47.1922 16.1086 47.2238 16.1775C47.2555 16.2464 47.2732 16.3208 47.276 16.3966C47.2788 16.4723 47.2667 16.5478 47.2403 16.6188C46.8937 17.5474 46.4146 18.4213 45.8182 19.213C45.7726 19.2736 45.7155 19.3247 45.6502 19.3632C45.5849 19.4018 45.5126 19.4271 45.4375 19.4377C45.3624 19.4483 45.286 19.444 45.2125 19.4251C45.1391 19.4062 45.0701 19.373 45.0095 19.3274C44.9489 19.2818 44.8979 19.2247 44.8593 19.1594C44.8207 19.0941 44.7954 19.0219 44.7848 18.9468C44.7742 18.8717 44.7785 18.7952 44.7974 18.7218C44.8163 18.6483 44.8495 18.5793 44.8951 18.5187C45.4247 17.8159 45.8499 17.0403 46.1576 16.2158C46.211 16.0725 46.3192 15.9563 46.4583 15.8928Z" fill="#414550"/>
<path fill-rule="evenodd" clip-rule="evenodd" d="M14.4556 34.7561C14.5565 34.6776 14.6806 34.6348 14.8084 34.6344H33.6481C33.7765 34.6341 33.9016 34.6766 34.0031 34.7552C34.1046 34.8337 34.177 34.9439 34.2089 35.0682C34.5949 36.5878 34.6288 38.1754 34.308 39.7101C33.9871 41.2449 33.32 42.6862 32.3574 43.9239C31.3948 45.1617 30.1622 46.1632 28.7537 46.8521C27.3452 47.5411 25.7979 47.8992 24.2299 47.8992C22.6619 47.8992 21.1147 47.5411 19.7062 46.8521C18.2976 46.1632 17.0651 45.1617 16.1025 43.9239C15.1399 42.6862 14.4727 41.2449 14.1519 39.7101C13.831 38.1754 13.865 36.5877 14.251 35.068C14.2828 34.9443 14.3548 34.8346 14.4556 34.7561ZM33.192 35.7879L33.218 35.9275C33.4636 37.2472 33.4156 38.6047 33.0774 39.9037C32.7392 41.2027 32.1191 42.4113 31.2612 43.4437C30.4032 44.476 29.3285 45.3068 28.1133 45.8769C26.8981 46.4471 25.5722 46.7427 24.2299 46.7427C22.8876 46.7427 21.5618 46.4471 20.3466 45.8769C19.1314 45.3068 18.0566 44.476 17.1987 43.4437C16.3407 42.4113 15.7206 41.2027 15.3824 39.9037C15.0442 38.6047 14.9962 37.2472 15.2418 35.9275L15.2678 35.7879H33.192Z" fill="#414550"/>
<path fill-rule="evenodd" clip-rule="evenodd" d="M28.6818 40.8137C28.3763 41.0178 28.017 41.1268 27.6495 41.1268C27.1568 41.1262 26.6844 40.9302 26.336 40.5818C25.9876 40.2334 25.7916 39.761 25.7909 39.2682C25.791 38.9008 25.9 38.5415 26.1041 38.236C26.3083 37.9304 26.5986 37.6922 26.9382 37.5515C27.2777 37.4109 27.6514 37.3741 28.0119 37.4458C28.3724 37.5175 28.7035 37.6945 28.9634 37.9544C29.2233 38.2143 29.4003 38.5454 29.472 38.9059C29.5437 39.2664 29.5069 39.6401 29.3663 39.9796C29.2256 40.3192 28.9874 40.6094 28.6818 40.8137ZM27.6493 38.5635C27.7887 38.5635 27.925 38.6049 28.041 38.6823C28.1569 38.7598 28.2472 38.8699 28.3006 38.9987C28.3539 39.1275 28.3679 39.2692 28.3407 39.406C28.3135 39.5427 28.2464 39.6683 28.1478 39.7669C28.0492 39.8655 27.9236 39.9326 27.7869 39.9598C27.6501 39.987 27.5084 39.9731 27.3796 39.9197C27.2508 39.8663 27.1407 39.776 27.0632 39.6601C26.9858 39.5442 26.9444 39.4079 26.9444 39.2685C26.9446 39.0816 27.0189 38.9023 27.151 38.7701C27.2832 38.638 27.4625 38.5637 27.6493 38.5635Z" fill="#414550"/>
<path d="M29.9861 35.3593C23.9754 35.3593 17.9893 35.5606 11.9874 35.1071C11.786 35.0064 12.1913 36.3418 12.2396 36.4894C12.6675 37.7986 13.5534 38.8761 13.8554 40.1975C14.0697 41.1348 13.7254 42.1714 13.9582 43.1024C14.1219 43.7571 14.2149 44.4 14.556 44.9891C14.9009 45.5849 15.2659 45.8473 15.8029 46.2827C16.9005 47.1727 18.0724 48.1507 19.4316 48.6038C19.9506 48.7768 20.4561 48.8996 20.9914 49.0148C21.5063 49.1256 22.0728 49.3858 22.5979 49.3977C23.6048 49.4206 24.6322 49.8177 25.6522 49.5845C26.639 49.359 27.7463 49.0907 28.6831 48.6785C30.2901 47.9714 31.6875 46.8463 32.9236 45.6102C33.8276 44.7062 34.2322 43.7859 34.5535 42.5466C34.7302 41.865 34.8372 41.1628 35.0205 40.4777C35.1878 39.8526 35.6283 39.2867 35.8237 38.6471C36.0857 37.7896 36.1365 37.058 36.1133 36.1532C36.1094 35.9998 36.0841 35.154 35.8938 35.1118C35.5675 35.0392 35.141 35.1005 34.8057 35.1071C34.4475 35.1141 34.0231 35.1774 33.6661 35.2332C32.4886 35.4172 31.1766 35.3593 29.9861 35.3593Z" fill="#FFCDCD"/>
<path d="M11.2489 32.7534H7.61551C7.81654 33.055 7.68807 33.6986 7.82567 34.0564C7.98741 34.4769 7.81412 35.0167 7.78364 35.4434C7.69679 36.6593 6.89843 38.1812 6.13508 39.1141C5.5921 39.7778 5.11065 40.4894 4.43982 41.0382C3.92477 41.4596 3.38589 41.9521 2.91269 42.4253C2.05529 43.2827 1.20403 44.2003 0.871839 45.3815C0.733461 45.8735 0.924072 46.425 0.764426 46.9039C0.639207 47.2796 0.722394 47.7782 0.722394 48.1742C0.722394 48.4921 0.699112 48.9096 1.11002 48.9728C1.75431 49.0719 2.385 49.0371 3.03878 49.0662C4.79949 49.1445 6.54173 49.3987 8.29735 49.5659C10.5955 49.7848 12.9276 49.9022 15.2372 49.9022C16.2991 49.9022 17.3756 49.9533 18.4362 49.8975L18.4539 49.8966C18.9533 49.8703 19.5543 49.8387 19.9914 49.5846C20.8415 49.0903 19.5219 48.4622 19.1648 48.1742C18.6824 47.7852 18.1372 47.4459 17.6843 47.0254C16.8556 46.2558 16.0752 45.446 15.2465 44.6716C14.7314 44.1903 14.1069 43.7848 13.6867 43.2145C13.3688 42.7832 12.8963 42.2398 12.6779 41.7668C12.1643 40.654 11.7346 39.6107 11.7346 38.3856C11.7346 37.739 11.6589 37.0449 11.8233 36.4148C11.9559 35.9065 12.1672 35.4019 12.2763 34.8877C12.3846 34.3771 12.3825 33.8064 12.5752 33.3138C12.6431 33.1404 12.9199 32.9167 12.8087 32.7067C12.7711 32.6356 12.6166 32.6596 12.5752 32.7114C12.4307 32.892 11.4708 32.7534 11.2489 32.7534Z" fill="#BCECF2"/>
<path d="M35.8351 6.99941C36.4567 7.42888 37.0116 7.83051 37.661 8.22076C37.8734 8.11455 38.0421 7.94004 38.241 7.80003C38.6893 7.4846 38.8751 6.85048 39.4093 6.62157C39.7803 6.46257 40.2711 6.10591 40.6939 6.21718C41.0941 6.32249 41.448 6.53412 41.8152 6.72165C42.1902 6.91314 42.5644 7.15822 42.8997 7.41197C43.2793 7.69921 43.7959 7.79078 44.2497 7.89806C44.7138 8.00776 44.5942 8.8182 44.6276 9.15821C44.6964 9.86027 44.685 10.6299 44.6174 11.3293C44.5772 11.7445 44.4633 11.9327 44.1823 12.2136C43.6604 12.7356 42.9613 13.1526 42.3135 13.4901C41.9192 13.6956 41.4799 13.7767 41.1045 14.0211C40.9852 14.0988 41.01 14.2281 40.9411 14.3316C40.8621 14.45 40.8574 14.7326 40.841 14.8708C40.812 15.1145 40.8226 15.3608 40.8226 15.606C40.8226 16.2891 40.8961 16.9674 40.8961 17.6505C40.8961 17.9637 40.7164 17.9214 40.5285 18.0936C40.1766 18.4162 39.7308 18.6637 39.3235 18.9106C38.9292 19.1496 38.5344 19.3825 38.1328 19.6091C38.0296 19.6673 37.852 19.7841 37.7325 19.799C37.5442 19.8226 37.3083 19.6901 37.1463 19.6091C36.8858 19.4788 36.6458 19.2958 36.3825 19.1761C35.853 18.9354 35.4409 18.4394 34.9487 18.1386C34.7709 18.0299 34.5661 17.9357 34.4177 17.7873C34.3438 17.7134 34.3676 17.5963 34.3503 17.5014C34.2644 17.0292 34.242 16.5526 34.242 16.0676V14.834C34.242 14.471 34.3406 14.1489 33.999 13.9374C33.7029 13.7541 33.3574 13.6447 33.0575 13.4697C32.7545 13.293 32.4334 13.1641 32.1527 12.9489C31.9007 12.7557 31.6046 12.6644 31.3378 12.4996C31.1289 12.3705 30.7615 12.1137 30.6474 11.8971C30.6067 11.8197 30.6353 11.6288 30.6413 11.5478C30.6773 11.0617 30.6679 10.5636 30.721 10.0793C30.7938 9.41465 30.7496 8.73544 30.8231 8.07371C30.8303 8.00922 30.9053 7.99115 30.9538 7.96342C31.2156 7.81379 31.4522 7.72496 31.6605 7.48958C31.8117 7.31862 31.9517 7.22334 32.1404 7.09949C32.2396 7.03439 32.3132 6.93631 32.4284 6.89729C32.7381 6.79238 33.0455 6.73758 33.3495 6.60727C33.6639 6.47255 33.8977 6.48121 34.2132 6.49289L34.2134 6.4929C34.4893 6.50312 34.7913 6.49506 35.0508 6.60319C35.3262 6.71792 35.5871 6.82808 35.8351 6.99941Z" fill="#F4E7D4"/>
</g>
<path fill-rule="evenodd" clip-rule="evenodd" d="M27.0809 5.63071L27.1321 5.55905C28.32 3.89336 29.8886 2.53543 31.7072 1.59824C33.5259 0.661053 35.542 0.171697 37.588 0.170887C39.608 0.170395 41.5997 0.645936 43.4016 1.55895C45.2036 2.47197 46.765 3.79677 47.9593 5.42593C49.1536 7.0551 49.9472 8.94278 50.2757 10.9359C50.6042 12.9291 50.4584 14.9716 49.8502 16.8979C49.2419 18.8241 48.1882 20.58 46.7746 22.023C45.361 23.466 43.6273 24.5556 41.714 25.2034C39.8006 25.8513 37.7615 26.0391 35.762 25.7517C33.7626 25.4643 31.8589 24.7098 30.2055 23.5493L29.9364 23.3604V26.0717L30.0301 26.1191C32.8462 27.5451 35.0394 29.957 36.1921 32.8956C37.3447 35.8342 37.3763 39.094 36.2808 42.0543C35.1852 45.0147 33.0391 47.4686 30.2512 48.9489C27.4633 50.4292 24.2283 50.8323 21.1623 50.0815L21.104 50.0672L21.0496 50.0926C20.5335 50.3328 19.971 50.4566 19.4017 50.4551H4.10695C3.36837 50.4554 2.64454 50.2479 2.01842 49.8561C1.39229 49.4644 0.889079 48.9043 0.566352 48.24C0.243625 47.5756 0.114419 46.8339 0.193514 46.0996C0.27261 45.3652 0.556813 44.668 1.01361 44.0876L7.14061 36.2931V18.5347L7.03244 18.492C6.63031 18.3334 6.29617 18.0393 6.08771 17.6606C5.87924 17.2819 5.80952 16.8423 5.89058 16.4177C5.97163 15.9931 6.19838 15.6101 6.53169 15.3348C6.865 15.0595 7.28395 14.9092 7.71624 14.9099H15.7909C16.2231 14.9092 16.6423 15.0594 16.9756 15.3345C17.3089 15.6097 17.5357 15.9926 17.6169 16.4171C17.6981 16.8416 17.6285 17.2812 17.4203 17.6599C17.212 18.0386 16.8781 18.3328 16.4761 18.4916L16.3681 18.5343V27.4314L16.6406 27.2297C17.2074 26.8104 17.8081 26.4388 18.4364 26.1189L18.5298 26.0714V9.34586L18.3682 9.33707C17.886 9.31085 17.4331 9.0976 17.1057 8.74265C16.7783 8.3877 16.6022 7.91906 16.615 7.43634C16.6277 6.95363 16.8282 6.49492 17.1739 6.15773C17.5195 5.82054 17.9831 5.63147 18.466 5.63071H27.0809ZM25.9768 7.12597C25.8269 7.41884 25.6878 7.71789 25.5596 8.02312H18.4678C18.4435 8.0232 18.4192 8.02161 18.3951 8.01839L18.4681 8.19401C18.3754 8.19427 18.2836 8.17626 18.1979 8.14102C18.1121 8.10575 18.0341 8.05389 17.9684 7.98842C17.9026 7.92296 17.8505 7.84517 17.8148 7.75951C17.7793 7.67405 17.7609 7.58244 17.7608 7.48989C17.7601 7.39693 17.7781 7.30477 17.8138 7.21892C17.8494 7.1332 17.9019 7.05553 17.9682 6.9905L18.0408 7.1654C18.0554 7.14653 18.0713 7.12864 18.0885 7.11187C18.1379 7.06222 18.1967 7.02282 18.2615 6.99592C18.3262 6.96901 18.3956 6.95514 18.4657 6.95508H26.0659C26.0358 7.01181 26.0061 7.06877 25.9768 7.12597ZM7.23879 40.4043C7.16025 40.4425 7.09133 40.4981 7.03743 40.5668L3.02198 45.6754C2.8639 45.8782 2.76582 46.1214 2.73919 46.3771C2.71256 46.6329 2.75836 46.891 2.87136 47.122C2.98436 47.353 3.16002 47.5476 3.37829 47.6835C3.59656 47.8195 3.84893 47.8914 4.10609 47.891H16.539L16.5843 47.9245C17.1159 48.3183 17.6769 48.6707 18.2624 48.9786L18.1829 49.3008H4.10691C3.58495 49.3007 3.07355 49.1537 2.63119 48.8766C2.18882 48.5996 1.83336 48.2036 1.60543 47.734C1.37751 47.2645 1.28633 46.7402 1.34231 46.2213C1.3983 45.7023 1.59919 45.2096 1.92203 44.7995L8.17214 36.849C8.25198 36.7475 8.29538 36.622 8.29537 36.4928V18.6266H15.2163V28.4469L15.1658 28.497C13.6584 29.9935 12.5462 31.8408 11.929 33.8733C11.3119 35.9057 11.209 38.0596 11.6298 40.1416L11.6712 40.3463H7.49085C7.40352 40.3463 7.31733 40.3661 7.23879 40.4043ZM11.9831 41.4998L12.0219 41.617C12.6191 43.4219 13.6097 45.072 14.9209 46.4487L15.1959 46.7375H4.05872L3.88043 46.6281L3.90199 46.4233L7.77058 41.4998H11.9831ZM29.1194 26.9602C31.78 28.187 33.8838 30.3669 35.0153 33.0694C36.1468 35.7719 36.2238 38.8004 35.231 41.5569C34.2383 44.3133 32.2479 46.5973 29.6531 47.9577C27.0583 49.3181 24.0477 49.6559 21.2159 48.9046L21.2055 48.9018L21.2026 48.9009C21.1996 48.8998 21.197 48.8989 21.1945 48.8984L21.1879 48.8969C18.8638 48.2717 16.7889 46.9449 15.2461 45.0977C13.7032 43.2505 12.7674 40.9725 12.5662 38.5741C12.365 36.1757 12.9082 33.7737 14.1217 31.6952C15.3352 29.6168 17.16 27.963 19.3474 26.9593C19.4476 26.9131 19.5325 26.8391 19.592 26.7462C19.6515 26.6533 19.6832 26.5452 19.6833 26.4348V9.3475H25.2683L25.2072 9.56466C24.5747 11.8128 24.5686 14.191 25.1894 16.4424C25.8102 18.6938 27.0343 20.7327 28.7296 22.339L28.783 22.3895V26.436C28.783 26.5464 28.8147 26.6544 28.8743 26.7473C28.9339 26.8402 29.0191 26.9142 29.1194 26.9602ZM37.5879 24.7358C35.2727 24.7358 33.0095 24.0493 31.0845 22.7631C29.1595 21.4768 27.6592 19.6486 26.7732 17.5097C25.8872 15.3707 25.6554 13.0171 26.1071 10.7464C26.5588 8.47574 27.6736 6.38998 29.3107 4.7529C30.9478 3.11583 33.0335 2.00096 35.3042 1.54929C37.5749 1.09763 39.9285 1.32944 42.0675 2.21542C44.2064 3.1014 46.0346 4.60175 47.3209 6.52675C48.6071 8.45174 49.2936 10.7149 49.2936 13.0301C49.2902 16.1335 48.0558 19.1091 45.8614 21.3036C43.6669 23.498 40.6913 24.7324 37.5879 24.7358ZM7.71607 16.0633H15.7905C15.9774 16.0633 16.1567 16.1376 16.2889 16.2698C16.4211 16.402 16.4954 16.5813 16.4954 16.7682C16.4954 16.9552 16.4211 17.1345 16.2889 17.2667C16.1567 17.3989 15.9774 17.4732 15.7905 17.4732H7.71607C7.52912 17.4732 7.34982 17.3989 7.21763 17.2667C7.08543 17.1345 7.01116 16.9552 7.01116 16.7682C7.01116 16.5813 7.08543 16.402 7.21763 16.2698C7.34982 16.1376 7.52912 16.0633 7.71607 16.0633Z" fill="#414550"/>
<path fill-rule="evenodd" clip-rule="evenodd" d="M37.5879 7.4297L34.4587 5.62288H33.8817L30.4642 7.59648L30.4646 12.5429L33.5939 14.3498V17.9644C33.5939 18.0657 33.6206 18.1652 33.6712 18.2529C33.7219 18.3406 33.7946 18.4134 33.8823 18.4641L37.2999 20.4374C37.3876 20.4879 37.4871 20.5145 37.5884 20.5145C37.6896 20.5145 37.7891 20.4879 37.8768 20.4374L41.2944 18.4642L41.5828 17.9644V14.3498L42.9245 13.575L44.7117 12.5429C44.7994 12.4923 44.8722 12.4194 44.9229 12.3317C44.9735 12.244 45.0001 12.1445 45.0001 12.0432V8.09577C45.0001 7.99462 44.9734 7.8952 44.9228 7.80756C44.8789 7.73144 44.8182 7.66652 44.7455 7.61761C44.7345 7.61021 44.7233 7.60317 44.7118 7.59652L41.2942 5.62288H40.7172L37.6734 7.38036L37.5879 7.4297ZM41.0056 6.78763L43.8467 8.42862V10.5583V11.7104L43.419 11.9574L41.0057 13.3509L38.1651 11.7104V8.43039L41.0056 6.78763ZM31.3296 8.43033L34.1706 6.78937L37.0116 8.43033V11.7104L34.1706 13.3509L31.3296 11.7104V8.43033ZM34.7474 17.6299V14.3498L37.5884 12.7093L40.4294 14.3498V17.6299L38.985 18.4642L37.5884 19.2709L36.1917 18.4642L34.7474 17.6299Z" fill="#414550"/>
<path d="M46.4583 15.8928C46.5975 15.8292 46.7561 15.8235 46.8994 15.877C46.9705 15.9033 47.0361 15.9435 47.0917 15.995C47.1473 16.0466 47.1922 16.1086 47.2238 16.1775C47.2555 16.2464 47.2732 16.3208 47.276 16.3966C47.2788 16.4723 47.2667 16.5478 47.2403 16.6188C46.8937 17.5474 46.4146 18.4213 45.8182 19.213C45.7726 19.2736 45.7155 19.3247 45.6502 19.3632C45.5849 19.4018 45.5126 19.4271 45.4375 19.4377C45.3624 19.4483 45.286 19.444 45.2125 19.4251C45.1391 19.4062 45.0701 19.373 45.0095 19.3274C44.9489 19.2818 44.8979 19.2247 44.8593 19.1594C44.8207 19.0941 44.7954 19.0219 44.7848 18.9468C44.7742 18.8717 44.7785 18.7952 44.7974 18.7218C44.8163 18.6483 44.8495 18.5793 44.8951 18.5187C45.4247 17.8159 45.8499 17.0403 46.1576 16.2158C46.211 16.0725 46.3192 15.9563 46.4583 15.8928Z" fill="#414550"/>
<path fill-rule="evenodd" clip-rule="evenodd" d="M14.4556 34.7561C14.5565 34.6776 14.6806 34.6348 14.8084 34.6344H33.6481C33.7765 34.6341 33.9016 34.6766 34.0031 34.7552C34.1046 34.8337 34.177 34.9439 34.2089 35.0682C34.5949 36.5878 34.6288 38.1754 34.308 39.7101C33.9871 41.2449 33.32 42.6862 32.3574 43.9239C31.3948 45.1617 30.1622 46.1632 28.7537 46.8521C27.3452 47.5411 25.7979 47.8992 24.2299 47.8992C22.6619 47.8992 21.1147 47.5411 19.7062 46.8521C18.2976 46.1632 17.0651 45.1617 16.1025 43.9239C15.1399 42.6862 14.4727 41.2449 14.1519 39.7101C13.831 38.1754 13.865 36.5877 14.251 35.068C14.2828 34.9443 14.3548 34.8346 14.4556 34.7561ZM33.192 35.7879L33.218 35.9275C33.4636 37.2472 33.4156 38.6047 33.0774 39.9037C32.7392 41.2027 32.1191 42.4113 31.2612 43.4437C30.4032 44.476 29.3285 45.3068 28.1133 45.8769C26.8981 46.4471 25.5722 46.7427 24.2299 46.7427C22.8876 46.7427 21.5618 46.4471 20.3466 45.8769C19.1314 45.3068 18.0566 44.476 17.1987 43.4437C16.3407 42.4113 15.7206 41.2027 15.3824 39.9037C15.0442 38.6047 14.9962 37.2472 15.2418 35.9275L15.2678 35.7879H33.192Z" fill="#414550"/>
<path fill-rule="evenodd" clip-rule="evenodd" d="M28.6818 40.8137C28.3763 41.0178 28.017 41.1268 27.6495 41.1268C27.1568 41.1262 26.6844 40.9302 26.336 40.5818C25.9876 40.2334 25.7916 39.761 25.7909 39.2682C25.791 38.9008 25.9 38.5415 26.1041 38.236C26.3083 37.9304 26.5986 37.6922 26.9382 37.5515C27.2777 37.4109 27.6514 37.3741 28.0119 37.4458C28.3724 37.5175 28.7035 37.6945 28.9634 37.9544C29.2233 38.2143 29.4003 38.5454 29.472 38.9059C29.5437 39.2664 29.5069 39.6401 29.3663 39.9796C29.2256 40.3192 28.9874 40.6094 28.6818 40.8137ZM27.6493 38.5635C27.7887 38.5635 27.925 38.6049 28.041 38.6823C28.1569 38.7598 28.2472 38.8699 28.3006 38.9987C28.3539 39.1275 28.3679 39.2692 28.3407 39.406C28.3135 39.5427 28.2464 39.6683 28.1478 39.7669C28.0492 39.8655 27.9236 39.9326 27.7869 39.9598C27.6501 39.987 27.5084 39.9731 27.3796 39.9197C27.2508 39.8663 27.1407 39.776 27.0632 39.6601C26.9858 39.5442 26.9444 39.4079 26.9444 39.2685C26.9446 39.0816 27.0189 38.9023 27.151 38.7701C27.2832 38.638 27.4625 38.5637 27.6493 38.5635Z" fill="#414550"/>
</svg>
