<svg width="52" height="51" viewBox="0 0 52 51" fill="none" xmlns="http://www.w3.org/2000/svg">
<g opacity="0.7">
<path d="M18.5835 29.5478C19.377 29.453 20.2173 29.1644 20.9999 29C21.2873 29.0958 21.8848 29.7993 22.0579 30.0589C22.3494 30.4961 23.0844 31.1747 23.5499 31.4476C24.2625 31.8654 24.8993 32.0568 25.7285 32.0568C26.2717 32.0568 26.8209 32.1442 27.298 31.8916C27.8083 31.6214 28.1902 31.0322 28.6454 30.6681C28.9341 30.4371 29.3473 30.2766 29.5695 29.9711C29.6878 29.8085 29.8703 29.6296 30.0445 29.5271C30.3216 29.3641 30.3251 29.0021 30.6949 29.1761C30.84 29.2443 31.0538 29.3282 31.2112 29.3568C32.0595 29.511 32.8446 29.84 33.617 30.2189C34.6176 30.7098 35.7766 30.8839 36.8694 31.0346C37.8819 31.1743 38.8526 31.5514 39.7295 32.0775C41.265 32.9988 42.9943 34.2401 43.6324 35.9804C43.8865 36.6733 44.0764 37.2376 44.0764 38.0041C44.0764 38.1996 44.196 39.2691 43.8905 39.3051C42.7608 39.438 41.6019 39.398 40.4522 39.398C38.2964 39.398 36.1475 39.5839 33.9887 39.5839C32.5554 39.5839 31.1088 39.7584 29.6727 39.7697C27.2157 39.7891 24.7577 39.7697 22.3006 39.7697C18.4288 39.7697 14.5389 39.7045 10.6692 39.589C9.86367 39.565 9.07657 39.5603 8.2738 39.4961C7.89161 39.4655 8.00047 39.4428 7.90726 39.1399C7.76899 38.6905 7.83996 38.2323 7.92275 37.777C8.13776 36.5944 8.28052 35.3678 8.99657 34.3335C9.67339 33.3559 10.8432 32.3761 11.8773 31.8193C13.0404 31.193 14.2425 30.8442 15.5479 30.6577C16.0443 30.5868 16.6078 30.1813 17.0863 30.0124C17.3385 29.9234 17.5863 29.7979 17.8298 29.6872C18.0538 29.5854 18.3473 29.576 18.5835 29.5478Z" fill="#DDEDF6"/>
<path d="M32.7693 11.665C33.3141 12.0317 33.9045 12.2674 34.4973 12.5533C34.1013 12.5533 35.4945 12.6825 35.8858 12.7436C36.2036 12.7933 36.5396 12.8027 36.7517 13.0534C36.8747 13.1988 37.017 13.3151 37.1193 13.4771C37.3091 13.7775 37.3801 14.1932 37.4702 14.5333C37.6206 15.1016 37.577 15.7025 37.6736 16.2819C37.7531 16.7592 37.7449 17.5822 37.2854 17.8943C36.9458 18.125 36.5065 18.2358 36.1321 18.3982C35.6961 18.5873 35.2458 18.7266 34.8071 18.902C34.6651 18.9588 34.7335 19.261 34.7157 19.3928C34.6608 19.7989 34.615 20.2029 34.5272 20.604C34.3215 21.5434 33.8527 22.3873 33.5251 23.282C33.217 24.1231 32.6936 24.7553 31.9463 25.2564C31.7486 25.3889 31.5311 25.4495 31.3211 25.5531C31.2946 25.5662 31.185 25.6625 31.1531 25.6501C31.1349 25.6431 31.1718 25.3436 31.1718 25.3012C31.1718 24.7373 31.1603 24.1722 31.1737 23.6085C31.2094 22.1084 31.239 20.6125 31.239 19.1111C31.239 18.7539 31.3235 18.3632 31.2315 18.0137C31.1406 17.6683 30.869 17.2455 30.4963 17.1814C29.3356 16.9819 28.1163 17.0545 26.943 17.0545C26.2768 17.0545 25.621 17.077 24.9742 17.2561C24.5091 17.3849 24.0305 17.4022 23.5578 17.4875C23.11 17.5683 22.6722 17.6944 22.2328 17.8103C21.9277 17.8909 21.623 17.9192 21.3147 17.9783C21.0813 18.023 20.9937 18.0324 20.9937 18.2787V19.4283C20.9937 20.6549 20.9107 21.8829 20.9937 23.1084C21.0304 23.6507 21.0557 24.1936 21.0944 24.7357C21.1068 24.9093 21.1362 25.0922 21.2244 25.245C21.3698 25.3544 21.5102 25.472 21.6487 25.5867C21.7959 25.7085 22.0026 25.8207 22.1022 25.9861C22.1047 25.9902 22.1072 25.9944 22.1096 25.9985C22.1518 26.0198 22.1942 26.0393 22.2365 26.057C22.6087 26.212 22.9082 26.2249 23.3115 26.2249H23.3163C25.0972 26.2249 26.8721 26.2249 28.6525 26.3089C29.2011 26.3348 29.7649 26.3114 30.3096 26.3854C30.4485 26.4043 30.4664 26.5209 30.4664 26.6448C30.4664 28.5897 29.8269 31.5611 27.432 31.7078C26.809 31.7459 26.2042 31.8347 25.5789 31.8347C25.2018 31.8347 24.8257 31.8027 24.4498 31.7749C24.2568 31.7607 24.1149 31.74 23.9478 31.648C23.7457 31.5369 23.589 31.3222 23.4832 31.1218C23.3265 30.8252 23.1655 30.537 23.0577 30.2185C22.8746 29.6782 22.6569 29.1604 22.5239 28.6043C22.3234 27.7655 22.5639 26.7676 22.1096 25.9985C21.7991 25.8423 21.4975 25.594 21.2848 25.3329C21.2621 25.305 21.2421 25.2756 21.2244 25.245C21.1359 25.1784 21.0456 25.1148 20.9526 25.0567C20.6015 24.8373 20.31 24.5606 20.0121 24.2692C19.8147 24.0761 19.646 23.9275 19.5082 23.6832C19.4222 23.5307 19.3657 23.3799 19.2973 23.2204C19.1317 22.834 19.2049 22.3832 19.0958 21.9831C18.9132 21.3138 18.4238 20.7744 18.0862 20.1766C17.854 19.7657 17.6401 19.3265 17.3882 18.9282C17.3239 18.8264 17.1707 18.8684 17.0635 18.8684C16.7572 18.8684 16.4278 18.7971 16.1379 18.7005C15.9695 18.6444 15.9061 18.4999 15.8038 18.3664C15.6865 18.2134 15.5717 18.0723 15.4661 17.9092C15.0502 17.2676 14.7793 16.4541 14.7793 15.6885C14.7793 15.1752 14.8107 14.6412 14.9491 14.1451C15.041 13.816 15.1706 13.5011 15.3056 13.1878C15.3702 13.0378 15.396 12.93 15.5351 12.8388C15.8212 12.6514 16.135 12.5665 16.4589 12.4693C16.9935 12.3089 17.5235 12.2029 18.0768 12.1297C18.7133 12.0454 19.4017 11.9667 20.0121 11.7583C20.305 11.6583 20.588 11.6399 20.8873 11.5754C21.236 11.5003 21.5813 11.4006 21.923 11.2992C22.2403 11.2051 22.539 11.072 22.8487 10.9559C23.2781 10.7948 23.711 10.669 24.1475 10.5304C24.6111 10.3831 25.0942 10.2641 25.5453 10.0825C26.0059 9.89705 26.4222 9.61788 26.8796 9.42185C27.5201 9.14737 28.1479 8.68296 28.6842 8.24056L28.6895 8.23619C28.82 8.12848 29.6733 7.42432 29.7442 7.48103C29.8705 7.5821 30.0204 7.81321 30.095 7.95317C30.2678 8.27712 30.4397 8.60327 30.6045 8.93291C30.824 9.37194 30.9548 9.8578 31.239 10.2616C31.4054 10.4981 31.6398 10.6648 31.81 10.8999C31.9224 11.0551 32.1358 11.1872 32.2822 11.3104C32.4342 11.4384 32.6043 11.554 32.7693 11.665Z" fill="#F4E7D4"/>
<path d="M16.5369 6.66819C15.7307 8.28041 16.0681 10.2799 16.1917 11.9941C17.701 11.9941 19.0336 11.8101 20.5371 11.6924C21.5971 11.6095 22.6141 11.6218 23.641 11.3153C24.3807 11.0945 25.0666 10.6136 25.7006 10.1869C26.4563 9.67826 27.2866 9.29901 28.0386 8.78869C28.5394 8.44889 28.9397 8.0107 29.4194 7.64287C29.6635 7.45576 29.6944 7.37847 29.7791 7.68348C29.8788 8.04216 29.894 8.34668 29.9271 8.71037C30.1105 10.7282 32.3767 11.5839 34.0608 12.1101C34.5182 12.2531 35.4011 12.5473 35.6939 12.0202C35.7667 11.8893 35.8068 11.6632 35.8216 11.5155C35.8794 10.9374 35.8767 10.3123 35.8767 9.73146C35.8767 7.49553 35.4034 5.06908 33.8403 3.37575C33.5037 3.01113 33.2395 2.70746 32.8569 2.39237C32.4674 2.07159 32.0108 1.7992 31.5951 1.51052C31.1924 1.23091 30.3746 1.29293 29.9126 1.24944C29.0728 1.1704 28.2252 1.12381 27.3831 1.07829L27.3116 1.07442C25.8076 0.993004 24.1855 0.905192 22.7243 1.31616C21.3765 1.69523 20.0392 2.62799 18.93 3.45987C18.3609 3.88672 17.8835 4.3022 17.526 4.92769C17.1958 5.50556 16.8341 6.07365 16.5369 6.66819Z" fill="#CEC2BB"/>
<path fill-rule="evenodd" clip-rule="evenodd" d="M16.6616 47.3025C16.7696 47.1945 16.9161 47.1339 17.0688 47.1339H19.8869L20.4792 44.1726H3.49649C2.79854 44.1718 2.12939 43.8942 1.63586 43.4007C1.14237 42.9072 0.864768 42.2381 0.863962 41.5402V12.7501C0.909308 12.4442 0.815195 11.7033 1.5 11C2.04189 10.4434 2.99766 10.1344 3.49649 10.1177L15.6704 10.1177V9.04839C15.6731 6.71489 16.6013 4.47775 18.2514 2.82771C19.9014 1.17765 22.1386 0.249459 24.4722 0.246774H27.7622C30.0958 0.249459 32.333 1.17765 33.983 2.82771C35.6331 4.47781 36.5613 6.71507 36.564 9.04867V10.1177H48.7382C49.436 10.1186 50.105 10.3962 50.5985 10.8896C51.092 11.3832 51.3696 12.0523 51.3704 12.7503V41.54C51.3696 42.238 51.092 42.9072 50.5985 43.4007C50.105 43.8942 49.4358 44.1718 48.7379 44.1726H31.6696L32.3359 47.1339H35.1656C35.3183 47.1339 35.4647 47.1945 35.5727 47.3025C35.6807 47.4105 35.7414 47.557 35.7414 47.7097V49.6016H38.4559C38.6086 49.6016 38.7551 49.6623 38.8631 49.7703C38.971 49.8782 39.0317 50.0247 39.0317 50.1774C39.0317 50.3301 38.971 50.4766 38.8631 50.5846C38.7551 50.6926 38.6086 50.7532 38.4559 50.7532H12.1333C11.9806 50.7532 11.8341 50.6926 11.7262 50.5846C11.6182 50.4766 11.5575 50.3301 11.5575 50.1774C11.5575 50.0247 11.6182 49.8782 11.7262 49.7703C11.8341 49.6623 11.9806 49.6016 12.1333 49.6016H16.493V47.7097C16.493 47.557 16.5537 47.4105 16.6616 47.3025ZM37.0575 17.2742C37.0571 17.5576 36.9444 17.8296 36.744 18.03C36.5436 18.2304 36.2719 18.3432 35.9885 18.3435H34.9188V12.9145H35.9882C36.2716 12.9149 36.5436 13.0277 36.744 13.2281C36.9444 13.4284 37.0571 13.7005 37.0575 13.9839V17.2742ZM16.822 9.0481C16.8244 7.01999 17.6311 5.07561 19.0652 3.64152C20.4992 2.20742 22.4436 1.40072 24.4717 1.39839L27.7623 1.39839C29.7905 1.40072 31.7351 2.20742 33.1692 3.64152C34.6033 5.07561 35.41 7.01999 35.4123 9.0481V11.7629H34.343C33.8943 11.7629 33.4401 11.5366 33.0183 11.2186C32.5914 10.8968 32.1674 10.4578 31.7739 9.98101C30.9867 9.02723 30.2962 7.89088 29.9231 7.14561C29.8722 7.04363 29.792 6.95877 29.693 6.9023C29.594 6.84582 29.4805 6.82 29.3668 6.82809C29.2531 6.83618 29.1444 6.87783 29.0544 6.94775C28.9645 7.01765 28.8973 7.11265 28.8613 7.22075C28.8033 7.39551 28.5895 7.74315 27.8072 8.24439C27.0201 8.74872 25.6307 9.42577 23.1692 10.247C20.7282 11.0606 18.3375 11.6415 17.8526 11.7563L17.8246 11.7629H16.822V9.0481ZM26.2112 16.7061C26.149 16.6955 26.0854 16.6955 26.0232 16.7061L26.022 16.7063L21.3798 17.4799L18.4672 14.5684V12.7936L18.6544 12.747C19.6148 12.5082 21.5317 12.0061 23.5231 11.3427C26.7222 10.2763 28.3184 9.38873 29.133 8.6922L29.3537 8.50352L29.5043 8.7517C29.7666 9.18379 30.1015 9.69912 30.4893 10.2165C31.577 11.6672 32.6198 12.511 33.5907 12.7993L33.7672 12.8517V14.5684L30.8546 17.4799L26.2112 16.7061ZM33.7672 19.7419C33.7643 21.3118 33.1488 22.819 32.0518 23.9419L31.6285 24.3752V18.3349L33.7672 16.1962V19.7419ZM31.6672 36.4403L31.7834 36.1114C31.9704 35.5819 32.317 35.1235 32.7754 34.7992C33.2338 34.475 33.7815 34.3009 34.343 34.3009C34.9045 34.3009 35.4522 34.475 35.9106 34.7992C36.369 35.1235 36.7156 35.5819 36.9026 36.1114L37.0187 36.4403H35.9882C35.8354 36.4403 35.689 36.501 35.581 36.609C35.473 36.717 35.4123 36.8634 35.4123 37.0161C35.4123 37.1688 35.473 37.3153 35.581 37.4233C35.689 37.5313 35.8354 37.5919 35.9882 37.5919H37.6333C37.786 37.5919 37.9325 37.5313 38.0405 37.4233C38.1484 37.3154 38.2091 37.169 38.2091 37.0164C38.2081 36.1254 37.8998 35.262 37.3363 34.5717C36.7729 33.8815 35.9887 33.4066 35.1159 33.2272L34.9188 33.1867V30.4847L37.7394 31.1493C39.4204 31.5392 40.9199 32.4883 41.9913 33.841C43.0629 35.1939 43.6435 36.8704 43.6382 38.5963V38.9081H8.59622V38.5958C8.59094 36.8701 9.17155 35.1938 10.243 33.841C11.3145 32.4884 12.8133 31.5394 14.4943 31.1494L17.3156 30.4847V32.9019C17.3159 32.9346 17.3189 32.9673 17.3244 32.9995L17.3595 33.2055L17.1622 33.2741C16.6663 33.4465 16.2476 33.7889 15.9802 34.2406C15.7128 34.6923 15.614 35.2241 15.7014 35.7417C15.7888 36.2593 16.0567 36.7292 16.4576 37.0681C16.8585 37.407 17.3665 37.5929 17.8914 37.5929C18.4163 37.5929 18.9243 37.407 19.3252 37.0681C19.7261 36.7292 19.994 36.2593 20.0814 35.7417C20.1687 35.2241 20.07 34.6923 19.8026 34.2406C19.5352 33.7889 19.1164 33.4465 18.6206 33.2741L18.4232 33.2055L18.4584 32.9995C18.4639 32.9673 18.4668 32.9346 18.4672 32.9019V30.4389L18.4671 30.4379C18.4669 30.4336 18.4662 30.4221 18.4662 30.4098V30.2143L21.5 29.5005L21.567 29.7226C22.068 31.3822 23.8958 32.6565 26.1172 32.6565C28.3385 32.6565 30.1664 31.3822 30.6673 29.7226L30.7343 29.5005L33.7682 30.2143V30.4098C33.7682 30.4229 33.7675 30.4342 33.7672 30.438L33.7672 30.439V33.1867L33.5701 33.2272C32.6973 33.4066 31.9131 33.8815 31.3496 34.5717C30.7862 35.262 30.4779 36.1254 30.4769 37.0164C30.4769 37.169 30.5376 37.3154 30.6455 37.4233C30.7535 37.5313 30.9 37.5919 31.0527 37.5919H32.6978C32.8505 37.5919 32.997 37.5313 33.105 37.4233C33.213 37.3153 33.2736 37.1688 33.2736 37.0161C33.2736 36.8634 33.213 36.717 33.105 36.609C32.997 36.501 32.8505 36.4403 32.6978 36.4403H31.6672ZM17.8914 34.3016C18.1029 34.3016 18.3096 34.3643 18.4855 34.4818C18.6613 34.5993 18.7984 34.7663 18.8793 34.9617C18.9603 35.1571 18.9815 35.3722 18.9402 35.5796C18.8989 35.787 18.7971 35.9776 18.6475 36.1271C18.498 36.2767 18.3074 36.3785 18.1 36.4198C17.8926 36.461 17.6776 36.4399 17.4822 36.3589C17.2868 36.278 17.1197 36.1409 17.0022 35.9651C16.8847 35.7892 16.822 35.5825 16.822 35.371C16.8224 35.0876 16.9352 34.8155 17.1356 34.6152C17.336 34.4148 17.608 34.302 17.8914 34.3016ZM29.6543 28.7903C29.6543 29.5659 29.2329 30.25 28.5906 30.7317C27.9482 31.2135 27.0725 31.5048 26.1172 31.5048C25.1619 31.5048 24.2862 31.2135 23.6438 30.7317C23.0015 30.25 22.5801 29.5659 22.5801 28.7903V26.8984H29.6543V28.7903ZM20.6059 24.3752L20.1826 23.9419C19.0856 22.819 18.4701 21.3123 18.4672 19.7424V16.1962L20.6059 18.3349V24.3752ZM16.2462 18.3435C15.9628 18.3432 15.6908 18.2304 15.4904 18.03C15.29 17.8296 15.1773 17.5579 15.1769 17.2745L15.1769 13.9839C15.1773 13.7005 15.29 13.4284 15.4904 13.2281C15.6908 13.0277 15.9628 12.9149 16.2462 12.9145L17.3156 12.9145V18.3435H16.2462ZM2.01557 12.7498C2.0159 12.3573 2.17198 11.9809 2.44955 11.7033C2.72711 11.4258 3.10348 11.2697 3.49601 11.2694L15.6704 11.2694V11.8324L15.5061 11.8906C15.0734 12.044 14.6987 12.3276 14.4336 12.7025C14.1684 13.0773 14.0258 13.525 14.0253 13.9842V17.2739C14.026 17.8627 14.2603 18.4273 14.6767 18.8437C15.0931 19.2601 15.6577 19.4944 16.2465 19.4952H17.3151L17.3156 19.7415C17.3177 20.9182 17.609 22.0763 18.1636 23.1141C18.7183 24.1518 19.5195 25.0374 20.4966 25.693L20.6059 25.7663V26.3226C20.6059 26.4753 20.6666 26.6218 20.7745 26.7297C20.8825 26.8377 21.029 26.8984 21.1817 26.8984H21.4285V28.3339L14.2309 30.0279C12.297 30.4766 10.5718 31.5685 9.33918 33.1247C8.10652 34.681 7.43856 36.6095 7.44461 38.5947L7.44461 38.9081H2.01557V12.7498ZM50.2188 41.5405C50.2185 41.9331 50.0624 42.3094 49.7848 42.587C49.5073 42.8646 49.1309 43.0206 48.7384 43.021H3.49622C3.10368 43.0206 2.72711 42.8646 2.44955 42.587C2.17198 42.3094 2.0159 41.9331 2.01557 41.5405L2.01557 40.0597H50.2188V41.5405ZM44.7898 38.5955C44.7958 36.6102 44.1279 34.681 42.8952 33.1247C41.6625 31.5685 39.9382 30.4767 38.0043 30.0281L30.8059 28.3339V26.8984H31.0527C31.2054 26.8984 31.3518 26.8377 31.4598 26.7297C31.5678 26.6218 31.6285 26.4753 31.6285 26.3226V25.7663L31.7378 25.693C32.7149 25.0374 33.5161 24.1518 34.0707 23.1141C34.6254 22.0763 34.9166 20.9182 34.9188 19.7415L34.9193 19.4952H35.9878C36.5767 19.4944 37.1413 19.2601 37.5577 18.8437C37.9741 18.4273 38.2083 17.8627 38.2091 17.2739V13.9842C38.2086 13.525 38.0659 13.0773 37.8008 12.7025C37.5356 12.3277 37.161 12.044 36.7283 11.8906L36.564 11.8324V11.2694H48.7382C49.1307 11.2697 49.5073 11.4258 49.7848 11.7033C50.0624 11.9809 50.2185 12.3573 50.2188 12.7498V38.9081H44.7898V38.5955ZM21.7575 25.7468V18.5849L26.1172 17.8579L30.4769 18.5849V25.7468H21.7575ZM34.5898 48.2855V49.6016H17.6446V48.2855H34.5898ZM21.0617 47.1339L21.6539 44.1726H30.4892L31.1555 47.1339H21.0617Z" fill="#414550"/>
<path d="M30.8059 13.9839C30.8059 14.3019 30.5481 14.5597 30.2301 14.5597C29.9121 14.5597 29.6543 14.3019 29.6543 13.9839C29.6543 13.6659 29.9121 13.4081 30.2301 13.4081C30.5481 13.4081 30.8059 13.6659 30.8059 13.9839Z" fill="#414550"/>
<path d="M22.5801 13.9839C22.5801 14.3019 22.3223 14.5597 22.0043 14.5597C21.6863 14.5597 21.4285 14.3019 21.4285 13.9839C21.4285 13.6659 21.6863 13.4081 22.0043 13.4081C22.3223 13.4081 22.5801 13.6659 22.5801 13.9839Z" fill="#414550"/>
<path d="M18.5835 29.5478C19.377 29.453 20.2173 29.1644 20.9999 29C21.2873 29.0958 21.8848 29.7993 22.0579 30.0589C22.3494 30.4961 23.0844 31.1747 23.5499 31.4476C24.2625 31.8654 24.8993 32.0568 25.7285 32.0568C26.2717 32.0568 26.8209 32.1442 27.298 31.8916C27.8083 31.6214 28.1902 31.0322 28.6454 30.6681C28.9341 30.4371 29.3473 30.2766 29.5695 29.9711C29.6878 29.8085 29.8703 29.6296 30.0445 29.5271C30.3216 29.3641 30.3251 29.0021 30.6949 29.1761C30.84 29.2443 31.0538 29.3282 31.2112 29.3568C32.0595 29.511 32.8446 29.84 33.617 30.2189C34.6176 30.7098 35.7766 30.8839 36.8694 31.0346C37.8819 31.1743 38.8526 31.5514 39.7295 32.0775C41.265 32.9988 42.9943 34.2401 43.6324 35.9804C43.8865 36.6733 44.0764 37.2376 44.0764 38.0041C44.0764 38.1996 44.196 39.2691 43.8905 39.3051C42.7608 39.438 41.6019 39.398 40.4522 39.398C38.2964 39.398 36.1475 39.5839 33.9887 39.5839C32.5554 39.5839 31.1088 39.7584 29.6727 39.7697C27.2157 39.7891 24.7577 39.7697 22.3006 39.7697C18.4288 39.7697 14.5389 39.7045 10.6692 39.589C9.86367 39.565 9.07657 39.5603 8.2738 39.4961C7.89161 39.4655 8.00047 39.4428 7.90726 39.1399C7.76899 38.6905 7.83996 38.2323 7.92275 37.777C8.13776 36.5944 8.28052 35.3678 8.99657 34.3335C9.67339 33.3559 10.8432 32.3761 11.8773 31.8193C13.0404 31.193 14.2425 30.8442 15.5479 30.6577C16.0443 30.5868 16.6078 30.1813 17.0863 30.0124C17.3385 29.9234 17.5863 29.7979 17.8298 29.6872C18.0538 29.5854 18.3473 29.576 18.5835 29.5478Z" fill="#DDEDF6"/>
<path d="M32.7693 11.665C33.3141 12.0317 33.9045 12.2674 34.4973 12.5533C34.1013 12.5533 35.4945 12.6825 35.8858 12.7436C36.2036 12.7933 36.5396 12.8027 36.7517 13.0534C36.8747 13.1988 37.017 13.3151 37.1193 13.4771C37.3091 13.7775 37.3801 14.1932 37.4702 14.5333C37.6206 15.1016 37.577 15.7025 37.6736 16.2819C37.7531 16.7592 37.7449 17.5822 37.2854 17.8943C36.9458 18.125 36.5065 18.2358 36.1321 18.3982C35.6961 18.5873 35.2458 18.7266 34.8071 18.902C34.6651 18.9588 34.7335 19.261 34.7157 19.3928C34.6608 19.7989 34.615 20.2029 34.5272 20.604C34.3215 21.5434 33.8527 22.3873 33.5251 23.282C33.217 24.1231 32.6936 24.7553 31.9463 25.2564C31.7486 25.3889 31.5311 25.4495 31.3211 25.5531C31.2946 25.5662 31.185 25.6625 31.1531 25.6501C31.1349 25.6431 31.1718 25.3436 31.1718 25.3012C31.1718 24.7373 31.1603 24.1722 31.1737 23.6085C31.2094 22.1084 31.239 20.6125 31.239 19.1111C31.239 18.7539 31.3235 18.3632 31.2315 18.0137C31.1406 17.6683 30.869 17.2455 30.4963 17.1814C29.3356 16.9819 28.1163 17.0545 26.943 17.0545C26.2768 17.0545 25.621 17.077 24.9742 17.2561C24.5091 17.3849 24.0305 17.4022 23.5578 17.4875C23.11 17.5683 22.6722 17.6944 22.2328 17.8103C21.9277 17.8909 21.623 17.9192 21.3147 17.9783C21.0813 18.023 20.9937 18.0324 20.9937 18.2787V19.4283C20.9937 20.6549 20.9107 21.8829 20.9937 23.1084C21.0304 23.6507 21.0557 24.1936 21.0944 24.7357C21.1068 24.9093 21.1362 25.0922 21.2244 25.245C21.3698 25.3544 21.5102 25.472 21.6487 25.5867C21.7959 25.7085 22.0026 25.8207 22.1022 25.9861C22.1047 25.9902 22.1072 25.9944 22.1096 25.9985C22.1518 26.0198 22.1942 26.0393 22.2365 26.057C22.6087 26.212 22.9082 26.2249 23.3115 26.2249H23.3163C25.0972 26.2249 26.8721 26.2249 28.6525 26.3089C29.2011 26.3348 29.7649 26.3114 30.3096 26.3854C30.4485 26.4043 30.4664 26.5209 30.4664 26.6448C30.4664 28.5897 29.8269 31.5611 27.432 31.7078C26.809 31.7459 26.2042 31.8347 25.5789 31.8347C25.2018 31.8347 24.8257 31.8027 24.4498 31.7749C24.2568 31.7607 24.1149 31.74 23.9478 31.648C23.7457 31.5369 23.589 31.3222 23.4832 31.1218C23.3265 30.8252 23.1655 30.537 23.0577 30.2185C22.8746 29.6782 22.6569 29.1604 22.5239 28.6043C22.3234 27.7655 22.5639 26.7676 22.1096 25.9985C21.7991 25.8423 21.4975 25.594 21.2848 25.3329C21.2621 25.305 21.2421 25.2756 21.2244 25.245C21.1359 25.1784 21.0456 25.1148 20.9526 25.0567C20.6015 24.8373 20.31 24.5606 20.0121 24.2692C19.8147 24.0761 19.646 23.9275 19.5082 23.6832C19.4222 23.5307 19.3657 23.3799 19.2973 23.2204C19.1317 22.834 19.2049 22.3832 19.0958 21.9831C18.9132 21.3138 18.4238 20.7744 18.0862 20.1766C17.854 19.7657 17.6401 19.3265 17.3882 18.9282C17.3239 18.8264 17.1707 18.8684 17.0635 18.8684C16.7572 18.8684 16.4278 18.7971 16.1379 18.7005C15.9695 18.6444 15.9061 18.4999 15.8038 18.3664C15.6865 18.2134 15.5717 18.0723 15.4661 17.9092C15.0502 17.2676 14.7793 16.4541 14.7793 15.6885C14.7793 15.1752 14.8107 14.6412 14.9491 14.1451C15.041 13.816 15.1706 13.5011 15.3056 13.1878C15.3702 13.0378 15.396 12.93 15.5351 12.8388C15.8212 12.6514 16.135 12.5665 16.4589 12.4693C16.9935 12.3089 17.5235 12.2029 18.0768 12.1297C18.7133 12.0454 19.4017 11.9667 20.0121 11.7583C20.305 11.6583 20.588 11.6399 20.8873 11.5754C21.236 11.5003 21.5813 11.4006 21.923 11.2992C22.2403 11.2051 22.539 11.072 22.8487 10.9559C23.2781 10.7948 23.711 10.669 24.1475 10.5304C24.6111 10.3831 25.0942 10.2641 25.5453 10.0825C26.0059 9.89705 26.4222 9.61788 26.8796 9.42185C27.5201 9.14737 28.1479 8.68296 28.6842 8.24056L28.6895 8.23619C28.82 8.12848 29.6733 7.42432 29.7442 7.48103C29.8705 7.5821 30.0204 7.81321 30.095 7.95317C30.2678 8.27712 30.4397 8.60327 30.6045 8.93291C30.824 9.37194 30.9548 9.8578 31.239 10.2616C31.4054 10.4981 31.6398 10.6648 31.81 10.8999C31.9224 11.0551 32.1358 11.1872 32.2822 11.3104C32.4342 11.4384 32.6043 11.554 32.7693 11.665Z" fill="#F4E7D4"/>
<path d="M16.5369 6.66819C15.7307 8.28041 16.0681 10.2799 16.1917 11.9941C17.701 11.9941 19.0336 11.8101 20.5371 11.6924C21.5971 11.6095 22.6141 11.6218 23.641 11.3153C24.3807 11.0945 25.0666 10.6136 25.7006 10.1869C26.4563 9.67826 27.2866 9.29901 28.0386 8.78869C28.5394 8.44889 28.9397 8.0107 29.4194 7.64287C29.6635 7.45576 29.6944 7.37847 29.7791 7.68348C29.8788 8.04216 29.894 8.34668 29.9271 8.71037C30.1105 10.7282 32.3767 11.5839 34.0608 12.1101C34.5182 12.2531 35.4011 12.5473 35.6939 12.0202C35.7667 11.8893 35.8068 11.6632 35.8216 11.5155C35.8794 10.9374 35.8767 10.3123 35.8767 9.73146C35.8767 7.49553 35.4034 5.06908 33.8403 3.37575C33.5037 3.01113 33.2395 2.70746 32.8569 2.39237C32.4674 2.07159 32.0108 1.7992 31.5951 1.51052C31.1924 1.23091 30.3746 1.29293 29.9126 1.24944C29.0728 1.1704 28.2252 1.12381 27.3831 1.07829L27.3116 1.07442C25.8076 0.993004 24.1855 0.905192 22.7243 1.31616C21.3765 1.69523 20.0392 2.62799 18.93 3.45987C18.3609 3.88672 17.8835 4.3022 17.526 4.92769C17.1958 5.50556 16.8341 6.07365 16.5369 6.66819Z" fill="#CEC2BB"/>
</g>
<path fill-rule="evenodd" clip-rule="evenodd" d="M16.6616 47.3025C16.7696 47.1945 16.9161 47.1339 17.0688 47.1339H19.8869L20.4792 44.1726H3.49649C2.79854 44.1718 2.12939 43.8942 1.63586 43.4007C1.14237 42.9072 0.864768 42.2381 0.863962 41.5402V12.7501C0.909308 12.4442 0.815195 11.7033 1.5 11C2.04189 10.4434 2.99766 10.1344 3.49649 10.1177L15.6704 10.1177V9.04839C15.6731 6.71489 16.6013 4.47775 18.2514 2.82771C19.9014 1.17765 22.1386 0.249459 24.4722 0.246774H27.7622C30.0958 0.249459 32.333 1.17765 33.983 2.82771C35.6331 4.47781 36.5613 6.71507 36.564 9.04867V10.1177H48.7382C49.436 10.1186 50.105 10.3962 50.5985 10.8896C51.092 11.3832 51.3696 12.0523 51.3704 12.7503V41.54C51.3696 42.238 51.092 42.9072 50.5985 43.4007C50.105 43.8942 49.4358 44.1718 48.7379 44.1726H31.6696L32.3359 47.1339H35.1656C35.3183 47.1339 35.4647 47.1945 35.5727 47.3025C35.6807 47.4105 35.7414 47.557 35.7414 47.7097V49.6016H38.4559C38.6086 49.6016 38.7551 49.6623 38.8631 49.7703C38.971 49.8782 39.0317 50.0247 39.0317 50.1774C39.0317 50.3301 38.971 50.4766 38.8631 50.5846C38.7551 50.6926 38.6086 50.7532 38.4559 50.7532H12.1333C11.9806 50.7532 11.8341 50.6926 11.7262 50.5846C11.6182 50.4766 11.5575 50.3301 11.5575 50.1774C11.5575 50.0247 11.6182 49.8782 11.7262 49.7703C11.8341 49.6623 11.9806 49.6016 12.1333 49.6016H16.493V47.7097C16.493 47.557 16.5537 47.4105 16.6616 47.3025ZM37.0575 17.2742C37.0571 17.5576 36.9444 17.8296 36.744 18.03C36.5436 18.2304 36.2719 18.3432 35.9885 18.3435H34.9188V12.9145H35.9882C36.2716 12.9149 36.5436 13.0277 36.744 13.2281C36.9444 13.4284 37.0571 13.7005 37.0575 13.9839V17.2742ZM16.822 9.0481C16.8244 7.01999 17.6311 5.07561 19.0652 3.64152C20.4992 2.20742 22.4436 1.40072 24.4717 1.39839L27.7623 1.39839C29.7905 1.40072 31.7351 2.20742 33.1692 3.64152C34.6033 5.07561 35.41 7.01999 35.4123 9.0481V11.7629H34.343C33.8943 11.7629 33.4401 11.5366 33.0183 11.2186C32.5914 10.8968 32.1674 10.4578 31.7739 9.98101C30.9867 9.02723 30.2962 7.89088 29.9231 7.14561C29.8722 7.04363 29.792 6.95877 29.693 6.9023C29.594 6.84582 29.4805 6.82 29.3668 6.82809C29.2531 6.83618 29.1444 6.87783 29.0544 6.94775C28.9645 7.01765 28.8973 7.11265 28.8613 7.22075C28.8033 7.39551 28.5895 7.74315 27.8072 8.24439C27.0201 8.74872 25.6307 9.42577 23.1692 10.247C20.7282 11.0606 18.3375 11.6415 17.8526 11.7563L17.8246 11.7629H16.822V9.0481ZM26.2112 16.7061C26.149 16.6955 26.0854 16.6955 26.0232 16.7061L26.022 16.7063L21.3798 17.4799L18.4672 14.5684V12.7936L18.6544 12.747C19.6148 12.5082 21.5317 12.0061 23.5231 11.3427C26.7222 10.2763 28.3184 9.38873 29.133 8.6922L29.3537 8.50352L29.5043 8.7517C29.7666 9.18379 30.1015 9.69912 30.4893 10.2165C31.577 11.6672 32.6198 12.511 33.5907 12.7993L33.7672 12.8517V14.5684L30.8546 17.4799L26.2112 16.7061ZM33.7672 19.7419C33.7643 21.3118 33.1488 22.819 32.0518 23.9419L31.6285 24.3752V18.3349L33.7672 16.1962V19.7419ZM31.6672 36.4403L31.7834 36.1114C31.9704 35.5819 32.317 35.1235 32.7754 34.7992C33.2338 34.475 33.7815 34.3009 34.343 34.3009C34.9045 34.3009 35.4522 34.475 35.9106 34.7992C36.369 35.1235 36.7156 35.5819 36.9026 36.1114L37.0187 36.4403H35.9882C35.8354 36.4403 35.689 36.501 35.581 36.609C35.473 36.717 35.4123 36.8634 35.4123 37.0161C35.4123 37.1688 35.473 37.3153 35.581 37.4233C35.689 37.5313 35.8354 37.5919 35.9882 37.5919H37.6333C37.786 37.5919 37.9325 37.5313 38.0405 37.4233C38.1484 37.3154 38.2091 37.169 38.2091 37.0164C38.2081 36.1254 37.8998 35.262 37.3363 34.5717C36.7729 33.8815 35.9887 33.4066 35.1159 33.2272L34.9188 33.1867V30.4847L37.7394 31.1493C39.4204 31.5392 40.9199 32.4883 41.9913 33.841C43.0629 35.1939 43.6435 36.8704 43.6382 38.5963V38.9081H8.59622V38.5958C8.59094 36.8701 9.17155 35.1938 10.243 33.841C11.3145 32.4884 12.8133 31.5394 14.4943 31.1494L17.3156 30.4847V32.9019C17.3159 32.9346 17.3189 32.9673 17.3244 32.9995L17.3595 33.2055L17.1622 33.2741C16.6663 33.4465 16.2476 33.7889 15.9802 34.2406C15.7128 34.6923 15.614 35.2241 15.7014 35.7417C15.7888 36.2593 16.0567 36.7292 16.4576 37.0681C16.8585 37.407 17.3665 37.5929 17.8914 37.5929C18.4163 37.5929 18.9243 37.407 19.3252 37.0681C19.7261 36.7292 19.994 36.2593 20.0814 35.7417C20.1687 35.2241 20.07 34.6923 19.8026 34.2406C19.5352 33.7889 19.1164 33.4465 18.6206 33.2741L18.4232 33.2055L18.4584 32.9995C18.4639 32.9673 18.4668 32.9346 18.4672 32.9019V30.4389L18.4671 30.4379C18.4669 30.4336 18.4662 30.4221 18.4662 30.4098V30.2143L21.5 29.5005L21.567 29.7226C22.068 31.3822 23.8958 32.6565 26.1172 32.6565C28.3385 32.6565 30.1664 31.3822 30.6673 29.7226L30.7343 29.5005L33.7682 30.2143V30.4098C33.7682 30.4229 33.7675 30.4342 33.7672 30.438L33.7672 30.439V33.1867L33.5701 33.2272C32.6973 33.4066 31.9131 33.8815 31.3496 34.5717C30.7862 35.262 30.4779 36.1254 30.4769 37.0164C30.4769 37.169 30.5376 37.3154 30.6455 37.4233C30.7535 37.5313 30.9 37.5919 31.0527 37.5919H32.6978C32.8505 37.5919 32.997 37.5313 33.105 37.4233C33.213 37.3153 33.2736 37.1688 33.2736 37.0161C33.2736 36.8634 33.213 36.717 33.105 36.609C32.997 36.501 32.8505 36.4403 32.6978 36.4403H31.6672ZM17.8914 34.3016C18.1029 34.3016 18.3096 34.3643 18.4855 34.4818C18.6613 34.5993 18.7984 34.7663 18.8793 34.9617C18.9603 35.1571 18.9815 35.3722 18.9402 35.5796C18.8989 35.787 18.7971 35.9776 18.6475 36.1271C18.498 36.2767 18.3074 36.3785 18.1 36.4198C17.8926 36.461 17.6776 36.4399 17.4822 36.3589C17.2868 36.278 17.1197 36.1409 17.0022 35.9651C16.8847 35.7892 16.822 35.5825 16.822 35.371C16.8224 35.0876 16.9352 34.8155 17.1356 34.6152C17.336 34.4148 17.608 34.302 17.8914 34.3016ZM29.6543 28.7903C29.6543 29.5659 29.2329 30.25 28.5906 30.7317C27.9482 31.2135 27.0725 31.5048 26.1172 31.5048C25.1619 31.5048 24.2862 31.2135 23.6438 30.7317C23.0015 30.25 22.5801 29.5659 22.5801 28.7903V26.8984H29.6543V28.7903ZM20.6059 24.3752L20.1826 23.9419C19.0856 22.819 18.4701 21.3123 18.4672 19.7424V16.1962L20.6059 18.3349V24.3752ZM16.2462 18.3435C15.9628 18.3432 15.6908 18.2304 15.4904 18.03C15.29 17.8296 15.1773 17.5579 15.1769 17.2745L15.1769 13.9839C15.1773 13.7005 15.29 13.4284 15.4904 13.2281C15.6908 13.0277 15.9628 12.9149 16.2462 12.9145L17.3156 12.9145V18.3435H16.2462ZM2.01557 12.7498C2.0159 12.3573 2.17198 11.9809 2.44955 11.7033C2.72711 11.4258 3.10348 11.2697 3.49601 11.2694L15.6704 11.2694V11.8324L15.5061 11.8906C15.0734 12.044 14.6987 12.3276 14.4336 12.7025C14.1684 13.0773 14.0258 13.525 14.0253 13.9842V17.2739C14.026 17.8627 14.2603 18.4273 14.6767 18.8437C15.0931 19.2601 15.6577 19.4944 16.2465 19.4952H17.3151L17.3156 19.7415C17.3177 20.9182 17.609 22.0763 18.1636 23.1141C18.7183 24.1518 19.5195 25.0374 20.4966 25.693L20.6059 25.7663V26.3226C20.6059 26.4753 20.6666 26.6218 20.7745 26.7297C20.8825 26.8377 21.029 26.8984 21.1817 26.8984H21.4285V28.3339L14.2309 30.0279C12.297 30.4766 10.5718 31.5685 9.33918 33.1247C8.10652 34.681 7.43856 36.6095 7.44461 38.5947L7.44461 38.9081H2.01557V12.7498ZM50.2188 41.5405C50.2185 41.9331 50.0624 42.3094 49.7848 42.587C49.5073 42.8646 49.1309 43.0206 48.7384 43.021H3.49622C3.10368 43.0206 2.72711 42.8646 2.44955 42.587C2.17198 42.3094 2.0159 41.9331 2.01557 41.5405L2.01557 40.0597H50.2188V41.5405ZM44.7898 38.5955C44.7958 36.6102 44.1279 34.681 42.8952 33.1247C41.6625 31.5685 39.9382 30.4767 38.0043 30.0281L30.8059 28.3339V26.8984H31.0527C31.2054 26.8984 31.3518 26.8377 31.4598 26.7297C31.5678 26.6218 31.6285 26.4753 31.6285 26.3226V25.7663L31.7378 25.693C32.7149 25.0374 33.5161 24.1518 34.0707 23.1141C34.6254 22.0763 34.9166 20.9182 34.9188 19.7415L34.9193 19.4952H35.9878C36.5767 19.4944 37.1413 19.2601 37.5577 18.8437C37.9741 18.4273 38.2083 17.8627 38.2091 17.2739V13.9842C38.2086 13.525 38.0659 13.0773 37.8008 12.7025C37.5356 12.3277 37.161 12.044 36.7283 11.8906L36.564 11.8324V11.2694H48.7382C49.1307 11.2697 49.5073 11.4258 49.7848 11.7033C50.0624 11.9809 50.2185 12.3573 50.2188 12.7498V38.9081H44.7898V38.5955ZM21.7575 25.7468V18.5849L26.1172 17.8579L30.4769 18.5849V25.7468H21.7575ZM34.5898 48.2855V49.6016H17.6446V48.2855H34.5898ZM21.0617 47.1339L21.6539 44.1726H30.4892L31.1555 47.1339H21.0617Z" fill="#414550"/>
<path d="M30.8059 13.9839C30.8059 14.3019 30.5481 14.5597 30.2301 14.5597C29.9121 14.5597 29.6543 14.3019 29.6543 13.9839C29.6543 13.6659 29.9121 13.4081 30.2301 13.4081C30.5481 13.4081 30.8059 13.6659 30.8059 13.9839Z" fill="#414550"/>
<path d="M22.5801 13.9839C22.5801 14.3019 22.3223 14.5597 22.0043 14.5597C21.6863 14.5597 21.4285 14.3019 21.4285 13.9839C21.4285 13.6659 21.6863 13.4081 22.0043 13.4081C22.3223 13.4081 22.5801 13.6659 22.5801 13.9839Z" fill="#414550"/>
</svg>
