<svg width="49" height="51" viewBox="0 0 49 51" fill="none" xmlns="http://www.w3.org/2000/svg">
<g opacity="0.7">
<path d="M29.1594 11.4272C28.6604 12.0149 27.772 12.7665 27.211 13.2939C27.9773 13.4217 28.7308 13.6213 29.4985 13.7433C30.5135 13.9045 31.5694 14.005 32.5988 14.0292C33.0897 14.0408 33.5816 14.0822 34.0693 14.1375C34.2071 14.1531 34.3104 14.2477 34.4165 14.3315C34.8982 14.7117 35.1843 15.2832 35.5766 15.7428C35.9726 16.2066 36.3665 16.6531 36.8327 17.0499C37.2696 17.4217 37.6939 17.8014 38.15 18.1507C38.6605 18.5417 39.1663 18.9164 39.6164 19.3782C40.3039 20.0835 40.8454 20.9125 41.5322 21.6208C42.2315 22.3419 43.0356 22.9725 43.7747 23.6529C44.2772 24.1154 44.7849 24.5711 45.2984 25.0213C45.0373 25.3943 44.2569 25.9644 43.9565 26.306C43.2997 27.053 42.6744 27.8519 41.9325 28.5179C41.6987 28.7278 41.5079 28.9319 41.3157 29.1796C41.2113 29.3142 41.0993 29.1141 41.0359 29.0326C40.8974 28.8545 40.7188 28.7501 40.5641 28.5955C39.4991 27.5305 38.4697 26.4313 37.4066 25.3644C36.8515 24.8074 36.303 24.2851 35.6706 23.8163C35.2349 23.4934 34.8107 23.1561 34.4145 22.7849C33.9306 22.3315 33.4068 21.7351 33.1503 21.1122C33.1434 21.0956 33.1299 21.0019 33.1299 21.0509C33.1299 21.3599 33.0931 21.6657 33.0931 21.9741C33.0931 22.928 32.8855 23.8797 32.8276 24.8334C32.7514 26.0874 32.7589 27.3473 32.7336 28.6037C32.7161 29.4724 32.6749 30.3666 32.7275 31.2343C32.7418 31.4697 32.8382 31.7316 32.8929 31.9613C33.0293 32.534 33.2104 33.1056 33.3954 33.6647C33.5962 34.2718 33.7364 34.8964 33.9509 35.4988L33.963 35.5328C34.1885 36.166 34.4163 36.8057 34.7474 37.392C35.2475 38.2776 35.7196 39.205 36.1485 40.1268C36.6365 41.1756 37.1904 42.1909 37.6497 43.2537C38.1321 44.3702 38.4845 45.5247 38.7954 46.6992C39.0449 47.6415 39.4226 48.6906 39.4 49.6852C39.3979 49.7757 39.1544 49.7016 39.114 49.6974C38.5283 49.6366 37.9174 49.71 37.3331 49.7444C36.0993 49.817 34.8733 49.9675 33.6384 50.0365C33.072 50.0681 32.4904 50.12 31.9228 50.0916C31.8801 50.0895 31.7753 50.0906 31.741 50.0487C31.6934 49.9905 31.6867 49.8135 31.6593 49.7383C31.5208 49.3572 31.4546 48.9293 31.3489 48.5353C31.2273 48.0822 31.0585 47.6592 30.8996 47.218C30.6351 46.484 30.4486 45.7271 30.1521 45.004C29.5559 43.5503 29.1224 42.0495 28.5855 40.5761C28.1525 39.3875 27.6712 38.2148 27.1947 37.0428C26.5396 35.4317 25.7237 33.8905 25.0686 32.28C24.9838 32.0716 24.9261 31.8628 24.8766 31.6448C24.8567 31.5575 24.8595 31.6182 24.8337 31.6632C24.5972 32.0749 24.4 32.509 24.2128 32.9458C23.9232 33.6216 23.7483 34.3237 23.4408 34.9922C22.8018 36.3813 22.1799 37.7823 21.6966 39.2322C21.3889 40.1553 21.2197 41.1088 20.947 42.0426C20.6451 43.0765 20.2205 44.091 19.8176 45.0898C19.3799 46.1749 19.0538 47.298 18.6493 48.3944C18.5194 48.7465 18.336 49.0735 18.0918 49.3584C17.9351 49.5412 17.7114 49.6041 17.5505 49.7709C17.4475 49.8778 17.3764 50.1562 17.2483 50.2203C17.1011 50.2939 16.8566 50.2788 16.7009 50.2775C16.3954 50.2749 16.0955 50.2775 15.792 50.2775C14.9837 50.2775 14.1632 50.2386 13.3596 50.159C12.7025 50.0939 12.0496 50.0124 11.4009 49.8935C11.3542 49.8849 10.8313 49.8666 10.8168 49.8159C10.746 49.5682 11.0318 49.1652 11.1374 48.954C11.368 48.4928 11.6854 48.0873 11.9136 47.6183C12.0048 47.4308 12.0163 47.2075 12.0647 47.0056C12.1287 46.7383 12.2056 46.4708 12.2567 46.2009C12.4048 45.419 12.6378 44.6563 12.8714 43.897C12.9644 43.5948 12.9984 43.2748 13.0859 42.9698C13.335 42.101 13.5173 41.2743 13.8293 40.425C13.9243 40.2825 13.9621 40.0943 14.0131 39.9287C14.0998 39.6469 14.2085 39.3829 14.2888 39.0974C14.4784 38.4233 14.4418 37.6565 14.1949 36.9979C14.0273 36.5509 14.3237 35.9966 14.5327 35.6059L14.5441 35.5845C14.8576 34.998 15.2261 34.4393 15.5347 33.8485C16.087 32.7909 16.5883 31.701 17.0399 30.597C17.2091 30.1833 17.2482 29.6393 17.2482 29.1347C17.2482 27.4627 17.2549 25.7906 17.2482 24.1186C17.2439 23.0355 17.1571 21.9542 17.1379 20.8712C17.1349 20.7016 17.1118 20.6925 16.9868 20.7813C16.7524 20.9478 16.5158 21.1109 16.2801 21.2756C15.8842 21.5523 15.463 21.7775 15.0976 22.0987C14.4593 22.6596 13.9029 23.3014 13.2513 23.8531C12.748 24.2792 12.2166 24.698 11.742 25.1561C11.3813 25.5042 11.1189 25.9484 10.8045 26.3366C10.3322 26.9197 9.83395 27.4873 9.23596 27.946C8.96166 28.1564 8.66704 28.3417 8.3802 28.5342C8.27041 28.6079 8.15287 28.7026 8.02482 28.7466C7.8397 28.8103 7.87327 28.6686 7.83488 28.5342C7.82332 28.4938 7.71379 28.4388 7.6817 28.4178C7.49893 28.2983 7.35647 28.1691 7.20378 28.0134C6.76334 27.5642 6.27252 27.297 5.64953 27.1944C5.4666 27.1643 5.19478 27.2116 5.0266 27.1352C4.85857 27.0588 4.77859 26.798 4.71207 26.6491C4.51296 26.2033 4.41797 25.9034 4.41797 25.4298V25.0356C4.41797 24.8666 4.73588 24.6317 4.8387 24.5107C4.98947 24.3333 5.09159 24.1415 5.23288 23.9531C5.58445 23.4844 6.00602 23.1087 6.38683 22.6664C6.67826 22.328 6.99584 22.0155 7.28548 21.6759C7.692 21.1993 8.16411 20.8051 8.58852 20.3524C9.08289 19.8251 9.64559 19.3242 10.2592 18.9391C10.6364 18.7023 11.025 18.4828 11.4111 18.261C11.5357 18.1894 11.6567 18.1471 11.6603 17.9914C11.6653 17.7697 11.6715 17.7327 11.791 17.5462C12.1102 17.0479 12.7809 16.6821 13.2738 16.3902C13.8994 16.0197 14.5602 15.754 15.165 15.3404C15.7518 14.9392 16.3593 14.5484 16.9991 14.2375C17.592 13.9494 18.22 13.7138 18.8699 13.6085C19.3197 13.5355 19.7127 13.328 20.1729 13.2858C20.6649 13.2406 21.1635 13.2686 21.6537 13.2C21.8793 13.1684 21.7897 13.0884 21.7108 12.9345C21.5866 12.6918 21.4574 12.4566 21.2962 12.236C21.0406 11.8861 20.6661 11.6385 20.3608 11.3332C19.826 10.7984 19.3594 10.1333 18.9883 9.47672C18.7794 9.107 18.5915 8.7028 18.537 8.27579C18.4809 7.83671 18.483 7.3941 18.443 6.95437C18.3812 6.27459 18.3674 5.48686 18.5819 4.83437C18.8063 4.15191 19.0994 3.61061 19.6909 3.18413C20.2275 2.79729 20.7204 2.42509 21.3739 2.26505C22.0482 2.09991 22.7677 2.118 23.4571 2.118C23.9021 2.118 24.3451 2.10963 24.7887 2.1466C25.1673 2.17814 25.5498 2.19859 25.9202 2.28548C26.3237 2.38013 26.6973 2.58076 27.0721 2.75114C27.4799 2.93651 27.894 3.07367 28.2363 3.37203C28.5528 3.64796 28.8848 3.9018 29.1962 4.1849C29.6101 4.56118 29.8693 5.01698 30.201 5.45934C30.4336 5.76948 30.6188 6.08731 30.6585 6.48054C30.7375 7.26152 30.7691 8.08494 30.5728 8.8497C30.5027 9.12237 30.3556 9.37214 30.2623 9.63807C30.1626 9.92223 30.0421 10.1981 29.8783 10.4468C29.7548 10.6345 29.6683 10.845 29.5352 11.0269C29.4271 11.1748 29.2777 11.2878 29.1594 11.4272Z" fill="#F4E7D4"/>
<path d="M28.2566 23.2899C27.3504 24.4032 25.9363 25.1687 24.775 25.9978C24.6303 25.7085 24.3976 25.5062 24.1428 25.3185C23.6765 24.9749 23.2254 24.5881 22.7817 24.2145C22.5103 23.986 22.2912 23.7095 22.0316 23.4691C21.8168 23.2702 21.5627 23.1252 21.3546 22.9172C21.0243 22.5869 20.729 22.1046 20.5196 21.6906C20.1466 20.9531 20.0599 19.8838 20.9984 19.61C21.2483 19.5372 21.6501 19.627 21.9042 19.6501C22.3895 19.6943 22.876 19.7497 23.3549 19.8412C23.6655 19.9005 24.0507 19.9001 24.289 20.1384C24.3728 20.2222 24.4176 20.4889 24.5532 20.4121C24.7141 20.3209 24.8842 20.2493 25.0462 20.162C25.5088 19.9129 25.9081 19.5494 26.4026 19.3576C27.1683 19.0607 28.432 19.2597 28.9973 19.912C29.6635 20.6806 29.3776 21.5434 28.9761 22.3463C28.8065 22.6855 28.4962 22.9955 28.2566 23.2899Z" fill="#E99AA4"/>
<path fill-rule="evenodd" clip-rule="evenodd" d="M18.3985 12.875C16.4591 12.875 14.6376 13.6295 13.267 15.0009L3.54195 24.7256C3.43242 24.8351 3.37085 24.9837 3.37085 25.1384C3.37085 25.2932 3.43242 25.4418 3.54195 25.5513L7.71318 29.7225C7.94131 29.9507 8.31078 29.9507 8.53891 29.7225L16.7188 21.5427V30.8795L10.0774 49.9739C10.0152 50.1524 10.0431 50.3501 10.1525 50.5043C10.263 50.6586 10.4405 50.7498 10.6288 50.7498H18.137C18.3857 50.7498 18.6069 50.5924 18.6884 50.3578L24.8436 32.663L31.7749 50.3783L40.3098 50.4952C40.4188 50.3355 40.4417 50.1327 40.3715 49.9529L32.9031 30.8681V21.5427L41.083 29.7225C41.3111 29.9507 41.6806 29.9507 41.9087 29.7225L46.08 25.5513C46.1895 25.4418 46.2511 25.2932 46.2511 25.1384C46.2511 24.9837 46.1895 24.8351 46.08 24.7256L36.355 15.001C34.9844 13.6296 33.1628 12.875 31.2234 12.875H28.5474L29.0452 12.4369C30.3849 11.2578 31.2346 9.53743 31.2346 7.61928C31.2346 4.07753 28.3527 1.19559 24.811 1.19559C21.2692 1.19559 18.3873 4.07753 18.3873 7.61928C18.3873 9.53743 19.237 11.2578 20.5767 12.4369L21.0745 12.875H18.3985ZM32.732 19.7201C32.5653 19.5534 32.3144 19.5036 32.0951 19.5937C31.8771 19.6841 31.7352 19.8969 31.7352 20.133V30.9781C31.7352 31.0505 31.7488 31.1228 31.7752 31.1914L38.972 49.5818H32.7178L25.3551 30.7656C25.2673 30.5414 25.051 30.3942 24.811 30.3942H24.7977C24.5546 30.3999 24.3397 30.5559 24.2595 30.7863L17.7218 49.5818H11.4499L17.8542 31.1701C17.8757 31.1086 17.8867 31.0437 17.8867 30.9781V20.133C17.8867 19.8968 17.7448 19.684 17.5267 19.5936C17.3077 19.5033 17.0568 19.5532 16.8899 19.7201L8.12604 28.4839L4.78055 25.1384L14.0927 15.8267C15.2427 14.6767 16.772 14.043 18.3985 14.043H31.2234C32.8499 14.043 34.3792 14.6767 35.5292 15.8267L44.8414 25.1384L41.4959 28.4839L32.732 19.7201ZM24.811 2.36353C27.7094 2.36353 30.0667 4.72088 30.0667 7.61928C30.0667 10.5177 27.7094 12.875 24.811 12.875C21.9126 12.875 19.5552 10.5177 19.5552 7.61928C19.5552 4.72088 21.9126 2.36353 24.811 2.36353Z" fill="#353535"/>
<path fill-rule="evenodd" clip-rule="evenodd" d="M28.7913 19.4377C27.7821 18.4813 26.1336 18.4798 25.1248 19.4373L24.811 19.7345L24.4973 19.4379C23.4899 18.4811 21.8405 18.4799 20.8316 19.4376C20.3297 19.9131 20.0558 20.5454 20.0558 21.2194C20.0558 21.8935 20.3295 22.5257 20.8307 23.0013L24.4087 26.3964C24.5218 26.5035 24.6657 26.5567 24.811 26.5567C24.9562 26.5567 25.1001 26.5035 25.2132 26.3964L28.7903 23.0013C29.2922 22.5258 29.5662 21.8935 29.5662 21.2194C29.5662 20.5454 29.2924 19.9133 28.7913 19.4377ZM24.4089 20.9638L25.2132 20.9636L25.9284 20.2847C26.4977 19.7448 27.4176 19.7463 27.9879 20.2853C28.2491 20.5335 28.3982 20.8652 28.3982 21.2194C28.3982 21.5738 28.2491 21.9056 27.9868 22.1539L24.811 25.1678L21.6339 22.1536C21.3728 21.9054 21.2237 21.5737 21.2237 21.2194C21.2237 20.8653 21.3727 20.5335 21.6348 20.2852C21.9209 20.0134 22.2945 19.8799 22.6642 19.8799C23.034 19.8799 23.4075 20.0135 23.6936 20.2847L24.4089 20.9638Z" fill="#353535"/>
<path d="M7.89272 9.03721C8.17953 8.75092 8.4766 8.46883 8.78042 8.19471L9.55382 9.0702C9.27093 9.32575 8.994 9.58861 8.72656 9.85509L7.89272 9.03721Z" fill="#353535"/>
<path d="M11.4998 6.07554L12.1396 7.05298C11.8258 7.26308 11.5141 7.48356 11.2088 7.71143L10.5006 6.78256C10.8288 6.53789 11.1633 6.30096 11.4998 6.07554Z" fill="#353535"/>
<path d="M14.4942 4.36818L14.987 5.42738C14.6443 5.59136 14.3042 5.76459 13.9714 5.94489L13.4033 4.92452C13.7606 4.73038 14.1259 4.54407 14.4942 4.36818Z" fill="#353535"/>
<path d="M5.63357 11.6403C5.87746 11.3144 6.13159 10.9925 6.39248 10.6793L7.28219 11.4361C7.03946 11.7279 6.80298 12.0273 6.57574 12.3304L5.63357 11.6403Z" fill="#353535"/>
<path d="M3.77127 14.5402C3.96563 14.1833 4.17108 13.8286 4.38387 13.4809L5.37395 14.1014C5.17563 14.4254 4.98426 14.7559 4.80256 15.0883L3.77127 14.5402Z" fill="#353535"/>
<path d="M2.345 17.679C2.48452 17.3008 2.63655 16.92 2.79851 16.542L3.86711 17.0133C3.71625 17.3652 3.57486 17.7195 3.44456 18.0714L2.345 17.679Z" fill="#353535"/>
<path d="M1.67176 19.7998L2.79742 20.1117C2.70044 20.4767 2.61199 20.848 2.53258 21.2209L1.38742 20.99C1.47271 20.5896 1.56788 20.191 1.67176 19.7998Z" fill="#353535"/>
<path d="M1.02841 23.1858L2.18705 23.3329C2.14363 23.7077 2.10936 24.088 2.08421 24.4684L0.91853 24.4045C0.945086 23.9962 0.982 23.588 1.02841 23.1858Z" fill="#353535"/>
<path d="M2.04484 26.6089C2.05529 26.9902 2.0752 27.3717 2.10431 27.7482L0.940982 27.8508C0.909724 27.4472 0.888519 27.038 0.877098 26.6288L2.04484 26.6089Z" fill="#353535"/>
<path d="M1.45496 31.2612C1.36462 30.862 1.28434 30.4594 1.21553 30.059L2.36868 29.8737C2.43286 30.2462 2.50744 30.6206 2.59102 30.992L1.45496 31.2612Z" fill="#353535"/>
<path d="M3.16035 33.0563C3.27824 33.4168 3.40632 33.7766 3.5424 34.131L2.4565 34.5616C2.31028 34.1811 2.1729 33.7945 2.04611 33.4076L3.16035 33.0563Z" fill="#353535"/>
<path d="M3.92561 37.682C3.72678 37.3284 3.53516 36.966 3.3528 36.5998L4.40441 36.0905C4.57413 36.4317 4.75252 36.7693 4.93741 37.0991L3.92561 37.682Z" fill="#353535"/>
<path d="M5.10413 39.5687L6.07142 38.9146C6.2884 39.2278 6.51344 39.5359 6.74356 39.8349L5.82647 40.5581C5.57881 40.2368 5.33677 39.9054 5.10413 39.5687Z" fill="#353535"/>
<path d="M7.26351 42.2557L8.12807 41.4704C8.38375 41.7454 8.65052 42.0186 8.92509 42.2864L8.11866 43.131C7.82403 42.8441 7.53782 42.551 7.26351 42.2557Z" fill="#353535"/>
<path d="M42.3454 42.2701C42.0672 42.5688 41.7806 42.8617 41.4891 43.1448L40.6839 42.2985C40.9559 42.0343 41.2231 41.7613 41.482 41.4832L42.3454 42.2701Z" fill="#353535"/>
<path d="M43.539 38.9301L44.5063 39.5849C44.2757 39.9182 44.0335 40.2492 43.7833 40.5733L42.8662 39.8501C43.0987 39.5484 43.3239 39.2404 43.539 38.9301Z" fill="#353535"/>
<path d="M44.6748 37.1164C44.8614 36.7843 45.0402 36.4471 45.209 36.1092L46.2596 36.6185C46.0793 36.9813 45.8873 37.3434 45.6866 37.6999L44.6748 37.1164Z" fill="#353535"/>
<path d="M46.4537 33.0792L47.567 33.4311C47.4398 33.8198 47.3021 34.2059 47.1562 34.5841L46.0716 34.1513C46.2072 33.7996 46.3349 33.4406 46.4537 33.0792Z" fill="#353535"/>
<path d="M47.0252 31.017C47.1083 30.6475 47.1829 30.2736 47.2478 29.9001L48.4011 30.0878C48.3315 30.4886 48.2512 30.8902 48.1613 31.2867L47.0252 31.017Z" fill="#353535"/>
<path d="M47.5154 27.7759C47.5451 27.3984 47.5655 27.0176 47.5761 26.6386L48.7442 26.6585C48.7329 27.0656 48.7108 27.4746 48.6788 27.8802L47.5154 27.7759Z" fill="#353535"/>
<path d="M48.5966 23.216C48.6427 23.6182 48.6788 24.0265 48.7051 24.4351L47.5384 24.4972C47.5142 24.1167 47.4806 23.7364 47.4378 23.3614L48.5966 23.216Z" fill="#353535"/>
<path d="M48.2409 21.0202L47.0957 21.2483C47.017 20.8759 46.9288 20.505 46.8323 20.1403L47.9581 19.8283C48.062 20.2207 48.157 20.6199 48.2409 21.0202Z" fill="#353535"/>
<path d="M47.2873 17.7071L46.1868 18.0995C46.0558 17.7437 45.9145 17.3891 45.7653 17.0405L46.8341 16.5689C46.9946 16.9436 47.1462 17.3248 47.2873 17.7071Z" fill="#353535"/>
<path d="M45.2535 13.506C45.4655 13.8527 45.6701 14.2079 45.8652 14.5667L44.8331 15.1136C44.6516 14.7797 44.4608 14.449 44.2634 14.126L45.2535 13.506Z" fill="#353535"/>
<path d="M43.2484 10.7029C43.5079 11.0155 43.7615 11.3375 44.0061 11.6645L43.0629 12.354C42.8353 12.0495 42.5989 11.7495 42.3575 11.458L43.2484 10.7029Z" fill="#353535"/>
<path d="M40.0892 9.08939L40.8626 8.21397C41.1628 8.48519 41.46 8.76779 41.7497 9.05769L40.9159 9.87501C40.6454 9.60513 40.3686 9.34198 40.0892 9.08939Z" fill="#353535"/>
<path d="M37.5067 7.06873L38.1477 6.09245C38.4871 6.3207 38.8215 6.55796 39.1458 6.80091L38.4363 7.72827C38.1339 7.50225 37.8227 7.28131 37.5067 7.06873Z" fill="#353535"/>
<path d="M34.661 5.4396L35.1549 4.38108C35.5216 4.55696 35.8868 4.74387 36.2454 4.93922L35.6763 5.95889C35.3422 5.77721 35.0022 5.60338 34.661 5.4396Z" fill="#353535"/>
<path d="M39.8274 50.7498C40.0201 50.7498 40.2009 50.6545 40.3098 50.4952L31.7749 50.3783C31.8629 50.6023 32.0786 50.7498 32.3192 50.7498H39.8274Z" fill="#353535"/>
<path d="M29.1594 11.4272C28.6604 12.0149 27.772 12.7665 27.211 13.2939C27.9773 13.4217 28.7308 13.6213 29.4985 13.7433C30.5135 13.9045 31.5694 14.005 32.5988 14.0292C33.0897 14.0408 33.5816 14.0822 34.0693 14.1375C34.2071 14.1531 34.3104 14.2477 34.4165 14.3315C34.8982 14.7117 35.1843 15.2832 35.5766 15.7428C35.9726 16.2066 36.3665 16.6531 36.8327 17.0499C37.2696 17.4217 37.6939 17.8014 38.15 18.1507C38.6605 18.5417 39.1663 18.9164 39.6164 19.3782C40.3039 20.0835 40.8454 20.9125 41.5322 21.6208C42.2315 22.3419 43.0356 22.9725 43.7747 23.6529C44.2772 24.1154 44.7849 24.5711 45.2984 25.0213C45.0373 25.3943 44.2569 25.9644 43.9565 26.306C43.2997 27.053 42.6744 27.8519 41.9325 28.5179C41.6987 28.7278 41.5079 28.9319 41.3157 29.1796C41.2113 29.3142 41.0993 29.1141 41.0359 29.0326C40.8974 28.8545 40.7188 28.7501 40.5641 28.5955C39.4991 27.5305 38.4697 26.4313 37.4066 25.3644C36.8515 24.8074 36.303 24.2851 35.6706 23.8163C35.2349 23.4934 34.8107 23.1561 34.4145 22.7849C33.9306 22.3315 33.4068 21.7351 33.1503 21.1122C33.1434 21.0956 33.1299 21.0019 33.1299 21.0509C33.1299 21.3599 33.0931 21.6657 33.0931 21.9741C33.0931 22.928 32.8855 23.8797 32.8276 24.8334C32.7514 26.0874 32.7589 27.3473 32.7336 28.6037C32.7161 29.4724 32.6749 30.3666 32.7275 31.2343C32.7418 31.4697 32.8382 31.7316 32.8929 31.9613C33.0293 32.534 33.2104 33.1056 33.3954 33.6647C33.5962 34.2718 33.7364 34.8964 33.9509 35.4988L33.963 35.5328C34.1885 36.166 34.4163 36.8057 34.7474 37.392C35.2475 38.2776 35.7196 39.205 36.1485 40.1268C36.6365 41.1756 37.1904 42.1909 37.6497 43.2537C38.1321 44.3702 38.4845 45.5247 38.7954 46.6992C39.0449 47.6415 39.4226 48.6906 39.4 49.6852C39.3979 49.7757 39.1544 49.7016 39.114 49.6974C38.5283 49.6366 37.9174 49.71 37.3331 49.7444C36.0993 49.817 34.8733 49.9675 33.6384 50.0365C33.072 50.0681 32.4904 50.12 31.9228 50.0916C31.8801 50.0895 31.7753 50.0906 31.741 50.0487C31.6934 49.9905 31.6867 49.8135 31.6593 49.7383C31.5208 49.3572 31.4546 48.9293 31.3489 48.5353C31.2273 48.0822 31.0585 47.6592 30.8996 47.218C30.6351 46.484 30.4486 45.7271 30.1521 45.004C29.5559 43.5503 29.1224 42.0495 28.5855 40.5761C28.1525 39.3875 27.6712 38.2148 27.1947 37.0428C26.5396 35.4317 25.7237 33.8905 25.0686 32.28C24.9838 32.0716 24.9261 31.8628 24.8766 31.6448C24.8567 31.5575 24.8595 31.6182 24.8337 31.6632C24.5972 32.0749 24.4 32.509 24.2128 32.9458C23.9232 33.6216 23.7483 34.3237 23.4408 34.9922C22.8018 36.3813 22.1799 37.7823 21.6966 39.2322C21.3889 40.1553 21.2197 41.1088 20.947 42.0426C20.6451 43.0765 20.2205 44.091 19.8176 45.0898C19.3799 46.1749 19.0538 47.298 18.6493 48.3944C18.5194 48.7465 18.336 49.0735 18.0918 49.3584C17.9351 49.5412 17.7114 49.6041 17.5505 49.7709C17.4475 49.8778 17.3764 50.1562 17.2483 50.2203C17.1011 50.2939 16.8566 50.2788 16.7009 50.2775C16.3954 50.2749 16.0955 50.2775 15.792 50.2775C14.9837 50.2775 14.1632 50.2386 13.3596 50.159C12.7025 50.0939 12.0496 50.0124 11.4009 49.8935C11.3542 49.8849 10.8313 49.8666 10.8168 49.8159C10.746 49.5682 11.0318 49.1652 11.1374 48.954C11.368 48.4928 11.6854 48.0873 11.9136 47.6183C12.0048 47.4308 12.0163 47.2075 12.0647 47.0056C12.1287 46.7383 12.2056 46.4708 12.2567 46.2009C12.4048 45.419 12.6378 44.6563 12.8714 43.897C12.9644 43.5948 12.9984 43.2748 13.0859 42.9698C13.335 42.101 13.5173 41.2743 13.8293 40.425C13.9243 40.2825 13.9621 40.0943 14.0131 39.9287C14.0998 39.6469 14.2085 39.3829 14.2888 39.0974C14.4784 38.4233 14.4418 37.6565 14.1949 36.9979C14.0273 36.5509 14.3237 35.9966 14.5327 35.6059L14.5441 35.5845C14.8576 34.998 15.2261 34.4393 15.5347 33.8485C16.087 32.7909 16.5883 31.701 17.0399 30.597C17.2091 30.1833 17.2482 29.6393 17.2482 29.1347C17.2482 27.4627 17.2549 25.7906 17.2482 24.1186C17.2439 23.0355 17.1571 21.9542 17.1379 20.8712C17.1349 20.7016 17.1118 20.6925 16.9868 20.7813C16.7524 20.9478 16.5158 21.1109 16.2801 21.2756C15.8842 21.5523 15.463 21.7775 15.0976 22.0987C14.4593 22.6596 13.9029 23.3014 13.2513 23.8531C12.748 24.2792 12.2166 24.698 11.742 25.1561C11.3813 25.5042 11.1189 25.9484 10.8045 26.3366C10.3322 26.9197 9.83395 27.4873 9.23596 27.946C8.96166 28.1564 8.66704 28.3417 8.3802 28.5342C8.27041 28.6079 8.15287 28.7026 8.02482 28.7466C7.8397 28.8103 7.87327 28.6686 7.83488 28.5342C7.82332 28.4938 7.71379 28.4388 7.6817 28.4178C7.49893 28.2983 7.35647 28.1691 7.20378 28.0134C6.76334 27.5642 6.27252 27.297 5.64953 27.1944C5.4666 27.1643 5.19478 27.2116 5.0266 27.1352C4.85857 27.0588 4.77859 26.798 4.71207 26.6491C4.51296 26.2033 4.41797 25.9034 4.41797 25.4298V25.0356C4.41797 24.8666 4.73588 24.6317 4.8387 24.5107C4.98947 24.3333 5.09159 24.1415 5.23288 23.9531C5.58445 23.4844 6.00602 23.1087 6.38683 22.6664C6.67826 22.328 6.99584 22.0155 7.28548 21.6759C7.692 21.1993 8.16411 20.8051 8.58852 20.3524C9.08289 19.8251 9.64559 19.3242 10.2592 18.9391C10.6364 18.7023 11.025 18.4828 11.4111 18.261C11.5357 18.1894 11.6567 18.1471 11.6603 17.9914C11.6653 17.7697 11.6715 17.7327 11.791 17.5462C12.1102 17.0479 12.7809 16.6821 13.2738 16.3902C13.8994 16.0197 14.5602 15.754 15.165 15.3404C15.7518 14.9392 16.3593 14.5484 16.9991 14.2375C17.592 13.9494 18.22 13.7138 18.8699 13.6085C19.3197 13.5355 19.7127 13.328 20.1729 13.2858C20.6649 13.2406 21.1635 13.2686 21.6537 13.2C21.8793 13.1684 21.7897 13.0884 21.7108 12.9345C21.5866 12.6918 21.4574 12.4566 21.2962 12.236C21.0406 11.8861 20.6661 11.6385 20.3608 11.3332C19.826 10.7984 19.3594 10.1333 18.9883 9.47672C18.7794 9.107 18.5915 8.7028 18.537 8.27579C18.4809 7.83671 18.483 7.3941 18.443 6.95437C18.3812 6.27459 18.3674 5.48686 18.5819 4.83437C18.8063 4.15191 19.0994 3.61061 19.6909 3.18413C20.2275 2.79729 20.7204 2.42509 21.3739 2.26505C22.0482 2.09991 22.7677 2.118 23.4571 2.118C23.9021 2.118 24.3451 2.10963 24.7887 2.1466C25.1673 2.17814 25.5498 2.19859 25.9202 2.28548C26.3237 2.38013 26.6973 2.58076 27.0721 2.75114C27.4799 2.93651 27.894 3.07367 28.2363 3.37203C28.5528 3.64796 28.8848 3.9018 29.1962 4.1849C29.6101 4.56118 29.8693 5.01698 30.201 5.45934C30.4336 5.76948 30.6188 6.08731 30.6585 6.48054C30.7375 7.26152 30.7691 8.08494 30.5728 8.8497C30.5027 9.12237 30.3556 9.37214 30.2623 9.63807C30.1626 9.92223 30.0421 10.1981 29.8783 10.4468C29.7548 10.6345 29.6683 10.845 29.5352 11.0269C29.4271 11.1748 29.2777 11.2878 29.1594 11.4272Z" fill="#F4E7D4"/>
<path d="M28.2566 23.2899C27.3504 24.4032 25.9363 25.1687 24.775 25.9978C24.6303 25.7085 24.3976 25.5062 24.1428 25.3185C23.6765 24.9749 23.2254 24.5881 22.7817 24.2145C22.5103 23.986 22.2912 23.7095 22.0316 23.4691C21.8168 23.2702 21.5627 23.1252 21.3546 22.9172C21.0243 22.5869 20.729 22.1046 20.5196 21.6906C20.1466 20.9531 20.0599 19.8838 20.9984 19.61C21.2483 19.5372 21.6501 19.627 21.9042 19.6501C22.3895 19.6943 22.876 19.7497 23.3549 19.8412C23.6655 19.9005 24.0507 19.9001 24.289 20.1384C24.3728 20.2222 24.4176 20.4889 24.5532 20.4121C24.7141 20.3209 24.8842 20.2493 25.0462 20.162C25.5088 19.9129 25.9081 19.5494 26.4026 19.3576C27.1683 19.0607 28.432 19.2597 28.9973 19.912C29.6635 20.6806 29.3776 21.5434 28.9761 22.3463C28.8065 22.6855 28.4962 22.9955 28.2566 23.2899Z" fill="#E99AA4"/>
</g>
<path fill-rule="evenodd" clip-rule="evenodd" d="M18.3985 12.875C16.4591 12.875 14.6376 13.6295 13.267 15.0009L3.54195 24.7256C3.43242 24.8351 3.37085 24.9837 3.37085 25.1384C3.37085 25.2932 3.43242 25.4418 3.54195 25.5513L7.71318 29.7225C7.94131 29.9507 8.31078 29.9507 8.53891 29.7225L16.7188 21.5427V30.8795L10.0774 49.9739C10.0152 50.1524 10.0431 50.3501 10.1525 50.5043C10.263 50.6586 10.4405 50.7498 10.6288 50.7498H18.137C18.3857 50.7498 18.6069 50.5924 18.6884 50.3578L24.8436 32.663L31.7749 50.3783L40.3098 50.4952C40.4188 50.3355 40.4417 50.1327 40.3715 49.9529L32.9031 30.8681V21.5427L41.083 29.7225C41.3111 29.9507 41.6806 29.9507 41.9087 29.7225L46.08 25.5513C46.1895 25.4418 46.2511 25.2932 46.2511 25.1384C46.2511 24.9837 46.1895 24.8351 46.08 24.7256L36.355 15.001C34.9844 13.6296 33.1628 12.875 31.2234 12.875H28.5474L29.0452 12.4369C30.3849 11.2578 31.2346 9.53743 31.2346 7.61928C31.2346 4.07753 28.3527 1.19559 24.811 1.19559C21.2692 1.19559 18.3873 4.07753 18.3873 7.61928C18.3873 9.53743 19.237 11.2578 20.5767 12.4369L21.0745 12.875H18.3985ZM32.732 19.7201C32.5653 19.5534 32.3144 19.5036 32.0951 19.5937C31.8771 19.6841 31.7352 19.8969 31.7352 20.133V30.9781C31.7352 31.0505 31.7488 31.1228 31.7752 31.1914L38.972 49.5818H32.7178L25.3551 30.7656C25.2673 30.5414 25.051 30.3942 24.811 30.3942H24.7977C24.5546 30.3999 24.3397 30.5559 24.2595 30.7863L17.7218 49.5818H11.4499L17.8542 31.1701C17.8757 31.1086 17.8867 31.0437 17.8867 30.9781V20.133C17.8867 19.8968 17.7448 19.684 17.5267 19.5936C17.3077 19.5033 17.0568 19.5532 16.8899 19.7201L8.12604 28.4839L4.78055 25.1384L14.0927 15.8267C15.2427 14.6767 16.772 14.043 18.3985 14.043H31.2234C32.8499 14.043 34.3792 14.6767 35.5292 15.8267L44.8414 25.1384L41.4959 28.4839L32.732 19.7201ZM24.811 2.36353C27.7094 2.36353 30.0667 4.72088 30.0667 7.61928C30.0667 10.5177 27.7094 12.875 24.811 12.875C21.9126 12.875 19.5552 10.5177 19.5552 7.61928C19.5552 4.72088 21.9126 2.36353 24.811 2.36353Z" fill="#353535"/>
<path fill-rule="evenodd" clip-rule="evenodd" d="M28.7913 19.4377C27.7821 18.4813 26.1336 18.4798 25.1248 19.4373L24.811 19.7345L24.4973 19.4379C23.4899 18.4811 21.8405 18.4799 20.8316 19.4376C20.3297 19.9131 20.0558 20.5454 20.0558 21.2194C20.0558 21.8935 20.3295 22.5257 20.8307 23.0013L24.4087 26.3964C24.5218 26.5035 24.6657 26.5567 24.811 26.5567C24.9562 26.5567 25.1001 26.5035 25.2132 26.3964L28.7903 23.0013C29.2922 22.5258 29.5662 21.8935 29.5662 21.2194C29.5662 20.5454 29.2924 19.9133 28.7913 19.4377ZM24.4089 20.9638L25.2132 20.9636L25.9284 20.2847C26.4977 19.7448 27.4176 19.7463 27.9879 20.2853C28.2491 20.5335 28.3982 20.8652 28.3982 21.2194C28.3982 21.5738 28.2491 21.9056 27.9868 22.1539L24.811 25.1678L21.6339 22.1536C21.3728 21.9054 21.2237 21.5737 21.2237 21.2194C21.2237 20.8653 21.3727 20.5335 21.6348 20.2852C21.9209 20.0134 22.2945 19.8799 22.6642 19.8799C23.034 19.8799 23.4075 20.0135 23.6936 20.2847L24.4089 20.9638Z" fill="#353535"/>
<path d="M7.89272 9.03721C8.17953 8.75092 8.4766 8.46883 8.78042 8.19471L9.55382 9.0702C9.27093 9.32575 8.994 9.58861 8.72656 9.85509L7.89272 9.03721Z" fill="#353535"/>
<path d="M11.4998 6.07554L12.1396 7.05298C11.8258 7.26308 11.5141 7.48356 11.2088 7.71143L10.5006 6.78256C10.8288 6.53789 11.1633 6.30096 11.4998 6.07554Z" fill="#353535"/>
<path d="M14.4942 4.36818L14.987 5.42738C14.6443 5.59136 14.3042 5.76459 13.9714 5.94489L13.4033 4.92452C13.7606 4.73038 14.1259 4.54407 14.4942 4.36818Z" fill="#353535"/>
<path d="M5.63357 11.6403C5.87746 11.3144 6.13159 10.9925 6.39248 10.6793L7.28219 11.4361C7.03946 11.7279 6.80298 12.0273 6.57574 12.3304L5.63357 11.6403Z" fill="#353535"/>
<path d="M3.77127 14.5402C3.96563 14.1833 4.17108 13.8286 4.38387 13.4809L5.37395 14.1014C5.17563 14.4254 4.98426 14.7559 4.80256 15.0883L3.77127 14.5402Z" fill="#353535"/>
<path d="M2.345 17.679C2.48452 17.3008 2.63655 16.92 2.79851 16.542L3.86711 17.0133C3.71625 17.3652 3.57486 17.7195 3.44456 18.0714L2.345 17.679Z" fill="#353535"/>
<path d="M1.67176 19.7998L2.79742 20.1117C2.70044 20.4767 2.61199 20.848 2.53258 21.2209L1.38742 20.99C1.47271 20.5896 1.56788 20.191 1.67176 19.7998Z" fill="#353535"/>
<path d="M1.02841 23.1858L2.18705 23.3329C2.14363 23.7077 2.10936 24.088 2.08421 24.4684L0.91853 24.4045C0.945086 23.9962 0.982 23.588 1.02841 23.1858Z" fill="#353535"/>
<path d="M2.04484 26.6089C2.05529 26.9902 2.0752 27.3717 2.10431 27.7482L0.940982 27.8508C0.909724 27.4472 0.888519 27.038 0.877098 26.6288L2.04484 26.6089Z" fill="#353535"/>
<path d="M1.45496 31.2612C1.36462 30.862 1.28434 30.4594 1.21553 30.059L2.36868 29.8737C2.43286 30.2462 2.50744 30.6206 2.59102 30.992L1.45496 31.2612Z" fill="#353535"/>
<path d="M3.16035 33.0563C3.27824 33.4168 3.40632 33.7766 3.5424 34.131L2.4565 34.5616C2.31028 34.1811 2.1729 33.7945 2.04611 33.4076L3.16035 33.0563Z" fill="#353535"/>
<path d="M3.92561 37.682C3.72678 37.3284 3.53516 36.966 3.3528 36.5998L4.40441 36.0905C4.57413 36.4317 4.75252 36.7693 4.93741 37.0991L3.92561 37.682Z" fill="#353535"/>
<path d="M5.10413 39.5687L6.07142 38.9146C6.2884 39.2278 6.51344 39.5359 6.74356 39.8349L5.82647 40.5581C5.57881 40.2368 5.33677 39.9054 5.10413 39.5687Z" fill="#353535"/>
<path d="M7.26351 42.2557L8.12807 41.4704C8.38375 41.7454 8.65052 42.0186 8.92509 42.2864L8.11866 43.131C7.82403 42.8441 7.53782 42.551 7.26351 42.2557Z" fill="#353535"/>
<path d="M42.3454 42.2701C42.0672 42.5688 41.7806 42.8617 41.4891 43.1448L40.6839 42.2985C40.9559 42.0343 41.2231 41.7613 41.482 41.4832L42.3454 42.2701Z" fill="#353535"/>
<path d="M43.539 38.9301L44.5063 39.5849C44.2757 39.9182 44.0335 40.2492 43.7833 40.5733L42.8662 39.8501C43.0987 39.5484 43.3239 39.2404 43.539 38.9301Z" fill="#353535"/>
<path d="M44.6748 37.1164C44.8614 36.7843 45.0402 36.4471 45.209 36.1092L46.2596 36.6185C46.0793 36.9813 45.8873 37.3434 45.6866 37.6999L44.6748 37.1164Z" fill="#353535"/>
<path d="M46.4537 33.0792L47.567 33.4311C47.4398 33.8198 47.3021 34.2059 47.1562 34.5841L46.0716 34.1513C46.2072 33.7996 46.3349 33.4406 46.4537 33.0792Z" fill="#353535"/>
<path d="M47.0252 31.017C47.1083 30.6475 47.1829 30.2736 47.2478 29.9001L48.4011 30.0878C48.3315 30.4886 48.2512 30.8902 48.1613 31.2867L47.0252 31.017Z" fill="#353535"/>
<path d="M47.5154 27.7759C47.5451 27.3984 47.5655 27.0176 47.5761 26.6386L48.7442 26.6585C48.7329 27.0656 48.7108 27.4746 48.6788 27.8802L47.5154 27.7759Z" fill="#353535"/>
<path d="M48.5966 23.216C48.6427 23.6182 48.6788 24.0265 48.7051 24.4351L47.5384 24.4972C47.5142 24.1167 47.4806 23.7364 47.4378 23.3614L48.5966 23.216Z" fill="#353535"/>
<path d="M48.2409 21.0202L47.0957 21.2483C47.017 20.8759 46.9288 20.505 46.8323 20.1403L47.9581 19.8283C48.062 20.2207 48.157 20.6199 48.2409 21.0202Z" fill="#353535"/>
<path d="M47.2873 17.7071L46.1868 18.0995C46.0558 17.7437 45.9145 17.3891 45.7653 17.0405L46.8341 16.5689C46.9946 16.9436 47.1462 17.3248 47.2873 17.7071Z" fill="#353535"/>
<path d="M45.2535 13.506C45.4655 13.8527 45.6701 14.2079 45.8652 14.5667L44.8331 15.1136C44.6516 14.7797 44.4608 14.449 44.2634 14.126L45.2535 13.506Z" fill="#353535"/>
<path d="M43.2484 10.7029C43.5079 11.0155 43.7615 11.3375 44.0061 11.6645L43.0629 12.354C42.8353 12.0495 42.5989 11.7495 42.3575 11.458L43.2484 10.7029Z" fill="#353535"/>
<path d="M40.0892 9.08939L40.8626 8.21397C41.1628 8.48519 41.46 8.76779 41.7497 9.05769L40.9159 9.87501C40.6454 9.60513 40.3686 9.34198 40.0892 9.08939Z" fill="#353535"/>
<path d="M37.5067 7.06873L38.1477 6.09245C38.4871 6.3207 38.8215 6.55796 39.1458 6.80091L38.4363 7.72827C38.1339 7.50225 37.8227 7.28131 37.5067 7.06873Z" fill="#353535"/>
<path d="M34.661 5.4396L35.1549 4.38108C35.5216 4.55696 35.8868 4.74387 36.2454 4.93922L35.6763 5.95889C35.3422 5.77721 35.0022 5.60338 34.661 5.4396Z" fill="#353535"/>
<path d="M39.8274 50.7498C40.0201 50.7498 40.2009 50.6545 40.3098 50.4952L31.7749 50.3783C31.8629 50.6023 32.0786 50.7498 32.3192 50.7498H39.8274Z" fill="#353535"/>
</svg>
