<svg width="46" height="51" viewBox="0 0 46 51" fill="none" xmlns="http://www.w3.org/2000/svg">
<g opacity="0.7">
<path d="M4.16983 33.4863C4.86768 32.2175 6.50627 31.4201 7.84755 31.1221C8.86492 31.1221 9.50662 31.7463 10.4864 32.0057C11.0304 32.1497 11.2999 32.4346 11.5014 32.9968C11.8654 34.012 12.1507 35.0603 12.4447 36.0894C12.724 37.0668 11.9483 38.6277 11.2865 39.2895C10.4342 40.1418 8.82812 40.6411 7.6565 40.2806C7.16628 40.1297 6.55975 40.135 6.04451 40.0179C5.53366 39.9018 5.15594 39.6327 4.73104 39.3731C4.37359 39.1546 3.88286 38.4292 3.65638 38.0835C3.3687 37.6444 3.33398 37.2745 3.33398 36.77C3.33398 35.4597 3.53087 34.6481 4.16983 33.4863Z" fill="#FFE4B0"/>
<path d="M6.13008 45.0381C6.78726 43.5923 6.71023 42.0396 7.07142 40.5146C6.89774 40.4603 5.84689 39.7262 5.75102 39.8891C5.55269 40.2263 5.28971 40.5288 5.09398 40.8747C4.56393 41.8115 4.24817 42.844 3.83044 43.8314C3.60013 44.3757 3.27612 44.8901 3.06599 45.4424C2.80965 46.1162 2.69133 46.7624 2.57953 47.4767C2.55744 47.6178 2.30396 48.7228 2.46581 48.6328C2.71084 48.4967 2.90301 48.2951 3.12917 48.1306C3.37506 47.9518 4.01744 47.1962 4.17159 47.7357C4.26354 48.0575 4.41283 48.3776 4.51275 48.7023C4.55559 48.8416 4.7515 49.6348 4.79389 49.2109C4.83586 48.7912 4.96109 48.3501 5.08134 47.9442C5.37615 46.9492 5.69977 45.9848 6.13008 45.0381Z" fill="#FBC0C0"/>
<path d="M9.23523 43.1301C9.00939 42.2267 8.89486 41.3123 8.72034 40.4008C9.21963 40.4008 10.3791 40.1539 10.7357 39.807C10.8603 39.6857 10.8996 38.7292 11.02 39C11.1051 39.1915 11.7907 39.807 11.9929 39.6933C12.172 40.2305 12.2575 40.7606 12.3878 41.3106C12.6048 42.227 12.5994 43.1698 12.8142 44.0904C12.9538 44.6885 13.0026 45.3059 13.1933 45.8909C13.4106 46.5579 13.6944 47.1727 14.0304 47.7863C14.0717 47.8616 14.4125 48.3297 14.3368 48.4054C14.3294 48.4128 13.8738 48.2268 13.8314 48.2159C13.3506 48.0922 12.8842 47.7676 12.5489 47.4009C12.4965 47.3436 12.2014 46.8765 12.1003 46.9776C11.9944 47.0835 11.8627 47.2873 11.7907 47.4198C11.6549 47.6701 11.4769 47.8962 11.3643 48.159C11.2705 48.3779 11.1609 48.6759 11.02 48.8666C10.9768 48.925 10.8188 48.3867 10.7957 48.3359C10.6142 47.9366 10.5606 47.4834 10.3724 47.0913C10.1459 46.6194 10.0142 46.0629 9.89345 45.553L9.88595 45.5214C9.69598 44.7192 9.4354 43.9308 9.23523 43.1301Z" fill="#FBC0C0"/>
<path d="M34.4201 6.17475C34.4201 4.50061 34.4538 2.84215 34.3633 1.16797C34.6824 1.8062 35.471 2.73864 35.9743 3.23386C37.401 4.6376 39.1107 5.70061 40.5957 7.03712C41.2719 7.64574 41.8599 8.32351 42.4594 9.00193C42.546 9.09987 43.7613 10.3223 43.5461 10.3223C42.9932 10.3223 42.4324 10.3501 41.8814 10.3097C40.6593 10.22 39.4314 10.3249 38.2108 10.2212C37.3189 10.1455 36.3676 10.1397 35.5194 9.82323C35.0385 9.6438 34.7571 8.95296 34.6507 8.4744C34.5855 8.18078 34.5339 7.86803 34.5339 7.56465C34.5339 7.09617 34.4201 6.64302 34.4201 6.17475Z" fill="#F4E7D4"/>
<path d="M12.3777 0.883494C19.4048 0.883494 26.4272 0.769775 33.4536 0.769775C33.5745 0.830222 33.4678 1.46569 33.5136 1.60687C33.6346 1.97984 33.6811 2.36279 33.6811 2.75354C33.6811 3.28887 33.9441 3.77995 34.1043 4.28242C34.3311 4.9934 34.3065 5.76753 34.3065 6.50626C34.3065 7.2001 34.4578 7.85579 34.6508 8.52161C34.7861 8.98818 35.0318 9.72167 35.4784 9.981C36.0529 10.3145 36.7022 10.3 37.3422 10.379C38.5251 10.5251 39.6926 10.5585 40.8832 10.5496C41.2452 10.5469 41.6015 10.5357 41.9509 10.4359C42.0062 10.4201 42.1418 10.4318 42.1847 10.4011C42.3599 10.276 42.4476 9.97076 42.6111 9.80726C43.0341 9.38434 43.5998 9.23057 44.1558 9.05229C44.179 9.04485 44.4843 8.92357 44.4843 8.94805V9.3745C44.4843 9.98513 44.4917 10.5682 44.5538 11.1687C44.6821 12.4086 45.0472 13.6273 45.1129 14.8772C45.1806 16.1635 45.2596 17.4251 45.1098 18.7121C44.9228 20.3176 44.5525 21.8864 44.3422 23.4883C44.1696 24.8028 44.2244 26.0896 44.1369 27.4021C44.0593 28.5659 43.7452 29.6925 43.7452 30.861C43.7452 31.2324 43.8157 31.4792 43.9137 31.8222L43.9189 31.8403C43.9489 31.9453 44.0682 32.4333 43.96 32.5415C43.8655 32.636 44.0671 32.4814 44.1432 32.51C44.1956 32.5296 44.2 32.352 44.2 32.352C44.2 32.352 44.2152 33.7505 44.2 34.4495C44.1772 35.4981 43.8855 36.5235 43.802 37.5673C43.7426 38.3104 43.604 39.0333 43.5777 39.7816C43.5562 40.3953 43.6314 41.0037 43.6314 41.6169C43.6314 42.5642 43.5705 43.5055 43.5051 44.4504C43.4715 44.935 43.4638 45.443 43.3156 45.9098C43.1771 46.3459 42.6274 46.7314 42.2321 46.908C41.8189 47.0926 41.4053 47.1102 40.9622 47.1102C39.5275 47.1102 38.0991 47.2735 36.6693 47.4071C34.9104 47.5715 33.1836 47.5082 31.4162 47.5082C29.507 47.5082 27.6048 47.5929 25.6955 47.5208C23.487 47.4375 21.2765 47.5651 19.0682 47.5651C17.5272 47.5651 15.9879 47.7356 14.4531 47.7356C13.6168 47.7356 12.7843 47.6788 11.9481 47.6788C11.6594 47.6788 11.3622 47.6956 11.0689 47.6855C11.0305 47.7145 10.991 47.7419 10.9499 47.7672C10.8908 47.8036 10.817 47.7489 10.7468 47.6611C10.6899 47.654 10.6333 47.6453 10.5772 47.6345C10.1379 47.5504 9.57769 47.4073 9.21256 47.1354C8.87318 46.8827 8.31676 46.689 8.12276 46.2794C7.97158 45.9603 7.81038 45.7205 7.70263 45.3665C7.63381 45.1403 7.57166 44.9104 7.49731 44.6873C7.23298 43.8944 7.27292 42.8991 7.34252 42.0813C7.38544 41.577 7.22097 40.7419 7.93323 40.7419C8.22698 40.7419 8.64145 40.6534 8.80823 40.9694C8.9451 41.2287 9.01252 41.6055 9.0483 41.8918C9.18937 43.0202 9.52137 44.1968 9.9391 45.2528C10.0798 45.6085 10.2968 45.9716 10.3687 46.3489C10.4244 46.6415 10.4384 46.9309 10.5109 47.2207C10.5276 47.2875 10.6324 47.5181 10.7468 47.6611C10.8532 47.6744 10.9608 47.6817 11.0689 47.6855C11.3257 47.4913 11.5324 47.2272 11.8218 47.0786C12.0757 46.9482 12.3888 47.4954 12.6178 47.5903C12.9336 47.7212 13.1985 47.6147 13.4644 47.4197C13.5561 47.3525 13.7982 46.8406 13.6697 46.9049C13.6038 46.9378 13.6711 46.7571 13.6634 46.6837C13.6567 46.62 13.6113 46.5789 13.6097 46.5226C13.6017 46.2503 13.5622 45.9843 13.5528 45.714C13.5249 44.9028 13.4367 44.1492 13.4928 43.3353C13.5703 42.2113 12.8003 41.0747 12.3777 40.0975C12.0735 39.3941 12.1313 38.8147 12.1313 38.0506C12.1313 37.0856 12.2962 36.0286 12.0871 35.0876C11.9653 34.5393 12.2115 33.7865 11.9323 33.2902C11.8263 33.1017 11.7033 33.0037 11.5185 32.889C10.8533 32.4761 10.1812 31.9834 9.44632 31.7108C8.83485 31.4839 8.34209 31.4649 7.72158 31.5181C7.58592 31.5297 7.51286 30.867 7.46888 30.7473C7.3503 30.4245 7.18458 30.0699 7.18458 29.7238V27.7243C7.18458 26.8559 7.08109 26.015 7.02664 25.1498C6.94223 23.8087 6.98646 22.4612 6.91292 21.1191C6.80217 19.0979 6.97945 17.0427 7.09613 15.0257C7.14485 14.1835 7.12772 13.3387 7.12772 12.4954C7.12772 11.6699 7.20213 10.8437 7.18458 10.0189C7.16031 8.87844 7.35516 7.655 7.35516 6.48099C7.35516 5.54398 7.33967 4.53992 7.5826 3.62538C7.78359 2.8687 7.83651 1.99416 8.46707 1.42998C8.86609 1.07296 9.30333 0.999058 9.79379 0.927718C10.6378 0.804953 11.5253 0.883494 12.3777 0.883494Z" fill="#F8F3ED"/>
<path d="M14.5767 7.8426C14.5767 7.14016 14.8728 6.28882 14.9537 5.59034C14.5068 5.51585 15.748 5.54611 15.8466 5.54611C16.2086 5.54611 16.7516 5.43545 17.0786 5.59034C17.6498 5.86091 17.6217 6.33483 17.704 6.91074C17.7442 7.19224 17.7832 7.47485 17.8146 7.75731C17.8326 7.91927 17.976 7.8946 18.121 7.92157C18.4106 7.97546 18.7194 7.94613 19.0118 7.98791C19.2526 8.02231 19.522 7.99107 19.7636 7.99107C20.0415 7.99107 20.0781 8.0527 20.0921 8.33222C20.1301 9.09142 20.1657 9.86687 20.0795 10.6319C20.0639 10.7701 20.0586 11.1752 19.8362 11.1752C19.6592 11.1752 19.492 11.0899 19.3213 11.1468C18.7989 11.3209 17.8746 10.8524 17.8746 11.6901C17.8746 12.0149 17.8177 12.3496 17.8177 12.6851C17.8177 12.8681 17.7958 13.2628 17.6345 13.3801C17.5154 13.4667 17.1063 13.3808 16.9712 13.3959C16.7115 13.4247 16.4765 13.4496 16.2067 13.4496C15.8465 13.4496 14.6851 13.6032 14.4946 13.2221C14.4083 13.0495 14.4062 12.7771 14.4062 12.5904C14.4062 12.2231 14.2781 11.791 14.204 11.4342C14.1378 11.1156 14.0082 11.1475 13.6701 11.1215C13.2289 11.0876 12.1753 11.3539 11.9738 10.7898C11.7699 10.2188 11.8475 9.74117 11.8475 9.14721C11.8475 8.86059 11.8208 8.16165 12.2171 8.16165H12.6751C13.0836 8.16165 14.5767 8.34215 14.5767 7.8426Z" fill="#E99AA3"/>
<path fill-rule="evenodd" clip-rule="evenodd" d="M37.7827 10.9869C36.7833 10.9857 35.825 10.5882 35.1184 9.88158C34.4117 9.17489 34.0142 8.21673 34.0131 7.21732V1.36312L10.515 1.36312C9.81344 1.36394 9.14055 1.64301 8.64445 2.1391C8.14836 2.63519 7.8693 3.3078 7.86848 4.00938V31.0364H6.74571V4.0098C6.74686 3.01044 7.14437 2.05234 7.85103 1.34568C8.55769 0.639015 9.5158 0.241507 10.5152 0.24035H34.5745C34.6482 0.240348 34.7212 0.254866 34.7893 0.283077C34.8574 0.311287 34.9193 0.352638 34.9715 0.404767L44.5952 10.0285C44.6474 10.0807 44.6887 10.1426 44.7169 10.2107C44.7451 10.2788 44.7596 10.3518 44.7596 10.4255V44.1085C44.7585 45.1079 44.361 46.066 43.6543 46.7727C42.9476 47.4794 41.9895 47.8769 40.9901 47.8781H10.5153C9.51588 47.8769 8.55772 47.4794 7.85103 46.7727C7.14437 46.0661 6.74686 45.108 6.74571 44.1086V40.3394H7.86848L7.86848 44.1087C7.8693 44.8103 8.14836 45.4832 8.64445 45.9793C9.14055 46.4754 9.81316 46.7545 10.5147 46.7553H40.9903C41.6919 46.7545 42.3648 46.4754 42.8609 45.9793C43.357 45.4832 43.636 44.8106 43.6369 44.109V10.9869L37.7827 10.9869ZM37.7824 9.86413C37.0808 9.86331 36.4079 9.58425 35.9118 9.08816C35.4157 8.59206 35.1367 7.91945 35.1359 7.21787V2.15698L42.843 9.86413H37.7824Z" fill="#414550"/>
<path fill-rule="evenodd" clip-rule="evenodd" d="M14.128 14.0304C14.0227 13.9251 13.9635 13.7823 13.9635 13.6334V11.7889H12.119C11.9701 11.7889 11.8273 11.7297 11.722 11.6245C11.6167 11.5192 11.5576 11.3764 11.5576 11.2275V8.01957C11.5576 7.87068 11.6167 7.72789 11.722 7.62261C11.8273 7.51733 11.9701 7.45818 12.119 7.45818H13.9635V5.61363C13.9635 5.46474 14.0227 5.32195 14.128 5.21667C14.2332 5.11139 14.376 5.05224 14.5249 5.05224H17.7329C17.8817 5.05224 18.0245 5.11139 18.1298 5.21667C18.2351 5.32195 18.2942 5.46474 18.2942 5.61363V7.45818H20.1388C20.2877 7.45818 20.4305 7.51733 20.5358 7.62261C20.641 7.72789 20.7002 7.87068 20.7002 8.01957V11.2275C20.7002 11.3764 20.641 11.5192 20.5358 11.6245C20.4305 11.7297 20.2877 11.7889 20.1388 11.7889H18.2942V13.6334C18.2942 13.7823 18.2351 13.9251 18.1298 14.0304C18.0245 14.1357 17.8817 14.1948 17.7329 14.1948H14.5249C14.376 14.1948 14.2332 14.1357 14.128 14.0304ZM14.5249 8.58096C14.6738 8.58096 14.8166 8.52181 14.9219 8.41653C15.0272 8.31125 15.0863 8.16846 15.0863 8.01957V6.17501H17.1715V8.01957C17.1715 8.16846 17.2306 8.31125 17.3359 8.41653C17.4412 8.52181 17.584 8.58096 17.7329 8.58096H19.5774V10.6661H17.7329C17.584 10.6661 17.4412 10.7253 17.3359 10.8305C17.2306 10.9358 17.1715 11.0786 17.1715 11.2275V13.0721H15.0863V11.2275C15.0863 11.0786 15.0272 10.9358 14.9219 10.8305C14.8166 10.7253 14.6738 10.6661 14.5249 10.6661H12.6804V8.58096H14.5249Z" fill="#414550"/>
<path d="M23.7517 18.8423C23.6465 18.737 23.5873 18.5942 23.5873 18.4453C23.5873 18.2964 23.6465 18.1537 23.7517 18.0484C23.857 17.9431 23.9998 17.8839 24.1487 17.8839H39.3864C39.5353 17.8839 39.678 17.9431 39.7833 18.0484C39.8886 18.1537 39.9477 18.2964 39.9477 18.4453C39.9477 18.5942 39.8886 18.737 39.7833 18.8423C39.678 18.9476 39.5352 19.0067 39.3864 19.0067H24.1487C23.9998 19.0067 23.857 18.9476 23.7517 18.8423Z" fill="#414550"/>
<path d="M14.128 18.0484C14.2332 17.9431 14.376 17.8839 14.5249 17.8839H20.9408C21.0897 17.8839 21.2325 17.9431 21.3377 18.0484C21.443 18.1537 21.5022 18.2964 21.5022 18.4453C21.5022 18.5942 21.443 18.737 21.3377 18.8423C21.2325 18.9476 21.0897 19.0067 20.9408 19.0067H14.5249C14.376 19.0067 14.2332 18.9476 14.128 18.8423C14.0227 18.737 13.9635 18.5942 13.9635 18.4453C13.9635 18.2964 14.0227 18.1537 14.128 18.0484Z" fill="#414550"/>
<path d="M28.1586 22.2146H12.119C11.9701 22.2146 11.8273 22.1555 11.722 22.0502C11.6167 21.9449 11.5576 21.8021 11.5576 21.6533C11.5576 21.5044 11.6167 21.3616 11.722 21.2563C11.8273 21.151 11.9701 21.0919 12.119 21.0919H28.1586C28.3075 21.0919 28.4503 21.151 28.5556 21.2563C28.6609 21.3616 28.72 21.5044 28.72 21.6533C28.72 21.8021 28.6609 21.9449 28.5556 22.0502C28.4503 22.1555 28.3075 22.2146 28.1586 22.2146Z" fill="#414550"/>
<path d="M31.3665 21.0919H39.3864C39.5353 21.0919 39.678 21.151 39.7833 21.2563C39.8886 21.3616 39.9477 21.5044 39.9477 21.6533C39.9477 21.8021 39.8886 21.9449 39.7833 22.0502C39.678 22.1555 39.5352 22.2146 39.3864 22.2146H31.3665C31.2177 22.2146 31.0749 22.1555 30.9696 22.0502C30.8643 21.9449 30.8052 21.8021 30.8052 21.6533C30.8052 21.5044 30.8643 21.3616 30.9696 21.2563C31.0749 21.151 31.2177 21.0919 31.3665 21.0919Z" fill="#414550"/>
<path d="M24.9507 24.2998H39.3864C39.5353 24.2998 39.678 24.3589 39.7833 24.4642C39.8886 24.5695 39.9477 24.7123 39.9477 24.8612C39.9477 25.0101 39.8886 25.1529 39.7833 25.2581C39.678 25.3634 39.5352 25.4226 39.3864 25.4226H24.9507C24.8018 25.4226 24.659 25.3634 24.5537 25.2581C24.4485 25.1529 24.3893 25.0101 24.3893 24.8612C24.3893 24.7123 24.4485 24.5695 24.5537 24.4642C24.659 24.3589 24.8018 24.2998 24.9507 24.2998Z" fill="#414550"/>
<path d="M34.5745 27.5077H39.3864C39.5352 27.5077 39.678 27.5669 39.7833 27.6722C39.8886 27.7774 39.9477 27.9202 39.9477 28.0691C39.9477 28.218 39.8886 28.3608 39.7833 28.4661C39.678 28.5714 39.5352 28.6305 39.3864 28.6305H34.5745C34.4256 28.6305 34.2828 28.5714 34.1775 28.4661C34.0722 28.3608 34.0131 28.218 34.0131 28.0691C34.0131 27.9202 34.0722 27.7774 34.1775 27.6722C34.2828 27.5669 34.4256 27.5077 34.5745 27.5077Z" fill="#414550"/>
<path d="M31.7635 28.4661C31.6582 28.5714 31.5154 28.6305 31.3665 28.6305H12.119C11.9701 28.6305 11.8273 28.5714 11.722 28.4661C11.6167 28.3608 11.5576 28.218 11.5576 28.0691C11.5576 27.9202 11.6167 27.7774 11.722 27.6722C11.8273 27.5669 11.9701 27.5077 12.119 27.5077H31.3665C31.5154 27.5077 31.6582 27.5669 31.7635 27.6722C31.8688 27.7774 31.9279 27.9202 31.9279 28.0691C31.9279 28.218 31.8688 28.3608 31.7635 28.4661Z" fill="#414550"/>
<path d="M21.7428 25.4226H12.119C11.9701 25.4226 11.8273 25.3634 11.722 25.2581C11.6167 25.1529 11.5576 25.0101 11.5576 24.8612C11.5576 24.7123 11.6167 24.5695 11.722 24.4642C11.8273 24.3589 11.9701 24.2998 12.119 24.2998H21.7428C21.8917 24.2998 22.0344 24.3589 22.1397 24.4642C22.245 24.5695 22.3041 24.7123 22.3041 24.8612C22.3041 25.0101 22.245 25.1529 22.1397 25.2581C22.0344 25.3634 21.8917 25.4226 21.7428 25.4226Z" fill="#414550"/>
<path d="M18.922 31.8384H13.1478C13.0288 31.8384 12.9089 31.7861 12.8162 31.6832C12.7228 31.5794 12.6666 31.4336 12.6666 31.277C12.6666 31.1204 12.7228 30.9747 12.8162 30.8709C12.9089 30.7679 13.0288 30.7157 13.1478 30.7157H18.922C19.041 30.7157 19.1609 30.7679 19.2536 30.8709C19.347 30.9747 19.4032 31.1204 19.4032 31.277C19.4032 31.4336 19.347 31.5794 19.2536 31.6832C19.1609 31.7861 19.041 31.8384 18.922 31.8384Z" fill="#414550"/>
<path d="M21.3458 30.8801C21.4511 30.7748 21.5939 30.7157 21.7428 30.7157H29.7626C29.9115 30.7157 30.0543 30.7748 30.1595 30.8801C30.2648 30.9854 30.324 31.1281 30.324 31.277C30.324 31.4259 30.2648 31.5687 30.1595 31.674C30.0543 31.7793 29.9115 31.8384 29.7626 31.8384H21.7428C21.5939 31.8384 21.4511 31.7793 21.3458 31.674C21.2405 31.5687 21.1814 31.4259 21.1814 31.277C21.1814 31.1281 21.2405 30.9854 21.3458 30.8801Z" fill="#414550"/>
<path d="M32.9705 30.7157H39.3864C39.5352 30.7157 39.678 30.7748 39.7833 30.8801C39.8886 30.9854 39.9477 31.1281 39.9477 31.277C39.9477 31.4259 39.8886 31.5687 39.7833 31.674C39.678 31.7793 39.5352 31.8384 39.3864 31.8384H32.9705C32.8216 31.8384 32.6788 31.7793 32.5735 31.674C32.4683 31.5687 32.4091 31.4259 32.4091 31.277C32.4091 31.1281 32.4683 30.9854 32.5735 30.8801C32.6788 30.7748 32.8216 30.7157 32.9705 30.7157Z" fill="#414550"/>
<path d="M15.4735 33.9236H27.0221C27.1089 33.9236 27.2064 33.9663 27.2879 34.0682C27.3704 34.1714 27.423 34.3208 27.423 34.485C27.423 34.6491 27.3704 34.7985 27.2879 34.9018C27.2064 35.0036 27.1089 35.0464 27.0221 35.0464H15.4735C15.3867 35.0464 15.2892 35.0036 15.2077 34.9018C15.1251 34.7985 15.0725 34.6491 15.0725 34.485C15.0725 34.3208 15.1251 34.1714 15.2077 34.0682C15.2892 33.9663 15.3867 33.9236 15.4735 33.9236Z" fill="#414550"/>
<path d="M31.6991 37.2406C31.7707 37.2933 31.8289 37.3622 31.8686 37.4418L32.5155 38.7354H34.4419L39.1353 36.3888C39.2685 36.3222 39.4226 36.3113 39.5639 36.3583C39.7051 36.4054 39.8219 36.5066 39.8885 36.6398C39.955 36.773 39.966 36.9271 39.9189 37.0684C39.8719 37.2096 39.7706 37.3264 39.6375 37.393L34.8255 39.7989C34.7476 39.8379 34.6617 39.8582 34.5745 39.8582H32.1686C32.0643 39.8582 31.9621 39.8292 31.8734 39.7744C31.7847 39.7196 31.7131 39.6411 31.6665 39.5479L31.2128 38.6405L30.1596 39.6938C30.0543 39.7991 29.9115 39.8582 29.7626 39.8582C29.6137 39.8582 29.4709 39.7991 29.3656 39.6938C29.2603 39.5885 29.2012 39.4457 29.2012 39.2968C29.2012 39.1479 29.2603 39.0051 29.3656 38.8998L30.9696 37.2959C31.0325 37.233 31.1094 37.1859 31.1941 37.1586C31.2787 37.1313 31.3687 37.1245 31.4565 37.1387C31.5443 37.153 31.6274 37.1879 31.6991 37.2406Z" fill="#414550"/>
<path fill-rule="evenodd" clip-rule="evenodd" d="M3.04281 35.688C3.04281 32.9419 5.26898 30.7157 8.01509 30.7157C10.7612 30.7157 12.9874 32.9419 12.9874 35.688C12.9874 36.9827 12.4919 38.1625 11.6815 39.0468L14.9767 49.2198L12.5657 48.0143L10.7607 50.107L8.39349 40.6461C8.26851 40.6555 8.14232 40.6603 8.01509 40.6603C7.89354 40.6603 7.77294 40.6559 7.65344 40.6473L5.45748 50.8284L3.85429 48.1564L0.749023 50.6406L4.93185 39.5892C3.78199 38.6791 3.04281 37.27 3.04281 35.688ZM5.90446 40.1913L3.25144 47.2008L4.15608 46.4771L4.95884 47.815L6.54943 40.4406C6.32738 40.3722 6.11199 40.2887 5.90446 40.1913ZM9.49811 40.4352L11.3244 47.7344L12.2863 46.6193L13.0832 47.0177L10.7571 39.8365C10.3719 40.0916 9.94885 40.2946 9.49811 40.4352ZM8.01509 31.8385C5.88907 31.8385 4.16558 33.562 4.16558 35.688C4.16558 37.0388 4.86089 38.2275 5.91576 38.9153C6.33332 39.1876 6.80652 39.3807 7.31454 39.4741C7.5413 39.5157 7.7754 39.5375 8.01509 39.5375C8.25479 39.5375 8.48889 39.5157 8.71565 39.4741C9.45894 39.3375 10.1282 38.9871 10.6571 38.4877C11.4013 37.7852 11.8646 36.7912 11.8646 35.688C11.8646 33.562 10.1411 31.8385 8.01509 31.8385Z" fill="#414550"/>
<path d="M4.16983 33.4863C4.86768 32.2175 6.50627 31.4201 7.84755 31.1221C8.86492 31.1221 9.50662 31.7463 10.4864 32.0057C11.0304 32.1497 11.2999 32.4346 11.5014 32.9968C11.8654 34.012 12.1507 35.0603 12.4447 36.0894C12.724 37.0668 11.9483 38.6277 11.2865 39.2895C10.4342 40.1418 8.82812 40.6411 7.6565 40.2806C7.16628 40.1297 6.55975 40.135 6.04451 40.0179C5.53366 39.9018 5.15594 39.6327 4.73104 39.3731C4.37359 39.1546 3.88286 38.4292 3.65638 38.0835C3.3687 37.6444 3.33398 37.2745 3.33398 36.77C3.33398 35.4597 3.53087 34.6481 4.16983 33.4863Z" fill="#FFE4B0"/>
<path d="M6.13008 45.0381C6.78726 43.5923 6.71023 42.0396 7.07142 40.5146C6.89774 40.4603 5.84689 39.7262 5.75102 39.8891C5.55269 40.2263 5.28971 40.5288 5.09398 40.8747C4.56393 41.8115 4.24817 42.844 3.83044 43.8314C3.60013 44.3757 3.27612 44.8901 3.06599 45.4424C2.80965 46.1162 2.69133 46.7624 2.57953 47.4767C2.55744 47.6178 2.30396 48.7228 2.46581 48.6328C2.71084 48.4967 2.90301 48.2951 3.12917 48.1306C3.37506 47.9518 4.01744 47.1962 4.17159 47.7357C4.26354 48.0575 4.41283 48.3776 4.51275 48.7023C4.55559 48.8416 4.7515 49.6348 4.79389 49.2109C4.83586 48.7912 4.96109 48.3501 5.08134 47.9442C5.37615 46.9492 5.69977 45.9848 6.13008 45.0381Z" fill="#FBC0C0"/>
<path d="M9.23523 43.1301C9.00939 42.2267 8.89486 41.3123 8.72034 40.4008C9.21963 40.4008 10.3791 40.1539 10.7357 39.807C10.8603 39.6857 10.8996 38.7292 11.02 39C11.1051 39.1915 11.7907 39.807 11.9929 39.6933C12.172 40.2305 12.2575 40.7606 12.3878 41.3106C12.6048 42.227 12.5994 43.1698 12.8142 44.0904C12.9538 44.6885 13.0026 45.3059 13.1933 45.8909C13.4106 46.5579 13.6944 47.1727 14.0304 47.7863C14.0717 47.8616 14.4125 48.3297 14.3368 48.4054C14.3294 48.4128 13.8738 48.2268 13.8314 48.2159C13.3506 48.0922 12.8842 47.7676 12.5489 47.4009C12.4965 47.3436 12.2014 46.8765 12.1003 46.9776C11.9944 47.0835 11.8627 47.2873 11.7907 47.4198C11.6549 47.6701 11.4769 47.8962 11.3643 48.159C11.2705 48.3779 11.1609 48.6759 11.02 48.8666C10.9768 48.925 10.8188 48.3867 10.7957 48.3359C10.6142 47.9366 10.5606 47.4834 10.3724 47.0913C10.1459 46.6194 10.0142 46.0629 9.89345 45.553L9.88595 45.5214C9.69598 44.7192 9.4354 43.9308 9.23523 43.1301Z" fill="#FBC0C0"/>
<path d="M34.4201 6.17475C34.4201 4.50061 34.4538 2.84215 34.3633 1.16797C34.6824 1.8062 35.471 2.73864 35.9743 3.23386C37.401 4.6376 39.1107 5.70061 40.5957 7.03712C41.2719 7.64574 41.8599 8.32351 42.4594 9.00193C42.546 9.09987 43.7613 10.3223 43.5461 10.3223C42.9932 10.3223 42.4324 10.3501 41.8814 10.3097C40.6593 10.22 39.4314 10.3249 38.2108 10.2212C37.3189 10.1455 36.3676 10.1397 35.5194 9.82323C35.0385 9.6438 34.7571 8.95296 34.6507 8.4744C34.5855 8.18078 34.5339 7.86803 34.5339 7.56465C34.5339 7.09617 34.4201 6.64302 34.4201 6.17475Z" fill="#F4E7D4"/>
<path d="M12.3777 0.883494C19.4048 0.883494 26.4272 0.769775 33.4536 0.769775C33.5745 0.830222 33.4678 1.46569 33.5136 1.60687C33.6346 1.97984 33.6811 2.36279 33.6811 2.75354C33.6811 3.28887 33.9441 3.77995 34.1043 4.28242C34.3311 4.9934 34.3065 5.76753 34.3065 6.50626C34.3065 7.2001 34.4578 7.85579 34.6508 8.52161C34.7861 8.98818 35.0318 9.72167 35.4784 9.981C36.0529 10.3145 36.7022 10.3 37.3422 10.379C38.5251 10.5251 39.6926 10.5585 40.8832 10.5496C41.2452 10.5469 41.6015 10.5357 41.9509 10.4359C42.0062 10.4201 42.1418 10.4318 42.1847 10.4011C42.3599 10.276 42.4476 9.97076 42.6111 9.80726C43.0341 9.38434 43.5998 9.23057 44.1558 9.05229C44.179 9.04485 44.4843 8.92357 44.4843 8.94805V9.3745C44.4843 9.98513 44.4917 10.5682 44.5538 11.1687C44.6821 12.4086 45.0472 13.6273 45.1129 14.8772C45.1806 16.1635 45.2596 17.4251 45.1098 18.7121C44.9228 20.3176 44.5525 21.8864 44.3422 23.4883C44.1696 24.8028 44.2244 26.0896 44.1369 27.4021C44.0593 28.5659 43.7452 29.6925 43.7452 30.861C43.7452 31.2324 43.8157 31.4792 43.9137 31.8222L43.9189 31.8403C43.9489 31.9453 44.0682 32.4333 43.96 32.5415C43.8655 32.636 44.0671 32.4814 44.1432 32.51C44.1956 32.5296 44.2 32.352 44.2 32.352C44.2 32.352 44.2152 33.7505 44.2 34.4495C44.1772 35.4981 43.8855 36.5235 43.802 37.5673C43.7426 38.3104 43.604 39.0333 43.5777 39.7816C43.5562 40.3953 43.6314 41.0037 43.6314 41.6169C43.6314 42.5642 43.5705 43.5055 43.5051 44.4504C43.4715 44.935 43.4638 45.443 43.3156 45.9098C43.1771 46.3459 42.6274 46.7314 42.2321 46.908C41.8189 47.0926 41.4053 47.1102 40.9622 47.1102C39.5275 47.1102 38.0991 47.2735 36.6693 47.4071C34.9104 47.5715 33.1836 47.5082 31.4162 47.5082C29.507 47.5082 27.6048 47.5929 25.6955 47.5208C23.487 47.4375 21.2765 47.5651 19.0682 47.5651C17.5272 47.5651 15.9879 47.7356 14.4531 47.7356C13.6168 47.7356 12.7843 47.6788 11.9481 47.6788C11.6594 47.6788 11.3622 47.6956 11.0689 47.6855C11.0305 47.7145 10.991 47.7419 10.9499 47.7672C10.8908 47.8036 10.817 47.7489 10.7468 47.6611C10.6899 47.654 10.6333 47.6453 10.5772 47.6345C10.1379 47.5504 9.57769 47.4073 9.21256 47.1354C8.87318 46.8827 8.31676 46.689 8.12276 46.2794C7.97158 45.9603 7.81038 45.7205 7.70263 45.3665C7.63381 45.1403 7.57166 44.9104 7.49731 44.6873C7.23298 43.8944 7.27292 42.8991 7.34252 42.0813C7.38544 41.577 7.22097 40.7419 7.93323 40.7419C8.22698 40.7419 8.64145 40.6534 8.80823 40.9694C8.9451 41.2287 9.01252 41.6055 9.0483 41.8918C9.18937 43.0202 9.52137 44.1968 9.9391 45.2528C10.0798 45.6085 10.2968 45.9716 10.3687 46.3489C10.4244 46.6415 10.4384 46.9309 10.5109 47.2207C10.5276 47.2875 10.6324 47.5181 10.7468 47.6611C10.8532 47.6744 10.9608 47.6817 11.0689 47.6855C11.3257 47.4913 11.5324 47.2272 11.8218 47.0786C12.0757 46.9482 12.3888 47.4954 12.6178 47.5903C12.9336 47.7212 13.1985 47.6147 13.4644 47.4197C13.5561 47.3525 13.7982 46.8406 13.6697 46.9049C13.6038 46.9378 13.6711 46.7571 13.6634 46.6837C13.6567 46.62 13.6113 46.5789 13.6097 46.5226C13.6017 46.2503 13.5622 45.9843 13.5528 45.714C13.5249 44.9028 13.4367 44.1492 13.4928 43.3353C13.5703 42.2113 12.8003 41.0747 12.3777 40.0975C12.0735 39.3941 12.1313 38.8147 12.1313 38.0506C12.1313 37.0856 12.2962 36.0286 12.0871 35.0876C11.9653 34.5393 12.2115 33.7865 11.9323 33.2902C11.8263 33.1017 11.7033 33.0037 11.5185 32.889C10.8533 32.4761 10.1812 31.9834 9.44632 31.7108C8.83485 31.4839 8.34209 31.4649 7.72158 31.5181C7.58592 31.5297 7.51286 30.867 7.46888 30.7473C7.3503 30.4245 7.18458 30.0699 7.18458 29.7238V27.7243C7.18458 26.8559 7.08109 26.015 7.02664 25.1498C6.94223 23.8087 6.98646 22.4612 6.91292 21.1191C6.80217 19.0979 6.97945 17.0427 7.09613 15.0257C7.14485 14.1835 7.12772 13.3387 7.12772 12.4954C7.12772 11.6699 7.20213 10.8437 7.18458 10.0189C7.16031 8.87844 7.35516 7.655 7.35516 6.48099C7.35516 5.54398 7.33967 4.53992 7.5826 3.62538C7.78359 2.8687 7.83651 1.99416 8.46707 1.42998C8.86609 1.07296 9.30333 0.999058 9.79379 0.927718C10.6378 0.804953 11.5253 0.883494 12.3777 0.883494Z" fill="#F8F3ED"/>
<path d="M14.5767 7.8426C14.5767 7.14016 14.8728 6.28882 14.9537 5.59034C14.5068 5.51585 15.748 5.54611 15.8466 5.54611C16.2086 5.54611 16.7516 5.43545 17.0786 5.59034C17.6498 5.86091 17.6217 6.33483 17.704 6.91074C17.7442 7.19224 17.7832 7.47485 17.8146 7.75731C17.8326 7.91927 17.976 7.8946 18.121 7.92157C18.4106 7.97546 18.7194 7.94613 19.0118 7.98791C19.2526 8.02231 19.522 7.99107 19.7636 7.99107C20.0415 7.99107 20.0781 8.0527 20.0921 8.33222C20.1301 9.09142 20.1657 9.86687 20.0795 10.6319C20.0639 10.7701 20.0586 11.1752 19.8362 11.1752C19.6592 11.1752 19.492 11.0899 19.3213 11.1468C18.7989 11.3209 17.8746 10.8524 17.8746 11.6901C17.8746 12.0149 17.8177 12.3496 17.8177 12.6851C17.8177 12.8681 17.7958 13.2628 17.6345 13.3801C17.5154 13.4667 17.1063 13.3808 16.9712 13.3959C16.7115 13.4247 16.4765 13.4496 16.2067 13.4496C15.8465 13.4496 14.6851 13.6032 14.4946 13.2221C14.4083 13.0495 14.4062 12.7771 14.4062 12.5904C14.4062 12.2231 14.2781 11.791 14.204 11.4342C14.1378 11.1156 14.0082 11.1475 13.6701 11.1215C13.2289 11.0876 12.1753 11.3539 11.9738 10.7898C11.7699 10.2188 11.8475 9.74117 11.8475 9.14721C11.8475 8.86059 11.8208 8.16165 12.2171 8.16165H12.6751C13.0836 8.16165 14.5767 8.34215 14.5767 7.8426Z" fill="#E99AA3"/>
</g>
<path fill-rule="evenodd" clip-rule="evenodd" d="M37.7827 10.9869C36.7833 10.9857 35.825 10.5882 35.1184 9.88158C34.4117 9.17489 34.0142 8.21673 34.0131 7.21732V1.36312L10.515 1.36312C9.81344 1.36394 9.14055 1.64301 8.64445 2.1391C8.14836 2.63519 7.8693 3.3078 7.86848 4.00938V31.0364H6.74571V4.0098C6.74686 3.01044 7.14437 2.05234 7.85103 1.34568C8.55769 0.639015 9.5158 0.241507 10.5152 0.24035H34.5745C34.6482 0.240348 34.7212 0.254866 34.7893 0.283077C34.8574 0.311287 34.9193 0.352638 34.9715 0.404767L44.5952 10.0285C44.6474 10.0807 44.6887 10.1426 44.7169 10.2107C44.7451 10.2788 44.7596 10.3518 44.7596 10.4255V44.1085C44.7585 45.1079 44.361 46.066 43.6543 46.7727C42.9476 47.4794 41.9895 47.8769 40.9901 47.8781H10.5153C9.51588 47.8769 8.55772 47.4794 7.85103 46.7727C7.14437 46.0661 6.74686 45.108 6.74571 44.1086V40.3394H7.86848L7.86848 44.1087C7.8693 44.8103 8.14836 45.4832 8.64445 45.9793C9.14055 46.4754 9.81316 46.7545 10.5147 46.7553H40.9903C41.6919 46.7545 42.3648 46.4754 42.8609 45.9793C43.357 45.4832 43.636 44.8106 43.6369 44.109V10.9869L37.7827 10.9869ZM37.7824 9.86413C37.0808 9.86331 36.4079 9.58425 35.9118 9.08816C35.4157 8.59206 35.1367 7.91945 35.1359 7.21787V2.15698L42.843 9.86413H37.7824Z" fill="#414550"/>
<path fill-rule="evenodd" clip-rule="evenodd" d="M14.128 14.0304C14.0227 13.9251 13.9635 13.7823 13.9635 13.6334V11.7889H12.119C11.9701 11.7889 11.8273 11.7297 11.722 11.6245C11.6167 11.5192 11.5576 11.3764 11.5576 11.2275V8.01957C11.5576 7.87068 11.6167 7.72789 11.722 7.62261C11.8273 7.51733 11.9701 7.45818 12.119 7.45818H13.9635V5.61363C13.9635 5.46474 14.0227 5.32195 14.128 5.21667C14.2332 5.11139 14.376 5.05224 14.5249 5.05224H17.7329C17.8817 5.05224 18.0245 5.11139 18.1298 5.21667C18.2351 5.32195 18.2942 5.46474 18.2942 5.61363V7.45818H20.1388C20.2877 7.45818 20.4305 7.51733 20.5358 7.62261C20.641 7.72789 20.7002 7.87068 20.7002 8.01957V11.2275C20.7002 11.3764 20.641 11.5192 20.5358 11.6245C20.4305 11.7297 20.2877 11.7889 20.1388 11.7889H18.2942V13.6334C18.2942 13.7823 18.2351 13.9251 18.1298 14.0304C18.0245 14.1357 17.8817 14.1948 17.7329 14.1948H14.5249C14.376 14.1948 14.2332 14.1357 14.128 14.0304ZM14.5249 8.58096C14.6738 8.58096 14.8166 8.52181 14.9219 8.41653C15.0272 8.31125 15.0863 8.16846 15.0863 8.01957V6.17501H17.1715V8.01957C17.1715 8.16846 17.2306 8.31125 17.3359 8.41653C17.4412 8.52181 17.584 8.58096 17.7329 8.58096H19.5774V10.6661H17.7329C17.584 10.6661 17.4412 10.7253 17.3359 10.8305C17.2306 10.9358 17.1715 11.0786 17.1715 11.2275V13.0721H15.0863V11.2275C15.0863 11.0786 15.0272 10.9358 14.9219 10.8305C14.8166 10.7253 14.6738 10.6661 14.5249 10.6661H12.6804V8.58096H14.5249Z" fill="#414550"/>
<path d="M23.7517 18.8423C23.6465 18.737 23.5873 18.5942 23.5873 18.4453C23.5873 18.2964 23.6465 18.1537 23.7517 18.0484C23.857 17.9431 23.9998 17.8839 24.1487 17.8839H39.3864C39.5353 17.8839 39.678 17.9431 39.7833 18.0484C39.8886 18.1537 39.9477 18.2964 39.9477 18.4453C39.9477 18.5942 39.8886 18.737 39.7833 18.8423C39.678 18.9476 39.5352 19.0067 39.3864 19.0067H24.1487C23.9998 19.0067 23.857 18.9476 23.7517 18.8423Z" fill="#414550"/>
<path d="M14.128 18.0484C14.2332 17.9431 14.376 17.8839 14.5249 17.8839H20.9408C21.0897 17.8839 21.2325 17.9431 21.3377 18.0484C21.443 18.1537 21.5022 18.2964 21.5022 18.4453C21.5022 18.5942 21.443 18.737 21.3377 18.8423C21.2325 18.9476 21.0897 19.0067 20.9408 19.0067H14.5249C14.376 19.0067 14.2332 18.9476 14.128 18.8423C14.0227 18.737 13.9635 18.5942 13.9635 18.4453C13.9635 18.2964 14.0227 18.1537 14.128 18.0484Z" fill="#414550"/>
<path d="M28.1586 22.2146H12.119C11.9701 22.2146 11.8273 22.1555 11.722 22.0502C11.6167 21.9449 11.5576 21.8021 11.5576 21.6533C11.5576 21.5044 11.6167 21.3616 11.722 21.2563C11.8273 21.151 11.9701 21.0919 12.119 21.0919H28.1586C28.3075 21.0919 28.4503 21.151 28.5556 21.2563C28.6609 21.3616 28.72 21.5044 28.72 21.6533C28.72 21.8021 28.6609 21.9449 28.5556 22.0502C28.4503 22.1555 28.3075 22.2146 28.1586 22.2146Z" fill="#414550"/>
<path d="M31.3665 21.0919H39.3864C39.5353 21.0919 39.678 21.151 39.7833 21.2563C39.8886 21.3616 39.9477 21.5044 39.9477 21.6533C39.9477 21.8021 39.8886 21.9449 39.7833 22.0502C39.678 22.1555 39.5352 22.2146 39.3864 22.2146H31.3665C31.2177 22.2146 31.0749 22.1555 30.9696 22.0502C30.8643 21.9449 30.8052 21.8021 30.8052 21.6533C30.8052 21.5044 30.8643 21.3616 30.9696 21.2563C31.0749 21.151 31.2177 21.0919 31.3665 21.0919Z" fill="#414550"/>
<path d="M24.9507 24.2998H39.3864C39.5353 24.2998 39.678 24.3589 39.7833 24.4642C39.8886 24.5695 39.9477 24.7123 39.9477 24.8612C39.9477 25.0101 39.8886 25.1529 39.7833 25.2581C39.678 25.3634 39.5352 25.4226 39.3864 25.4226H24.9507C24.8018 25.4226 24.659 25.3634 24.5537 25.2581C24.4485 25.1529 24.3893 25.0101 24.3893 24.8612C24.3893 24.7123 24.4485 24.5695 24.5537 24.4642C24.659 24.3589 24.8018 24.2998 24.9507 24.2998Z" fill="#414550"/>
<path d="M34.5745 27.5077H39.3864C39.5352 27.5077 39.678 27.5669 39.7833 27.6722C39.8886 27.7774 39.9477 27.9202 39.9477 28.0691C39.9477 28.218 39.8886 28.3608 39.7833 28.4661C39.678 28.5714 39.5352 28.6305 39.3864 28.6305H34.5745C34.4256 28.6305 34.2828 28.5714 34.1775 28.4661C34.0722 28.3608 34.0131 28.218 34.0131 28.0691C34.0131 27.9202 34.0722 27.7774 34.1775 27.6722C34.2828 27.5669 34.4256 27.5077 34.5745 27.5077Z" fill="#414550"/>
<path d="M31.7635 28.4661C31.6582 28.5714 31.5154 28.6305 31.3665 28.6305H12.119C11.9701 28.6305 11.8273 28.5714 11.722 28.4661C11.6167 28.3608 11.5576 28.218 11.5576 28.0691C11.5576 27.9202 11.6167 27.7774 11.722 27.6722C11.8273 27.5669 11.9701 27.5077 12.119 27.5077H31.3665C31.5154 27.5077 31.6582 27.5669 31.7635 27.6722C31.8688 27.7774 31.9279 27.9202 31.9279 28.0691C31.9279 28.218 31.8688 28.3608 31.7635 28.4661Z" fill="#414550"/>
<path d="M21.7428 25.4226H12.119C11.9701 25.4226 11.8273 25.3634 11.722 25.2581C11.6167 25.1529 11.5576 25.0101 11.5576 24.8612C11.5576 24.7123 11.6167 24.5695 11.722 24.4642C11.8273 24.3589 11.9701 24.2998 12.119 24.2998H21.7428C21.8917 24.2998 22.0344 24.3589 22.1397 24.4642C22.245 24.5695 22.3041 24.7123 22.3041 24.8612C22.3041 25.0101 22.245 25.1529 22.1397 25.2581C22.0344 25.3634 21.8917 25.4226 21.7428 25.4226Z" fill="#414550"/>
<path d="M18.922 31.8384H13.1478C13.0288 31.8384 12.9089 31.7861 12.8162 31.6832C12.7228 31.5794 12.6666 31.4336 12.6666 31.277C12.6666 31.1204 12.7228 30.9747 12.8162 30.8709C12.9089 30.7679 13.0288 30.7157 13.1478 30.7157H18.922C19.041 30.7157 19.1609 30.7679 19.2536 30.8709C19.347 30.9747 19.4032 31.1204 19.4032 31.277C19.4032 31.4336 19.347 31.5794 19.2536 31.6832C19.1609 31.7861 19.041 31.8384 18.922 31.8384Z" fill="#414550"/>
<path d="M21.3458 30.8801C21.4511 30.7748 21.5939 30.7157 21.7428 30.7157H29.7626C29.9115 30.7157 30.0543 30.7748 30.1595 30.8801C30.2648 30.9854 30.324 31.1281 30.324 31.277C30.324 31.4259 30.2648 31.5687 30.1595 31.674C30.0543 31.7793 29.9115 31.8384 29.7626 31.8384H21.7428C21.5939 31.8384 21.4511 31.7793 21.3458 31.674C21.2405 31.5687 21.1814 31.4259 21.1814 31.277C21.1814 31.1281 21.2405 30.9854 21.3458 30.8801Z" fill="#414550"/>
<path d="M32.9705 30.7157H39.3864C39.5352 30.7157 39.678 30.7748 39.7833 30.8801C39.8886 30.9854 39.9477 31.1281 39.9477 31.277C39.9477 31.4259 39.8886 31.5687 39.7833 31.674C39.678 31.7793 39.5352 31.8384 39.3864 31.8384H32.9705C32.8216 31.8384 32.6788 31.7793 32.5735 31.674C32.4683 31.5687 32.4091 31.4259 32.4091 31.277C32.4091 31.1281 32.4683 30.9854 32.5735 30.8801C32.6788 30.7748 32.8216 30.7157 32.9705 30.7157Z" fill="#414550"/>
<path d="M15.4735 33.9236H27.0221C27.1089 33.9236 27.2064 33.9663 27.2879 34.0682C27.3704 34.1714 27.423 34.3208 27.423 34.485C27.423 34.6491 27.3704 34.7985 27.2879 34.9018C27.2064 35.0036 27.1089 35.0464 27.0221 35.0464H15.4735C15.3867 35.0464 15.2892 35.0036 15.2077 34.9018C15.1251 34.7985 15.0725 34.6491 15.0725 34.485C15.0725 34.3208 15.1251 34.1714 15.2077 34.0682C15.2892 33.9663 15.3867 33.9236 15.4735 33.9236Z" fill="#414550"/>
<path d="M31.6991 37.2406C31.7707 37.2933 31.8289 37.3622 31.8686 37.4418L32.5155 38.7354H34.4419L39.1353 36.3888C39.2685 36.3222 39.4226 36.3113 39.5639 36.3583C39.7051 36.4054 39.8219 36.5066 39.8885 36.6398C39.955 36.773 39.966 36.9271 39.9189 37.0684C39.8719 37.2096 39.7706 37.3264 39.6375 37.393L34.8255 39.7989C34.7476 39.8379 34.6617 39.8582 34.5745 39.8582H32.1686C32.0643 39.8582 31.9621 39.8292 31.8734 39.7744C31.7847 39.7196 31.7131 39.6411 31.6665 39.5479L31.2128 38.6405L30.1596 39.6938C30.0543 39.7991 29.9115 39.8582 29.7626 39.8582C29.6137 39.8582 29.4709 39.7991 29.3656 39.6938C29.2603 39.5885 29.2012 39.4457 29.2012 39.2968C29.2012 39.1479 29.2603 39.0051 29.3656 38.8998L30.9696 37.2959C31.0325 37.233 31.1094 37.1859 31.1941 37.1586C31.2787 37.1313 31.3687 37.1245 31.4565 37.1387C31.5443 37.153 31.6274 37.1879 31.6991 37.2406Z" fill="#414550"/>
<path fill-rule="evenodd" clip-rule="evenodd" d="M3.04281 35.688C3.04281 32.9419 5.26898 30.7157 8.01509 30.7157C10.7612 30.7157 12.9874 32.9419 12.9874 35.688C12.9874 36.9827 12.4919 38.1625 11.6815 39.0468L14.9767 49.2198L12.5657 48.0143L10.7607 50.107L8.39349 40.6461C8.26851 40.6555 8.14232 40.6603 8.01509 40.6603C7.89354 40.6603 7.77294 40.6559 7.65344 40.6473L5.45748 50.8284L3.85429 48.1564L0.749023 50.6406L4.93185 39.5892C3.78199 38.6791 3.04281 37.27 3.04281 35.688ZM5.90446 40.1913L3.25144 47.2008L4.15608 46.4771L4.95884 47.815L6.54943 40.4406C6.32738 40.3722 6.11199 40.2887 5.90446 40.1913ZM9.49811 40.4352L11.3244 47.7344L12.2863 46.6193L13.0832 47.0177L10.7571 39.8365C10.3719 40.0916 9.94885 40.2946 9.49811 40.4352ZM8.01509 31.8385C5.88907 31.8385 4.16558 33.562 4.16558 35.688C4.16558 37.0388 4.86089 38.2275 5.91576 38.9153C6.33332 39.1876 6.80652 39.3807 7.31454 39.4741C7.5413 39.5157 7.7754 39.5375 8.01509 39.5375C8.25479 39.5375 8.48889 39.5157 8.71565 39.4741C9.45894 39.3375 10.1282 38.9871 10.6571 38.4877C11.4013 37.7852 11.8646 36.7912 11.8646 35.688C11.8646 33.562 10.1411 31.8385 8.01509 31.8385Z" fill="#414550"/>
</svg>
