<svg width="180" height="24" viewBox="0 0 180 24" fill="none" xmlns="http://www.w3.org/2000/svg">
<path d="M12 1.38357L14.5668 8.00616L14.6833 8.30679L15.0052 8.3247L22.0968 8.71934L16.5915 13.207L16.3416 13.4107L16.4241 13.7224L18.2402 20.5889L12.271 16.7398L12 16.5651L11.729 16.7398L5.75982 20.5889L7.57593 13.7224L7.65837 13.4107L7.40846 13.207L1.90318 8.71934L8.99481 8.3247L9.31672 8.30679L9.43324 8.00616L12 1.38357Z" fill="#FFFDFA" stroke="#D2D1CF"/>
<path d="M51 1.38357L53.5668 8.00616L53.6833 8.30679L54.0052 8.3247L61.0968 8.71934L55.5915 13.207L55.3416 13.4107L55.4241 13.7224L57.2402 20.5889L51.271 16.7398L51 16.5651L50.729 16.7398L44.7598 20.5889L46.5759 13.7224L46.6584 13.4107L46.4085 13.207L40.9032 8.71934L47.9948 8.3247L48.3167 8.30679L48.4332 8.00616L51 1.38357Z" fill="#FFFDFA" stroke="#D2D1CF"/>
<path d="M90 1.38357L92.5668 8.00616L92.6833 8.30679L93.0052 8.3247L100.097 8.71934L94.5915 13.207L94.3416 13.4107L94.4241 13.7224L96.2402 20.5889L90.271 16.7398L90 16.5651L89.729 16.7398L83.7598 20.5889L85.5759 13.7224L85.6584 13.4107L85.4085 13.207L79.9032 8.71934L86.9948 8.3247L87.3167 8.30679L87.4332 8.00616L90 1.38357Z" fill="#FFFDFA" stroke="#D2D1CF"/>
<path d="M129 1.38357L131.567 8.00616L131.683 8.30679L132.005 8.3247L139.097 8.71934L133.592 13.207L133.342 13.4107L133.424 13.7224L135.24 20.5889L129.271 16.7398L129 16.5651L128.729 16.7398L122.76 20.5889L124.576 13.7224L124.658 13.4107L124.408 13.207L118.903 8.71934L125.995 8.3247L126.317 8.30679L126.433 8.00616L129 1.38357Z" fill="#FFFDFA" stroke="#D2D1CF"/>
<path d="M168 1.38357L170.567 8.00616L170.683 8.30679L171.005 8.3247L178.097 8.71934L172.592 13.207L172.342 13.4107L172.424 13.7224L174.24 20.5889L168.271 16.7398L168 16.5651L167.729 16.7398L161.76 20.5889L163.576 13.7224L163.658 13.4107L163.408 13.207L157.903 8.71934L164.995 8.3247L165.317 8.30679L165.433 8.00616L168 1.38357Z" fill="#FFFDFA" stroke="#D2D1CF"/>
</svg>
