<svg width="108" height="20" viewBox="0 0 108 20" fill="none" xmlns="http://www.w3.org/2000/svg">
<rect width="20" height="20" fill="#00B67B"/>
<path d="M10.1113 3.33325L11.7638 8.42613H17.1113L12.7851 11.5737L10.1113 13.519L13.155 12.7139L14.4376 16.6666L10.1113 13.519L5.78509 16.6666L7.43757 11.5737L3.11133 8.42613H8.45885L10.1113 3.33325Z" fill="white"/>
<rect x="22" width="20" height="20" fill="#00B67B"/>
<path d="M32.1113 3.33325L33.7638 8.42613H39.1113L34.7851 11.5737L32.1113 13.519L35.155 12.7139L36.4376 16.6666L32.1113 13.519L27.7851 16.6666L29.4376 11.5737L25.1113 8.42613H30.4589L32.1113 3.33325Z" fill="white"/>
<rect x="44" width="20" height="20" fill="#00B67B"/>
<path d="M54.1113 3.33325L55.7638 8.42613H61.1113L56.7851 11.5737L54.1113 13.519L57.155 12.7139L58.4376 16.6666L54.1113 13.519L49.7851 16.6666L51.4376 11.5737L47.1113 8.42613H52.4589L54.1113 3.33325Z" fill="white"/>
<rect x="66" width="20" height="20" fill="#00B67B"/>
<path d="M76.1113 3.33325L77.7638 8.42613H83.1113L78.7851 11.5737L76.1113 13.519L79.155 12.7139L80.4376 16.6666L76.1113 13.519L71.7851 16.6666L73.4376 11.5737L69.1113 8.42613H74.4589L76.1113 3.33325Z" fill="white"/>
<rect x="88" width="20" height="20" fill="#00B67B"/>
<path d="M98.1113 3.33325L99.7638 8.42613H105.111L100.785 11.5737L98.1113 13.519L101.155 12.7139L102.438 16.6666L98.1113 13.519L93.7851 16.6666L95.4376 11.5737L91.1113 8.42613H96.4589L98.1113 3.33325Z" fill="white"/>
</svg>
