<svg width="86" height="20" viewBox="0 0 86 20" fill="none" xmlns="http://www.w3.org/2000/svg">
<rect width="20" height="20" fill="#00B67B"/>
<path d="M10.1113 3.33301L11.7638 8.42589H17.1113L12.7851 11.5735L10.1113 13.5188L13.155 12.7136L14.4376 16.6663L10.1113 13.5188L5.78509 16.6663L7.43757 11.5735L3.11133 8.42589H8.45885L10.1113 3.33301Z" fill="white"/>
<rect x="22" width="20" height="20" fill="#00B67B"/>
<path d="M32.1113 3.33301L33.7638 8.42589H39.1113L34.7851 11.5735L32.1113 13.5188L35.155 12.7136L36.4376 16.6663L32.1113 13.5188L27.7851 16.6663L29.4376 11.5735L25.1113 8.42589H30.4589L32.1113 3.33301Z" fill="white"/>
<rect x="44" width="20" height="20" fill="#00B67B"/>
<path d="M54.1113 3.33301L55.7638 8.42589H61.1113L56.7851 11.5735L54.1113 13.5188L57.155 12.7136L58.4376 16.6663L54.1113 13.5188L49.7851 16.6663L51.4376 11.5735L47.1113 8.42589H52.4589L54.1113 3.33301Z" fill="white"/>
<rect x="66" width="20" height="20" fill="#00B67B"/>
<path d="M76.1113 3.33301L77.7638 8.42589H83.1113L78.7851 11.5735L76.1113 13.5188L79.155 12.7136L80.4376 16.6663L76.1113 13.5188L71.7851 16.6663L73.4376 11.5735L69.1113 8.42589H74.4589L76.1113 3.33301Z" fill="white"/>
</svg>
