<svg width="232" height="75" viewBox="0 0 232 75" fill="none" xmlns="http://www.w3.org/2000/svg">
<path opacity="0.6" d="M1 1.5L27.1111 27.7453L53.2222 1.5L79.3333 27.7453L105.444 1.5L131.556 27.7453L157.667 1.5L183.778 27.7453L209.889 1.5L236 27.7453M1 21.6887L27.1111 47.934L53.2222 21.6887L79.3333 47.934L105.444 21.6887L131.556 47.934L157.667 21.6887L183.778 47.934L209.889 21.6887L236 47.934M1 41.8774L27.1111 68.1226L53.2222 41.8774L79.3333 68.1226L105.444 41.8774L131.556 68.1226L157.667 41.8774L183.778 68.1226L209.889 41.8774L236 68.1226M1 62.066L27.1111 88.3113L53.2222 62.066L79.3333 88.3113L105.444 62.066L131.556 88.3113L157.667 62.066L183.778 88.3113L209.889 62.066L236 88.3113M1 82.2547L27.1111 108.5L53.2222 82.2547L79.3333 108.5L105.444 82.2547L131.556 108.5L157.667 82.2547L183.778 108.5L209.889 82.2547L236 108.5" stroke="#CDC2B6"/>
</svg>
