<svg width="105" height="27" viewBox="0 0 105 27" fill="none" xmlns="http://www.w3.org/2000/svg">
<g clip-path="url(#clip0)">
<path d="M27.6386 9.64569H38.2434V11.591H34.0678V22.5568H31.7792V11.591H27.6211L27.6386 9.64569ZM37.7891 13.2092H39.7459V15.0167H39.7808C39.8507 14.7585 39.973 14.5175 40.1477 14.2765C40.3224 14.0355 40.5321 13.8117 40.7941 13.6223C41.0387 13.4157 41.3183 13.2608 41.6327 13.1403C41.9297 13.0198 42.2442 12.9509 42.5587 12.9509C42.8033 12.9509 42.978 12.9681 43.0654 12.9681C43.1527 12.9854 43.2575 13.0026 43.3449 13.0026V14.9823C43.2051 14.9479 43.0479 14.9306 42.8906 14.9134C42.7334 14.8962 42.5936 14.879 42.4364 14.879C42.087 14.879 41.755 14.9479 41.4406 15.0856C41.1261 15.2233 40.864 15.4299 40.6194 15.6881C40.3923 15.9635 40.2001 16.2906 40.0604 16.6866C39.9206 17.0825 39.8507 17.5473 39.8507 18.0637V22.5052H37.7542L37.7891 13.2092ZM52.9539 22.5568H50.8923V21.2485H50.8574C50.5953 21.7305 50.2109 22.092 49.7043 22.3847C49.1976 22.6773 48.6735 22.815 48.1494 22.815C46.9089 22.815 46.0005 22.5224 45.4414 21.9026C44.8823 21.3001 44.6028 20.3705 44.6028 19.1483V13.2092H46.6993V18.9417C46.6993 19.768 46.8565 20.3533 47.1885 20.6804C47.503 21.0247 47.9572 21.1968 48.5337 21.1968C48.9705 21.1968 49.3374 21.128 49.6344 20.9903C49.9314 20.8525 50.176 20.6804 50.3507 20.4566C50.5429 20.2328 50.6652 19.9574 50.7525 19.6475C50.8399 19.3376 50.8748 18.9933 50.8748 18.6318V13.2092H52.9713V22.5568H52.9539ZM56.5179 19.5614C56.5878 20.1639 56.8149 20.5771 57.2168 20.8353C57.6186 21.0763 58.1078 21.1968 58.6668 21.1968C58.859 21.1968 59.0862 21.1796 59.3307 21.1452C59.5753 21.1108 59.8199 21.0591 60.0296 20.973C60.2567 20.887 60.4314 20.7665 60.5712 20.5943C60.7109 20.4222 60.7808 20.2156 60.7634 19.9574C60.7459 19.6991 60.6585 19.4754 60.4664 19.3032C60.2742 19.1311 60.0471 19.0106 59.7675 18.89C59.488 18.7868 59.156 18.7007 58.7891 18.6318C58.4223 18.563 58.0554 18.4769 57.671 18.3908C57.2866 18.3047 56.9023 18.2015 56.5354 18.081C56.1685 17.9605 55.854 17.8055 55.557 17.5817C55.2775 17.3751 55.0329 17.1169 54.8757 16.7898C54.701 16.4628 54.6136 16.084 54.6136 15.602C54.6136 15.0856 54.7359 14.6724 54.998 14.3281C55.2426 13.9838 55.5745 13.7084 55.9589 13.5018C56.3432 13.2952 56.78 13.1403 57.2517 13.0542C57.7234 12.9681 58.1777 12.9337 58.597 12.9337C59.0861 12.9337 59.5579 12.9854 59.9946 13.0887C60.4314 13.1919 60.8507 13.3469 61.2001 13.5879C61.567 13.8117 61.864 14.1215 62.0911 14.4831C62.3357 14.8446 62.4755 15.2922 62.5454 15.8086H60.3615C60.2567 15.3094 60.0296 14.9823 59.6802 14.8101C59.3133 14.638 58.9114 14.5519 58.4397 14.5519C58.3 14.5519 58.1078 14.5691 57.9156 14.5863C57.7059 14.6208 57.5312 14.6552 57.3391 14.7241C57.1644 14.7929 57.0071 14.8962 56.8848 15.0167C56.7625 15.1372 56.6926 15.3094 56.6926 15.5159C56.6926 15.7742 56.78 15.9635 56.9547 16.1185C57.1294 16.2734 57.3565 16.3939 57.6535 16.5144C57.9331 16.6177 58.265 16.7038 58.6319 16.7726C58.9988 16.8415 59.3832 16.9276 59.7675 17.0136C60.1519 17.0997 60.5188 17.203 60.8857 17.3235C61.2525 17.444 61.5845 17.5989 61.864 17.8227C62.1436 18.0293 62.3881 18.2875 62.5629 18.5974C62.7376 18.9073 62.8249 19.3032 62.8249 19.7508C62.8249 20.3017 62.7026 20.7665 62.4406 21.1624C62.1785 21.5411 61.8465 21.8682 61.4447 22.1092C61.0429 22.3502 60.5712 22.5224 60.082 22.6429C59.5753 22.7462 59.0861 22.815 58.597 22.815C58.003 22.815 57.4439 22.7462 56.9372 22.6085C56.4306 22.4707 55.9763 22.2642 55.6094 22.0059C55.2426 21.7305 54.9455 21.4034 54.7359 20.9903C54.5262 20.5943 54.404 20.1123 54.3865 19.5442H56.5005V19.5614H56.5179ZM63.4189 13.2092H65.0088V10.3859H67.1053V13.1919H68.9921V14.7241H67.1053V19.7164C67.1053 19.9402 67.1228 20.1123 67.1402 20.2845C67.1577 20.4394 67.2101 20.5771 67.2625 20.6804C67.3324 20.7837 67.4372 20.8698 67.5595 20.9214C67.6993 20.973 67.874 21.0075 68.1186 21.0075C68.2584 21.0075 68.4156 21.0075 68.5554 20.9903C68.6951 20.973 68.8524 20.9558 68.9921 20.9214V22.5224C68.765 22.5568 68.5379 22.574 68.3108 22.5912C68.0837 22.6257 67.874 22.6257 67.6294 22.6257C67.0703 22.6257 66.6336 22.574 66.3016 22.4707C65.9697 22.3674 65.7076 22.2125 65.5154 22.0231C65.3233 21.8166 65.201 21.5756 65.1311 21.2829C65.0612 20.9903 65.0262 20.6287 65.0088 20.25V14.7413H63.4189V13.1747V13.2092ZM70.4597 13.2092H72.4339V14.4831H72.4688C72.7658 13.9322 73.1677 13.5535 73.6918 13.3124C74.2159 13.0714 74.775 12.9509 75.404 12.9509C76.1552 12.9509 76.8016 13.0714 77.3607 13.3469C77.9198 13.6051 78.374 13.9494 78.7409 14.4142C79.1078 14.8618 79.3873 15.3954 79.562 15.998C79.7367 16.6005 79.8416 17.2546 79.8416 17.926C79.8416 18.563 79.7542 19.1655 79.597 19.7508C79.4223 20.3361 79.1777 20.8698 78.8457 21.3173C78.5138 21.7649 78.0945 22.1264 77.5703 22.4019C77.0462 22.6773 76.4522 22.815 75.7534 22.815C75.4564 22.815 75.1419 22.7806 74.8449 22.729C74.5479 22.6773 74.2509 22.5912 73.9713 22.4707C73.6918 22.3502 73.4297 22.1953 73.2026 22.0059C72.958 21.8166 72.7659 21.5928 72.6086 21.3518H72.5737V26.017H70.4772V13.2092H70.4597ZM77.78 17.8916C77.78 17.4784 77.7276 17.0653 77.6053 16.6693C77.5005 16.2734 77.3257 15.9291 77.0986 15.6192C76.8715 15.3094 76.592 15.0684 76.2775 14.879C75.9456 14.6896 75.5612 14.6036 75.1419 14.6036C74.2683 14.6036 73.6045 14.8962 73.1502 15.4987C72.7134 16.1013 72.4863 16.9103 72.4863 17.9088C72.4863 18.3908 72.5387 18.8212 72.661 19.2171C72.7833 19.6131 72.9406 19.9574 73.1852 20.25C73.4123 20.5427 73.6918 20.7665 74.0238 20.9386C74.3557 21.1108 74.7226 21.1968 75.1594 21.1968C75.6485 21.1968 76.0329 21.0935 76.3649 20.9042C76.6968 20.7148 76.9589 20.4566 77.186 20.1639C77.3956 19.8541 77.5529 19.5098 77.6402 19.1138C77.7276 18.7007 77.78 18.3047 77.78 17.8916ZM81.4663 9.64569H83.5629V11.591H81.4663V9.64569ZM81.4663 13.2092H83.5629V22.5568H81.4663V13.2092ZM85.4322 9.64569H87.5287V22.5568H85.4322V9.64569ZM93.9231 22.815C93.1718 22.815 92.4905 22.6945 91.8965 22.4363C91.3025 22.1781 90.8133 21.851 90.394 21.4206C89.9921 20.9903 89.6777 20.4566 89.468 19.8541C89.2584 19.2516 89.1361 18.5802 89.1361 17.8744C89.1361 17.1686 89.2409 16.5144 89.468 15.9119C89.6777 15.3094 89.9921 14.7929 90.394 14.3453C90.7958 13.915 91.3025 13.5707 91.8965 13.3297C92.4905 13.0887 93.1718 12.9509 93.9231 12.9509C94.6743 12.9509 95.3557 13.0714 95.9497 13.3297C96.5437 13.5707 97.0329 13.915 97.4522 14.3453C97.854 14.7757 98.1685 15.3094 98.3782 15.9119C98.5878 16.5144 98.7101 17.1686 98.7101 17.8744C98.7101 18.5974 98.6053 19.2516 98.3782 19.8541C98.151 20.4566 97.854 20.973 97.4522 21.4206C97.0504 21.851 96.5437 22.1953 95.9497 22.4363C95.3557 22.6773 94.6918 22.815 93.9231 22.815ZM93.9231 21.1796C94.3773 21.1796 94.7966 21.0763 95.1286 20.887C95.478 20.6976 95.7401 20.4394 95.9672 20.1295C96.1943 19.8197 96.3515 19.4581 96.4564 19.0794C96.5612 18.6835 96.6136 18.2875 96.6136 17.8744C96.6136 17.4784 96.5612 17.0825 96.4564 16.6866C96.3515 16.2906 96.1943 15.9463 95.9672 15.6364C95.7401 15.3266 95.4605 15.0856 95.1286 14.8962C94.7792 14.7068 94.3773 14.6036 93.9231 14.6036C93.4688 14.6036 93.0495 14.7068 92.7176 14.8962C92.3682 15.0856 92.1061 15.3438 91.879 15.6364C91.6519 15.9463 91.4946 16.2906 91.3898 16.6866C91.285 17.0825 91.2326 17.4784 91.2326 17.8744C91.2326 18.2875 91.285 18.6835 91.3898 19.0794C91.4946 19.4754 91.6519 19.8197 91.879 20.1295C92.1061 20.4394 92.3857 20.6976 92.7176 20.887C93.067 21.0935 93.4688 21.1796 93.9231 21.1796ZM99.3391 13.2092H100.929V10.3859H103.025V13.1919H104.912V14.7241H103.025V19.7164C103.025 19.9402 103.043 20.1123 103.06 20.2845C103.078 20.4394 103.13 20.5771 103.183 20.6804C103.253 20.7837 103.357 20.8698 103.48 20.9214C103.619 20.973 103.794 21.0075 104.039 21.0075C104.178 21.0075 104.336 21.0075 104.476 20.9903C104.615 20.973 104.773 20.9558 104.912 20.9214V22.5224C104.685 22.5568 104.458 22.574 104.231 22.5912C104.004 22.6257 103.794 22.6257 103.55 22.6257C102.99 22.6257 102.554 22.574 102.222 22.4707C101.89 22.3674 101.628 22.2125 101.436 22.0231C101.243 21.8166 101.121 21.5756 101.051 21.2829C100.981 20.9903 100.946 20.6287 100.929 20.25V14.7413H99.3391V13.1747V13.2092Z" fill="#202124"/>
<path d="M25.1921 9.64489H15.6006L12.648 0.658752L9.67794 9.64489L0.0864258 9.62768L7.8435 15.1881L4.87345 24.1742L12.6305 18.6138L20.3876 24.1742L17.435 15.1881L25.1921 9.64489Z" fill="#00B67A"/>
<path d="M18.1003 17.2203L17.4364 15.189L12.6494 18.6147L18.1003 17.2203Z" fill="#005128"/>
</g>
<defs>
<clipPath id="clip0">
<rect width="105" height="25.4779" fill="white" transform="translate(0 0.573486)"/>
</clipPath>
</defs>
</svg>
