<svg width="95" height="24" viewBox="0 0 95 24" fill="none" xmlns="http://www.w3.org/2000/svg">
<g clip-path="url(#clip0)">
<path d="M25.0065 8.20825H34.6014V9.96826H30.8235V19.8897H28.7528V9.96826H24.9907L25.0065 8.20825ZM34.1904 11.4323H35.9608V13.0677H35.9924C36.0556 12.8341 36.1663 12.6161 36.3243 12.398C36.4824 12.18 36.6721 11.9775 36.9092 11.8061C37.1305 11.6192 37.3834 11.4791 37.6679 11.37C37.9366 11.261 38.2212 11.1987 38.5057 11.1987C38.727 11.1987 38.8851 11.2143 38.9641 11.2143C39.0431 11.2299 39.138 11.2454 39.217 11.2454V13.0366C39.0906 13.0054 38.9483 12.9899 38.806 12.9743C38.6638 12.9587 38.5373 12.9431 38.395 12.9431C38.0789 12.9431 37.7786 13.0054 37.4941 13.13C37.2095 13.2547 36.9724 13.4416 36.7511 13.6752C36.5456 13.9244 36.3718 14.2203 36.2453 14.5786C36.1188 14.9368 36.0556 15.3573 36.0556 15.8246V19.843H34.1588L34.1904 11.4323ZM47.9109 19.8897H46.0456V18.706H46.014C45.7769 19.1421 45.4292 19.4692 44.9708 19.734C44.5124 19.9988 44.0381 20.1234 43.5639 20.1234C42.4416 20.1234 41.6197 19.8586 41.1138 19.2979C40.608 18.7527 40.3551 17.9117 40.3551 16.8058V11.4323H42.252V16.6189C42.252 17.3665 42.3942 17.8961 42.6945 18.192C42.9791 18.5035 43.3901 18.6593 43.9117 18.6593C44.3069 18.6593 44.6388 18.597 44.9075 18.4724C45.1762 18.3478 45.3975 18.192 45.5556 17.9895C45.7295 17.7871 45.8401 17.5379 45.9192 17.2575C45.9982 16.9772 46.0298 16.6656 46.0298 16.3386V11.4323H47.9267V19.8897H47.9109ZM51.1355 17.1796C51.1987 17.7248 51.4042 18.0986 51.7678 18.3322C52.1313 18.5503 52.5739 18.6593 53.0797 18.6593C53.2536 18.6593 53.4591 18.6437 53.6804 18.6126C53.9017 18.5814 54.123 18.5347 54.3127 18.4568C54.5182 18.3789 54.6762 18.2699 54.8027 18.1141C54.9292 17.9584 54.9924 17.7715 54.9766 17.5379C54.9608 17.3042 54.8817 17.1018 54.7079 16.946C54.534 16.7902 54.3285 16.6812 54.0756 16.5722C53.8227 16.4787 53.5223 16.4009 53.1904 16.3386C52.8584 16.2763 52.5265 16.1984 52.1787 16.1205C51.831 16.0426 51.4832 15.9492 51.1513 15.8402C50.8193 15.7311 50.5348 15.5909 50.2661 15.3885C50.0132 15.2016 49.7919 14.9679 49.6496 14.672C49.4916 14.3761 49.4125 14.0334 49.4125 13.5973C49.4125 13.13 49.5232 12.7562 49.7603 12.4447C49.9816 12.1332 50.2819 11.884 50.6297 11.6971C50.9774 11.5102 51.3726 11.37 51.7994 11.2922C52.2262 11.2143 52.6371 11.1831 53.0165 11.1831C53.4591 11.1831 53.8859 11.2299 54.2811 11.3233C54.6762 11.4168 55.0556 11.5569 55.3717 11.775C55.7037 11.9775 55.9724 12.2578 56.1779 12.5849C56.3992 12.912 56.5257 13.317 56.5889 13.7842H54.613C54.5182 13.3325 54.3127 13.0366 53.9965 12.8808C53.6646 12.7251 53.301 12.6472 52.8742 12.6472C52.7478 12.6472 52.5739 12.6628 52.4 12.6784C52.2104 12.7095 52.0523 12.7407 51.8784 12.803C51.7203 12.8653 51.5781 12.9587 51.4674 13.0677C51.3568 13.1768 51.2935 13.3325 51.2935 13.5194C51.2935 13.7531 51.3726 13.9244 51.5307 14.0646C51.6887 14.2047 51.8942 14.3138 52.1629 14.4228C52.4158 14.5163 52.7162 14.5941 53.0481 14.6564C53.3801 14.7187 53.7278 14.7966 54.0756 14.8745C54.4233 14.9524 54.7553 15.0458 55.0872 15.1548C55.4192 15.2639 55.7195 15.404 55.9724 15.6065C56.2253 15.7934 56.4466 16.0271 56.6047 16.3074C56.7628 16.5878 56.8418 16.946 56.8418 17.351C56.8418 17.8494 56.7312 18.2699 56.494 18.6281C56.2569 18.9708 55.9566 19.2667 55.5931 19.4848C55.2295 19.7028 54.8027 19.8586 54.3601 19.9676C53.9017 20.0611 53.4591 20.1234 53.0165 20.1234C52.4791 20.1234 51.9732 20.0611 51.5148 19.9365C51.0564 19.8119 50.6455 19.625 50.3135 19.3913C49.9816 19.1421 49.7128 18.8462 49.5232 18.4724C49.3335 18.1142 49.2228 17.678 49.207 17.1641H51.1197V17.1796H51.1355ZM57.3792 11.4323H58.8177V8.87799H60.7145V11.4168H62.4217V12.803H60.7145V17.3198C60.7145 17.5223 60.7303 17.678 60.7461 17.8338C60.7619 17.974 60.8094 18.0986 60.8568 18.192C60.92 18.2855 61.0149 18.3634 61.1255 18.4101C61.252 18.4568 61.41 18.488 61.6313 18.488C61.7578 18.488 61.9 18.488 62.0265 18.4724C62.153 18.4568 62.2952 18.4412 62.4217 18.4101V19.8586C62.2162 19.8897 62.0107 19.9053 61.8052 19.9209C61.5997 19.952 61.41 19.952 61.1887 19.952C60.6829 19.952 60.2877 19.9053 59.9874 19.8119C59.6871 19.7184 59.45 19.5782 59.2761 19.4069C59.1022 19.22 58.9916 19.0019 58.9283 18.7372C58.8651 18.4724 58.8335 18.1453 58.8177 17.8026V12.8185H57.3792V11.4012V11.4323ZM63.7495 11.4323H65.5356V12.5849H65.5673C65.836 12.0865 66.1995 11.7438 66.6737 11.5258C67.148 11.3077 67.6538 11.1987 68.2228 11.1987C68.9025 11.1987 69.4874 11.3077 69.9932 11.5569C70.499 11.7906 70.91 12.1021 71.242 12.5226C71.5739 12.9276 71.8268 13.4104 71.9849 13.9555C72.143 14.5007 72.2378 15.0925 72.2378 15.7C72.2378 16.2763 72.1588 16.8214 72.0165 17.351C71.8584 17.8805 71.6371 18.3634 71.3368 18.7683C71.0365 19.1733 70.6571 19.5004 70.1829 19.7496C69.7087 19.9988 69.1713 20.1234 68.539 20.1234C68.2703 20.1234 67.9857 20.0922 67.717 20.0455C67.4483 19.9988 67.1796 19.9209 66.9267 19.8119C66.6737 19.7028 66.4366 19.5627 66.2312 19.3913C66.0099 19.22 65.836 19.0175 65.6937 18.7995H65.6621V23.0204H63.7653V11.4323H63.7495ZM70.3726 15.6688C70.3726 15.295 70.3252 14.9212 70.2145 14.563C70.1197 14.2047 69.9616 13.8932 69.7561 13.6129C69.5506 13.3325 69.2977 13.1145 69.0132 12.9431C68.7129 12.7718 68.3651 12.6939 67.9857 12.6939C67.1954 12.6939 66.5947 12.9587 66.1837 13.5039C65.7886 14.049 65.5831 14.781 65.5831 15.6844C65.5831 16.1205 65.6305 16.5099 65.7411 16.8681C65.8518 17.2264 65.994 17.5379 66.2153 17.8026C66.4208 18.0674 66.6738 18.2699 66.9741 18.4257C67.2744 18.5814 67.6064 18.6593 68.0015 18.6593C68.4441 18.6593 68.7919 18.5658 69.0922 18.3945C69.3926 18.2232 69.6297 17.9895 69.8351 17.7248C70.0248 17.4444 70.1671 17.1329 70.2461 16.7747C70.3252 16.4009 70.3726 16.0426 70.3726 15.6688ZM73.7079 8.20825H75.6047V9.96826H73.7079V8.20825ZM73.7079 11.4323H75.6047V19.8897H73.7079V11.4323ZM77.296 8.20825H79.1929V19.8897H77.296V8.20825ZM84.9782 20.1234C84.2985 20.1234 83.6821 20.0143 83.1446 19.7807C82.6072 19.5471 82.1646 19.2512 81.7852 18.8618C81.4217 18.4724 81.1371 17.9895 80.9475 17.4444C80.7578 16.8993 80.6471 16.2918 80.6471 15.6533C80.6471 15.0147 80.742 14.4228 80.9475 13.8777C81.1371 13.3325 81.4217 12.8653 81.7852 12.4603C82.1488 12.0709 82.6072 11.7594 83.1446 11.5414C83.6821 11.3233 84.2985 11.1987 84.9782 11.1987C85.6579 11.1987 86.2744 11.3077 86.8119 11.5414C87.3493 11.7594 87.7919 12.0709 88.1712 12.4603C88.5348 12.8497 88.8193 13.3325 89.009 13.8777C89.1987 14.4228 89.3094 15.0147 89.3094 15.6533C89.3094 16.3074 89.2145 16.8993 89.009 17.4444C88.8035 17.9895 88.5348 18.4568 88.1712 18.8618C87.8077 19.2512 87.3493 19.5627 86.8119 19.7807C86.2744 19.9988 85.6737 20.1234 84.9782 20.1234ZM84.9782 18.6437C85.3892 18.6437 85.7686 18.5503 86.0689 18.3789C86.3851 18.2076 86.6222 17.974 86.8277 17.6936C87.0331 17.4133 87.1754 17.0862 87.2702 16.7435C87.3651 16.3853 87.4125 16.0271 87.4125 15.6533C87.4125 15.295 87.3651 14.9368 87.2702 14.5786C87.1754 14.2203 87.0331 13.9088 86.8277 13.6285C86.6222 13.3481 86.3693 13.1301 86.0689 12.9587C85.7528 12.7874 85.3892 12.6939 84.9782 12.6939C84.5673 12.6939 84.1879 12.7874 83.8876 12.9587C83.5714 13.1301 83.3343 13.3637 83.1288 13.6285C82.9233 13.9088 82.7811 14.2203 82.6862 14.5786C82.5914 14.9368 82.544 15.295 82.544 15.6533C82.544 16.0271 82.5914 16.3853 82.6862 16.7435C82.7811 17.1018 82.9233 17.4133 83.1288 17.6936C83.3343 17.974 83.5872 18.2076 83.8876 18.3789C84.2037 18.5658 84.5673 18.6437 84.9782 18.6437ZM89.8784 11.4323H91.3168V8.87799H93.2137V11.4168H94.9208V12.803H93.2137V17.3198C93.2137 17.5223 93.2295 17.678 93.2453 17.8338C93.2611 17.974 93.3085 18.0986 93.3559 18.192C93.4192 18.2855 93.514 18.3634 93.6247 18.4101C93.7511 18.4568 93.9092 18.488 94.1305 18.488C94.2569 18.488 94.3992 18.488 94.5257 18.4724C94.6521 18.4568 94.7944 18.4412 94.9208 18.4101V19.8586C94.7153 19.8897 94.5098 19.9053 94.3044 19.9209C94.0989 19.952 93.9092 19.952 93.6879 19.952C93.1821 19.952 92.7869 19.9053 92.4866 19.8119C92.1862 19.7184 91.9491 19.5782 91.7752 19.4069C91.6014 19.22 91.4907 19.0019 91.4275 18.7372C91.3643 18.4724 91.3326 18.1453 91.3168 17.8026V12.8185H89.8784V11.4012V11.4323Z" fill="white"/>
<path d="M22.7928 8.20747H14.1147L11.4434 0.0771484L8.75616 8.20747L0.078125 8.19189L7.09643 13.2227L4.40924 21.353L11.4275 16.3222L18.4458 21.353L15.7745 13.2227L22.7928 8.20747Z" fill="#00B67A"/>
<path d="M16.3761 15.0615L15.7755 13.2236L11.4443 16.3231L16.3761 15.0615Z" fill="#005128"/>
</g>
<defs>
<clipPath id="clip0">
<rect width="95" height="23.0515" fill="white"/>
</clipPath>
</defs>
</svg>
