<svg width="281" height="129" viewBox="0 0 281 129" fill="none" xmlns="http://www.w3.org/2000/svg">
<path d="M1 1L32 32.1509L63 1L94 32.1509L125 1L156 32.1509L187 1L218 32.1509L249 1L280 32.1509M1 24.9623L32 56.1132L63 24.9623L94 56.1132L125 24.9623L156 56.1132L187 24.9623L218 56.1132L249 24.9623L280 56.1132M1 48.9245L32 80.0755L63 48.9245L94 80.0755L125 48.9245L156 80.0755L187 48.9245L218 80.0755L249 48.9245L280 80.0755M1 72.8868L32 104.038L63 72.8868L94 104.038L125 72.8868L156 104.038L187 72.8868L218 104.038L249 72.8868L280 104.038M1 96.8491L32 128L63 96.8491L94 128L125 96.8491L156 128L187 96.8491L218 128L249 96.8491L280 128" stroke="#CDC2B6"/>
</svg>
